<?xml version="1.0" encoding="UTF-8"?>
<svg id="Calque_1" data-name="Calque 1" xmlns="http://www.w3.org/2000/svg" viewBox="0 0 109.4 110">
  <defs>
    <style>
      .cls-1 {
        fill: #010101;
      }
    </style>
  </defs>
  <path class="cls-1" d="m21.9,34.11v42.42c0,17.27,13.61,31.98,30.25,33.35l.79.06c.58.03,1.17.05,1.76.05s1.17-.02,1.76-.05l.79-.06c16.64-1.38,30.25-16.08,30.25-33.35v-42.42H21.9Zm57.11,5.09l-21.77,19.28v-19.28h21.77Zm-26.86,19.28l-21.77-19.28h21.77v19.28Zm5.09,19.23h25.13c-.07,1.74-.31,3.44-.69,5.09h-24.44v-5.09Zm0-5.09v-5.09h25.17v5.09h-25.17Zm3.19-10.18l21.97-19.45v19.45h-21.97Zm-33.45,14.08v-33.54l25.16,22.28v39.51c-13.88-1.37-25.16-13.74-25.16-28.25Zm30.25,28.25v-16.89h22.75c-4.03,9.15-12.71,15.91-22.75,16.89Z"/>
  <g>
    <polygon class="cls-1" points="73.88 5.14 79.78 5.14 79.78 25.5 84.86 25.5 84.86 5.14 90.76 5.14 90.76 .05 73.88 .05 73.88 5.14"/>
    <polygon class="cls-1" points="29.51 25.45 44.08 25.45 44.08 20.36 34.6 20.36 34.6 14.99 41.89 14.99 41.89 9.9 34.6 9.9 34.6 5.14 44.08 5.14 44.08 .05 29.51 .05 29.51 25.45"/>
    <polygon class="cls-1" points="109.4 5.14 109.4 .05 94.83 .05 94.83 25.45 109.4 25.45 109.4 20.36 99.92 20.36 99.92 14.99 107.22 14.99 107.22 9.9 99.92 9.9 99.92 5.14 109.4 5.14"/>
    <polygon class="cls-1" points="18.5 0 11.74 7.45 5.11 0 0 0 0 25.5 5.09 25.5 5.09 7.75 11.7 15.17 18.5 7.69 18.5 25.5 23.59 25.5 23.59 0 18.5 0"/>
    <path class="cls-1" d="m64.85,0s-.03,10.88-.02,15.57c0,1.34-.52,2.6-1.48,3.56-.97.97-2.26,1.5-3.63,1.5s-2.66-.53-3.63-1.5c-.95-.96-1.48-2.22-1.48-3.56,0-4.69,0-15.57,0-15.57h-5.09s0,10.87,0,15.56c0,2.7,1.05,5.24,2.96,7.16,1.93,1.93,4.5,3,7.23,3s5.3-1.06,7.23-3c1.92-1.92,2.97-4.46,2.97-7.16,0-4.68.02-15.55.02-15.55h-5.09Z"/>
  </g>
</svg>