<?xml version="1.0" encoding="UTF-8"?>
<svg id="Calque_1" data-name="Calque 1" xmlns="http://www.w3.org/2000/svg" viewBox="0 0 57.27 57.26">
  <defs>
    <style>
      .cls-1 {
        fill: none;
        stroke: #000;
        stroke-miterlimit: 10;
        stroke-width: .8px;
      }
    </style>
  </defs>
  <path d="m44.1,26.66l-17.41,17.43c-.47.47-1.05.71-1.74.71s-1.26-.24-1.74-.71l-2.42-2.42c.72-.72,1.08-1.59,1.08-2.61s-.36-1.89-1.08-2.61c-.72-.72-1.59-1.07-2.61-1.07s-1.89.36-2.61,1.07l-2.4-2.42c-.47-.47-.71-1.05-.71-1.74s.24-1.26.71-1.74L30.58,13.17c.47-.47,1.05-.71,1.74-.71s1.26.24,1.74.71l2.4,2.4c-.72.72-1.08,1.59-1.08,2.61s.36,1.89,1.08,2.61c.72.72,1.59,1.08,2.61,1.08s1.89-.36,2.61-1.08l2.42,2.4c.47.47.71,1.05.71,1.74s-.24,1.26-.71,1.74m-17.07,12.23l11.86-11.86c.24-.24.36-.53.36-.86s-.12-.62-.36-.86l-6.95-6.95c-.23-.23-.52-.35-.86-.35s-.63.12-.86.35l-11.86,11.86c-.24.24-.36.53-.36.86s.12.62.36.86l6.95,6.95c.23.23.52.35.86.35s.63-.11.86-.35m4.05-18.79l6.07,6.07-10.98,10.98-6.07-6.07,10.98-10.98Z"/>
  <path class="cls-1" d="m56.87,28.63c0,15.59-12.64,28.23-28.23,28.23S.4,44.22.4,28.63,13.04.4,28.63.4s28.23,12.64,28.23,28.23Z"/>
</svg>