<?xml version="1.0" encoding="UTF-8"?>
<svg id="Calque_1" data-name="Calque 1" xmlns="http://www.w3.org/2000/svg" viewBox="0 0 286.58 184.35">
  <defs>
    <style>
      .cls-1 {
        fill: #010101;
      }

      .cls-2 {
        fill: #fff;
      }
    </style>
  </defs>
  <path d="m281.28,184.35H5.43c-2.91,0-5.3-2.38-5.3-5.3V5.3C.13,2.38,2.51,0,5.43,0h275.85c2.91,0,5.3,2.38,5.3,5.3v173.75c0,2.91-2.38,5.3-5.3,5.3"/>
  <rect class="cls-2" y="46.01" width="122.66" height="92.91"/>
  <path class="cls-1" d="m91.57,85.39c-3.49,0-6.32,2.86-6.32,6.38s2.83,6.38,6.32,6.38,6.32-2.86,6.32-6.38-2.84-6.38-6.32-6.38m3.85,5.75l-.54.55-.54-.55-.54.55-.55-.55.55-.55-.55-.55.55-.55.54.55.54-.55.54.55-.54.55.54.55Zm-3.85,5.93c-2.89,0-5.24-2.38-5.24-5.29s2.35-5.29,5.24-5.29v10.58Z"/>
  <path class="cls-1" d="m89.2,91.36c.38,0,.69-.31.69-.7s-.31-.7-.69-.7-.69.31-.69.7.31.7.69.7"/>
  <polygon class="cls-1" points="97.32 69.84 97.32 67.75 90.64 67.75 90.64 67.77 90.53 67.77 90.53 80.56 90.55 80.56 90.55 80.57 97.22 80.57 97.22 78.48 92.54 78.48 92.54 74.8 96.28 74.8 96.28 72.7 92.54 72.7 92.54 69.84 97.32 69.84"/>
  <path class="cls-1" d="m45.4,67.74v.02s-.02-.02-.02-.02l-.1.28-5.36,12.57h2.21l.86-2.11h4.81l.86,2.11h2.2l-5.36-12.57-.1-.28Zm-1.59,8.73l1.58-3.88,1.59,3.88h-3.17Z"/>
  <polygon class="cls-1" points="84.69 75.41 77.69 67.74 77.69 67.78 77.68 67.77 77.68 69.45 77.68 70.68 77.68 70.68 77.68 80.52 79.7 80.52 79.7 72.91 84.95 78.72 84.96 78.71 86.71 80.59 86.71 67.77 84.69 67.77 84.69 75.41"/>
  <path class="cls-1" d="m73.95,75.76h0v-8.02h-2.01v7.94h0v.08h0c0,.47-.13,2.83-2.44,2.83h-.22c-2.32-.01-2.43-2.39-2.43-2.84v-.04s0-.03,0-.03h0v-7.94h-2.01v7.95h0v.83s-.14,4.06,4.44,4.06h.24c4.58,0,4.44-4.06,4.44-4.06v-.77Z"/>
  <polygon class="cls-1" points="32.94 74.85 32.49 74.17 32.94 73.43 32.94 67.73 30.9 67.73 30.9 73.43 30.45 74.17 30.9 74.85 30.9 80.59 31.24 80.59 31.24 80.59 38.97 80.59 38.97 78.58 32.94 78.58 32.94 74.85"/>
  <polygon class="cls-1" points="56.87 74.85 56.43 74.17 56.87 73.43 56.87 67.73 54.84 67.73 54.84 73.43 54.39 74.17 54.84 74.85 54.84 80.59 55.18 80.59 55.18 80.59 62.9 80.59 62.9 78.58 56.87 78.58 56.87 74.85"/>
  <path class="cls-1" d="m34.51,85.83h-3.51v5.64l-.45.74.45.67v5.69h3.68s6.14.06,6.14-6.45-6.32-6.29-6.32-6.29m0,10.79h-1.45v-3.74l-.45-.67.45-.74v-3.64h1.39s4.24.56,4.24,4.31-4.18,4.48-4.18,4.48"/>
  <path class="cls-1" d="m57.64,91.17c-1.1-.47-2.51-.98-2.51-1.99s.53-1.41,1.37-1.52c.83-.1,2.17.81,2.17.81l1.1-1.48s-.8-1.04-3.07-1.14c-2.27-.1-3.34,1.68-3.51,3.17-.17,1.48.54,1.96,1.54,2.8,1,.84,4.07,1.65,4.04,3.03-.03,1.38-.97,1.79-2.14,1.79s-2.9-1.55-2.9-1.55l-1.4,1.42c.8.81,2.34,2.09,4.34,2.09s4.14-1.35,4.14-3.71-2.07-3.24-3.17-3.71"/>
  <polygon class="cls-1" points="43.21 85.81 43.1 85.81 43.1 98.6 43.12 98.6 43.12 98.6 49.79 98.6 49.79 96.52 45.11 96.52 45.11 92.86 48.91 92.86 48.91 90.74 45.11 90.74 45.11 87.87 49.89 87.87 49.89 85.79 43.21 85.79 43.21 85.81"/>
  <polygon class="cls-1" points="41.64 109.76 41.17 110.55 41.64 111.26 41.64 117.19 43.79 117.19 43.79 111.26 43.32 110.55 43.79 109.76 43.79 103.87 41.64 103.87 41.64 109.76"/>
  <path class="cls-1" d="m64.41,103.45v.02s-.02-.02-.02-.02l-.11.3-5.73,13.44h2.36l.85-2.08h5.29l.85,2.08h2.36l-5.73-13.44-.11-.3Zm-1.79,9.53l1.78-4.35,1.78,4.35h-3.55Z"/>
  <path class="cls-1" d="m35.22,103.91l-.78-.03h0s-.09,0-.09,0h-.1s0,0,0,0h-3.42v.02h-.02v13.28h2.15v-3.53h1.35s.91,0,.91,0c0,0,4.35.15,4.35-4.74v-.25c0-4.9-4.35-4.74-4.35-4.74m2.2,4.99c0,2.41-2.4,2.59-2.98,2.6h0s-1.47,0-1.47,0v-5.46h1.47c.68.03,2.99.3,2.99,2.63v.23Z"/>
  <path class="cls-1" d="m51.67,103.89h-.96s0-.01,0-.01h-3.5v.02h0v13.29h2.16v-3.94l3.31,3.95h3.03s-3.38-4.04-3.38-4.04c1.22-.22,3.68-1.09,3.68-4.52v-.24c0-4.55-4.33-4.5-4.33-4.5m2.18,4.73c0,2.24-2.4,2.45-2.98,2.47h0s-1.51,0-1.51,0v-5.05h1.36s3.15-.17,3.15,2.37v.22Z"/>
  <path class="cls-1" d="m94.7,109.45c-1.12-.49-2.54-1.02-2.54-2.08s.54-1.48,1.39-1.58c.85-.11,2.2.85,2.2.85l1.11-1.55s-.81-1.09-3.11-1.2c-2.3-.1-3.38,1.76-3.55,3.31-.17,1.55.54,2.04,1.56,2.92,1.02.88,4.13,1.72,4.09,3.16-.04,1.44-.98,1.86-2.17,1.86s-2.94-1.62-2.94-1.62l-1.42,1.48c.81.84,2.37,2.18,4.4,2.18s4.2-1.41,4.2-3.87-2.1-3.38-3.21-3.87"/>
  <polygon class="cls-1" points="80.62 103.84 80.5 103.84 80.5 117.2 80.52 117.2 80.52 117.21 87.49 117.21 87.49 115.03 82.6 115.03 82.6 111.21 86.68 111.21 86.68 109 82.6 109 82.6 106 87.59 106 87.59 103.82 80.62 103.82 80.62 103.84"/>
  <polygon class="cls-1" points="75.16 103.87 73 103.87 73 103.88 69.8 103.88 69.8 106.03 73 106.03 73 109.76 72.53 110.53 73 111.23 73 117.17 75.16 117.17 75.16 111.23 74.68 110.53 75.16 109.76 75.16 106.03 78.45 106.03 78.45 103.88 75.16 103.88 75.16 103.87"/>
  <polygon class="cls-1" points="19.96 63.56 19.16 64.77 19.96 66.12 19.96 76.37 16.3 76.37 16.3 66.12 15.49 64.77 16.3 63.56 16.3 53.23 16.91 53.23 16.91 53.23 39.1 53.23 39.1 56.85 19.96 56.85 19.96 63.56"/>
  <polygon class="cls-1" points="109.03 121.37 109.84 120.15 109.03 118.81 109.03 108.56 112.7 108.56 112.7 118.81 113.51 120.15 112.7 121.37 112.7 131.7 112.09 131.7 112.09 131.7 89.9 131.7 89.9 128.08 109.03 128.08 109.03 121.37"/>
</svg>