<?xml version="1.0" encoding="UTF-8"?>
<svg id="Calque_1" data-name="Calque 1" xmlns="http://www.w3.org/2000/svg" viewBox="0 0 67.8 67.56">
  <defs>
    <style>
      .cls-1 {
        fill: #fff;
      }
    </style>
  </defs>
  <path class="cls-1" d="m3.1,18.1L28.34,1.67c.79-.53,1.65-.94,2.58-1.23.93-.29,1.92-.44,2.98-.44s2.05.14,2.98.44c.93.29,1.79.7,2.58,1.23l25.24,16.43c.95.64,1.71,1.46,2.26,2.46.56,1.01.83,2.09.83,3.26v36.99c0,1.85-.66,3.44-1.98,4.76-1.32,1.32-2.94,1.98-4.84,1.98H6.83c-1.91,0-3.52-.66-4.84-1.98-1.32-1.32-1.99-2.91-1.99-4.76V23.82c0-1.17.28-2.25.83-3.26.55-1.01,1.31-1.8,2.26-2.38v-.08Zm57.88,5.72v7.38l-20.24,18.1c-.9.79-1.93,1.43-3.1,1.91-1.17.48-2.41.71-3.73.71s-2.49-.24-3.65-.71c-1.16-.48-2.2-1.11-3.1-1.91L6.83,31.2v-7.38,36.99h54.14V23.82Zm-53.03-.72l23.74,21.12c.32.32.66.54,1.03.67.37.13.77.2,1.19.2.48,0,.9-.07,1.27-.2.37-.13.71-.36,1.03-.67l23.74-21.12-24.21-15.8c-.26-.16-.54-.29-.83-.4-.29-.11-.62-.16-.99-.16s-.7.05-.99.16c-.29.1-.57.24-.83.4L7.94,23.1Z"/>
</svg>