<?xml version="1.0" encoding="UTF-8"?>
<svg id="Calque_1" data-name="Calque 1" xmlns="http://www.w3.org/2000/svg" viewBox="0 0 83.62 70.54">
  <defs>
    <style>
      .cls-1 {
        fill: #fff;
      }
    </style>
  </defs>
  <path class="cls-1" d="m33.88,50.31c-.92,0-1.73-.34-2.39-.99-.66-.66-.99-1.48-.99-2.43s.33-1.73.99-2.39c.66-.66,1.46-.99,2.39-.99s1.77.33,2.43.99c.66.66.99,1.46.99,2.39s-.34,1.77-.99,2.43c-.66.66-1.48.99-2.43.99m-10.99,0c-.95,0-1.77-.34-2.42-.99s-.99-1.48-.99-2.43.33-1.73.99-2.39c.66-.66,1.47-.99,2.42-.99s1.73.33,2.39.99c.66.66.99,1.46.99,2.39s-.33,1.77-.99,2.43-1.46.99-2.39.99m.18-8.55c-1.5,0-2.84-.47-3.97-1.38-1.13-.92-1.86-2.09-2.17-3.5l-1.95-8.72h-1.61c-.49-.03-.9-.21-1.23-.53-.33-.33-.5-.74-.5-1.23s.17-.9.5-1.23c.33-.33.73-.51,1.21-.53h1.82c.77,0,1.46.24,2.05.72.6.48.98,1.1,1.14,1.84l1.99,8.88c.14.64.45,1.15.96,1.55.51.41,1.08.61,1.74.61h11.6l2.16-8.57h-14.39c-.47-.03-.87-.21-1.19-.53-.33-.33-.5-.74-.5-1.23,0-.46.17-.86.49-1.21.33-.34.72-.53,1.18-.56h14.73c.9,0,1.68.32,2.31.96.64.64.96,1.42.96,2.32v.06l.1-.1-.18.84-2.29,9.07c-.18.72-.57,1.31-1.16,1.77-.58.47-1.27.7-2.04.7h-11.8Z"/>
  <path class="cls-1" d="m48.31,17.61h17.61c.99,0,1.83.34,2.52,1.03.69.69,1.03,1.53,1.03,2.52,0,.94-.34,1.75-1.03,2.44-.69.69-1.53,1.03-2.52,1.03h-17.61c-.99,0-1.83-.34-2.52-1.03-.69-.69-1.03-1.5-1.03-2.44,0-.99.34-1.83,1.03-2.52.69-.69,1.53-1.03,2.52-1.03m0,28.2h17.61c.99,0,1.83.34,2.52,1.03.69.69,1.03,1.53,1.03,2.52s-.34,1.83-1.03,2.52c-.69.69-1.53,1.03-2.52,1.03h-17.61c-.99,0-1.83-.34-2.52-1.03-.69-.69-1.03-1.53-1.03-2.52s.34-1.83,1.03-2.52c.69-.69,1.53-1.03,2.52-1.03m7.03-14.06h10.58c.99,0,1.83.35,2.52,1.03s1.03,1.5,1.03,2.44c0,.99-.34,1.83-1.03,2.52s-1.53,1.03-2.52,1.03h-10.58c-.94,0-1.75-.35-2.44-1.03s-1.03-1.53-1.03-2.52c0-.94.34-1.75,1.03-2.44s1.5-1.03,2.44-1.03M21.17,7.03c-3.86,0-7.17,1.38-9.92,4.14-2.76,2.76-4.14,6.09-4.14,10.01v28.2c0,3.92,1.38,7.25,4.14,10.01,2.76,2.76,6.07,4.14,9.92,4.14h41.28c3.86,0,7.17-1.38,9.92-4.14,2.76-2.76,4.14-6.09,4.14-10.01v-28.2c0-3.91-1.38-7.25-4.14-10.01-2.76-2.76-6.06-4.14-9.92-4.14H21.17Zm0-7.03h41.28c2.92,0,5.65.55,8.19,1.65,2.59,1.1,4.84,2.6,6.74,4.51s3.43,4.15,4.59,6.74c1.1,2.59,1.65,5.35,1.65,8.27v28.2c0,2.92-.55,5.68-1.65,8.27-1.16,2.54-2.69,4.77-4.59,6.7-1.9,1.93-4.15,3.45-6.74,4.55-2.54,1.1-5.27,1.65-8.19,1.65H21.17c-2.92,0-5.65-.55-8.19-1.65-2.59-1.1-4.84-2.62-6.74-4.55-1.9-1.93-3.43-4.16-4.59-6.7-1.1-2.59-1.65-5.35-1.65-8.27v-28.2c0-2.92.55-5.68,1.65-8.27,1.16-2.59,2.69-4.84,4.59-6.74,1.9-1.9,4.15-3.4,6.74-4.51,2.54-1.1,5.27-1.65,8.19-1.65"/>
</svg>