<?xml version="1.0" encoding="UTF-8"?>
<svg id="Calque_1" data-name="Calque 1" xmlns="http://www.w3.org/2000/svg" viewBox="0 0 78.47 78.38">
  <defs>
    <style>
      .cls-1 {
        fill: #fff;
      }
    </style>
  </defs>
  <path class="cls-1" d="m78.19,41.62c-.18-.43-.43-.83-.74-1.19L42.18,1.19c-.74-.8-1.72-1.19-2.94-1.19s-2.21.4-2.94,1.19L1.01,40.43c-.31.37-.55.77-.74,1.19-.18.43-.28.92-.28,1.47,0,1.04.38,1.94,1.15,2.71.77.77,1.7,1.15,2.8,1.15h7.81v27.47c0,1.1.38,2.04,1.15,2.8.77.77,1.7,1.15,2.8,1.15h47.04c1.1,0,2.04-.38,2.8-1.15.77-.77,1.15-1.7,1.15-2.8v-27.47h7.81c.8,0,1.52-.21,2.16-.64.64-.43,1.12-.98,1.42-1.65.12-.25.22-.51.28-.78.06-.28.09-.54.09-.78,0-.55-.09-1.04-.28-1.47m-27.85,14.38l-5.62,5.67-5.6-5.67-5.58,5.67-5.64-5.67,5.64-5.68-5.64-5.66,5.64-5.66,5.58,5.66,5.6-5.66,5.62,5.66-5.62,5.66,5.62,5.68Z"/>
</svg>