<?xml version="1.0" encoding="UTF-8"?>
<svg id="Calque_1" data-name="Calque 1" xmlns="http://www.w3.org/2000/svg" viewBox="0 0 303.14 160.18">
  <defs>
    <style>
      .cls-1 {
        letter-spacing: -.01em;
      }

      .cls-2 {
        font-size: 49px;
      }

      .cls-2, .cls-3 {
        fill: #010101;
        font-family: Akshar-Medium, 'Akshar Medium';
        font-weight: 500;
      }

      .cls-4 {
        letter-spacing: 0em;
      }

      .cls-5 {
        fill: #1d1e1c;
      }

      .cls-6 {
        letter-spacing: -.03em;
      }

      .cls-7 {
        letter-spacing: 0em;
      }

      .cls-8 {
        letter-spacing: 0em;
      }

      .cls-9 {
        letter-spacing: 0em;
      }

      .cls-10 {
        letter-spacing: 0em;
      }

      .cls-11 {
        fill: none;
        stroke: #010101;
        stroke-linecap: round;
        stroke-width: 3.72px;
      }

      .cls-3 {
        font-size: 60px;
      }

      .cls-12 {
        letter-spacing: -.04em;
      }

      .cls-13 {
        letter-spacing: 0em;
      }
    </style>
  </defs>
  <text class="cls-2" transform="translate(39.29 71.15)"><tspan x="0" y="0">I</tspan><tspan class="cls-10" x="11.71" y="0">n</tspan><tspan class="cls-12" x="38.71" y="0">f</tspan><tspan class="cls-13" x="50.86" y="0">o</tspan><tspan class="cls-7" x="77.52" y="0">s</tspan></text>
  <text class="cls-3" transform="translate(39.29 123.15)"><tspan class="cls-4" x="0" y="0">P</tspan><tspan class="cls-6" x="31.38" y="0">r</tspan><tspan class="cls-8" x="48.96" y="0">a</tspan><tspan class="cls-1" x="77.64" y="0">t</tspan><tspan class="cls-8" x="96.9" y="0">i</tspan><tspan x="110.7" y="0">q</tspan><tspan class="cls-9" x="144.48" y="0">ue</tspan><tspan x="207.12" y="0">s</tspan></text>
  <path class="cls-11" d="m161.98,67.33h16.96c1.61,0,2.91,1.3,2.91,2.91,0,2.59,3.13,3.89,4.97,2.06l11.17-11.17c2.06-2.06,2.06-5.4,0-7.46l-11.17-11.17c-1.83-1.83-4.97-.53-4.97,2.06,0,1.61-1.3,2.91-2.91,2.91h-16.96"/>
  <line class="cls-11" x1="146.65" y1="47.47" x2="163.61" y2="47.47"/>
  <polygon class="cls-5" points="10.71 24.74 8.78 27.64 10.71 30.86 10.71 55.4 1.93 55.4 1.93 30.86 0 27.64 1.93 24.74 1.93 0 3.4 0 3.4 0 56.53 0 56.53 8.68 10.71 8.68 10.71 24.74"/>
  <polygon class="cls-5" points="292.43 135.45 294.36 132.54 292.43 129.33 292.43 104.79 301.21 104.79 301.21 129.33 303.14 132.54 301.21 135.45 301.21 160.18 299.74 160.18 299.74 160.18 246.61 160.18 246.61 151.51 292.43 151.51 292.43 135.45"/>
</svg>