<?xml version="1.0" encoding="UTF-8"?>
<svg id="Calque_1" data-name="Calque 1" xmlns="http://www.w3.org/2000/svg" viewBox="0 0 50.69 50.69">
  <defs>
    <style>
      .cls-1 {
        stroke: #000;
        stroke-width: .8px;
      }

      .cls-1, .cls-2 {
        fill: none;
        stroke-miterlimit: 10;
      }

      .cls-3 {
        fill: #010101;
      }

      .cls-4 {
        fill: #fff;
      }

      .cls-2 {
        stroke: #c7c6c5;
      }
    </style>
  </defs>
  <path class="cls-4" d="m50.19,25.34c0,13.72-11.12,24.84-24.84,24.84S.5,39.06.5,25.34,11.62.5,25.34.5s24.84,11.12,24.84,24.84"/>
  <path class="cls-2" d="m50.19,25.34c0,13.72-11.12,24.84-24.84,24.84S.5,39.06.5,25.34,11.62.5,25.34.5s24.84,11.12,24.84,24.84Z"/>
  <circle class="cls-1" cx="25.34" cy="25.34" r="22.59"/>
  <path class="cls-3" d="m32.49,19.63c0,.38-.13.71-.4.98-.27.27-.59.4-.98.4s-.71-.14-.98-.4c-.27-.27-.4-.6-.4-.98s.13-.71.4-.98c.27-.27.6-.4.98-.4s.71.13.98.4c.27.27.4.6.4.98m-7.15,9.21c-.97,0-1.8-.34-2.48-1.03-.68-.69-1.02-1.51-1.02-2.46s.34-1.8,1.02-2.49c.68-.69,1.5-1.03,2.48-1.03s1.8.34,2.49,1.03c.69.69,1.03,1.52,1.03,2.49s-.34,1.78-1.03,2.46c-.69.69-1.52,1.03-2.49,1.03m0-9.26c-.78,0-1.52.16-2.22.47-.71.3-1.33.71-1.84,1.23-.51.52-.93,1.13-1.24,1.83-.29.7-.44,1.44-.44,2.24s.15,1.52.44,2.22c.31.7.73,1.3,1.24,1.83.51.52,1.13.93,1.84,1.22.7.31,1.43.47,2.22.47s1.55-.15,2.24-.44c.7-.31,1.3-.73,1.83-1.25.52-.52.93-1.13,1.23-1.83.31-.7.47-1.43.47-2.22s-.16-1.55-.47-2.24c-.3-.7-.71-1.3-1.23-1.83-.52-.52-1.13-.93-1.83-1.23-.7-.31-1.44-.47-2.24-.47m8.87,10.25c0,1.2-.43,2.23-1.28,3.09-.85.86-1.89,1.29-3.1,1.29h-8.97c-1.22,0-2.25-.43-3.1-1.29-.85-.86-1.28-1.89-1.28-3.09v-9c0-1.2.43-2.23,1.28-3.09.85-.86,1.89-1.29,3.1-1.29h8.97c1.22,0,2.25.43,3.1,1.29.85.86,1.28,1.89,1.28,3.09v9Zm-4.38-15.6h-8.97c-.9,0-1.77.17-2.58.52-.8.35-1.5.82-2.1,1.42-.6.6-1.07,1.3-1.42,2.1-.35.8-.52,1.65-.52,2.56v9c0,.9.17,1.76.52,2.56.35.82.82,1.53,1.42,2.13.6.6,1.3,1.06,2.1,1.4.82.35,1.68.53,2.58.55h8.97c.92-.02,1.78-.2,2.58-.55.8-.33,1.5-.8,2.1-1.4.6-.6,1.07-1.31,1.42-2.13.35-.8.52-1.65.52-2.56v-9c0-.9-.17-1.76-.52-2.56-.35-.82-.82-1.52-1.42-2.11-.6-.59-1.3-1.06-2.1-1.41-.8-.35-1.66-.52-2.58-.52"/>
</svg>