<?xml version="1.0" encoding="UTF-8"?>
<svg id="Calque_1" data-name="Calque 1" xmlns="http://www.w3.org/2000/svg" viewBox="0 0 50.5 50.5">
  <defs>
    <style>
      .cls-1 {
        fill: #010101;
      }

      .cls-2 {
        fill: #fff;
      }

      .cls-3 {
        stroke: #c7c6c5;
        stroke-width: .81px;
      }

      .cls-3, .cls-4 {
        fill: none;
        stroke-miterlimit: 10;
      }

      .cls-4 {
        stroke: #010101;
      }
    </style>
  </defs>
  <path class="cls-2" d="m50.09,25.25c0,13.72-11.12,24.84-24.84,24.84S.41,38.97.41,25.25,11.53.41,25.25.41s24.84,11.12,24.84,24.84"/>
  <path class="cls-3" d="m50.09,25.25c0,13.72-11.12,24.84-24.84,24.84S.41,38.97.41,25.25,11.53.41,25.25.41s24.84,11.12,24.84,24.84Z"/>
  <path class="cls-2" d="m47.84,25.25c0,12.47-10.11,22.59-22.59,22.59S2.66,37.72,2.66,25.25,12.78,2.66,25.25,2.66s22.59,10.11,22.59,22.59"/>
  <circle class="cls-4" cx="25.25" cy="25.25" r="22.59"/>
  <path class="cls-1" d="m25.25,38.52c-1.82,0-3.56-.35-5.17-1.04-1.61-.69-3.03-1.64-4.22-2.84-1.2-1.2-2.15-2.62-2.84-4.22-.69-1.61-1.04-3.35-1.04-5.17,0-1.51.24-2.98.72-4.35.11-.43.48-.63.8-.63.24,0,.46.11.59.3.15.22.17.52.04.85-.33.94-.54,1.95-.63,3v.09s6.84,0,6.84,0v-.08c.04-.78.09-1.55.15-2.29.06-.74.15-1.48.27-2.21v-.08s-.07-.01-.07-.01c-.9-.12-1.79-.28-2.63-.48-.85-.2-1.68-.44-2.47-.71-.03-.01-.74-.25-1.29-.49l-.22-.09.13-.2c.48-.72,1.03-1.39,1.63-1.99,1.2-1.2,2.62-2.15,4.22-2.84,1.61-.69,3.35-1.03,5.17-1.03s3.56.35,5.17,1.03c1.61.69,3.03,1.64,4.22,2.84,1.2,1.2,2.15,2.62,2.84,4.22.69,1.61,1.04,3.35,1.04,5.17,0,.94-.1,1.87-.29,2.78-.09.35-.39.58-.75.58-.25,0-.47-.11-.61-.29-.14-.19-.18-.44-.1-.71.1-.49.18-1,.22-1.52v-.09s-6.84,0-6.84,0v.08c-.04.78-.09,1.55-.15,2.29-.06.75-.15,1.49-.27,2.21v.08s.07.01.07.01c.9.12,1.78.28,2.63.48.84.2,1.67.44,2.47.71.04.01.88.31,1.27.55l.18.11-.12.17c-.48.71-1.01,1.36-1.59,1.94-1.19,1.2-2.62,2.15-4.22,2.84-1.61.69-3.35,1.04-5.17,1.04m-.82-1.56c.14.02.28.03.41.04.13,0,.27.01.41.01s.28,0,.41-.01c.13-.01.27-.02.41-.04h.04s.02-.05.02-.05c.35-.72.67-1.51.95-2.33.29-.81.55-1.67.77-2.54l.03-.09h-.1c-.41-.04-.84-.07-1.26-.1-.43-.03-.85-.04-1.27-.04s-.84.01-1.27.04c-.43.02-.85.06-1.27.09h-.1s.02.1.02.1c.23.87.48,1.72.76,2.54.28.82.6,1.6.97,2.33l.02.04h.04Zm-7.77-3.68c.75.8,1.62,1.5,2.59,2.07.97.58,2.02,1.01,3.11,1.29l.16.04-.06-.15c-.27-.68-.53-1.38-.75-2.09-.22-.71-.42-1.46-.6-2.22l-.02-.08h-.08c-.75.13-1.49.28-2.21.43-.72.15-1.43.35-2.11.57l-.03.13Zm12.73-1.06c-.17.76-.37,1.5-.6,2.22-.22.71-.48,1.42-.75,2.09l-.06.15.16-.04c1.1-.28,2.14-.71,3.11-1.29.97-.57,1.84-1.27,2.59-2.07l.09-.09-.12-.04c-.67-.23-1.39-.42-2.11-.57-.71-.16-1.46-.3-2.21-.42h-.08s-.02.06-.02.06Zm-15.88-6.13c.09,1.06.3,2.09.64,3.05.34.96.79,1.87,1.35,2.7l.03.05.06-.02c.79-.27,1.62-.52,2.47-.71.85-.2,1.73-.36,2.63-.48h.08s-.01-.09-.01-.09c-.12-.73-.21-1.47-.27-2.21-.06-.74-.11-1.51-.14-2.29v-.08h-6.85v.09Zm11.74,4.25c.48,0,.97.01,1.44.04.48.03.96.06,1.42.09h.07s.01-.07.01-.07c.12-.7.22-1.42.29-2.13.07-.71.11-1.45.13-2.18v-.08s-6.74,0-6.74,0v.08c.02.73.06,1.46.13,2.18.07.72.17,1.43.29,2.13v.07s.09,0,.09,0c.47-.04.95-.07,1.42-.09.47-.03.96-.04,1.44-.04m11.74-5.84v-.09c-.08-1.06-.29-2.09-.64-3.05-.35-.96-.81-1.87-1.36-2.7l-.04-.05-.06.02c-.8.28-1.63.52-2.47.71-.84.2-1.72.36-2.63.48h-.08s.01.09.01.09c.12.72.21,1.46.27,2.21.06.74.11,1.51.14,2.29v.08h6.84Zm-8.37,0v-.08c-.02-.74-.07-1.47-.13-2.18-.07-.72-.17-1.43-.29-2.13v-.07s-.09,0-.09,0c-.46.03-.93.06-1.42.09-.47.03-.96.04-1.44.04s-.97-.01-1.44-.04c-.48-.03-.95-.06-1.42-.09h-.07s-.01.07-.01.07c-.12.7-.22,1.41-.29,2.13-.07.72-.11,1.46-.13,2.18v.08s6.74,0,6.74,0Zm-5.91-5.94c.41.03.84.07,1.27.09.43.03.85.04,1.27.04s.84-.01,1.27-.04c.43-.02.85-.06,1.27-.09h.1s-.03-.1-.03-.1c-.22-.86-.48-1.71-.76-2.54-.28-.82-.61-1.61-.97-2.33l-.02-.04h-.04c-.14-.02-.28-.04-.41-.05-.13,0-.27-.01-.41-.01s-.28,0-.41.01c-.13,0-.27.02-.41.04h-.04s-.02.05-.02.05c-.35.73-.67,1.51-.95,2.33-.29.81-.55,1.67-.77,2.54l-.02.09h.1Zm5.33-4.59c.28.67.53,1.38.75,2.09.22.72.43,1.47.6,2.22l.02.07h.08c.75-.11,1.49-.25,2.21-.42.72-.16,1.43-.36,2.11-.59l.12-.04-.09-.09c-.75-.8-1.62-1.5-2.59-2.07-.97-.57-2.02-1.01-3.11-1.29l-.16-.04.06.15Zm-11.34,3.38c.68.23,1.39.42,2.11.59.72.16,1.46.3,2.21.4h.08s.02-.06.02-.06c.17-.76.37-1.5.6-2.22.22-.71.48-1.42.75-2.09l.06-.15-.16.04c-1.1.28-2.14.71-3.11,1.29-.97.57-1.84,1.27-2.59,2.07l-.09.09.12.04Z"/>
</svg>