<?xml version="1.0" encoding="UTF-8"?>
<svg id="Calque_1" data-name="Calque 1" xmlns="http://www.w3.org/2000/svg" viewBox="0 0 380.17 244.56">
  <defs>
    <style>
      .cls-1 {
        fill: #010101;
      }

      .cls-2 {
        fill: #fff;
      }
    </style>
  </defs>
  <path d="m368.17,244.56H12.17c-6.6,0-12-5.4-12-12V12C.17,5.4,5.57,0,12.17,0h356c6.6,0,12,5.4,12,12v220.56c0,6.6-5.4,12-12,12"/>
  <rect class="cls-2" y="61.04" width="162.72" height="123.26"/>
  <path class="cls-1" d="m121.48,113.27c-4.62,0-8.38,3.8-8.38,8.46s3.76,8.46,8.38,8.46,8.38-3.8,8.38-8.46-3.76-8.46-8.38-8.46m5.1,7.62l-.72.73-.72-.73-.72.73-.72-.73.72-.73-.72-.73.72-.73.72.73.72-.73.72.73-.72.73.72.73Zm-5.1,7.86c-3.83,0-6.95-3.15-6.95-7.02s3.12-7.02,6.95-7.02v14.04Z"/>
  <path class="cls-1" d="m118.34,121.2c.51,0,.92-.42.92-.93s-.41-.93-.92-.93-.92.42-.92.93.41.93.92.93"/>
  <polygon class="cls-1" points="129.1 92.65 129.1 89.88 120.24 89.88 120.24 89.9 120.1 89.9 120.1 106.87 120.12 106.87 120.12 106.88 128.97 106.88 128.97 104.11 122.77 104.11 122.77 99.23 127.73 99.23 127.73 96.45 122.77 96.45 122.77 92.65 129.1 92.65"/>
  <path class="cls-1" d="m60.23,89.87v.03s-.02-.03-.02-.03l-.13.37-7.11,16.67h2.93l1.14-2.79h6.39l1.14,2.79h2.93l-7.11-16.67-.13-.37Zm-2.11,11.57l2.1-5.15,2.1,5.15h-4.21Z"/>
  <polygon class="cls-1" points="112.35 100.03 103.06 89.87 103.06 89.91 103.05 89.9 103.05 92.14 103.05 93.76 103.05 93.77 103.05 106.82 105.73 106.82 105.73 96.72 112.69 104.42 112.7 104.42 115.03 106.91 115.03 89.9 112.35 89.9 112.35 100.03"/>
  <path class="cls-1" d="m98.1,100.5h0v-10.64h-2.67v10.53h0v.11h0c0,.63-.18,3.75-3.23,3.75h-.29c-3.08-.01-3.22-3.17-3.22-3.77h0v-.05s0-.04,0-.04h0v-10.53h-2.67v10.55h0v1.1s-.18,5.39,5.89,5.39h.32c6.07,0,5.88-5.39,5.88-5.39v-1.02Z"/>
  <polygon class="cls-1" points="43.7 99.29 43.1 98.4 43.7 97.41 43.7 89.85 40.99 89.85 40.99 97.41 40.4 98.4 40.99 99.29 40.99 106.91 41.44 106.91 41.44 106.91 51.69 106.91 51.69 104.24 43.7 104.24 43.7 99.29"/>
  <polygon class="cls-1" points="75.45 99.29 74.85 98.4 75.45 97.41 75.45 89.85 72.74 89.85 72.74 97.41 72.15 98.4 72.74 99.29 72.74 106.91 73.2 106.91 73.2 106.91 83.45 106.91 83.45 104.24 75.45 104.24 75.45 99.29"/>
  <path class="cls-1" d="m45.78,113.87h-4.65v7.48l-.6.98.6.89v7.54h4.89s8.15.08,8.15-8.55-8.38-8.34-8.38-8.34m0,14.32h-1.92v-4.96l-.6-.89.6-.98v-4.83h1.84s5.63.74,5.63,5.71-5.55,5.95-5.55,5.95"/>
  <path class="cls-1" d="m76.47,120.95c-1.46-.62-3.32-1.29-3.32-2.64s.71-1.88,1.82-2.01c1.11-.13,2.88,1.07,2.88,1.07l1.46-1.97s-1.06-1.39-4.08-1.52c-3.01-.14-4.43,2.23-4.65,4.2-.22,1.97.71,2.59,2.04,3.71,1.33,1.12,5.41,2.19,5.36,4.02-.04,1.83-1.28,2.37-2.84,2.37s-3.85-2.06-3.85-2.06l-1.86,1.88c1.06,1.07,3.1,2.77,5.76,2.77s5.5-1.79,5.5-4.92-2.75-4.29-4.21-4.92"/>
  <polygon class="cls-1" points="57.33 113.83 57.18 113.83 57.18 130.8 57.2 130.8 57.2 130.81 66.05 130.81 66.05 128.04 59.85 128.04 59.85 123.19 64.88 123.19 64.88 120.38 59.85 120.38 59.85 116.57 66.18 116.57 66.18 113.81 57.33 113.81 57.33 113.83"/>
  <polygon class="cls-1" points="55.24 145.61 54.61 146.65 55.24 147.6 55.24 155.46 58.1 155.46 58.1 147.6 57.47 146.65 58.1 145.61 58.1 137.8 55.24 137.8 55.24 145.61"/>
  <path class="cls-1" d="m85.45,137.23v.03s-.03-.03-.03-.03l-.14.4-7.61,17.82h3.13l1.13-2.76h7.01l1.13,2.76h3.13l-7.61-17.83-.14-.4Zm-2.37,12.64l2.36-5.77,2.35,5.77h-4.71Z"/>
  <path class="cls-1" d="m46.73,137.85l-1.04-.03h0s-.12,0-.12,0h-.14s0,0,0,0h-4.54v.02h-.03v17.62h2.86v-4.69h1.79s1.21,0,1.21,0c0,0,5.77.2,5.77-6.29v-.34c0-6.5-5.77-6.29-5.77-6.29m2.91,6.62c0,3.19-3.18,3.43-3.95,3.44h0s-1.96,0-1.96,0v-7.24h1.96c.91.04,3.97.4,3.97,3.49v.31Z"/>
  <path class="cls-1" d="m68.55,137.82l-1.28-.02h0s-4.65,0-4.65,0v.03h-.01v17.62h2.86v-5.23l4.4,5.24,4.02.02-4.48-5.38c1.62-.3,4.88-1.45,4.88-6v-.31c0-6.04-5.74-5.97-5.74-5.97m2.89,6.28c0,2.97-3.19,3.25-3.96,3.27h0s-2.01,0-2.01,0v-6.7h1.8s4.18-.23,4.18,3.15v.29Z"/>
  <path class="cls-1" d="m125.63,145.19c-1.48-.65-3.36-1.35-3.36-2.75s.72-1.96,1.84-2.1c1.12-.14,2.92,1.12,2.92,1.12l1.48-2.05s-1.08-1.45-4.13-1.59c-3.05-.14-4.49,2.34-4.71,4.39-.22,2.05.72,2.71,2.06,3.88,1.35,1.16,5.48,2.29,5.43,4.2-.05,1.91-1.3,2.47-2.87,2.47s-3.9-2.15-3.9-2.15l-1.88,1.96c1.07,1.12,3.14,2.89,5.83,2.89s5.56-1.87,5.56-5.13-2.78-4.48-4.26-5.13"/>
  <polygon class="cls-1" points="106.95 137.75 106.79 137.75 106.79 155.47 106.82 155.47 106.82 155.48 116.06 155.48 116.06 152.59 109.58 152.59 109.58 147.53 114.98 147.53 114.98 144.59 109.58 144.59 109.58 140.62 116.2 140.62 116.2 137.73 106.95 137.73 106.95 137.75"/>
  <polygon class="cls-1" points="99.7 137.79 96.85 137.79 96.85 137.8 92.6 137.8 92.6 140.66 96.85 140.66 96.85 145.61 96.22 146.63 96.85 147.56 96.85 155.44 99.7 155.44 99.7 147.56 99.08 146.63 99.7 145.61 99.7 140.66 104.07 140.66 104.07 137.8 99.7 137.8 99.7 137.79"/>
  <polygon class="cls-1" points="26.48 84.32 25.42 85.93 26.48 87.71 26.48 101.31 21.62 101.31 21.62 87.71 20.55 85.93 21.62 84.32 21.62 70.61 22.43 70.61 22.43 70.61 51.87 70.61 51.87 75.42 26.48 75.42 26.48 84.32"/>
  <polygon class="cls-1" points="144.64 161.01 145.71 159.4 144.64 157.62 144.64 144.02 149.51 144.02 149.51 157.62 150.58 159.4 149.51 161.01 149.51 174.71 148.7 174.71 148.7 174.71 119.26 174.71 119.26 169.91 144.64 169.91 144.64 161.01"/>
</svg>