<?xml version="1.0" encoding="UTF-8"?>
<svg id="Calque_1" data-name="Calque 1" xmlns="http://www.w3.org/2000/svg" viewBox="0 0 84.27 54.21">
  <defs>
    <style>
      .cls-1 {
        fill: #010101;
      }

      .cls-2 {
        fill: #fff;
      }
    </style>
  </defs>
  <path d="m78.97,54.21H5.34C2.42,54.21.04,51.83.04,48.91V5.3C.04,2.38,2.42,0,5.34,0h73.64c2.91,0,5.3,2.38,5.3,5.3v43.62c0,2.91-2.38,5.3-5.3,5.3"/>
  <rect class="cls-2" y="13.53" width="36.07" height="27.32"/>
  <path class="cls-1" d="m26.93,25.11c-1.03,0-1.86.84-1.86,1.88s.83,1.88,1.86,1.88,1.86-.84,1.86-1.88-.83-1.88-1.86-1.88m1.13,1.69l-.16.16-.16-.16-.16.16-.16-.16.16-.16-.16-.16.16-.16.16.16.16-.16.16.16-.16.16.16.16Zm-1.13,1.74c-.85,0-1.54-.7-1.54-1.56s.69-1.55,1.54-1.55v3.11Z"/>
  <path class="cls-1" d="m26.23,26.87c.11,0,.2-.09.2-.21s-.09-.21-.2-.21-.2.09-.2.21.09.21.2.21"/>
  <polygon class="cls-1" points="28.62 20.54 28.62 19.92 26.65 19.92 26.65 19.93 26.62 19.93 26.62 23.69 26.63 23.69 26.63 23.69 28.59 23.69 28.59 23.08 27.21 23.08 27.21 22 28.31 22 28.31 21.38 27.21 21.38 27.21 20.54 28.62 20.54"/>
  <path class="cls-1" d="m13.35,19.92h0s0,0,0,0l-.03.08-1.58,3.69h.65l.25-.62h1.42l.25.62h.65l-1.58-3.69-.03-.08Zm-.47,2.57l.47-1.14.47,1.14h-.93Z"/>
  <polygon class="cls-1" points="24.91 22.17 22.85 19.92 22.85 19.93 22.84 19.93 22.84 20.42 22.84 20.78 22.84 20.79 22.84 23.68 23.44 23.68 23.44 21.44 24.98 23.15 24.98 23.15 25.5 23.7 25.5 19.93 24.91 19.93 24.91 22.17"/>
  <path class="cls-1" d="m21.75,22.28h0v-2.36h-.59v2.33h0v.02c0,.14-.04.83-.72.83h-.06c-.68,0-.71-.7-.71-.84h0v-2.35h-.59v2.34h0v.25s-.04,1.2,1.31,1.2h.07c1.35,0,1.3-1.2,1.3-1.2v-.23Z"/>
  <polygon class="cls-1" points="9.69 22.01 9.55 21.81 9.69 21.59 9.69 19.92 9.09 19.92 9.09 21.59 8.96 21.81 9.09 22.01 9.09 23.7 9.19 23.7 11.46 23.7 11.46 23.11 9.69 23.11 9.69 22.01"/>
  <polygon class="cls-1" points="16.72 22.01 16.59 21.81 16.72 21.59 16.72 19.92 16.13 19.92 16.13 21.59 15.99 21.81 16.13 22.01 16.13 23.7 16.23 23.7 18.5 23.7 18.5 23.11 16.72 23.11 16.72 22.01"/>
  <path class="cls-1" d="m10.15,25.24h-1.03v1.66l-.13.22.13.2v1.67h1.08s1.8.02,1.8-1.9-1.86-1.85-1.86-1.85m0,3.17h-.42v-1.1l-.13-.2.13-.22v-1.07h.41s1.25.16,1.25,1.27-1.23,1.32-1.23,1.32"/>
  <path class="cls-1" d="m16.95,26.81c-.32-.14-.74-.29-.74-.58s.16-.42.4-.45c.25-.03.64.24.64.24l.33-.44s-.24-.31-.9-.34c-.67-.03-.98.5-1.03.93-.05.44.16.57.45.82.29.25,1.2.49,1.19.89-.01.41-.28.52-.63.52s-.85-.46-.85-.46l-.41.42c.24.24.69.61,1.28.61s1.22-.4,1.22-1.09-.61-.95-.93-1.09"/>
  <polygon class="cls-1" points="12.71 25.23 12.67 25.23 12.67 28.99 12.68 28.99 12.68 29 14.64 29 14.64 28.38 13.27 28.38 13.27 27.31 14.38 27.31 14.38 26.68 13.27 26.68 13.27 25.84 14.67 25.84 14.67 25.23 12.71 25.23 12.71 25.23"/>
  <polygon class="cls-1" points="12.24 32.28 12.11 32.51 12.24 32.72 12.24 34.46 12.88 34.46 12.88 32.72 12.74 32.51 12.88 32.28 12.88 30.55 12.24 30.55 12.24 32.28"/>
  <path class="cls-1" d="m18.94,30.42h0s0,0,0,0l-.03.09-1.69,3.95h.69l.25-.61h1.55l.25.61h.69l-1.69-3.95-.03-.09Zm-.53,2.8l.52-1.28.52,1.28h-1.04Z"/>
  <path class="cls-1" d="m10.36,30.56h-.23s-.02,0-.02,0h-.03s0,0,0,0h-1.01s0,0,0,0v3.91h.63v-1.04h.4s.27,0,.27,0c0,0,1.28.04,1.28-1.4v-.08c0-1.44-1.28-1.39-1.28-1.39m.65,1.47c0,.71-.71.76-.88.76h0s-.43,0-.43,0v-1.6h.43c.2,0,.88.09.88.77v.07Z"/>
  <path class="cls-1" d="m15.2,30.55h-.28s-1.03,0-1.03,0h0s0,0,0,0v3.91h.63v-1.16l.97,1.16h.89s-.99-1.19-.99-1.19c.36-.06,1.08-.32,1.08-1.33v-.07c0-1.34-1.27-1.32-1.27-1.32m.64,1.39c0,.66-.71.72-.88.73h0s-.45,0-.45,0v-1.49h.4s.93-.05.93.7v.06Z"/>
  <path class="cls-1" d="m27.85,32.19c-.33-.15-.75-.3-.75-.61s.16-.44.41-.47c.25-.03.65.25.65.25l.33-.46s-.24-.32-.92-.35c-.68-.03-.99.52-1.04.97s.16.6.46.86c.3.26,1.21.51,1.2.93-.01.42-.29.55-.64.55s-.86-.48-.86-.48l-.42.43c.24.25.7.64,1.29.64s1.23-.41,1.23-1.14-.62-.99-.95-1.14"/>
  <polygon class="cls-1" points="23.71 30.54 23.67 30.54 23.67 34.46 23.68 34.46 23.68 34.47 25.73 34.47 25.73 33.83 24.29 33.83 24.29 32.7 25.49 32.7 25.49 32.05 24.29 32.05 24.29 31.17 25.76 31.17 25.76 30.53 23.71 30.53 23.71 30.54"/>
  <polygon class="cls-1" points="22.1 30.54 21.47 30.54 21.47 30.55 20.53 30.55 20.53 31.18 21.47 31.18 21.47 32.28 21.33 32.5 21.47 32.71 21.47 34.46 22.1 34.46 22.1 32.71 21.96 32.5 22.1 32.28 22.1 31.18 23.07 31.18 23.07 30.55 22.1 30.55 22.1 30.54"/>
  <polygon class="cls-1" points="5.87 18.69 5.63 19.05 5.87 19.44 5.87 22.46 4.79 22.46 4.79 19.44 4.55 19.05 4.79 18.69 4.79 15.65 4.97 15.65 11.5 15.65 11.5 16.72 5.87 16.72 5.87 18.69"/>
  <polygon class="cls-1" points="32.06 35.69 32.3 35.33 32.06 34.94 32.06 31.92 33.14 31.92 33.14 34.94 33.38 35.33 33.14 35.69 33.14 38.73 32.96 38.73 26.43 38.73 26.43 37.66 32.06 37.66 32.06 35.69"/>
</svg>