<?xml version="1.0" encoding="UTF-8"?>
<svg id="Calque_1" data-name="Calque 1" xmlns="http://www.w3.org/2000/svg" viewBox="0 0 18.81 18.81">
  <defs>
    <style>
      .cls-1 {
        fill: #fff;
      }
    </style>
  </defs>
  <path class="cls-1" d="m6.28,4.04c-.4,0-.77.1-1.12.3-.34.2-.62.47-.82.82s-.3.72-.3,1.12.1.77.3,1.12.47.62.82.82c.34.2.72.3,1.12.3s.77-.1,1.12-.3c.34-.2.62-.47.82-.82s.3-.72.3-1.12-.1-.77-.3-1.12-.47-.62-.82-.82c-.34-.2-.72-.3-1.12-.3m0,.88c.37,0,.69.13.95.4.26.27.39.58.39.96s-.13.69-.39.95-.57.39-.95.39-.69-.13-.95-.39-.39-.57-.39-.95.13-.69.39-.96c.26-.26.57-.4.95-.4m0-4.92c-.83,0-1.63.16-2.4.47s-1.45.77-2.04,1.36c-.6.59-1.05,1.28-1.36,2.04-.32.77-.47,1.57-.47,2.4s.16,1.63.47,2.4c.31.77.77,1.44,1.38,2.03l2.69,2.69c.09.1.19.19.3.26l4.67,4.64c.34.34.76.52,1.26.52s.91-.17,1.26-.52l6.28-6.28c.34-.34.52-.76.52-1.26s-.17-.92-.52-1.28l-4.47-4.47-3.1-3.16c-.6-.59-1.29-1.04-2.05-1.36-.77-.32-1.57-.48-2.4-.48m0,1.81c.59,0,1.15.11,1.7.33.54.22,1.03.55,1.46.98l3.12,3.16,4.47,4.47-6.28,6.28-4.92-4.92s-.47-.42-1.38-1.31l-1.33-1.35c-.57-.57-.96-1.24-1.16-2.01-.2-.77-.2-1.53,0-2.3.2-.77.59-1.44,1.16-2.01.43-.43.92-.76,1.46-.98.54-.22,1.11-.33,1.7-.33"/>
</svg>