<?xml version="1.0" encoding="UTF-8"?>
<svg id="Calque_1" data-name="Calque 1" xmlns="http://www.w3.org/2000/svg" viewBox="0 0 50.69 50.69">
  <defs>
    <style>
      .cls-1 {
        stroke: #000;
        stroke-width: .8px;
      }

      .cls-1, .cls-2 {
        fill: none;
        stroke-miterlimit: 10;
      }

      .cls-3 {
        fill: #010101;
      }

      .cls-4 {
        fill: #fff;
      }

      .cls-2 {
        stroke: #c7c6c5;
      }
    </style>
  </defs>
  <path class="cls-4" d="m50.19,25.34c0,13.72-11.12,24.84-24.84,24.84S.5,39.07.5,25.34,11.62.5,25.34.5s24.84,11.12,24.84,24.84"/>
  <path class="cls-2" d="m50.19,25.34c0,13.72-11.12,24.84-24.84,24.84S.5,39.07.5,25.34,11.62.5,25.34.5s24.84,11.12,24.84,24.84Z"/>
  <circle class="cls-1" cx="25.34" cy="25.34" r="22.59"/>
  <path class="cls-3" d="m36.48,18.54c-.38.17-.79.32-1.23.44-.43.12-.89.21-1.36.26l-.05.03c.47-.29.88-.65,1.23-1.07.35-.42.61-.89.78-1.41v-.03c-.42.24-.87.46-1.34.65-.48.19-.98.34-1.5.44h-.05c-.42-.44-.91-.78-1.49-1.03s-1.18-.38-1.83-.38h-.03c-1.25,0-2.33.44-3.22,1.32-.9.88-1.34,1.93-1.34,3.17,0,.17,0,.35.03.52.02.17.05.34.1.5-.96-.04-1.88-.17-2.76-.42-.89-.24-1.73-.57-2.52-.97-.79-.4-1.53-.88-2.23-1.43-.7-.56-1.33-1.17-1.9-1.85v-.03c-.19.33-.34.69-.46,1.07-.11.38-.17.77-.17,1.17v.03c0,.78.19,1.5.56,2.15.37.65.86,1.18,1.47,1.58-.38,0-.75-.05-1.09-.16-.35-.1-.68-.24-.99-.42l.03.03v.05c0,1.08.35,2.03,1.04,2.86.7.83,1.57,1.34,2.61,1.55-.17.05-.36.09-.57.12-.21.03-.42.04-.62.04-.16,0-.3,0-.44-.03-.14-.02-.28-.04-.42-.05.31.9.86,1.65,1.63,2.23.77.58,1.65.87,2.62.87-.77.61-1.63,1.08-2.6,1.42-.96.34-1.98.51-3.04.51h-.03c-.19,0-.37,0-.55-.01-.17,0-.36-.02-.55-.04.99.63,2.08,1.12,3.26,1.47,1.18.36,2.43.53,3.73.53h.03c2.09,0,3.94-.38,5.55-1.15,1.62-.78,2.98-1.79,4.08-3.01,1.1-1.23,1.93-2.59,2.49-4.11.57-1.53.86-3.03.86-4.51l-.03-.6c.45-.31.87-.66,1.25-1.04.38-.38.72-.79,1.02-1.23l.03-.05Z"/>
</svg>