<?xml version="1.0" encoding="UTF-8"?>
<svg id="Calque_1" data-name="Calque 1" xmlns="http://www.w3.org/2000/svg" viewBox="0 0 300 120">
  <defs>
    <style>
      .cls-1 {
        fill: none;
        stroke: #000;
        stroke-miterlimit: 10;
        stroke-width: 3px;
      }

      .cls-2 {
        letter-spacing: -.02em;
      }

      .cls-3 {
        letter-spacing: -.04em;
      }

      .cls-4 {
        letter-spacing: -.07em;
      }

      .cls-5 {
        letter-spacing: 0em;
      }

      .cls-6 {
        letter-spacing: 0em;
      }

      .cls-7 {
        letter-spacing: 0em;
      }

      .cls-8 {
        letter-spacing: -.02em;
      }

      .cls-9 {
        letter-spacing: -.02em;
      }

      .cls-10 {
        letter-spacing: -.01em;
      }

      .cls-11 {
        stroke-width: 0px;
      }

      .cls-12 {
        font-family: Akshar-Regular, Akshar;
        font-size: 25px;
      }
    </style>
  </defs>
  <text class="cls-12" transform="translate(110.23 53.6)"><tspan class="cls-4" x="0" y="0">T</tspan><tspan class="cls-5" x="9.5" y="0">a</tspan><tspan class="cls-7" x="21.1" y="0">r</tspan><tspan x="29.42" y="0">i</tspan><tspan class="cls-3" x="35.2" y="0">f</tspan><tspan x="42.62" y="0">s a</tspan><tspan class="cls-9" x="69.57" y="0">v</tspan><tspan class="cls-6" x="81.02" y="0">an</tspan><tspan class="cls-2" x="104.5" y="0">t</tspan><tspan class="cls-5" x="112.85" y="0">age</tspan><tspan class="cls-10" x="147.27" y="0">u</tspan><tspan x="158.82" y="0">x</tspan><tspan x="12.25" y="30">A</tspan><tspan class="cls-5" x="24.65" y="30">bonne</tspan><tspan x="82.22" y="30">z-</tspan><tspan class="cls-8" x="102.67" y="30">v</tspan><tspan class="cls-5" x="114.12" y="30">ou</tspan><tspan x="137" y="30">s !</tspan></text>
  <rect class="cls-1" x=".43" y=".44" width="299.15" height="119.13"/>
  <path class="cls-11" d="m53.1,97.9c-20.77,0-37.67-16.9-37.67-37.67S32.33,22.57,53.1,22.57s37.67,16.9,37.67,37.67-16.9,37.67-37.67,37.67Zm0-72.33c-19.11,0-34.67,15.55-34.67,34.67s15.55,34.67,34.67,34.67,34.67-15.55,34.67-34.67-15.55-34.67-34.67-34.67Z"/>
  <path class="cls-11" d="m53.1,81.72c-.31,0-.62-.1-.88-.29l-1.02-.74c-8.72-6.32-21.89-15.88-21.89-27.38,0-8.99,5.41-14.57,14.11-14.57,4.9,0,7.6,2.04,9.68,4.47,2.08-2.43,4.77-4.47,9.68-4.47,8.71,0,14.11,5.58,14.11,14.57,0,11.5-13.18,21.06-21.9,27.38l-1.01.74c-.26.19-.57.29-.88.29Zm-9.68-39.97c-6.96,0-11.11,4.32-11.11,11.57,0,9.97,12.43,18.99,20.65,24.95l.14.1.14-.1c8.23-5.96,20.66-14.98,20.66-24.95,0-7.24-4.15-11.57-11.11-11.57-4.53,0-6.45,2.07-8.48,4.78-.57.75-1.83.75-2.4,0-2.03-2.71-3.95-4.78-8.48-4.78Z"/>
</svg>