<svg viewBox="0 0 494 9969.69" xmlns="http://www.w3.org/2000/svg"><path d="m57.45 4678.75c-6.6 0-12-5.4-12-12v-220.56c0-6.6 5.4-12 12-12h356c6.6 0 12 5.4 12 12v220.56c0 6.6-5.4 12-12 12"/><path d="m45.27 4495.23h162.72v123.26h-162.72z" fill="#fff"/><path d="m166.75 4547.47c-4.62 0-8.38 3.8-8.38 8.46s3.76 8.46 8.38 8.46 8.38-3.8 8.38-8.46-3.76-8.46-8.38-8.46m5.1 7.62-.72.73-.72-.73-.72.73-.72-.73.72-.73-.72-.73.72-.73.72.73.72-.73.72.73-.72.73zm-5.1 7.86c-3.83 0-6.95-3.15-6.95-7.02s3.12-7.02 6.95-7.02z"/><path d="m163.61 4555.4c.51 0 .92-.42.92-.93s-.41-.93-.92-.93-.92.42-.92.93.41.93.92.93"/><path d="m174.37 4526.84v-2.77h-8.85v.03h-.15v16.97h.02v.01h8.86v-2.77h-6.21v-4.88h4.96v-2.78h-4.96v-3.81z"/><path d="m105.5 4524.07v.03s-.03-.03-.03-.03l-.13.37-7.11 16.67h2.93l1.14-2.8h6.39l1.14 2.8h2.93l-7.11-16.67-.13-.37zm-2.11 11.57 2.1-5.15 2.1 5.15h-4.21z"/><path d="m157.63 4534.23-9.29-10.16v.04l-.01-.01v2.24l-.01 1.62.01.01v13.05h2.67v-10.1l6.97 7.7v-.01l2.33 2.5v-17.01h-2.67z"/><path d="m143.37 4534.7v-10.64h-2.67v10.53.11c0 .63-.18 3.75-3.23 3.75h-.29c-3.08-.01-3.22-3.17-3.22-3.77v-.06s0-.04 0-.04v-10.53h-2.67v10.55 1.11s-.18 5.39 5.89 5.39h.32c6.07 0 5.88-5.39 5.88-5.39v-1.02z"/><path d="m88.97 4533.49-.59-.89.59-.99v-7.56h-2.7v7.56l-.6.99.6.89v7.62h.45 10.25v-2.67h-8z"/><path d="m120.72 4533.49-.59-.89.59-.99v-7.56h-2.7v7.56l-.6.99.6.89v7.62h.45 10.25v-2.67h-8z"/><path d="m91.05 4548.06h-4.65v7.48l-.6.98.6.89v7.54h4.89s8.14.08 8.14-8.55-8.38-8.34-8.38-8.34m0 14.32h-1.92v-4.96l-.6-.89.6-.98v-4.83h1.84s5.63.74 5.63 5.71-5.55 5.95-5.55 5.95"/><path d="m121.74 4555.14c-1.46-.62-3.32-1.29-3.32-2.64s.71-1.88 1.82-2.01 2.88 1.07 2.88 1.07l1.46-1.97s-1.06-1.39-4.08-1.52c-3.01-.14-4.43 2.23-4.65 4.2s.71 2.6 2.04 3.71c1.33 1.12 5.41 2.19 5.36 4.03-.04 1.83-1.28 2.37-2.84 2.37s-3.86-2.06-3.86-2.06l-1.86 1.88c1.06 1.07 3.1 2.77 5.76 2.77s5.5-1.79 5.5-4.92-2.75-4.29-4.21-4.92"/><path d="m102.6 4548.03h-.15v16.97h.02v.01h8.85v-2.77h-6.2v-4.85h5.03v-2.81h-5.03v-3.81h6.33v-2.76h-8.85z"/><path d="m100.51 4579.81-.63 1.04.63.95v7.86h2.86v-7.86l-.63-.95.63-1.04v-7.81h-2.86z"/><path d="m130.72 4571.43v.03s-.03-.03-.03-.03l-.14.4-7.61 17.82h3.13l1.13-2.76h7.02l1.13 2.76h3.13l-7.61-17.83-.14-.4zm-2.37 12.64 2.36-5.77 2.36 5.77h-4.71z"/><path d="m92 4572.05-1.04-.03s-.12 0-.12 0h-.14s0 0 0 0h-4.54v.02h-.03v17.62h2.86v-4.69h1.79s1.21 0 1.21 0 5.77.2 5.77-6.29v-.34c0-6.5-5.77-6.29-5.77-6.29m2.91 6.62c0 3.2-3.19 3.43-3.95 3.45s-1.96 0-1.96 0v-7.24h1.96c.91.04 3.97.4 3.97 3.49v.31z"/><path d="m113.82 4572.02-1.28-.02s-4.65 0-4.65 0v.03h-.01v17.62h2.86v-5.23l4.39 5.24 4.02.02-4.48-5.38c1.62-.29 4.88-1.45 4.88-6v-.32c0-6.04-5.74-5.97-5.74-5.97m2.89 6.28c0 2.97-3.19 3.25-3.96 3.27s-2.01 0-2.01 0v-6.7h1.8s4.18-.23 4.18 3.15v.29z"/><path d="m170.91 4579.39c-1.48-.65-3.37-1.35-3.37-2.75s.72-1.96 1.84-2.1 2.92 1.12 2.92 1.12l1.48-2.05s-1.08-1.45-4.13-1.59-4.49 2.33-4.71 4.39c-.22 2.05.72 2.71 2.06 3.88 1.35 1.17 5.48 2.29 5.43 4.2-.05 1.92-1.3 2.47-2.87 2.47s-3.9-2.15-3.9-2.15l-1.88 1.96c1.08 1.12 3.14 2.89 5.83 2.89s5.57-1.87 5.57-5.13-2.78-4.48-4.26-5.13"/><path d="m152.22 4571.95h-.16v17.72h.03v.01h9.24v-2.89h-6.47v-5.06h5.4v-2.94h-5.4v-3.97h6.61v-2.89h-9.25z"/><path d="m144.98 4571.99h-2.86v.01h-4.25v2.86h4.25v4.94l-.63 1.03.63.92v7.88h2.86v-7.88l-.63-.92.63-1.03v-4.94h4.37v-2.86h-4.37z"/><path d="m71.76 4518.52-1.07 1.61 1.07 1.78v13.59h-4.87v-13.59l-1.07-1.78 1.07-1.61v-13.71h.81 29.45v4.81h-25.39z"/><path d="m189.92 4595.21 1.07-1.62-1.07-1.78v-13.59h4.86v13.59l1.07 1.78-1.07 1.62v13.7h-.81-29.44v-4.81h25.39z"/></svg>