<?xml version="1.0" encoding="UTF-8"?>
<svg id="Calque_1" data-name="Calque 1" xmlns="http://www.w3.org/2000/svg" viewBox="0 0 300 120">
  <defs>
    <style>
      .cls-1 {
        fill: none;
        stroke: #000;
        stroke-miterlimit: 10;
        stroke-width: 3px;
      }

      .cls-2 {
        stroke-width: 0px;
      }
    </style>
  </defs>
  <g>
    <path class="cls-2" d="m110.73,37.95v-1.97h10.38v1.97h-10.38Zm4.05,15.65v-17.62h2.28v17.62h-2.28Z"/>
    <path class="cls-2" d="m120.85,49.97c0-.78.2-1.47.59-2.06s.92-1.06,1.59-1.41c.67-.35,1.43-.52,2.28-.52l.12,1.75c-.7,0-1.28.2-1.74.61s-.69.93-.69,1.56l-2.15.08Zm4.08,4c-.75,0-1.43-.17-2.05-.53-.62-.35-1.11-.83-1.48-1.44s-.55-1.29-.55-2.04l2.15-.08c0,.63.21,1.16.64,1.58.42.42.91.62,1.46.62l-.17,1.88Zm-1.68-9.23l-2.1-.42c.1-.75.35-1.4.76-1.95.41-.55.93-.98,1.58-1.3.64-.32,1.35-.47,2.14-.47v1.95c-.62,0-1.15.18-1.59.54-.44.36-.7.91-.79,1.66Zm1.68,9.23l.17-1.88c.6,0,1.11-.15,1.54-.45.42-.3.75-.74.99-1.33.23-.58.35-1.27.35-2.08l1.12-.05c0,1.13-.18,2.13-.55,3-.37.87-.86,1.55-1.49,2.04-.62.49-1.34.74-2.14.74Zm.5-6.25l-.12-1.75h3.85v1.75h-3.72Zm4.82-2.67h-2.27c0-.73-.22-1.33-.66-1.8-.44-.47-1.01-.7-1.71-.7v-1.95c.9,0,1.7.19,2.39.58.69.38,1.24.91,1.65,1.59.41.67.61,1.44.61,2.29Zm-2.27,8.55v-8.6h2.27v8.6h-2.27Zm0-5.35v-3.22h1.12v3.17l-1.12.05Z"/>
    <path class="cls-2" d="m132.82,53.6v-12.62h2.27v12.62h-2.27Zm1.25-8.45c0-.85.14-1.61.42-2.29.28-.68.67-1.2,1.16-1.59.49-.38,1.04-.58,1.64-.58l-.2,2.12c-.58,0-1.06.22-1.44.66s-.56,1-.56,1.66h-1.02Zm4.52-1.75c-.2-.17-.44-.3-.71-.41s-.54-.16-.79-.16l.2-2.12c.38,0,.76.07,1.12.21.37.14.68.34.95.59l-.77,1.9Z"/>
    <path class="cls-2" d="m142.52,39.3c-.42,0-.77-.14-1.05-.43-.28-.28-.43-.63-.43-1.05s.14-.77.43-1.06c.28-.29.63-.44,1.05-.44s.77.15,1.06.44c.29.29.44.65.44,1.06s-.15.77-.44,1.05c-.29.28-.65.43-1.06.43Zm-1.12,14.3v-12.62h2.27v12.62h-2.27Z"/>
    <path class="cls-2" d="m146.05,42.85v-1.88h6.8v1.88h-6.8Zm1.45-3.05c0-1.32.33-2.35,1-3.09.67-.74,1.58-1.11,2.75-1.11l.2,1.95c-.35,0-.65.09-.9.27-.25.18-.44.44-.58.78s-.2.73-.2,1.2h-2.27Zm0,13.8v-13.8h2.27v13.8h-2.27Zm5.12-15.62c-.18-.13-.37-.24-.56-.31-.19-.08-.4-.11-.61-.11l-.2-1.95c.4,0,.8.06,1.19.17.39.12.75.32,1.09.6l-.9,1.6Z"/>
    <path class="cls-2" d="m155.82,49.82c.08.73.35,1.28.8,1.64.45.36.98.54,1.58.54v1.98c-.77,0-1.48-.16-2.12-.48s-1.18-.76-1.59-1.32c-.41-.57-.66-1.21-.76-1.93l2.1-.42Zm-1.73-5.67c0-.68.17-1.3.51-1.84.34-.54.82-.97,1.44-1.27.62-.31,1.3-.46,2.05-.46v1.98c-.52,0-.95.15-1.29.45-.34.3-.51.68-.51,1.15h-2.2Zm5.77,5.16c-.3-.27-.69-.52-1.16-.75-.47-.22-.97-.45-1.5-.69-.52-.23-1.02-.5-1.5-.81-.47-.31-.86-.7-1.16-1.17-.3-.47-.45-1.05-.45-1.74h2.2c0,.42.15.76.45,1.04.3.28.69.52,1.16.74s.98.45,1.51.69c.53.24,1.03.52,1.5.84.47.32.85.7,1.16,1.16.31.46.46,1.04.46,1.74h-2.23c0-.42-.15-.76-.45-1.04Zm.58-4.59c-.08-.75-.35-1.3-.79-1.65-.44-.35-.96-.52-1.56-.52v-1.98c.78,0,1.49.16,2.12.48.63.32,1.16.75,1.58,1.31.42.56.67,1.2.77,1.94l-2.12.42Zm-2.25,9.25v-1.98c.62,0,1.12-.15,1.52-.46s.6-.7.6-1.19h2.23c0,.7-.19,1.33-.56,1.88s-.89.98-1.54,1.29c-.65.31-1.4.46-2.25.46Z"/>
    <path class="cls-2" d="m169.27,49.97c0-.78.2-1.47.59-2.06s.92-1.06,1.59-1.41c.67-.35,1.43-.52,2.28-.52l.12,1.75c-.7,0-1.28.2-1.74.61s-.69.93-.69,1.56l-2.15.08Zm4.08,4c-.75,0-1.43-.17-2.05-.53-.62-.35-1.11-.83-1.48-1.44s-.55-1.29-.55-2.04l2.15-.08c0,.63.21,1.16.64,1.58.42.42.91.62,1.46.62l-.17,1.88Zm-1.68-9.23l-2.1-.42c.1-.75.35-1.4.76-1.95.41-.55.93-.98,1.58-1.3.64-.32,1.35-.47,2.14-.47v1.95c-.62,0-1.15.18-1.59.54-.44.36-.7.91-.79,1.66Zm1.68,9.23l.17-1.88c.6,0,1.11-.15,1.54-.45.42-.3.75-.74.99-1.33.23-.58.35-1.27.35-2.08l1.12-.05c0,1.13-.18,2.13-.55,3-.37.87-.86,1.55-1.49,2.04-.62.49-1.34.74-2.14.74Zm.5-6.25l-.12-1.75h3.85v1.75h-3.72Zm4.82-2.67h-2.27c0-.73-.22-1.33-.66-1.8-.44-.47-1.01-.7-1.71-.7v-1.95c.9,0,1.7.19,2.39.58.69.38,1.24.91,1.65,1.59.41.67.61,1.44.61,2.29Zm-2.27,8.55v-8.6h2.27v8.6h-2.27Zm0-5.35v-3.22h1.12v3.17l-1.12.05Z"/>
    <path class="cls-2" d="m184.65,53.6l-4.1-12.62h2.27l3.9,12.62h-2.07Zm.23,0l3.9-12.62h2.27l-4.08,12.62h-2.1Z"/>
    <path class="cls-2" d="m192.38,49.97c0-.78.2-1.47.59-2.06s.92-1.06,1.59-1.41c.67-.35,1.43-.52,2.28-.52l.12,1.75c-.7,0-1.28.2-1.74.61s-.69.93-.69,1.56l-2.15.08Zm4.08,4c-.75,0-1.43-.17-2.05-.53-.62-.35-1.11-.83-1.48-1.44s-.55-1.29-.55-2.04l2.15-.08c0,.63.21,1.16.64,1.58.42.42.91.62,1.46.62l-.17,1.88Zm-1.68-9.23l-2.1-.42c.1-.75.35-1.4.76-1.95.41-.55.93-.98,1.58-1.3.64-.32,1.35-.47,2.14-.47v1.95c-.62,0-1.15.18-1.59.54-.44.36-.7.91-.79,1.66Zm1.68,9.23l.17-1.88c.6,0,1.11-.15,1.54-.45.42-.3.75-.74.99-1.33.23-.58.35-1.27.35-2.08l1.12-.05c0,1.13-.18,2.13-.55,3-.37.87-.86,1.55-1.49,2.04-.62.49-1.34.74-2.14.74Zm.5-6.25l-.12-1.75h3.85v1.75h-3.72Zm4.82-2.67h-2.27c0-.73-.22-1.33-.66-1.8-.44-.47-1.01-.7-1.71-.7v-1.95c.9,0,1.7.19,2.39.58.69.38,1.24.91,1.65,1.59.41.67.61,1.44.61,2.29Zm-2.27,8.55v-8.6h2.27v8.6h-2.27Zm0-5.35v-3.22h1.12v3.17l-1.12.05Z"/>
    <path class="cls-2" d="m204.35,53.6v-12.62h2.27v12.62h-2.27Zm1.27-8.55c0-.85.18-1.61.52-2.29.35-.67.83-1.2,1.43-1.59.6-.38,1.28-.58,2.05-.58l-.57,2.02c-.72,0-1.3.23-1.75.68-.45.45-.68,1.03-.68,1.75h-1Zm5.75-.05c0-.7-.22-1.27-.65-1.71-.43-.44-.99-.66-1.67-.66l.57-2.02c.77,0,1.45.19,2.06.58.61.38,1.09.91,1.44,1.57.35.67.52,1.42.52,2.25h-2.27Zm0,8.6v-8.6h2.27v8.6h-2.27Z"/>
    <path class="cls-2" d="m215.6,42.85v-1.88h6.88v1.88h-6.88Zm1.45,6.92v-13.83l2.27.03v13.8h-2.27Zm0-.03h2.27c0,.48.07.89.2,1.23s.33.59.58.76c.25.17.55.26.9.26l-.2,1.98c-1.17,0-2.08-.37-2.75-1.11-.67-.74-1-1.78-1-3.11Zm5.12,1.83l.9,1.62c-.33.25-.7.44-1.09.58-.39.13-.79.2-1.19.2l.2-1.98c.22,0,.42-.04.61-.11.19-.08.38-.18.56-.31Z"/>
    <path class="cls-2" d="m224.2,49.97c0-.78.2-1.47.59-2.06s.92-1.06,1.59-1.41c.67-.35,1.43-.52,2.28-.52l.12,1.75c-.7,0-1.28.2-1.74.61s-.69.93-.69,1.56l-2.15.08Zm4.08,4c-.75,0-1.43-.17-2.05-.53-.62-.35-1.11-.83-1.48-1.44s-.55-1.29-.55-2.04l2.15-.08c0,.63.21,1.16.64,1.58.42.42.91.62,1.46.62l-.17,1.88Zm-1.68-9.23l-2.1-.42c.1-.75.35-1.4.76-1.95.41-.55.93-.98,1.58-1.3.64-.32,1.35-.47,2.14-.47v1.95c-.62,0-1.15.18-1.59.54-.44.36-.7.91-.79,1.66Zm1.68,9.23l.17-1.88c.6,0,1.11-.15,1.54-.45.42-.3.75-.74.99-1.33.23-.58.35-1.27.35-2.08l1.12-.05c0,1.13-.18,2.13-.55,3-.37.87-.86,1.55-1.49,2.04-.62.49-1.34.74-2.14.74Zm.5-6.25l-.12-1.75h3.85v1.75h-3.72Zm4.82-2.67h-2.27c0-.73-.22-1.33-.66-1.8-.44-.47-1.01-.7-1.71-.7v-1.95c.9,0,1.7.19,2.39.58.69.38,1.24.91,1.65,1.59.41.67.61,1.44.61,2.29Zm-2.27,8.55v-8.6h2.27v8.6h-2.27Zm0-5.35v-3.22h1.12v3.17l-1.12.05Z"/>
    <path class="cls-2" d="m238.07,45h-2.27c0-.83.17-1.58.52-2.25.35-.67.83-1.19,1.44-1.57.61-.38,1.3-.58,2.09-.58l.58,2.02c-.68,0-1.25.22-1.69.66-.44.44-.66,1.01-.66,1.71Zm-2.27,4.25v-4.25h2.27v4.25h-2.27Zm2.27,0c0,.7.22,1.27.66,1.71.44.44,1,.66,1.69.66l-.58,2.03c-.78,0-1.48-.19-2.09-.58-.61-.38-1.09-.91-1.44-1.58-.35-.67-.52-1.42-.52-2.25h2.27Zm.02,5.05c.08.73.35,1.28.8,1.64.45.36.98.54,1.57.54v1.97c-.77,0-1.47-.16-2.12-.47-.65-.32-1.18-.76-1.59-1.33-.41-.57-.66-1.21-.76-1.92l2.1-.42Zm5.73-9.25h-1c0-.72-.23-1.3-.67-1.75-.45-.45-1.02-.68-1.73-.68l-.58-2.02c.75,0,1.43.19,2.04.58.61.38,1.08.91,1.43,1.59.34.67.51,1.44.51,2.29Zm0,4.12c0,.85-.17,1.61-.51,2.29-.34.67-.82,1.21-1.43,1.6-.61.39-1.29.59-2.04.59l.58-2.03c.7,0,1.27-.22,1.73-.67.45-.45.67-1.04.67-1.77h1Zm1.27,4.8c0,.85-.2,1.61-.6,2.29-.4.67-.95,1.21-1.65,1.6-.7.39-1.49.59-2.38.59v-1.97c.68,0,1.25-.24,1.69-.71.44-.47.66-1.07.66-1.79h2.27Zm-2.27.08v-13.08h2.27v13.08h-2.27Z"/>
    <path class="cls-2" d="m247.42,45.47c0-.95.2-1.79.61-2.51s.96-1.3,1.65-1.72c.69-.43,1.48-.64,2.36-.64v1.95c-.73,0-1.31.25-1.73.76-.42.51-.62,1.23-.62,2.16h-2.27Zm0,3.65v-3.67h2.27v3.67h-2.27Zm0,0h2.27c0,.92.21,1.63.62,2.14.42.51.99.76,1.73.76v1.97c-.88,0-1.67-.21-2.36-.64-.69-.43-1.24-1-1.65-1.74-.41-.73-.61-1.57-.61-2.5Zm.73-1.15v-1.62h8.52v1.62h-8.52Zm8.52-2.92h-2.27c0-.73-.22-1.33-.66-1.8-.44-.47-1.01-.7-1.71-.7v-1.95c.9,0,1.7.19,2.39.58.69.38,1.24.91,1.65,1.59.41.67.61,1.44.61,2.29Zm-4.65,8.95v-1.97h.12v1.97h-.12Zm2.48-4.15l2.12.42c-.1.72-.36,1.36-.78,1.92-.42.57-.94,1.01-1.57,1.33-.63.32-1.34.47-2.12.47v-1.97c.6,0,1.12-.18,1.56-.54.44-.36.7-.9.79-1.64Zm-.1-3.5v-1.3h2.27v1.3h-2.27Z"/>
    <path class="cls-2" d="m260.9,40.97v8.6h-2.27v-8.6h2.27Zm0,8.6c0,.7.22,1.27.66,1.71.44.44,1,.66,1.69.66l-.58,2.03c-.78,0-1.48-.19-2.09-.58s-1.09-.91-1.44-1.58c-.35-.67-.52-1.42-.52-2.25h2.27Zm5.75-.08c0,.85-.17,1.61-.51,2.29-.34.67-.82,1.21-1.43,1.6s-1.29.59-2.04.59l.58-2.03c.7,0,1.27-.22,1.73-.67.45-.45.67-1.04.67-1.78h1Zm1.27-8.52v12.62h-2.27v-12.62h2.27Z"/>
    <path class="cls-2" d="m277.07,53.6l-7.27-12.62h2.42l7.28,12.62h-2.43Zm-7.27,0l3.65-6.33h2.4l-3.62,6.33h-2.42Zm3.65-6.33l3.62-6.3h2.43l-3.65,6.3h-2.4Z"/>
    <path class="cls-2" d="m129.77,65.97l-4.3,17.62h-2.25l4.3-17.62h2.25Zm-4.02,14.1v-1.95h6.4v1.95h-6.4Zm4.08-14.1l4.3,17.62h-2.23l-4.32-17.62h2.25Z"/>
    <path class="cls-2" d="m136.38,71v-5.02h2.27v5.02h-2.27Zm2.27,12.6h-2.27v-12.62h2.27v12.62Zm-1-8.55c0-.85.18-1.61.52-2.29.35-.67.83-1.2,1.43-1.59.6-.38,1.28-.58,2.05-.58l-.57,2.02c-.72,0-1.3.23-1.75.68-.45.45-.68,1.03-.68,1.75h-1Zm0,4.45h1c0,.73.23,1.33.68,1.78.45.45,1.03.67,1.75.67l.57,2.03c-.77,0-1.45-.2-2.05-.59s-1.08-.92-1.43-1.6c-.35-.67-.52-1.44-.52-2.29Zm5.75-4.5c0-.7-.22-1.27-.65-1.71-.43-.44-.99-.66-1.67-.66l.57-2.02c.77,0,1.45.19,2.06.58.61.38,1.09.91,1.44,1.57.35.67.52,1.42.52,2.25h-2.27Zm0,4.58h2.27c0,.83-.17,1.58-.52,2.25-.35.67-.83,1.19-1.44,1.58s-1.3.58-2.06.58l-.57-2.03c.68,0,1.24-.22,1.67-.66.43-.44.65-1.01.65-1.71Zm2.27,0h-2.27v-4.58h2.27v4.58Z"/>
    <path class="cls-2" d="m147.62,75.47c0-.93.2-1.77.61-2.5s.96-1.31,1.65-1.74c.69-.43,1.48-.64,2.36-.64v1.97c-.73,0-1.31.25-1.73.75s-.62,1.22-.62,2.15h-2.27Zm0,3.65v-3.67h2.27v3.67h-2.27Zm0-.02h2.27c0,.92.21,1.63.62,2.14.42.51.99.76,1.73.76v1.98c-.88,0-1.67-.21-2.36-.64-.69-.42-1.24-1-1.65-1.74s-.61-1.57-.61-2.5Zm4.58-6.53v-1.97h.15v1.97h-.15Zm0,11.4v-1.98h.15v1.98h-.15Zm4.72-8.5h-2.27c0-.93-.2-1.65-.61-2.15-.41-.5-.99-.75-1.74-.75v-1.97c.88,0,1.67.21,2.36.64.69.42,1.24,1,1.65,1.74.41.73.61,1.57.61,2.5Zm0,3.62c0,.93-.2,1.77-.61,2.5-.41.73-.96,1.31-1.65,1.74-.69.42-1.48.64-2.36.64v-1.98c.75,0,1.33-.25,1.74-.76.41-.51.61-1.22.61-2.14h2.27Zm-2.27.02v-3.67h2.27v3.67h-2.27Z"/>
    <path class="cls-2" d="m159.25,83.6v-12.62h2.27v12.62h-2.27Zm1.27-8.55c0-.85.18-1.61.52-2.29.35-.67.83-1.2,1.43-1.59.6-.38,1.28-.58,2.05-.58l-.57,2.02c-.72,0-1.3.23-1.75.68-.45.45-.68,1.03-.68,1.75h-1Zm5.75-.05c0-.7-.22-1.27-.65-1.71-.43-.44-.99-.66-1.67-.66l.57-2.02c.77,0,1.45.19,2.06.58.61.38,1.09.91,1.44,1.57.35.67.52,1.42.52,2.25h-2.27Zm0,8.6v-8.6h2.27v8.6h-2.27Z"/>
    <path class="cls-2" d="m171.12,83.6v-12.62h2.27v12.62h-2.27Zm1.27-8.55c0-.85.18-1.61.52-2.29.35-.67.83-1.2,1.43-1.59.6-.38,1.28-.58,2.05-.58l-.57,2.02c-.72,0-1.3.23-1.75.68-.45.45-.68,1.03-.68,1.75h-1Zm5.75-.05c0-.7-.22-1.27-.65-1.71-.43-.44-.99-.66-1.67-.66l.57-2.02c.77,0,1.45.19,2.06.58.61.38,1.09.91,1.44,1.57.35.67.52,1.42.52,2.25h-2.27Zm0,8.6v-8.6h2.27v8.6h-2.27Z"/>
    <path class="cls-2" d="m182.37,75.47c0-.95.2-1.79.61-2.51s.96-1.3,1.65-1.72c.69-.43,1.48-.64,2.36-.64v1.95c-.73,0-1.31.25-1.73.76-.42.51-.62,1.23-.62,2.16h-2.27Zm0,3.65v-3.67h2.27v3.67h-2.27Zm0,0h2.27c0,.92.21,1.63.62,2.14.42.51.99.76,1.73.76v1.97c-.88,0-1.67-.21-2.36-.64-.69-.43-1.24-1-1.65-1.74-.41-.73-.61-1.57-.61-2.5Zm.73-1.15v-1.62h8.52v1.62h-8.52Zm8.52-2.92h-2.27c0-.73-.22-1.33-.66-1.8-.44-.47-1.01-.7-1.71-.7v-1.95c.9,0,1.7.19,2.39.58.69.38,1.24.91,1.65,1.59.41.67.61,1.44.61,2.29Zm-4.65,8.95v-1.97h.12v1.97h-.12Zm2.48-4.15l2.12.42c-.1.72-.36,1.36-.78,1.92-.42.57-.94,1.01-1.57,1.33-.63.32-1.34.47-2.12.47v-1.97c.6,0,1.12-.18,1.56-.54.44-.36.7-.9.79-1.64Zm-.1-3.5v-1.3h2.27v1.3h-2.27Z"/>
    <path class="cls-2" d="m193.82,72.97v-2h8.12v2h-8.12Zm0,8.6l5.62-8.6h2.5l-5.6,8.6h-2.52Zm0,2.03v-2.03h8.12v2.03h-8.12Z"/>
    <path class="cls-2" d="m204.57,76.5v-2.02h7.08v2.02h-7.08Z"/>
    <path class="cls-2" d="m217.75,83.6l-4.1-12.62h2.27l3.9,12.62h-2.07Zm.23,0l3.9-12.62h2.27l-4.08,12.62h-2.1Z"/>
    <path class="cls-2" d="m225.22,75.47c0-.93.2-1.77.61-2.5s.96-1.31,1.65-1.74c.69-.43,1.48-.64,2.36-.64v1.97c-.73,0-1.31.25-1.73.75s-.62,1.22-.62,2.15h-2.27Zm0,3.65v-3.67h2.27v3.67h-2.27Zm0-.02h2.27c0,.92.21,1.63.62,2.14.42.51.99.76,1.73.76v1.98c-.88,0-1.67-.21-2.36-.64-.69-.42-1.24-1-1.65-1.74s-.61-1.57-.61-2.5Zm4.58-6.53v-1.97h.15v1.97h-.15Zm0,11.4v-1.98h.15v1.98h-.15Zm4.72-8.5h-2.27c0-.93-.2-1.65-.61-2.15-.41-.5-.99-.75-1.74-.75v-1.97c.88,0,1.67.21,2.36.64.69.42,1.24,1,1.65,1.74.41.73.61,1.57.61,2.5Zm0,3.62c0,.93-.2,1.77-.61,2.5-.41.73-.96,1.31-1.65,1.74-.69.42-1.48.64-2.36.64v-1.98c.75,0,1.33-.25,1.74-.76.41-.51.61-1.22.61-2.14h2.27Zm-2.27.02v-3.67h2.27v3.67h-2.27Z"/>
    <path class="cls-2" d="m238.75,70.97v8.6h-2.27v-8.6h2.27Zm0,8.6c0,.7.22,1.27.66,1.71.44.44,1,.66,1.69.66l-.58,2.03c-.78,0-1.48-.19-2.09-.58s-1.09-.91-1.44-1.58c-.35-.67-.52-1.42-.52-2.25h2.27Zm5.75-.08c0,.85-.17,1.61-.51,2.29-.34.67-.82,1.21-1.43,1.6s-1.29.59-2.04.59l.58-2.03c.7,0,1.27-.22,1.73-.67.45-.45.67-1.04.67-1.78h1Zm1.27-8.52v12.62h-2.27v-12.62h2.27Z"/>
    <path class="cls-2" d="m250.2,79.82c.08.73.35,1.28.8,1.64.45.36.98.54,1.58.54v1.98c-.77,0-1.48-.16-2.12-.48s-1.18-.76-1.59-1.32c-.41-.57-.66-1.21-.76-1.93l2.1-.42Zm-1.73-5.67c0-.68.17-1.3.51-1.84.34-.54.82-.97,1.44-1.27.62-.31,1.3-.46,2.05-.46v1.98c-.52,0-.95.15-1.29.45-.34.3-.51.68-.51,1.15h-2.2Zm5.77,5.16c-.3-.27-.69-.52-1.16-.75-.47-.22-.97-.45-1.5-.69-.52-.23-1.02-.5-1.5-.81-.47-.31-.86-.7-1.16-1.17-.3-.47-.45-1.05-.45-1.74h2.2c0,.42.15.76.45,1.04.3.28.69.52,1.16.74s.98.45,1.51.69c.53.24,1.03.52,1.5.84.47.32.85.7,1.16,1.16.31.46.46,1.04.46,1.74h-2.23c0-.42-.15-.76-.45-1.04Zm.58-4.59c-.08-.75-.35-1.3-.79-1.65-.44-.35-.96-.52-1.56-.52v-1.98c.78,0,1.49.16,2.12.48.63.32,1.16.75,1.58,1.31.42.56.67,1.2.77,1.94l-2.12.42Zm-2.25,9.25v-1.98c.62,0,1.12-.15,1.52-.46s.6-.7.6-1.19h2.23c0,.7-.19,1.33-.56,1.88s-.89.98-1.54,1.29c-.65.31-1.4.46-2.25.46Z"/>
    <path class="cls-2" d="m265.25,83.7c-.42,0-.77-.14-1.05-.42s-.42-.63-.42-1.05.14-.77.42-1.06.63-.44,1.05-.44.77.15,1.06.44c.29.29.44.65.44,1.06s-.15.77-.44,1.05c-.29.28-.65.42-1.06.42Zm-.93-5.38l-.2-12.35h2.27l-.23,12.35h-1.85Z"/>
  </g>
  <rect class="cls-1" x=".43" y=".44" width="299.15" height="119.13"/>
  <path class="cls-2" d="m53.1,97.9c-20.77,0-37.67-16.9-37.67-37.67S32.33,22.57,53.1,22.57s37.67,16.9,37.67,37.67-16.9,37.67-37.67,37.67Zm0-72.33c-19.11,0-34.67,15.55-34.67,34.67s15.55,34.67,34.67,34.67,34.67-15.55,34.67-34.67-15.55-34.67-34.67-34.67Z"/>
  <path class="cls-2" d="m53.1,81.72c-.31,0-.62-.1-.88-.29l-1.02-.74c-8.72-6.32-21.89-15.88-21.89-27.38,0-8.99,5.41-14.57,14.11-14.57,4.9,0,7.6,2.04,9.68,4.47,2.08-2.43,4.77-4.47,9.68-4.47,8.71,0,14.11,5.58,14.11,14.57,0,11.5-13.18,21.06-21.9,27.38l-1.01.74c-.26.19-.57.29-.88.29Zm-9.68-39.97c-6.96,0-11.11,4.32-11.11,11.57,0,9.97,12.43,18.99,20.65,24.95l.14.1.14-.1c8.23-5.96,20.66-14.98,20.66-24.95,0-7.24-4.15-11.57-11.11-11.57-4.53,0-6.45,2.07-8.48,4.78-.57.75-1.83.75-2.4,0-2.03-2.71-3.95-4.78-8.48-4.78Z"/>
</svg>