<svg viewBox="0 0 51.01 50.69" xmlns="http://www.w3.org/2000/svg"><path d="m50.19 25.34c0 13.72-11.12 24.85-24.85 24.85s-24.84-11.12-24.84-24.85 11.12-24.84 24.84-24.84 24.85 11.12 24.85 24.84" fill="#fff"/><path d="m50.19 25.34c0 13.72-11.12 24.85-24.85 24.85s-24.84-11.12-24.84-24.85 11.12-24.84 24.84-24.84 24.85 11.12 24.85 24.84z" fill="none" stroke="#c5c5c5" stroke-miterlimit="10"/><circle cx="25.34" cy="25.34" fill="none" r="22.59" stroke="#000" stroke-miterlimit="10" stroke-width=".8" transform="matrix(.25662676 -.96651058 .96651058 .25662676 -5.66 43.33)"/><path d="m32.49 19.63c0 .38-.13.71-.4.98s-.6.4-.98.4-.71-.13-.98-.4-.4-.6-.4-.98.13-.71.4-.98.59-.4.98-.4.71.13.98.4.4.59.4.98m-7.15 9.21c-.97 0-1.8-.34-2.48-1.03s-1.02-1.51-1.02-2.47.34-1.8 1.02-2.49 1.5-1.03 2.48-1.03 1.8.34 2.49 1.03 1.03 1.52 1.03 2.49-.34 1.78-1.03 2.47-1.52 1.03-2.49 1.03m0-9.26c-.78 0-1.52.16-2.22.47-.71.3-1.33.71-1.84 1.23s-.93 1.13-1.24 1.83c-.3.7-.44 1.44-.44 2.24s.15 1.52.44 2.22c.31.7.73 1.3 1.24 1.83.51.52 1.13.93 1.84 1.23.69.31 1.43.47 2.22.47s1.55-.15 2.24-.44c.7-.31 1.3-.73 1.83-1.25.52-.52.93-1.13 1.23-1.83.31-.7.47-1.44.47-2.22s-.16-1.55-.47-2.24c-.3-.7-.71-1.3-1.23-1.83-.52-.52-1.13-.93-1.83-1.23-.7-.31-1.44-.47-2.24-.47m8.87 10.25c0 1.2-.43 2.23-1.28 3.09s-1.89 1.29-3.1 1.29h-8.97c-1.22 0-2.25-.43-3.1-1.29s-1.28-1.89-1.28-3.09v-9c0-1.2.43-2.23 1.28-3.09s1.89-1.29 3.1-1.29h8.97c1.22 0 2.25.43 3.1 1.29s1.28 1.89 1.28 3.09zm-4.38-15.6h-8.97c-.9 0-1.77.17-2.58.52-.8.35-1.5.82-2.1 1.42s-1.07 1.3-1.42 2.1-.52 1.65-.52 2.56v9c0 .9.17 1.76.52 2.56.35.82.82 1.53 1.42 2.13s1.3 1.07 2.1 1.4c.82.35 1.68.53 2.58.55h8.97c.92-.02 1.78-.2 2.58-.55.8-.33 1.5-.79 2.1-1.4.6-.6 1.07-1.31 1.42-2.13.35-.8.52-1.65.52-2.56v-9c0-.9-.17-1.76-.52-2.56-.35-.82-.82-1.52-1.42-2.11s-1.3-1.06-2.1-1.41-1.66-.52-2.58-.52"/></svg>