<?xml version="1.0" encoding="UTF-8" standalone="no"?>
<!DOCTYPE svg PUBLIC "-//W3C//DTD SVG 1.1//EN" "http://www.w3.org/Graphics/SVG/1.1/DTD/svg11.dtd">
<svg width="100%" height="100%" viewBox="0 0 256 256" version="1.1" xmlns="http://www.w3.org/2000/svg" xmlns:xlink="http://www.w3.org/1999/xlink" xml:space="preserve" xmlns:serif="http://www.serif.com/" style="fill-rule:evenodd;clip-rule:evenodd;stroke-linecap:round;stroke-linejoin:round;stroke-miterlimit:1.5;">
    <g transform="matrix(12.4028,0,0,12.1746,-237.914,-200.431)">
        <ellipse cx="29.502" cy="26.977" rx="9.836" ry="10.021" style="fill:none;stroke:black;stroke-width:0.68px;"/>
    </g>
    <g transform="matrix(4.52489,0,0,4.52489,11.7557,13.2941)">
        <path d="M25.7,38.62C23.88,38.62 22.14,38.27 20.53,37.58C18.92,36.89 17.5,35.94 16.31,34.74C15.11,33.54 14.16,32.12 13.47,30.52C12.78,28.91 12.43,27.17 12.43,25.35C12.43,23.84 12.67,22.37 13.15,21C13.26,20.57 13.63,20.37 13.95,20.37C14.19,20.37 14.41,20.48 14.54,20.67C14.69,20.89 14.71,21.19 14.58,21.52C14.25,22.46 14.04,23.47 13.95,24.51L13.95,24.6L20.79,24.6L20.79,24.52C20.83,23.74 20.88,22.97 20.94,22.23C21,21.49 21.09,20.75 21.21,20.02L21.21,19.94L21.14,19.93C20.24,19.81 19.35,19.65 18.51,19.45C17.66,19.25 16.83,19.01 16.04,18.74C16.01,18.73 15.3,18.49 14.75,18.25L14.53,18.15L14.66,17.95C15.14,17.23 15.69,16.56 16.29,15.96C17.49,14.76 18.91,13.81 20.51,13.12C22.12,12.43 23.86,12.08 25.68,12.08C27.5,12.08 29.24,12.43 30.85,13.12C32.46,13.81 33.88,14.76 35.07,15.96C36.27,17.16 37.22,18.58 37.91,20.18C38.6,21.79 38.95,23.53 38.95,25.35C38.95,26.29 38.85,27.22 38.67,28.13C38.58,28.48 38.28,28.71 37.91,28.71C37.67,28.71 37.44,28.6 37.3,28.42C37.16,28.23 37.12,27.98 37.2,27.71C37.3,27.22 37.38,26.7 37.42,26.19L37.42,26.1L30.59,26.1L30.59,26.18C30.55,26.96 30.5,27.73 30.44,28.47C30.38,29.22 30.29,29.96 30.17,30.68L30.17,30.76L30.24,30.77C31.14,30.89 32.02,31.05 32.87,31.25C33.71,31.45 34.54,31.69 35.34,31.96C35.38,31.97 36.22,32.27 36.61,32.51L36.79,32.62L36.67,32.79C36.19,33.5 35.66,34.15 35.08,34.73C33.89,35.93 32.46,36.88 30.86,37.57C29.25,38.26 27.51,38.61 25.69,38.61M24.87,37.05C25.01,37.07 25.15,37.08 25.28,37.09C25.41,37.09 25.55,37.1 25.69,37.1C25.83,37.1 25.97,37.1 26.1,37.09C26.23,37.08 26.37,37.07 26.51,37.05L26.55,37.05L26.57,37C26.92,36.27 27.24,35.49 27.53,34.67C27.82,33.86 28.08,33 28.3,32.13L28.33,32.04L28.23,32.04C27.82,32 27.39,31.97 26.96,31.94C26.53,31.91 26.11,31.9 25.69,31.9C25.27,31.9 24.85,31.91 24.42,31.94C23.99,31.97 23.57,32 23.15,32.03L23.05,32.03L23.08,32.13C23.3,33 23.56,33.85 23.84,34.67C24.12,35.49 24.44,36.27 24.81,37L24.83,37.04L24.87,37.04L24.87,37.05ZM17.1,33.37C17.85,34.17 18.72,34.87 19.69,35.44C20.66,36.02 21.71,36.45 22.8,36.73L22.96,36.77L22.9,36.62C22.62,35.95 22.37,35.24 22.15,34.53C21.93,33.82 21.73,33.07 21.55,32.31L21.53,32.24L21.45,32.24C20.7,32.37 19.96,32.51 19.24,32.67C18.52,32.82 17.81,33.02 17.13,33.24L17.1,33.37ZM29.83,32.31C29.66,33.07 29.46,33.82 29.23,34.53C29.01,35.24 28.75,35.95 28.48,36.62L28.42,36.77L28.58,36.73C29.67,36.45 30.72,36.02 31.69,35.44C32.66,34.87 33.53,34.17 34.28,33.37L34.37,33.28L34.25,33.24C33.58,33.02 32.86,32.82 32.14,32.67C31.43,32.51 30.68,32.37 29.93,32.25L29.85,32.25L29.83,32.31ZM13.95,26.18C14.04,27.24 14.25,28.27 14.59,29.23C14.93,30.19 15.38,31.1 15.94,31.93L15.97,31.98L16.03,31.96C16.82,31.68 17.65,31.44 18.5,31.25C19.35,31.05 20.23,30.89 21.13,30.77L21.21,30.77L21.2,30.68C21.08,29.95 20.99,29.21 20.93,28.47C20.87,27.73 20.82,26.96 20.79,26.18L20.79,26.1L13.94,26.1L13.94,26.19L13.95,26.18ZM25.69,30.43C26.18,30.43 26.66,30.44 27.13,30.47C27.61,30.5 28.09,30.53 28.55,30.56L28.62,30.56L28.63,30.49C28.75,29.79 28.85,29.07 28.92,28.36C28.99,27.65 29.03,26.91 29.05,26.18L29.05,26.1L22.31,26.1L22.31,26.18C22.33,26.91 22.37,27.64 22.44,28.36C22.51,29.08 22.6,29.79 22.73,30.49L22.73,30.56L22.82,30.56C23.29,30.53 23.77,30.49 24.24,30.47C24.71,30.44 25.2,30.43 25.68,30.43M37.42,24.59L37.42,24.5C37.34,23.44 37.13,22.41 36.78,21.45C36.43,20.49 35.97,19.58 35.41,18.75L35.38,18.7L35.32,18.72C34.52,19 33.69,19.24 32.85,19.43C32.01,19.62 31.12,19.79 30.22,19.91L30.14,19.91L30.15,20C30.27,20.72 30.36,21.46 30.42,22.21C30.48,22.95 30.53,23.73 30.56,24.5L30.56,24.58L37.4,24.58L37.42,24.59ZM29.05,24.59L29.05,24.51C29.03,23.77 28.98,23.04 28.92,22.33C28.85,21.62 28.76,20.9 28.63,20.2L28.63,20.13L28.54,20.13C28.08,20.16 27.61,20.19 27.12,20.22C26.65,20.25 26.16,20.26 25.68,20.26C25.2,20.26 24.71,20.25 24.24,20.22C23.77,20.19 23.29,20.16 22.82,20.13L22.75,20.13L22.74,20.2C22.62,20.89 22.52,21.61 22.45,22.33C22.38,23.05 22.34,23.79 22.32,24.51L22.32,24.59L29.06,24.59L29.05,24.59ZM23.14,18.64C23.55,18.67 23.98,18.71 24.41,18.73C24.84,18.76 25.26,18.77 25.68,18.77C26.1,18.77 26.52,18.76 26.95,18.73C27.38,18.71 27.8,18.67 28.22,18.64L28.32,18.64L28.29,18.54C28.07,17.68 27.81,16.83 27.53,16C27.25,15.18 26.92,14.39 26.56,13.67L26.54,13.63L26.5,13.63C26.36,13.61 26.22,13.59 26.09,13.59C25.96,13.59 25.82,13.58 25.68,13.58C25.54,13.58 25.4,13.58 25.27,13.59C25.14,13.59 25,13.61 24.86,13.63L24.82,13.63L24.8,13.68C24.45,14.41 24.13,15.19 23.85,16.01C23.56,16.82 23.3,17.68 23.08,18.54L23.05,18.63L23.15,18.63L23.14,18.64ZM28.47,14.05C28.75,14.72 29,15.43 29.22,16.14C29.45,16.86 29.65,17.61 29.82,18.36L29.84,18.43L29.92,18.43C30.67,18.32 31.41,18.18 32.13,18.01C32.85,17.85 33.56,17.65 34.24,17.42L34.36,17.38L34.27,17.29C33.52,16.49 32.65,15.79 31.68,15.22C30.71,14.64 29.67,14.21 28.57,13.93L28.41,13.89L28.47,14.04L28.47,14.05ZM17.13,17.43C17.81,17.66 18.51,17.85 19.24,18.02C19.96,18.19 20.7,18.32 21.45,18.43L21.53,18.43L21.55,18.37C21.72,17.61 21.92,16.87 22.15,16.15C22.37,15.44 22.63,14.74 22.9,14.06L22.96,13.91L22.8,13.95C21.7,14.23 20.66,14.66 19.69,15.24C18.72,15.81 17.85,16.51 17.1,17.31L17.01,17.4L17.13,17.44L17.13,17.43Z" style="fill-rule:nonzero;"/>
    </g>
</svg>
