<?xml version="1.0" encoding="UTF-8" standalone="no"?>
<!DOCTYPE svg PUBLIC "-//W3C//DTD SVG 1.1//EN" "http://www.w3.org/Graphics/SVG/1.1/DTD/svg11.dtd">
<svg width="100%" height="100%" viewBox="0 0 256 256" version="1.1" xmlns="http://www.w3.org/2000/svg" xmlns:xlink="http://www.w3.org/1999/xlink" xml:space="preserve" xmlns:serif="http://www.serif.com/" style="fill-rule:evenodd;clip-rule:evenodd;stroke-linecap:round;stroke-linejoin:round;stroke-miterlimit:1.5;">
    <g transform="matrix(12.4028,0,0,12.1746,-237.914,-200.431)">
        <ellipse cx="29.502" cy="26.977" rx="9.836" ry="10.021" style="fill:none;stroke:black;stroke-width:0.68px;"/>
    </g>
    <g transform="matrix(5.40541,0,0,5.40541,-10.9459,-9.02703)">
        <path d="M22.77,18.56L22.77,21.61L20.53,21.61L20.53,25.34L22.77,25.34L22.77,36.45L27.36,36.45L27.36,25.34L30.46,25.34C30.46,25.34 30.51,24.96 30.62,24.21C30.72,23.45 30.81,22.58 30.88,21.59L27.38,21.59L27.38,19.03C27.38,18.84 27.48,18.64 27.69,18.44C27.9,18.24 28.12,18.14 28.37,18.14L30.87,18.14L30.87,14.25L27.48,14.25C25.06,14.25 23.67,14.9 23.31,16.19C22.95,17.48 22.76,18.27 22.76,18.55" style="fill-rule:nonzero;"/>
    </g>
</svg>
