<svg viewBox="0 0 51.01 50.69" xmlns="http://www.w3.org/2000/svg"><path d="m50.54 25.35c0 13.72-11.12 24.84-24.85 24.84s-24.83-11.12-24.83-24.84 11.12-24.85 24.84-24.85 24.85 11.12 24.85 24.84" fill="#fff"/><path d="m50.54 25.35c0 13.72-11.12 24.84-24.85 24.84s-24.83-11.12-24.83-24.84 11.12-24.85 24.84-24.85 24.85 11.12 24.85 24.84z" fill="none" stroke="#c5c5c5" stroke-miterlimit="10" stroke-width=".81"/><path d="m48.29 25.35c0 12.47-10.11 22.59-22.59 22.59s-22.59-10.12-22.59-22.59 10.12-22.59 22.59-22.59 22.59 10.11 22.59 22.59" fill="#fff"/><circle cx="25.7" cy="25.35" fill="none" r="22.59" stroke="#000" stroke-miterlimit="10" transform="matrix(.25662676 -.96651058 .96651058 .25662676 -5.4 43.68)"/><path d="m25.7 38.62c-1.82 0-3.56-.35-5.17-1.04s-3.03-1.64-4.22-2.84c-1.2-1.2-2.15-2.62-2.84-4.22-.69-1.61-1.04-3.35-1.04-5.17 0-1.51.24-2.98.72-4.35.11-.43.48-.63.8-.63.24 0 .46.11.59.3.15.22.17.52.04.85-.33.94-.54 1.95-.63 2.99v.09s6.84 0 6.84 0v-.08c.04-.78.09-1.55.15-2.29s.15-1.48.27-2.21v-.08s-.07-.01-.07-.01c-.9-.12-1.79-.28-2.63-.48-.85-.2-1.68-.44-2.47-.71-.03-.01-.74-.25-1.29-.49l-.22-.1.13-.2c.48-.72 1.03-1.39 1.63-1.99 1.2-1.2 2.62-2.15 4.22-2.84 1.61-.69 3.35-1.04 5.17-1.04s3.56.35 5.17 1.04 3.03 1.64 4.22 2.84c1.2 1.2 2.15 2.62 2.84 4.22.69 1.61 1.04 3.35 1.04 5.17 0 .94-.1 1.87-.28 2.78-.09.35-.39.58-.76.58-.24 0-.47-.11-.61-.29-.14-.19-.18-.44-.1-.71.1-.49.18-1.01.22-1.52v-.09s-6.83 0-6.83 0v.08c-.04.78-.09 1.55-.15 2.29-.06.75-.15 1.49-.27 2.21v.08s.07.01.07.01c.9.12 1.78.28 2.63.48.84.2 1.67.44 2.47.71.04.01.88.31 1.27.55l.18.11-.12.17c-.48.71-1.01 1.36-1.59 1.94-1.19 1.2-2.62 2.15-4.22 2.84-1.61.69-3.35 1.04-5.17 1.04m-.82-1.56c.14.02.28.03.41.04.13 0 .27.01.41.01s.28 0 .41-.01.27-.02.41-.04h.04s.02-.05.02-.05c.35-.73.67-1.51.96-2.33.29-.81.55-1.67.77-2.54l.03-.09h-.1c-.41-.04-.84-.07-1.27-.1s-.85-.04-1.27-.04-.84.01-1.27.04-.85.06-1.27.09h-.1s.03.1.03.1c.22.87.48 1.72.76 2.54s.6 1.6.97 2.33l.02.04h.04zm-7.77-3.68c.75.8 1.62 1.5 2.59 2.07.97.58 2.02 1.01 3.11 1.29l.16.04-.06-.15c-.28-.67-.53-1.38-.75-2.09s-.42-1.46-.6-2.22l-.02-.07h-.08c-.75.13-1.49.27-2.21.43-.72.15-1.43.35-2.11.57zm12.73-1.06c-.17.76-.37 1.51-.6 2.22-.22.71-.48 1.42-.75 2.09l-.06.15.16-.04c1.09-.28 2.14-.71 3.11-1.29.97-.57 1.84-1.27 2.59-2.07l.09-.09-.12-.04c-.67-.22-1.39-.42-2.11-.57-.71-.16-1.46-.3-2.21-.42h-.08s-.02.06-.02.06zm-15.88-6.13c.09 1.06.3 2.09.64 3.05s.79 1.87 1.35 2.7l.03.05.06-.02c.79-.28 1.62-.52 2.47-.71.85-.2 1.73-.36 2.63-.48h.08s-.01-.09-.01-.09c-.12-.73-.21-1.47-.27-2.21s-.11-1.51-.14-2.29v-.08h-6.85v.09zm11.74 4.25c.49 0 .97.01 1.44.04.48.03.96.06 1.42.09h.07s.01-.07.01-.07c.12-.7.22-1.42.29-2.13s.11-1.45.13-2.18v-.08s-6.74 0-6.74 0v.08c.02.73.06 1.46.13 2.18s.16 1.43.29 2.13v.07s.09 0 .09 0c.47-.03.95-.07 1.42-.09.47-.03.96-.04 1.44-.04m11.74-5.84v-.09c-.08-1.06-.29-2.09-.64-3.05s-.81-1.87-1.37-2.7l-.03-.05-.06.02c-.8.28-1.63.52-2.47.71s-1.73.36-2.63.48h-.08s.01.09.01.09c.12.72.21 1.46.27 2.21.06.74.11 1.52.14 2.29v.08h6.84zm-8.37 0v-.08c-.02-.74-.07-1.47-.13-2.18-.07-.71-.16-1.43-.29-2.13v-.07s-.09 0-.09 0c-.46.03-.93.06-1.42.09-.47.03-.96.04-1.44.04s-.97-.01-1.44-.04-.95-.06-1.42-.09h-.07s-.01.07-.01.07c-.12.69-.22 1.41-.29 2.13s-.11 1.46-.13 2.18v.08s6.74 0 6.74 0zm-5.91-5.95c.41.03.84.07 1.27.09.43.03.85.04 1.27.04s.84-.01 1.27-.04c.43-.02.85-.06 1.27-.09h.1s-.03-.1-.03-.1c-.22-.86-.48-1.71-.76-2.54-.28-.82-.61-1.61-.97-2.33l-.02-.04h-.04c-.14-.02-.28-.04-.41-.04s-.27-.01-.41-.01-.28 0-.41.01c-.13 0-.27.02-.41.04h-.04s-.02.05-.02.05c-.35.73-.67 1.51-.95 2.33-.29.81-.55 1.67-.77 2.53l-.03.09h.1zm5.33-4.59c.28.67.53 1.38.75 2.09.23.72.43 1.47.6 2.22l.02.07h.08c.75-.11 1.49-.25 2.21-.42.72-.16 1.43-.36 2.11-.59l.12-.04-.09-.09c-.75-.8-1.62-1.5-2.59-2.07-.97-.58-2.01-1.01-3.11-1.29l-.16-.04.06.15zm-11.34 3.38c.68.23 1.38.42 2.11.59.72.17 1.46.3 2.21.41h.08s.02-.06.02-.06c.17-.76.37-1.5.6-2.22.22-.71.48-1.41.75-2.09l.06-.15-.16.04c-1.1.28-2.14.71-3.11 1.29-.97.57-1.84 1.27-2.59 2.07l-.09.09.12.04z"/></svg>