<?xml version="1.0" encoding="UTF-8" standalone="no"?>
<!DOCTYPE svg PUBLIC "-//W3C//DTD SVG 1.1//EN" "http://www.w3.org/Graphics/SVG/1.1/DTD/svg11.dtd">
<svg width="100%" height="100%" viewBox="0 0 256 256" version="1.1" xmlns="http://www.w3.org/2000/svg" xmlns:xlink="http://www.w3.org/1999/xlink" xml:space="preserve" xmlns:serif="http://www.serif.com/" style="fill-rule:evenodd;clip-rule:evenodd;stroke-linecap:round;stroke-linejoin:round;stroke-miterlimit:1.5;">
    <g transform="matrix(12.4028,0,0,12.1746,-237.914,-200.431)">
        <ellipse cx="29.502" cy="26.977" rx="9.836" ry="10.021" style="fill:none;stroke:black;stroke-width:0.68px;"/>
    </g>
    <g transform="matrix(5.40297,0,0,5.40297,-8.93832,-9.01936)">
        <path d="M32.49,19.63C32.49,20.01 32.36,20.34 32.09,20.61C31.82,20.88 31.49,21.01 31.11,21.01C30.73,21.01 30.4,20.88 30.13,20.61C29.86,20.34 29.73,20.01 29.73,19.63C29.73,19.25 29.86,18.92 30.13,18.65C30.4,18.38 30.72,18.25 31.11,18.25C31.5,18.25 31.82,18.38 32.09,18.65C32.36,18.92 32.49,19.24 32.49,19.63M25.34,28.84C24.37,28.84 23.54,28.5 22.86,27.81C22.18,27.12 21.84,26.3 21.84,25.34C21.84,24.38 22.18,23.54 22.86,22.85C23.54,22.16 24.36,21.82 25.34,21.82C26.32,21.82 27.14,22.16 27.83,22.85C28.52,23.54 28.86,24.37 28.86,25.34C28.86,26.31 28.52,27.12 27.83,27.81C27.14,28.5 26.31,28.84 25.34,28.84M25.34,19.58C24.56,19.58 23.82,19.74 23.12,20.05C22.41,20.35 21.79,20.76 21.28,21.28C20.77,21.8 20.35,22.41 20.04,23.11C19.74,23.81 19.6,24.55 19.6,25.35C19.6,26.15 19.75,26.87 20.04,27.57C20.35,28.27 20.77,28.87 21.28,29.4C21.79,29.92 22.41,30.33 23.12,30.63C23.81,30.94 24.55,31.1 25.34,31.1C26.13,31.1 26.89,30.95 27.58,30.66C28.28,30.35 28.88,29.93 29.41,29.41C29.93,28.89 30.34,28.28 30.64,27.58C30.95,26.88 31.11,26.14 31.11,25.36C31.11,24.58 30.95,23.81 30.64,23.12C30.34,22.42 29.93,21.82 29.41,21.29C28.89,20.77 28.28,20.36 27.58,20.06C26.88,19.75 26.14,19.59 25.34,19.59M34.21,29.84C34.21,31.04 33.78,32.07 32.93,32.93C32.08,33.79 31.04,34.22 29.83,34.22L20.86,34.22C19.64,34.22 18.61,33.79 17.76,32.93C16.91,32.07 16.48,31.04 16.48,29.84L16.48,20.84C16.48,19.64 16.91,18.61 17.76,17.75C18.61,16.89 19.65,16.46 20.86,16.46L29.83,16.46C31.05,16.46 32.08,16.89 32.93,17.75C33.78,18.61 34.21,19.64 34.21,20.84L34.21,29.84ZM29.83,14.24L20.86,14.24C19.96,14.24 19.09,14.41 18.28,14.76C17.48,15.11 16.78,15.58 16.18,16.18C15.58,16.78 15.11,17.48 14.76,18.28C14.41,19.08 14.24,19.93 14.24,20.84L14.24,29.84C14.24,30.74 14.41,31.6 14.76,32.4C15.11,33.22 15.58,33.93 16.18,34.53C16.78,35.13 17.48,35.6 18.28,35.93C19.1,36.28 19.96,36.46 20.86,36.48L29.83,36.48C30.75,36.46 31.61,36.28 32.41,35.93C33.21,35.6 33.91,35.14 34.51,34.53C35.11,33.93 35.58,33.22 35.93,32.4C36.28,31.6 36.45,30.75 36.45,29.84L36.45,20.84C36.45,19.94 36.28,19.08 35.93,18.28C35.58,17.46 35.11,16.76 34.51,16.17C33.91,15.58 33.21,15.11 32.41,14.76C31.61,14.41 30.75,14.24 29.83,14.24" style="fill-rule:nonzero;"/>
    </g>
</svg>
