<svg viewBox="0 0 51.01 50.69" xmlns="http://www.w3.org/2000/svg"><path d="m50.54 25.35c0 13.72-11.12 24.84-24.85 24.84s-24.83-11.12-24.83-24.84 11.12-24.85 24.84-24.85 24.85 11.12 24.85 24.84" fill="#fff"/><path d="m50.54 25.35c0 13.72-11.12 24.84-24.85 24.84s-24.83-11.12-24.83-24.84 11.12-24.85 24.84-24.85 24.85 11.12 24.85 24.84z" fill="none" stroke="#c5c5c5" stroke-miterlimit="10" stroke-width=".81"/><path d="m48.29 25.35c0 12.47-10.11 22.59-22.59 22.59s-22.59-10.12-22.59-22.59 10.12-22.59 22.59-22.59 22.59 10.11 22.59 22.59" fill="#fff"/><circle cx="25.7" cy="25.35" fill="none" r="22.59" stroke="#000" stroke-miterlimit="10" transform="matrix(.25662676 -.96651058 .96651058 .25662676 -5.4 43.68)"/><path d="m22.77 18.56v3.05h-2.24v3.73h2.24v11.11h4.59v-11.11h3.1s.05-.38.16-1.13c.1-.76.19-1.63.26-2.62h-3.5v-2.56c0-.19.1-.39.31-.59s.43-.3.68-.3h2.5v-3.89h-3.39c-2.42 0-3.81.65-4.17 1.94s-.55 2.08-.55 2.36"/></svg>