<?xml version="1.0" encoding="UTF-8"?>
<svg id="Calque_1" data-name="Calque 1" xmlns="http://www.w3.org/2000/svg" viewBox="0 0 38.72 63.72">
  <defs>
    <style>
      .cls-1 {
        stroke-dasharray: 0 0 .05 6;
      }

      .cls-1, .cls-2 {
        fill: none;
        stroke: #010101;
        stroke-linecap: round;
        stroke-width: 3.72px;
      }
    </style>
  </defs>
  <path class="cls-2" d="m1.86,38.93v16.3c0,.22.18.41.41.41,2.83,0,5.13,2.3,5.13,5.13v.64c0,.25.2.46.46.46h22.9c.25,0,.46-.2.46-.46v-.54c0-2.89,2.34-5.23,5.23-5.23.23,0,.42-.19.42-.41v-16.29M1.86,26.86V9.11c0-.27.22-.5.5-.5,3.45-.01,6.25-2.81,6.25-6.26,0-.27.22-.5.5-.5h21.62c.27,0,.5.22.5.5v1.03c0,2.89,2.34,5.23,5.23,5.23.23,0,.42.19.42.41v17.83"/>
  <line class="cls-1" x1="1.86" y1="32.86" x2="36.86" y2="32.86"/>
</svg>