<?xml version="1.0" encoding="utf-8"?>
<!-- Generator: Adobe Illustrator 27.1.0, SVG Export Plug-In . SVG Version: 6.00 Build 0)  -->
<svg version="1.1" id="Calque_1" xmlns="http://www.w3.org/2000/svg" xmlns:xlink="http://www.w3.org/1999/xlink" x="0px" y="0px"
	 viewBox="0 0 1204.6 184.5" style="enable-background:new 0 0 1204.6 184.5;" xml:space="preserve">
<style type="text/css">
	.st0{fill:#333333;stroke:#FFFFFF;stroke-width:22;stroke-linejoin:round;stroke-miterlimit:10;}
	.st1{fill:#FFFFFF;}
</style>
<path class="st0" d="M1155.2,173.5H49.4C28.3,173.5,11,156.2,11,135V49.4C11,28.3,28.3,11,49.4,11h1105.8
	c21.1,0,38.4,17.3,38.4,38.4V135C1193.6,156.2,1176.3,173.5,1155.2,173.5z"/>
<g>
	<g>
		<path class="st1" d="M380.6,76.5l0-0.8V73c0-3.6,0.1-7.8,0.2-12.5l-0.1-0.1l2.3-0.1c7.3-0.4,12.1-0.6,14.3-0.6h19.6
			c6.7,0,12.3,1.4,16.7,4.2c1.6,1.3,2.8,3.2,3.8,5.4c1,2.3,1.5,4.8,1.5,7.7c0,5.5-3.7,10.2-11.1,14.1c4.2,1.2,7.4,3,9.6,5.5
			c2.2,2.5,3.3,5.7,3.3,9.3c0,6.5-2.9,11.5-8.8,14.8c-4.3,2.5-9.7,3.8-16.3,3.8l-12.6-0.2c-5.4,0-12.6,0.1-21.6,0.4
			c-0.8-1.7-1.2-8.2-1.2-19.7S380.5,84.2,380.6,76.5z M415.9,83.6c0.6-1.1,0.8-2.4,0.8-3.9c0-2.9-1.1-4.9-3.2-5.9
			c-2.1-1-4.3-1.5-6.6-1.5c-2.3,0-3.5,0.8-3.5,2.5c0,3,0.1,6.1,0.2,9.2l0.1,2.2c0.1,1.1,0.7,1.7,1.9,1.9l2.1-0.3
			C412,87.3,414.7,85.9,415.9,83.6z M406.8,111.7c7.3,0,10.9-2.5,10.9-7.6c0-3.2-1-5.4-2.9-6.5c-1.8-1-4.5-1.5-8.1-1.6h-1.2
			l-0.8,2.4c-0.2,2.9-0.3,5.7-0.3,8.5c0,2.8,0.3,4.4,0.9,4.8H406.8z"/>
		<path class="st1" d="M446.5,119c0-5.7,0.2-9.7,0.5-11.9c0-12.2,0.2-24.5,0.5-36.9c-0.1-1.8-0.1-3.6-0.1-5.3v-1.4
			c-0.1-0.9-0.2-1.6-0.2-2.3s0.1-1.1,0.2-1.3c6,0.4,11.3,0.5,15.8,0.5c4.5,0,7.6-0.1,9.3-0.3c0.1,0.1,0.1,0.3,0.1,0.7h-0.3v15.2
			l0.3,34.3c0,0.3,0,0.5,0.1,0.6v0.1c0.1,0.2,0.1,0.4,0.1,0.5l0.3,12.3c-0.1,0.3-0.4,0.5-0.8,0.7H471l-23.6,0.4
			c-0.3-0.1-0.6-0.4-1.1-0.6l0-0.7L446.5,119z"/>
		<path class="st1" d="M531.1,107.3c-0.2,0.8-0.3,1.6-0.3,2.5v1c0,1.5,0.1,2.6,0.3,3.2c0,4.2,0,7.5,0,9.8c-0.2,0.7-14,1.1-41.6,1.1
			c-1.3,0-3.4,0-6.3-0.1c-0.4-0.8-0.7-2.2-0.7-4.2l0.1-2.7v-9.6l0-8v-7.9l0-12.8c0-2.4,0-4.6-0.1-6.7v-0.5l-0.1-6.1
			c0-3.6,0.3-5.9,0.9-6.9c0.6,0,1.3,0,2.3,0h2l7.1-0.1c8.1,0,12.5,0.5,13.3,1.5l-0.3,14.7l-0.1,12.3l0,0.5l-0.2,17.5l1.7,1
			c5.1-0.3,10-0.5,14.8-0.5C528.7,106.6,531.1,106.8,531.1,107.3z"/>
		<path class="st1" d="M584.4,107.3c-0.2,0.8-0.3,1.6-0.3,2.5v1c0,1.5,0.1,2.6,0.3,3.2c0,4.2,0,7.5,0,9.8c-0.2,0.7-14,1.1-41.6,1.1
			c-1.3,0-3.4,0-6.3-0.1c-0.4-0.8-0.7-2.2-0.7-4.2l0.1-2.7v-9.6l0-8v-7.9l0-12.8c0-2.4,0-4.6-0.1-6.7v-0.5l-0.1-6.1
			c0-3.6,0.3-5.9,0.9-6.9c0.6,0,1.3,0,2.3,0h2l7.1-0.1c8.1,0,12.5,0.5,13.3,1.5l-0.3,14.7l-0.1,12.3l0,0.5l-0.2,17.5l1.7,1
			c5.1-0.3,10-0.5,14.8-0.5C581.9,106.6,584.3,106.8,584.4,107.3z"/>
		<path class="st1" d="M589,71.3l-0.2-11.1c0,0,0.1,0,0.3,0.1c21.3-0.4,37.4-0.6,48.2-0.6c0.1,0.1,0.2,0.1,0.3,0.3v11.9
			c0,1.2,0,2.1-0.1,2.8c-0.1,0.5-1,0.7-2.5,0.7h-0.3c-6.8,0-13.9-0.1-21.2-0.3c0,0.3,0,0.7-0.1,1.3c-0.1,0.6-0.1,1.1-0.1,1.4
			l-0.2,1.6c-0.1,1.1-0.2,2.9-0.3,5.6l13.1-0.3c2.2-0.1,3.9-0.1,4.9-0.1h0.7c1.7,0,2.8,0,3.4,0.1s0.8,0.4,0.8,0.9l0,0.3v1l0.2,10.8
			l0,0v0c-8.5,0.4-15.4,0.6-20.5,0.6h-2v10.2l22.9-0.7c1.3,0,2.1,0.2,2.4,0.5c0,0.7,0,1.8,0,3.1l0.3,11.5c0,0.7-0.3,1.1-0.9,1.2
			l-14-0.1c-2.8,0-8.2,0.1-16.4,0.3l-6.9,0.2c-4.9,0.2-8.5,0.3-10.9,0.3l-0.1-0.1h0c-0.3-0.3-0.5-0.5-0.8-0.8v-1.5l0.3-45L589,71.3z
			"/>
		<path class="st1" d="M695.5,75.7c0,0.9-0.1,1.4-0.3,1.4L680,76.9c-0.1,2.7-0.1,7-0.1,12.8s0,9.8,0,12l0.2,22.3
			c-0.1,0.4-0.4,0.6-0.8,0.6l-8.9-0.1l0,0l-2.8,0h-7.7c-2.1,0-3.6,0-4.7,0l-0.7-0.6c0,0-0.2-0.3-0.5-0.7c0-2.5,0.1-8,0.3-16.5
			l0.5-22.4l-0.1-1.1c-0.2-2.8-0.4-4.4-0.6-4.9s-0.5-0.8-1.1-0.8c-0.5,0-0.9-0.1-1.2-0.1l-1.7,0.1l-10.4-0.2
			c-0.4-0.7-0.5-2.4-0.5-4.9l0.1-3.7v-1.1c0-4.5-0.1-6.9-0.1-7.2c0.1,0,0.2,0,0.3,0.1l53.6-0.5c1.1,0,1.8,0.1,2.1,0.2
			s0.4,0.4,0.4,0.9v11.1L695.5,75.7z"/>
		<path class="st1" d="M751,75.7c0,0.9-0.1,1.4-0.3,1.4l-15.2-0.1c-0.1,2.7-0.1,7-0.1,12.8s0,9.8,0,12l0.2,22.3
			c-0.1,0.4-0.4,0.6-0.8,0.6l-8.9-0.1l0,0l-2.8,0h-7.7c-2.1,0-3.6,0-4.7,0l-0.7-0.6c0,0-0.2-0.3-0.5-0.7c0-2.5,0.1-8,0.3-16.5
			l0.5-22.4l-0.1-1.1c-0.2-2.8-0.4-4.4-0.6-4.9c-0.2-0.5-0.5-0.8-1.1-0.8s-0.9-0.1-1.2-0.1l-1.7,0.1l-10.4-0.2
			c-0.4-0.7-0.5-2.4-0.5-4.9l0.1-3.7v-1.1c0-4.5-0.1-6.9-0.1-7.2c0.1,0,0.2,0,0.3,0.1l53.6-0.5c1.1,0,1.8,0.1,2.1,0.2
			c0.3,0.2,0.4,0.4,0.4,0.9v11.1L751,75.7z"/>
		<path class="st1" d="M755,71.3l-0.2-11.1c0,0,0.1,0,0.3,0.1c21.3-0.4,37.4-0.6,48.2-0.6c0.1,0.1,0.2,0.1,0.3,0.3v11.9
			c0,1.2,0,2.1-0.1,2.8c-0.1,0.5-1,0.7-2.5,0.7h-0.3c-6.8,0-13.9-0.1-21.2-0.3c0,0.3,0,0.7-0.1,1.3c-0.1,0.6-0.1,1.1-0.1,1.4
			l-0.2,1.6c-0.1,1.1-0.2,2.9-0.3,5.6l13.1-0.3c2.2-0.1,3.9-0.1,4.9-0.1h0.7c1.7,0,2.8,0,3.4,0.1c0.5,0.1,0.8,0.4,0.8,0.9l0,0.3v1
			l0.2,10.8l0,0v0c-8.5,0.4-15.4,0.6-20.5,0.6h-2v10.2l22.9-0.7c1.3,0,2.1,0.2,2.4,0.5c0,0.7,0,1.8,0,3.1l0.3,11.5
			c0,0.7-0.3,1.1-0.9,1.2l-14-0.1c-2.8,0-8.2,0.1-16.4,0.3l-6.9,0.2c-4.9,0.2-8.5,0.3-10.9,0.3l-0.1-0.1h0c-0.3-0.3-0.5-0.5-0.8-0.8
			v-1.5l0.3-45L755,71.3z"/>
		<path class="st1" d="M828.7,60.1l13.5-0.1c2.9,0,5.5,0.1,7.8,0.2c6.3,0.2,11,1.6,14.3,4.4c3.3,2.8,4.9,6.7,4.9,11.8
			c0,3.5-1,6.5-3.1,9c-2,2.5-5,4.7-9,6.5c6.2,2,10,6.7,11.3,14.3c0.3,1.7,0.6,3.6,0.7,5.7s0.3,3.6,0.4,4.3l0.4,2.1
			c0.4,2.5,0.8,4.4,1.2,5.5l-0.2,0.1c-4.8,0.3-9.1,0.5-13.1,0.5s-7.4-0.1-10.5-0.2h-0.3c-0.9,0-1.8-4.1-2.8-12.4l-0.2-1.8
			c-0.1-3.1-0.7-5.2-1.6-6.2c-1-1.1-2.6-1.6-5-1.6l-0.5,0h-2.2V115l0,1.3v7.7c-0.1,0.3-0.3,0.4-0.6,0.5c-3.1,0.1-7.4,0.2-13.1,0.2
			c-5.6,0-9.3,0-11.1,0l-0.3-0.1l-0.1,0c-0.1,0-0.1,0-0.3-0.1l0.1-3.8l0-1.3l0.2-17.5V99l0-3.2l0-10.9l0-1.4l-0.1-9.6l0.2-13.4
			c0-0.2,0.8-0.3,2.4-0.3l2.7,0h2.6l5.3,0L828.7,60.1z M844.3,73.9c-1.7-0.7-3.9-1.1-6.7-1.1h-2.4c-0.3,0.4-0.5,2.8-0.5,7.1
			c0,4.3,0.1,7.2,0.2,8.6c8.8-0.2,13.2-3.2,13.2-9.1C848.1,76.9,846.8,75,844.3,73.9z M871.4,123.8L871.4,123.8
			C871.3,123.9,871.3,123.8,871.4,123.8L871.4,123.8z M871.6,123.7l-0.2,0.1v-0.1C871.4,123.7,871.4,123.7,871.6,123.7z"/>
		<path class="st1" d="M875.3,119c0-5.7,0.2-9.7,0.5-11.9c0-12.2,0.2-24.5,0.5-36.9c-0.1-1.8-0.1-3.6-0.1-5.3v-1.4
			c-0.1-0.9-0.2-1.6-0.2-2.3s0.1-1.1,0.2-1.3c6,0.4,11.3,0.5,15.8,0.5s7.6-0.1,9.3-0.3c0.1,0.1,0.1,0.3,0.1,0.7h-0.3v15.2l0.3,34.3
			c0,0.3,0,0.5,0.1,0.6v0.1c0.1,0.2,0.1,0.4,0.1,0.5l0.3,12.3c-0.1,0.3-0.4,0.5-0.8,0.7h-1.4l-23.6,0.4c-0.3-0.1-0.6-0.4-1.1-0.6
			l0-0.7L875.3,119z"/>
		<path class="st1" d="M911.2,71.3L911,60.3c0,0,0.1,0,0.3,0.1c21.3-0.4,37.4-0.6,48.2-0.6c0.1,0.1,0.2,0.1,0.3,0.3v11.9
			c0,1.2,0,2.1-0.1,2.8c-0.1,0.5-1,0.7-2.5,0.7h-0.3c-6.8,0-13.9-0.1-21.2-0.3c0,0.3,0,0.7-0.1,1.3c-0.1,0.6-0.1,1.1-0.1,1.4
			l-0.2,1.6c-0.1,1.1-0.2,2.9-0.3,5.6l13.1-0.3c2.2-0.1,3.9-0.1,4.9-0.1h0.7c1.7,0,2.8,0,3.4,0.1c0.5,0.1,0.8,0.4,0.8,0.9l0,0.3v1
			l0.2,10.8l0,0v0c-8.5,0.4-15.4,0.6-20.5,0.6h-2v10.2l22.9-0.7c1.3,0,2.1,0.2,2.4,0.5c0,0.7,0,1.8,0,3.1l0.3,11.5
			c0,0.7-0.3,1.1-0.9,1.2l-14-0.1c-2.8,0-8.2,0.1-16.4,0.3l-6.9,0.2c-4.9,0.2-8.5,0.3-10.9,0.3l-0.1-0.1h0c-0.3-0.3-0.5-0.5-0.8-0.8
			v-1.5l0.3-45L911.2,71.3z"/>
	</g>
	<path class="st1" d="M280.3,118l-24.5-24.5L294.4,55l24.5,24.5L280.3,118z M330.7,70.4l-7.1-7.1c-0.7,0.4-1.4,0.7-2.2,0.9
		c-0.8,0.2-1.6,0.3-2.4,0.3c-2.6,0-4.9-0.9-6.7-2.8c-1.8-1.9-2.8-4.1-2.8-6.8c0-0.9,0.1-1.7,0.3-2.4c0.2-0.8,0.5-1.5,0.8-2.2
		l-7.1-7.1c-0.9-0.9-2-1.4-3.4-1.4c-1.3,0-2.5,0.5-3.5,1.4l-52,52.1c-0.9,0.9-1.4,2-1.4,3.4c0,1.3,0.5,2.4,1.4,3.4l7.1,7.1
		c0.7-0.4,1.4-0.6,2.2-0.8s1.6-0.3,2.4-0.3c2.6,0,4.9,0.9,6.7,2.8c1.8,1.8,2.8,4.1,2.8,6.7c0,0.9-0.1,1.7-0.3,2.4
		c-0.2,0.8-0.5,1.5-0.8,2.2l7.1,7.1c0.9,0.9,2,1.4,3.4,1.4s2.5-0.5,3.5-1.4l52-52c0.9-0.9,1.4-2.1,1.4-3.4
		C332.1,72.5,331.6,71.4,330.7,70.4z M263.5,93.5l16.8,16.8l30.8-30.8l-16.8-16.8L263.5,93.5z"/>
</g>
</svg>
