<?xml version="1.0" encoding="UTF-8"?>
<svg id="Calque_1" data-name="Calque 1" xmlns="http://www.w3.org/2000/svg" viewBox="0 0 300 120">
  <defs>
    <style>
      .cls-1 {
        stroke: #000;
        stroke-miterlimit: 10;
        stroke-width: 3px;
      }

      .cls-1, .cls-2 {
        fill: none;
      }

      .cls-3 {
        letter-spacing: -.02em;
      }

      .cls-2, .cls-4 {
        stroke-width: 0px;
      }

      .cls-5 {
        letter-spacing: 0em;
      }

      .cls-6 {
        letter-spacing: 0em;
      }

      .cls-7 {
        font-family: Akshar-Regular, Akshar;
        font-size: 25px;
      }
    </style>
  </defs>
  <path class="cls-4" d="m63.6,69.35h-27v-21h16v-3h-16v-4.48c.02-.69.29-1.52,1.5-1.52h20.5v-3h-20.5c-3.3,0-4.5,2.69-4.5,4.5v39c0,3.3,2.69,4.5,4.5,4.5h24c3.3,0,4.5-2.69,4.5-4.5v-14.5h-3v4Zm0,10.48c-.02.69-.29,1.52-1.5,1.52h-23.98c-.69-.02-1.52-.29-1.52-1.5v-7.5h27v7.48Zm6.5-43.48h-5c-3.3,0-4.5,2.69-4.5,4.5v11.04c-1.26-.95-2.81-1.54-4.5-1.54-4.14,0-7.5,3.36-7.5,7.5s3.36,7.5,7.5,7.5,7.5-3.36,7.5-7.5v-12.5h6.5c3.3,0,4.5-2.69,4.5-4.5s-1.2-4.5-4.5-4.5m-14,26c-2.48,0-4.5-2.02-4.5-4.5s2.02-4.5,4.5-4.5,4.5,2.02,4.5,4.5-2.02,4.5-4.5,4.5m14-20h-6.5v-1.48c.02-.69.29-1.52,1.5-1.52h5c1.21,0,1.48.83,1.5,1.48-.02.69-.29,1.52-1.5,1.52"/>
  <path class="cls-4" d="m53.1,98.01c-20.77,0-37.67-16.9-37.67-37.67S32.33,22.68,53.1,22.68s37.67,16.9,37.67,37.67-16.9,37.67-37.67,37.67Zm0-72.33c-19.11,0-34.67,15.55-34.67,34.67s15.55,34.67,34.67,34.67,34.67-15.55,34.67-34.67-15.55-34.67-34.67-34.67Z"/>
  <text class="cls-7" transform="translate(127.05 39.57)"><tspan class="cls-5" x="0" y="0">R</tspan><tspan x="11.5" y="0">é-</tspan><tspan class="cls-6" x="32.07" y="0">éco</tspan><tspan x="64.75" y="0">u</tspan><tspan class="cls-3" x="76.67" y="0">t</tspan><tspan class="cls-5" x="85.02" y="0">e</tspan><tspan x="95.97" y="0">r </tspan><tspan class="cls-6" x="109.1" y="0">le</tspan><tspan x="125.77" y="0">s</tspan></text>
  <rect class="cls-1" x=".43" y=".44" width="299.15" height="119.13"/>
  <g>
    <path class="cls-2" d="m240.4,81.95v3.77h.48c.24-1.17.46-2.42.63-3.77h-1.11Z"/>
    <path class="cls-2" d="m238.55,57.17c0,.71.3,1.13,1.22,1.58-.28-.93-.58-1.78-.87-2.56-.23.26-.34.59-.34.98Z"/>
    <path class="cls-2" d="m242.5,85.72h3.68c.19-1.19.36-2.45.5-3.77h-3.09c-.31,1.32-.68,2.59-1.09,3.77Z"/>
    <path class="cls-2" d="m170.45,55.99h-1.46v5.69h1.8c1.86,0,2.79-.94,2.79-3,0-1.85-1.1-2.69-3.13-2.69Z"/>
    <path class="cls-2" d="m211.17,69.4v5.28h-1.74c-.06,1.22-.34,2.28-.64,3.11h2.7c.18-.91.31-2.06.31-3.48,0-2.19-.31-3.82-.62-4.91Z"/>
    <path class="cls-2" d="m154.36,74.66c0,1.45.05,2.81.12,4.09,1.58.67,2.9,1.76,3.77,3.48-.57-2.38-.96-5.1-.96-8.08,0-.32,0-.63.01-.94-.84.48-1.83.83-2.94,1.06,0,.13,0,.26,0,.39Z"/>
    <path class="cls-2" d="m244.31,77.79h2.67c.05-1.08.07-2.21.07-3.37,0-.42,0-.83-.01-1.24-.71.58-1.55,1.05-2.52,1.41-.02,1.09-.09,2.16-.2,3.19Z"/>
    <path class="cls-2" d="m239.85,75.36c-.31,0-.62-.01-.92-.03-.03.84-.08,1.66-.16,2.46h3.11c.04-.83.07-1.69.08-2.57-.66.09-1.37.14-2.1.14Z"/>
    <path class="cls-2" d="m227.62,92.6c-.28-1.75-.59-3.49-.73-5.77-.25.51-.48.92-.66,1.23l1.39,4.54Z"/>
    <path class="cls-2" d="m240.86,89.75c-.15.32-.3.63-.46.94v3.13h3.82c.41-1.22.8-2.58,1.16-4.06h-4.52Z"/>
    <path class="cls-2" d="m241.78,69.77c-.09-1.17-.21-2.29-.36-3.36-.58-.36-1.44-.69-2.7-1.09-.3-.1-.59-.2-.88-.3.4,1.63.72,3.41.91,5.31.27.03.55.04.83.04,1,0,1.72-.23,2.2-.61Z"/>
    <path class="cls-2" d="m242.71,59.83c1.23.4,2.27.84,3.16,1.33-.31-1.67-.67-3.21-1.06-4.63-1.17-.7-2.41-1.05-3.77-1.05-.59,0-1.07.08-1.45.23.61,1.09,1.22,2.32,1.81,3.68.39.13.82.28,1.31.44Z"/>
    <path class="cls-2" d="m170.77,77.79h3.12c-.24-1.09-.4-2.32-.4-3.64,0-.48.02-.95.06-1.4l-2.36-4.59c-.33,1.63-.59,3.71-.59,6.25,0,1.25.06,2.37.17,3.38Z"/>
    <path class="cls-2" d="m167.1,85.72h1.85c-.43-.77-1.09-2.07-1.67-3.77h-.18v3.77Z"/>
    <path class="cls-2" d="m166.25,77.79c-.15-.98-.26-2.02-.28-3.11h-3.04c0,1.11.04,2.14.11,3.11h3.21Z"/>
    <path class="cls-2" d="m170.08,77.79c-.21-1.12-.34-2.34-.34-3.64,0-2.6.52-4.86,1.12-6.62l-.62-1.2h-1.26v8.35h-2.01c0,1.12.05,2.16.13,3.11h2.98Z"/>
    <path class="cls-2" d="m153.31,87.81c0-4.17-1.07-5.56-3.16-5.77.55,4.25,1.51,7.57,2.49,10.04.45-.93.67-2.31.67-4.27Z"/>
    <path class="cls-2" d="m221.9,74.69c-.03,1.11-.15,2.15-.33,3.11h1.52l1.01,3.31c.33-1.69.56-3.82.58-6.42h-2.78Z"/>
    <path class="cls-2" d="m152.29,58.01c0-.15-.01-.29-.03-.42-.24.7-.47,1.45-.69,2.25.51-.36.72-.95.72-1.83Z"/>
    <path class="cls-2" d="m144.61,74.69c0,1.07.03,2.11.07,3.11h2.67c-.11-1.01-.18-2.05-.2-3.11h-2.54Z"/>
    <path class="cls-2" d="m153.15,67.28c0-1.64-.92-2.43-2.66-2.57-.27,1.57-.48,3.26-.62,5.09,1.96-.04,3.28-.52,3.28-2.52Z"/>
    <path class="cls-2" d="m149.69,74.69c0,1.09.03,2.13.08,3.13,1.09.05,2.15.17,3.15.42-.13-1.19-.21-2.43-.22-3.71-.95.1-1.96.15-3.02.15Z"/>
    <path class="cls-2" d="m148.29,64.68v.38c.03-.13.07-.25.1-.38h-.1Z"/>
    <path class="cls-2" d="m149.29,55.99h-1v4.31h1.16c.14,0,.28,0,.41,0,.56-1.39,1.16-2.65,1.76-3.79-.47-.34-1.23-.51-2.34-.51Z"/>
    <path class="cls-2" d="m148.3,93.79h1.18c1.27,0,2.2-.32,2.83-1.14-1.43-2.51-2.98-5.83-4-9.76v10.9Z"/>
    <path class="cls-2" d="m225.25,56.43v13.16c.27,1.39.45,2.92.45,4.56,0,3.07-.62,5.74-1.33,7.81l1.85,6.06c.18-.35.41-.84.66-1.48-.04-.7-.06-1.46-.06-2.28v-6.47h1.8c.07-1.01.11-2.1.11-3.28,0-10.12-2.91-14.94-2.91-14.94,0,0,4.11,5.98,4.11,14.57,0,1.28-.09,2.49-.25,3.64h2.36v6.44c.48-2.54.83-5.72.83-9.63,0-.35,0-.69,0-1.03-.9-.53-1.67-1.13-2.32-1.76l2.11-2.35c-.63-7.39-2.48-11.67-3.16-13.04h-4.24Z"/>
    <path class="cls-4" d="m141.44,51.24v22.42c0-9.35,3.13-17.17,6.02-22.42h-6.02Z"/>
    <path class="cls-4" d="m157.31,73.22c.1-3.47.72-6.57,1.5-9.16-.87-.87-2.06-1.37-3.26-1.68-.65,3.09-1.15,7.05-1.18,11.9,1.11-.23,2.11-.57,2.94-1.06Z"/>
    <path class="cls-4" d="m159.57,65.06c-.34,1.97-.61,4.26-.72,6.89.87-1.02,1.35-2.39,1.35-4.2,0-1.1-.24-1.97-.63-2.69Z"/>
    <path class="cls-4" d="m152.29,58.01c0,.88-.21,1.47-.72,1.83-.4,1.46-.78,3.08-1.08,4.87,1.74.14,2.66.93,2.66,2.57,0,2-1.32,2.49-3.28,2.52-.11,1.5-.18,3.09-.18,4.77,0,.04,0,.08,0,.11,1.06,0,2.07-.05,3.02-.15,0-.13,0-.25,0-.38,0-10.87,4.74-18.73,5.58-20.04-.77-1.03-1.98-1.74-3.56-2.19-.7,1.26-1.61,3.14-2.47,5.68.02.13.03.27.03.42Z"/>
    <path class="cls-4" d="m159.24,57.31c0-1.3-.33-2.35-.95-3.18-.39.72-1.69,3.34-2.68,7.96,1.87-.64,3.63-2.02,3.63-4.78Z"/>
    <path class="cls-4" d="m141.44,74.69h.01c0-.33-.01-.66-.01-.99v.99Z"/>
    <path class="cls-4" d="m144.61,74.69h2.54c0-.24-.01-.48-.01-.72,0-3.22.46-6.2,1.16-8.91v-.38h.1c.43-1.57.93-3.03,1.48-4.39-.13,0-.27,0-.41,0h-1.16v-4.31h1c1.12,0,1.87.17,2.34.51,1.04-1.97,2.07-3.55,2.86-4.65-1.61-.43-3.58-.61-5.84-.61h-.08c-1.97,5.01-3.97,12.69-3.97,23.18,0,.09,0,.17,0,.26Z"/>
    <path class="cls-4" d="m177.97,67.61l-1.5-2.55c2.83-1.65,4.09-3.4,4.09-6.37,0-5.15-3.33-7.44-9.95-7.44h-8.48v5.17c.19-.31.3-.47.3-.47,0,0-.12.19-.3.57v12.97c1.03-6.01,3.71-9.9,3.71-9.9,0,0-2.91,4.82-2.91,14.94,0,.06,0,.11,0,.17h3.04c0-.18,0-.35,0-.53,0-7.3,3.49-12.39,3.49-12.39,0,0-2.48,4.09-2.48,12.7,0,.08,0,.15,0,.22h2.01v-8.35h1.26l.62,1.2c.84-2.44,1.84-3.91,1.84-3.91,0,0-.9,1.48-1.52,4.54l2.36,4.59c.38-4.52,2.46-7.55,2.46-7.55,0,0-1.73,2.86-1.79,8.87l.31.61h1.89c0-.18-.01-.35-.01-.53,0-2.93.91-5.27,1.55-6.55Zm-7.19-5.92h-1.8v-5.69h1.46c2.03,0,3.13.84,3.13,2.69,0,2.05-.93,3-2.79,3Z"/>
    <path class="cls-4" d="m179.86,74.69h2.26l-2.04-3.48c-.14.87-.23,1.9-.23,3.1,0,.13,0,.25,0,.37Z"/>
    <path class="cls-4" d="m179.81,70.74l-1.77-3.01c-.44,1.22-1,3.41-1,6.61,0,.12,0,.23,0,.34h2.29c0-.18-.02-.35-.02-.53,0-1.29.21-2.44.49-3.41Z"/>
    <path class="cls-4" d="m183.15,70.25c1.18,3.14,4.14,5.11,9.03,5.11,6.52,0,9.62-3.84,9.62-8.62v-15.49h-6.85v15.29c0,2.59-.77,3.84-2.76,3.84s-2.76-1.25-2.76-3.84v-15.29h-6.85v15.49c0,1.18.17,2.28.5,3.26.36-.85.69-1.34.69-1.34,0,0-.31.53-.61,1.6Z"/>
    <path class="cls-4" d="m207.9,68.66s1.55,2.26,1.55,5.5c0,.18,0,.36-.02.53h1.74v-5.28c-.33-1.15-.67-1.72-.67-1.72,0,0,.31.45.67,1.24v-17.69h-6.85v23.44h4.67c0-.13,0-.26,0-.4,0-3.82-1.1-5.63-1.1-5.63Z"/>
    <path class="cls-4" d="m218.94,63.62s2.97,4.32,2.97,10.53c0,.18,0,.36,0,.53h2.78c0-.07,0-.15,0-.22,0-8.61-2.48-12.7-2.48-12.7,0,0,2.1,3.05,3.04,7.83v-13.16h4.24c-.16-.33-.26-.49-.26-.49,0,0,.12.17.31.49h.97l.7-5.19h-18.43v5.19h5.62v18.26h2.65c0-.09,0-.18,0-.27,0-7.31-2.1-10.79-2.1-10.79Z"/>
    <path class="cls-4" d="m241.96,75.22c0-.22,0-.43,0-.65,0-1.69-.07-3.29-.18-4.8-.47.38-1.2.61-2.2.61-.28,0-.56-.02-.83-.04.12,1.23.2,2.5.2,3.82,0,.4,0,.79-.02,1.18.3.02.61.03.92.03.74,0,1.44-.05,2.1-.14Z"/>
    <path class="cls-4" d="m241.41,59.4c1.7,3.93,3.12,8.9,3.12,14.57,0,.21,0,.42-.01.63.97-.36,1.82-.83,2.52-1.41-.07-4.55-.51-8.56-1.16-12.02-.89-.5-1.93-.93-3.16-1.33-.49-.16-.92-.3-1.31-.44Z"/>
    <path class="cls-4" d="m237.84,65.03c.28.1.57.2.88.3,1.27.39,2.13.73,2.7,1.09-.4-2.96-1-5.51-1.66-7.66-.91-.44-1.22-.87-1.22-1.58,0-.39.11-.72.34-.98-.88-2.33-1.77-3.99-2.38-4.99-3.02,1.05-5.01,3.35-5.01,6.55,0,2.9,1.19,5.07,5,6.75-1.18-7.14-3.26-10.58-3.26-10.58,0,0,2.94,4.28,4.6,11.11Z"/>
    <path class="cls-4" d="m232.85,73.58c-.02-1.46-.1-2.83-.2-4.11l-2.11,2.35c.64.63,1.41,1.23,2.32,1.76Z"/>
    <path class="cls-4" d="m237.13,69.99c-1.16-.38-2.24-1.03-3.24-1.9l-.07.08c.33,1.85.53,3.85.53,5.99,0,.06,0,.12,0,.18.87.36,1.85.65,2.93.82,0-.16,0-.32,0-.49,0-1.66-.06-3.22-.16-4.68Z"/>
    <path class="cls-4" d="m241.05,55.49c1.36,0,2.59.36,3.77,1.05-.61-2.23-1.28-4.16-1.94-5.79-.75-.12-1.55-.18-2.4-.18-1.39,0-2.69.2-3.84.58.73.96,1.82,2.52,2.95,4.56.38-.15.86-.23,1.45-.23Z"/>
    <path class="cls-4" d="m249.03,53.77c-1.36-1.33-2.99-2.28-4.99-2.78.9,1.61,1.82,3.46,2.67,5.54l2.31-2.75Z"/>
    <path class="cls-4" d="m149.47,93.79h-1.18v-10.9c-.42-1.6-.75-3.3-.95-5.09h-2.67c.41,9.56,2.51,16.13,4.41,20.2h.04c2.17,0,4.21-.33,5.9-1.2-.68-.89-1.67-2.3-2.72-4.15-.63.83-1.56,1.14-2.83,1.14Z"/>
    <path class="cls-4" d="m154.49,78.75c.54,8.89,2.74,13.58,3.59,15.09.83-1.49,1.31-3.46,1.31-6.03,0-.78-.05-1.5-.13-2.16-.36-1.04-.7-2.18-1-3.42-.87-1.72-2.2-2.81-3.77-3.48Z"/>
    <path class="cls-4" d="m149.77,77.82c.08,1.5.21,2.9.38,4.22,2.09.22,3.16,1.6,3.16,5.77,0,1.96-.21,3.33-.67,4.27.88,2.22,1.78,3.76,2.42,4.7,1.23-.65,2.26-1.59,3.01-2.92-1.06-1.73-4.27-7.55-5.14-15.61-1-.25-2.06-.38-3.15-.42Z"/>
    <path class="cls-4" d="m142.39,98h6.16c-2.2-3.61-4.79-8.9-6.16-15.36v15.36Z"/>
    <path class="cls-4" d="m167.11,77.79c.14,1.63.36,3.01.62,4.15h3.58c-.46-1.11-.92-2.52-1.23-4.15h-2.98Z"/>
    <path class="cls-4" d="m169.45,86.54s-.02-.03-.06-.09c-.08-.12-.23-.37-.43-.73h-1.85v-3.77h.18c-.41-1.2-.79-2.59-1.04-4.15h-3.21c.47,6.91,2.34,10.2,2.73,10.82.05.07.07.11.07.11,0,0-.03-.04-.07-.11-.45-.7-2.99-4.83-3.79-10.82h-.78v12.07c.52,1.3.96,2.07,1.15,2.36.06.09.09.14.09.14,0,0-.03-.05-.09-.14-.18-.27-.61-.97-1.15-2.02v7.79h12.96v-4.18h-7.05v-4.06h5.79v-4.03h-3.9c.18.37.32.61.4.73.04.06.06.09.06.09Z"/>
    <path class="cls-4" d="m170.77,77.79c.18,1.73.47,3.1.78,4.15h2.14l.45-3.13c-.09-.33-.18-.67-.26-1.02h-3.12Z"/>
    <path class="cls-4" d="m188.31,77.79h-5.28c.28,1.14.63,1.71.7,1.83,0,.01.02.02.02.02,0,0,0,0-.02-.02-.08-.13-.5-.79-.88-1.83h-.45v20.2h12.84l.6-4.59h-7.54v-15.62Z"/>
    <path class="cls-4" d="m213.08,81.76s.01-.02.04-.06c.08-.13.3-.5.53-1.13v-2.78h-1.88c-.49,1.6-1.14,2.62-1.25,2.8-.01.02-.02.03-.02.03,0,0,0-.01.02-.03.1-.16.62-1.02.97-2.8h-2.7c-.38,1.04-.8,1.7-.88,1.83,0,.02-.02.02-.02.02,0,0,0,0,.02-.02.08-.12.42-.69.7-1.83h-.86v13.18c0,2.23-.66,3.31-2.38,3.31s-2.38-1.07-2.38-3.31v-13.18h-5.91v13.35c0,4.41,2.67,7.43,8.28,7.43s8.28-3.31,8.28-7.43v-10.39c-.25.5-.45.83-.53.95-.02.04-.04.06-.04.06Z"/>
    <path class="cls-4" d="m229.22,92.37s.03-.05.09-.14c.37-.59,1.8-3.08,2.72-7.99v-6.44h-2.36c-.54,3.99-1.84,7.16-2.79,9.04.14,2.28.45,4.02.73,5.77l-1.39-4.54c-.15.26-.27.45-.34.56-.05.07-.07.11-.07.11,0,0,.03-.04.07-.11.07-.11.19-.31.33-.59l-1.85-6.06c-.86,2.48-1.85,4.09-2.1,4.48-.04.06-.06.09-.06.09,0,0,.02-.03.06-.09.25-.39,1.2-2.06,1.84-5.34l-1.01-3.31h-1.52c-.7,3.78-2.28,6.34-2.58,6.81-.03.05-.05.08-.05.08,0,0,.02-.03.05-.08.26-.42,1.45-2.5,1.89-6.81h-3.12c-.55,2.5-1.51,4.3-1.93,4.99v15.21h5.22v-6.27c0-3.74-.49-6.53-.77-8.48l4.36,14.74h7.4v-11.34c-1.16,3.08-2.39,5.06-2.72,5.58-.06.09-.09.14-.09.14Z"/>
    <path class="cls-4" d="m215.84,77.79v4.97c.34-.64,1.04-2.21,1.39-4.97h-1.39Z"/>
    <path class="cls-4" d="m226.82,77.79v6.47c0,.82.02,1.58.06,2.28.67-1.74,1.46-4.59,1.74-8.75h-1.8Z"/>
    <path class="cls-4" d="m243.59,81.95h3.09c.13-1.32.23-2.7.3-4.15h-2.67c-.16,1.44-.41,2.83-.72,4.15Z"/>
    <path class="cls-4" d="m240.86,89.75h4.52c.3-1.25.57-2.59.81-4.03h-3.68c-.5,1.46-1.06,2.8-1.64,4.03Z"/>
    <path class="cls-4" d="m243.1,98h4.35v-4.18h-2.07c-.77,1.57-1.55,2.97-2.28,4.18Z"/>
    <path class="cls-4" d="m234.5,77.79v14.12c1.04-2.52,2.4-7.08,2.72-14.12h-2.72Z"/>
    <path class="cls-4" d="m240.4,93.82v-3.13c-1.95,3.88-3.96,6.39-4.52,7.05-.1.12-.15.18-.15.18,0,0,.06-.07.15-.18.68-.83,3.45-4.55,5.01-12.02h-.48v-3.77h1.11c.16-1.3.29-2.68.36-4.15h-3.11c-.64,6.58-2.85,11.71-4.27,14.43v5.77h8.07c.55-1.18,1.12-2.57,1.65-4.18h-3.82Z"/>
  </g>
</svg>