<?xml version="1.0" encoding="UTF-8"?>
<svg id="Calque_1" data-name="Calque 1" xmlns="http://www.w3.org/2000/svg" viewBox="0 0 62.92 62.92">
  <defs>
    <style>
      .cls-1 {
        fill: #010101;
      }

      .cls-2 {
        fill: #fff;
      }

      .cls-3 {
        fill: none;
        stroke: #c7c6c5;
        stroke-miterlimit: 10;
        stroke-width: .81px;
      }
    </style>
  </defs>
  <path class="cls-2" d="m.41,31.46C.41,14.31,14.31.41,31.46.41s31.06,13.9,31.06,31.06"/>
  <path class="cls-2" d="m62.52,31.46c0,17.15-13.9,31.06-31.06,31.06S.41,48.61.41,31.46"/>
  <path class="cls-3" d="m.41,31.46C.41,14.31,14.31.41,31.46.41s31.06,13.9,31.06,31.06-13.9,31.06-31.06,31.06S.41,48.61.41,31.46"/>
  <path class="cls-1" d="m59.69,31.46c0,15.59-12.64,28.23-28.23,28.23S3.23,47.05,3.23,31.46,15.87,3.23,31.46,3.23s28.23,12.64,28.23,28.23"/>
  <path class="cls-2" d="m31.43,28.64c2.42,0,4.3,1.88,4.3,4.3s-1.88,4.3-4.3,4.3-4.3-1.95-4.3-4.3,1.95-4.3,4.3-4.3m-7.12,4.3c0,3.96,3.16,7.12,7.12,7.12s7.19-3.16,7.19-7.12-3.22-7.19-7.19-7.19-7.12,3.22-7.12,7.19m18.61-11.49h-4.57l-2.62-2.89h-8.6c-2.11,0-2.06,2.89,0,2.89,2.05,0,7.39,0,7.39,0l2.62,2.89h5.78v17.2h-22.91v-12.9c0-2.07-2.89-1.98-2.89,0v12.9c0,1.54,1.28,2.82,2.89,2.82h22.91c1.55,0,2.89-1.28,2.89-2.82v-17.2c0-1.61-1.34-2.89-2.89-2.89"/>
</svg>