<svg version="1.1" id="Calque_1" xmlns="http://www.w3.org/2000/svg" x="0" y="0" viewBox="0 0 628.1 988.2" style="enable-background:new 0 0 628.1 988.2" xml:space="preserve"><style>.st0{fill:#020203}.st1{fill:#ef7b90}.st2{fill:#fff}.st3{fill:#979797}.st4{fill:#686868}.st5{fill:#676767}</style><path class="st0" d="M568.3 0H59.6C26.8 0 0 26.8 0 59.6v144.8h627.9V59.6c0-32.8-26.8-59.6-59.6-59.6z"/><path class="st0" d="M59.8 988.2h508.7c32.8 0 59.6-26.8 59.6-59.6V197H.2v731.7c0 32.7 26.8 59.5 59.6 59.5z"/><path class="st1" d="M58.9 132.6h-8.2v-26.5h8.2v26.5zm7.5-7.2h-9.6V119H66c1.4 0 2.5-.3 3.2-.8.7-.5 1-1.3 1-2.4v-.3c0-1.1-.3-1.9-1-2.4s-1.7-.8-3.2-.8h-9.2v-6.4h9.6c4.2 0 7.2.8 9.2 2.5 2 1.6 3 4 3 7.1v.3c0 3-1 5.3-3 7-2 1.8-5.1 2.6-9.2 2.6zM85.5 132.6h-8.7L88 106.1h12.2l11.1 26.5h-8.7l-8.1-21.3h-.6l-8.4 21.3zm16.6-5.7H85.9v-6.3h16.2v6.3zM126.1 133.3c-1.6 0-3.2-.1-4.7-.3s-2.9-.5-4.1-.8-2.4-.6-3.4-1l-.9-7.5c1.6.7 3.6 1.3 5.9 1.9 2.3.6 4.7.9 7.1.9 2.1 0 3.5-.1 4.3-.4.8-.3 1.2-.7 1.2-1.4v-.1c0-.5-.2-.9-.6-1.1-.4-.3-1-.5-2-.6-.9-.2-2.3-.3-3.9-.5-2.7-.3-5-.8-6.9-1.3-1.8-.6-3.2-1.4-4.1-2.6s-1.4-2.7-1.4-4.6v-.1c0-2.8 1.1-4.8 3.3-6.2 2.2-1.4 5.4-2 9.7-2 2.7 0 5 .2 6.9.6 1.9.4 3.6.9 5.1 1.4l.9 6.8c-1.8-.7-3.7-1.3-5.7-1.7-2.1-.4-4.2-.6-6.4-.6-1.5 0-2.6.1-3.3.2-.8.1-1.3.3-1.5.6-.3.2-.4.6-.4.9 0 .4.2.7.5 1 .3.3.9.5 1.8.7.9.2 2.3.4 4.1.6 2.7.3 5 .7 6.8 1.2 1.9.5 3.3 1.3 4.2 2.4 1 1.1 1.4 2.6 1.4 4.6v.2c0 3.1-1.1 5.3-3.4 6.8-2.2 1.3-5.7 2-10.5 2zM156.3 133.3c-1.6 0-3.2-.1-4.7-.3s-2.9-.5-4.1-.8-2.4-.6-3.4-1l-.9-7.5c1.6.7 3.6 1.3 5.9 1.9 2.3.6 4.7.9 7.1.9 2.1 0 3.5-.1 4.3-.4.8-.3 1.2-.7 1.2-1.4v-.1c0-.5-.2-.9-.6-1.1-.4-.3-1-.5-2-.6-.9-.2-2.3-.3-3.9-.5-2.7-.3-5-.8-6.9-1.3-1.8-.6-3.2-1.4-4.1-2.6s-1.4-2.7-1.4-4.6v-.1c0-2.8 1.1-4.8 3.3-6.2 2.2-1.4 5.4-2 9.7-2 2.7 0 5 .2 6.9.6 1.9.4 3.6.9 5.1 1.4l.9 6.8c-1.8-.7-3.7-1.3-5.7-1.7-2.1-.4-4.2-.6-6.4-.6-1.5 0-2.6.1-3.3.2-.8.1-1.3.3-1.5.6-.3.2-.4.6-.4.9 0 .4.2.7.5 1 .3.3.9.5 1.8.7.9.2 2.3.4 4.1.6 2.7.3 5 .7 6.8 1.2 1.9.5 3.3 1.3 4.2 2.4 1 1.1 1.4 2.6 1.4 4.6v.2c0 3.1-1.1 5.3-3.4 6.8-2.2 1.3-5.7 2-10.5 2zM207.8 132.6h-24.4v-7.1l8.3-4c1.7-.8 3.1-1.6 4.1-2.2 1-.6 1.8-1.2 2.2-1.8.5-.6.7-1.2.7-1.9v-.1c0-.6-.1-1.1-.4-1.6-.3-.5-.8-.8-1.6-1.1-.8-.3-1.9-.4-3.3-.4-1.8 0-3.6.2-5.3.7-1.7.5-3.2 1-4.5 1.5l.9-7c.8-.4 1.8-.7 2.9-1.1 1.1-.3 2.3-.6 3.6-.8s2.7-.3 4.3-.3c4 0 7 .8 9 2.3 2.1 1.5 3.1 3.7 3.1 6.6v.3c0 1.3-.2 2.5-.7 3.6-.4 1.1-1.2 2-2.2 3s-2.5 1.8-4.3 2.7l-3.9 1.8v1.6l-3.7-1.4h15.1v6.7zM227.6 133c-1.1 0-2.2-.1-3.4-.2-1.1-.2-2.2-.4-3.1-.7l-.7-7c.9.3 1.8.5 2.7.6.9.2 1.8.2 2.8.2 2 0 3.3-.4 4-1.2.7-.8 1-2.1 1-3.9V106h8.4v15.7c0 3.8-.9 6.6-2.8 8.5s-4.8 2.8-8.9 2.8zM259.8 133.5c-5.3 0-9.4-1.2-12.1-3.7-2.8-2.4-4.1-5.9-4.1-10.3v-.3c0-4.4 1.4-7.9 4.1-10.3 2.8-2.4 6.8-3.7 12.1-3.7s9.4 1.2 12.1 3.7c2.8 2.5 4.1 5.9 4.1 10.3v.3c0 4.4-1.4 7.9-4.1 10.3-2.7 2.5-6.8 3.7-12.1 3.7zm0-6.8c2.5 0 4.3-.6 5.6-1.9 1.3-1.3 1.9-3 1.9-5.3v-.3c0-2.2-.6-4-1.9-5.3-1.3-1.3-3.1-1.9-5.6-1.9-2.5 0-4.3.6-5.6 1.9-1.3 1.3-1.9 3-1.9 5.3v.3c0 2.2.6 4 1.9 5.3 1.3 1.3 3.1 1.9 5.6 1.9zM295.1 133.5c-5 0-8.7-1.1-11.2-3.4s-3.7-5.6-3.7-10.1v-13.9h8.4V120c0 2.1.6 3.8 1.7 4.9s2.7 1.7 4.9 1.7 3.8-.6 4.9-1.7c1.1-1.1 1.7-2.8 1.7-4.9v-13.9h8.4V120c0 4.5-1.2 7.8-3.7 10.1-2.6 2.3-6.4 3.4-11.4 3.4zM323.6 132.6h-8.2v-26.5h8.2v26.5zm20.7 0h-8.9l-.5-3.4c-.2-1.1-.4-2-.8-2.6-.3-.6-.8-1.1-1.5-1.3-.7-.3-1.5-.4-2.7-.4h-8.7v-6h9.7c1.4 0 2.5-.3 3.1-.8.6-.5.9-1.3.9-2.2v-.2c0-1-.3-1.7-.9-2.2-.6-.5-1.6-.8-3.1-.8h-9.7v-6.4h10.6c4 0 6.9.6 8.8 1.9 1.8 1.3 2.8 3.1 2.8 5.6v.2c0 1.9-.6 3.4-1.7 4.4-1.2 1-2.9 1.5-5.1 1.7v1.3l-1-1.1c1.8.1 3.2.5 4.2 1 1 .6 1.8 1.4 2.3 2.4s.9 2.4 1.3 4.1l.9 4.8zM360.2 133.3c-1.6 0-3.2-.1-4.7-.3s-2.9-.5-4.1-.8-2.4-.6-3.4-1l-.9-7.5c1.6.7 3.6 1.3 5.9 1.9 2.3.6 4.7.9 7.1.9 2.1 0 3.5-.1 4.3-.4.8-.3 1.2-.7 1.2-1.4v-.1c0-.5-.2-.9-.6-1.1-.4-.3-1-.5-2-.6-.9-.2-2.3-.3-3.9-.5-2.7-.3-5-.8-6.9-1.3-1.8-.6-3.2-1.4-4.1-2.6-.9-1.1-1.4-2.7-1.4-4.6v-.1c0-2.8 1.1-4.8 3.3-6.2 2.2-1.4 5.4-2 9.7-2 2.7 0 5 .2 6.9.6 1.9.4 3.6.9 5.1 1.4l.9 6.8c-1.8-.7-3.7-1.3-5.7-1.7-2.1-.4-4.2-.6-6.4-.6-1.5 0-2.6.1-3.3.2-.8.1-1.3.3-1.5.6-.3.2-.4.6-.4.9 0 .4.2.7.5 1 .3.3.9.5 1.8.7.9.2 2.3.4 4.1.6 2.7.3 5 .7 6.8 1.2 1.9.5 3.3 1.3 4.2 2.4 1 1.1 1.4 2.6 1.4 4.6v.2c0 3.1-1.1 5.3-3.4 6.8-2.2 1.3-5.7 2-10.5 2zM393.5 136.5H385v-23.9h8.5v4h-3.2v16h3.2v3.9zM410.8 132.6h-8.7l-7.5-19h6.3l5.2 14.4h.4l5.2-14.4h6.3l-7.2 19zM426.3 132.6h-5.9v-19h5.9v19zm12.4-14.4h-18.3v-4.6h18.3v4.6zm.3 14.4h-18.5V128H439v4.6zm-.6-7.4h-14.9v-4.3h14.9v4.3zM442.4 113.6h8.3l7.2 12.7h.3l-.2-6.6v-6.2h5.9v19H456l-7.6-13.2h-.3l.2 6.6v6.7h-5.9v-19zM483.8 125.9h-16.2v-4.5h16.2v4.5zm-5.6-10.1v15.7h-4.9v-15.7h4.9zM496.2 133.1c-1.2 0-2.3-.1-3.4-.2s-2.1-.3-3-.6c-.9-.2-1.7-.5-2.4-.7l-.6-5.4c1.2.5 2.6.9 4.2 1.3s3.3.6 5.1.6c1.5 0 2.5-.1 3.1-.3.6-.2.8-.5.8-1v-.1c0-.3-.1-.6-.4-.8-.3-.2-.7-.3-1.4-.5-.7-.1-1.6-.2-2.8-.4-2-.2-3.6-.5-4.9-1-1.3-.4-2.3-1-2.9-1.8-.6-.8-1-1.9-1-3.3v.1c0-2 .8-3.5 2.3-4.4 1.6-1 3.9-1.5 6.9-1.5 1.9 0 3.6.1 5 .4s2.6.6 3.7 1l.7 4.9c-1.3-.5-2.6-.9-4.1-1.2-1.5-.3-3-.4-4.6-.4-1 0-1.8 0-2.4.1-.5.1-.9.2-1.1.4-.2.2-.3.4-.3.7 0 .3.1.5.3.7.2.2.7.4 1.3.5.7.1 1.6.3 2.9.4 1.9.2 3.6.5 4.9.9 1.3.4 2.3 1 3 1.7s1 1.9 1 3.3v.2c0 2.2-.8 3.8-2.5 4.8-1.4 1.1-4 1.6-7.4 1.6zM513.6 132.6h-6.2l8-19h8.7l7.9 19h-6.2l-5.8-15.3h-.4l-6 15.3zm11.9-4.1h-11.6V124h11.6v4.5zM539.8 132.6h-5.9l1-19h8.4l3.7 10.9h.3l3.8-10.9h8.4l1 19h-5.9l-.3-6.9-.2-5.9h-.3l-3.7 10.5h-5.7l-3.8-10.5h-.3l-.2 5.9-.3 6.9zM571.6 112.6v23.9h-8.5v-4h3.2v-16h-3.2v-4h8.5z"/><path class="st2" d="M54.1 164.3v.2c0 1.1.1 2.1.4 3.2.3 1 .7 2 1.2 3 .5.9 1.2 1.8 2 2.7H55c-.8-.8-1.4-1.7-1.9-2.6-.5-.9-.9-1.9-1.1-2.9s-.4-2.1-.4-3.3v-.2c0-1.1.1-2.2.4-3.2.2-1 .6-2 1.1-2.9.5-.9 1.1-1.8 1.9-2.6h2.6c-.8.8-1.5 1.7-2 2.6-.5.9-.9 1.9-1.2 2.9-.2 1-.3 2-.3 3.1zM62.9 170.5h-2.4v-14.1h2.4v14.1zm5.6-4.6h-6.2v-2h6.2c1.1 0 2-.2 2.5-.7.5-.5.8-1.1.8-2v-.2c0-.8-.3-1.5-.8-2s-1.3-.7-2.5-.7h-6.3v-2h6.3c2 0 3.4.4 4.4 1.2.9.8 1.4 2 1.4 3.4v.2c0 1.4-.5 2.6-1.4 3.4-1 1-2.5 1.4-4.4 1.4zM79.8 156.4v14.1h-2.5v-14.1h2.5zm-1.3 14.1v-2h10.8v2H78.5zM93.3 170.5h-2.6l6.5-14.1h3.7l6.5 14.1h-2.6L99.3 158H99l-5.7 12.5zm10.4-3.9h-9.1v-2h9.1v2zM116.7 170.9c-2.7 0-4.7-.6-6.1-1.9-1.4-1.3-2.1-3.1-2.1-5.4v-.2c0-2.3.7-4.1 2-5.4 1.4-1.3 3.4-1.9 6-1.9.8 0 1.6.1 2.3.2.7.1 1.3.3 1.9.5.5.2 1 .4 1.4.7l.2 2.2c-.7-.4-1.5-.8-2.4-1.1-.9-.3-2-.5-3.3-.5-1.8 0-3.2.5-4.2 1.4-1 .9-1.4 2.2-1.4 3.9v.2c0 1.7.5 3 1.5 3.9 1 .9 2.4 1.4 4.4 1.4 1.2 0 2.2-.2 3.2-.5.9-.3 1.8-.7 2.4-1.1l-.2 2.2c-.4.2-.9.4-1.4.7-.6.2-1.2.4-1.9.5-.6.1-1.4.2-2.3.2zM128.3 170.5h-2.4v-14.1h2.4v14.1zm10.2-12.1H126v-2h12.5v2zm.2 12.1H126v-2h12.7v2zm-.4-6.2h-11.2v-2h11.2v2zM148.1 170.8c-1 0-1.9-.1-2.7-.2-.8-.2-1.6-.3-2.2-.6-.6-.2-1.2-.4-1.6-.6l-.3-2.4c.8.4 1.8.8 3 1.2 1.2.4 2.5.5 3.8.5 1.5 0 2.6-.2 3.3-.5.7-.4 1-.9 1-1.7 0-.5-.1-.9-.4-1.2s-.8-.5-1.4-.7c-.7-.2-1.6-.3-2.8-.4-1.6-.1-2.8-.3-3.8-.6-.9-.3-1.6-.7-2-1.3-.4-.6-.6-1.3-.6-2.2 0-1.3.5-2.3 1.6-3 1-.7 2.6-1 4.8-1 1.5 0 2.7.1 3.8.4 1 .3 1.9.6 2.6.9l.3 2.2c-.8-.4-1.7-.7-2.8-1-1.1-.3-2.3-.4-3.6-.4-1 0-1.8.1-2.4.2-.6.2-1 .4-1.3.7s-.4.6-.4 1.1c0 .4.1.8.4 1.1.2.3.7.5 1.3.7.7.2 1.6.3 2.9.4 1.5.1 2.8.3 3.8.6s1.7.7 2.1 1.3c.4.6.7 1.3.7 2.3v.1c0 1.5-.6 2.5-1.7 3.2-1.4.6-3.1.9-5.4.9zM166.7 170.7c-.7 0-1.3-.1-2-.2s-1.3-.3-1.8-.5l-.3-2.2c.6.2 1.2.4 1.8.5.6.1 1.3.2 2 .2 1.3 0 2.2-.3 2.8-.9.5-.6.8-1.5.8-2.7v-8.5h2.5v8.7c0 1.9-.4 3.3-1.3 4.2-.9.9-2.4 1.4-4.5 1.4zM183.8 170.9c-2.6 0-4.6-.6-6-1.9-1.4-1.3-2.1-3.1-2.1-5.4v-.2c0-2.3.7-4.1 2.1-5.4s3.4-1.9 6-1.9 4.6.6 6 1.9c1.4 1.3 2.1 3.1 2.1 5.4v.2c0 2.3-.7 4.1-2.1 5.4-1.4 1.2-3.4 1.9-6 1.9zm0-2c1.8 0 3.2-.5 4.2-1.4s1.4-2.2 1.4-3.9v-.2c0-1.6-.5-2.9-1.4-3.9s-2.3-1.4-4.2-1.4c-1.8 0-3.2.5-4.2 1.4s-1.4 2.2-1.4 3.9v.2c0 1.7.5 3 1.4 3.9s2.3 1.4 4.2 1.4zM202.2 170.9c-2.5 0-4.3-.6-5.5-1.8-1.2-1.2-1.8-2.9-1.8-5.2v-7.6h2.5v7.5c0 1.6.4 2.8 1.1 3.6.8.8 2 1.3 3.7 1.3 1.7 0 2.9-.4 3.7-1.3.8-.8 1.1-2 1.1-3.6v-7.5h2.5v7.6c0 2.3-.6 4-1.8 5.2-1.2 1.2-3 1.8-5.5 1.8zM215.8 170.5h-2.4v-14.1h2.4v14.1zm11.8 0H225l-.5-2.3c-.1-.6-.3-1.2-.5-1.6s-.5-.8-1-1c-.4-.2-1-.3-1.8-.3H215v-1.9h6.7c1.1 0 1.9-.2 2.4-.7.5-.5.8-1.1.8-1.8v-.1c0-.7-.2-1.3-.7-1.8s-1.3-.6-2.3-.6h-6.7v-2h7c1.8 0 3.1.3 4 1 .8.7 1.3 1.7 1.3 2.9v.2c0 1-.3 1.7-.8 2.3s-1.3.9-2.4 1.1v.3l-1.2-.4c1 0 1.7.2 2.2.5.5.3.9.8 1.2 1.3.3.6.5 1.2.7 2.1l.4 2.8zM230.8 156.4h3.6l8.4 11.7h.2l-.1-5.6v-6.1h2.5v14.1H242l-8.5-11.9h-.2l.1 6v5.9h-2.5v-14.1zM251.9 170.5h-2.4v-14.1h2.4v14.1zm10.2-12.1h-12.5v-2h12.5v2zm.2 12.1h-12.7v-2h12.7v2zm-.5-6.2h-11.2v-2h11.2v2zm-7.1-9.5 3.4-3h3v.1l-3.9 2.9h-2.5zM268.1 170.5h-2.4v-14.1h2.4v14.1zm10.3-12.1h-12.5v-2h12.5v2zm.1 12.1h-12.7v-2h12.7v2zm-.4-6.2H267v-2h11.2v2zM290 170.5h-2.4v-14.1h2.4v14.1zm10.3-12.1h-12.5v-2h12.5v2zm.1 12.1h-12.7v-2h12.7v2zm-.4-6.2h-11.2v-2H300v2zM303.9 156.4h3.6l8.4 11.7h.2l-.1-5.6v-6.1h2.5v14.1H315l-8.5-11.9h-.2l.1 6v5.9h-2.5v-14.1zM336.7 170.5H333l-6.3-14.1h2.7l5.3 12.2h.3l5.3-12.2h2.7l-6.3 14.1zM347.9 170.5h-2.4v-14.1h2.4v14.1zm10.2-12.1h-12.5v-2h12.5v2zm.2 12.1h-12.7v-2h12.7v2zm-.4-6.2h-11.2v-2h11.2v2zM361.7 156.4h3.6l8.4 11.7h.2l-.1-5.6v-6.1h2.5v14.1h-3.4l-8.5-11.9h-.2l.1 6v5.9h-2.5v-14.1zM393.8 158.4h-14.6v-2h14.6v2zm-6 12.1h-2.5v-13.3h2.5v13.3zM399.2 170.5h-2.4v-14.1h2.4v14.1zm10.3-12.1H397v-2h12.5v2zm.1 12.1h-12.7v-2h12.7v2zm-.4-6.2H398v-2h11.2v2zM421.2 170.5h-2.4v-14.1h2.4v14.1zm10.2-12.1h-12.5v-2h12.5v2zm.2 12.1h-12.7v-2h12.7v2zm-.4-6.2H420v-2h11.2v2zM435 156.4h3.6l8.4 11.7h.2l-.1-5.6v-6.1h2.5v14.1h-3.4l-8.5-11.9h-.2l.1 6v5.9H435v-14.1zM462.2 170.7c-.7 0-1.3-.1-2-.2s-1.3-.3-1.8-.5l-.3-2.2c.6.2 1.2.4 1.8.5.6.1 1.3.2 2 .2 1.3 0 2.2-.3 2.8-.9.5-.6.8-1.5.8-2.7v-8.5h2.5v8.7c0 1.9-.4 3.3-1.3 4.2-1 .9-2.5 1.4-4.5 1.4zM472.2 170.5h-2.6l6.5-14.1h3.7l6.5 14.1h-2.6l-5.6-12.6h-.4l-5.5 12.6zm10.4-3.9h-9.1v-2h9.1v2zM489 156.4h3.6l8.4 11.7h.2l-.1-5.6v-6.1h2.5v14.1h-3.4l-8.5-11.9h-.2l.1 6v5.9H489v-14.1zM516.1 170.5h-3.7l-6.3-14.1h2.7l5.3 12.2h.3l5.3-12.2h2.7l-6.3 14.1zM527.4 156.4v14.1h-2.5v-14.1h2.5zM533.9 170.5h-2.4v-14.1h2.4v14.1zm10.2-12.1h-12.5v-2h12.5v2zm.2 12.1h-12.7v-2h12.7v2zm-.4-6.2h-11.2v-2h11.2v2zM550.1 170.5h-2.4v-14.1h2.4v14.1zm11.9 0h-2.6l-.5-2.3c-.1-.6-.3-1.2-.5-1.6-.2-.4-.5-.8-1-1-.4-.2-1-.3-1.8-.3h-6.2v-1.9h6.7c1.1 0 1.9-.2 2.4-.7.5-.5.8-1.1.8-1.8v-.1c0-.7-.2-1.3-.7-1.8-.5-.4-1.3-.6-2.3-.6h-6.7v-2h7c1.8 0 3.1.3 4 1s1.3 1.7 1.3 2.9v.2c0 1-.3 1.7-.8 2.3s-1.3.9-2.4 1.1v.3l-1.2-.4c1 0 1.7.2 2.2.5.5.3.9.8 1.2 1.3.3.6.5 1.2.7 2.1l.4 2.8zM567.4 164.5v-.2c0-1.1-.1-2.1-.4-3.1-.3-1-.7-2-1.2-2.9-.5-.9-1.2-1.8-2-2.6h2.6c.8.8 1.4 1.7 1.9 2.6.5.9.9 1.9 1.1 2.9.2 1 .4 2.1.4 3.2v.2c0 1.1-.1 2.2-.4 3.3-.2 1-.6 2-1.1 2.9-.5.9-1.1 1.8-1.9 2.6h-2.6c.8-.8 1.5-1.7 2-2.7.5-.9.9-1.9 1.2-3 .3-1.1.4-2.1.4-3.2z"/><g><path class="st2" d="M431.7 82v3.5h-7.1V70h4v12h3.1zM175.2 94.2c-1-.1-1.9-.2-2.9-.4-3.1-.5-6-1.6-8.4-3.7-2.1-1.9-3.3-4.3-3.6-7.1-.2-1.6-.1-3.2-.1-4.8 0-4.2.1-8.3.1-12.5V61c0-.5.2-.7.7-.7h10.1c.8 0 1.6.1 2.6.1v4c0 3.2.1 6.5.1 9.7 0 2.5-.1 5-.1 7.5 0 .8.2 1.6.5 2.4.7 1.6 2.6 1.8 3.8.5.7-.8 1-1.9 1-2.9V66.3c0-1.7-.1-3.3-.1-5V61c.1-1 .1-1 1-1 3.9 0 7.9 0 11.8.1.9 0 1.1.3 1.1 1.1-.1 4.9-.1 9.8-.1 14.8 0 2.8.1 5.5-.2 8.3-.5 4.3-3 7.1-7 8.6-1.9.7-3.9 1.1-6 1.3-.2 0-.5.1-.7.1-1.3-.1-2.4-.1-3.6-.1zM503.8 94.2c-1-.1-1.9-.2-2.9-.4-3.1-.5-6-1.6-8.4-3.7-2.1-1.9-3.3-4.3-3.6-7.1-.2-1.6-.1-3.2-.1-4.8 0-4.2.1-8.3.1-12.5V61c0-.5.2-.7.7-.7h10.1c.8 0 1.6.1 2.6.1v4c0 3.2.1 6.5.1 9.7 0 2.5-.1 5-.1 7.5 0 .8.2 1.6.5 2.4.7 1.6 2.6 1.8 3.8.5.7-.8 1-1.9 1-2.9V66.3c0-1.7-.1-3.3-.1-5V61c.1-1 .1-1 1-1 3.9 0 7.9 0 11.8.1.9 0 1.1.3 1.1 1.1-.1 4.9-.1 9.8-.1 14.8 0 2.8.1 5.5-.2 8.3-.5 4.3-3 7.1-7 8.6-1.9.7-3.9 1.1-6 1.3-.2 0-.5.1-.7.1-1.3-.1-2.4-.1-3.6-.1zM72.2 60.4c1.1 5.6 2.3 11.1 3.4 16.7 0 .2 0 .4.1.5.1.2.3.4.4.4.2 0 .4-.2.5-.4.5-2.3 1-4.5 1.4-6.8.6-3.3 1.3-6.6 1.9-9.9.1-.5.3-.7.9-.7 4.2 0 8.4 0 12.5-.1h4.3c.6 0 .8.2.8.8.1 3.3.2 6.6.3 9.8.1 5.6.3 11.3.3 16.9 0 1.7-.1 3.4-.1 5.1 0 .5-.3.7-.7.7-3.4 0-6.9.1-10.3.1-.2 0-.5-.3-.6-.5-.2-.8-.4-1.6-.4-2.5-.1-3.3 0-6.6 0-9.8v-4.9c-.3-.1-.5-.1-.9-.2-.3 1.2-.6 2.3-.9 3.5-1 4.5-2.1 8.9-3.1 13.4-.2.7-.5.9-1.1.9h-9.2c-.9 0-1-.1-1.2-.9-.8-3.3-1.7-6.7-2.5-10-.6-2.6-1.2-5.2-1.8-7.7 0-.2-.1-.4-.2-.6h-.9c-.1 6.3-.2 12.6-.2 19H54V60.7c0-.5.1-.8.7-.8 5.7-.1 11.5 0 17.2.3.2.2.3.2.3.2zM121.8 60.4c1.6 0 3.2-.1 4.8-.1 3.3-.1 6.6-.1 9.9-.1.6 0 .8.2 1 .7 2.1 5.6 4.3 11.2 6.5 16.8.2.5.2.5 1 .3V60.3h10.7v3c0 4.9.1 9.7.1 14.6v9.3c0 1.7 0 3.5.1 5.2 0 .9 0 .9-.9.9-4 0-7.9.1-11.9.1-.6 0-1.2-.1-1.8 0-.6.1-.9-.2-1.1-.7-1.7-4.4-3.3-8.7-5-13.1-.4-1.1-.9-2.3-1.3-3.5-.2 0-.5.1-.8.1v2c0 4.7.1 9.4.1 14.1 0 .3 0 .6-.1.8-.1.2-.4.4-.6.5-3.2 0-6.4.1-9.6.1-.8 0-1.3-.5-1.3-1.4 0-2.1.1-4.3.1-6.4 0-4.3 0-8.6.1-12.9l.3-12.1c-.3-.3-.3-.3-.3-.5zM387.3 60.2v3c0 4.8.1 9.6.1 14.4v9.3c0 1.9 0 3.7.1 5.6 0 .5-.2.7-.7.7-3.7 0-7.4.1-11.1.1h-3.1c-.5 0-.7-.2-.9-.6-.7-1.8-1.3-3.6-2-5.4-1.4-3.6-2.8-7.2-4.2-10.9-.2-.6-.6-.3-1-.2v2c0 4.7.1 9.3.1 14v.5c0 .7-.2.8-.9.8-3.1 0-6.2 0-9.4.1-.8 0-1.4-.5-1.4-1.3 0-4.1.1-8.2.1-12.4v-7.4c.1-3.9.2-7.8.2-11.7 0-.5.2-.5.6-.5 2.1-.1 4.1-.1 6.2-.2 2.7 0 5.4 0 8.1-.1.5 0 .7.1.9.6 2.1 5.6 4.3 11.2 6.5 16.8.2.5.4.6 1 .3V60.1c3.7-.2 7.2.3 10.8.1zM473.6 60.2h10.7v3c0 4.8.1 9.7.1 14.5V87c0 1.7 0 3.5.1 5.2 0 1 0 1-1 1-4.3 0-8.6.1-12.9.1-1.6 0-1.6 0-2.2-1.5-1.9-5.1-3.9-10.2-5.8-15.3-.1-.2-.1-.3-.2-.5-.8-.1-.8-.1-.8.7 0 5.2.1 10.3.1 15.5 0 .3 0 .5-.1.8-.1.4-.3.5-.7.5-3.2 0-6.4 0-9.6.1-.8 0-1.3-.5-1.3-1.3 0-2.2.1-4.3.1-6.5 0-4.1 0-8.3.1-12.4s.2-8.3.2-12.4c0-.4.2-.5.6-.5 2.1 0 4.2-.1 6.3-.2 2.7 0 5.4 0 8-.1.5 0 .7.1.9.6 2.2 5.6 4.3 11.2 6.5 16.8.2.5.4.6 1 .4-.1-5.9-.1-11.8-.1-17.8zM287.4 93.2c-.3.1-.6.1-.9.1h-11.9c-1 0-1-.1-1.1-1.1-.2-1.2-.5-2.4-.8-3.5-.1-.3-.2-.5-.6-.4-2.9 0-5.7.1-8.6.1-.5 0-.7.1-.8.6-.3 1.3-.7 2.6-1 4-.1.4-.3.5-.6.6h-.6c-3.7.1-7.4.1-11.1.2-.8 0-1-.2-.7-1 2.1-6.3 4.1-12.6 6.2-18.9 1.4-4.3 2.9-8.7 4.4-13 .1-.4.3-.5.7-.5 3.6 0 7.3-.1 10.9-.1h4.4c.9 0 1.1.1 1.4 1 3.2 9.5 6.4 19 9.6 28.6.4.9.7 2 1.1 3.3zM268 66.7c-.1 0-.2.1-.3.1-1.6 4.7-2.6 9.5-3.7 14.4h7.6v-.3c-.5-4.4-1.7-8.6-2.7-12.9-.3-.5-.7-.9-.9-1.3zM352.2 93.2c-.3.1-.6.1-.9.1h-11.9c-1 0-1-.1-1.1-1.1-.2-1.2-.5-2.4-.8-3.5-.1-.3-.2-.5-.6-.5-2.9 0-5.7.1-8.6.1-.5 0-.7.1-.8.6-.3 1.3-.7 2.6-1 4-.1.4-.3.5-.6.6-.2 0-.4 0-.6.1-3.7.1-7.3.1-11 .1-.8 0-1-.2-.7-1 2.1-6.3 4.1-12.6 6.2-18.9 1.4-4.3 2.9-8.7 4.4-13 .1-.4.3-.5.7-.5 3.6 0 7.3-.1 10.9-.1h4.4c.9 0 1.1.1 1.4 1 3.2 9.4 6.4 18.8 9.5 28.2.3 1.1.7 2.4 1.1 3.8zm-16-12v-.6c-.5-2.6-1-5.3-1.5-7.9-.3-1.5-.7-3.1-1.1-4.6-.1-.6-.4-1.1-1.2-1.3-1.6 4.7-2.6 9.5-3.7 14.4h7.5zM282.2 60.2H295c.9 0 1 .1 1.1.9l3.9 21.6c0 .1.1.2.1.4 0 .7.4.8 1 .6.3-1.9.7-3.8 1.1-5.7 1.1-5.7 2.3-11.4 3.5-17.1.1-.5.4-.6.8-.6 1.8-.1 3.5-.1 5.3-.1h6c.8 0 .9.1.7.9-1.6 5.5-3.2 10.9-4.7 16.4-1.2 4.2-2.2 8.4-3.4 12.7-.3.9-.7 1.8-1 2.7-.2.5-.6.7-1.1.7-2.8 0-5.7-.1-8.5 0-2.4 0-4.9.1-7.3.1-.3 0-.6-.3-.7-.5-.4-.9-.8-1.9-1-2.8-1.5-7-3.9-13.8-5.8-20.7-.8-2.8-1.5-5.5-2.3-8.3-.3-.5-.4-.7-.5-1.2zM234.7 68.9V86.3c0 2 .1 4 .1 5.9 0 1.2 0 1.2-1.2 1.2-3.4 0-6.8 0-10.1-.1H222c-.8 0-1.2-.4-1.2-1.2l.3-13c0-3 .3-5.9-.1-8.9-.1-1.1-.3-1.2-1.4-1.2h-5.9c-.5 0-.7-.2-.7-.6 0-.9-.1-1.8-.1-2.7v-5.5H228.1c4.5 0 8.9-.1 13.4-.1h.6c.9 0 .9.1.9 1v6.8c0 .3 0 .6-.1.9-2.7.1-5.4.1-8.2.1zM389.5 60.4h4.7c4.7 0 9.4-.1 14.1-.1 3.3 0 6.5-.1 9.8-.1h.6c.6 0 .9.2.9.9V68.9h-8.3v17.4c0 2 .1 4.1.1 6.1 0 1 0 1-1 1-3.4 0-6.9 0-10.3-.1h-1.5c-.7 0-1.2-.4-1.1-1.1l.3-13c0-3 .3-6-.1-8.9-.1-1-.3-1.2-1.3-1.2h-5.9c-.5 0-.7-.2-.8-.7 0-.9-.1-1.8-.1-2.6-.1-1.7-.1-3.5-.1-5.4zM541.7 60.4h4.9c4.6 0 9.3-.1 13.9-.1 3.3 0 6.5-.1 9.8-.1h.7c.5 0 .7.2.7.8v7.9h-8.3v17.5c0 2.1 0 4.2.1 6.2 0 .6-.2.8-.8.8-3.4 0-6.9-.1-10.3-.1h-1.6c-.9 0-1.3-.4-1.3-1.3l.3-14.3c0-2.5.3-5-.1-7.5-.2-1-.3-1.2-1.3-1.2h-5.9c-.6 0-.8-.2-.8-.7 0-1-.1-1.9-.1-2.9.1-1.5.1-3.2.1-5zM103.1 60.2c4.6.1 9 .1 13.4.2V71c0 3 .1 6 .1 9 0 2 0 4.1.1 6.1.1 2.2.2 4.4.3 6.5 0 .6-.2.7-.7.7-4.1.1-8.2.1-12.3.2-1.2 0-1.2-.1-1.2-1.2.1-2.2.1-4.4.2-6.6.1-3.1.1-6.3.2-9.4.1-3.6.1-7.2.2-10.7 0-1.4-.1-2.8-.1-4.2-.2-.4-.2-.8-.2-1.2zM210.2 60.4v17.5c0 2.7 0 5.4.1 8.1.1 2.2.2 4.5.3 6.7 0 .6-.2.8-.8.8-4.2 0-8.3.1-12.5.2-1 0-1.1-.1-1-1.1.1-2.2.1-4.5.2-6.7.1-3.1.1-6.2.2-9.3.1-3.8.1-7.6.2-11.4 0-1.4-.1-2.9-.1-4.4 0-.5.1-.6.6-.6 3.2.1 6.5.2 9.7.3 1.1-.1 2.1-.1 3.1-.1zM525.5 60.2c4.6.1 9 .1 13.4.2v10.7c0 3 .1 6 .1 9 0 2 0 4.1.1 6.1.1 2.2.2 4.4.3 6.5 0 .6-.2.7-.7.8-4.2.1-8.4.1-12.5.2-.9 0-1-.1-1-1.1.1-2.2.1-4.5.2-6.8.1-3.1.1-6.3.2-9.4.1-3.6.1-7.2.2-10.7 0-1.4-.1-2.9-.1-4.3-.2-.4-.2-.8-.2-1.2zM438.9 82.1H437l-.3 3.3h-3.9c.7-5.1 1.4-10.3 2.1-15.5h6.2c.7 5.1 1.4 10.3 2.1 15.5h-3.9c-.2-1-.3-2.1-.4-3.3zm-.3-3-.6-6.3h-.2l-.6 6.3h1.4z"/></g><path class="st3" d="M1.4 213.1h311.2v199.6H1.4z"/><g><path class="st4" d="M53.6 239.1H33.8v-2.7h19.8v2.7zm-8.3 16.4H42v-18.1h3.3v18.1zM55.5 255.5H52l8.8-19.1h5l8.8 19.1h-3.5l-7.6-17H63l-7.5 17zm14-5.3H57.2v-2.7h12.3v2.7zM81.4 255.5h-3.3v-19.1h3.3v19.1zm16 0h-3.5l-.6-3.1c-.2-.9-.4-1.6-.7-2.2s-.7-1-1.3-1.3c-.6-.3-1.4-.4-2.5-.4h-8.4v-2.6h9c1.5 0 2.5-.3 3.2-.9.7-.6 1-1.4 1-2.5v-.2c0-1-.3-1.8-1-2.4s-1.7-.9-3.2-.9h-9.1v-2.7h9.5c2.5 0 4.3.5 5.4 1.4 1.1.9 1.7 2.3 1.7 4v.2c0 1.3-.3 2.4-1 3.1s-1.8 1.3-3.2 1.5v.4l-1.7-.5c1.3.1 2.3.3 3 .7.7.4 1.3 1 1.6 1.8.4.8.7 1.7.9 2.8l.9 3.8zM105.1 236.4v19.1h-3.3v-19.1h3.3zM114 255.5h-3.3v-19.1h3.3v19.1zm13.4-16.4h-16.6v-2.7h16.6v2.7zm-.3 9h-14.7v-2.7h14.7v2.7zM144.7 255.5h-5.9v-19.1h5.9v19.1zm12.5-14.5h-18.4v-4.6h18.4v4.6zm.3 14.5h-18.7v-4.6h18.7v4.6zm-.6-7.4h-15v-4.4h15v4.4zm-11.7-13.6 4.1-4.3h6.7v.1l-5.2 4.3-5.6-.1zM166.9 255.5H161v-19.1h5.9v19.1zm5.4-5.1h-6.9v-4.6h6.6c1 0 1.8-.2 2.3-.6.5-.4.7-.9.7-1.7v-.2c0-.8-.2-1.4-.7-1.7-.5-.4-1.3-.6-2.3-.6h-6.6v-4.6h6.9c3 0 5.2.6 6.7 1.8s2.1 2.9 2.1 5.1v.2c0 2.2-.7 3.9-2.1 5.1-1.5 1.2-3.7 1.8-6.7 1.8zM194.7 256.2c-3.6 0-6.3-.8-8.1-2.5-1.8-1.6-2.7-4.1-2.7-7.3v-10h6.1v10c0 1.5.4 2.7 1.2 3.5s2 1.2 3.6 1.2 2.8-.4 3.6-1.2c.8-.8 1.2-2 1.2-3.5v-10h6.1v10c0 3.2-.9 5.7-2.7 7.3-2 1.7-4.7 2.5-8.3 2.5zM215.4 236.4v19.1h-6.1v-19.1h6.1zM228.2 256.1c-1.2 0-2.3-.1-3.4-.2s-2.1-.3-3-.6c-.9-.2-1.7-.5-2.4-.7l-.6-5.4c1.2.5 2.6.9 4.3 1.3 1.7.4 3.4.6 5.1.6 1.5 0 2.6-.1 3.1-.3s.8-.5.8-1v-.1c0-.3-.1-.6-.4-.8-.3-.2-.8-.3-1.4-.5-.7-.1-1.6-.2-2.9-.4-2-.2-3.6-.6-5-1-1.3-.4-2.3-1-3-1.9s-1-1.9-1-3.4v-.1c0-2 .8-3.5 2.4-4.5 1.6-1 3.9-1.5 7-1.5 1.9 0 3.6.1 5 .4s2.6.6 3.7 1l.7 4.9c-1.3-.5-2.6-.9-4.1-1.2-1.5-.3-3-.4-4.6-.4-1.1 0-1.9 0-2.4.1s-.9.2-1.1.4-.3.4-.3.7c0 .3.1.5.3.7.2.2.7.4 1.3.5.7.1 1.6.3 3 .4 1.9.2 3.6.5 4.9.9 1.3.4 2.4 1 3.1 1.8.7.8 1 1.9 1 3.3v.2c0 2.2-.8 3.9-2.5 4.9-1.6 1.4-4.2 1.9-7.6 1.9zM247.3 255.5h-5.9v-19.1h5.9v19.1zm12.5-14.5h-18.4v-4.6h18.4v4.6zm.3 14.5h-18.7v-4.6h18.7v4.6zm-.6-7.4h-15v-4.4h15v4.4zm-11.7-13.6 4.1-4.3h6.7v.1l-5.2 4.3-5.6-.1zM277 236.4l-.6 12.6h-5.2l-.6-12.6h6.4zm-3.3 19.6c-1.1 0-1.9-.2-2.4-.7s-.8-1.2-.8-2v-.1c0-.9.3-1.5.8-2s1.3-.7 2.4-.7c1.1 0 1.9.2 2.4.7.5.5.8 1.2.8 2v.1c0 .8-.3 1.5-.8 2s-1.3.7-2.4.7zM90.7 292.3l9.3-.2c.2 0 .4.2.6.6s.3.7.5.9c.4.6 1 .8 1.8.8s1.5-.2 2-.6.8-.9.8-1.5-.2-1-.5-1.3-.7-.5-1-.7-.9-.4-1.7-.5-1.1-.2-1.2-.2l-1-.3c-.6-.1-1.2-.2-1.6-.4-2.8-.8-4.8-1.7-6.1-2.8s-1.9-2.7-1.9-4.6c0-1.4.3-2.6.8-3.8s1.2-2 2-2.7c2.4-2 5.7-3 9.9-3 3.4 0 6 .6 7.9 1.8 1.2.9 2.1 1.8 2.5 2.6s.7 1.9.9 3.2l-.5.5c-3.1.1-5.8.2-8.2.2-.7 0-1.1-.2-1.3-.6-.1-.2-.1-.4-.2-.5-.2-.4-.7-.6-1.6-.6h-.1c-.7 0-1.3.2-1.8.5s-.7.6-.7.9.1.6.2.8.3.4.4.5.4.2.7.4.6.2.7.2.4.1.7.2l.6.2c.2.1 1 .2 2.2.5s2.2.6 3 .8c2.5.8 4.2 1.9 5.1 3.2s1.4 2.7 1.4 4.4c0 4.5-2.7 7.4-8 8.7-1.5.4-3.2.7-5 .8-2.2 0-4.3-.3-6.4-.9s-3.5-1.7-4.2-3.1c-.5-.7-.8-1.3-1-1.9s-.3-1.4-.4-2.4c.3-.1.4-.1.4-.1zM142.9 285.9l-.1 4.9c0 1.5-.2 2.8-.7 4s-1.1 2.1-1.9 2.8c-2.2 2-5.4 3-9.6 3-4.2 0-7.5-1-9.9-3.1-.8-.7-1.5-1.6-2.1-2.8s-.9-2.4-1-3.9c.1-4.9.1-9.4.1-13.6-.1 0-.1-.6-.1-1.8s.1-2 .2-2.3h.4c1.7-.1 4.1-.1 7-.1.2 0 .6.1 1.2.1s.9 0 1.2.1l.5.1c.1 2.3.1 5.5.2 9.6l-.1 7.1c0 2.3.7 3.5 2 3.5.6 0 1.1-.3 1.5-.8s.6-1.1.6-1.7l.1-.2.1-5.9v-.5c0-2.7 0-5.3-.1-7.9v-2.7c0-.4.1-.7.2-.8 4.5 0 7.9 0 10.2.1.1.1.2.2.3.2l.2.1c-.1 2.2-.1 5.1-.1 8.5v3l-.3 1zM146.2 287.9v-14.5h1.6l2.2-.1h4.1l5.2-.1c.7 0 1.5 0 2.3.1h.9c2.3 0 4.3.7 6 2.2.8.7 1.4 1.6 1.9 2.8s.7 2.3.7 3.5-.1 2.2-.4 3.1-.6 1.6-.9 2.1c-1.5 2.4-4.5 3.8-9 4.1l-3.8.2c-.1 2.8-.2 5-.2 6.6v1.9c0 .2-.1.3-.3.3l-10 .2c-.2-.6-.3-1.5-.3-2.7v-9.7zm15.4-7.5c-.5-1.2-1.7-1.9-3.7-2h-1.2c-.1 0-.2 1.7-.3 5.2v1.3l.1 1.1c1.4 0 2.7-.3 3.8-.9s1.6-1.7 1.6-3.2c-.1-.7-.2-1.2-.3-1.5zM173 277.8l-.1-4.6s.1 0 .1.1c8.9-.2 15.6-.2 20.1-.2l.1.1v6.2c-.1.2-.4.3-1 .3h-.2c-2.8 0-5.8 0-8.9-.1v.6c0 .3 0 .5-.1.6l-.1.7c-.1.4-.1 1.2-.1 2.3l5.4-.1h2.3c.7 0 1.2 0 1.4.1s.3.2.3.4v.5l.1 4.5c-3.6.2-6.4.3-8.5.3h-.8v4.3l9.5-.3c.5 0 .9.1 1 .2v1.3l.1 4.8c0 .3-.1.5-.4.5l-5.8-.1c-1.1 0-3.4 0-6.9.1l-2.9.1c-2 .1-3.6.1-4.5.1h-.1l-.3-.3v-.6l.1-18.8.2-3zM203.7 273.1l5.6-.1c1.2 0 2.3 0 3.3.1 2.6.1 4.6.7 6 1.8s2 2.8 2 4.9c0 1.5-.4 2.7-1.3 3.8s-2.1 1.9-3.7 2.7c2.6.8 4.2 2.8 4.7 6 .1.7.2 1.5.3 2.4s.1 1.5.2 1.8l.2.9c.2 1.1.4 1.8.5 2.3l-.1.1c-2 .1-3.8.2-5.5.2s-3.1 0-4.4-.1h-.1c-.4 0-.8-1.7-1.2-5.2l-.1-.8c0-1.3-.3-2.2-.7-2.6s-1.1-.7-2.1-.7h-1.1v9.1c0 .1-.1.2-.3.2-1.3 0-3.1.1-5.5.1H195.7s-.1 0-.1-.1v-2.1l.1-7.3V282.7l-.1-4 .1-5.6c0-.1.3-.1 1-.1h4.4l2.6.1zm6.5 5.7c-.7-.3-1.6-.5-2.8-.5h-1c-.1.2-.2 1.2-.2 3s0 3 .1 3.6c3.7-.1 5.5-1.3 5.5-3.8 0-1-.5-1.8-1.6-2.3zm11.3 20.9zm.1-.1c-.1 0 0 0 0 0zM39.7 311.8l-.1-4.6s.1 0 .1.1c8.9-.2 15.6-.2 20.1-.2l.1.1v6.2c-.1.2-.4.3-1 .3h-.1c-2.8 0-5.8 0-8.9-.1v.6c0 .3 0 .5-.1.6l-.1.7c-.1.4-.1 1.2-.1 2.3l5.4-.1h2.3c.7 0 1.2 0 1.4.1s.3.2.3.4v.5l.1 4.5c-3.6.2-6.4.3-8.5.3h-.8v4.3l9.5-.3c.5 0 .9.1 1 .2v1.3l.1 4.8c0 .3-.1.5-.4.5l-5.8-.1c-1.1 0-3.4 0-6.9.1l-2.9.1c-2 .1-3.6.1-4.5.1h-.1l-.3-.3v-.6l.1-18.8.1-3z"/><path class="st4" d="M90.5 333.7c0 .2-.3.2-1 .2H84c-1.7 0-3.1 0-4.2-.1 0 0-.1-.1-.1-.2l-.1-.4c-.1-1.2-.4-2.4-.8-3.5l-7.5.1c0 .2-.2.8-.5 1.8s-.5 1.7-.6 2.2c-.1.1-.7.2-1.7.2h-1.4l-4.6.1h-2.2l-.3-.3c1.2-4.1 2.8-9.1 4.8-15.1l.4-1.2.5-1.5c.2-.5.6-1.8 1.3-3.9s1.2-3.5 1.4-4.1.3-.9.3-1h2.9l6.2-.1 1.7.1 1.4-.1c.7 0 1.1.1 1.1.4 1.2 3.3 2.7 8 4.7 14.1s3.1 9.6 3.3 10.4l.2.9c0 .3.1.7.3 1zm-17.4-9.6H78c-.2-1.4-.3-2.4-.4-3.1l-.7-3c-.7-3.1-1.1-4.7-1.1-4.7s0-.1-.1-.2 0-.1 0-.1v-.1c0-.1 0-.1-.1-.1s0 0-.1-.1-.3-.3-.5-.4c-.3.1-1.3 3.6-2.8 10.6l-.2 1.2h1.1zM99.3 307.1l5.6-.1c1.2 0 2.3 0 3.3.1 2.6.1 4.6.7 6 1.8s2 2.8 2 4.9c0 1.5-.4 2.7-1.3 3.8s-2.1 1.9-3.7 2.7c2.6.8 4.2 2.8 4.7 6 .1.7.2 1.5.3 2.4s.1 1.5.2 1.8l.2.9c.2 1.1.4 1.8.5 2.3l-.1.1c-2 .1-3.8.2-5.5.2s-3.1 0-4.4-.1h-.1c-.4 0-.8-1.7-1.2-5.2l-.1-.8c0-1.3-.3-2.2-.7-2.6s-1.1-.7-2.1-.7h-1.1v9.1c0 .1-.1.2-.3.2-1.3 0-3.1.1-5.5.1H91.3s-.1 0-.1-.1v-2.1l.1-7.3V316.7l-.1-4 .1-5.6c0-.1.3-.1 1-.1h4.4l2.6.1zm6.5 5.7c-.7-.3-1.6-.5-2.8-.5h-1c-.1.2-.2 1.2-.2 3s0 3 .1 3.6c3.7-.1 5.5-1.3 5.5-3.8-.1-1-.6-1.8-1.6-2.3zm11.3 20.9c-.1 0-.1 0 0 0zm0-.1zM139.2 326.8c-.1.3-.1.7-.1 1.1v.4c0 .6 0 1.1.1 1.3v4.1c-.1.3-5.9.5-17.3.5h-2.6c-.2-.4-.3-.9-.3-1.7v-20l-.1-2.5c0-1.5.1-2.5.4-2.9h4.8c3.4 0 5.2.2 5.6.6l-.1 6.1-.1 5.2v.2l-.1 7.3.7.4c2.1-.1 4.2-.2 6.2-.2s2.9-.1 2.9.1zM162 307h.6c.1.1.2.2.3.4l-.5 1-1.1 2.2c-1.7 3.2-2.8 5.3-3.3 6.4l-.6 1.1-3.3 6.6v9.1c-.1.2-.2.3-.4.3l-10.1.1c-.3-.3-.4-.7-.4-1.1v-4.5c0-2.4-.6-5.1-1.9-7.9-.3-.6-.7-1.4-1.2-2.5l-2.6-5.2c-.1-.1-.3-.5-.6-1.1s-.6-1.2-1-1.9c-.9-1.4-1.4-2.4-1.4-2.8 0-.1.2-.1.6-.1h4.5c2.5 0 4.4 0 5.6.1.4.1 1.4 2.9 2.9 8.5l.8 2.8c1.2-3.2 2.5-6.9 3.8-11.2 0-.1.9-.1 2.6-.1h6.7zM176.4 313.9v-1.5c0-1.5 0-3.2.1-5.2l.9-.1c3.1-.2 5-.2 6-.2h8.2c2.8 0 5.1.6 7 1.7.7.6 1.2 1.3 1.6 2.3s.6 2 .6 3.2c0 2.3-1.5 4.3-4.6 5.9 1.7.5 3.1 1.3 4 2.3s1.4 2.4 1.4 3.9c0 2.7-1.2 4.8-3.7 6.2-1.8 1.1-4.1 1.6-6.8 1.6l-5.2-.1c-2.3 0-5.3.1-9 .2-.3-.7-.5-3.4-.5-8.2v-12zm14.7 3c.2-.4.4-1 .4-1.6 0-1.2-.4-2.1-1.3-2.5s-1.8-.6-2.8-.6-1.4.4-1.4 1.1c0 1.3 0 2.5.1 3.8v.9c0 .4.3.7.8.8l.9-.1c1.7-.2 2.8-.8 3.3-1.8zm-3.8 11.7c3 0 4.6-1.1 4.6-3.2 0-1.3-.4-2.2-1.2-2.7-.7-.4-1.9-.6-3.4-.7h-.5l-.3 1c-.1 1.2-.1 2.4-.1 3.6s.1 1.8.4 2h.5zM203.9 331.7c0-2.4.1-4 .2-5 0-5.1.1-10.2.2-15.4 0-.7-.1-1.5-.1-2.2v-.6c0-.4-.1-.7-.1-1s0-.5.1-.5c2.5.2 4.7.2 6.6.2s3.2 0 3.9-.1c0 0 0 .1.1.3h-.1v6.4l.1 14.3c0 .1 0 .2.1.3 0 .1.1.1.1.2l.1 5.1-.3.3h-.6l-9.8.2c-.1-.1-.3-.1-.5-.3V331.7zM226.7 307.1l5.6-.1c1.2 0 2.3 0 3.3.1 2.6.1 4.6.7 6 1.8s2 2.8 2 4.9c0 1.5-.4 2.7-1.3 3.8s-2.1 1.9-3.7 2.7c2.6.8 4.2 2.8 4.7 6 .1.7.2 1.5.3 2.4s.1 1.5.2 1.8l.2.9c.2 1.1.4 1.8.5 2.3l-.1.1c-2 .1-3.8.2-5.5.2s-3.1 0-4.4-.1h-.1c-.4 0-.8-1.7-1.2-5.2l-.1-.8c0-1.3-.3-2.2-.7-2.6s-1.1-.7-2.1-.7h-1.1v9.1c0 .1-.1.2-.3.2-1.3 0-3.1.1-5.5.1H218.7s-.1 0-.1-.1v-2.1l.1-7.3V316.7l-.1-4 .1-5.6c0-.1.3-.1 1-.1h4.4l2.6.1zm6.5 5.7c-.7-.3-1.6-.5-2.8-.5h-1c-.1.2-.2 1.2-.2 3s0 3 .1 3.6c3.7-.1 5.5-1.3 5.5-3.8 0-1-.5-1.8-1.6-2.3zm11.3 20.9zm.1-.1c-.1 0 0 0 0 0zM253.4 307l3.3-.1c5.7 0 9.8.9 12.1 2.8.5.4 1 1 1.6 1.8 1.7 2.5 2.5 5.2 2.5 8.2 0 5.3-1.8 9.3-5.5 11.8-2.2 1.5-4.7 2.3-7.6 2.3l-.1.1h-.4l-4.7-.1c-2.1 0-4.8.1-8 .2-.2-.4-.3-.9-.3-1.5v-25.2c0-.1.6-.2 1.9-.2s2.3-.1 3.1-.1h2.1zm7.4 6c-.7-.5-1.4-.8-2.2-.8h-2.3c-.2.3-.4.6-.4.7l-.3.7v1c0 2 0 4.8.1 8.2l.1 5.1c.1.4.3.6.7.7 1.2 0 2.1-.1 2.8-.2 2.3-.8 3.5-3.6 3.5-8.4.1-3.7-.6-6-2-7zM105.5 390.5c-2.2 0-4.2-.1-6-.3s-3.5-.5-5.1-.8c-1.5-.3-2.8-.7-3.9-1l-1-9.5c2 .6 4.3 1.2 6.8 1.6s5.3.7 8.2.7c2.3 0 4.1-.1 5.3-.4 1.2-.2 2-.6 2.5-1.1.4-.5.7-1 .7-1.7v-.2c0-.7-.2-1.2-.5-1.6-.4-.4-1-.7-1.8-.8-.8-.2-2-.3-3.4-.3l-11.9-.3v-8.4l11.8-.3c1.5 0 2.6-.1 3.4-.3s1.4-.5 1.8-.9c.4-.4.5-.9.5-1.5v-.1c0-1-.5-1.7-1.6-2.1-1.1-.4-3.2-.6-6.3-.6-2.9 0-5.6.3-8.3.8-2.7.5-5 1-6.9 1.5l1-9.1c2-.7 4.3-1.3 6.8-1.7s5.5-.7 8.9-.7c6.1 0 10.7.9 13.8 2.6 3.1 1.7 4.6 4.3 4.6 7.7v.3c0 1.6-.3 3-.9 4.1-.6 1.1-1.6 2-2.9 2.6-1.3.6-3.1 1-5.4 1.1v1.5l-.8-1.1c3.9.3 6.6 1.2 8.1 2.7 1.5 1.5 2.3 3.6 2.3 6.1v.4c0 3.5-1.6 6.2-4.9 8.2-3.3 2-8.2 2.9-14.9 2.9zM145.2 390.5c-2.2 0-4.2-.1-6-.3s-3.5-.5-5.1-.8c-1.5-.3-2.8-.7-3.9-1l-1-9.5c2 .6 4.3 1.2 6.8 1.6s5.3.7 8.2.7c2.3 0 4.1-.1 5.3-.4 1.2-.2 2-.6 2.5-1.1.4-.5.7-1 .7-1.7v-.2c0-.7-.2-1.2-.5-1.6-.4-.4-1-.7-1.8-.8-.8-.2-2-.3-3.4-.3l-11.9-.3v-8.4l11.8-.3c1.5 0 2.6-.1 3.4-.3s1.4-.5 1.8-.9c.4-.4.5-.9.5-1.5v-.1c0-1-.5-1.7-1.6-2.1-1.1-.4-3.2-.6-6.3-.6-2.9 0-5.6.3-8.3.8-2.7.5-5 1-6.9 1.5l1-9.1c2-.7 4.3-1.3 6.8-1.7s5.5-.7 8.9-.7c6.1 0 10.7.9 13.8 2.6 3.1 1.7 4.6 4.3 4.6 7.7v.3c0 1.6-.3 3-.9 4.1-.6 1.1-1.6 2-2.9 2.6-1.3.6-3.1 1-5.4 1.1v1.5l-.8-1.1c3.9.3 6.6 1.2 8.1 2.7 1.5 1.5 2.3 3.6 2.3 6.1v.4c0 3.5-1.6 6.2-4.9 8.2-3.3 2-8.2 2.9-14.9 2.9zM215.4 369.5h-33.6l.6-5.6H216l-.6 5.6zm0 8.4h-33.6l.6-5.6H216l-.6 5.6zm-6.4 12.9c-7.9 0-13.7-1.7-17.4-5.2-3.7-3.5-5.6-8.3-5.6-14.5v-.5c0-6.1 1.8-10.8 5.5-14.3s9.5-5.2 17.4-5.2c2.2 0 4.3.2 6.2.6 1.9.4 3.5.8 4.7 1.3l1 9.7c-1.4-.6-2.9-1-4.7-1.4-1.8-.3-3.8-.5-5.9-.5-4.2 0-7.2.9-9 2.6-1.8 1.7-2.7 4.1-2.7 7.1v.5c0 3 .9 5.4 2.8 7.2 1.8 1.8 5 2.7 9.6 2.7 2.1 0 4-.2 5.8-.6 1.8-.4 3.2-.8 4.4-1.3l-1 10c-.9.3-2.4.7-4.3 1.2-2 .4-4.3.6-6.8.6z"/></g><path class="st3" d="M315.3 213.1h311.2v199.6H315.3z"/><g><path class="st5" d="M375.6 253.6h-15.5v-2.1h15.5v2.1zm-6.4 12.8h-2.6v-14.2h2.6v14.2zM377.1 266.4h-2.7l6.9-15h3.9l6.9 15h-2.7l-6-13.3h-.4l-5.9 13.3zm11-4.1h-9.6v-2.1h9.6v2.1zM397.5 266.4h-2.6v-15h2.6v15zm12.5 0h-2.8l-.5-2.4c-.1-.7-.3-1.2-.5-1.7s-.6-.8-1-1c-.5-.2-1.1-.4-2-.4h-6.5v-2h7.1c1.1 0 2-.2 2.5-.7.5-.5.8-1.1.8-1.9v-.1c0-.8-.3-1.4-.8-1.9s-1.3-.7-2.5-.7h-7.1v-2.1h7.4c1.9 0 3.3.4 4.2 1.1.9.7 1.3 1.8 1.3 3.1v.2c0 1-.3 1.8-.8 2.5-.5.6-1.4 1-2.5 1.1v.3l-1.3-.4c1 0 1.8.2 2.4.6.6.3 1 .8 1.3 1.4.3.6.5 1.3.7 2.2l.6 2.8zM416 251.5v15h-2.6v-15h2.6zM423 266.4h-2.6v-15h2.6v15zm10.5-12.8h-13v-2.1h13v2.1zm-.3 7h-11.5v-2.1h11.5v2.1z"/><path class="st4" d="M448.7 266.4h-5.9v-19.1h5.9v19.1zm12.5-14.4h-18.4v-4.6h18.4v4.6zm.3 14.4h-18.7v-4.6h18.7v4.6zm-.6-7.4h-15v-4.4h15v4.4zm-11.7-13.6 4.1-4.3h6.7v.1l-5.2 4.3-5.6-.1zM470.9 266.4H465v-19.1h5.9v19.1zm5.5-5.1h-6.9v-4.6h6.6c1 0 1.8-.2 2.3-.6.5-.4.7-.9.7-1.7v-.2c0-.8-.2-1.4-.7-1.7-.5-.4-1.3-.6-2.3-.6h-6.6v-4.6h6.9c3 0 5.2.6 6.7 1.8 1.4 1.2 2.1 2.9 2.1 5.1v.2c0 2.2-.7 3.9-2.1 5.1-1.5 1.2-3.7 1.8-6.7 1.8zM498.7 267.1c-3.6 0-6.3-.8-8.1-2.5-1.8-1.6-2.7-4.1-2.7-7.3v-10h6.1v10c0 1.5.4 2.7 1.2 3.5.8.8 2 1.2 3.6 1.2s2.8-.4 3.6-1.2c.8-.8 1.2-2 1.2-3.5v-10h6.1v10c0 3.2-.9 5.7-2.7 7.3-1.9 1.7-4.6 2.5-8.3 2.5zM519.5 247.3v19.1h-6.1v-19.1h6.1zM532.2 267c-1.2 0-2.3-.1-3.4-.2s-2.1-.3-3-.6c-.9-.2-1.7-.5-2.4-.7l-.6-5.4c1.2.5 2.6.9 4.3 1.3s3.4.6 5.1.6c1.5 0 2.6-.1 3.1-.3.6-.2.8-.5.8-1v-.1c0-.3-.1-.6-.4-.8-.3-.2-.8-.3-1.4-.5-.7-.1-1.6-.2-2.9-.4-2-.2-3.6-.6-5-1-1.3-.4-2.3-1-3-1.9-.7-.8-1-1.9-1-3.4v-.1c0-2 .8-3.5 2.4-4.5 1.6-1 3.9-1.5 7-1.5 1.9 0 3.6.1 5 .4s2.6.6 3.7 1l.7 4.9c-1.3-.5-2.6-.9-4.1-1.2-1.5-.3-3-.4-4.6-.4-1.1 0-1.9 0-2.4.1s-.9.2-1.1.4-.3.4-.3.7c0 .3.1.5.3.7s.7.4 1.3.5c.7.1 1.6.3 3 .4 1.9.2 3.6.5 4.9.9 1.3.4 2.4 1 3.1 1.8.7.8 1 1.9 1 3.3v.2c0 2.2-.8 3.9-2.5 4.9-1.6 1.4-4.1 1.9-7.6 1.9zM551.4 266.4h-5.9v-19.1h5.9v19.1zm12.5-14.4h-18.4v-4.6h18.4v4.6zm.3 14.4h-18.7v-4.6h18.7v4.6zm-.6-7.4h-15v-4.4h15v4.4zm-11.7-13.6 4.1-4.3h6.7v.1l-5.2 4.3-5.6-.1zM581 247.3l-.6 12.6h-5.2l-.6-12.6h6.4zm-3.2 19.6c-1.1 0-1.9-.2-2.4-.7s-.8-1.2-.8-2v-.1c0-.9.3-1.5.8-2s1.3-.7 2.4-.7c1.1 0 1.9.2 2.4.7.5.5.8 1.2.8 2v.1c0 .8-.3 1.5-.8 2s-1.3.7-2.4.7z"/><path class="st5" d="m355 288.7-.1-4.6s.1 0 .1.1c8.9-.2 15.6-.2 20.1-.2l.1.1v6.2c-.1.2-.4.3-1 .3h-.1c-2.8 0-5.8 0-8.9-.1v.6c0 .3 0 .5-.1.6l-.1.7c-.1.4-.1 1.2-.1 2.3l5.4-.1h2.3c.7 0 1.2 0 1.4.1s.3.2.3.4v.5l.1 4.5c-3.6.2-6.4.3-8.5.3h-.8v4.3l9.5-.3c.5 0 .9.1 1 .2v1.3l.1 4.8c0 .3-.1.5-.4.5l-5.8-.1c-1.1 0-3.4 0-6.9.1l-2.9.1c-2 .1-3.6.1-4.5.1h-.1l-.3-.3V310l.1-18.8.1-2.5z"/><path class="st5" d="M405.8 310.6c0 .2-.3.2-1 .2h-5.5c-1.7 0-3.1 0-4.2-.1 0 0-.1-.1-.1-.2l-.1-.4c-.1-1.2-.4-2.4-.8-3.5l-7.5.1c0 .2-.2.8-.5 1.8s-.5 1.7-.6 2.2c-.1.1-.7.2-1.7.2h-1.4l-4.6.1h-2.2l-.3-.3c1.2-4.1 2.8-9.1 4.8-15.1l.4-1.2.5-1.5c.2-.5.6-1.8 1.3-3.9s1.2-3.5 1.4-4.1.3-.9.3-1h2.9l6.2-.1 1.7.1 1.4-.1c.7 0 1.1.1 1.1.4 1.2 3.3 2.7 8 4.7 14.1s3.1 9.6 3.3 10.4l.2.9c0 .4.1.7.3 1zm-17.4-9.6h4.9c-.2-1.4-.3-2.4-.4-3.1l-.7-3c-.7-3.1-1.1-4.7-1.1-4.7s0-.1-.1-.2 0-.1 0-.1v-.1c0-.1 0-.1-.1-.1s0 0-.1-.1-.3-.3-.5-.4c-.3.1-1.3 3.6-2.8 10.6l-.2 1.2h1.1zM414.6 284l5.6-.1c1.2 0 2.3 0 3.3.1 2.6.1 4.6.7 6 1.8s2 2.8 2 4.9c0 1.5-.4 2.7-1.3 3.8s-2.1 1.9-3.7 2.7c2.6.8 4.2 2.8 4.7 6 .1.7.2 1.5.3 2.4s.1 1.5.2 1.8l.2.9c.2 1.1.4 1.8.5 2.3l-.1.1c-2 .1-3.8.2-5.5.2s-3.1 0-4.4-.1h-.1c-.4 0-.8-1.7-1.2-5.2l-.1-.8c0-1.3-.3-2.2-.7-2.6s-1.1-.7-2.1-.7h-1.1v9.1c0 .1-.1.2-.3.2-1.3 0-3.1.1-5.5.1H406.6s-.1 0-.1-.1v-2.1l.1-7.3V293.6l-.1-4 .1-5.6c0-.1.3-.1 1-.1h4.4l2.6.1zm6.5 5.7c-.7-.3-1.6-.5-2.8-.5h-1c-.1.2-.2 1.2-.2 3s0 3 .1 3.6c3.7-.1 5.5-1.3 5.5-3.8 0-1-.6-1.8-1.6-2.3zm11.3 20.9zm.1-.1c-.1 0-.1 0 0 0zM454.5 303.7c-.1.3-.1.7-.1 1.1v.4c0 .6 0 1.1.1 1.3v4.1c-.1.3-5.9.5-17.3.5h-2.6c-.2-.4-.3-.9-.3-1.7v-20l-.1-2.5c0-1.5.1-2.5.4-2.9h4.8c3.4 0 5.2.2 5.6.6l-.1 6.1-.1 5.2v.2l-.1 7.3.7.4c2.1-.1 4.2-.2 6.2-.2s2.9-.1 2.9.1zM477.3 284h.6c.1.1.2.2.3.4l-.5 1-1.1 2.2c-1.7 3.2-2.8 5.3-3.3 6.4l-.6 1.1-3.3 6.6v9.1c-.1.2-.2.3-.4.3l-10.1.1c-.3-.3-.4-.7-.4-1.1v-4.5c0-2.4-.6-5.1-1.9-7.9-.3-.6-.7-1.4-1.2-2.5l-2.6-5.2c-.1-.1-.3-.5-.6-1.1s-.6-1.2-1-1.9c-.9-1.4-1.4-2.4-1.4-2.8 0-.1.2-.1.6-.1h4.5c2.5 0 4.4 0 5.6.1.4.1 1.4 2.9 2.9 8.5l.8 2.8c1.2-3.2 2.5-6.9 3.8-11.2 0-.1.9-.1 2.6-.1h6.7zM491.7 290.8v-1.5c0-1.5 0-3.2.1-5.2l.9-.1c3.1-.2 5-.2 6-.2h8.2c2.8 0 5.1.6 7 1.7.7.6 1.2 1.3 1.6 2.3s.6 2 .6 3.2c0 2.3-1.5 4.3-4.6 5.9 1.7.5 3.1 1.3 4 2.3s1.4 2.4 1.4 3.9c0 2.7-1.2 4.8-3.7 6.2-1.8 1.1-4.1 1.6-6.8 1.6l-5.2-.1c-2.3 0-5.3.1-9 .2-.3-.7-.5-3.4-.5-8.2v-12zm14.8 3c.2-.4.4-1 .4-1.6 0-1.2-.4-2.1-1.3-2.5s-1.8-.6-2.8-.6-1.4.4-1.4 1.1c0 1.3 0 2.5.1 3.8v.9c0 .4.3.7.8.8l.9-.1c1.6-.2 2.8-.8 3.3-1.8zm-3.8 11.7c3 0 4.6-1.1 4.6-3.2 0-1.3-.4-2.2-1.2-2.7-.7-.4-1.9-.6-3.4-.7h-.5l-.3 1c-.1 1.2-.1 2.4-.1 3.6s.1 1.8.4 2h.5zM519.3 308.6c0-2.4.1-4 .2-5 0-5.1.1-10.2.2-15.4 0-.7-.1-1.5-.1-2.2v-.6c0-.4-.1-.7-.1-1s0-.5.1-.5c2.5.2 4.7.2 6.6.2s3.2 0 3.9-.1c0 0 0 .1.1.3h-.2v6.4l.1 14.3c0 .1 0 .2.1.3 0 .1.1.1.1.2l.1 5.1-.3.3h-.6l-9.8.2c-.1-.1-.3-.1-.5-.3v-.3l.1-1.9zM542.1 284l5.6-.1c1.2 0 2.3 0 3.3.1 2.6.1 4.6.7 6 1.8s2 2.8 2 4.9c0 1.5-.4 2.7-1.3 3.8s-2.1 1.9-3.7 2.7c2.6.8 4.2 2.8 4.7 6 .1.7.2 1.5.3 2.4s.1 1.5.2 1.8l.2.9c.2 1.1.4 1.8.5 2.3l-.1.1c-2 .1-3.8.2-5.5.2s-3.1 0-4.4-.1h-.1c-.4 0-.8-1.7-1.2-5.2l-.1-.8c0-1.3-.3-2.2-.7-2.6s-1.1-.7-2.1-.7h-1.1v9.1c0 .1-.1.2-.3.2-1.3 0-3.1.1-5.5.1H534.1s-.1 0-.1-.1v-2.1l.1-7.3V293.6l-.1-4 .1-5.6c0-.1.3-.1 1-.1h4.4l2.6.1zm6.5 5.7c-.7-.3-1.6-.5-2.8-.5h-1c-.1.2-.2 1.2-.2 3s0 3 .1 3.6c3.7-.1 5.5-1.3 5.5-3.8-.1-1-.6-1.8-1.6-2.3zm11.3 20.9c-.1 0-.1 0 0 0zm0-.1zM568.7 283.9l3.3-.1c5.7 0 9.8.9 12.1 2.8.5.4 1 1 1.6 1.8 1.7 2.5 2.5 5.2 2.5 8.2 0 5.3-1.8 9.3-5.5 11.8-2.2 1.5-4.7 2.3-7.6 2.3l-.1.1h-.4l-4.7-.1c-2.1 0-4.8.1-8 .2-.2-.4-.3-.9-.3-1.5v-25.2c0-.1.6-.2 1.9-.2s2.3-.1 3.1-.1h2.1zm7.5 6c-.7-.5-1.4-.8-2.2-.8h-2.3c-.2.3-.4.6-.4.7l-.3.7v1c0 2 0 4.8.1 8.2l.1 5.1c.1.4.3.6.7.7 1.2 0 2.1-.1 2.8-.2 2.3-.8 3.5-3.6 3.5-8.4 0-3.7-.7-6-2-7zM418.2 367.4c-2.2 0-4.2-.1-6-.3-1.9-.2-3.5-.5-5.1-.8-1.5-.3-2.8-.7-3.9-1l-1-9.5c2 .6 4.3 1.2 6.8 1.6 2.5.5 5.3.7 8.2.7 2.3 0 4.1-.1 5.3-.4 1.2-.2 2-.6 2.5-1.1.4-.5.7-1 .7-1.7v-.2c0-.7-.2-1.2-.5-1.6s-1-.7-1.8-.8c-.8-.2-2-.3-3.4-.3l-11.9-.3v-8.4l11.8-.3c1.5 0 2.6-.1 3.4-.3s1.4-.5 1.8-.9c.4-.4.5-.9.5-1.5v-.1c0-1-.5-1.7-1.6-2.1-1.1-.4-3.2-.6-6.3-.6-2.9 0-5.6.3-8.3.8-2.7.5-5 1-6.9 1.5l1-9.1c2-.7 4.3-1.3 6.8-1.7s5.5-.7 8.9-.7c6.1 0 10.7.9 13.8 2.6 3.1 1.7 4.6 4.3 4.6 7.7v.3c0 1.6-.3 3-.9 4.1-.6 1.1-1.6 2-2.9 2.6-1.3.6-3.1 1-5.4 1.1v1.5l-.8-1.1c3.9.3 6.6 1.2 8.1 2.7 1.5 1.5 2.3 3.6 2.3 6.1v.4c0 3.5-1.6 6.2-4.9 8.2-3.3 2-8.3 2.9-14.9 2.9zM462.6 367.9c-3.9 0-7.2-.3-9.8-.8s-4.7-1.3-6.2-2.3-2.6-2.2-3.2-3.5c-.6-1.4-.9-2.8-.9-4.4v-.4c0-1.8.4-3.3 1.2-4.6.8-1.3 1.9-2.3 3.5-3.2 1.5-.8 3.5-1.4 5.7-1.6v-.4c-2.1-.2-3.9-.6-5.4-1.2-1.5-.6-2.6-1.5-3.4-2.7-.8-1.1-1.2-2.5-1.2-4v-.4c0-3.1 1.6-5.5 4.7-7.3 3.1-1.8 8.1-2.7 14.9-2.7 6.9 0 12 .9 15.1 2.7s4.7 4.3 4.7 7.3v.4c0 1.5-.4 2.9-1.2 4-.8 1.1-1.9 2-3.4 2.7-1.5.7-3.3 1.1-5.4 1.2v.4c2.3.3 4.3.8 5.8 1.7 1.5.8 2.7 1.9 3.5 3.2.8 1.3 1.1 2.8 1.1 4.6v.4c0 1.4-.3 2.8-.8 4.1-.6 1.3-1.6 2.5-3 3.6s-3.5 1.9-6.2 2.5c-2.5.4-5.9.7-10.1.7zm.3-9c3.2 0 5.3-.3 6.4-1s1.7-1.4 1.7-2.4v-.1c0-1-.6-1.7-1.9-2.3-1.3-.6-3.6-1.1-7-1.5-3 .4-5.1.9-6.1 1.6-1.1.6-1.6 1.4-1.6 2.3v.1c0 1 .6 1.8 1.8 2.5 1.2.5 3.4.8 6.7.8zm.3-15.3c2.6-.3 4.6-.7 5.8-1.4 1.2-.6 1.8-1.4 1.8-2.2v-.1c0-.9-.6-1.7-1.8-2.2-1.2-.5-3.3-.8-6.4-.8-2.9 0-4.9.3-6.1.8-1.2.5-1.8 1.2-1.8 2.1v.2c0 .5.2 1.1.7 1.6.5.5 1.3.9 2.6 1.3 1.2.2 2.9.5 5.2.7zM533.4 346.4h-33.6l.6-5.6H534l-.6 5.6zm0 8.4h-33.6l.6-5.6H534l-.6 5.6zm-6.4 12.9c-7.9 0-13.7-1.7-17.4-5.2-3.7-3.5-5.6-8.3-5.6-14.5v-.5c0-6.1 1.8-10.8 5.5-14.3s9.5-5.2 17.4-5.2c2.2 0 4.3.2 6.2.6 1.9.4 3.5.8 4.7 1.3l1 9.7c-1.4-.6-2.9-1-4.7-1.4-1.8-.3-3.8-.5-5.9-.5-4.2 0-7.2.9-9 2.6-1.8 1.7-2.7 4.1-2.7 7.1v.5c0 3 .9 5.4 2.8 7.2 1.8 1.8 5 2.7 9.6 2.7 2.1 0 4-.2 5.8-.6 1.8-.4 3.2-.8 4.4-1.3l-1 10c-.9.3-2.4.7-4.3 1.2-2 .4-4.2.6-6.8.6z"/></g><path style="fill:#ef7b91" d="M1.4 416h311.2v199.6H1.4z"/><g><path class="st2" d="M69.8 451.7H54.3v-2.1h15.5v2.1zm-6.4 12.9h-2.6v-14.2h2.6v14.2zM71.3 464.6h-2.7l6.9-15h3.9l6.9 15h-2.7l-6-13.3h-.4l-5.9 13.3zm11-4.1h-9.6v-2.1h9.6v2.1zM91.6 464.6H89v-15h2.6v15zm12.6 0h-2.8l-.5-2.4c-.1-.7-.3-1.2-.5-1.7s-.6-.8-1-1-1.1-.4-2-.4h-6.5v-2H98c1.1 0 2-.2 2.5-.7.5-.5.8-1.1.8-1.9v-.1c0-.8-.3-1.4-.8-1.9s-1.3-.7-2.5-.7h-7.1v-2.1h7.4c1.9 0 3.3.4 4.2 1.1.9.7 1.3 1.8 1.3 3.1v.2c0 1-.3 1.8-.8 2.5s-1.4 1-2.5 1.1v.3l-1.3-.4c1 0 1.8.2 2.4.6.6.3 1 .8 1.3 1.4.3.6.5 1.3.7 2.2l.6 2.8zM110.2 449.6v15h-2.6v-15h2.6zM117.1 464.6h-2.6v-15h2.6v15zm10.6-12.9h-13v-2.1h13v2.1zm-.3 7.1h-11.5v-2.1h11.5v2.1zM143 464.6h-6v-19.1h6v19.1zm4.7 0h-6.2v-4.9h6.1c1.6 0 2.8-.4 3.6-1.2s1.2-1.9 1.2-3.3v-.3c0-1.4-.4-2.5-1.2-3.3-.8-.8-2-1.2-3.6-1.2h-6.1v-4.9h6.2c3.6 0 6.3.8 8.1 2.4 1.8 1.6 2.8 3.9 2.8 7v.3c0 3-.9 5.4-2.8 7s-4.5 2.4-8.1 2.4zM167.8 445.5v19.1h-6.1v-19.1h6.1zM180.6 465.1c-1.2 0-2.3-.1-3.4-.2s-2.1-.3-3-.6c-.9-.2-1.7-.5-2.4-.7l-.6-5.4c1.2.5 2.6.9 4.3 1.3 1.7.4 3.4.6 5.1.6 1.5 0 2.6-.1 3.1-.3s.8-.5.8-1v-.1c0-.3-.1-.6-.4-.8-.3-.2-.8-.3-1.4-.5-.7-.1-1.6-.2-2.9-.4-2-.2-3.6-.6-5-1-1.3-.4-2.3-1-3-1.9s-1-1.9-1-3.4v-.1c0-2 .8-3.5 2.4-4.5 1.6-1 3.9-1.5 7-1.5 1.9 0 3.6.1 5 .4s2.6.6 3.7 1l.7 4.9c-1.3-.5-2.6-.9-4.1-1.2-1.5-.3-3-.4-4.6-.4-1.1 0-1.9 0-2.4.1s-.9.2-1.1.4-.3.4-.3.7c0 .3.1.5.3.7.2.2.7.4 1.3.5.7.1 1.6.3 3 .4 1.9.2 3.6.5 4.9.9 1.3.4 2.4 1 3.1 1.8.7.8 1 1.9 1 3.3v.2c0 2.2-.8 3.9-2.5 4.9-1.6 1.4-4.2 1.9-7.6 1.9zM199.7 464.6h-5.9v-19.1h5.9v19.1zm5.4-5.2h-6.9v-4.6h6.6c1 0 1.8-.2 2.3-.6.5-.4.7-.9.7-1.7v-.2c0-.8-.2-1.4-.7-1.7-.5-.4-1.3-.6-2.3-.6h-6.6v-4.6h6.9c3 0 5.2.6 6.7 1.8s2.1 2.9 2.1 5.1v.2c0 2.2-.7 3.9-2.1 5.1-1.4 1.2-3.6 1.8-6.7 1.8zM227.8 465.3c-3.9 0-6.8-.9-8.8-2.7s-3-4.3-3-7.5v-.2c0-3.2 1-5.7 3-7.5 2-1.8 4.9-2.7 8.8-2.7s6.8.9 8.8 2.7c2 1.8 3 4.3 3 7.5v.2c0 3.2-1 5.7-3 7.5s-4.9 2.7-8.8 2.7zm0-4.9c1.8 0 3.1-.5 4-1.4.9-.9 1.4-2.2 1.4-3.8v-.2c0-1.6-.5-2.9-1.4-3.8-.9-.9-2.3-1.4-4-1.4-1.8 0-3.1.5-4.1 1.4-.9.9-1.4 2.2-1.4 3.8v.2c0 1.6.5 2.9 1.4 3.8 1 .9 2.3 1.4 4.1 1.4zM256.2 445.5l-.6 12.6h-5.2l-.6-12.6h6.4zm-3.3 19.6c-1.1 0-1.9-.2-2.4-.7s-.8-1.2-.8-2v-.1c0-.9.3-1.5.8-2s1.3-.7 2.4-.7c1.1 0 1.9.2 2.4.7.5.5.8 1.2.8 2v.1c0 .8-.3 1.5-.8 2-.5.4-1.3.7-2.4.7zM55.5 497v-14.5h1.6l2.2-.1h4.1l5.2-.1c.7 0 1.5 0 2.3.1h.9c2.3 0 4.3.7 6 2.2.8.7 1.4 1.6 1.9 2.8s.7 2.3.7 3.5-.1 2.2-.4 3.1-.6 1.6-.9 2.1c-1.5 2.4-4.5 3.8-9 4.1l-3.8.2c-.1 2.8-.2 5-.2 6.6v1.9c0 .2-.1.3-.3.3l-10 .2c-.2-.6-.3-1.5-.3-2.7V497zm15.4-7.6c-.5-1.2-1.7-1.9-3.7-2H66c-.1 0-.2 1.7-.3 5.2v1.3l.1 1.1c1.4 0 2.7-.3 3.8-.9s1.6-1.7 1.6-3.2c0-.7-.1-1.1-.3-1.5zM90.2 482.2l5.6-.1c1.2 0 2.3 0 3.3.1 2.6.1 4.6.7 6 1.8s2 2.8 2 4.9c0 1.5-.4 2.7-1.3 3.8s-2.1 1.9-3.7 2.7c2.6.8 4.2 2.8 4.7 6 .1.7.2 1.5.3 2.4s.1 1.5.2 1.8l.2.9c.2 1.1.4 1.8.5 2.3l-.1.1c-2 .1-3.8.2-5.5.2s-3.1 0-4.4-.1h-.1c-.4 0-.8-1.7-1.2-5.2l-.1-.8c0-1.3-.3-2.2-.7-2.6s-1.1-.7-2.1-.7h-1.1v9.1c0 .1-.1.2-.3.2-1.3 0-3.1.1-5.5.1H82.2s-.1 0-.1-.1v-2.1l.1-7.3V491.8l-.1-4 .1-5.6c0-.1.3-.1 1-.1h4.4l2.6.1zm6.5 5.7c-.7-.3-1.6-.5-2.8-.5h-1c-.1.2-.2 1.2-.2 3s0 3 .1 3.6c3.7-.1 5.5-1.3 5.5-3.8-.1-1-.6-1.8-1.6-2.3zm11.2 20.8c0 .1 0 .1 0 0zm.1 0c-.1 0 0 0 0 0zM109.8 486.8l-.1-4.6s.1 0 .1.1c8.9-.2 15.6-.2 20.1-.2l.1.1v6.2c-.1.2-.4.3-1 .3h-.1c-2.8 0-5.8 0-8.9-.1v.6c0 .3 0 .5-.1.6l-.1.7c-.1.4-.1 1.2-.1 2.3l5.4-.1h2.3c.7 0 1.2 0 1.4.1s.3.2.3.4v.5l.1 4.5c-3.6.2-6.4.3-8.5.3h-.8v4.3l9.5-.3c.5 0 .9.1 1 .2v1.3l.1 4.8c0 .3-.1.5-.4.5l-5.8-.1c-1.1 0-3.4 0-6.9.1l-2.9.1c-2 .1-3.6.1-4.5.1h-.1l-.3-.3v-.6l.1-18.8.1-3zm4.9-11.1h-1.2l-.3-.5 3-5c.5-.7.8-1.1.9-1.2h1.2l7.3.2v.1c-.5.5-1.2 1.4-2.3 2.6s-1.9 2.1-2.4 2.6-.9.9-1.3 1-1 .2-1.8.2h-3.1zM149.5 509l-2.2-.1H146c-.4 0-1.2.1-2.4.1s-3.1 0-5.6.1c-.5-.4-.9-1.6-1.3-3.6s-.9-4-1.5-6-1-3.4-1.2-3.9l-.5-1.9c-.2-.5-.4-1.5-.8-2.8-1.2-4-2-6.9-2.3-8.8 0-.1 3.4-.1 10.3-.1.2 0 .4.1.5.2.9 5.5 2 11.5 3.1 18l.1.9h.7l.2-.9c.4-2.3 1.1-6 2.1-11.1l.4-2c.1-.7.5-2.3 1-5 .5-.1 3.5-.2 8.9-.2h.8c.1.1.2.2.3.2l-3.5 12.8c-.3.9-.4 1.5-.5 1.8l-.8 3.2c-1.3 5.6-2.3 8.6-2.8 9-.4.2-.9.2-1.7.1zM160.1 486.8l-.1-4.6s.1 0 .1.1c8.9-.2 15.6-.2 20.1-.2l.1.1v6.2c-.1.2-.4.3-1 .3h-.1c-2.8 0-5.8 0-8.9-.1v.6c0 .3 0 .5-.1.6l-.1.7c-.1.4-.1 1.2-.1 2.3l5.4-.1h2.3c.7 0 1.2 0 1.4.1s.3.2.3.4v.5l.1 4.5c-3.6.2-6.4.3-8.5.3h-.8v4.3l9.5-.3c.5 0 .9.1 1 .2v1.3l.1 4.8c0 .3-.1.5-.4.5l-5.8-.1c-1.1 0-3.4 0-6.9.1l-2.9.1c-2 .1-3.6.1-4.5.1h-.1l-.3-.3v-.6l.1-18.8.1-3zM209.6 496.3V508.8c-.1.1-.4.1-.9.1h-.5l-5.5.1h-5.2c-.2-.2-.8-1.9-1.9-5.1l-3.4-8.9-.6.1v6.6l.1 4.8v2c0 .5-.1.8-.4.8-1.2 0-2.3-.1-3.3-.1h-.5l-2.7.1H183c-.4-.4-.6-.6-.6-.8v-.7l.1-6.9c0-7.5.1-13.2.2-17.1v-1.5c0-.1 4-.2 12.1-.3.1 0 .2.3.3.8v-.1l.1.4c.9 2.5 1.9 5.3 3.2 8.6s1.9 4.9 1.9 4.9h.6l.1-14.3c0-.1.9-.1 2.6-.1l4.4.1h1.3c.3 3.8.3 8.5.3 14zM234.9 488.7c0 .4 0 .6-.1.6l-6.4-.1v10.3l.1 9.3c-.1.2-.2.3-.4.3l-3.7-.1H218l-.3-.3s-.1-.1-.2-.3c0-1 0-3.3.1-6.9l.2-9.4v-.4c-.1-1.2-.2-1.8-.2-2.1s-.2-.3-.4-.4-.4 0-.5 0h-.7l-4.4-.1c-.2-.3-.2-1-.2-2.1v-2c0-1.9 0-2.9-.1-3h.1l22.4-.2c.5 0 .7 0 .9.1s.2.2.2.4V488.7zM236.5 486.8l-.1-4.6s.1 0 .1.1c8.9-.2 15.6-.2 20.1-.2l.1.1v6.2c-.1.2-.4.3-1 .3h-.1c-2.8 0-5.8 0-8.9-.1v.6c0 .3 0 .5-.1.6l-.1.7c-.1.4-.1 1.2-.1 2.3l5.4-.1h2.3c.7 0 1.2 0 1.4.1s.3.2.3.4v.5l.1 4.5c-3.6.2-6.4.3-8.5.3h-.8v4.3l9.5-.3c.5 0 .9.1 1 .2v1.3l.1 4.8c0 .3-.1.5-.4.5l-5.8-.1c-1.1 0-3.4 0-6.9.1l-2.9.1c-2 .1-3.6.1-4.5.1h-.1l-.3-.3v-.6l.1-18.8.1-3zM60.7 564.6h-11v-21.4l.1-7.6h-1L37 548.8v5.2l-3.9-4.6h32.6v9H25.4v-10.6l18.2-20.2h17.1v37zM86.8 565.6c-3.4 0-6.5-.3-9.3-.9-2.8-.6-4.9-1.1-6.4-1.7l-1.2-9.8c1.2.5 2.7.9 4.4 1.4 1.7.5 3.6.9 5.6 1.2 2 .3 4 .5 6.1.5 2.5 0 4.3-.2 5.6-.6 1.3-.4 2.1-.9 2.6-1.5.4-.6.7-1.3.7-2v-.2c0-1.1-.5-2-1.4-2.7-.9-.6-2.5-1-4.6-1-2.1 0-3.9.3-5.4.8-1.5.5-2.7 1.2-3.6 1.9l-9.8-2v-21.6H105v9.1H81l.1 5-.1 4.4h.3c.8-1.8 2.1-3.2 4.1-4.4s4.7-1.7 8.3-1.7c4.4 0 7.7 1 9.8 3.1 2.2 2.1 3.2 5 3.2 8.7v.5c0 2.5-.6 4.8-1.8 6.8s-3.2 3.6-6.1 4.8c-2.9 1.4-6.9 1.9-12 1.9zM116.7 572.3h-10.8l29-46.8h10.8l-29 46.8zM178.5 564.6h-11v-21.4l.1-7.6h-1L155 548.8v5.2l-3.9-4.6h32.6v9h-40.4v-10.6l18.2-20.2h17.1v37zM208 565.9c-6.7 0-11.7-1.7-15.2-5s-5.2-8.2-5.2-14.6v-.4c0-6.4 1.7-11.2 5.2-14.6 3.5-3.3 8.5-5 15.2-5 6.7 0 11.8 1.7 15.2 5 3.5 3.3 5.2 8.2 5.2 14.6v.4c0 6.4-1.7 11.3-5.2 14.6-3.5 3.3-8.5 5-15.2 5zm0-9.6c2.9 0 5-.9 6.3-2.6s2-4.2 2-7.4v-.5c0-3.2-.7-5.7-2-7.4s-3.5-2.6-6.3-2.6c-2.9 0-5 .9-6.3 2.6-1.3 1.7-2 4.2-2 7.4v.5c0 3.2.7 5.7 2 7.4 1.3 1.8 3.4 2.6 6.3 2.6zM279.5 544.5h-33.6l.6-5.6h33.6l-.6 5.6zm0 8.5h-33.6l.6-5.6h33.6l-.6 5.6zm-6.4 12.9c-7.9 0-13.7-1.7-17.4-5.2-3.7-3.5-5.6-8.3-5.6-14.5v-.5c0-6.1 1.8-10.8 5.5-14.3s9.5-5.2 17.4-5.2c2.2 0 4.3.2 6.2.6 1.9.4 3.5.8 4.7 1.3l1 9.7c-1.4-.6-2.9-1-4.7-1.4-1.8-.3-3.8-.5-5.9-.5-4.2 0-7.2.9-9 2.6-1.8 1.7-2.7 4.1-2.7 7.1v.5c0 3 .9 5.4 2.8 7.2 1.8 1.8 5 2.7 9.6 2.7 2.1 0 4-.2 5.8-.6 1.8-.4 3.2-.8 4.4-1.3l-1 10c-.9.3-2.4.7-4.3 1.2-2 .4-4.3.6-6.8.6z"/></g><path class="st3" d="M315.1 416h311.2v199.6H315.1z"/><path class="st1" d="M1.3 618.8h311.2v199.6H1.3z"/><path style="fill:#59c2e4" d="M314.8 618.8H626v199.6H314.8z"/><g><path class="st5" d="M449.7 451.7h-15.5v-2.1h15.5v2.1zm-6.4 12.8h-2.6v-14.2h2.6v14.2zM451.2 464.5h-2.7l6.9-15h3.9l6.9 15h-2.7l-6-13.3h-.4l-5.9 13.3zm11-4.1h-9.6v-2.1h9.6v2.1zM471.5 464.5H469v-15h2.6v15zm12.6 0h-2.8l-.5-2.4c-.1-.7-.3-1.2-.5-1.7s-.6-.8-1-1c-.5-.2-1.1-.4-2-.4h-6.5v-2h7.1c1.1 0 2-.2 2.5-.7.5-.5.8-1.1.8-1.9v-.1c0-.8-.3-1.4-.8-1.9s-1.3-.7-2.5-.7h-7.1v-2.1h7.4c1.9 0 3.3.4 4.2 1.1.9.7 1.3 1.8 1.3 3.1v.2c0 1-.3 1.8-.8 2.5-.5.6-1.4 1-2.5 1.1v.3l-1.3-.4c1 0 1.8.2 2.4.6.6.3 1 .8 1.3 1.4s.5 1.3.7 2.2l.6 2.8zM490.1 449.6v15h-2.6v-15h2.6zM497 464.5h-2.6v-15h2.6v15zm10.5-12.8h-13v-2.1h13v2.1zm-.2 7h-11.5v-2.1h11.5v2.1zM360.8 501.3l9.3-.2c.2 0 .4.2.6.6s.3.7.5.9c.4.6 1 .8 1.8.8s1.5-.2 2-.6.8-.9.8-1.5-.2-1-.5-1.3-.7-.5-1-.7-.9-.4-1.7-.5-1.1-.2-1.2-.2l-1-.3c-.6-.1-1.2-.2-1.6-.4-2.8-.8-4.8-1.7-6.1-2.8s-1.9-2.7-1.9-4.6c0-1.4.3-2.6.8-3.8s1.2-2 2-2.7c2.4-2 5.7-3 9.9-3 3.4 0 6 .6 7.9 1.8 1.2.9 2.1 1.8 2.5 2.6s.7 1.9.9 3.2l-.5.5c-3.1.1-5.8.2-8.2.2-.7 0-1.1-.2-1.3-.6-.1-.2-.1-.4-.2-.5-.2-.4-.7-.6-1.6-.6h-.1c-.7 0-1.3.2-1.8.5s-.7.6-.7.9.1.6.2.8.3.4.4.5.4.2.7.4.6.2.7.2.4.1.7.2l.6.2c.2.1 1 .2 2.2.5s2.2.6 3 .8c2.5.8 4.2 1.9 5.1 3.2s1.4 2.7 1.4 4.4c0 4.5-2.7 7.4-8 8.7-1.5.4-3.2.7-5 .8-2.2 0-4.3-.3-6.4-.9s-3.5-1.7-4.2-3.1c-.5-.7-.8-1.3-1-1.9s-.3-1.4-.4-2.4c.2-.1.3-.1.4-.1zM412.9 494.9l-.1 4.9c0 1.5-.2 2.8-.7 4s-1.1 2.1-1.9 2.8c-2.2 2-5.4 3-9.6 3s-7.5-1-9.9-3.1c-.8-.7-1.5-1.6-2.1-2.8s-.9-2.4-1-3.9c.1-4.9.1-9.4.1-13.6-.1 0-.1-.6-.1-1.8s.1-2 .2-2.3h.4c1.7-.1 4.1-.1 7-.1.2 0 .6.1 1.2.1s.9 0 1.2.1l.5.1c.1 2.3.1 5.5.2 9.6l-.1 7.1c0 2.3.7 3.5 2 3.5.6 0 1.1-.3 1.5-.8s.6-1.1.6-1.7l.1-.2.1-5.9v-.5c0-2.7 0-5.3-.1-7.9v-2.7c0-.4.1-.7.2-.8 4.5 0 7.9 0 10.2.1.1.1.2.2.3.2l.2.1c-.1 2.2-.1 5.1-.1 8.5v3l-.3 1zM424 482.1l5.6-.1c1.2 0 2.3 0 3.3.1 2.6.1 4.6.7 6 1.8s2 2.8 2 4.9c0 1.5-.4 2.7-1.3 3.8s-2.1 1.9-3.7 2.7c2.6.8 4.2 2.8 4.7 6 .1.7.2 1.5.3 2.4s.1 1.5.2 1.8l.2.9c.2 1.1.4 1.8.5 2.3l-.1.1c-2 .1-3.8.2-5.5.2s-3.1 0-4.4-.1h-.1c-.4 0-.8-1.7-1.2-5.2l-.1-.8c0-1.3-.3-2.2-.7-2.6s-1.1-.7-2.1-.7h-1.1v9.1c0 .1-.1.2-.3.2-1.3 0-3.1.1-5.5.1H416s-.1 0-.1-.1v-2.1l.1-7.3V491.7l-.1-4 .1-5.6c0-.1.3-.1 1-.1h4.4l2.6.1zm6.5 5.7c-.7-.3-1.6-.5-2.8-.5h-1c-.1.2-.2 1.2-.2 3s0 3 .1 3.6c3.7-.1 5.5-1.3 5.5-3.8-.1-1-.6-1.8-1.6-2.3zm11.3 20.9zm.1-.1c-.1 0-.1 0 0 0zM456.2 496.9v-14.5h1.6l2.2-.1h4.1l5.2-.1c.7 0 1.5 0 2.3.1h.9c2.3 0 4.3.7 6 2.2.8.7 1.4 1.6 1.9 2.8s.7 2.3.7 3.5-.1 2.2-.4 3.1-.6 1.6-.9 2.1c-1.5 2.4-4.5 3.8-9 4.1l-3.8.2c-.1 2.8-.2 5-.2 6.6v1.9c0 .2-.1.3-.3.3l-10 .2c-.2-.6-.3-1.5-.3-2.7v-9.7zm15.4-7.5c-.5-1.2-1.7-1.9-3.7-2h-1.2c-.1 0-.2 1.7-.3 5.2v1.3l.1 1.1c1.4 0 2.7-.3 3.8-.9s1.6-1.7 1.6-3.2c0-.7-.1-1.2-.3-1.5zM503.3 501.8c-.1.3-.1.7-.1 1.1v.4c0 .6 0 1.1.1 1.3v4.1c-.1.3-5.9.5-17.3.5h-2.6c-.2-.4-.3-.9-.3-1.7v-20l-.1-2.5c0-1.5.1-2.5.4-2.9h4.8c3.4 0 5.2.2 5.6.6l-.1 6.1-.1 5.2v.2l-.1 7.3.7.4c2.1-.1 4.2-.2 6.2-.2s2.9-.1 2.9.1z"/><path class="st5" d="M533.1 508.7c0 .2-.3.2-1 .2h-5.5c-1.7 0-3.1 0-4.2-.1 0 0-.1-.1-.1-.2l-.1-.4c-.1-1.2-.4-2.4-.8-3.5l-7.5.1c0 .2-.2.8-.5 1.8s-.5 1.7-.6 2.2c-.1.1-.7.2-1.7.2h-1.4l-4.6.1h-2.2l-.3-.3c1.2-4.1 2.8-9.1 4.8-15.1l.4-1.2.5-1.5c.2-.5.6-1.8 1.3-3.9s1.2-3.5 1.4-4.1.3-.9.3-1h2.9l6.2-.1 1.7.1 1.4-.1c.7 0 1.1.1 1.1.4 1.2 3.3 2.7 8 4.7 14.1s3.1 9.6 3.3 10.4l.2.9c0 .4.1.7.3 1zm-17.4-9.6h4.9c-.2-1.4-.3-2.4-.4-3.1l-.7-3c-.7-3.1-1.1-4.7-1.1-4.7s0-.1-.1-.2 0-.1 0-.1v-.1c0-.1 0-.1-.1-.1s0 0-.1-.1-.3-.3-.5-.4c-.3.1-1.3 3.6-2.8 10.6l-.2 1.2h1.1zM532.9 494.5c.3-2.7.8-4.7 1.4-6 1.3-2.6 3.1-4.4 5.6-5.5 2.2-1 4.6-1.5 7.2-1.5 4.4 0 7.5 1.2 9.5 3.6 1.2 1.4 1.9 3.2 2.1 5.3l.2 1.7c-.2.2-1.5.3-3.8.3H549.8c-.3 0-.6-.5-.7-1.4s-.4-1.6-.8-1.9-.7-.5-1.2-.5-.9.1-1.2.2-.6.4-.9.6-.4.6-.6 1c-.3.7-.5 1.5-.5 2.3s-.1 1.7-.1 2.7v.4l-.1 1.8c0 3.2.9 4.9 2.7 5 .5 0 .8-.1 1-.2.5-.4.9-1.3 1.3-2.7.1-.3.2-.5.3-.7h9.6c.1 0 .2.1.3.4l-.1.6c-.1 1.4-.4 2.6-1 3.8-1 2.1-2.6 3.6-4.7 4.6s-4.5 1.5-7 1.5c-4.5 0-7.8-1.3-10.1-4s-3.1-6.5-3.1-11.4zM561.4 486.8l-.1-4.6s.1 0 .1.1c8.9-.2 15.6-.2 20.1-.2l.1.1v6.2c-.1.2-.4.3-1 .3h-.1c-2.8 0-5.8 0-8.9-.1v.6c0 .3 0 .5-.1.6l-.1.7c-.1.4-.1 1.2-.1 2.3l5.4-.1h2.3c.7 0 1.2 0 1.4.1s.3.2.3.4v.5l.1 4.5c-3.6.2-6.4.3-8.5.3h-.8v4.3l9.5-.3c.5 0 .9.1 1 .2v1.3l.1 4.8c0 .3-.1.5-.4.5l-5.8-.1c-1.1 0-3.4 0-6.9.1l-2.9.1c-2 .1-3.6.1-4.5.1h-.1l-.3-.3v-.6l.1-18.8.1-3zM359 565.6c-3.4 0-6.5-.3-9.3-.9-2.8-.6-4.9-1.1-6.4-1.7l-1.2-9.8c1.2.5 2.7.9 4.4 1.4 1.7.5 3.6.9 5.6 1.2 2 .3 4 .5 6.1.5 2.5 0 4.3-.2 5.6-.6 1.3-.4 2.1-.9 2.6-1.5.4-.6.7-1.3.7-2v-.2c0-1.1-.5-2-1.4-2.7s-2.5-1-4.6-1c-2.1 0-3.9.3-5.4.8-1.5.5-2.7 1.2-3.6 1.9l-9.8-2v-21.6h34.8v9.1h-24l.1 5-.1 4.4h.3c.8-1.8 2.1-3.2 4.1-4.4 2-1.2 4.7-1.7 8.3-1.7 4.4 0 7.7 1 9.8 3.1 2.2 2.1 3.2 5 3.2 8.7v.5c0 2.5-.6 4.8-1.8 6.8-1.2 2-3.2 3.6-6.1 4.8-2.8 1.3-6.8 1.9-11.9 1.9zM401 565.6c-3.4 0-6.5-.3-9.3-.9-2.8-.6-4.9-1.1-6.4-1.7l-1.2-9.8c1.2.5 2.7.9 4.4 1.4 1.7.5 3.6.9 5.6 1.2 2 .3 4 .5 6.1.5 2.5 0 4.3-.2 5.6-.6 1.3-.4 2.1-.9 2.6-1.5.4-.6.7-1.3.7-2v-.2c0-1.1-.5-2-1.4-2.7s-2.5-1-4.6-1c-2.1 0-3.9.3-5.4.8-1.5.5-2.7 1.2-3.6 1.9l-9.8-2v-21.6h34.8v9.1h-24l.1 5-.1 4.4h.3c.8-1.8 2.1-3.2 4.1-4.4 2-1.2 4.7-1.7 8.3-1.7 4.4 0 7.7 1 9.8 3.1 2.2 2.1 3.2 5 3.2 8.7v.5c0 2.5-.6 4.8-1.8 6.8-1.2 2-3.2 3.6-6.1 4.8-2.8 1.3-6.8 1.9-11.9 1.9zM430.9 572.2H420l29-46.8h10.8l-28.9 46.8zM478.8 565.6c-3.4 0-6.5-.3-9.3-.9s-4.9-1.1-6.4-1.7l-1.2-9.8c1.2.5 2.7.9 4.4 1.4 1.7.5 3.6.9 5.6 1.2 2 .3 4 .5 6.1.5 2.5 0 4.3-.2 5.6-.6 1.3-.4 2.1-.9 2.6-1.5.4-.6.7-1.3.7-2v-.2c0-1.1-.5-2-1.4-2.7-.9-.6-2.5-1-4.6-1-2.1 0-3.9.3-5.4.8-1.5.5-2.7 1.2-3.6 1.9l-9.8-2v-21.6H497v9.1h-24l.1 5-.1 4.5h.3c.8-1.8 2.1-3.2 4.1-4.4 2-1.2 4.7-1.7 8.3-1.7 4.4 0 7.7 1 9.8 3.1 2.2 2.1 3.2 5 3.2 8.7v.5c0 2.5-.6 4.8-1.8 6.8-1.2 2-3.2 3.6-6.1 4.8-2.9 1.2-6.9 1.8-12 1.8zM523.6 565.8c-6.7 0-11.7-1.7-15.2-5s-5.2-8.2-5.2-14.6v-.4c0-6.4 1.7-11.2 5.2-14.6 3.5-3.3 8.5-5 15.2-5s11.8 1.7 15.2 5c3.5 3.3 5.2 8.2 5.2 14.6v.4c0 6.4-1.7 11.3-5.2 14.6-3.4 3.4-8.5 5-15.2 5zm0-9.5c2.9 0 5-.9 6.3-2.6s2-4.2 2-7.4v-.5c0-3.2-.7-5.7-2-7.4s-3.5-2.6-6.3-2.6-5 .9-6.3 2.6c-1.3 1.7-2 4.2-2 7.4v.5c0 3.2.7 5.7 2 7.4 1.4 1.7 3.5 2.6 6.3 2.6zM595.2 544.5h-33.6l.6-5.6h33.6l-.6 5.6zm0 8.4h-33.6l.6-5.6h33.6l-.6 5.6zm-6.5 12.9c-7.9 0-13.7-1.7-17.4-5.2-3.7-3.5-5.6-8.3-5.6-14.5v-.5c0-6.1 1.8-10.8 5.5-14.3s9.5-5.2 17.4-5.2c2.2 0 4.3.2 6.2.6 1.9.4 3.5.8 4.7 1.3l1 9.7c-1.4-.6-2.9-1-4.7-1.4-1.8-.3-3.8-.5-5.9-.5-4.2 0-7.2.9-9 2.6-1.8 1.7-2.7 4.1-2.7 7.1v.5c0 3 .9 5.4 2.8 7.2 1.8 1.8 5 2.7 9.6 2.7 2.1 0 4-.2 5.8-.6 1.8-.4 3.2-.8 4.4-1.3l-1 10c-.9.3-2.4.7-4.3 1.2-2 .4-4.2.6-6.8.6z"/></g><path class="st2" d="m461.5 760.6-32.3-32.3 50.8-50.8 32.3 32.3-50.8 50.8zm66.4-62.8-9.4-9.4c-.9.5-1.8.9-2.9 1.2-1 .3-2.1.4-3.2.4-3.5 0-6.5-1.2-8.9-3.7s-3.7-5.5-3.7-9c0-1.1.1-2.2.4-3.2.2-1 .6-2 1.1-2.9l-9.4-9.4c-1.2-1.2-2.7-1.8-4.4-1.8s-3.3.6-4.6 1.8l-68.6 68.7c-1.2 1.2-1.8 2.7-1.8 4.4s.6 3.2 1.8 4.4l9.4 9.4c.9-.5 1.8-.9 2.9-1.1s2.1-.4 3.2-.4c3.5 0 6.5 1.2 8.9 3.7 2.4 2.4 3.7 5.4 3.7 8.9 0 1.1-.1 2.2-.4 3.2-.2 1-.6 2-1.1 2.9l9.4 9.4c1.2 1.2 2.7 1.8 4.4 1.8s3.3-.6 4.6-1.8l68.6-68.6c1.2-1.2 1.8-2.7 1.8-4.5s-.6-3.2-1.8-4.4zm-88.6 30.5 22.2 22.2 40.7-40.7-22.2-22.2-40.7 40.7z"/><g><path class="st2" d="M63.9 660.2H44.2v-2.7H64v2.7zm-8.2 16.4h-3.3v-18.1h3.3v18.1zM65.8 676.6h-3.5l8.8-19.1h5l8.8 19.1h-3.5l-7.6-17h-.5l-7.5 17zm14.1-5.3H67.6v-2.7h12.3v2.7zM91.8 676.6h-3.3v-19.1h3.3v19.1zm16 0h-3.5l-.6-3.1c-.2-.9-.4-1.6-.7-2.2s-.7-1-1.3-1.3c-.6-.3-1.4-.4-2.5-.4h-8.4V667h9c1.5 0 2.5-.3 3.2-.9.7-.6 1-1.4 1-2.5v-.2c0-1-.3-1.8-1-2.4s-1.7-.9-3.2-.9h-9.1v-2.7h9.5c2.5 0 4.3.5 5.4 1.4 1.1.9 1.7 2.3 1.7 4v.2c0 1.3-.3 2.4-1 3.1s-1.8 1.3-3.2 1.5v.4l-1.7-.5c1.3.1 2.3.3 3 .7.7.4 1.3 1 1.6 1.8.4.8.7 1.7.9 2.8l.9 3.8zM115.5 657.4v19.1h-3.3v-19.1h3.3zM124.3 676.6H121v-19.1h3.3v19.1zm13.5-16.4h-16.6v-2.7h16.6v2.7zm-.3 8.9h-14.7v-2.7h14.7v2.7zM155.2 676.6h-6v-19.1h6v19.1zm4.6 0h-6.2v-4.9h6.1c1.6 0 2.8-.4 3.6-1.2s1.2-1.9 1.2-3.3v-.3c0-1.4-.4-2.5-1.2-3.3-.8-.8-2-1.2-3.6-1.2h-6.1v-4.9h6.2c3.6 0 6.3.8 8.1 2.4 1.8 1.6 2.8 3.9 2.8 7v.3c0 3-.9 5.4-2.8 7s-4.5 2.4-8.1 2.4zM180 657.4v19.1h-6.1v-19.1h6.1zM192.7 677.1c-1.2 0-2.3-.1-3.4-.2s-2.1-.3-3-.6c-.9-.2-1.7-.5-2.4-.7l-.6-5.4c1.2.5 2.6.9 4.3 1.3 1.7.4 3.4.6 5.1.6 1.5 0 2.6-.1 3.1-.3s.8-.5.8-1v-.1c0-.3-.1-.6-.4-.8-.3-.2-.8-.3-1.4-.5-.7-.1-1.6-.2-2.9-.4-2-.2-3.6-.6-5-1-1.3-.4-2.3-1-3-1.9s-1-1.9-1-3.4v-.1c0-2 .8-3.5 2.4-4.5 1.6-1 3.9-1.5 7-1.5 1.9 0 3.6.1 5 .4s2.6.6 3.7 1l.7 4.9c-1.3-.5-2.6-.9-4.1-1.2-1.5-.3-3-.4-4.6-.4-1.1 0-1.9 0-2.4.1s-.9.2-1.1.4-.3.4-.3.7c0 .3.1.5.3.7.2.2.7.4 1.3.5.7.1 1.6.3 3 .4 1.9.2 3.6.5 4.9.9 1.3.4 2.4 1 3.1 1.8.7.8 1 1.9 1 3.3v.2c0 2.2-.8 3.9-2.5 4.9-1.6 1.4-4.1 1.9-7.6 1.9zM211.9 676.6H206v-19.1h5.9v19.1zm5.4-5.2h-6.9v-4.6h6.6c1 0 1.8-.2 2.3-.6.5-.4.7-.9.7-1.7v-.2c0-.8-.2-1.4-.7-1.7-.5-.4-1.3-.6-2.3-.6h-6.6v-4.6h6.9c3 0 5.2.6 6.7 1.8s2.1 2.9 2.1 5.1v.2c0 2.2-.7 3.9-2.1 5.1-1.5 1.2-3.7 1.8-6.7 1.8zM240 677.3c-3.9 0-6.8-.9-8.8-2.7s-3-4.3-3-7.5v-.2c0-3.2 1-5.7 3-7.5 2-1.8 4.9-2.7 8.8-2.7s6.8.9 8.8 2.7c2 1.8 3 4.3 3 7.5v.2c0 3.2-1 5.7-3 7.5s-5 2.7-8.8 2.7zm0-5c1.8 0 3.1-.5 4-1.4.9-.9 1.4-2.2 1.4-3.8v-.2c0-1.6-.5-2.9-1.4-3.8-.9-.9-2.3-1.4-4-1.4-1.8 0-3.1.5-4.1 1.4-.9.9-1.4 2.2-1.4 3.8v.2c0 1.6.5 2.9 1.4 3.8.9 1 2.3 1.4 4.1 1.4zM268.3 657.4l-.6 12.6h-5.2l-.6-12.6h6.4zm-3.2 19.7c-1.1 0-1.9-.2-2.4-.7s-.8-1.2-.8-2v-.1c0-.9.3-1.5.8-2s1.3-.7 2.4-.7c1.1 0 1.9.2 2.4.7.5.5.8 1.2.8 2v.1c0 .8-.3 1.5-.8 2-.5.4-1.3.7-2.4.7zM88.1 710.9v2.7c0 .2-.1.3-.1.3l-12.8.4c-.2-.1-.3-.3-.4-.4v-4.8c0-1 .1-1.5.2-1.5h5.1l5.3-.1h2.5c.2.2.2 1.2.2 3v.4zM108.6 695.8v5.2c0 3.4 0 6.4.1 8.9l.2 10.9c-.3.3-1 .4-2.3.4H102.3c-1.2 0-2.4 0-3.5-.1l-.3-.4c-.1-.2-.2-.5-.2-1.1s0-4.4.1-11.4l.1-4.8c-1.9 1.3-3.8 2.3-5.6 2.8-.1 0-.1-.1-.1-.2v-2.7c0-3.1 0-4.6.1-4.6s.2-.1.5-.3.6-.3 1-.5.6-.3.7-.3.2-.1.3-.2c3-1.4 4.9-2.7 5.5-3.7l5.4.1c1.1 0 1.9 0 2.4-.1 0 .1.1.4.1 1v1.1zM141.9 716.7l-.1 3.4v.4c0 .3-.1.5-.4.5l-7.2-.2c-5 0-10.3.1-15.8.4l-.2-.3c-.2-.1-.3-.7-.3-1.6v-5.2c0-.2.9-.9 2.8-2.1l3-2c2.1-1.5 3.7-2.7 4.8-3.7 1.9-1.7 2.9-3.3 2.9-4.7 0-.6-.2-1.1-.6-1.5s-.8-.5-1.4-.5-1 .1-1.3.4c-.3.3-.5.6-.6.9-.2 1-.4 1.5-.6 1.6h-8.4c-.4 0-.6-.1-.7-.2.1-1.4.3-2.5.5-3.1.3-1.1.8-2.1 1.6-2.9s1.7-1.5 2.8-1.9c2.1-.9 4.5-1.3 7.1-1.3 4.1 0 7.2.9 9.4 2.8 1.6 1.4 2.4 3.2 2.4 5.4 0 2.8-1.3 5.4-3.8 7.8-1.3 1.2-2.9 2.4-5 3.8l-1.2 1.1 8.6-.2c.7 0 1.2.2 1.5.7s.2 1.2.2 2.2zM183.4 720.8c0 .2-.3.2-1 .2h-5.5c-1.7 0-3.1 0-4.2-.1 0 0-.1-.1-.1-.2l-.1-.4c-.1-1.2-.4-2.4-.8-3.5l-7.5.1c0 .2-.2.8-.5 1.8s-.5 1.7-.6 2.2c-.1.1-.7.2-1.7.2H160l-4.6.1h-2.2l-.3-.3c1.2-4.1 2.8-9.1 4.8-15.1l.4-1.2.5-1.5c.2-.5.6-1.8 1.3-3.9s1.2-3.5 1.4-4.1.3-.9.3-1h2.9l6.2-.1 1.7.1 1.4-.1c.7 0 1.1.1 1.1.4 1.2 3.3 2.7 8 4.7 14.1s3.1 9.6 3.3 10.4l.2.9c0 .3.2.6.3 1zm-17.4-9.6h4.9c-.2-1.4-.3-2.4-.4-3.1l-.7-3c-.7-3.1-1.1-4.7-1.1-4.7s0-.1-.1-.2 0-.1 0-.1v-.1c0-.1 0-.1-.1-.1s0 0-.1-.1-.3-.3-.5-.4c-.3.1-1.3 3.6-2.8 10.6l-.2 1.2h1.1zM211 708.3V720.8c-.1.1-.4.1-.9.1h-.5l-5.5.1h-5.2c-.2-.2-.8-1.9-1.9-5.1l-3.4-8.9h-.6v6.6l.1 4.8v2c0 .5-.1.8-.4.8-1.2 0-2.3-.1-3.3-.1h-.5l-2.7.1H184.4c-.4-.4-.6-.6-.6-.8v-.8l.1-6.9c0-7.5.1-13.2.2-17.1v-1.5c0-.1 4-.2 12.1-.3.1 0 .2.3.3.8v-.1l.1.4c.9 2.5 1.9 5.3 3.2 8.6s1.9 4.9 1.9 4.9h.6l.1-14.3c0-.1.9-.1 2.6-.1l4.4.1h1.3c.3 3.9.3 8.6.3 14.2zM213.8 713.3l9.3-.2c.2 0 .4.2.6.6s.3.7.5.9c.4.6 1 .8 1.8.8s1.5-.2 2-.6.8-.9.8-1.5-.2-1-.5-1.3-.7-.5-1-.7-.9-.4-1.7-.5-1.1-.2-1.2-.2l-1-.3c-.6-.1-1.2-.2-1.6-.4-2.8-.8-4.8-1.7-6.1-2.8s-1.9-2.7-1.9-4.6c0-1.4.3-2.6.8-3.8s1.2-2 2-2.7c2.4-2 5.7-3 9.9-3 3.4 0 6 .6 7.9 1.8 1.2.9 2.1 1.8 2.5 2.6s.7 1.9.9 3.2l-.5.5c-3.1.1-5.8.2-8.2.2-.7 0-1.1-.2-1.3-.6-.1-.2-.1-.4-.2-.5-.2-.4-.7-.6-1.6-.6h-.1c-.7 0-1.3.2-1.8.5s-.7.6-.7.9.1.6.2.8.3.4.4.5.4.2.7.4.6.2.7.2.4.1.7.2l.6.2c.2.1 1 .2 2.2.5s2.2.6 3 .8c2.5.8 4.2 1.9 5.1 3.2s1.4 2.7 1.4 4.4c0 4.5-2.7 7.4-8 8.7-1.5.4-3.2.7-5 .8-2.2 0-4.3-.3-6.4-.9s-3.5-1.7-4.2-3.1c-.5-.7-.8-1.3-1-1.9s-.3-1.4-.4-2.4c.3-.1.4-.1.4-.1zM114.5 776.6h-11.7v-26.5h-.4l-9.4 3.1.3-10.1 10.7-3.6h10.6v37.1zM141.5 777.9c-6.7 0-11.7-1.7-15.2-5s-5.2-8.2-5.2-14.6v-.4c0-6.4 1.7-11.2 5.2-14.6 3.5-3.3 8.5-5 15.2-5 6.7 0 11.8 1.7 15.2 5 3.5 3.3 5.2 8.2 5.2 14.6v.4c0 6.4-1.7 11.3-5.2 14.6-3.5 3.3-8.6 5-15.2 5zm0-9.6c2.9 0 5-.9 6.3-2.6s2-4.2 2-7.4v-.5c0-3.2-.7-5.7-2-7.4s-3.5-2.6-6.3-2.6c-2.9 0-5 .9-6.3 2.6-1.3 1.7-2 4.2-2 7.4v.5c0 3.2.7 5.7 2 7.4 1.3 1.7 3.4 2.6 6.3 2.6zM213 756.5h-33.6l.6-5.6h33.6l-.6 5.6zm0 8.5h-33.6l.6-5.6h33.6l-.6 5.6zm-6.4 12.9c-7.9 0-13.7-1.7-17.4-5.2-3.7-3.5-5.6-8.3-5.6-14.5v-.5c0-6.1 1.8-10.8 5.5-14.3s9.5-5.2 17.4-5.2c2.2 0 4.3.2 6.2.6 1.9.4 3.5.8 4.7 1.3l1 9.7c-1.4-.6-2.9-1-4.7-1.4-1.8-.3-3.8-.5-5.9-.5-4.2 0-7.2.9-9 2.6-1.8 1.7-2.7 4.1-2.7 7.1v.5c0 3 .9 5.4 2.8 7.2 1.8 1.8 5 2.7 9.6 2.7 2.1 0 4-.2 5.8-.6 1.8-.4 3.2-.8 4.4-1.3l-1 10c-.9.3-2.4.7-4.3 1.2-2 .4-4.3.6-6.8.6z"/></g><g><path class="st2" d="M79.1 892.3v-2.8c0-2.9.1-6.2.2-9.9l-.1-.1 1.8-.1c5.8-.3 9.6-.5 11.3-.5h15.5c5.3 0 9.7 1.1 13.2 3.3 1.2 1.1 2.3 2.5 3 4.3.8 1.8 1.2 3.8 1.2 6.1 0 4.4-2.9 8.1-8.8 11.2 3.3.9 5.9 2.4 7.6 4.4 1.8 2 2.7 4.5 2.7 7.4 0 5.2-2.3 9.1-6.9 11.7-3.4 2-7.7 3-12.9 3l-9.9-.1c-4.3 0-10 .1-17.1.3-.6-1.3-.9-6.5-.9-15.6s-.1-16.5.1-22.6zm27.9 5.6c.4-.8.7-1.9.7-3.1 0-2.3-.8-3.9-2.5-4.7-1.7-.8-3.4-1.2-5.2-1.2-1.8 0-2.7.7-2.7 2 0 2.4.1 4.8.2 7.3l.1 1.8c0 .8.5 1.3 1.5 1.5l1.6-.2c3.2-.4 5.3-1.5 6.3-3.4zm-7.2 22.4c5.8 0 8.6-2 8.6-6 0-2.6-.8-4.3-2.3-5.1-1.4-.8-3.5-1.2-6.4-1.3h-1l-.6 1.9c-.2 2.3-.2 4.5-.2 6.8 0 2.2.2 3.5.7 3.8h1.2zM131.3 926c0-4.5.1-7.6.4-9.4 0-9.7.1-19.4.4-29.3-.1-1.4-.1-2.8-.1-4.2V882c-.1-.7-.1-1.3-.1-1.8s.1-.9.2-1c4.8.3 8.9.4 12.5.4 3.6 0 6-.1 7.4-.2 0 .1.1.3.1.6h-.2v12l.2 27.2c0 .2 0 .4.1.5v.1c.1.1.1.3.1.4l.3 9.7c-.1.2-.3.4-.6.6h-1.1l-18.7.3c-.2-.1-.5-.3-.9-.5V926zM198.3 916.8c-.2.6-.2 1.3-.2 2v.8c0 1.2.1 2 .2 2.5v7.8c-.1.6-11.1.9-32.9.9-1 0-2.7 0-5-.1-.4-.7-.5-1.8-.5-3.3l.1-2.2V894.9c0-1.9 0-3.6-.1-5.3v-.4l-.1-4.8c0-2.8.2-4.7.7-5.5H163.9l5.6-.1c6.4 0 9.9.4 10.5 1.2l-.3 11.6-.1 9.8v.4l-.1 13.9 1.3.8c4-.2 7.9-.4 11.7-.4s5.7.3 5.8.7zM240.5 916.8c-.2.6-.2 1.3-.2 2v.8c0 1.2.1 2 .2 2.5v7.8c-.1.6-11.1.9-32.9.9-1 0-2.7 0-5-.1-.4-.7-.5-1.8-.5-3.3l.1-2.2V894.9c0-1.9 0-3.6-.1-5.3v-.4l-.1-4.8c0-2.8.2-4.7.7-5.5H206.1l5.6-.1c6.4 0 9.9.4 10.5 1.2l-.3 11.6-.1 9.8v.4l-.1 13.9 1.3.8c4-.2 7.9-.4 11.7-.4s5.7.3 5.8.7zM244.1 888.3l-.2-8.8s.1 0 .2.1c16.9-.3 29.6-.4 38.2-.5.1 0 .2.1.2.2v9.4c0 .9 0 1.7-.1 2.2-.1.4-.8.5-2 .5h-.2c-5.4 0-11-.1-16.8-.3 0 .2 0 .6-.1 1.1-.1.5-.1.9-.1 1.1l-.2 1.3c-.1.8-.2 2.3-.2 4.4l10.3-.2c1.8 0 3.1-.1 3.9-.1h.5c1.4 0 2.2 0 2.7.1.4.1.6.3.6.7v1.1l.2 8.6c-6.8.3-12.2.5-16.2.5h-1.6v8.1l18.1-.6c1 0 1.6.1 1.9.4v2.5l.2 9.1c0 .6-.2.9-.7 1l-11.1-.1c-2.2 0-6.5.1-13 .2l-5.5.1c-3.9.1-6.7.2-8.6.2l-.1-.1-.6-.6v-1.2l.2-35.7.1-4.7zM328.4 891.7c0 .7-.1 1.1-.2 1.1l-12.1-.1c0 2.2-.1 5.5-.1 10.1v9.5l.1 17.7c-.1.3-.3.5-.7.5l-7-.1h-12l-.6-.5s-.2-.2-.4-.5c0-2 .1-6.3.2-13l.4-17.7-.1-.8c-.2-2.2-.3-3.5-.5-3.9-.1-.4-.4-.6-.9-.7h-.9l-1.3.1-8.3-.1c-.3-.6-.4-1.9-.4-3.9l.1-2.9v-.9c0-3.6-.1-5.5-.1-5.7 0 0 .1 0 .3.1l42.5-.4c.9 0 1.4.1 1.6.2s.3.3.3.7v8.8l.1 2.4z"/><path class="st2" d="M372.4 891.7c0 .7-.1 1.1-.2 1.1l-12.1-.1c0 2.2-.1 5.5-.1 10.1v9.5l.1 17.7c-.1.3-.3.5-.7.5l-7-.1h-12l-.6-.5s-.2-.2-.4-.5c0-2 .1-6.3.2-13l.4-17.7-.1-.8c-.2-2.2-.3-3.5-.5-3.9-.1-.4-.4-.6-.9-.7h-.9l-1.3.1-8.3-.1c-.3-.6-.4-1.9-.4-3.9l.1-2.9v-.9c0-3.6-.1-5.5-.1-5.7 0 0 .1 0 .3.1l42.5-.4c.9 0 1.4.1 1.6.2.2.1.3.3.3.7v8.8l.1 2.4zM375.6 888.3l-.2-8.8s.1 0 .2.1c16.9-.3 29.6-.4 38.2-.5.1 0 .2.1.2.2v9.4c0 .9 0 1.7-.1 2.2-.1.4-.8.5-2 .5h-.2c-5.4 0-11-.1-16.8-.3 0 .2 0 .6-.1 1.1-.1.5-.1.9-.1 1.1l-.2 1.3c-.1.8-.2 2.3-.2 4.4l10.3-.2c1.8 0 3.1-.1 3.9-.1h.5c1.4 0 2.2 0 2.7.1.4.1.6.3.6.7v1.1l.2 8.6c-6.8.3-12.2.5-16.2.5h-1.6v8.1l18.1-.6c1 0 1.6.1 1.9.4v2.5l.2 9.1c0 .6-.2.9-.7 1l-11.1-.1c-2.2 0-6.5.1-13 .2l-5.5.1c-3.9.1-6.7.2-8.6.2l-.1-.1-.6-.6v-1.2l.2-35.7.1-4.7zM434 879.4l10.7-.1c2.3 0 4.3 0 6.2.1 5 .1 8.7 1.3 11.3 3.5 2.6 2.2 3.9 5.3 3.9 9.3 0 2.8-.8 5.2-2.4 7.1s-4 3.7-7.1 5.2c4.9 1.6 7.9 5.3 9 11.3.2 1.3.4 2.8.6 4.5.1 1.7.3 2.8.3 3.4l.3 1.7c.4 2 .7 3.4.9 4.3l-.1.1c-3.8.2-7.2.4-10.4.4s-5.9-.1-8.3-.2h-.2c-.7 0-1.4-3.3-2.2-9.8l-.2-1.4c-.1-2.4-.5-4.1-1.3-4.9-.8-.8-2.1-1.3-4-1.3h-2.2V929.9c-.1.2-.2.4-.5.4-2.4.1-5.9.1-10.4.1h-8.8l-.2-.1h-.1s-.1 0-.2-.1l.1-3v-1l.1-13.8v-14.6l-.1-7.6.1-10.6c0-.2.6-.3 1.9-.3h8.3l5 .1zm12.3 10.9c-1.3-.6-3.1-.9-5.3-.9h-2c-.2.4-.4 2.2-.4 5.6 0 3.4.1 5.7.2 6.8 7-.2 10.4-2.6 10.4-7.2.1-1.9-.9-3.4-2.9-4.3zm21.4 39.5c0 .1 0 0 0 0zm.2-.1-.2.1v-.1h.2zM470.8 926c0-4.5.1-7.6.4-9.4 0-9.7.1-19.4.4-29.3-.1-1.4-.1-2.8-.1-4.2V882c-.1-.7-.1-1.3-.1-1.8s.1-.9.2-1c4.8.3 8.9.4 12.5.4s6-.1 7.4-.2c0 .1.1.3.1.6h-.2v12l.2 27.2c0 .2 0 .4.1.5v.1c.1.1.1.3.1.4l.3 9.7c-.1.2-.3.4-.6.6h-1.1l-18.7.3c-.2-.1-.5-.3-.9-.5V926zM499.3 888.3l-.2-8.8s.1 0 .2.1c16.9-.3 29.6-.4 38.2-.5.1 0 .2.1.2.2v9.4c0 .9 0 1.7-.1 2.2-.1.4-.8.5-2 .5h-.2c-5.4 0-11-.1-16.8-.3 0 .2 0 .6-.1 1.1-.1.5-.1.9-.1 1.1l-.2 1.3c-.1.8-.2 2.3-.2 4.4l10.3-.2c1.8 0 3.1-.1 3.9-.1h.5c1.4 0 2.2 0 2.7.1.4.1.6.3.6.7v1.1l.2 8.6c-6.8.3-12.2.5-16.2.5h-1.6v8.1l18.1-.6c1 0 1.6.1 1.9.4v2.5l.2 9.1c0 .6-.2.9-.7 1l-11.1-.1c-2.2 0-6.5.1-13 .2l-5.5.1c-3.9.1-6.7.2-8.6.2l-.1-.1-.6-.6v-1.2l.2-35.7.1-4.7z"/></g></svg>