<svg version="1.1" id="Calque_1" xmlns="http://www.w3.org/2000/svg" x="0" y="0" viewBox="0 0 1224 433.3" style="enable-background:new 0 0 1224 433.3" xml:space="preserve"><style>.st0{fill:#343434}.st1{fill:#d681a3}.st2{fill:#fff}.st3{fill:#ef7b90}.st4{fill:#808181}.st6{fill:#4e4d4d}</style><path class="st0" d="M1164.9 412.6H59.1c-21.1 0-38.4-17.3-38.4-38.4V220.6h1182.6v153.6c0 21.1-17.3 38.4-38.4 38.4z"/><path class="st0" d="M310.5 229.2V59.1c0-21.1 17.3-38.4 38.4-38.4h519.3c21.1 0 38.4 17.3 38.4 38.4v170.1H310.5z"/><path class="st1" d="M20.7 256v-93.4c0-21.1 17.3-38.4 38.4-38.4h296V256H20.7zM1203.3 256v-93.4c0-21.1-17.3-38.4-38.4-38.4h-149.3V256h187.7z"/><path class="st2" d="M59.1 433.3C26.5 433.3 0 406.8 0 374.1V199.9h1224v174.3c0 32.6-26.5 59.1-59.1 59.1H59.1z"/><path class="st2" d="M289.8 249.9V59.1c0-32.6 26.5-59.1 59.1-59.1h519.3c32.6 0 59.1 26.5 59.1 59.1v190.8H289.8z"/><path class="st2" d="M0 276.7V162.6c0-32.6 26.5-59.1 59.1-59.1h316.7v173.2H0zM836.2 276.7V103.5h328.7c32.6 0 59.1 26.5 59.1 59.1v114.1H836.2z"/><path class="st2" d="M1169.7 418.1H64c-21.1 0-38.4-17.3-38.4-38.4V168.2c0-21.1 17.3-38.4 38.4-38.4h1105.8c21.1 0 38.4 17.3 38.4 38.4v211.5c0 21.1-17.3 38.4-38.5 38.4z"/><path class="st0" d="M1164.9 412.6H59.1c-21.1 0-38.4-17.3-38.4-38.4V255.8h1182.6v118.4c0 21.1-17.3 38.4-38.4 38.4zM310.5 121.6V59.1c0-21.1 17.3-38.4 38.4-38.4h519.3c21.1 0 38.4 17.3 38.4 38.4v62.5H310.5z"/><path class="st3" d="M382.2 71.5h-7.1v-23h7.1v23zm6.5-6.2h-8.3v-5.5h8c1.2 0 2.2-.2 2.8-.7s.8-1.1.8-2.1v-.2c0-.9-.3-1.6-.9-2.1-.6-.4-1.5-.7-2.8-.7h-8v-5.5h8.3c3.6 0 6.3.7 8 2.1 1.7 1.4 2.6 3.5 2.6 6.1v.3c0 2.6-.9 4.6-2.6 6.1s-4.3 2.2-7.9 2.2zM405.4 71.5h-7.6l9.7-23h10.6l9.6 23h-7.6l-7-18.5h-.5l-7.2 18.5zm14.4-4.9h-14.1v-5.5h14.1v5.5zM440.6 72.1c-1.4 0-2.8-.1-4.1-.3-1.3-.2-2.5-.4-3.6-.7-1.1-.3-2.1-.6-2.9-.8l-.8-6.5c1.4.6 3.1 1.1 5.1 1.6 2 .5 4.1.7 6.2.7 1.8 0 3.1-.1 3.8-.4.7-.2 1-.7 1-1.3v-.1c0-.4-.2-.7-.5-1s-.9-.4-1.7-.6c-.8-.1-2-.3-3.4-.5-2.4-.3-4.4-.7-6-1.2-1.6-.5-2.8-1.2-3.6-2.2-.8-1-1.2-2.3-1.2-4v.2c0-2.4.9-4.2 2.8-5.4s4.7-1.8 8.4-1.8c2.3 0 4.3.2 6 .5s3.2.8 4.4 1.3l.8 5.9c-1.5-.6-3.2-1.1-5-1.4-1.8-.3-3.6-.5-5.5-.5-1.3 0-2.2.1-2.9.2-.7.1-1.1.3-1.3.5-.2.2-.3.5-.3.8 0 .3.1.6.4.9.3.2.8.4 1.6.6.8.2 2 .3 3.6.5 2.3.2 4.3.6 5.9 1 1.6.5 2.8 1.2 3.7 2.1s1.3 2.3 1.3 4v.2c0 2.7-1 4.6-3 5.9-2 1.2-5 1.8-9.2 1.8zM466.9 72.1c-1.4 0-2.8-.1-4.1-.3-1.3-.2-2.5-.4-3.6-.7-1.1-.3-2.1-.6-2.9-.8l-.8-6.5c1.4.6 3.1 1.1 5.1 1.6 2 .5 4.1.7 6.2.7 1.8 0 3.1-.1 3.8-.4.7-.2 1-.7 1-1.3v-.1c0-.4-.2-.7-.5-1s-.9-.4-1.7-.6c-.8-.1-2-.3-3.4-.5-2.4-.3-4.4-.7-6-1.2-1.6-.5-2.8-1.2-3.6-2.2-.8-1-1.2-2.3-1.2-4v.2c0-2.4.9-4.2 2.8-5.4s4.7-1.8 8.4-1.8c2.3 0 4.3.2 6 .5s3.2.8 4.4 1.3l.8 5.9c-1.5-.6-3.2-1.1-5-1.4-1.8-.3-3.6-.5-5.5-.5-1.3 0-2.2.1-2.9.2-.7.1-1.1.3-1.3.5-.2.2-.3.5-.3.8 0 .3.1.6.4.9.3.2.8.4 1.6.6.8.2 2 .3 3.6.5 2.3.2 4.3.6 5.9 1 1.6.5 2.8 1.2 3.7 2.1s1.3 2.3 1.3 4v.2c0 2.7-1 4.6-3 5.9-2 1.2-5.1 1.8-9.2 1.8zM511.6 71.5h-21.2v-6.2l7.2-3.5c1.5-.7 2.7-1.3 3.6-1.9.9-.5 1.5-1.1 1.9-1.6.4-.5.6-1.1.6-1.7v-.1c0-.5-.1-1-.4-1.4-.2-.4-.7-.7-1.4-1s-1.6-.4-2.9-.4c-1.6 0-3.1.2-4.6.6-1.5.4-2.8.8-3.9 1.3l.8-6.1c.7-.3 1.5-.6 2.5-.9.9-.3 2-.5 3.1-.7 1.1-.2 2.4-.3 3.7-.3 3.4 0 6.1.7 7.9 2 1.8 1.3 2.7 3.2 2.7 5.7v.3c0 1.2-.2 2.2-.6 3.1-.4.9-1 1.8-2 2.6-.9.8-2.2 1.6-3.8 2.3l-3.3 1.6v1.4l-3.2-1.2h13.2v6.1zM528.9 71.9c-.9 0-1.9-.1-2.9-.2s-1.9-.4-2.7-.6l-.6-6.1 2.4.6c.8.1 1.6.2 2.4.2 1.7 0 2.9-.3 3.5-1 .6-.7.9-1.8.9-3.3v-13h7.3v13.6c0 3.3-.8 5.7-2.4 7.4s-4.4 2.4-7.9 2.4zM556.8 72.3c-4.6 0-8.1-1.1-10.5-3.2-2.4-2.1-3.6-5.1-3.6-9v-.3c0-3.9 1.2-6.9 3.6-9 2.4-2.1 5.9-3.2 10.5-3.2s8.1 1.1 10.5 3.2c2.4 2.1 3.6 5.1 3.6 9v.3c0 3.9-1.2 6.9-3.6 9-2.3 2.1-5.8 3.2-10.5 3.2zm0-5.9c2.1 0 3.8-.6 4.9-1.7 1.1-1.1 1.7-2.6 1.7-4.6v-.3c0-2-.6-3.5-1.7-4.6s-2.7-1.7-4.9-1.7c-2.1 0-3.8.6-4.9 1.7s-1.7 2.6-1.7 4.6v.3c0 2 .6 3.5 1.7 4.6 1.2 1.2 2.8 1.7 4.9 1.7zM587.5 72.3c-4.3 0-7.6-1-9.8-3-2.2-2-3.3-4.9-3.3-8.8v-12h7.3v12.1c0 1.9.5 3.3 1.4 4.3 1 1 2.4 1.5 4.3 1.5s3.3-.5 4.3-1.5 1.4-2.4 1.4-4.3V48.5h7.3v12.1c0 3.9-1.1 6.8-3.2 8.8-2.1 1.9-5.3 2.9-9.7 2.9zM612.3 71.5h-7.1v-23h7.1v23zm17.9 0h-7.7l-.5-3c-.2-1-.4-1.7-.7-2.3-.3-.5-.7-.9-1.3-1.2-.6-.2-1.3-.3-2.3-.3h-7.6v-5.2h8.5c1.2 0 2.1-.2 2.7-.7.5-.5.8-1.1.8-1.9v-.2c0-.8-.3-1.5-.8-1.9-.5-.4-1.4-.7-2.7-.7h-8.5v-5.5h9.2c3.5 0 6 .6 7.6 1.7 1.6 1.1 2.4 2.7 2.4 4.9v.2c0 1.7-.5 2.9-1.5 3.8-1 .9-2.5 1.3-4.4 1.4v1.1l-.9-1c1.6.1 2.8.4 3.7.9.9.5 1.5 1.2 2 2.1s.8 2.1 1.1 3.6l.9 4.2zM644.1 72.1c-1.4 0-2.8-.1-4.1-.3-1.3-.2-2.5-.4-3.6-.7-1.1-.3-2.1-.6-2.9-.8l-.8-6.5c1.4.6 3.1 1.1 5.1 1.6 2 .5 4.1.7 6.2.7 1.8 0 3.1-.1 3.8-.4.7-.2 1-.7 1-1.3v-.1c0-.4-.2-.7-.5-1s-.9-.4-1.7-.6c-.8-.1-2-.3-3.4-.5-2.4-.3-4.4-.7-6-1.2-1.6-.5-2.8-1.2-3.6-2.2-.8-1-1.2-2.3-1.2-4v.2c0-2.4.9-4.2 2.8-5.4 1.9-1.2 4.7-1.8 8.4-1.8 2.3 0 4.3.2 6 .5 1.7.3 3.2.8 4.4 1.3l.8 5.9c-1.5-.6-3.2-1.1-5-1.4-1.8-.3-3.6-.5-5.5-.5-1.3 0-2.2.1-2.9.2-.7.1-1.1.3-1.3.5s-.3.5-.3.8c0 .3.1.6.4.9.3.2.8.4 1.6.6.8.2 2 .3 3.6.5 2.3.2 4.3.6 5.9 1 1.6.5 2.8 1.2 3.7 2.1s1.3 2.3 1.3 4v.2c0 2.7-1 4.6-3 5.9-2 1.2-5 1.8-9.2 1.8zM673.1 74.9h-7.4V54.1h7.4v3.4h-2.8v13.9h2.8v3.5zM688.1 71.5h-7.5L674 55h5.5l4.6 12.5h.4L689 55h5.5l-6.4 16.5zM701.5 71.5h-5.1V55h5.1v16.5zM712.3 59h-15.9v-4h15.9v4zm.2 12.5h-16.1v-4h16.1v4zm-.5-6.4h-13v-3.8h13v3.8zM715.6 55h7.2l6.3 11.1h.2l-.1-5.7V55h5.1v16.5h-6.9L720.8 60h-.2l.1 5.7v5.8h-5.1V55zM751.5 65.7h-14.1v-3.9h14.1v3.9zm-4.9-8.8v13.7h-4.2V56.9h4.2zM762.3 72c-1 0-2-.1-2.9-.2-.9-.1-1.8-.3-2.6-.5s-1.5-.4-2.1-.6l-.6-4.7c1 .4 2.2.8 3.7 1.2 1.4.4 2.9.5 4.4.5 1.3 0 2.2-.1 2.7-.3.5-.2.7-.5.7-.9v-.1c0-.3-.1-.5-.4-.7s-.6-.3-1.2-.4c-.6-.1-1.4-.2-2.5-.3-1.7-.2-3.1-.5-4.3-.8-1.1-.4-2-.9-2.6-1.6-.6-.7-.8-1.7-.8-2.9v-.1c0-1.7.7-3 2-3.8 1.4-.8 3.4-1.3 6-1.3 1.7 0 3.1.1 4.3.4s2.3.5 3.2.9l.6 4.3c-1.1-.4-2.3-.8-3.6-1-1.3-.2-2.6-.4-4-.4-.9 0-1.6 0-2.1.1s-.8.2-.9.4c-.2.2-.2.3-.2.6 0 .2.1.5.3.6.2.2.6.3 1.1.4s1.4.2 2.5.4c1.7.2 3.1.4 4.3.7 1.2.3 2 .8 2.6 1.5s.9 1.6.9 2.9v.1c0 1.9-.7 3.3-2.1 4.2s-3.4 1.4-6.4 1.4zM777.4 71.5H772l7-16.5h7.6l6.9 16.5H788l-5.1-13.3h-.4l-5.1 13.3zm10.3-3.5h-10.1v-4h10.1v4zM800.1 71.5H795l.9-16.5h7.3l3.2 9.5h.3L810 55h7.3l.9 16.5H813l-.2-6-.2-5.1h-.3l-3.2 9.1h-5l-3.3-9.1h-.3l-.2 5.1-.2 6zM827.8 54.1v20.8h-7.4v-3.4h2.8v-14h-2.8v-3.4h7.4z"/><path class="st2" d="M378 90.9v.2c0 .9.1 1.8.3 2.7.2.9.6 1.7 1 2.6.5.8 1 1.6 1.7 2.3h-2.3c-.7-.7-1.2-1.5-1.6-2.3-.4-.8-.7-1.6-.9-2.5-.2-.9-.3-1.8-.3-2.8v-.2c0-1 .1-1.9.3-2.8.2-.9.5-1.7 1-2.5.4-.8 1-1.5 1.6-2.2h2.2c-.7.7-1.3 1.5-1.7 2.3-.5.8-.8 1.7-1 2.5s-.3 1.8-.3 2.7zM385.7 96.3h-2.1V84.1h2.1v12.2zm4.8-3.9h-5.4v-1.7h5.4c1 0 1.7-.2 2.1-.6.4-.4.7-1 .7-1.7v-.2c0-.7-.2-1.3-.7-1.7-.4-.4-1.2-.6-2.1-.6H385v-1.7h5.5c1.7 0 3 .4 3.8 1.1.8.7 1.2 1.7 1.2 3v.2c0 1.2-.4 2.2-1.2 3-.8.5-2.1.9-3.8.9zM400.3 84.1v12.3h-2.1V84.1h2.1zm-1 12.2v-1.8h9.4v1.8h-9.4zM412.1 96.3h-2.2l5.7-12.3h3.2l5.6 12.3h-2.2l-4.9-10.9h-.3l-4.9 10.9zm9-3.4h-7.9v-1.7h7.9v1.7zM432.5 96.7c-2.3 0-4.1-.6-5.3-1.7s-1.8-2.7-1.8-4.7v-.2c0-2 .6-3.5 1.8-4.7s2.9-1.7 5.2-1.7c.7 0 1.4.1 2 .2s1.1.3 1.6.4.9.4 1.2.6l.2 1.9c-.6-.4-1.3-.7-2.1-.9s-1.7-.4-2.8-.4c-1.6 0-2.8.4-3.6 1.2-.8.8-1.2 1.9-1.2 3.4v.2c0 1.5.4 2.6 1.3 3.4.8.8 2.1 1.2 3.8 1.2 1 0 1.9-.1 2.7-.4s1.5-.6 2.1-.9l-.2 1.9c-.3.2-.7.4-1.2.6-.5.2-1 .3-1.6.5-.7 0-1.4.1-2.1.1zM442.5 96.3h-2.1V84.1h2.1v12.2zm8.9-10.5h-10.9v-1.7h10.9v1.7zm.2 10.5h-11v-1.7h11v1.7zm-.4-5.3h-9.7v-1.7h9.7V91zM459.8 96.6c-.9 0-1.6-.1-2.4-.2-.7-.1-1.4-.3-1.9-.5-.6-.2-1-.4-1.4-.6l-.2-2.1c.7.4 1.6.7 2.6 1 1 .3 2.1.5 3.3.5 1.3 0 2.2-.2 2.8-.5.6-.3.9-.8.9-1.4 0-.4-.1-.8-.4-1.1-.2-.3-.7-.5-1.3-.6-.6-.1-1.4-.3-2.5-.3-1.4-.1-2.5-.3-3.3-.6-.8-.3-1.4-.6-1.8-1.1s-.5-1.1-.5-1.9c0-1.1.5-2 1.4-2.6.9-.6 2.3-.9 4.2-.9 1.3 0 2.4.1 3.3.3.9.2 1.7.5 2.2.7l.2 1.9c-.7-.3-1.5-.6-2.5-.9-.9-.2-2-.4-3.1-.4-.9 0-1.6.1-2.1.2s-.9.3-1.1.6-.3.6-.3.9c0 .4.1.7.3.9.2.2.6.4 1.2.6.6.2 1.4.3 2.5.4 1.3.1 2.4.3 3.3.5.8.2 1.4.6 1.8 1.1s.6 1.2.6 2c0 1.3-.5 2.2-1.5 2.8-.9 1-2.3 1.3-4.3 1.3zM475.9 96.5c-.6 0-1.2-.1-1.7-.2s-1.1-.2-1.6-.4l-.2-1.9c.5.2 1 .4 1.6.5.6.1 1.1.2 1.7.2 1.1 0 1.9-.3 2.4-.8s.7-1.3.7-2.4v-7.4h2.1v7.5c0 1.6-.4 2.9-1.2 3.7-.7.8-2 1.2-3.8 1.2zM490.8 96.7c-2.3 0-4-.6-5.2-1.7-1.2-1.1-1.8-2.7-1.8-4.7v-.2c0-2 .6-3.6 1.8-4.7s3-1.7 5.2-1.7c2.3 0 4 .6 5.2 1.7 1.2 1.1 1.8 2.7 1.8 4.7v.2c0 2-.6 3.6-1.8 4.7-1.2 1.1-3 1.7-5.2 1.7zm0-1.8c1.6 0 2.8-.4 3.6-1.2.8-.8 1.2-1.9 1.2-3.4v-.2c0-1.4-.4-2.6-1.2-3.4s-2-1.2-3.6-1.2-2.8.4-3.6 1.2-1.2 1.9-1.2 3.4v.2c0 1.4.4 2.6 1.2 3.4.8.8 2 1.2 3.6 1.2zM506.8 96.7c-2.2 0-3.8-.5-4.8-1.5s-1.5-2.5-1.5-4.5v-6.6h2.1v6.6c0 1.4.3 2.4 1 3.2.7.7 1.7 1.1 3.2 1.1s2.5-.4 3.2-1.1c.7-.7 1-1.8 1-3.2v-6.6h2.1v6.6c0 2-.5 3.5-1.5 4.5s-2.7 1.5-4.8 1.5zM518.6 96.3h-2.1V84.1h2.1v12.2zm10.3 0h-2.3l-.4-2c-.1-.5-.3-1-.4-1.4-.2-.4-.5-.7-.8-.8-.4-.2-.9-.3-1.6-.3H518v-1.7h5.8c.9 0 1.6-.2 2.1-.6.4-.4.7-.9.7-1.6v-.1c0-.6-.2-1.2-.6-1.5s-1.1-.6-2-.6h-5.8V84h6.1c1.6 0 2.7.3 3.5.9.7.6 1.1 1.5 1.1 2.5v.1c0 .8-.2 1.5-.7 2-.4.5-1.1.8-2.1.9v.3l-1.1-.3c.8 0 1.5.2 1.9.5.5.3.8.7 1 1.1s.4 1.1.6 1.8l.4 2.5zM531.6 84.1h3.1l7.3 10.2h.2l-.1-4.9v-5.3h2.1v12.3h-3L533.9 86h-.2l.1 5.3v5.1h-2.1V84.1zM549.9 96.3h-2.1V84.1h2.1v12.2zm8.9-10.5h-10.9v-1.7h10.9v1.7zm.2 10.5h-11v-1.7h11v1.7zm-.4-5.3h-9.7v-1.7h9.7V91zm-6.2-8.4 2.9-2.6h2.6v.1l-3.4 2.6-2.1-.1zM564 96.3h-2.1V84.1h2.1v12.2zm9-10.5h-10.9v-1.7H573v1.7zm.1 10.5h-11v-1.7h11v1.7zm-.4-5.3H563v-1.7h9.7V91zM583.1 96.3H581V84.1h2.1v12.2zm8.9-10.5h-10.9v-1.7H592v1.7zm.2 10.5h-11v-1.7h11v1.7zm-.4-5.3h-9.7v-1.7h9.7V91zM595.1 84.1h3.1l7.3 10.2h.2l-.1-4.9v-5.3h2.1v12.3h-3L597.4 86h-.2l.1 5.3v5.1h-2.1V84.1zM623.6 96.3h-3.2L614.9 84h2.3l4.6 10.6h.3l4.6-10.6h2.3l-5.4 12.3zM633.4 96.3h-2.1V84.1h2.1v12.2zm8.9-10.5h-10.9v-1.7h10.9v1.7zm.1 10.5h-11v-1.7h11v1.7zm-.3-5.3h-9.7v-1.7h9.7V91zM645.4 84.1h3.1l7.3 10.2h.2l-.1-4.9v-5.3h2.1v12.3h-3L647.7 86h-.2l.1 5.3v5.1h-2.1V84.1zM673.3 85.8h-12.7v-1.7h12.7v1.7zm-5.2 10.5H666V84.8h2.1v11.5zM678 96.3h-2.1V84.1h2.1v12.2zm8.9-10.5H676v-1.7h10.9v1.7zm.1 10.5h-11v-1.7h11v1.7zm-.3-5.3H677v-1.7h9.7V91zM697.1 96.3H695V84.1h2.1v12.2zm8.9-10.5h-10.9v-1.7H706v1.7zm.1 10.5h-11v-1.7h11v1.7zm-.3-5.3h-9.7v-1.7h9.7V91zM709.1 84.1h3.1l7.3 10.2h.2l-.1-4.9v-5.3h2.1v12.3h-3L711.3 86h-.2l.1 5.3v5.1h-2.1V84.1zM732.7 96.5c-.6 0-1.2-.1-1.7-.2s-1.1-.2-1.6-.4l-.2-1.9c.5.2 1 .4 1.6.5.6.1 1.1.2 1.7.2 1.1 0 1.9-.3 2.4-.8s.7-1.3.7-2.4v-7.4h2.1v7.5c0 1.6-.4 2.9-1.2 3.7-.7.8-2 1.2-3.8 1.2zM741.4 96.3h-2.2l5.7-12.3h3.2l5.6 12.3h-2.2l-4.9-10.9h-.3l-4.9 10.9zm9-3.4h-7.9v-1.7h7.9v1.7zM756 84.1h3.1l7.3 10.2h.2l-.1-4.9v-5.3h2.1v12.3h-3L758.2 86h-.2l.1 5.3v5.1H756V84.1zM779.5 96.3h-3.2L770.8 84h2.3l4.6 10.6h.3l4.6-10.6h2.3l-5.4 12.3zM789.4 84.1v12.3h-2.1V84.1h2.1zM795 96.3h-2.1V84.1h2.1v12.2zm8.9-10.5H793v-1.7h10.9v1.7zm.2 10.5h-11v-1.7h11v1.7zm-.4-5.3H794v-1.7h9.7V91zM809.2 96.3h-2.1V84.1h2.1v12.2zm10.2 0h-2.3l-.4-2c-.1-.5-.3-1-.4-1.4-.2-.4-.5-.7-.8-.8-.4-.2-.9-.3-1.6-.3h-5.4v-1.7h5.8c.9 0 1.6-.2 2.1-.6.4-.4.7-.9.7-1.6v-.1c0-.6-.2-1.2-.6-1.5-.4-.4-1.1-.6-2-.6h-5.8V84h6.1c1.6 0 2.7.3 3.5.9.7.6 1.1 1.5 1.1 2.5v.1c0 .8-.2 1.5-.7 2-.4.5-1.1.8-2.1.9v.3l-1.1-.3c.8 0 1.5.2 1.9.5.5.3.8.7 1 1.1.2.5.4 1.1.6 1.8l.4 2.5zM824.1 91.1v-.2c0-.9-.1-1.8-.3-2.7-.2-.9-.6-1.7-1-2.5-.5-.8-1-1.6-1.7-2.3h2.2c.7.7 1.2 1.4 1.6 2.2.4.8.8 1.6 1 2.5.2.9.3 1.8.3 2.8v.2c0 1-.1 1.9-.3 2.8s-.5 1.7-.9 2.5-1 1.6-1.6 2.3h-2.3c.7-.7 1.3-1.5 1.7-2.3s.8-1.7 1-2.6c.2-.9.3-1.8.3-2.7z"/><path class="st4" d="M20.7 256v-93.4c0-21.1 17.3-38.4 38.4-38.4h289.1V256H20.7z"/><path class="st3" d="M1203.3 256v-93.4c0-21.1-17.3-38.4-38.4-38.4h-149.3V256h187.7z"/><path class="st4" d="M351 124.2h221.6V256H351z"/><path style="fill:#ef7b91" d="M575.1 124.2h217.5V256H575.1z"/><path class="st4" d="M795.4 124.2h217.5V256H795.4z"/><g><path class="st6" d="M122 152.9h-10.9v-1.5H122v1.5zm-4.5 9.1h-1.8v-10h1.8v10zM123.1 162h-1.9l4.9-10.6h2.8l4.9 10.6h-1.9l-4.2-9.4h-.3l-4.3 9.4zm7.7-2.9H124v-1.5h6.8v1.5zM137.4 162h-1.8v-10.6h1.8V162zm8.9 0h-2l-.4-1.7c-.1-.5-.2-.9-.4-1.2-.2-.3-.4-.6-.7-.7-.3-.2-.8-.2-1.4-.2h-4.6v-1.4h5c.8 0 1.4-.2 1.8-.5.4-.3.6-.8.6-1.4v-.1c0-.6-.2-1-.5-1.3-.4-.3-.9-.5-1.8-.5h-5v-1.5h5.2c1.4 0 2.4.3 3 .8s1 1.3 1 2.2v.1c0 .7-.2 1.3-.6 1.7-.4.4-1 .7-1.8.8v.2l-.9-.3c.7 0 1.3.2 1.7.4s.7.6.9 1 .4.9.5 1.5l.4 2.1zM150.5 151.4V162h-1.8v-10.6h1.8zM155.4 162h-1.8v-10.6h1.8V162zm7.5-9.1h-9.2v-1.5h9.2v1.5zm-.2 5h-8.1v-1.5h8.1v1.5zM174.4 162h-4.1v-13.2h4.1V162zm8.6-10h-12.8v-3.2H183v3.2zm.2 10h-12.9v-3.2h12.9v3.2zm-.4-5.1h-10.4v-3h10.4v3zm-8.1-9.4 2.8-3h4.6v.1l-3.6 2.9h-3.8zM189.7 162h-4.1v-13.2h4.1V162zm3.8-3.5h-4.8v-3.2h4.6c.7 0 1.2-.1 1.6-.4.3-.3.5-.7.5-1.2v-.1c0-.5-.2-.9-.5-1.2-.3-.3-.9-.4-1.6-.4h-4.6v-3.2h4.8c2.1 0 3.6.4 4.6 1.2 1 .8 1.5 2 1.5 3.5v.1c0 1.5-.5 2.7-1.5 3.5-1 .9-2.6 1.4-4.6 1.4zM208.9 162.5c-2.5 0-4.4-.6-5.6-1.7-1.2-1.1-1.9-2.8-1.9-5.1v-6.9h4.2v6.9c0 1.1.3 1.9.8 2.5.6.6 1.4.8 2.5.8s1.9-.3 2.5-.8c.6-.6.8-1.4.8-2.5v-6.9h4.2v6.9c0 2.2-.6 3.9-1.9 5.1-1.2 1.1-3.1 1.7-5.6 1.7zM223.3 148.8V162h-4.2v-13.2h4.2zM232.1 162.4c-.8 0-1.6-.1-2.3-.2-.7-.1-1.4-.2-2.1-.4-.6-.2-1.2-.3-1.7-.5l-.4-3.7c.8.3 1.8.6 3 .9 1.1.3 2.3.4 3.6.4 1 0 1.8-.1 2.2-.2.4-.1.6-.4.6-.7 0-.2-.1-.4-.3-.6-.2-.1-.5-.2-1-.3-.5-.1-1.1-.2-2-.3-1.4-.2-2.5-.4-3.4-.7-.9-.3-1.6-.7-2-1.3-.5-.6-.7-1.3-.7-2.3v-.1c0-1.4.5-2.4 1.6-3.1 1.1-.7 2.7-1 4.8-1 1.3 0 2.5.1 3.5.3 1 .2 1.8.4 2.6.7l.5 3.4c-.9-.4-1.8-.6-2.9-.8-1-.2-2.1-.3-3.2-.3-.7 0-1.3 0-1.7.1-.4.1-.6.2-.8.3-.1.1-.2.3-.2.5s.1.4.2.5.5.2.9.3 1.1.2 2 .3c1.3.1 2.5.3 3.4.6.9.3 1.6.7 2.1 1.2s.7 1.3.7 2.3v.1c0 1.5-.6 2.7-1.7 3.4-1.1.8-2.9 1.2-5.3 1.2zM245.3 162h-4.1v-13.2h4.1V162zm8.7-10h-12.8v-3.2H254v3.2zm.2 10h-12.9v-3.2h12.9v3.2zm-.4-5.1h-10.4v-3h10.4v3zm-8.1-9.4 2.8-3h4.6v.1l-3.6 2.9h-3.8zM265.8 148.8l-.4 8.7h-3.6l-.4-8.7h4.4zm-2.2 13.6c-.8 0-1.3-.2-1.7-.5-.4-.3-.5-.8-.5-1.4v-.1c0-.6.2-1.1.5-1.4.4-.3.9-.5 1.7-.5.8 0 1.3.2 1.7.5.4.3.5.8.5 1.4v.1c0 .6-.2 1-.5 1.4s-1 .5-1.7.5zM58.3 186l6.4-.1c.2 0 .3.1.4.4.1.3.2.5.3.7.3.4.7.6 1.2.6s1-.1 1.4-.4c.4-.3.5-.6.5-1s-.1-.7-.3-.9-.5-.3-.7-.5c-.3-.1-.6-.3-1.1-.3s-.8-.1-.8-.1l-.7-.2c-.4-.1-.8-.2-1.1-.3-1.9-.5-3.3-1.2-4.2-2s-1.3-1.8-1.3-3.2c0-1 .2-1.8.5-2.6.4-.8.8-1.4 1.4-1.9 1.7-1.4 3.9-2.1 6.9-2.1 2.3 0 4.1.4 5.5 1.3.8.6 1.4 1.2 1.7 1.8.3.6.5 1.3.6 2.2l-.3.3c-2.1.1-4 .1-5.7.1-.5 0-.8-.1-.9-.4 0-.1-.1-.2-.1-.4-.1-.3-.5-.4-1.1-.4-.5 0-.9.1-1.2.3-.3.2-.5.4-.5.6 0 .2 0 .4.1.5l.3.3c.1.1.3.2.5.2s.4.1.5.2c.1 0 .3.1.5.1l.4.1c.2 0 .7.2 1.5.4s1.5.4 2.1.6c1.7.6 2.9 1.3 3.5 2.2s.9 1.9.9 3c0 3.1-1.8 5.1-5.5 6-1.1.3-2.2.5-3.4.6-1.5 0-3-.2-4.4-.7-1.5-.4-2.4-1.1-2.9-2.1-.3-.5-.6-.9-.7-1.3s-.2-1-.3-1.7c0 .1 0 .1.1.1zM94.3 181.6v3.4c0 1-.2 2-.5 2.8-.3.8-.8 1.4-1.3 1.9-1.5 1.4-3.7 2-6.6 2-2.9 0-5.2-.7-6.8-2.1-.6-.5-1.1-1.1-1.4-1.9-.4-.8-.6-1.7-.7-2.7 0-3.4.1-6.5.1-9.4 0 0-.1-.4-.1-1.3 0-.8 0-1.4.1-1.6h.3c1.2-.1 2.8-.1 4.9-.1.1 0 .4.1.8.1H84.3c.1 1.6.1 3.8.1 6.6l-.1 4.9c0 1.6.5 2.4 1.4 2.4.4 0 .7-.2 1-.5.3-.3.4-.7.4-1.2v-4.6c0-1.9 0-3.7-.1-5.4V173c0-.3 0-.5.1-.6h7.1l.2.2.1.1c-.1 1.5-.1 3.5-.1 5.9v2.1l-.1.9zM96.6 183v-10.1h1l1.5-.1h2.8l3.6-.1c.5 0 1 0 1.6.1h.6c1.6 0 3 .5 4.1 1.5.6.5 1 1.1 1.3 1.9.3.8.5 1.6.5 2.4 0 .8-.1 1.5-.3 2.1-.2.6-.4 1.1-.7 1.5-1.1 1.6-3.1 2.6-6.2 2.9l-2.6.1c-.1 1.9-.1 3.4-.1 4.5v1.4c0 .1-.1.2-.2.2l-6.9.1c-.1-.4-.2-1-.2-1.9V183zm10.6-5.2c-.3-.8-1.2-1.3-2.6-1.4h-.8c-.1 0-.2 1.2-.2 3.6v1.6c1 0 1.9-.2 2.6-.6.8-.4 1.1-1.1 1.1-2.2 0-.5 0-.8-.1-1zM115 176l-.1-3.2h.1c6.1-.1 10.8-.2 13.9-.2 0 0 .1 0 .1.1v4.2c0 .1-.3.2-.7.2h-.1c-2 0-4 0-6.1-.1v.8l-.1.5c0 .3-.1.8-.1 1.6l3.8-.1H128.3c.2 0 .2.1.2.2v.4l.1 3.1c-2.5.1-4.4.2-5.9.2h-.7v2.9l6.6-.2c.4 0 .6.1.7.2v.9l.1 3.3c0 .2-.1.3-.3.4h-4c-.8 0-2.4 0-4.7.1h-2c-1.4 0-2.4.1-3.1.1l-.2-.2v-.4l.1-13-.2-1.8zM136.3 172.8h6.1c1.8 0 3.2.5 4.1 1.3.9.8 1.4 1.9 1.4 3.4 0 1-.3 1.9-.9 2.6-.6.7-1.5 1.3-2.6 1.9 1.8.6 2.9 1.9 3.3 4.1.1.5.2 1 .2 1.6.1.6.1 1 .1 1.2l.1.6c.1.7.2 1.3.3 1.6-1.4.1-2.6.1-3.8.1-1.1 0-2.1 0-3-.1h-.1c-.3 0-.5-1.2-.8-3.6l-.1-.5c0-.9-.2-1.5-.5-1.8s-.8-.5-1.4-.5h-.8V191c0 .1-.1.1-.2.1H130.5v-18.5c0-.1.2-.1.7-.1h3l2.1.3zm4.5 3.9c-.5-.2-1.1-.3-1.9-.3h-.7c-.1.1-.1.8-.1 2s0 2.1.1 2.5c2.5-.1 3.8-.9 3.8-2.6-.2-.7-.5-1.2-1.2-1.6zm7.7 14.4zm.1 0c-.1 0 0 0 0 0zM158.5 176l-.1-3.2h.1c6.1-.1 10.8-.2 13.9-.2 0 0 .1 0 .1.1v4.2c0 .1-.3.2-.7.2h-.1c-2 0-4 0-6.1-.1v.8l-.1.5c0 .3-.1.8-.1 1.6l3.8-.1H171.8c.2 0 .2.1.2.2v.4l.1 3.1c-2.5.1-4.4.2-5.9.2h-.6v2.9l6.6-.2c.4 0 .6.1.7.2v.9l.1 3.3c0 .2-.1.3-.3.4h-4c-.8 0-2.4 0-4.7.1h-2c-1.4 0-2.4.1-3.1.1l-.2-.2v-.4l.1-13-.3-1.8z"/><path class="st6" d="M193.5 191.1c0 .1-.2.2-.7.2H189c-1.2 0-2.1 0-2.9-.1l-.1-.1-.1-.3c-.1-.8-.3-1.6-.6-2.4h-5.2c0 .1-.1.5-.3 1.2-.2.7-.3 1.2-.4 1.5-.1.1-.5.1-1.2.1h-1l-3.2.1h-1.5l-.2-.2c.8-2.8 1.9-6.3 3.3-10.4l.3-.9.3-1 .9-2.7c.5-1.5.8-2.4.9-2.9s.2-.7.2-.7h2l4.3-.1 1.2.1 1-.1c.5 0 .7.1.7.3.8 2.3 1.9 5.5 3.2 9.7 1.4 4.2 2.1 6.6 2.3 7.1l.2.6c.2.6.3.8.4 1zm-12-6.6h3.4c-.1-1-.2-1.7-.3-2.1l-.5-2.1c-.5-2.1-.7-3.2-.8-3.3v-.5c-.1-.1-.2-.2-.4-.3-.2 0-.9 2.5-2 7.3l-.1.8h.7zM199.6 172.8h6.1c1.8 0 3.2.5 4.1 1.3.9.8 1.4 1.9 1.4 3.4 0 1-.3 1.9-.9 2.6-.6.7-1.5 1.3-2.6 1.9 1.8.6 2.9 1.9 3.3 4.1.1.5.2 1 .2 1.6.1.6.1 1 .1 1.2l.1.6c.1.7.2 1.3.3 1.6-1.4.1-2.6.1-3.8.1-1.1 0-2.1 0-3-.1h.1c-.3 0-.5-1.2-.8-3.6l-.1-.5c0-.9-.2-1.5-.5-1.8s-.8-.5-1.4-.5h-.8V191c0 .1-.1.1-.2.1H194v-18.5c0-.1.2-.1.7-.1h3l1.9.3zm4.5 3.9c-.5-.2-1.1-.3-1.9-.3h-.7c-.1.1-.1.8-.1 2s0 2.1.1 2.5c2.5-.1 3.8-.9 3.8-2.6-.1-.7-.5-1.2-1.2-1.6zm7.8 14.4zm0 0zM227.2 186.3c-.1.2-.1.5-.1.7v.3c0 .4 0 .7.1.9v2.8c0 .2-4 .3-12 .3h-1.8c-.1-.2-.2-.6-.2-1.2V174.5c0-1 .1-1.7.3-2h3.3c2.3 0 3.6.1 3.8.4l-.1 4.2v8.7l.5.3c1.5-.1 2.9-.1 4.3-.1s1.9.2 1.9.3zM242.9 172.7h.4c.1 0 .1.1.2.3l-.4.7-.8 1.5c-1.2 2.2-2 3.7-2.3 4.4l-.4.8c-.4.9-1.2 2.4-2.3 4.5v6.2c0 .1-.1.2-.2.2h-6.9c-.2-.2-.3-.5-.3-.8V187.3c0-1.7-.4-3.5-1.3-5.4-.2-.4-.5-1-.8-1.7l-1.8-3.6c0-.1-.2-.3-.4-.7-.2-.4-.4-.8-.7-1.3-.6-1-1-1.6-1-2 0 0 .1-.1.4-.1h7c.3 0 .9 2 2 5.8l.5 1.9c.8-2.2 1.7-4.8 2.6-7.7 0-.1.6-.1 1.8-.1h4.7zM252.8 177.5v-1c0-1 0-2.2.1-3.6h.7c2.1-.1 3.5-.2 4.1-.2h5.7c1.9 0 3.5.4 4.8 1.2.5.4.8.9 1.1 1.6.3.7.4 1.4.4 2.2 0 1.6-1.1 2.9-3.2 4.1 1.2.3 2.1.9 2.8 1.6.6.7 1 1.6 1 2.7 0 1.9-.8 3.3-2.5 4.3-1.2.7-2.8 1.1-4.7 1.1h-3.6c-1.6 0-3.6 0-6.2.1-.2-.5-.3-2.4-.3-5.7-.2-3.5-.2-6.2-.2-8.4zm10.2 2c.2-.3.2-.7.2-1.1 0-.8-.3-1.4-.9-1.7s-1.2-.4-1.9-.4-1 .2-1 .7c0 .9 0 1.8.1 2.7v.6c0 .3.2.5.5.5l.6-.1c1.3-.1 2.1-.5 2.4-1.2zm-2.6 8.1c2.1 0 3.1-.7 3.1-2.2 0-.9-.3-1.6-.8-1.9-.5-.3-1.3-.4-2.3-.5h-.4l-.2.7c-.1.8-.1 1.7-.1 2.5s.1 1.3.3 1.4h.4zM271.8 189.7c0-1.6 0-2.8.1-3.4 0-3.5 0-7.1.1-10.6V173.1c0-.2 0-.3.1-.4 1.7.1 3.2.2 4.5.2s2.2 0 2.7-.1v.2h-.1v4.4l.1 9.9v.4l.1 3.5c0 .1-.1.2-.2.2h-.4l-6.8.1c-.1 0-.2-.1-.3-.2v-.2l.1-1.4zM287.6 172.8h6.1c1.8 0 3.2.5 4.1 1.3.9.8 1.4 1.9 1.4 3.4 0 1-.3 1.9-.9 2.6-.6.7-1.5 1.3-2.6 1.9 1.8.6 2.9 1.9 3.3 4.1.1.5.2 1 .2 1.6.1.6.1 1 .1 1.2l.1.6c.1.7.2 1.3.3 1.6-1.4.1-2.6.1-3.8.1-1.1 0-2.1 0-3-.1h-.1c-.3 0-.5-1.2-.8-3.6l-.1-.5c0-.9-.2-1.5-.5-1.8s-.8-.5-1.4-.5h-.8V191c0 .1-.1.1-.2.1H281.8v-18.5c0-.1.2-.1.7-.1h3l2.1.3zm4.5 3.9c-.5-.2-1.1-.3-1.9-.3h-.7c-.1.1-.1.8-.1 2s0 2.1.1 2.5c2.5-.1 3.8-.9 3.8-2.6-.2-.7-.5-1.2-1.2-1.6zm7.7 14.4zm.1 0c-.1 0 0 0 0 0zM306 172.7h2.3c4 0 6.7.7 8.3 2 .3.2.7.7 1.1 1.3 1.2 1.7 1.8 3.6 1.8 5.7 0 3.7-1.3 6.4-3.8 8.2-1.5 1.1-3.3 1.6-5.2 1.6H307c-1.5 0-3.3 0-5.5.1-.2-.3-.2-.6-.2-1v-17.8c0-.1.4-.1 1.3-.2.9 0 1.6-.1 2.1-.1h1.3zm5.1 4.2c-.5-.3-1-.5-1.5-.6h-1.5c-.1.2-.2.4-.3.5l-.2.4v.7c0 1.4 0 3.3.1 5.7l.1 3.5c0 .2.2.4.5.4.8 0 1.5-.1 1.9-.2 1.6-.6 2.4-2.5 2.4-5.8-.1-2.4-.6-4-1.5-4.6zM155.4 231.7c-1.4 0-2.8-.1-4-.2-1.2-.1-2.4-.3-3.4-.5s-1.9-.4-2.6-.7l-.7-6.3c1.4.4 2.9.8 4.6 1.1 1.7.3 3.5.5 5.4.5 1.5 0 2.7-.1 3.5-.2.8-.2 1.4-.4 1.7-.7s.4-.7.4-1.1v-.1c0-.4-.1-.8-.4-1s-.6-.4-1.2-.6c-.6-.1-1.3-.2-2.3-.2l-7.9-.2v-5.6l7.9-.2c1 0 1.7-.1 2.3-.2s.9-.3 1.2-.6c.2-.3.4-.6.4-1v-.1c0-.7-.4-1.1-1.1-1.4s-2.1-.4-4.2-.4c-1.9 0-3.8.2-5.6.5s-3.3.7-4.6 1l.7-6c1.3-.5 2.8-.9 4.6-1.2 1.7-.3 3.7-.5 5.9-.5 4.1 0 7.2.6 9.2 1.7 2.1 1.1 3.1 2.8 3.1 5.1v.2c0 1.1-.2 2-.6 2.7s-1.1 1.3-2 1.7c-.9.4-2.1.6-3.6.7v1l-.6-.7c2.6.2 4.4.8 5.4 1.8s1.5 2.4 1.5 4.1v.3c0 2.3-1.1 4.1-3.2 5.4-2.1 1.2-5.4 1.9-9.8 1.9zM181.8 231.7c-1.4 0-2.8-.1-4-.2-1.2-.1-2.4-.3-3.4-.5s-1.9-.4-2.6-.7l-.7-6.3c1.4.4 2.9.8 4.6 1.1 1.7.3 3.5.5 5.4.5 1.5 0 2.7-.1 3.5-.2.8-.2 1.4-.4 1.7-.7s.4-.7.4-1.1v-.1c0-.4-.1-.8-.4-1s-.6-.4-1.2-.6c-.6-.1-1.3-.2-2.3-.2l-7.9-.2v-5.6l7.9-.2c1 0 1.7-.1 2.3-.2s.9-.3 1.2-.6c.2-.3.4-.6.4-1v-.1c0-.7-.4-1.1-1.1-1.4s-2.1-.4-4.2-.4c-1.9 0-3.8.2-5.6.5s-3.3.7-4.6 1l.7-6c1.3-.5 2.8-.9 4.6-1.2 1.7-.3 3.7-.5 5.9-.5 4.1 0 7.2.6 9.2 1.7 2.1 1.1 3.1 2.8 3.1 5.1v.2c0 1.1-.2 2-.6 2.7s-1.1 1.3-2 1.7c-.9.4-2.1.6-3.6.7v1l-.6-.7c2.6.2 4.4.8 5.4 1.8s1.5 2.4 1.5 4.1v.3c0 2.3-1.1 4.1-3.2 5.4-2.1 1.2-5.4 1.9-9.8 1.9zM228.6 217.7h-22.4l.4-3.7H229l-.4 3.7zm0 5.6h-22.4l.4-3.7H229l-.4 3.7zm-4.3 8.6c-5.2 0-9.1-1.2-11.6-3.5s-3.7-5.5-3.7-9.7v-.3c0-4 1.2-7.2 3.7-9.5 2.4-2.3 6.3-3.4 11.6-3.4 1.5 0 2.9.1 4.1.4 1.3.3 2.3.6 3.1.9l.7 6.4c-.9-.4-1.9-.7-3.1-.9-1.2-.2-2.5-.3-4-.3-2.8 0-4.8.6-6 1.7s-1.8 2.7-1.8 4.7v.3c0 2 .6 3.6 1.8 4.8 1.2 1.2 3.4 1.8 6.4 1.8 1.4 0 2.7-.1 3.9-.4 1.2-.3 2.2-.5 2.9-.9l-.7 6.7c-.6.2-1.6.5-2.9.8-1.2.3-2.7.4-4.4.4z"/></g><g><path class="st6" d="M396.8 151.3h-10.9v-1.5h10.9v1.5zm-4.5 9.1h-1.8v-10h1.8v10zM397.9 160.4H396l4.9-10.6h2.8l4.9 10.6h-1.9l-4.2-9.4h-.3l-4.3 9.4zm7.7-2.9h-6.8V156h6.8v1.5zM412.2 160.4h-1.8v-10.6h1.8v10.6zm8.9 0h-2l-.4-1.7c-.1-.5-.2-.9-.4-1.2-.2-.3-.4-.6-.7-.7-.3-.2-.8-.2-1.4-.2h-4.6v-1.4h5c.8 0 1.4-.2 1.8-.5.4-.3.6-.8.6-1.4v-.1c0-.6-.2-1-.5-1.3-.4-.3-.9-.5-1.8-.5h-5v-1.5h5.2c1.4 0 2.4.3 3 .8s1 1.3 1 2.2v.1c0 .7-.2 1.3-.6 1.7-.4.4-1 .7-1.8.8v.2l-.9-.3c.7 0 1.3.2 1.7.4s.7.6.9 1 .4.9.5 1.5l.4 2.1zM425.3 149.8v10.6h-1.8v-10.6h1.8zM430.2 160.4h-1.8v-10.6h1.8v10.6zm7.5-9.1h-9.2v-1.5h9.2v1.5zm-.2 5h-8.1v-1.5h8.1v1.5zM449.2 160.4h-4.1v-13.2h4.1v13.2zm8.6-10H445v-3.2h12.8v3.2zm.2 10h-12.9v-3.2H458v3.2zm-.4-5.1h-10.4v-3h10.4v3zm-8.1-9.4 2.8-3h4.6v.1l-3.6 2.9h-3.8zM464.5 160.4h-4.1v-13.2h4.1v13.2zm3.8-3.5h-4.8v-3.2h4.6c.7 0 1.2-.1 1.6-.4.3-.3.5-.7.5-1.2v-.1c0-.5-.2-.9-.5-1.2-.3-.3-.9-.4-1.6-.4h-4.6v-3.2h4.8c2.1 0 3.6.4 4.6 1.2 1 .8 1.5 2 1.5 3.5v.1c0 1.5-.5 2.7-1.5 3.5-1 .9-2.6 1.4-4.6 1.4zM483.7 160.9c-2.5 0-4.4-.6-5.6-1.7-1.2-1.1-1.9-2.8-1.9-5.1v-6.9h4.2v6.9c0 1.1.3 1.9.8 2.5.6.6 1.4.8 2.5.8s1.9-.3 2.5-.8c.6-.6.8-1.4.8-2.5v-6.9h4.2v6.9c0 2.2-.6 3.9-1.9 5.1-1.2 1.1-3.1 1.7-5.6 1.7zM498.1 147.2v13.2h-4.2v-13.2h4.2zM506.9 160.8c-.8 0-1.6-.1-2.3-.2-.7-.1-1.4-.2-2.1-.4-.6-.2-1.2-.3-1.7-.5l-.4-3.7c.8.3 1.8.6 3 .9 1.1.3 2.3.4 3.6.4 1 0 1.8-.1 2.2-.2.4-.1.6-.4.6-.7 0-.2-.1-.4-.3-.6-.2-.1-.5-.2-1-.3-.5-.1-1.1-.2-2-.3-1.4-.2-2.5-.4-3.4-.7-.9-.3-1.6-.7-2-1.3-.5-.6-.7-1.3-.7-2.3v-.1c0-1.4.5-2.4 1.6-3.1 1.1-.7 2.7-1 4.8-1 1.3 0 2.5.1 3.5.3 1 .2 1.8.4 2.6.7l.5 3.4c-.9-.4-1.8-.6-2.9-.8-1-.2-2.1-.3-3.2-.3-.7 0-1.3 0-1.7.1-.4.1-.6.2-.8.3-.1.1-.2.3-.2.5s.1.4.2.5.5.2.9.3 1.1.2 2 .3c1.3.1 2.5.3 3.4.6.9.3 1.6.7 2.1 1.2s.7 1.3.7 2.3v.1c0 1.5-.6 2.7-1.7 3.4-1.2.8-2.9 1.2-5.3 1.2zM520.1 160.4H516v-13.2h4.1v13.2zm8.7-10H516v-3.2h12.8v3.2zm.2 10h-13v-3.2h13v3.2zm-.4-5.1h-10.4v-3h10.4v3zm-8.1-9.4 2.8-3h4.6v.1l-3.6 2.9h-3.8zM540.6 147.2l-.4 8.7h-3.6l-.4-8.7h4.4zm-2.2 13.6c-.8 0-1.3-.2-1.7-.5-.4-.3-.5-.8-.5-1.4v-.1c0-.6.2-1.1.5-1.4.4-.3.9-.5 1.7-.5.8 0 1.3.2 1.7.5.4.3.5.8.5 1.4v.1c0 .6-.2 1-.5 1.4s-1 .5-1.7.5zM383.5 174.4l-.1-3.2h.1c6.1-.1 10.8-.2 13.9-.2 0 0 .1 0 .1.1v4.2c0 .1-.3.2-.7.2h-.1c-2 0-4 0-6.1-.1v.8l-.1.5c0 .3-.1.8-.1 1.6l3.8-.1H396.8c.2 0 .2.1.2.2v.4l.1 3.1c-2.5.1-4.4.2-5.9.2h-.6v2.9l6.6-.2c.4 0 .6.1.7.2v.9l.1 3.3c0 .2-.1.3-.3.4h-4c-.8 0-2.4 0-4.7.1h-2c-1.4 0-2.4.1-3.1.1l-.2-.2v-.4l.1-13-.3-1.8z"/><path class="st6" d="M418.5 189.5c0 .1-.2.2-.7.2H414c-1.2 0-2.1 0-2.9-.1l-.1-.1-.1-.3c-.1-.8-.3-1.6-.6-2.4h-5.2c0 .1-.1.5-.3 1.2-.2.7-.3 1.2-.4 1.5-.1.1-.5.1-1.2.1h-1l-3.2.1h-1.5l-.2-.2c.8-2.8 1.9-6.3 3.3-10.4l.3-.9.3-1 .9-2.7c.5-1.5.8-2.4.9-2.9s.2-.7.2-.7h2l4.3-.1 1.2.1 1-.1c.5 0 .7.1.7.3.8 2.3 1.9 5.5 3.2 9.7 1.4 4.2 2.1 6.6 2.3 7.1l.2.6c.3.6.3.8.4 1zm-12-6.6h3.4c-.1-1-.2-1.7-.3-2.1l-.5-2.1c-.5-2.1-.7-3.2-.8-3.3v-.5c-.1-.1-.2-.2-.4-.3-.2 0-.9 2.5-2 7.3l-.1.8h.7zM424.6 171.2h6.1c1.8 0 3.2.5 4.1 1.3.9.8 1.4 1.9 1.4 3.4 0 1-.3 1.9-.9 2.6-.6.7-1.5 1.3-2.6 1.9 1.8.6 2.9 1.9 3.3 4.1.1.5.2 1 .2 1.6.1.6.1 1 .1 1.2l.1.6c.1.7.2 1.3.3 1.6-1.4.1-2.6.1-3.8.1-1.1 0-2.1 0-3-.1h.1c-.3 0-.5-1.2-.8-3.6l-.1-.5c0-.9-.2-1.5-.5-1.8s-.8-.5-1.4-.5h-.8V189.4c0 .1-.1.1-.2.1H419V171c0-.1.2-.1.7-.1h3l1.9.3zm4.5 3.9c-.5-.2-1.1-.3-1.9-.3h-.7c-.1.1-.1.8-.1 2s0 2.1.1 2.5c2.5-.1 3.8-.9 3.8-2.6-.1-.7-.5-1.2-1.2-1.6zm7.8 14.4zm.1 0c-.1 0-.1 0 0 0zM452.2 184.7c-.1.2-.1.5-.1.7v.3c0 .4 0 .7.1.9v2.8c0 .2-4 .3-12 .3h-1.8c-.1-.2-.2-.6-.2-1.2V173c0-1 .1-1.7.3-2h3.3c2.3 0 3.6.1 3.8.4l-.1 4.2v8.7l.5.3c1.5-.1 2.9-.1 4.3-.1s1.9.1 1.9.2zM467.9 171.1h.4c.1 0 .1.1.2.3l-.4.7-.8 1.5c-1.2 2.2-2 3.7-2.3 4.4l-.4.8c-.4.9-1.2 2.4-2.3 4.5v6.2c0 .1-.1.2-.2.2h-6.9c-.2-.2-.3-.5-.3-.8V185.7c0-1.7-.4-3.5-1.3-5.4-.2-.4-.5-1-.8-1.7L451 175c0-.1-.2-.3-.4-.7-.2-.4-.4-.8-.7-1.3-.6-1-1-1.6-1-2 0 0 .1-.1.4-.1h7c.3 0 .9 2 2 5.8l.5 1.9c.8-2.2 1.7-4.8 2.6-7.7 0-.1.6-.1 1.8-.1h4.7zM477.9 175.9v-1c0-1 0-2.2.1-3.6h.7c2.1-.1 3.5-.2 4.1-.2h5.7c1.9 0 3.5.4 4.8 1.2.5.4.8.9 1.1 1.6.3.7.4 1.4.4 2.2 0 1.6-1.1 2.9-3.2 4.1 1.2.3 2.1.9 2.8 1.6.6.7 1 1.6 1 2.7 0 1.9-.8 3.3-2.5 4.3-1.2.7-2.8 1.1-4.7 1.1h-3.6c-1.6 0-3.6 0-6.2.1-.2-.5-.3-2.4-.3-5.7-.3-3.5-.3-6.2-.2-8.4zm10.1 2c.2-.3.2-.7.2-1.1 0-.8-.3-1.4-.9-1.7s-1.2-.4-1.9-.4-1 .2-1 .7c0 .9 0 1.8.1 2.7v.6c0 .3.2.5.5.5l.6-.1c1.3-.1 2.1-.5 2.4-1.2zm-2.6 8.1c2.1 0 3.1-.7 3.1-2.2 0-.9-.3-1.6-.8-1.9-.5-.3-1.3-.4-2.3-.5h-.4l-.2.7c-.1.8-.1 1.7-.1 2.5s.1 1.3.3 1.4h.4zM496.8 188.1c0-1.6 0-2.8.1-3.4 0-3.5 0-7.1.1-10.6V171.5c0-.2 0-.3.1-.4 1.7.1 3.2.2 4.5.2s2.2 0 2.7-.1v.2h-.1v4.4l.1 9.9v.4l.1 3.5c0 .1-.1.2-.2.2h-.4l-6.8.1c-.1 0-.2-.1-.3-.2v-.2l.1-1.4zM512.6 171.2h6.1c1.8 0 3.2.5 4.1 1.3.9.8 1.4 1.9 1.4 3.4 0 1-.3 1.9-.9 2.6-.6.7-1.5 1.3-2.6 1.9 1.8.6 2.9 1.9 3.3 4.1.1.5.2 1 .2 1.6.1.6.1 1 .1 1.2l.1.6c.1.7.2 1.3.3 1.6-1.4.1-2.6.1-3.8.1-1.1 0-2.1 0-3-.1h-.1c-.3 0-.5-1.2-.8-3.6l-.1-.5c0-.9-.2-1.5-.5-1.8s-.8-.5-1.4-.5h-.8V189.4c0 .1-.1.1-.2.1H506.8V171c0-.1.2-.1.7-.1h3l2.1.3zm4.5 3.9c-.5-.2-1.1-.3-1.9-.3h-.7c-.1.1-.1.8-.1 2s0 2.1.1 2.5c2.5-.1 3.8-.9 3.8-2.6-.2-.7-.5-1.2-1.2-1.6zm7.8 14.4c-.1 0-.1 0 0 0zm0 0zM531 171.1h2.3c4 0 6.7.7 8.3 2 .3.2.7.7 1.1 1.3 1.2 1.7 1.8 3.6 1.8 5.7 0 3.7-1.3 6.4-3.8 8.2-1.5 1.1-3.3 1.6-5.2 1.6H532c-1.5 0-3.3 0-5.5.1-.2-.3-.2-.6-.2-1v-17.5c0-.1.4-.1 1.3-.2.9 0 1.6-.1 2.1-.1h1.3zm5.1 4.2c-.5-.3-1-.5-1.5-.6h-1.5c-.1.2-.2.4-.3.5l-.2.4v.7c0 1.4 0 3.3.1 5.7l.1 3.5c0 .2.2.4.5.4.8 0 1.5-.1 1.9-.2 1.6-.6 2.4-2.5 2.4-5.8-.1-2.4-.6-4-1.5-4.6zM428.4 230.1c-1.4 0-2.8-.1-4-.2-1.2-.1-2.4-.3-3.4-.5s-1.9-.4-2.6-.7l-.7-6.3c1.4.4 2.9.8 4.6 1.1 1.7.3 3.5.5 5.4.5 1.5 0 2.7-.1 3.5-.2.8-.2 1.4-.4 1.7-.7s.4-.7.4-1.1v-.1c0-.4-.1-.8-.4-1s-.6-.4-1.2-.6c-.6-.1-1.3-.2-2.3-.2l-7.9-.2V214l7.9-.2c1 0 1.7-.1 2.3-.2s.9-.3 1.2-.6c.2-.3.4-.6.4-1 0-.7-.4-1.1-1.1-1.4s-2.1-.4-4.2-.4c-1.9 0-3.8.2-5.6.5s-3.3.7-4.6 1l.7-6c1.3-.5 2.8-.9 4.6-1.2 1.7-.3 3.7-.5 5.9-.5 4.1 0 7.2.6 9.2 1.7 2.1 1.1 3.1 2.8 3.1 5.1v.2c0 1.1-.2 2-.6 2.7s-1.1 1.3-2 1.7c-.9.4-2.1.6-3.6.7v1l-.6-.7c2.6.2 4.4.8 5.4 1.8s1.5 2.4 1.5 4.1v.3c0 2.3-1.1 4.1-3.2 5.4-2.1 1.4-5.4 2.1-9.8 2.1zM457.9 230.4c-2.6 0-4.8-.2-6.5-.6-1.7-.4-3.1-.9-4.1-1.6-1-.7-1.7-1.4-2.1-2.4-.4-.9-.6-1.9-.6-2.9v-.3c0-1.2.3-2.2.8-3.1.5-.9 1.3-1.6 2.3-2.1s2.3-.9 3.8-1.1v-.3c-1.4-.1-2.6-.4-3.6-.8s-1.7-1-2.2-1.8c-.5-.7-.8-1.6-.8-2.7v-.3c0-2 1-3.7 3.1-4.9 2.1-1.2 5.4-1.8 9.9-1.8 4.6 0 8 .6 10.1 1.8 2.1 1.2 3.1 2.8 3.1 4.9v.3c0 1-.3 1.9-.8 2.7s-1.3 1.3-2.2 1.8c-1 .4-2.2.7-3.6.8v.3c1.5.2 2.8.6 3.9 1.1 1 .5 1.8 1.2 2.3 2.1.5.9.8 1.9.8 3v.3c0 1-.2 1.9-.6 2.8-.4.9-1 1.7-2 2.4s-2.3 1.3-4.1 1.7-4.1.7-6.9.7zm.2-6c2.1 0 3.5-.2 4.3-.6.7-.4 1.1-1 1.1-1.6v-.1c0-.6-.4-1.2-1.3-1.6-.9-.4-2.4-.7-4.6-1-2 .3-3.4.6-4.1 1-.7.4-1.1.9-1.1 1.5v.1c0 .7.4 1.2 1.2 1.6.9.5 2.4.7 4.5.7zm.2-10.2c1.8-.2 3-.5 3.8-.9.8-.4 1.2-.9 1.2-1.5v-.1c0-.6-.4-1.1-1.2-1.5s-2.2-.5-4.2-.5c-1.9 0-3.3.2-4.1.5-.8.3-1.2.8-1.2 1.4v.1c0 .4.2.7.5 1 .3.3.9.6 1.7.9.8.3 2 .5 3.5.6zM505.1 216.1h-22.4l.4-3.7h22.4l-.4 3.7zm0 5.6h-22.4l.4-3.7h22.4l-.4 3.7zm-4.3 8.6c-5.2 0-9.1-1.2-11.6-3.5s-3.7-5.5-3.7-9.7v-.3c0-4 1.2-7.2 3.7-9.5 2.4-2.3 6.3-3.4 11.6-3.4 1.5 0 2.9.1 4.1.4 1.3.3 2.3.6 3.1.9l.7 6.4c-.9-.4-1.9-.7-3.1-.9-1.2-.2-2.5-.3-4-.3-2.8 0-4.8.6-6 1.7s-1.8 2.7-1.8 4.7v.3c0 2 .6 3.6 1.8 4.8 1.2 1.2 3.4 1.8 6.4 1.8 1.4 0 2.7-.1 3.9-.4 1.2-.3 2.2-.5 2.9-.9l-.7 6.7c-.6.2-1.6.5-2.9.8-1.2.2-2.7.4-4.4.4z"/></g><g><path class="st2" d="M624 149.3h-11v-1.5h11v1.5zm-4.6 9.1h-1.8v-10h1.8v10zM625 158.4h-1.9l4.9-10.6h2.8l4.9 10.6h-1.9l-4.2-9.4h-.3l-4.3 9.4zm7.8-3H626v-1.5h6.8v1.5zM639.4 158.4h-1.8v-10.6h1.8v10.6zm8.8 0h-2l-.4-1.7c-.1-.5-.2-.9-.4-1.2-.2-.3-.4-.6-.7-.7-.3-.2-.8-.2-1.4-.2h-4.6V153h5c.8 0 1.4-.2 1.8-.5.4-.3.6-.8.6-1.4v-.1c0-.6-.2-1-.5-1.3-.4-.3-.9-.5-1.8-.5h-5v-1.5h5.2c1.4 0 2.4.3 3 .8s1 1.3 1 2.2v.1c0 .7-.2 1.3-.6 1.7-.4.4-1 .7-1.8.8v.2l-.9-.3c.7 0 1.3.2 1.7.4s.7.6.9 1 .4.9.5 1.5l.4 2.3zM652.5 147.8v10.6h-1.8v-10.6h1.8zM657.4 158.4h-1.8v-10.6h1.8v10.6zm7.4-9.1h-9.2v-1.5h9.2v1.5zm-.2 4.9h-8.1v-1.5h8.1v1.5zM676.4 158.4h-4.2v-13.2h4.2v13.2zm3.2 0h-4.3V155h4.2c1.1 0 1.9-.3 2.5-.8.5-.6.8-1.3.8-2.3v-.2c0-1-.3-1.7-.8-2.3-.5-.6-1.4-.8-2.5-.8h-4.2v-3.4h4.3c2.5 0 4.3.6 5.6 1.7 1.3 1.1 1.9 2.7 1.9 4.8v.2c0 2.1-.6 3.7-1.9 4.9s-3.1 1.6-5.6 1.6zM693.5 145.1v13.2h-4.2v-13.2h4.2zM702.3 158.7c-.8 0-1.6-.1-2.3-.2-.7-.1-1.4-.2-2.1-.4-.6-.2-1.2-.3-1.7-.5l-.4-3.7c.8.3 1.8.6 3 .9 1.1.3 2.3.4 3.6.4 1 0 1.8-.1 2.2-.2.4-.1.6-.4.6-.7 0-.2-.1-.4-.3-.6-.2-.1-.5-.2-1-.3-.5-.1-1.1-.2-2-.3-1.4-.2-2.5-.4-3.4-.7-.9-.3-1.6-.7-2-1.3-.5-.6-.7-1.3-.7-2.3v-.1c0-1.4.5-2.4 1.6-3.1 1.1-.7 2.7-1 4.8-1 1.3 0 2.5.1 3.5.3 1 .2 1.8.4 2.6.7l.5 3.4c-.9-.4-1.8-.6-2.9-.8-1-.2-2.1-.3-3.2-.3-.7 0-1.3 0-1.7.1-.4.1-.6.2-.8.3-.1.1-.2.3-.2.5s.1.4.2.5.5.2.9.3 1.1.2 2 .3c1.3.1 2.5.3 3.4.6.9.3 1.6.7 2.1 1.2s.7 1.3.7 2.3v.1c0 1.5-.6 2.7-1.7 3.4-1.1.9-2.9 1.2-5.3 1.2zM715.6 158.4h-4.1v-13.2h4.1v13.2zm3.7-3.6h-4.8v-3.2h4.6c.7 0 1.2-.1 1.6-.4.3-.3.5-.7.5-1.2v-.1c0-.5-.2-.9-.5-1.2-.3-.3-.9-.4-1.6-.4h-4.6v-3.2h4.8c2.1 0 3.6.4 4.6 1.2s1.5 2 1.5 3.5v.1c0 1.5-.5 2.7-1.5 3.5s-2.5 1.4-4.6 1.4zM735 158.8c-2.7 0-4.7-.6-6.1-1.8-1.4-1.2-2.1-2.9-2.1-5.2v-.1c0-2.2.7-3.9 2.1-5.2 1.4-1.2 3.4-1.8 6.1-1.8s4.7.6 6.1 1.8c1.4 1.2 2.1 2.9 2.1 5.2v.1c0 2.2-.7 3.9-2.1 5.2s-3.4 1.8-6.1 1.8zm0-3.4c1.2 0 2.2-.3 2.8-1 .6-.6 1-1.5 1-2.6v-.2c0-1.1-.3-2-1-2.6-.6-.6-1.6-1-2.8-1-1.2 0-2.2.3-2.8 1s-1 1.5-1 2.6v.2c0 1.1.3 2 1 2.6.6.7 1.6 1 2.8 1zM754.6 145.1l-.4 8.7h-3.6l-.4-8.7h4.4zm-2.2 13.6c-.8 0-1.3-.2-1.7-.5s-.5-.8-.5-1.4v-.1c0-.6.2-1.1.5-1.4.4-.3.9-.5 1.7-.5.8 0 1.3.2 1.7.5.4.3.5.8.5 1.4v.1c0 .6-.2 1-.5 1.4s-1 .5-1.7.5zM615 179.3v-10.1h1l1.5-.1h2.8l3.6-.1c.5 0 1 0 1.6.1h.6c1.6 0 3 .5 4.1 1.5.6.5 1 1.1 1.3 1.9s.5 1.6.5 2.4c0 .8-.1 1.5-.3 2.1-.2.6-.4 1.1-.7 1.5-1.1 1.6-3.1 2.6-6.2 2.9l-2.6.1c-.1 1.9-.1 3.4-.1 4.5v1.4c0 .1-.1.2-.2.2l-6.9.1c-.1-.4-.2-1-.2-1.9v-6.5zm10.6-5.2c-.3-.8-1.2-1.3-2.6-1.4h-.8c-.1 0-.2 1.2-.2 3.6v1.6c1 0 1.9-.2 2.6-.6.8-.4 1.1-1.1 1.1-2.2.1-.4 0-.8-.1-1zM638.9 169.1h6.1c1.8 0 3.2.5 4.1 1.3.9.8 1.4 1.9 1.4 3.4 0 1-.3 1.9-.9 2.6-.6.7-1.5 1.3-2.6 1.9 1.8.6 2.9 1.9 3.3 4.1.1.5.2 1 .2 1.6.1.6.1 1 .1 1.2l.1.6c.1.7.2 1.3.3 1.6-1.4.1-2.6.1-3.8.1-1.1 0-2.1 0-3-.1h-.1c-.3 0-.5-1.2-.8-3.6l-.1-.5c0-.9-.2-1.5-.5-1.8s-.8-.5-1.5-.5h-.8V187.3c0 .1-.1.1-.2.1H633v-18.5c0-.1.2-.1.7-.1h3l2.2.3zm4.5 3.9c-.5-.2-1.1-.3-1.9-.3h-.7c-.1.1-.1.8-.1 2s0 2.1.1 2.5c2.5-.1 3.8-.9 3.8-2.6-.1-.7-.5-1.2-1.2-1.6zm7.8 14.4zm0 0zM652.4 172.3l-.1-3.2h.1c6.1-.1 10.8-.2 13.9-.2 0 0 .1 0 .1.1v4.2c0 .1-.3.2-.7.2h-.1c-2 0-4 0-6.1-.1v.8l-.1.5c0 .3-.1.8-.1 1.6l3.8-.1H665.7c.2 0 .2.1.2.2v.4l.1 3.1c-2.5.1-4.4.2-5.9.2h-.6v2.9l6.6-.2c.4 0 .6.1.7.2v.9l.1 3.3c0 .2-.1.3-.3.4h-4c-.8 0-2.4 0-4.7.1h-2c-1.4 0-2.4.1-3.1.1l-.2-.2v-.5l.1-13-.3-1.7zm3.5-7.7h-.8l-.2-.4 2-3.5c.3-.5.5-.8.6-.8h.8l5.1.1c-.3.4-.9 1-1.6 1.8-.7.8-1.3 1.4-1.6 1.8-.3.4-.6.6-.9.7-.3.1-.7.1-1.2.1l-2.2.2zM679.8 187.6h-4.1c-.9 0-2.1 0-3.8.1-.3-.3-.6-1.1-.9-2.5s-.6-2.7-1-4.2c-.4-1.4-.7-2.3-.8-2.7l-.4-1.3c-.1-.4-.3-1-.5-1.9-.8-2.8-1.4-4.8-1.6-6.1 0-.1 2.4-.1 7.1-.1.1 0 .3.1.3.2.6 3.8 1.4 7.9 2.2 12.4l.1.6h.5l.1-.6c.3-1.6.7-4.1 1.4-7.6l.3-1.4c.1-.5.3-1.6.7-3.4.4-.1 2.4-.1 6.2-.1h.5c.1.1.2.1.2.2l-2.4 8.8c-.2.6-.3 1-.3 1.2l-.6 2.2c-.9 3.9-1.6 6-2 6.2-.3.1-.6.1-1.2 0zM687.1 172.3l-.1-3.2h.1c6.1-.1 10.8-.2 13.9-.2 0 0 .1 0 .1.1v4.2c0 .1-.3.2-.7.2h-.1c-2 0-4 0-6.1-.1v.8l-.1.5c0 .3-.1.8-.1 1.6l3.8-.1H700.4c.2 0 .2.1.2.2v.4l.1 3.1c-2.5.1-4.4.2-5.9.2h-.6v2.9l6.6-.2c.4 0 .6.1.7.2v.9l.1 3.3c0 .2-.1.3-.3.4h-4c-.8 0-2.4 0-4.7.1h-2c-1.4 0-2.5.1-3.1.1l-.2-.2v-.5l.1-13-.3-1.7zM721.3 178.8v8.6c0 .1-.2.1-.6.1H713c-.1-.1-.6-1.3-1.3-3.5l-2.3-6.1-.4.1v9.2c0 .4-.1.6-.2.6h-5.7c-.3-.2-.4-.4-.4-.5v-.5l.1-4.7c0-5.2 0-9.1.1-11.8v-1c0-.1 2.8-.1 8.4-.2 0 0 .1.2.2.5l.1.2c.6 1.7 1.3 3.7 2.2 5.9.9 2.2 1.3 3.4 1.3 3.4h.4v-9.9c0-.1.6-.1 1.8-.1l3 .1h.9c.1 2.6.1 5.8.1 9.6zM738.8 173.6c0 .3 0 .4-.1.4h-4.4V187.6c0 .1-.1.2-.2.2h-6.9l-.2-.2-.2-.2c0-.7 0-2.3.1-4.7l.1-6.5v-.3c-.1-.8-.1-1.3-.2-1.4s-.2-.2-.3-.2h-3.8c-.1-.2-.2-.7-.2-1.4v-3.5h.1l15.4-.1c.3 0 .5 0 .6.1.1 0 .1.1.1.2v3.2l.1.8zM739.9 172.3l-.1-3.2h.1c6.1-.1 10.8-.2 13.9-.2 0 0 .1 0 .1.1v4.2c0 .1-.3.2-.7.2h-.1c-2 0-4 0-6.1-.1v.8l-.1.5c0 .3-.1.8-.1 1.6l3.8-.1H753.2c.2 0 .2.1.2.2v.4l.1 3.1c-2.5.1-4.4.2-5.9.2h-.6v2.9l6.6-.2c.4 0 .6.1.7.2v.9l.1 3.3c0 .2-.1.3-.3.4h-4c-.8 0-2.4 0-4.7.1h-2c-1.4 0-2.5.1-3.1.1l-.2-.2v-.5l.1-13-.3-1.7zM620.8 227.4h-7.3v-14.3l.1-5h-.6l-7.8 8.8v3.5l-2.6-3.1h21.7v6h-26.9v-7.1l12.1-13.5h11.4v24.7zM638.2 228c-2.3 0-4.3-.2-6.2-.6-1.9-.4-3.3-.8-4.2-1.1l-.8-6.5c.8.3 1.8.6 3 .9 1.1.3 2.4.6 3.7.8 1.3.2 2.7.3 4.1.3 1.6 0 2.9-.1 3.7-.4.8-.3 1.4-.6 1.7-1 .3-.4.4-.9.4-1.3v-.1c0-.7-.3-1.3-.9-1.8s-1.6-.6-3.1-.6c-1.4 0-2.6.2-3.6.5s-1.8.8-2.4 1.3l-6.5-1.3v-14.4h23.2v6.1h-16v3.3l-.1 3h.2c.5-1.2 1.4-2.1 2.7-2.9 1.3-.8 3.1-1.2 5.5-1.2 2.9 0 5.1.7 6.6 2.1 1.4 1.4 2.2 3.3 2.2 5.8v.3c0 1.7-.4 3.2-1.2 4.5-.8 1.3-2.1 2.4-4.1 3.2-1.8.8-4.5 1.1-7.9 1.1zM658.1 232.5h-7.2l19.3-31.2h7.2l-19.3 31.2zM699.3 227.4H692v-14.3l.1-5h-.6l-7.8 8.8v3.5l-2.6-3.1h21.7v6h-26.9v-7.1l12.1-13.5h11.4v24.7zM718.9 228.2c-4.4 0-7.8-1.1-10.1-3.3s-3.5-5.5-3.5-9.7v-.3c0-4.2 1.2-7.5 3.5-9.7 2.3-2.2 5.7-3.3 10.1-3.3 4.5 0 7.8 1.1 10.1 3.3 2.3 2.2 3.5 5.5 3.5 9.7v.3c0 4.3-1.2 7.5-3.5 9.7-2.2 2.2-5.6 3.3-10.1 3.3zm0-6.4c1.9 0 3.3-.6 4.2-1.7.9-1.2 1.3-2.8 1.3-4.9v-.3c0-2.2-.4-3.8-1.3-4.9-.9-1.1-2.3-1.7-4.2-1.7-1.9 0-3.3.6-4.2 1.7-.9 1.2-1.3 2.8-1.3 4.9v.3c0 2.1.5 3.8 1.4 4.9.8 1.2 2.2 1.7 4.1 1.7zM766.6 214h-22.4l.4-3.7H767l-.4 3.7zm0 5.6h-22.4l.4-3.7H767l-.4 3.7zm-4.3 8.6c-5.2 0-9.1-1.2-11.6-3.5s-3.7-5.5-3.7-9.7v-.3c0-4 1.2-7.2 3.7-9.5 2.4-2.3 6.3-3.4 11.6-3.4 1.5 0 2.9.1 4.1.4 1.3.3 2.3.6 3.1.9l.7 6.4c-.9-.4-1.9-.7-3.1-.9-1.2-.2-2.5-.3-4-.3-2.8 0-4.8.6-6 1.7s-1.8 2.7-1.8 4.7v.3c0 2 .6 3.6 1.8 4.8s3.4 1.8 6.4 1.8c1.4 0 2.7-.1 3.9-.4 1.2-.3 2.2-.5 2.9-.9l-.7 6.7c-.6.2-1.6.5-2.9.8-1.2.3-2.7.4-4.4.4z"/></g><g><path class="st6" d="M890.4 149.3h-10.9v-1.5h10.9v1.5zm-4.5 9.1H884v-10h1.8v10zM891.5 158.4h-1.9l4.9-10.6h2.8l4.9 10.6h-1.9l-4.2-9.4h-.3l-4.3 9.4zm7.7-3h-6.8v-1.5h6.8v1.5zM905.8 158.4H904v-10.6h1.8v10.6zm8.9 0h-2l-.4-1.7c-.1-.5-.2-.9-.4-1.2-.2-.3-.4-.6-.7-.7-.3-.2-.8-.2-1.4-.2h-4.6V153h5c.8 0 1.4-.2 1.8-.5.4-.3.6-.8.6-1.4v-.1c0-.6-.2-1-.5-1.3-.4-.3-.9-.5-1.8-.5h-5v-1.5h5.2c1.4 0 2.4.3 3 .8s1 1.3 1 2.2v.1c0 .7-.2 1.3-.6 1.7-.4.4-1 .7-1.8.8v.2l-.9-.3c.7 0 1.3.2 1.7.4s.7.6.9 1c.2.4.4.9.5 1.5l.4 2.3zM918.9 147.8v10.6h-1.8v-10.6h1.8zM923.8 158.4H922v-10.6h1.8v10.6zm7.5-9.1h-9.2v-1.5h9.2v1.5zm-.2 4.9H923v-1.5h8.1v1.5zM829.4 182.3l6.4-.1c.2 0 .3.1.4.4.1.3.2.5.3.7.3.4.7.6 1.2.6s1-.1 1.4-.4c.4-.3.5-.6.5-1s-.1-.7-.3-.9-.5-.3-.7-.5c-.3-.1-.6-.3-1.1-.3-.5-.1-.8-.1-.8-.1l-.7-.2c-.4-.1-.8-.2-1.1-.3-1.9-.5-3.3-1.2-4.2-2s-1.3-1.8-1.3-3.2c0-1 .2-1.8.5-2.6.4-.8.8-1.4 1.4-1.9 1.7-1.4 3.9-2.1 6.9-2.1 2.3 0 4.1.4 5.5 1.3.8.6 1.4 1.2 1.7 1.8.3.6.5 1.3.6 2.2l-.3.3c-2.1.1-4 .1-5.7.1-.5 0-.8-.1-.9-.4 0-.1-.1-.2-.1-.4-.1-.3-.5-.4-1.1-.4-.5 0-.9.1-1.2.3-.3.2-.5.4-.5.6 0 .2 0 .4.1.5l.3.3c.1.1.3.2.5.2s.4.1.5.2.3.1.5.1l.4.1c.2 0 .7.2 1.5.4s1.5.4 2.1.6c1.7.6 2.9 1.3 3.5 2.2s.9 1.9.9 3c0 3.1-1.8 5.1-5.5 6-1.1.3-2.2.5-3.4.6-1.5 0-3-.2-4.4-.7-1.5-.4-2.4-1.1-2.9-2.1-.3-.5-.6-.9-.7-1.3s-.2-1-.3-1.7c0 .1.1.1.1.1zM865.4 177.9v3.4c0 1-.2 2-.5 2.8-.3.8-.8 1.4-1.3 1.9-1.5 1.4-3.7 2-6.6 2-2.9 0-5.2-.7-6.8-2.1-.6-.5-1.1-1.1-1.5-1.9-.4-.8-.6-1.7-.7-2.7 0-3.4.1-6.5.1-9.4 0 0-.1-.4-.1-1.3 0-.8 0-1.4.1-1.6h.3c1.2-.1 2.8-.1 4.9-.1.1 0 .4.1.8.1H855.3c.1 1.6.1 3.8.1 6.6l-.1 4.9c0 1.6.5 2.4 1.4 2.4.4 0 .7-.2 1-.5.3-.3.4-.7.4-1.2v-4.6c0-1.9 0-3.7-.1-5.4v-1.9c0-.3 0-.5.1-.6h7.1l.2.2.1.1c-.1 1.5-.1 3.5-.1 5.9v3zM873 169.1h6.1c1.8 0 3.2.5 4.1 1.3.9.8 1.4 1.9 1.4 3.4 0 1-.3 1.9-.9 2.6-.6.7-1.5 1.3-2.6 1.9 1.8.6 2.9 1.9 3.3 4.1.1.5.2 1 .2 1.6.1.6.1 1 .1 1.2l.1.6c.1.7.2 1.3.3 1.6-1.4.1-2.6.1-3.8.1-1.1 0-2.1 0-3-.1h-.1c-.3 0-.5-1.2-.8-3.6l-.1-.5c0-.9-.2-1.5-.5-1.8s-.8-.5-1.5-.5h-.8V187.3c0 .1-.1.1-.2.1H867.1v-18.5c0-.1.2-.1.7-.1h3l2.2.3zm4.5 3.9c-.5-.2-1.1-.3-1.9-.3h-.7c-.1.1-.1.8-.1 2s0 2.1.1 2.5c2.5-.1 3.8-.9 3.8-2.6-.1-.7-.5-1.2-1.2-1.6zm7.8 14.4zm.1 0c-.1 0-.1 0 0 0zM895.3 179.3v-10.1h1l1.5-.1h2.8l3.6-.1c.5 0 1 0 1.6.1h.6c1.6 0 3 .5 4.1 1.5.6.5 1 1.1 1.3 1.9s.5 1.6.5 2.4c0 .8-.1 1.5-.3 2.1-.2.6-.4 1.1-.7 1.5-1.1 1.6-3.1 2.6-6.2 2.9l-2.6.1c-.1 1.9-.1 3.4-.1 4.5v1.4c0 .1-.1.2-.2.2l-6.9.1c-.1-.4-.2-1-.2-1.9v-6.5zm10.6-5.2c-.3-.8-1.2-1.3-2.6-1.4h-.8c-.1 0-.2 1.2-.2 3.6v1.6c1 0 1.9-.2 2.6-.6.8-.4 1.1-1.1 1.1-2.2.1-.4 0-.8-.1-1zM927.8 182.7c-.1.2-.1.5-.1.7v.3c0 .4 0 .7.1.9v2.8c0 .2-4 .3-12 .3H914c-.1-.2-.2-.6-.2-1.2V171c0-1 .1-1.7.3-2h3.3c2.3 0 3.6.1 3.8.4l-.1 4.2v8.7l.5.3c1.5-.1 2.9-.1 4.3-.1 1.2 0 1.9 0 1.9.2z"/><path class="st6" d="M948.3 187.5c0 .1-.2.2-.7.2h-3.8c-1.2 0-2.1 0-2.9-.1l-.1-.1-.1-.3c-.1-.8-.3-1.6-.6-2.4h-5.2c0 .1-.1.5-.3 1.2-.2.7-.3 1.2-.4 1.5-.1.1-.5.1-1.2.1h-1l-3.2.1h-1.5l-.2-.2c.8-2.8 1.9-6.3 3.3-10.4l.3-.9.3-1 .9-2.7c.5-1.5.8-2.4.9-2.9.1-.4.2-.7.2-.7h2l4.3-.1 1.2.1 1-.1c.5 0 .7.1.7.3.8 2.3 1.9 5.5 3.2 9.7 1.4 4.2 2.1 6.6 2.3 7.1l.2.6c.2.5.3.7.4 1zm-12-6.7h3.4c-.1-1-.2-1.7-.3-2.1l-.5-2.1c-.5-2.1-.7-3.2-.8-3.3v-.5c-.1-.1-.2-.2-.4-.3-.2 0-.9 2.5-2 7.3l-.1.8h.7zM948.2 177.7c.2-1.8.5-3.2 1-4.2.9-1.8 2.2-3.1 3.9-3.8 1.5-.7 3.2-1 5-1 3 0 5.2.8 6.6 2.5.8 1 1.3 2.2 1.4 3.7l.1 1.1c-.1.1-1 .2-2.6.2h-3.7c-.2 0-.4-.3-.5-1s-.3-1.1-.5-1.3c-.2-.2-.5-.3-.8-.3s-.6.1-.8.2c-.2.1-.4.2-.6.4-.2.2-.3.4-.4.7-.2.5-.3 1-.4 1.6 0 .6-.1 1.2-.1 1.9v1.5c0 2.2.6 3.4 1.9 3.4.3 0 .5-.1.7-.2.3-.3.7-.9.9-1.9.1-.2.1-.4.2-.5H966.3c.1 0 .2.1.2.3v.4c-.1 1-.3 1.8-.7 2.6-.7 1.4-1.8 2.5-3.2 3.2s-3.1 1-4.9 1c-3.1 0-5.4-.9-6.9-2.7-1.8-1.9-2.6-4.5-2.6-7.8zM967.9 172.3l-.1-3.2h.1c6.1-.1 10.8-.2 13.9-.2 0 0 .1 0 .1.1v4.2c0 .1-.3.2-.7.2h-.2c-2 0-4 0-6.1-.1v.8l-.1.5c0 .3-.1.8-.1 1.6l3.8-.1H981.1c.2 0 .2.1.2.2v.4l.1 3.1c-2.5.1-4.4.2-5.9.2h-.6v2.9l6.6-.2c.4 0 .6.1.7.2v.9l.1 3.3c0 .2-.1.3-.3.4h-4c-.8 0-2.4 0-4.7.1h-2c-1.4 0-2.5.1-3.1.1l-.2-.2v-.5l.1-13-.2-1.7zM830.8 228c-2.3 0-4.3-.2-6.2-.6-1.9-.4-3.3-.8-4.2-1.1l-.8-6.5c.8.3 1.8.6 3 .9 1.1.3 2.4.6 3.7.8 1.3.2 2.7.3 4.1.3 1.6 0 2.9-.1 3.7-.4.8-.3 1.4-.6 1.7-1s.4-.9.4-1.3v-.1c0-.7-.3-1.3-.9-1.8-.6-.4-1.6-.6-3.1-.6-1.4 0-2.6.2-3.6.5s-1.8.8-2.4 1.3l-6.5-1.3v-14.4H843v6.1h-16v3.3l-.1 3h.2c.5-1.2 1.4-2.1 2.7-2.9 1.3-.8 3.1-1.2 5.5-1.2 2.9 0 5.1.7 6.5 2.1 1.4 1.4 2.2 3.3 2.2 5.8v.3c0 1.7-.4 3.2-1.2 4.5-.8 1.3-2.1 2.4-4.1 3.2-1.8.8-4.5 1.1-7.9 1.1zM858.8 228c-2.3 0-4.3-.2-6.2-.6-1.9-.4-3.3-.8-4.2-1.1l-.8-6.5c.8.3 1.8.6 3 .9 1.1.3 2.4.6 3.7.8 1.3.2 2.7.3 4.1.3 1.6 0 2.9-.1 3.7-.4.8-.3 1.4-.6 1.7-1s.4-.9.4-1.3v-.1c0-.7-.3-1.3-.9-1.8-.6-.4-1.6-.6-3.1-.6-1.4 0-2.6.2-3.6.5s-1.8.8-2.4 1.3l-6.5-1.3v-14.4H871v6.1h-16v3.3l-.1 3h.2c.5-1.2 1.4-2.1 2.7-2.9 1.3-.8 3.1-1.2 5.5-1.2 2.9 0 5.1.7 6.5 2.1 1.4 1.4 2.2 3.3 2.2 5.8v.3c0 1.7-.4 3.2-1.2 4.5-.8 1.3-2.1 2.4-4.1 3.2-1.8.8-4.5 1.1-7.9 1.1zM878.7 232.5h-7.2l19.3-31.2h7.2l-19.3 31.2zM910.7 228c-2.3 0-4.3-.2-6.2-.6-1.9-.4-3.3-.8-4.2-1.1l-.8-6.5c.8.3 1.8.6 3 .9 1.1.3 2.4.6 3.7.8 1.3.2 2.7.3 4.1.3 1.6 0 2.9-.1 3.7-.4.8-.3 1.4-.6 1.7-1 .3-.4.4-.9.4-1.3v-.1c0-.7-.3-1.3-.9-1.8s-1.6-.6-3.1-.6c-1.4 0-2.6.2-3.6.5s-1.8.8-2.4 1.3l-6.5-1.3v-14.4h23.2v6.1h-16v3.3l-.1 3h.2c.5-1.2 1.4-2.1 2.7-2.9 1.3-.8 3.1-1.2 5.5-1.2 2.9 0 5.1.7 6.6 2.1 1.4 1.4 2.2 3.3 2.2 5.8v.3c0 1.7-.4 3.2-1.2 4.5-.8 1.3-2.1 2.4-4.1 3.2-1.9.8-4.5 1.1-7.9 1.1zM940.5 228.2c-4.4 0-7.8-1.1-10.1-3.3s-3.5-5.5-3.5-9.7v-.3c0-4.2 1.2-7.5 3.5-9.7 2.3-2.2 5.7-3.3 10.1-3.3 4.5 0 7.8 1.1 10.1 3.3 2.3 2.2 3.5 5.5 3.5 9.7v.3c0 4.3-1.2 7.5-3.5 9.7-2.2 2.2-5.6 3.3-10.1 3.3zm0-6.4c1.9 0 3.3-.6 4.2-1.7.9-1.2 1.3-2.8 1.3-4.9v-.3c0-2.2-.4-3.8-1.3-4.9-.9-1.1-2.3-1.7-4.2-1.7-1.9 0-3.3.6-4.2 1.7-.9 1.2-1.3 2.8-1.3 4.9v.3c0 2.1.5 3.8 1.4 4.9.8 1.2 2.2 1.7 4.1 1.7zM988.2 214h-22.4l.4-3.7h22.4l-.4 3.7zm0 5.6h-22.4l.4-3.7h22.4l-.4 3.7zm-4.3 8.6c-5.2 0-9.1-1.2-11.6-3.5s-3.7-5.5-3.7-9.7v-.3c0-4 1.2-7.2 3.7-9.5 2.4-2.3 6.3-3.4 11.6-3.4 1.5 0 2.9.1 4.1.4 1.3.3 2.3.6 3.1.9l.7 6.4c-.9-.4-1.9-.7-3.1-.9-1.2-.2-2.5-.3-4-.3-2.8 0-4.8.6-6 1.7s-1.8 2.7-1.8 4.7v.3c0 2 .6 3.6 1.8 4.8s3.4 1.8 6.4 1.8c1.4 0 2.7-.1 3.9-.4 1.2-.3 2.2-.5 2.9-.9l-.7 6.7c-.6.2-1.6.5-2.9.8-1.2.3-2.7.4-4.4.4z"/></g><g><path class="st2" d="M1049.5 152.9h-10.9v-1.5h10.9v1.5zm-4.6 9.1h-1.8v-10h1.8v10zM1050.5 162h-1.9l4.9-10.6h2.8l4.9 10.6h-1.9l-4.2-9.4h-.3l-4.3 9.4zm7.8-2.9h-6.8v-1.5h6.8v1.5zM1064.9 162h-1.8v-10.6h1.8V162zm8.8 0h-2l-.4-1.7c-.1-.5-.2-.9-.4-1.2-.2-.3-.4-.6-.7-.7-.3-.2-.8-.2-1.4-.2h-4.6v-1.4h5c.8 0 1.4-.2 1.8-.5.4-.3.6-.8.6-1.4v-.1c0-.6-.2-1-.5-1.3s-.9-.5-1.8-.5h-5v-1.5h5.2c1.4 0 2.4.3 3 .8s1 1.3 1 2.2v.1c0 .7-.2 1.3-.6 1.7-.4.4-1 .7-1.8.8v.2l-.9-.3c.7 0 1.3.2 1.7.4s.7.6.9 1c.2.4.4.9.5 1.5l.4 2.1zM1078 151.4V162h-1.8v-10.6h1.8zM1082.9 162h-1.8v-10.6h1.8V162zm7.4-9.1h-9.2v-1.5h9.2v1.5zm-.2 5h-8.1v-1.5h8.1v1.5zM1101.9 162h-4.2v-13.2h4.2V162zm3.2 0h-4.3v-3.4h4.2c1.1 0 1.9-.3 2.5-.8.5-.6.8-1.3.8-2.3v-.2c0-1-.3-1.7-.8-2.3s-1.4-.8-2.5-.8h-4.2v-3.4h4.3c2.5 0 4.3.6 5.6 1.7 1.3 1.1 1.9 2.7 1.9 4.8v.2c0 2.1-.6 3.7-1.9 4.9s-3.1 1.6-5.6 1.6zM1119 148.8V162h-4.2v-13.2h4.2zM1127.8 162.4c-.8 0-1.6-.1-2.3-.2-.7-.1-1.4-.2-2.1-.4-.6-.2-1.2-.3-1.7-.5l-.4-3.7c.8.3 1.8.6 3 .9 1.1.3 2.3.4 3.6.4 1 0 1.8-.1 2.2-.2.4-.1.6-.4.6-.7 0-.2-.1-.4-.3-.6-.2-.1-.5-.2-1-.3-.5-.1-1.1-.2-2-.3-1.4-.2-2.5-.4-3.4-.7-.9-.3-1.6-.7-2-1.3-.5-.6-.7-1.3-.7-2.3v-.1c0-1.4.5-2.4 1.6-3.1 1.1-.7 2.7-1 4.8-1 1.3 0 2.5.1 3.5.3 1 .2 1.8.4 2.6.7l.5 3.4c-.9-.4-1.8-.6-2.9-.8-1-.2-2.1-.3-3.2-.3-.7 0-1.3 0-1.7.1-.4.1-.6.2-.8.3-.1.1-.2.3-.2.5s.1.4.2.5c.2.1.5.2.9.3s1.1.2 2 .3c1.3.1 2.5.3 3.4.6.9.3 1.6.7 2.1 1.2s.7 1.3.7 2.3v.1c0 1.5-.6 2.7-1.7 3.4-1.1.8-2.9 1.2-5.3 1.2zM1141.1 162h-4.1v-13.2h4.1V162zm3.7-3.5h-4.8v-3.2h4.6c.7 0 1.2-.1 1.6-.4.3-.3.5-.7.5-1.2v-.1c0-.5-.2-.9-.5-1.2-.3-.3-.9-.4-1.6-.4h-4.6v-3.2h4.8c2.1 0 3.6.4 4.6 1.2 1 .8 1.5 2 1.5 3.5v.1c0 1.5-.5 2.7-1.5 3.5-1 .9-2.5 1.4-4.6 1.4zM1160.5 162.5c-2.7 0-4.7-.6-6.1-1.8s-2.1-2.9-2.1-5.2v-.1c0-2.2.7-3.9 2.1-5.2 1.4-1.2 3.4-1.8 6.1-1.8 2.7 0 4.7.6 6.1 1.8 1.4 1.2 2.1 2.9 2.1 5.2v.1c0 2.2-.7 3.9-2.1 5.2s-3.4 1.8-6.1 1.8zm0-3.4c1.2 0 2.2-.3 2.8-1 .6-.6 1-1.5 1-2.6v-.2c0-1.1-.3-2-1-2.6s-1.6-1-2.8-1c-1.2 0-2.2.3-2.8 1s-1 1.5-1 2.6v.2c0 1.1.3 2 1 2.6.6.7 1.6 1 2.8 1zM1180.1 148.8l-.4 8.7h-3.6l-.4-8.7h4.4zm-2.3 13.6c-.8 0-1.3-.2-1.7-.5-.4-.3-.5-.8-.5-1.4v-.1c0-.6.2-1.1.5-1.4.4-.3.9-.5 1.7-.5.8 0 1.3.2 1.7.5.4.3.5.8.5 1.4v.1c0 .6-.2 1-.5 1.4-.3.3-.9.5-1.7.5zM1049.6 184.3v1.9c0 .1 0 .2-.1.2l-8.9.2-.3-.3V183c0-.7 0-1 .1-1H1049.4c.1.1.2.8.2 2v.3zM1071.3 173.9v3.6c0 2.4 0 4.4.1 6.1l.1 7.5c-.2.2-.7.3-1.6.3h-5.4l-.2-.3c-.1-.1-.1-.4-.1-.8s0-3 .1-7.9v-3.3c-1.3.9-2.6 1.6-3.9 2-.1 0-.1 0-.1-.1v-5l.4-.2c.2-.1.4-.2.7-.3.3-.1.4-.2.5-.2.1 0 .1-.1.2-.1 2.1-1 3.3-1.9 3.8-2.6l3.7.1h1.7v1.2zM1094.3 188.4l-.1 2.4v.2c0 .2-.1.3-.3.3l-5-.1c-3.5 0-7.1.1-10.9.2l-.2-.2c-.1-.1-.2-.5-.2-1.1v-3.6c0-.1.6-.6 1.9-1.5l2.1-1.4c1.5-1 2.6-1.8 3.3-2.5 1.3-1.2 2-2.3 2-3.2 0-.4-.1-.8-.4-1-.3-.2-.6-.4-1-.4s-.7.1-.9.3c-.2.2-.3.4-.4.6-.2.7-.3 1.1-.4 1.1H1078c-.3 0-.4 0-.5-.1.1-1 .2-1.7.3-2.2.2-.8.6-1.4 1.1-2s1.2-1 1.9-1.3c1.4-.6 3.1-.9 4.9-.9 2.8 0 5 .6 6.5 1.9 1.1.9 1.7 2.2 1.7 3.7 0 2-.9 3.7-2.7 5.4-.9.8-2 1.7-3.5 2.6l-.8.8 5.9-.1c.5 0 .8.2 1 .5s.5.9.5 1.6zM1122.9 191.1c0 .1-.2.2-.7.2h-3.8c-1.2 0-2.1 0-2.9-.1l-.1-.1-.1-.3c-.1-.8-.3-1.6-.6-2.4h-5.2c0 .1-.1.5-.3 1.2-.2.7-.3 1.2-.4 1.5-.1.1-.5.1-1.2.1h-1l-3.2.1h-1.5l-.2-.2c.8-2.8 1.9-6.3 3.3-10.4l.3-.9.3-1 .9-2.7c.5-1.5.8-2.4.9-2.9.1-.4.2-.7.2-.7h2l4.3-.1 1.2.1 1-.1c.5 0 .7.1.7.3.8 2.3 1.9 5.5 3.2 9.7 1.4 4.2 2.1 6.6 2.3 7.1l.2.6c.3.6.3.8.4 1zm-12-6.6h3.4c-.1-1-.2-1.7-.3-2.1l-.5-2.1c-.5-2.1-.7-3.2-.8-3.3v-.5c-.1-.1-.2-.2-.4-.3-.2 0-.9 2.5-2 7.3l-.1.8h.7zM1142 182.5v8.6c0 .1-.2.1-.6.1H1133.7c-.1-.1-.6-1.3-1.3-3.5l-2.3-6.1-.4.1v9.2c0 .4-.1.6-.2.6H1123.9c-.3-.2-.4-.4-.4-.5v-.4l.1-4.7c0-5.2 0-9.1.1-11.8v-1c0-.1 2.8-.1 8.4-.2 0 0 .1.2.2.5l.1.2c.6 1.7 1.3 3.7 2.2 5.9.9 2.2 1.3 3.4 1.3 3.4h.4V173c0-.1.6-.1 1.8-.1l3 .1h.9c-.1 2.5 0 5.7 0 9.5zM1143.9 186l6.4-.1c.2 0 .3.1.4.4.1.3.2.5.3.7.3.4.7.6 1.2.6s1-.1 1.4-.4c.4-.3.5-.6.5-1s-.1-.7-.3-.9-.5-.3-.7-.5c-.3-.1-.6-.3-1.1-.3-.5-.1-.8-.1-.8-.1l-.7-.2c-.4-.1-.8-.2-1.1-.3-1.9-.5-3.3-1.2-4.2-2s-1.3-1.8-1.3-3.2c0-1 .2-1.8.5-2.6.4-.8.8-1.4 1.4-1.9 1.7-1.4 3.9-2.1 6.9-2.1 2.3 0 4.1.4 5.5 1.3.8.6 1.4 1.2 1.7 1.8.3.6.5 1.3.6 2.2l-.3.3c-2.1.1-4 .1-5.7.1-.5 0-.8-.1-.9-.4 0-.1-.1-.2-.1-.4-.1-.3-.5-.4-1.1-.4-.5 0-.9.1-1.2.3-.3.2-.5.4-.5.6 0 .2 0 .4.1.5l.3.3c.1.1.3.2.5.2s.4.1.5.2.3.1.5.1l.4.1c.2 0 .7.2 1.5.4s1.5.4 2.1.6c1.7.6 2.9 1.3 3.5 2.2s.9 1.9.9 3c0 3.1-1.8 5.1-5.5 6-1.1.3-2.2.5-3.4.6-1.5 0-3-.2-4.4-.7-1.5-.4-2.4-1.1-2.9-2.1-.3-.5-.6-.9-.7-1.3s-.2-1-.3-1.7l.1.1zM1081.6 231h-7.8v-17.6h-.3l-6.3 2.1.2-6.7 7.1-2.4h7.1V231zM1099.6 231.9c-4.4 0-7.8-1.1-10.1-3.3s-3.5-5.5-3.5-9.7v-.3c0-4.2 1.2-7.5 3.5-9.7 2.3-2.2 5.7-3.3 10.1-3.3 4.5 0 7.8 1.1 10.1 3.3 2.3 2.2 3.5 5.5 3.5 9.7v.3c0 4.3-1.2 7.5-3.5 9.7-2.3 2.2-5.7 3.3-10.1 3.3zm0-6.4c1.9 0 3.3-.6 4.2-1.7.9-1.2 1.3-2.8 1.3-4.9v-.3c0-2.2-.4-3.8-1.3-4.9-.9-1.1-2.3-1.7-4.2-1.7-1.9 0-3.3.6-4.2 1.7-.9 1.2-1.3 2.8-1.3 4.9v.3c0 2.1.5 3.8 1.4 4.9.8 1.1 2.2 1.7 4.1 1.7zM1147.2 217.7h-22.4l.4-3.7h22.4l-.4 3.7zm0 5.6h-22.4l.4-3.7h22.4l-.4 3.7zm-4.3 8.6c-5.2 0-9.1-1.2-11.6-3.5s-3.7-5.5-3.7-9.7v-.3c0-4 1.2-7.2 3.7-9.5 2.4-2.3 6.3-3.4 11.6-3.4 1.5 0 2.9.1 4.1.4 1.3.3 2.3.6 3.1.9l.7 6.4c-.9-.4-1.9-.7-3.1-.9-1.2-.2-2.5-.3-4-.3-2.8 0-4.8.6-6 1.7s-1.8 2.7-1.8 4.7v.3c0 2 .6 3.6 1.8 4.8s3.4 1.8 6.4 1.8c1.4 0 2.7-.1 3.9-.4 1.2-.3 2.2-.5 2.9-.9l-.7 6.7c-.6.2-1.6.5-2.9.8-1.2.3-2.7.4-4.4.4z"/></g><path style="fill:none;stroke:#fff;stroke-width:1.38;stroke-miterlimit:10" d="M20.7 256h1182.6"/><g><path class="st2" d="M376.1 321V317.6c0-3.6.1-7.8.2-12.5l-.1-.1 2.3-.1c7.3-.4 12.1-.6 14.3-.6h19.6c6.7 0 12.3 1.4 16.7 4.2 1.6 1.3 2.8 3.2 3.8 5.4 1 2.3 1.5 4.8 1.5 7.7 0 5.5-3.7 10.2-11.1 14.1 4.2 1.2 7.4 3 9.6 5.5 2.2 2.5 3.3 5.7 3.3 9.3 0 6.5-2.9 11.5-8.8 14.8-4.3 2.5-9.7 3.8-16.3 3.8l-12.6-.2c-5.4 0-12.6.1-21.6.4-.8-1.7-1.2-8.2-1.2-19.7s.2-20.9.4-28.6zm35.2 7c.6-1.1.8-2.4.8-3.9 0-2.9-1.1-4.9-3.2-5.9s-4.3-1.5-6.6-1.5-3.5.8-3.5 2.5c0 3 .1 6.1.2 9.2l.1 2.2c.1 1.1.7 1.7 1.9 1.9l2.1-.3c4.3-.4 7.1-1.8 8.2-4.2zm-9 28.2c7.3 0 10.9-2.5 10.9-7.6 0-3.2-1-5.4-2.9-6.5-1.8-1-4.5-1.5-8.1-1.6H401l-.8 2.4c-.2 2.9-.3 5.7-.3 8.5s.3 4.4.9 4.8h1.5zM442 363.5c0-5.7.2-9.7.5-11.9 0-12.2.2-24.5.5-36.9-.1-1.8-.1-3.6-.1-5.3V308c-.1-.9-.2-1.6-.2-2.3s.1-1.1.2-1.3c6 .4 11.3.5 15.8.5s7.6-.1 9.3-.3c.1.1.1.3.1.7h-.3v15.2l.3 34.3c0 .3 0 .5.1.6v.1c.1.2.1.4.1.5l.3 12.3c-.1.3-.4.5-.8.7h-1.4l-23.6.4c-.3-.1-.6-.4-1.1-.6v-.7l.3-4.6zM526.6 351.8c-.2.8-.3 1.6-.3 2.5v1c0 1.5.1 2.6.3 3.2v9.8c-.2.7-14 1.1-41.6 1.1-1.3 0-3.4 0-6.3-.1-.4-.8-.7-2.2-.7-4.2l.1-2.7v-38.3c0-2.4 0-4.6-.1-6.7V311c0-3.6.3-5.9.9-6.9h4.3l7.1-.1c8.1 0 12.5.5 13.3 1.5l-.3 14.7-.1 12.3v.5l-.2 17.5 1.7 1c5.1-.3 10-.5 14.8-.5 4.6.1 7 .3 7.1.8zM579.9 351.8c-.2.8-.3 1.6-.3 2.5v1c0 1.5.1 2.6.3 3.2v9.8c-.2.7-14 1.1-41.6 1.1-1.3 0-3.4 0-6.3-.1-.4-.8-.7-2.2-.7-4.2l.1-2.7v-38.3c0-2.4 0-4.6-.1-6.7v-.5l-.1-6.1c0-3.6.3-5.9.9-6.9h4.3l7.1-.1c8.1 0 12.5.5 13.3 1.5l-.3 14.7-.1 12.3v.5l-.2 17.5 1.7 1c5.1-.3 10-.5 14.8-.5 4.7.3 7.1.5 7.2 1zM584.5 315.8l-.2-11.1s.1 0 .3.1c21.3-.4 37.4-.6 48.2-.6.1.1.2.1.3.3v11.9c0 1.2 0 2.1-.1 2.8-.1.5-1 .7-2.5.7h-.3c-6.8 0-13.9-.1-21.2-.3 0 .3 0 .7-.1 1.3-.1.6-.1 1.1-.1 1.4l-.2 1.6c-.1 1.1-.2 2.9-.3 5.6l13.1-.3c2.2-.1 3.9-.1 4.9-.1h.7c1.7 0 2.8 0 3.4.1s.8.4.8.9v1.3l.2 10.8c-8.5.4-15.4.6-20.5.6h-2V353l22.9-.7c1.3 0 2.1.2 2.4.5v3.1l.3 11.5c0 .7-.3 1.1-.9 1.2l-14-.1c-2.8 0-8.2.1-16.4.3l-6.9.2c-4.9.2-8.5.3-10.9.3l-.1-.1-.8-.8V367l.3-45-.3-6.2zM691 320.2c0 .9-.1 1.4-.3 1.4l-15.2-.1c-.1 2.7-.1 7-.1 12.8v12l.2 22.3c-.1.4-.4.6-.8.6l-8.9-.1h-15.2l-.7-.6s-.2-.3-.5-.7c0-2.5.1-8 .3-16.5l.5-22.4-.1-1.1c-.2-2.8-.4-4.4-.6-4.9s-.5-.8-1.1-.8c-.5 0-.9-.1-1.2-.1l-1.7.1-10.4-.2c-.4-.7-.5-2.4-.5-4.9l.1-3.7v-1.1c0-4.5-.1-6.9-.1-7.2.1 0 .2 0 .3.1l53.6-.5c1.1 0 1.8.1 2.1.2.3.2.4.4.4.9v11.1l-.1 3.4z"/><path class="st2" d="M746.5 320.2c0 .9-.1 1.4-.3 1.4l-15.2-.1c-.1 2.7-.1 7-.1 12.8v12l.2 22.3c-.1.4-.4.6-.8.6l-8.9-.1h-15.2l-.7-.6s-.2-.3-.5-.7c0-2.5.1-8 .3-16.5l.5-22.4-.1-1.1c-.2-2.8-.4-4.4-.6-4.9-.2-.5-.5-.8-1.1-.8s-.9-.1-1.2-.1l-1.7.1-10.4-.2c-.4-.7-.5-2.4-.5-4.9l.1-3.7v-1.1c0-4.5-.1-6.9-.1-7.2.1 0 .2 0 .3.1l53.6-.5c1.1 0 1.8.1 2.1.2.3.2.4.4.4.9v11.1l-.1 3.4zM750.5 315.8l-.2-11.1s.1 0 .3.1c21.3-.4 37.4-.6 48.2-.6.1.1.2.1.3.3v11.9c0 1.2 0 2.1-.1 2.8-.1.5-1 .7-2.5.7h-.3c-6.8 0-13.9-.1-21.2-.3 0 .3 0 .7-.1 1.3-.1.6-.1 1.1-.1 1.4l-.2 1.6c-.1 1.1-.2 2.9-.3 5.6l13.1-.3c2.2-.1 3.9-.1 4.9-.1h.7c1.7 0 2.8 0 3.4.1s.8.4.8.9v1.3l.2 10.8c-8.5.4-15.4.6-20.5.6h-2V353l22.9-.7c1.3 0 2.1.2 2.4.5v3.1l.3 11.5c0 .7-.3 1.1-.9 1.2l-14-.1c-2.8 0-8.2.1-16.4.3l-6.9.2c-4.9.2-8.5.3-10.9.3l-.1-.1-.8-.8V367l.3-45-.3-6.2zM824.2 304.6l13.5-.1c2.9 0 5.5.1 7.8.2 6.3.2 11 1.6 14.3 4.4 3.3 2.8 4.9 6.7 4.9 11.8 0 3.5-1 6.5-3.1 9-2 2.5-5 4.7-9 6.5 6.2 2 10 6.7 11.3 14.3.3 1.7.6 3.6.7 5.7.2 2.1.3 3.6.4 4.3l.4 2.1c.4 2.5.8 4.4 1.2 5.5l-.2.1c-4.8.3-9.1.5-13.1.5-3.9 0-7.4-.1-10.5-.2h-.3c-.9 0-1.8-4.1-2.8-12.4l-.2-1.8c-.1-3.1-.7-5.2-1.6-6.2-1-1.1-2.6-1.6-5-1.6h-2.7v21.8c-.1.3-.3.4-.6.5-3.1.1-7.4.2-13.1.2h-11.1l-.3-.1h-.1c-.1 0-.1 0-.3-.1l.1-3.8v-1.3l.2-17.5v-18.6l-.1-9.6.2-13.4c0-.2.8-.3 2.4-.3H818.1l6.1.1zm15.6 13.8c-1.7-.7-3.9-1.1-6.7-1.1h-2.4c-.3.4-.5 2.8-.5 7.1s.1 7.2.2 8.6c8.8-.2 13.2-3.2 13.2-9.1 0-2.5-1.3-4.4-3.8-5.5zm27 49.9zm.3-.1-.2.1v-.1h.2zM870.8 363.5c0-5.7.2-9.7.5-11.9 0-12.2.2-24.5.5-36.9-.1-1.8-.1-3.6-.1-5.3V308c-.1-.9-.2-1.6-.2-2.3s.1-1.1.2-1.3c6 .4 11.3.5 15.8.5s7.6-.1 9.3-.3c.1.1.1.3.1.7h-.3v15.2l.3 34.3c0 .3 0 .5.1.6v.1c.1.2.1.4.1.5l.3 12.3c-.1.3-.4.5-.8.7h-1.4l-23.6.4c-.3-.1-.6-.4-1.1-.6v-.7l.3-4.6zM906.7 315.8l-.2-11.1s.1 0 .3.1c21.3-.4 37.4-.6 48.2-.6.1.1.2.1.3.3v11.9c0 1.2 0 2.1-.1 2.8-.1.5-1 .7-2.5.7h-.3c-6.8 0-13.9-.1-21.2-.3 0 .3 0 .7-.1 1.3-.1.6-.1 1.1-.1 1.4l-.2 1.6c-.1 1.1-.2 2.9-.3 5.6l13.1-.3c2.2-.1 3.9-.1 4.9-.1h.7c1.7 0 2.8 0 3.4.1.5.1.8.4.8.9v1.3l.2 10.8c-8.5.4-15.4.6-20.5.6h-2V353l22.9-.7c1.3 0 2.1.2 2.4.5v3.1l.3 11.5c0 .7-.3 1.1-.9 1.2l-14-.1c-2.8 0-8.2.1-16.4.3l-6.9.2c-4.9.2-8.5.3-10.9.3l-.1-.1-.8-.8V367l.3-45-.3-6.2z"/></g><path class="st2" d="m304.3 365.9-24.5-24.5 38.5-38.5 24.5 24.5-38.5 38.5zm50.3-47.5-7.1-7.1c-.7.4-1.4.7-2.2.9-.8.2-1.6.3-2.4.3-2.6 0-4.9-.9-6.7-2.8-1.8-1.9-2.8-4.1-2.8-6.8 0-.9.1-1.7.3-2.4.2-.8.5-1.5.8-2.2l-7.1-7.1c-.9-.9-2-1.4-3.4-1.4-1.3 0-2.5.5-3.5 1.4l-52 52.1c-.9.9-1.4 2-1.4 3.4s.5 2.4 1.4 3.4l7.1 7.1c.7-.4 1.4-.6 2.2-.8.8-.2 1.6-.3 2.4-.3 2.6 0 4.9.9 6.7 2.8 1.8 1.8 2.8 4.1 2.8 6.7 0 .9-.1 1.7-.3 2.4-.2.8-.5 1.5-.8 2.2l7.1 7.1c.9.9 2 1.4 3.4 1.4 1.3 0 2.5-.5 3.5-1.4l52-52c.9-.9 1.4-2.1 1.4-3.4s-.5-2.6-1.4-3.5zm-67.1 23.1 16.8 16.8 30.8-30.8-16.8-16.8-30.8 30.8z"/></svg>