<svg id="Calque_1" data-name="Calque 1" xmlns="http://www.w3.org/2000/svg" viewBox="0 0 1224.03 433.28"><defs><style>.cls-1{fill:#ef7b90}.cls-3{fill:#fff}.cls-4{fill:#d681a3}.cls-5{fill:#808181}.cls-6{fill:#343434}.cls-7{fill:#4e4d4d}</style></defs><path class="cls-6" d="M1164.89 412.58H59.14c-21.14 0-38.44-17.3-38.44-38.44V220.6h1182.63v153.55c0 21.14-17.3 38.44-38.44 38.44z"/><path class="cls-6" d="M310.5 229.25V59.14c0-21.14 17.3-38.44 38.44-38.44h519.25c21.14 0 38.44 17.3 38.44 38.44v170.11H310.5z"/><path class="cls-4" d="M20.7 256.01v-93.37c0-21.14 17.3-38.44 38.44-38.44h296.03v131.81H20.7zM1203.33 256.01v-93.37c0-21.14-17.3-38.44-38.44-38.44h-149.27v131.81h187.71z"/><path class="cls-3" d="M59.14 433.28C26.53 433.28 0 406.75 0 374.14V199.9h1224.03v174.25c0 32.61-26.53 59.14-59.14 59.14H59.14z"/><path class="cls-3" d="M289.8 249.95V59.14C289.8 26.53 316.33 0 348.94 0h519.25c32.61 0 59.14 26.53 59.14 59.14v190.81H289.8z"/><path class="cls-3" d="M0 276.71V162.64c0-32.61 26.53-59.14 59.14-59.14h316.73v173.21H0zM836.22 276.71V103.5h328.67c32.61 0 59.14 26.53 59.14 59.14v114.07H836.22z"/><rect class="cls-3" x="25.53" y="129.72" width="1182.63" height="288.38" rx="38.44" ry="38.44"/><path class="cls-6" d="M1164.89 412.58H59.14c-21.14 0-38.44-17.3-38.44-38.44V255.78h1182.63v118.36c0 21.14-17.3 38.44-38.44 38.44zM310.5 121.61V59.14c0-21.14 17.3-38.44 38.44-38.44h519.25c21.14 0 38.44 17.3 38.44 38.44v62.47H310.5z"/><path class="cls-1" d="M382.22 71.5h-7.12V48.51h7.11V61.3l.02 3.04v7.16zm6.49-6.21h-8.35v-5.54h7.99c1.25 0 2.17-.22 2.76-.67s.89-1.13.89-2.07v-.23c0-.94-.3-1.62-.89-2.07-.59-.44-1.51-.67-2.76-.67h-7.99V48.5h8.35c3.62 0 6.29.72 8.01 2.15 1.72 1.43 2.58 3.48 2.58 6.14v.23c0 2.6-.86 4.63-2.58 6.08s-4.39 2.18-8.01 2.18zM405.35 71.5h-7.56l9.73-22.99h10.56l9.61 22.99h-7.56l-7.07-18.51h-.52l-7.2 18.51zm14.43-4.93h-14.09v-5.5h14.09v5.5zM440.6 72.15c-1.43 0-2.79-.09-4.08-.27-1.3-.18-2.49-.41-3.59-.68-1.1-.28-2.07-.56-2.92-.85l-.77-6.49c1.43.58 3.14 1.11 5.14 1.61 2 .5 4.06.75 6.18.75 1.82 0 3.07-.12 3.75-.35.68-.23 1.02-.65 1.02-1.25v-.07c0-.42-.16-.74-.49-.97s-.91-.41-1.73-.56c-.82-.14-1.96-.29-3.43-.45-2.39-.28-4.37-.67-5.96-1.17-1.59-.5-2.78-1.25-3.56-2.23-.79-.98-1.18-2.33-1.18-4.03v-.13c0-2.4.94-4.19 2.83-5.37s4.69-1.77 8.39-1.77c2.33 0 4.33.17 6.02.51s3.16.76 4.43 1.25l.81 5.94c-1.52-.61-3.18-1.09-4.98-1.44-1.8-.35-3.65-.52-5.54-.52-1.27 0-2.23.06-2.89.18-.65.12-1.09.29-1.31.5-.22.22-.33.48-.33.79v.02c0 .35.13.64.4.86.26.23.79.43 1.59.59.8.17 1.98.34 3.55.5 2.34.24 4.32.59 5.94 1.04 1.62.46 2.85 1.16 3.68 2.1s1.25 2.29 1.25 4.01v.2c0 2.67-.99 4.63-2.98 5.87-1.99 1.24-5.06 1.86-9.22 1.86zM466.88 72.15c-1.43 0-2.79-.09-4.08-.27-1.3-.18-2.49-.41-3.59-.68-1.1-.28-2.07-.56-2.92-.85l-.77-6.49c1.43.58 3.14 1.11 5.14 1.61 2 .5 4.06.75 6.18.75 1.82 0 3.07-.12 3.75-.35.68-.23 1.02-.65 1.02-1.25v-.07c0-.42-.16-.74-.49-.97s-.91-.41-1.73-.56c-.82-.14-1.96-.29-3.43-.45-2.39-.28-4.37-.67-5.96-1.17-1.59-.5-2.78-1.25-3.56-2.23-.79-.98-1.18-2.33-1.18-4.03v-.13c0-2.4.94-4.19 2.83-5.37s4.69-1.77 8.39-1.77c2.33 0 4.33.17 6.02.51s3.16.76 4.43 1.25l.81 5.94c-1.52-.61-3.18-1.09-4.98-1.44-1.8-.35-3.65-.52-5.54-.52-1.27 0-2.23.06-2.89.18-.65.12-1.09.29-1.31.5-.22.22-.33.48-.33.79v.02c0 .35.13.64.4.86.26.23.79.43 1.59.59.8.17 1.98.34 3.55.5 2.34.24 4.32.59 5.94 1.04 1.62.46 2.85 1.16 3.68 2.1s1.25 2.29 1.25 4.01v.2c0 2.67-.99 4.63-2.98 5.87-1.99 1.24-5.06 1.86-9.22 1.86zM511.62 71.5h-21.19v-6.15l7.25-3.47c1.49-.72 2.68-1.35 3.57-1.89.89-.54 1.54-1.06 1.94-1.57.4-.5.6-1.05.6-1.66v-.13c0-.5-.12-.96-.37-1.36-.25-.4-.7-.72-1.36-.96s-1.62-.36-2.88-.36c-1.6 0-3.14.2-4.64.59-1.5.4-2.81.83-3.92 1.3l.79-6.12c.72-.33 1.55-.64 2.48-.92.94-.28 1.97-.5 3.11-.67 1.14-.17 2.38-.25 3.72-.25 3.44 0 6.06.67 7.86 2 1.8 1.33 2.7 3.23 2.7 5.7v.25c0 1.15-.2 2.19-.58 3.11-.39.92-1.04 1.78-1.95 2.57-.91.79-2.17 1.57-3.76 2.34l-3.35 1.6v1.42l-3.18-1.19h13.15v5.79zM528.87 71.91c-.95 0-1.92-.07-2.91-.22-1-.14-1.91-.35-2.73-.63l-.61-6.08c.79.23 1.58.41 2.36.56.78.14 1.58.22 2.39.22 1.71 0 2.87-.34 3.45-1.03.59-.68.88-1.8.88-3.35V48.5h7.3v13.62c0 3.29-.8 5.74-2.4 7.36s-4.18 2.43-7.73 2.43zM556.83 72.31c-4.63 0-8.14-1.06-10.53-3.19-2.39-2.13-3.59-5.12-3.59-8.99v-.25c0-3.86 1.2-6.86 3.59-8.99 2.39-2.13 5.9-3.19 10.53-3.19s8.14 1.06 10.53 3.19c2.39 2.13 3.59 5.12 3.59 8.99v.25c0 3.86-1.2 6.86-3.59 8.99-2.39 2.13-5.9 3.19-10.53 3.19zm0-5.9c2.13 0 3.76-.55 4.87-1.67 1.11-1.11 1.66-2.64 1.66-4.6v-.29c0-1.96-.55-3.49-1.66-4.6s-2.73-1.66-4.87-1.66-3.77.55-4.88 1.66-1.66 2.64-1.66 4.6v.29c0 1.96.55 3.49 1.66 4.6 1.1 1.11 2.73 1.67 4.88 1.67zM587.5 72.31c-4.34 0-7.6-.98-9.77-2.95-2.17-1.97-3.26-4.89-3.26-8.78V48.51h7.3v12.05c0 1.86.48 3.28 1.44 4.26s2.39 1.48 4.28 1.48 3.32-.49 4.28-1.48c.96-.98 1.44-2.4 1.44-4.26V48.51h7.3v12.07c0 3.89-1.08 6.81-3.24 8.78-2.16 1.97-5.42 2.95-9.79 2.95zM612.26 71.5h-7.12V48.51h7.11v13.15l.02 2.46v7.38zm17.97 0h-7.72l-.47-2.97c-.16-.98-.38-1.75-.68-2.29-.3-.55-.73-.93-1.3-1.15-.57-.22-1.34-.33-2.31-.33l-7.56-.04V59.5l8.47-.04c1.25-.01 2.14-.25 2.68-.7.54-.46.81-1.1.81-1.94v-.16c0-.84-.27-1.48-.81-1.93-.54-.45-1.43-.67-2.68-.67h-8.47v-5.54h9.25c3.48 0 6.02.55 7.62 1.65 1.6 1.1 2.4 2.74 2.4 4.89v.16c0 1.67-.5 2.93-1.5 3.8-1 .86-2.48 1.34-4.44 1.44v1.13l-.86-.99c1.56.12 2.78.42 3.66.9.88.48 1.55 1.18 2.01 2.11s.82 2.12 1.1 3.58l.81 4.32zM644.1 72.15c-1.43 0-2.79-.09-4.08-.27-1.3-.18-2.49-.41-3.59-.68-1.1-.28-2.07-.56-2.92-.85l-.77-6.49c1.43.58 3.14 1.11 5.14 1.61 2 .5 4.06.75 6.18.75 1.82 0 3.07-.12 3.75-.35.68-.23 1.02-.65 1.02-1.25v-.07c0-.42-.17-.74-.5-.97s-.91-.41-1.73-.56c-.82-.14-1.96-.29-3.43-.45-2.39-.28-4.37-.67-5.96-1.17-1.59-.5-2.78-1.25-3.56-2.23-.79-.98-1.18-2.33-1.18-4.03v-.13c0-2.4.94-4.19 2.83-5.37 1.89-1.18 4.69-1.77 8.39-1.77 2.33 0 4.33.17 6.02.51 1.68.34 3.16.76 4.43 1.25l.81 5.94c-1.52-.61-3.18-1.09-4.98-1.44-1.8-.35-3.65-.52-5.54-.52-1.27 0-2.23.06-2.89.18-.65.12-1.09.29-1.31.5s-.33.48-.33.79v.02c0 .35.13.64.4.86.26.23.79.43 1.59.59.8.17 1.98.34 3.55.5 2.34.24 4.32.59 5.94 1.04 1.62.46 2.85 1.16 3.68 2.1s1.25 2.29 1.25 4.01v.2c0 2.67-.99 4.63-2.98 5.87-1.98 1.24-5.06 1.86-9.22 1.86zM673.06 74.92h-7.39V54.11h7.39v3.44h-2.8v13.92h2.8v3.44zM688.06 71.5h-7.53l-6.48-16.48h5.52l4.55 12.48h.36l4.55-12.48h5.52l-6.49 16.48zM701.54 71.5h-5.12V55.02h5.12V71.5zm10.77-12.48h-15.88v-4h15.88v4zm.23 12.48h-16.12v-4h16.12v4zm-.5-6.43h-12.96v-3.78h12.96v3.78zM715.56 55.02h7.21l6.25 11.06h.23l-.14-5.71v-5.35h5.14V71.5h-6.88l-6.58-11.51h-.23l.14 5.71v5.8h-5.14V55.02zM751.54 65.72h-14.08v-3.89h14.08v3.89zm-4.92-8.78v13.67h-4.23V56.94h4.23zM762.27 71.96c-1.02 0-2-.06-2.93-.19-.93-.13-1.79-.29-2.57-.49-.79-.2-1.48-.4-2.1-.61l-.55-4.65c1.02.41 2.25.8 3.68 1.15 1.43.36 2.91.53 4.43.53 1.31 0 2.2-.08 2.69-.25.49-.17.73-.47.73-.9v-.05c0-.3-.12-.53-.36-.7s-.65-.3-1.24-.4c-.59-.1-1.41-.21-2.46-.32-1.71-.2-3.13-.48-4.27-.84-1.14-.36-1.99-.89-2.55-1.6-.56-.7-.85-1.67-.85-2.89v-.09c0-1.72.68-3 2.03-3.85 1.35-.85 3.36-1.27 6.01-1.27 1.67 0 3.1.12 4.31.37s2.27.54 3.18.9l.58 4.25c-1.09-.44-2.28-.78-3.57-1.03s-2.61-.37-3.97-.37c-.91 0-1.6.04-2.07.13-.47.09-.78.21-.94.36-.16.16-.24.34-.24.57 0 .26.09.47.28.63.19.16.57.31 1.14.43s1.42.24 2.55.36c1.68.17 3.09.42 4.25.75 1.16.33 2.04.83 2.64 1.51s.9 1.64.9 2.88v.14c0 1.92-.71 3.32-2.13 4.21s-3.63 1.33-6.61 1.33zM777.38 71.5h-5.42l6.98-16.48h7.57l6.89 16.48h-5.42l-5.07-13.27h-.37l-5.16 13.27zm10.34-3.53h-10.09v-3.95h10.09v3.95zM800.14 71.5h-5.12l.88-16.48h7.27l3.24 9.46h.28l3.28-9.46h7.26l.88 16.48h-5.12l-.23-6.03-.19-5.09h-.27l-3.24 9.14h-4.96l-3.28-9.14h-.28l-.18 5.09-.21 6.03zM827.78 54.11v20.81h-7.39v-3.44h2.8V57.56h-2.8v-3.44h7.39z"/><path class="cls-3" d="M378.05 90.91v.18c0 .93.11 1.85.34 2.74.23.89.57 1.75 1.03 2.57.46.82 1.03 1.59 1.72 2.32h-2.28c-.65-.7-1.19-1.46-1.62-2.25-.43-.8-.74-1.65-.95-2.54-.21-.9-.31-1.84-.31-2.83v-.18c0-.96.11-1.88.32-2.76.21-.88.54-1.72.97-2.51.43-.8.97-1.54 1.63-2.23h2.25c-.69.72-1.27 1.48-1.72 2.29a10.433 10.433 0 0 0-1.37 5.22zM385.67 96.34h-2.11V84.08h2.11v12.26zm4.85-3.98h-5.41v-1.74h5.41c.99 0 1.7-.2 2.14-.61.44-.41.67-.98.67-1.71v-.16c0-.74-.22-1.31-.67-1.72-.44-.41-1.16-.61-2.14-.61h-5.47v-1.73h5.47c1.72 0 2.99.36 3.8 1.08.81.72 1.22 1.71 1.22 2.97v.17c0 1.25-.41 2.23-1.22 2.96s-2.08 1.09-3.8 1.09zM400.34 84.08v12.26h-2.14V84.08h2.14zm-1.05 12.26v-1.76h9.39v1.76h-9.39zM412.15 96.34h-2.22l5.67-12.26h3.22l5.63 12.26h-2.22l-4.87-10.92h-.31l-4.91 10.92zm8.99-3.4h-7.89v-1.73h7.89v1.73zM432.5 96.65c-2.33 0-4.1-.56-5.31-1.67s-1.8-2.69-1.8-4.71v-.18c0-2 .59-3.55 1.78-4.66s2.92-1.67 5.21-1.67c.74 0 1.41.06 2.01.17s1.14.26 1.62.45.88.37 1.22.57l.19 1.92c-.59-.36-1.29-.67-2.1-.94s-1.74-.4-2.83-.4c-1.6 0-2.81.4-3.65 1.2-.83.8-1.25 1.92-1.25 3.36v.18c0 1.45.42 2.58 1.26 3.39.84.81 2.11 1.21 3.8 1.21 1.02 0 1.93-.13 2.75-.4s1.52-.58 2.12-.94l-.18 1.92c-.34.2-.75.39-1.23.57a10.305 10.305 0 0 1-3.64.63zM442.51 96.34h-2.1V84.08h2.1v12.26zm8.9-10.53h-10.9v-1.74h10.9v1.74zm.13 10.53h-11.03V94.6h11.03v1.74zm-.35-5.37h-9.69v-1.71h9.69v1.71zM459.75 96.62c-.86 0-1.65-.07-2.36-.2-.72-.13-1.36-.29-1.92-.49-.56-.19-1.04-.38-1.43-.56l-.23-2.06c.7.37 1.57.71 2.6 1.02 1.03.31 2.15.46 3.34.46 1.29 0 2.24-.16 2.84-.46.6-.31.9-.79.9-1.43v-.02c0-.44-.12-.79-.36-1.05s-.66-.46-1.25-.6c-.6-.14-1.42-.25-2.48-.34-1.38-.11-2.47-.3-3.29-.56-.82-.27-1.41-.64-1.77-1.13s-.54-1.12-.54-1.89v-.04c0-1.12.45-1.98 1.36-2.57.91-.59 2.29-.88 4.16-.88 1.29 0 2.38.12 3.29.35.91.23 1.65.48 2.23.75l.24 1.88c-.7-.35-1.52-.64-2.46-.87-.94-.24-1.98-.35-3.11-.35-.87 0-1.56.07-2.07.21-.51.14-.87.33-1.09.58s-.33.56-.33.92c0 .38.1.68.31.93.2.25.59.45 1.17.6.58.16 1.42.29 2.54.39 1.34.12 2.43.29 3.27.53.83.24 1.44.6 1.83 1.09s.58 1.17.58 2.03v.05c0 1.27-.5 2.21-1.49 2.82-.99.61-2.48.91-4.48.91zM475.95 96.49c-.58 0-1.16-.05-1.73-.15s-1.09-.25-1.55-.43l-.23-1.88c.49.2 1.02.36 1.57.47.55.11 1.12.17 1.7.17 1.13 0 1.93-.26 2.4-.78s.71-1.32.71-2.38v-7.43h2.14v7.52c0 1.63-.39 2.85-1.16 3.67-.77.82-2.06 1.22-3.85 1.22zM490.75 96.65c-2.27 0-4.01-.55-5.23-1.66-1.22-1.11-1.82-2.68-1.82-4.71v-.16c0-2.03.61-3.59 1.82-4.7s2.96-1.66 5.23-1.66 4.02.55 5.23 1.66c1.21 1.11 1.82 2.67 1.82 4.7v.16c0 2.03-.61 3.6-1.82 4.71-1.21 1.11-2.96 1.66-5.23 1.66zm0-1.76c1.59 0 2.79-.41 3.61-1.22.81-.82 1.22-1.94 1.22-3.38v-.18c0-1.43-.41-2.56-1.22-3.37s-2.01-1.22-3.61-1.22-2.8.41-3.61 1.22-1.21 1.94-1.21 3.37v.18c0 1.44.4 2.57 1.21 3.38.81.82 2.01 1.22 3.61 1.22zM506.76 96.65c-2.17 0-3.76-.51-4.79-1.53s-1.54-2.51-1.54-4.48v-6.57h2.14v6.55c0 1.38.33 2.43.99 3.15.66.73 1.73 1.09 3.19 1.09s2.53-.36 3.19-1.09c.66-.73.99-1.78.99-3.15v-6.55h2.14v6.57c0 1.97-.51 3.46-1.53 4.48s-2.61 1.53-4.79 1.53zM518.6 96.34h-2.1V84.08h2.1v12.26zm10.27 0h-2.27l-.41-2c-.11-.55-.26-1.01-.44-1.39-.19-.38-.47-.66-.84-.85-.38-.19-.91-.29-1.6-.29h-5.35v-1.66h5.79c.93 0 1.62-.21 2.05-.61.44-.4.65-.93.65-1.58v-.11c0-.65-.21-1.15-.63-1.53s-1.1-.56-2.03-.56h-5.83v-1.71h6.08c1.58 0 2.74.3 3.47.91.74.61 1.1 1.46 1.1 2.54v.13c0 .84-.22 1.51-.66 2.01-.44.49-1.12.8-2.06.93v.26l-1.08-.32c.83.04 1.48.19 1.93.46.46.27.8.65 1.04 1.14s.43 1.09.58 1.79l.52 2.4zM531.62 84.08h3.12l7.3 10.17h.17l-.08-4.86v-5.31h2.13v12.26h-2.99L533.85 86h-.17l.08 5.26v5.08h-2.14V84.08zM549.92 96.34h-2.1V84.08h2.1v12.26zm8.9-10.53h-10.9v-1.74h10.9v1.74zm.13 10.53h-11.03V94.6h11.03v1.74zm-.35-5.37h-9.69v-1.71h9.69v1.71zm-6.24-8.33 2.94-2.58h2.6v.06l-3.37 2.56h-2.17v-.04zM564.05 96.34h-2.1V84.08h2.1v12.26zm8.9-10.53h-10.9v-1.74h10.9v1.74zm.13 10.53h-11.03V94.6h11.03v1.74zm-.35-5.37h-9.69v-1.71h9.69v1.71zM583.11 96.34h-2.1V84.08h2.1v12.26zm8.9-10.53h-10.9v-1.74h10.9v1.74zm.13 10.53h-11.03V94.6h11.03v1.74zm-.35-5.37h-9.69v-1.71h9.69v1.71zM595.15 84.08h3.12l7.3 10.17h.17l-.08-4.86v-5.31h2.13v12.26h-2.99L597.38 86h-.17l.08 5.26v5.08h-2.14V84.08zM623.63 96.34h-3.23l-5.45-12.26h2.31l4.62 10.62h.26l4.61-10.62h2.31l-5.43 12.26zM633.39 96.34h-2.1V84.08h2.1v12.26zm8.9-10.53h-10.9v-1.74h10.9v1.74zm.13 10.53h-11.03V94.6h11.03v1.74zm-.35-5.37h-9.69v-1.71h9.69v1.71zM645.42 84.08h3.12l7.3 10.17h.17l-.08-4.86v-5.31h2.13v12.26h-2.99L647.65 86h-.17l.08 5.26v5.08h-2.14V84.08zM673.32 85.81h-12.67v-1.74h12.67v1.74zm-5.27 10.53h-2.14V84.76h2.14v11.58zM678.01 96.34h-2.1V84.08h2.1v12.26zm8.9-10.53h-10.9v-1.74h10.9v1.74zm.13 10.53H676V94.6h11.04v1.74zm-.36-5.37h-9.69v-1.71h9.69v1.71zM697.07 96.34h-2.1V84.08h2.1v12.26zm8.9-10.53h-10.9v-1.74h10.9v1.74zm.13 10.53h-11.04V94.6h11.04v1.74zm-.36-5.37h-9.69v-1.71h9.69v1.71zM709.1 84.08h3.12l7.3 10.17h.17l-.08-4.86v-5.31h2.13v12.26h-2.99L711.33 86h-.17l.08 5.26v5.08h-2.14V84.08zM732.69 96.49c-.58 0-1.16-.05-1.73-.15s-1.09-.25-1.55-.43l-.23-1.88c.49.2 1.02.36 1.57.47.55.11 1.12.17 1.7.17 1.13 0 1.92-.26 2.4-.78.47-.52.71-1.32.71-2.38v-7.43h2.14v7.52c0 1.63-.39 2.85-1.16 3.67-.77.82-2.06 1.22-3.85 1.22zM741.45 96.34h-2.22l5.67-12.26h3.22l5.63 12.26h-2.22l-4.87-10.92h-.31l-4.91 10.92zm8.99-3.4h-7.89v-1.73h7.89v1.73zM755.98 84.08h3.12l7.3 10.17h.17l-.08-4.86v-5.31h2.13v12.26h-2.99L758.21 86h-.17l.08 5.26v5.08h-2.14V84.08zM779.54 96.34h-3.23l-5.45-12.26h2.31l4.62 10.62h.26l4.61-10.62h2.31l-5.43 12.26zM789.35 84.08v12.26h-2.14V84.08h2.14zM795.02 96.34h-2.1V84.08h2.1v12.26zm8.9-10.53h-10.9v-1.74h10.9v1.74zm.13 10.53h-11.03V94.6h11.03v1.74zm-.35-5.37h-9.69v-1.71h9.69v1.71zM809.16 96.34h-2.1V84.08h2.1v12.26zm10.27 0h-2.27l-.41-2c-.11-.55-.26-1.01-.44-1.39-.19-.38-.47-.66-.84-.85-.38-.19-.91-.29-1.6-.29h-5.35v-1.66h5.79c.93 0 1.62-.21 2.05-.61.43-.4.65-.93.65-1.58v-.11c0-.65-.21-1.15-.63-1.53-.42-.37-1.1-.56-2.03-.56h-5.83v-1.71h6.08c1.58 0 2.74.3 3.47.91.74.61 1.1 1.46 1.1 2.54v.13c0 .84-.22 1.51-.66 2.01-.44.49-1.12.8-2.06.93v.26l-1.08-.32c.83.04 1.48.19 1.93.46.46.27.8.65 1.04 1.14.24.49.43 1.09.58 1.79l.52 2.4zM824.14 91.09v-.18a10.433 10.433 0 0 0-1.37-5.22c-.46-.81-1.03-1.57-1.72-2.29h2.25c.65.69 1.19 1.43 1.63 2.23.43.8.75 1.63.97 2.51.21.88.32 1.8.32 2.76v.18c0 .99-.1 1.93-.31 2.83s-.52 1.74-.94 2.54c-.42.8-.96 1.55-1.62 2.25h-2.28c.7-.73 1.27-1.5 1.73-2.32s.79-1.67 1.02-2.57c.23-.89.34-1.81.34-2.74z"/><path class="cls-5" d="M20.7 256.01v-93.37c0-21.14 17.3-38.44 38.44-38.44h289.13v131.81H20.7z"/><path class="cls-1" d="M1203.33 256.01v-93.37c0-21.14-17.3-38.44-38.44-38.44h-149.27v131.81h187.71z"/><path style="fill:#ef7b91" d="M351.03 124.2h221.63v131.81H351.03z"/><path class="cls-5" d="M575.12 124.2h217.49v131.81H575.12zM795.37 124.2h217.49v131.81H795.37z"/><g><path class="cls-7" d="M124.59 152.94h-10.94v-1.5h10.94v1.5zm-4.55 9.08h-1.85v-9.99h1.85v9.99zM125.64 162.03h-1.91l4.89-10.58h2.78l4.86 10.58h-1.91l-4.21-9.42h-.27l-4.24 9.42zm7.76-2.93h-6.81v-1.49h6.81v1.49zM140 162.03h-1.81v-10.58H140v10.58zm8.86 0h-1.96l-.36-1.72c-.09-.47-.22-.87-.38-1.2-.16-.32-.4-.57-.73-.73-.33-.17-.79-.25-1.38-.25h-4.62v-1.43h4.99c.81 0 1.4-.18 1.77-.53.38-.34.56-.8.56-1.36v-.09c0-.56-.18-1-.54-1.32-.36-.32-.95-.48-1.75-.48h-5.03v-1.47h5.25c1.36 0 2.36.26 3 .79s.95 1.26.95 2.19v.12c0 .73-.19 1.31-.57 1.73-.38.43-.97.69-1.78.8v.22l-.94-.27c.72.03 1.27.17 1.67.4s.69.56.9.99.37.94.5 1.54l.45 2.07zM153.09 151.44v10.58h-1.85v-10.58h1.85zM158 162.03h-1.82v-10.58H158v10.58zm7.43-9.08h-9.16v-1.5h9.16v1.5zm-.17 4.96h-8.14v-1.5h8.14v1.5zM176.93 162.03h-4.11V148.8h4.11v13.23zm8.64-10.02h-12.75v-3.21h12.75v3.21zm.19 10.02h-12.94v-3.21h12.94v3.21zm-.4-5.17h-10.4v-3.03h10.4v3.03zm-8.1-9.37 2.83-2.96h4.63v.07l-3.6 2.95h-3.85v-.06zM192.28 162.03h-4.1V148.8h4.09v9.11l.01 4.12zm3.74-3.57h-4.8v-3.19h4.6c.72 0 1.25-.13 1.59-.38.34-.25.51-.65.51-1.19v-.13c0-.54-.17-.94-.51-1.19-.34-.26-.87-.38-1.59-.38h-4.6v-3.19h4.8c2.08 0 3.62.41 4.61 1.24.99.82 1.48 2 1.48 3.53v.13c0 1.5-.5 2.66-1.48 3.5-.99.83-2.53 1.25-4.61 1.25zM211.49 162.49c-2.5 0-4.37-.57-5.62-1.7s-1.87-2.82-1.87-5.05v-6.95h4.2v6.93c0 1.07.28 1.89.83 2.45.55.57 1.37.85 2.46.85s1.91-.28 2.46-.85.83-1.38.83-2.45v-6.93h4.2v6.95c0 2.24-.62 3.92-1.86 5.05-1.24 1.13-3.12 1.7-5.63 1.7zM225.83 148.8v13.23h-4.2V148.8h4.2zM234.64 162.4c-.82 0-1.6-.05-2.35-.16-.75-.1-1.43-.24-2.06-.39-.63-.16-1.19-.32-1.68-.49l-.44-3.74c.82.33 1.81.64 2.95.93 1.15.29 2.33.43 3.56.43 1.05 0 1.77-.07 2.16-.2.39-.13.58-.37.58-.72v-.04c0-.24-.1-.43-.28-.56-.19-.13-.52-.24-.99-.32-.47-.08-1.13-.17-1.97-.26-1.37-.16-2.52-.38-3.43-.67-.91-.29-1.6-.72-2.05-1.28-.45-.57-.68-1.34-.68-2.32v-.07c0-1.38.54-2.41 1.63-3.09 1.09-.68 2.7-1.02 4.83-1.02 1.34 0 2.49.1 3.46.29.97.2 1.82.44 2.55.72l.47 3.42c-.88-.35-1.83-.63-2.87-.83-1.03-.2-2.1-.3-3.19-.3-.73 0-1.29.03-1.66.1-.38.07-.63.17-.76.29-.13.12-.19.28-.19.46 0 .21.08.38.23.51s.46.25.92.34 1.14.19 2.04.29c1.35.14 2.48.34 3.42.6.93.26 1.64.67 2.12 1.21s.72 1.31.72 2.31v.11c0 1.54-.57 2.67-1.71 3.38-1.14.71-2.91 1.07-5.3 1.07zM247.9 162.03h-4.11V148.8h4.11v13.23zm8.64-10.02h-12.75v-3.21h12.75v3.21zm.19 10.02h-12.94v-3.21h12.94v3.21zm-.4-5.17h-10.4v-3.03h10.4v3.03zm-8.1-9.37 2.83-2.96h4.63v.07l-3.6 2.95h-3.85v-.06zM263.27 148.8l-.44 8.74h-3.59l-.44-8.74h4.47zm-2.24 13.57c-.75 0-1.3-.17-1.66-.51-.35-.34-.53-.81-.53-1.39v-.05c0-.59.18-1.06.53-1.41.35-.34.9-.52 1.66-.52s1.31.17 1.67.52c.35.35.53.81.53 1.41v.05c0 .59-.18 1.05-.53 1.39s-.91.51-1.67.51zM58.3 186l6.42-.11c.16 0 .3.14.41.41.11.28.22.49.32.66.25.39.67.58 1.24.58s1.04-.14 1.4-.41c.36-.27.53-.62.53-1.05s-.11-.72-.33-.88-.46-.31-.72-.46c-.26-.15-.64-.26-1.15-.35s-.78-.13-.83-.15h.02l-.69-.18c-.44-.08-.82-.17-1.12-.27-1.93-.52-3.33-1.17-4.19-1.95s-1.29-1.84-1.29-3.17c0-.96.18-1.83.53-2.6.36-.77.82-1.39 1.39-1.88 1.66-1.4 3.95-2.1 6.87-2.1 2.32 0 4.14.42 5.47 1.26h-.01c.85.62 1.43 1.22 1.75 1.81.31.59.51 1.33.59 2.2l-.32.32c-2.13.08-4.01.12-5.65.12-.49 0-.79-.15-.89-.44-.04-.12-.08-.24-.13-.36-.11-.29-.48-.44-1.09-.44h-.05c-.48 0-.89.11-1.23.33-.34.22-.51.44-.52.65 0 .21.04.38.13.52s.19.25.3.33.27.16.49.25.38.14.49.17c.11.03.28.07.52.14l.42.11c.17.05.67.17 1.49.36.82.19 1.51.38 2.06.56 1.72.57 2.9 1.3 3.52 2.17s.94 1.88.94 3.04c0 3.08-1.84 5.08-5.52 5.99-1.07.27-2.21.46-3.42.57-1.49 0-2.96-.22-4.42-.65-1.46-.44-2.43-1.15-2.92-2.13-.33-.48-.55-.92-.67-1.32s-.21-.96-.28-1.68c.02 0 .06.01.11.01zM94.3 181.61l-.04 3.41c0 1.04-.17 1.96-.5 2.76-.34.8-.78 1.45-1.33 1.94-1.5 1.36-3.71 2.04-6.63 2.04s-5.2-.71-6.83-2.13c-.57-.49-1.06-1.13-1.45-1.92-.39-.79-.63-1.68-.71-2.67.04-3.38.06-6.5.06-9.38-.04 0-.06-.42-.06-1.27s.04-1.37.11-1.58h.25c1.19-.07 2.81-.1 4.86-.1.15.03.41.05.79.06.38 0 .65.02.79.04l.38.05c.06 1.6.09 3.8.11 6.61l-.07 4.88c0 1.62.47 2.43 1.41 2.43.4 0 .73-.17 1-.52s.41-.74.43-1.18l.05-.12.04-4.09v-.36c.01-1.88-.01-3.69-.06-5.43l-.02-.89c-.02-.36-.02-.67-.02-.96s.04-.48.13-.58c3.12 0 5.47.01 7.06.04.06.06.13.11.22.16h-.01l.13.08c-.06 1.53-.1 3.49-.1 5.89v2.8zM96.55 182.99l.02-4.98v-5.06s.09-.01.23-.01h.45c.17 0 .3 0 .39-.02l1.5-.06c.39-.02.69-.02.9-.02h1.93l3.57-.08c.48 0 1.02.02 1.6.06h.08c.27-.02.45-.02.52-.02 1.62 0 3 .51 4.15 1.54.56.49 1 1.13 1.32 1.9.32.78.49 1.58.49 2.41s-.08 1.54-.25 2.12c-.17.58-.39 1.08-.65 1.48-1.07 1.63-3.13 2.59-6.2 2.86l-2.62.11c-.08 1.94-.12 3.45-.12 4.52v.38l.01.98c-.03.11-.09.19-.18.23l-6.93.11c-.14-.39-.21-1.01-.21-1.87v-6.56zm10.61-5.2c-.32-.85-1.18-1.3-2.57-1.36-.2 0-.48-.01-.84-.01-.1 0-.16 1.19-.18 3.58l-.02.91.04.73c.99-.02 1.87-.23 2.63-.63.76-.4 1.13-1.14 1.13-2.21 0-.45-.06-.79-.18-1.01zM115.04 175.99l-.06-3.19s.04.01.08.04c6.15-.11 10.77-.16 13.89-.17.03.02.06.04.07.07v3.42c0 .33 0 .6-.02.81-.04.13-.28.19-.72.19h-.08c-1.96 0-3.99-.03-6.11-.1 0 .07-.01.2-.03.39-.02.19-.03.32-.04.4l-.06.46c-.04.31-.07.84-.08 1.6l3.76-.08c.65-.02 1.12-.02 1.41-.02h.19c.49 0 .82.01.97.04s.23.11.23.25v.1l-.01.29.06 3.12h-.01c-2.46.12-4.42.18-5.9.18h-.57v2.94l6.59-.21c.36 0 .59.05.69.16 0 .21-.01.51-.01.9l.08 3.3c0 .2-.09.32-.27.35l-4.03-.04c-.79 0-2.37.03-4.73.08l-1.99.05c-1.41.05-2.45.07-3.13.07l-.04-.02h.01l-.23-.23v-.42l.07-12.97v-1.76zM136.27 172.76l3.89-.04c.82 0 1.57.02 2.24.05 1.8.05 3.18.47 4.12 1.27s1.41 1.93 1.41 3.38c0 1.01-.3 1.87-.89 2.59-.59.71-1.45 1.34-2.58 1.89 1.8.57 2.88 1.94 3.26 4.12.09.48.16 1.02.21 1.64.05.62.1 1.03.13 1.24l.12.62c.13.73.24 1.25.34 1.58l-.05.04c-1.37.09-2.63.13-3.77.13s-2.14-.02-3.01-.06h-.07c-.25 0-.52-1.19-.8-3.58l-.06-.52c-.03-.89-.19-1.49-.47-1.79s-.76-.46-1.45-.46h-.16l-.64.01v4.08l.01 2.22c-.02.08-.08.13-.18.15-.89.03-2.15.05-3.77.05s-2.69 0-3.21.01l-.07-.02h-.02s-.04 0-.07-.02l.02-1.09v-.36l.04-5.03v-1.79l.02-3.14v-.41l-.02-2.75.05-3.87c0-.06.23-.1.69-.1h.78l.74.01h1.54l1.67-.01zm4.49 3.95c-.48-.21-1.13-.32-1.94-.32h-.7c-.09.13-.13.81-.13 2.04s.02 2.06.06 2.48c2.53-.06 3.8-.93 3.8-2.62 0-.72-.36-1.25-1.08-1.59zm7.79 14.38h-.01.01zm.06-.04-.06.04v-.02s.02-.01.06-.01zM158.49 175.99l-.06-3.19s.04.01.08.04c6.15-.11 10.77-.16 13.89-.17.03.02.06.04.07.07v3.42c0 .33 0 .6-.02.81-.04.13-.28.19-.72.19h-.08c-1.96 0-3.99-.03-6.11-.1 0 .07-.01.2-.03.39-.02.19-.03.32-.04.4l-.06.46c-.04.31-.07.84-.08 1.6l3.76-.08c.65-.02 1.12-.02 1.41-.02h.19c.49 0 .82.01.97.04s.23.11.23.25v.1l-.01.29.06 3.12h-.01c-2.46.12-4.42.18-5.9.18h-.57v2.94l6.59-.21c.36 0 .59.05.69.16 0 .21-.01.51-.01.9l.08 3.3c0 .2-.09.32-.27.35l-4.03-.04c-.79 0-2.37.03-4.73.08l-1.99.05c-1.41.05-2.45.07-3.13.07l-.04-.02h.01l-.23-.23v-.42l.07-12.97v-1.76z"/><path class="cls-7" d="M193.53 191.14c0 .1-.23.16-.67.16h-1.87l-.74.01h-1.18c-1.17.01-2.15-.02-2.92-.07-.02 0-.05-.06-.08-.15l-.06-.25a8.31 8.31 0 0 0-.57-2.41l-5.19.05c-.03.14-.14.55-.32 1.23-.18.68-.31 1.19-.4 1.54-.08.08-.46.12-1.15.12h-.3l-.7-.01-3.15.07h-.7l-.85.01c-.06-.06-.12-.13-.18-.22.81-2.8 1.9-6.27 3.29-10.41l.28-.86h-.01l.33-1.01c.1-.32.41-1.22.9-2.69.5-1.47.81-2.42.93-2.85s.2-.65.22-.67h2.01l4.31-.06 1.16.06.96-.06c.49 0 .73.1.73.29.81 2.26 1.89 5.5 3.24 9.74 1.35 4.24 2.11 6.62 2.28 7.14l.17.61c.06.22.14.45.24.69zm-12.01-6.62h3.4c-.12-.96-.21-1.67-.28-2.12l-.46-2.07-.75-3.27c-.02-.04-.03-.08-.04-.12-.01-.04-.02-.06-.03-.07 0-.01-.02-.03-.03-.07a.161.161 0 0 0-.04-.07.218.218 0 0 1-.04-.05c-.06-.1-.17-.18-.35-.25-.22.05-.87 2.48-1.95 7.3l-.13.8h.72zM199.61 172.76l3.89-.04c.82 0 1.57.02 2.24.05 1.8.05 3.18.47 4.12 1.27s1.41 1.93 1.41 3.38c0 1.01-.3 1.87-.89 2.59-.59.71-1.45 1.34-2.58 1.89 1.8.57 2.88 1.94 3.26 4.12.09.48.16 1.02.21 1.64.05.62.1 1.03.13 1.24l.12.62c.13.73.24 1.25.34 1.58l-.05.04c-1.37.09-2.63.13-3.77.13s-2.14-.02-3.01-.06h-.07c-.25 0-.52-1.19-.8-3.58l-.06-.52c-.03-.89-.19-1.49-.47-1.79s-.76-.46-1.45-.46h-.16l-.64.01v4.08l.01 2.22c-.02.08-.08.13-.18.15-.89.03-2.15.05-3.77.05s-2.69 0-3.21.01l-.07-.02h-.02s-.04 0-.07-.02l.02-1.09v-.36l.04-5.03v-1.79l.02-3.14v-.41l-.02-2.75.05-3.87c0-.06.23-.1.69-.1h.78l.74.01h1.54l1.67-.01zm4.49 3.95c-.48-.21-1.13-.32-1.94-.32h-.7c-.09.13-.13.81-.13 2.04s.02 2.06.06 2.48c2.53-.06 3.8-.93 3.8-2.62 0-.72-.36-1.25-1.08-1.59zm7.79 14.38h-.01.01zm.06-.04-.06.04v-.02s.02-.01.06-.01zM227.17 186.35c-.06.23-.08.47-.08.73v.28c0 .43.03.74.08.92 0 1.22 0 2.16-.01 2.83-.05.21-4.04.32-11.97.32-.36 0-.97 0-1.81-.02-.13-.24-.19-.64-.19-1.2l.02-.79v-5.06l.01-2.28v-3.67c.01-.68 0-1.32-.01-1.92v-.13l-.04-1.75c0-1.03.08-1.69.25-2 .16 0 .38.01.67.01h.58l2.04-.02c2.32 0 3.6.15 3.83.44l-.1 4.23-.04 3.55v.15l-.06 5.05.48.28c1.46-.09 2.88-.13 4.25-.13s2.06.07 2.08.21zM242.91 172.73h.4c.08.03.14.13.18.29l-.36.72-.79 1.5c-1.19 2.2-1.96 3.67-2.3 4.4l-.41.79c-.44.86-1.2 2.37-2.27 4.54-.02.27-.02.69-.02 1.24v5.01c-.04.13-.12.19-.24.19l-6.95.05c-.18-.23-.27-.49-.27-.78l.02-1.52v-.72l.02-.88c0-1.69-.43-3.5-1.3-5.43l-.81-1.71-1.81-3.61c-.05-.09-.18-.33-.39-.74-.21-.4-.44-.84-.69-1.31-.65-.97-.97-1.63-.97-1.95 0-.04.13-.06.39-.06h3.12c1.72 0 3.02.01 3.89.04.26.05.93 1.99 2.03 5.83l.55 1.93c.82-2.2 1.69-4.78 2.61-7.74 0-.07.61-.1 1.8-.1h1.55c.37 0 .68 0 .93.02h2.1zM252.85 177.47v-.24l-.01-.75c0-1.04.02-2.24.06-3.59l-.02-.02.66-.04c2.11-.11 3.48-.17 4.11-.17h5.65c1.93 0 3.54.4 4.81 1.2.45.39.82.91 1.1 1.56.28.66.42 1.4.42 2.22 0 1.59-1.07 2.95-3.2 4.06 1.21.33 2.13.86 2.77 1.59.64.73.96 1.63.96 2.69 0 1.88-.84 3.3-2.52 4.27-1.24.73-2.8 1.09-4.69 1.09l-3.61-.05c-1.56 0-3.63.04-6.21.11-.23-.48-.34-2.37-.34-5.66s.02-6.06.06-8.27zm10.15 2.04c.16-.31.24-.68.24-1.12 0-.85-.3-1.42-.91-1.71s-1.24-.44-1.9-.44-.99.24-.99.73c0 .87.02 1.75.06 2.66l.02.64c.02.31.19.49.53.55l.59-.07c1.23-.15 2.01-.56 2.35-1.24zm-2.61 8.11c2.09 0 3.14-.73 3.14-2.2 0-.93-.28-1.55-.85-1.87-.51-.27-1.29-.43-2.34-.46h-.35l-.22.68c-.06.83-.08 1.65-.08 2.46s.08 1.27.25 1.39h.45zM271.83 189.71c0-1.64.04-2.78.13-3.42 0-3.52.05-7.06.15-10.64-.02-.51-.04-1.02-.04-1.54v-.4c-.03-.25-.05-.47-.05-.67s.02-.32.06-.38c1.73.11 3.25.16 4.55.16s2.2-.02 2.68-.07c.02.02.03.09.04.21h-.08v4.39l.08 9.87c0 .07.01.13.04.18v.02s.04.1.04.16l.1 3.53c-.04.09-.11.16-.22.21h-.41l-6.79.11c-.08-.04-.19-.1-.32-.18v-.21l.05-1.33zM287.57 172.76l3.89-.04c.82 0 1.57.02 2.24.05 1.8.05 3.18.47 4.12 1.27s1.41 1.93 1.41 3.38c0 1.01-.3 1.87-.89 2.59-.59.71-1.45 1.34-2.58 1.89 1.8.57 2.88 1.94 3.26 4.12.09.48.16 1.02.21 1.64.05.62.1 1.03.13 1.24l.12.62c.13.73.24 1.25.34 1.58l-.05.04c-1.37.09-2.63.13-3.77.13s-2.14-.02-3.01-.06h-.07c-.25 0-.52-1.19-.8-3.58l-.06-.52c-.03-.89-.19-1.49-.47-1.79s-.76-.46-1.45-.46h-.16l-.64.01v4.08l.01 2.22c-.02.08-.08.13-.18.15-.89.03-2.15.05-3.77.05s-2.69 0-3.21.01l-.07-.02h-.02s-.04 0-.07-.02l.02-1.09v-.36l.04-5.03v-1.79l.02-3.14v-.41l-.02-2.75.05-3.87c0-.06.23-.1.69-.1h.78l.74.01h1.54l1.67-.01zm4.49 3.95c-.48-.21-1.13-.32-1.94-.32h-.7c-.09.13-.13.81-.13 2.04s.02 2.06.06 2.48c2.53-.06 3.8-.93 3.8-2.62 0-.72-.36-1.25-1.08-1.59zm7.79 14.38h-.01.01zm.06-.04-.06.04v-.02s.02-.01.06-.01zM305.96 172.67l2.27-.04c3.95 0 6.73.65 8.33 1.96.34.25.71.67 1.12 1.26 1.17 1.71 1.76 3.59 1.76 5.65 0 3.68-1.27 6.4-3.8 8.16-1.51 1.06-3.25 1.6-5.22 1.61l-.05.05h-.3l-3.23-.04c-1.46 0-3.29.04-5.49.11-.15-.29-.23-.63-.23-1.03v-.44l.01-1.89.02-2.69v-4.44c-.02-1.02-.02-1.78-.02-2.28v-2.27l.01-3.47c0-.06.44-.12 1.32-.16.88-.04 1.58-.07 2.11-.07h1.38zm5.14 4.2c-.46-.33-.97-.52-1.53-.56-.19 0-.46-.02-.79-.02s-.58-.02-.73-.02c-.15.22-.24.38-.29.49l-.22.45v.68c0 1.4.03 3.29.1 5.69l.07 3.51c.05.25.21.4.48.45.83-.02 1.48-.07 1.93-.17 1.59-.57 2.39-2.5 2.39-5.81 0-2.45-.47-4.01-1.41-4.67zM155.35 231.68c-1.44 0-2.78-.07-4.02-.21-1.24-.14-2.36-.32-3.37-.54s-1.88-.44-2.62-.66l-.66-6.34c1.35.41 2.87.77 4.56 1.07 1.69.3 3.5.45 5.45.45 1.53 0 2.71-.08 3.52-.24.81-.16 1.36-.4 1.66-.71s.44-.7.44-1.15v-.12c0-.44-.12-.78-.36-1.03s-.64-.43-1.2-.55c-.56-.12-1.32-.19-2.29-.21l-7.9-.19v-5.6l7.86-.19c.97-.03 1.73-.1 2.28-.22s.95-.31 1.19-.57c.24-.26.36-.6.36-1.02v-.06c0-.66-.36-1.12-1.07-1.39s-2.11-.41-4.18-.41c-1.91 0-3.76.17-5.55.52s-3.33.69-4.59 1.02l.66-6.05c1.33-.46 2.85-.85 4.56-1.16 1.71-.31 3.69-.46 5.93-.46 4.08 0 7.15.57 9.21 1.7 2.05 1.13 3.08 2.84 3.08 5.12v.21c0 1.08-.2 2-.61 2.74s-1.06 1.32-1.95 1.73c-.9.41-2.09.65-3.58.72v.97l-.56-.71c2.58.19 4.37.8 5.38 1.81 1.01 1.01 1.52 2.37 1.52 4.07v.29c0 2.33-1.08 4.14-3.25 5.44-2.16 1.29-5.46 1.94-9.89 1.94zM181.78 231.68c-1.44 0-2.78-.07-4.02-.21-1.24-.14-2.36-.32-3.37-.54s-1.88-.44-2.62-.66l-.66-6.34c1.35.41 2.87.77 4.56 1.07 1.69.3 3.5.45 5.45.45 1.53 0 2.71-.08 3.52-.24.81-.16 1.36-.4 1.66-.71s.44-.7.44-1.15v-.12c0-.44-.12-.78-.36-1.03s-.64-.43-1.2-.55c-.56-.12-1.32-.19-2.29-.21l-7.9-.19v-5.6l7.86-.19c.97-.03 1.73-.1 2.28-.22s.95-.31 1.19-.57c.24-.26.36-.6.36-1.02v-.06c0-.66-.36-1.12-1.07-1.39s-2.11-.41-4.18-.41c-1.91 0-3.76.17-5.55.52s-3.33.69-4.59 1.02l.66-6.05c1.33-.46 2.85-.85 4.56-1.16 1.71-.31 3.69-.46 5.93-.46 4.08 0 7.15.57 9.21 1.7 2.05 1.13 3.08 2.84 3.08 5.12v.21c0 1.08-.2 2-.61 2.74s-1.06 1.32-1.95 1.73c-.9.41-2.09.65-3.58.72v.97l-.56-.71c2.58.19 4.37.8 5.38 1.81 1.01 1.01 1.52 2.37 1.52 4.07v.29c0 2.33-1.08 4.14-3.25 5.44-2.16 1.29-5.46 1.94-9.89 1.94zM228.55 217.66h-22.37l.37-3.75h22.37l-.37 3.75zm0 5.64h-22.37l.37-3.75h22.37l-.37 3.75zm-4.29 8.6c-5.24 0-9.1-1.16-11.56-3.47-2.47-2.31-3.7-5.54-3.7-9.67v-.31c0-4.04 1.22-7.22 3.67-9.52s6.31-3.45 11.59-3.45c1.49 0 2.87.13 4.13.4 1.26.26 2.3.56 3.11.9l.66 6.43c-.9-.39-1.95-.7-3.14-.93-1.19-.23-2.51-.35-3.95-.35-2.81 0-4.81.58-6.01 1.74s-1.8 2.74-1.8 4.73v.31c0 2.02.61 3.62 1.85 4.8 1.23 1.18 3.36 1.77 6.39 1.77 1.38 0 2.67-.12 3.86-.38 1.2-.25 2.16-.55 2.9-.9l-.66 6.68c-.62.23-1.57.49-2.86.77-1.29.28-2.78.42-4.48.42z"/></g><g><path class="cls-3" d="M403.83 151.34h-10.94v-1.5h10.94v1.5zm-4.55 9.08h-1.85v-9.99h1.85v9.99zM404.89 160.42h-1.91l4.89-10.58h2.78l4.86 10.58h-1.91l-4.21-9.42h-.27l-4.24 9.42zm7.76-2.93h-6.81V156h6.81v1.49zM419.24 160.42h-1.81v-10.58h1.81v10.58zm8.86 0h-1.96l-.36-1.72c-.09-.47-.22-.87-.38-1.2-.16-.32-.4-.57-.73-.73-.33-.17-.79-.25-1.38-.25h-4.62v-1.43h4.99c.81 0 1.4-.18 1.77-.53.38-.34.56-.8.56-1.36v-.09c0-.56-.18-1-.54-1.32-.36-.32-.95-.48-1.75-.48h-5.03v-1.47h5.25c1.36 0 2.36.26 3 .79s.95 1.26.95 2.19v.12c0 .73-.19 1.31-.57 1.73-.38.43-.97.69-1.78.8v.22l-.94-.27c.72.03 1.27.17 1.67.4s.69.56.9.99.37.94.5 1.54l.45 2.07zM432.34 149.84v10.58h-1.85v-10.58h1.85zM437.24 160.42h-1.82v-10.58h1.82v10.58zm7.43-9.08h-9.16v-1.5h9.16v1.5zm-.17 4.96h-8.14v-1.5h8.14v1.5zM455.39 160.42h-4.17v-13.23h4.17v13.23zm3.24 0h-4.31v-3.39h4.21c1.09 0 1.91-.28 2.46-.85s.82-1.33.82-2.3v-.18c0-.97-.27-1.73-.82-2.28-.55-.56-1.37-.83-2.46-.83h-4.21v-3.4h4.31c2.47 0 4.34.56 5.61 1.68 1.27 1.12 1.9 2.72 1.9 4.81v.19c0 2.1-.63 3.72-1.9 4.85s-3.14 1.7-5.61 1.7zM472.54 147.19v13.23h-4.2v-13.23h4.2zM481.35 160.79c-.82 0-1.6-.05-2.35-.16-.75-.1-1.43-.24-2.06-.39-.63-.16-1.19-.32-1.68-.49l-.44-3.74c.82.33 1.81.64 2.95.93 1.15.29 2.33.43 3.56.43 1.05 0 1.77-.07 2.16-.2.39-.13.58-.37.58-.72v-.04c0-.24-.1-.43-.28-.56-.19-.13-.52-.24-.99-.32-.47-.08-1.13-.17-1.97-.26-1.37-.16-2.52-.38-3.43-.67-.91-.29-1.6-.72-2.05-1.28-.45-.57-.68-1.34-.68-2.32v-.07c0-1.38.54-2.41 1.63-3.09 1.09-.68 2.7-1.02 4.83-1.02 1.34 0 2.49.1 3.46.29.97.2 1.82.44 2.55.72l.47 3.42c-.88-.35-1.83-.63-2.87-.83-1.03-.2-2.1-.3-3.19-.3-.73 0-1.29.03-1.66.1-.38.07-.63.17-.76.29-.13.12-.19.28-.19.46 0 .21.08.38.23.51s.46.25.92.34 1.14.19 2.04.29c1.35.14 2.48.34 3.42.6.93.26 1.64.67 2.12 1.21s.72 1.31.72 2.31v.11c0 1.54-.57 2.67-1.71 3.38-1.14.71-2.91 1.07-5.3 1.07zM494.6 160.42h-4.1v-13.23h4.09v9.11l.01 4.12zm3.74-3.57h-4.8v-3.19h4.6c.72 0 1.25-.13 1.59-.38.34-.25.51-.65.51-1.19v-.13c0-.54-.17-.94-.51-1.19-.34-.26-.87-.38-1.59-.38h-4.6v-3.19h4.8c2.08 0 3.62.41 4.61 1.24.99.82 1.48 2 1.48 3.53v.13c0 1.5-.5 2.66-1.48 3.5-.99.83-2.53 1.25-4.61 1.25zM514.03 160.89c-2.66 0-4.68-.61-6.06-1.84s-2.06-2.95-2.06-5.17v-.15c0-2.22.69-3.94 2.06-5.17 1.38-1.23 3.4-1.84 6.06-1.84s4.68.61 6.06 1.84c1.38 1.22 2.06 2.95 2.06 5.17v.15c0 2.22-.69 3.95-2.06 5.17-1.38 1.22-3.4 1.84-6.06 1.84zm0-3.39c1.23 0 2.16-.32 2.8-.96.64-.64.96-1.52.96-2.64v-.17c0-1.12-.32-2.01-.96-2.64s-1.57-.96-2.8-.96-2.17.32-2.81.96-.95 1.52-.95 2.64v.17c0 1.12.32 2.01.95 2.64.63.64 1.57.96 2.81.96zM533.61 147.19l-.44 8.74h-3.59l-.44-8.74h4.47zm-2.24 13.57c-.75 0-1.3-.17-1.66-.51-.35-.34-.53-.81-.53-1.39v-.05c0-.59.18-1.06.53-1.41.35-.34.9-.52 1.66-.52s1.31.17 1.67.52c.35.35.53.81.53 1.41v.05c0 .59-.18 1.05-.53 1.39s-.91.51-1.67.51zM383.5 174.39l-.06-3.19s.04.01.08.04c6.15-.11 10.77-.16 13.89-.17.03.02.06.04.07.07v3.42c0 .33 0 .6-.02.81-.04.13-.28.19-.72.19h-.08c-1.96 0-3.99-.03-6.11-.1 0 .07-.01.2-.03.39-.02.19-.03.32-.04.4l-.06.46c-.04.31-.07.84-.08 1.6l3.76-.08c.65-.02 1.12-.02 1.41-.02h.19c.49 0 .82.01.97.04s.23.11.23.25v.1l-.01.29.06 3.12h-.01c-2.46.12-4.42.18-5.9.18h-.57v2.94l6.59-.21c.36 0 .59.05.69.16 0 .21-.01.51-.01.9l.08 3.3c0 .2-.09.32-.27.35l-4.03-.04c-.79 0-2.37.03-4.73.08l-1.99.05c-1.41.05-2.45.07-3.13.07l-.04-.02h.01l-.23-.23v-.42l.07-12.97v-1.76z"/><path class="cls-3" d="M418.54 189.54c0 .1-.23.16-.67.16H416l-.74.01h-1.18c-1.17.01-2.15-.02-2.92-.07-.02 0-.05-.06-.08-.15l-.06-.25a8.31 8.31 0 0 0-.57-2.41l-5.19.05c-.03.14-.14.55-.32 1.23-.18.68-.31 1.19-.4 1.54-.08.08-.46.12-1.15.12h-.3l-.7-.01-3.15.07h-.7l-.85.01c-.06-.06-.12-.13-.18-.22.81-2.8 1.9-6.27 3.29-10.41l.28-.86h-.01l.33-1.01c.1-.32.41-1.22.9-2.69.5-1.47.81-2.42.93-2.85s.2-.65.22-.67h2.01l4.31-.06 1.16.06.96-.06c.49 0 .73.1.73.29.81 2.26 1.89 5.5 3.24 9.74 1.35 4.24 2.11 6.62 2.28 7.14l.17.61c.06.22.14.45.24.69zm-12.01-6.62h3.4c-.12-.96-.21-1.67-.28-2.12l-.46-2.07-.75-3.27c-.02-.04-.03-.08-.04-.12-.01-.04-.02-.06-.03-.07 0-.01-.02-.03-.03-.07a.161.161 0 0 0-.04-.07.218.218 0 0 1-.04-.05c-.06-.1-.17-.18-.35-.25-.22.05-.87 2.48-1.95 7.3l-.13.8h.72zM424.62 171.16l3.89-.04c.82 0 1.57.02 2.24.05 1.8.05 3.18.47 4.12 1.27s1.41 1.93 1.41 3.38c0 1.01-.3 1.87-.89 2.59-.59.71-1.45 1.34-2.58 1.89 1.8.57 2.88 1.94 3.26 4.12.09.48.16 1.02.21 1.64.05.62.1 1.03.13 1.24l.12.62c.13.73.24 1.25.34 1.58l-.05.04c-1.37.09-2.63.13-3.77.13s-2.14-.02-3.01-.06h-.07c-.25 0-.52-1.19-.8-3.58l-.06-.52c-.03-.89-.19-1.49-.47-1.79s-.76-.46-1.45-.46h-.16l-.64.01v4.08l.01 2.22c-.02.08-.08.13-.18.15-.89.03-2.15.05-3.77.05s-2.69 0-3.21.01l-.07-.02h-.02s-.04 0-.07-.02l.02-1.09v-.36l.04-5.03v-1.79l.02-3.14v-.41l-.02-2.75.05-3.87c0-.06.23-.1.69-.1h.78l.74.01h1.54l1.67-.01zm4.49 3.95c-.48-.21-1.13-.32-1.94-.32h-.7c-.09.13-.13.81-.13 2.04s.02 2.06.06 2.48c2.53-.06 3.8-.93 3.8-2.62 0-.72-.36-1.25-1.08-1.59zm7.79 14.38h-.01.01zm.06-.04-.06.04v-.02s.02-.01.06-.01zM452.18 184.74c-.06.23-.08.47-.08.73v.28c0 .43.03.74.08.92 0 1.22 0 2.16-.01 2.83-.05.21-4.04.32-11.97.32-.36 0-.97 0-1.81-.02-.13-.24-.19-.64-.19-1.2l.02-.79v-5.06l.01-2.28v-3.67c.01-.68 0-1.32-.01-1.92v-.13l-.04-1.75c0-1.03.08-1.69.25-2 .16 0 .38.01.67.01h.58l2.04-.02c2.32 0 3.6.15 3.83.44l-.1 4.23-.04 3.55v.15l-.06 5.05.48.28c1.46-.09 2.88-.13 4.25-.13s2.06.07 2.08.21zM467.92 171.12h.4c.08.03.14.13.18.29l-.36.72-.79 1.5c-1.19 2.2-1.96 3.67-2.3 4.4l-.41.79c-.44.86-1.2 2.37-2.27 4.54-.02.27-.02.69-.02 1.24v5.01c-.04.13-.12.19-.24.19l-6.95.05c-.18-.23-.27-.49-.27-.78l.02-1.52v-.72l.02-.88c0-1.69-.43-3.5-1.3-5.43l-.81-1.71-1.81-3.61c-.05-.09-.18-.33-.39-.74-.21-.4-.44-.84-.69-1.31-.65-.97-.97-1.63-.97-1.95 0-.04.13-.06.39-.06h3.12c1.72 0 3.02.01 3.89.04.26.05.93 1.99 2.03 5.83l.55 1.93c.82-2.2 1.69-4.78 2.61-7.74 0-.07.61-.1 1.8-.1h1.55c.37 0 .68 0 .93.02h2.1zM477.86 175.87v-.24l-.01-.75c0-1.04.02-2.24.06-3.59l-.02-.02.66-.04c2.11-.11 3.48-.17 4.11-.17h5.65c1.93 0 3.54.4 4.81 1.2.45.39.82.91 1.1 1.56.28.66.42 1.4.42 2.22 0 1.59-1.07 2.95-3.2 4.06 1.21.33 2.13.86 2.77 1.59.64.73.96 1.63.96 2.69 0 1.88-.84 3.3-2.52 4.27-1.24.73-2.8 1.09-4.69 1.09l-3.61-.05c-1.56 0-3.63.04-6.21.11-.23-.48-.34-2.37-.34-5.66s.02-6.06.06-8.27zm10.15 2.04c.16-.31.24-.68.24-1.12 0-.85-.3-1.42-.91-1.71s-1.24-.44-1.9-.44-.99.24-.99.73c0 .87.02 1.75.06 2.66l.02.64c.02.31.19.49.53.55l.59-.07c1.23-.15 2.01-.56 2.35-1.24zm-2.61 8.11c2.09 0 3.14-.73 3.14-2.2 0-.93-.28-1.55-.85-1.87-.51-.27-1.29-.43-2.34-.46H485l-.22.68c-.06.83-.08 1.65-.08 2.46s.08 1.27.25 1.39h.45zM496.84 188.1c0-1.64.04-2.78.13-3.42 0-3.52.05-7.06.15-10.64-.02-.51-.04-1.02-.04-1.54v-.4c-.03-.25-.05-.47-.05-.67s.02-.32.06-.38c1.73.11 3.25.16 4.55.16s2.2-.02 2.68-.07c.02.02.03.09.04.21h-.08v4.39l.08 9.87c0 .07.01.13.04.18v.02s.04.1.04.16l.1 3.53c-.04.09-.11.16-.22.21h-.41l-6.79.11c-.08-.04-.19-.1-.32-.18v-.21l.05-1.33zM512.58 171.16l3.89-.04c.82 0 1.57.02 2.24.05 1.8.05 3.18.47 4.12 1.27s1.41 1.93 1.41 3.38c0 1.01-.3 1.87-.89 2.59-.59.71-1.45 1.34-2.58 1.89 1.8.57 2.88 1.94 3.26 4.12.09.48.16 1.02.21 1.64.05.62.1 1.03.13 1.24l.12.62c.13.73.24 1.25.34 1.58l-.05.04c-1.37.09-2.63.13-3.77.13s-2.14-.02-3.01-.06h-.07c-.25 0-.52-1.19-.8-3.58l-.06-.52c-.03-.89-.19-1.49-.47-1.79s-.76-.46-1.45-.46h-.16l-.64.01v4.08l.01 2.22c-.02.08-.08.13-.18.15-.89.03-2.15.05-3.77.05s-2.69 0-3.21.01l-.07-.02h-.02s-.04 0-.07-.02l.02-1.09v-.36l.04-5.03v-1.79l.02-3.14v-.41l-.02-2.75.05-3.87c0-.06.23-.1.69-.1h.78l.74.01h1.54l1.67-.01zm4.49 3.95c-.48-.21-1.13-.32-1.94-.32h-.7c-.09.13-.13.81-.13 2.04s.02 2.06.06 2.48c2.53-.06 3.8-.93 3.8-2.62 0-.72-.36-1.25-1.08-1.59zm7.79 14.38h-.01.01zm.06-.04-.06.04v-.02s.02-.01.06-.01zM530.97 171.06l2.27-.04c3.95 0 6.73.65 8.33 1.96.34.25.71.67 1.12 1.26 1.17 1.71 1.76 3.59 1.76 5.65 0 3.68-1.27 6.4-3.8 8.16-1.51 1.06-3.25 1.6-5.22 1.61l-.05.05h-.3l-3.23-.04c-1.46 0-3.29.04-5.49.11-.15-.29-.23-.63-.23-1.03v-.44l.01-1.89.02-2.69v-4.44c-.02-1.02-.02-1.78-.02-2.28v-2.27l.01-3.47c0-.06.44-.12 1.32-.16.88-.04 1.58-.07 2.11-.07h1.38zm5.14 4.2c-.46-.33-.97-.52-1.53-.56-.19 0-.46-.02-.79-.02s-.58-.02-.73-.02c-.15.22-.24.38-.29.49l-.22.45v.68c0 1.4.03 3.29.1 5.69l.07 3.51c.05.25.21.4.48.45.83-.02 1.48-.07 1.93-.17 1.59-.57 2.39-2.5 2.39-5.81 0-2.45-.47-4.01-1.41-4.67zM428.36 230.08c-1.44 0-2.78-.07-4.02-.21-1.24-.14-2.36-.32-3.37-.54s-1.88-.44-2.62-.66l-.66-6.34c1.35.41 2.87.77 4.56 1.07 1.69.3 3.5.45 5.45.45 1.53 0 2.71-.08 3.52-.24.81-.16 1.36-.4 1.66-.71s.44-.7.44-1.15v-.12c0-.44-.12-.78-.36-1.03s-.64-.43-1.2-.55c-.56-.12-1.32-.19-2.29-.21l-7.9-.19v-5.6l7.86-.19c.97-.03 1.73-.1 2.28-.22s.95-.31 1.19-.57c.24-.26.36-.6.36-1.02v-.06c0-.66-.36-1.12-1.07-1.39s-2.11-.41-4.18-.41c-1.91 0-3.76.17-5.55.52s-3.33.69-4.59 1.02l.66-6.05c1.33-.46 2.85-.85 4.56-1.16 1.71-.31 3.69-.46 5.93-.46 4.08 0 7.15.57 9.21 1.7 2.05 1.13 3.08 2.84 3.08 5.12v.21c0 1.08-.2 2-.61 2.74s-1.06 1.32-1.95 1.73c-.9.41-2.09.65-3.58.72v.97l-.56-.71c2.58.19 4.37.8 5.38 1.81 1.01 1.01 1.52 2.37 1.52 4.07v.29c0 2.33-1.08 4.14-3.25 5.44-2.16 1.29-5.46 1.94-9.89 1.94zM457.93 230.41c-2.61 0-4.79-.19-6.52-.56-1.73-.37-3.1-.89-4.11-1.55-1-.66-1.72-1.45-2.13-2.36-.42-.91-.63-1.89-.63-2.95v-.27c0-1.17.26-2.19.78-3.05.52-.86 1.3-1.56 2.33-2.11s2.31-.9 3.83-1.08v-.27c-1.4-.1-2.6-.37-3.57-.8-.98-.43-1.73-1.02-2.24-1.77-.52-.75-.77-1.64-.77-2.69v-.27c0-2.05 1.04-3.68 3.11-4.89 2.07-1.21 5.38-1.82 9.93-1.82s7.98.61 10.06 1.82 3.12 2.84 3.12 4.89v.27c0 1.03-.26 1.92-.77 2.67s-1.26 1.34-2.24 1.78c-.98.44-2.17.71-3.57.81v.27c1.55.19 2.83.56 3.86 1.1 1.03.54 1.8 1.24 2.31 2.11.51.86.76 1.87.76 3.03v.27c0 .95-.18 1.87-.55 2.75-.37.88-1.03 1.67-2 2.38-.97.7-2.33 1.26-4.11 1.67s-4.06.62-6.87.62zm.19-5.99c2.11 0 3.54-.22 4.29-.65.75-.43 1.12-.96 1.12-1.59v-.1c0-.64-.43-1.16-1.29-1.55-.86-.39-2.41-.72-4.65-1-2.02.26-3.38.6-4.09 1.03-.7.43-1.05.94-1.05 1.52v.1c0 .68.4 1.23 1.2 1.63.8.41 2.29.61 4.46.61zm.21-10.22c1.76-.18 3.05-.49 3.84-.92.8-.43 1.2-.92 1.2-1.48v-.1c0-.63-.41-1.13-1.22-1.49s-2.22-.54-4.23-.54-3.28.17-4.09.52-1.21.82-1.21 1.43v.12c0 .36.16.71.47 1.03.32.33.89.62 1.71.86s2 .43 3.52.56zM505.13 216.05h-22.37l.37-3.75h22.37l-.37 3.75zm0 5.64h-22.37l.37-3.75h22.37l-.37 3.75zm-4.29 8.6c-5.24 0-9.1-1.16-11.56-3.47-2.47-2.31-3.7-5.54-3.7-9.67v-.31c0-4.04 1.22-7.22 3.67-9.52s6.31-3.45 11.59-3.45c1.49 0 2.87.13 4.13.4 1.26.26 2.3.56 3.11.9l.66 6.43c-.9-.39-1.95-.7-3.14-.93-1.19-.23-2.51-.35-3.95-.35-2.81 0-4.81.58-6.01 1.74s-1.8 2.74-1.8 4.73v.31c0 2.02.61 3.62 1.85 4.8 1.23 1.18 3.36 1.77 6.39 1.77 1.38 0 2.67-.12 3.86-.38 1.2-.25 2.16-.55 2.9-.9l-.66 6.68c-.62.23-1.57.49-2.86.77-1.29.28-2.78.42-4.48.42z"/></g><g><path class="cls-7" d="M668.92 149.27h-10.94v-1.5h10.94v1.5zm-4.55 9.08h-1.85v-9.99h1.85v9.99zM669.97 158.35h-1.91l4.89-10.58h2.78l4.86 10.58h-1.91l-4.21-9.42h-.26l-4.24 9.42zm7.76-2.93h-6.81v-1.49h6.81v1.49zM684.33 158.35h-1.81v-10.58h1.81v10.58zm8.86 0h-1.96l-.36-1.72c-.09-.47-.22-.87-.38-1.2-.16-.32-.4-.57-.73-.73-.33-.17-.79-.25-1.38-.25h-4.62v-1.43h4.99c.81 0 1.4-.18 1.77-.53.38-.34.56-.8.56-1.36v-.09c0-.56-.18-1-.54-1.32s-.95-.48-1.75-.48h-5.03v-1.47h5.25c1.36 0 2.36.26 3 .79s.95 1.26.95 2.19v.12c0 .73-.19 1.31-.57 1.73-.38.43-.97.69-1.78.8v.22l-.94-.27c.72.03 1.27.17 1.67.4s.69.56.9.99.37.94.5 1.54l.45 2.07zM697.43 147.77v10.58h-1.85v-10.58h1.85zM702.33 158.35h-1.82v-10.58h1.82v10.58zm7.43-9.08h-9.16v-1.5h9.16v1.5zm-.17 4.96h-8.14v-1.5h8.14v1.5zM615.01 179.32l.02-4.98v-5.06s.09-.01.23-.01h.45c.17 0 .3 0 .39-.02l1.5-.06c.39-.02.69-.02.9-.02h1.93l3.57-.08c.48 0 1.02.02 1.6.06h.08c.27-.02.45-.02.52-.02 1.62 0 3 .51 4.15 1.54.56.49 1 1.13 1.32 1.9s.49 1.58.49 2.41-.08 1.54-.25 2.12c-.17.58-.39 1.08-.66 1.48-1.07 1.63-3.13 2.59-6.2 2.86l-2.62.11c-.08 1.94-.12 3.45-.12 4.52v.38l.01.98c-.03.11-.09.19-.18.23l-6.92.11c-.14-.39-.21-1.01-.21-1.87v-6.56zm10.61-5.2c-.32-.85-1.18-1.3-2.57-1.36-.2 0-.48-.01-.84-.01-.1 0-.16 1.19-.18 3.58l-.03.91.04.73c.99-.02 1.87-.23 2.62-.63.76-.4 1.13-1.14 1.13-2.21 0-.45-.06-.79-.18-1.01zM638.9 169.09l3.89-.04c.82 0 1.57.02 2.24.05 1.8.05 3.18.47 4.12 1.27s1.41 1.93 1.41 3.38c0 1.01-.3 1.87-.89 2.59-.59.71-1.45 1.34-2.58 1.89 1.8.57 2.88 1.94 3.26 4.12.09.48.16 1.02.21 1.64.05.62.09 1.03.13 1.24l.12.62c.13.73.24 1.25.34 1.58l-.05.04c-1.38.09-2.63.13-3.77.13s-2.14-.02-3.01-.06h-.07c-.25 0-.52-1.19-.8-3.58l-.06-.52c-.03-.89-.19-1.49-.47-1.79s-.76-.46-1.45-.46h-.16l-.64.01v4.08l.01 2.22c-.03.08-.09.13-.18.15-.89.03-2.15.05-3.77.05s-2.69 0-3.21.01l-.07-.02h-.02s-.04 0-.07-.02l.02-1.09v-.36l.04-5.03v-1.79l.02-3.14v-.41l-.02-2.75.05-3.87c0-.06.23-.1.69-.1h.78l.74.01h1.54l1.67-.01zm4.49 3.95c-.48-.21-1.13-.32-1.94-.32h-.7c-.09.13-.13.81-.13 2.04s.02 2.06.06 2.48c2.53-.06 3.8-.93 3.8-2.62 0-.72-.36-1.25-1.08-1.59zm7.79 14.38h-.01.01zm.06-.04-.06.04v-.02s.02-.01.06-.01zM652.43 172.32l-.06-3.19s.04.01.08.04c6.15-.11 10.78-.16 13.89-.17.03.02.06.04.07.07v3.42c0 .33 0 .6-.02.81-.04.13-.28.19-.72.19h-.08c-1.96 0-4-.03-6.11-.1 0 .07 0 .2-.03.39-.02.19-.03.32-.04.4l-.06.46c-.04.31-.07.84-.09 1.6l3.76-.08c.65-.02 1.12-.02 1.41-.02h.19c.49 0 .82.01.97.04.15.03.23.11.23.25v.1l-.01.29.06 3.12h-.01c-2.46.12-4.42.18-5.9.18h-.57v2.94l6.59-.21c.36 0 .59.05.69.16 0 .21-.01.51-.01.9l.09 3.3c0 .2-.09.32-.27.35l-4.03-.04c-.79 0-2.37.03-4.73.08l-1.99.05c-1.41.05-2.45.07-3.13.07l-.04-.02h.01l-.23-.23v-.42l.07-12.97v-1.76zm3.44-7.7h-.19l-.59.01-.18-.35 2.04-3.47c.35-.51.54-.79.59-.85h.85l5.07.12v.04c-.32.37-.85.97-1.59 1.79-.74.82-1.28 1.43-1.62 1.83-.35.4-.65.63-.9.71-.25.08-.67.13-1.24.13l-2.22.04zM679.84 187.64l-1.53-.04h-.91c-.26.03-.82.05-1.68.05s-2.14.02-3.84.06c-.32-.28-.61-1.1-.89-2.46s-.62-2.75-1.05-4.17c-.42-1.43-.69-2.33-.79-2.7l-.36-1.29c-.11-.37-.29-1.01-.54-1.9-.82-2.77-1.36-4.79-1.61-6.05 0-.06 2.37-.1 7.11-.1.15 0 .26.05.34.16.64 3.79 1.36 7.92 2.16 12.4l.1.64h.48l.11-.63c.25-1.58.73-4.12 1.43-7.63l.29-1.37c.1-.46.32-1.61.67-3.44.37-.1 2.43-.15 6.17-.15h.55c.1.06.16.11.18.16l-2.44 8.82c-.18.64-.28 1.05-.32 1.22l-.57 2.23c-.91 3.89-1.57 5.96-1.96 6.21-.22 0-.56 0-1.03-.02h-.06zM687.13 172.32l-.06-3.19s.04.01.08.04c6.15-.11 10.78-.16 13.89-.17.03.02.06.04.07.07v3.42c0 .33 0 .6-.02.81-.04.13-.28.19-.72.19h-.08c-1.96 0-4-.03-6.11-.1 0 .07-.01.2-.03.39-.02.19-.03.32-.04.4l-.06.46c-.04.31-.07.84-.08 1.6l3.76-.08c.65-.02 1.12-.02 1.41-.02h.19c.49 0 .82.01.97.04s.23.11.23.25v.1l-.01.29.06 3.12h-.01c-2.46.12-4.42.18-5.89.18h-.57v2.94l6.59-.21c.36 0 .59.05.69.16 0 .21-.01.51-.01.9l.08 3.3c0 .2-.09.32-.27.35l-4.03-.04c-.79 0-2.37.03-4.73.08l-1.99.05c-1.41.05-2.45.07-3.13.07l-.04-.02h.01l-.23-.23v-.42l.07-12.97v-1.76zM721.33 178.84v.81l-.01 4.49.02 2.13v1.18c-.04.06-.23.1-.58.1h-.32l-3.81.05c-1.62 0-2.82 0-3.61-.01-.12-.13-.56-1.31-1.32-3.53l-2.32-6.15-.44.06v1.24l-.01 3.29.05 3.29v1.36c0 .36-.08.55-.24.57-.8-.02-1.57-.04-2.29-.04h-.38l-1.83.05H704l-.87.02-.04-.02c-.27-.25-.4-.43-.4-.54v-.46l.07-4.73c0-5.19.05-9.12.15-11.78l.02-1.01c0-.07 2.79-.14 8.36-.19.05.03.12.21.22.53v-.04l.07.24c.6 1.71 1.33 3.68 2.18 5.9.86 2.22 1.29 3.35 1.31 3.4l.41-.02.05-9.88c0-.06.59-.1 1.77-.1l3.04.06h.9c.06 2.68.09 5.92.09 9.74zM738.75 173.57c0 .27-.03.4-.08.4l-4.39-.04c-.02.78-.02 2.01-.02 3.67s0 2.82.01 3.47l.05 6.43c-.04.11-.12.17-.24.18l-2.56-.04H728.49c-.6 0-1.05 0-1.35.01l-.21-.18-.16-.19c0-.71.03-2.29.08-4.74l.13-6.45-.02-.3c-.06-.8-.11-1.28-.16-1.42s-.16-.23-.31-.24c-.15-.01-.27-.02-.34-.02l-.48.02-3.01-.05c-.11-.21-.16-.68-.16-1.42l.02-1.07v-.33c0-1.29-.02-1.99-.04-2.07.02 0 .05 0 .1.02l15.44-.13c.32 0 .51.02.59.07.08.04.12.13.12.25v4.17zM739.91 172.32l-.06-3.19s.04.01.08.04c6.14-.11 10.77-.16 13.89-.17.03.02.06.04.07.07v3.42c0 .33 0 .6-.02.81-.04.13-.28.19-.71.19h-.09c-1.96 0-3.99-.03-6.11-.1 0 .07-.01.2-.03.39-.02.19-.04.32-.04.4l-.06.46c-.04.31-.07.84-.08 1.6l3.76-.08c.65-.02 1.12-.02 1.41-.02h.19c.49 0 .82.01.97.04.15.03.23.11.23.25v.1l-.01.29.06 3.12h-.01c-2.46.12-4.42.18-5.89.18h-.57v2.94l6.59-.21c.36 0 .59.05.69.16 0 .21-.01.51-.01.9l.08 3.3c0 .2-.09.32-.27.35l-4.03-.04c-.79 0-2.37.03-4.73.08l-1.99.05c-1.41.05-2.45.07-3.13.07l-.04-.02h.01l-.23-.23v-.42l.07-12.97v-1.76zM620.81 227.35h-7.3v-14.28l.08-5.04h-.64l-7.84 8.79v3.5l-2.61-3.09h21.7v5.97h-26.89v-7.07l12.09-13.47h11.42v24.69zM638.22 228.05c-2.25 0-4.31-.19-6.17-.58-1.86-.39-3.27-.77-4.24-1.14l-.79-6.55c.82.31 1.81.62 2.96.93 1.15.31 2.39.57 3.72.78 1.33.21 2.69.32 4.07.32 1.65 0 2.89-.13 3.74-.39.84-.26 1.41-.59 1.7-1 .29-.41.43-.85.43-1.31v-.13c0-.75-.31-1.34-.93-1.77s-1.64-.65-3.07-.65-2.6.17-3.57.52c-.98.35-1.78.78-2.4 1.29l-6.51-1.31v-14.39h23.2v6.09h-16.02l.04 3.32-.06 2.96h.19c.51-1.17 1.42-2.14 2.72-2.91 1.3-.77 3.14-1.15 5.51-1.15 2.92 0 5.11.69 6.55 2.07 1.44 1.38 2.16 3.32 2.16 5.82v.31c0 1.66-.4 3.17-1.19 4.51-.79 1.35-2.15 2.41-4.07 3.2-1.92.79-4.58 1.18-7.98 1.18zM658.14 232.47h-7.23l19.34-31.18h7.19l-19.3 31.18zM699.33 227.35h-7.3v-14.28l.08-5.04h-.64l-7.84 8.79v3.5l-2.61-3.09h21.7v5.97h-26.89v-7.07l12.09-13.47h11.42v24.69zM718.94 228.22c-4.43 0-7.81-1.11-10.12-3.34s-3.48-5.47-3.48-9.74v-.27c0-4.24 1.15-7.47 3.46-9.7 2.31-2.23 5.69-3.34 10.14-3.34s7.84 1.11 10.14 3.34c2.3 2.23 3.46 5.46 3.46 9.7v.27c0 4.26-1.15 7.51-3.46 9.74-2.31 2.23-5.69 3.34-10.14 3.34zm0-6.38c1.92 0 3.33-.58 4.22-1.73.89-1.15 1.34-2.8 1.34-4.94v-.31c0-2.15-.45-3.8-1.34-4.95-.9-1.15-2.3-1.72-4.22-1.72s-3.33.58-4.22 1.74c-.89 1.16-1.34 2.8-1.34 4.93v.31c0 2.14.45 3.78 1.36 4.94.91 1.15 2.31 1.73 4.2 1.73zM766.6 213.99h-22.37l.37-3.75h22.37l-.37 3.75zm0 5.64h-22.37l.37-3.75h22.37l-.37 3.75zm-4.29 8.6c-5.24 0-9.1-1.16-11.56-3.47-2.47-2.31-3.7-5.54-3.7-9.67v-.31c0-4.04 1.22-7.22 3.67-9.52s6.31-3.45 11.59-3.45c1.49 0 2.87.13 4.13.4 1.26.26 2.3.56 3.11.9l.66 6.43c-.9-.39-1.95-.7-3.14-.93-1.19-.23-2.51-.35-3.95-.35-2.81 0-4.81.58-6.01 1.74s-1.8 2.74-1.8 4.73v.31c0 2.02.61 3.62 1.84 4.8s3.36 1.77 6.39 1.77c1.38 0 2.67-.12 3.86-.38 1.2-.25 2.16-.55 2.9-.9l-.66 6.68c-.62.23-1.57.49-2.86.77-1.29.28-2.78.42-4.48.42z"/></g><g><path class="cls-7" d="M890.44 149.27H879.5v-1.5h10.94v1.5zm-4.55 9.08h-1.85v-9.99h1.85v9.99zM891.49 158.35h-1.91l4.89-10.58h2.78l4.86 10.58h-1.91l-4.21-9.42h-.26l-4.24 9.42zm7.76-2.93h-6.81v-1.49h6.81v1.49zM905.85 158.35h-1.81v-10.58h1.81v10.58zm8.86 0h-1.96l-.36-1.72c-.09-.47-.22-.87-.38-1.2-.16-.32-.4-.57-.73-.73-.33-.17-.79-.25-1.38-.25h-4.62v-1.43h4.99c.81 0 1.4-.18 1.77-.53.38-.34.56-.8.56-1.36v-.09c0-.56-.18-1-.54-1.32-.36-.32-.95-.48-1.75-.48h-5.03v-1.47h5.25c1.36 0 2.36.26 3 .79s.95 1.26.95 2.19v.12c0 .73-.19 1.31-.57 1.73-.38.43-.97.69-1.78.8v.22l-.94-.27c.72.03 1.27.17 1.67.4s.69.56.9.99c.2.42.37.94.5 1.54l.45 2.07zM918.95 147.77v10.58h-1.85v-10.58h1.85zM923.85 158.35h-1.82v-10.58h1.82v10.58zm7.43-9.08h-9.16v-1.5h9.16v1.5zm-.17 4.96h-8.14v-1.5h8.14v1.5zM829.42 182.33l6.42-.11c.16 0 .3.14.41.41.11.28.21.49.32.66.25.39.67.58 1.24.58s1.04-.14 1.4-.41c.36-.27.53-.62.53-1.05s-.11-.72-.33-.88-.46-.31-.72-.46c-.26-.15-.64-.26-1.15-.35-.5-.08-.78-.13-.83-.15h.02l-.69-.18c-.44-.08-.82-.17-1.12-.27-1.93-.52-3.33-1.17-4.19-1.95s-1.29-1.84-1.29-3.17c0-.96.18-1.83.53-2.6.36-.77.82-1.39 1.39-1.88 1.66-1.4 3.95-2.1 6.87-2.1 2.32 0 4.14.42 5.47 1.26h-.01c.85.62 1.43 1.22 1.75 1.81.32.59.51 1.33.59 2.2l-.32.32c-2.13.08-4.01.12-5.65.12-.49 0-.79-.15-.88-.44-.04-.12-.09-.24-.13-.36-.11-.29-.48-.44-1.09-.44h-.05c-.48 0-.89.11-1.23.33-.34.22-.51.44-.52.65 0 .21.04.38.13.52s.19.25.3.33.27.16.49.25.38.14.49.17.28.07.52.14l.42.11c.17.05.67.17 1.49.36.82.19 1.51.38 2.06.56 1.72.57 2.9 1.3 3.52 2.17s.94 1.88.94 3.04c0 3.08-1.84 5.08-5.52 5.99-1.07.27-2.21.46-3.42.57-1.49 0-2.96-.22-4.42-.65-1.46-.44-2.43-1.15-2.92-2.13-.33-.48-.55-.92-.67-1.32s-.21-.96-.28-1.68c.02 0 .06.01.11.01zM865.42 177.93l-.04 3.41c0 1.04-.17 1.96-.5 2.76-.33.8-.78 1.45-1.33 1.94-1.5 1.36-3.71 2.04-6.63 2.04s-5.2-.71-6.83-2.13c-.57-.49-1.06-1.13-1.45-1.92-.39-.79-.63-1.68-.71-2.67.04-3.38.06-6.5.06-9.38-.04 0-.06-.42-.06-1.27s.04-1.37.11-1.58h.25c1.19-.07 2.81-.1 4.86-.1.15.03.41.05.79.06.38 0 .65.02.79.04l.38.05c.06 1.6.09 3.8.11 6.61l-.07 4.88c0 1.62.47 2.43 1.41 2.43.4 0 .73-.17 1-.52s.41-.74.43-1.18l.05-.12.04-4.09v-.36c.01-1.88-.01-3.69-.06-5.43l-.02-.89c-.02-.36-.02-.67-.02-.96s.04-.48.13-.58c3.12 0 5.47.01 7.06.04.06.06.13.11.22.16h-.01l.13.08c-.07 1.53-.1 3.49-.1 5.89v2.8zM873.03 169.09l3.89-.04c.82 0 1.57.02 2.24.05 1.8.05 3.18.47 4.12 1.27s1.41 1.93 1.41 3.38c0 1.01-.3 1.87-.89 2.59-.59.71-1.45 1.34-2.58 1.89 1.8.57 2.88 1.94 3.26 4.12.09.48.16 1.02.21 1.64.05.62.09 1.03.13 1.24l.12.62c.13.73.24 1.25.34 1.58l-.05.04c-1.38.09-2.63.13-3.77.13s-2.14-.02-3.01-.06h-.07c-.25 0-.52-1.19-.8-3.58l-.06-.52c-.03-.89-.19-1.49-.47-1.79s-.76-.46-1.45-.46h-.16l-.64.01v4.08l.01 2.22c-.03.08-.09.13-.18.15-.89.03-2.15.05-3.77.05s-2.69 0-3.21.01l-.07-.02h-.02s-.04 0-.07-.02l.02-1.09v-.36l.04-5.03v-1.79l.02-3.14v-.41l-.02-2.75.05-3.87c0-.06.23-.1.69-.1h.78l.74.01h1.54l1.67-.01zm4.49 3.95c-.48-.21-1.13-.32-1.94-.32h-.7c-.09.13-.13.81-.13 2.04s.02 2.06.06 2.48c2.53-.06 3.8-.93 3.8-2.62 0-.72-.36-1.25-1.08-1.59zm7.79 14.38h-.01.01zm.06-.04-.06.04v-.02s.02-.01.06-.01zM895.29 179.32l.02-4.98v-5.06s.09-.01.23-.01h.45c.17 0 .3 0 .39-.02l1.5-.06c.39-.02.69-.02.9-.02h1.93l3.57-.08c.48 0 1.02.02 1.6.06h.08c.27-.02.45-.02.52-.02 1.62 0 3 .51 4.15 1.54.56.49 1 1.13 1.32 1.9s.49 1.58.49 2.41-.08 1.54-.25 2.12c-.17.58-.39 1.08-.66 1.48-1.07 1.63-3.13 2.59-6.2 2.86l-2.62.11c-.08 1.94-.12 3.45-.12 4.52v.38l.01.98c-.03.11-.09.19-.18.23l-6.92.11c-.14-.39-.21-1.01-.21-1.87v-6.56zm10.61-5.2c-.32-.85-1.18-1.3-2.57-1.36-.2 0-.48-.01-.84-.01-.1 0-.16 1.19-.18 3.58l-.03.91.04.73c.99-.02 1.87-.23 2.62-.63.76-.4 1.13-1.14 1.13-2.21 0-.45-.06-.79-.18-1.01zM927.79 182.68c-.06.23-.09.47-.09.73v.28c0 .43.03.74.09.92 0 1.22 0 2.16-.01 2.83-.05.21-4.04.32-11.97.32-.36 0-.97 0-1.81-.02-.13-.24-.19-.64-.19-1.2l.02-.79v-5.06l.01-2.28v-3.67c.01-.68 0-1.32-.01-1.92v-.13l-.04-1.75c0-1.03.09-1.69.26-2 .16 0 .38.01.67.01h.58l2.04-.02c2.32 0 3.6.15 3.83.44l-.1 4.23-.04 3.55v.15l-.06 5.05.48.28c1.46-.09 2.88-.13 4.25-.13s2.06.07 2.08.21z"/><path class="cls-7" d="M948.32 187.47c0 .1-.23.16-.67.16h-1.87l-.74.01h-1.18c-1.17.01-2.15-.02-2.92-.07-.02 0-.05-.06-.08-.15l-.06-.25a8.31 8.31 0 0 0-.57-2.41l-5.19.05c-.03.14-.14.55-.31 1.23-.18.68-.31 1.19-.4 1.54-.08.08-.46.12-1.15.12h-.3l-.7-.01-3.15.07h-.7l-.85.01c-.06-.06-.12-.13-.18-.22.81-2.8 1.9-6.27 3.29-10.41l.28-.86h-.01l.33-1.01c.11-.32.41-1.22.9-2.69s.81-2.42.93-2.85c.12-.43.2-.65.22-.67h2.01l4.31-.06 1.16.06.96-.06c.48 0 .73.1.73.29.81 2.26 1.89 5.5 3.24 9.74 1.35 4.24 2.11 6.62 2.28 7.14l.17.61c.06.22.14.45.24.69zm-12.01-6.62h3.4c-.12-.96-.21-1.67-.28-2.12l-.46-2.07c-.48-2.14-.74-3.23-.75-3.27-.02-.04-.03-.08-.04-.12-.01-.04-.02-.06-.03-.07s-.02-.03-.03-.07a.161.161 0 0 0-.04-.07.218.218 0 0 1-.04-.05c-.06-.1-.17-.18-.35-.25-.22.05-.87 2.48-1.95 7.3l-.13.8h.71zM948.21 177.67c.2-1.84.52-3.23.97-4.16.87-1.79 2.15-3.07 3.87-3.82 1.53-.67 3.19-1.01 4.99-1.01 3.01 0 5.2.83 6.59 2.47.83.98 1.31 2.2 1.44 3.65l.11 1.14c-.14.13-1.01.19-2.61.19l-1.93-.02h-.16l-1.05-.02h-.29l-.24.01c-.23 0-.4-.33-.52-.99s-.29-1.1-.53-1.32c-.24-.21-.51-.32-.83-.32a1.951 1.951 0 0 0-1.42.58c-.15.16-.28.38-.39.67-.2.5-.31 1.03-.35 1.59-.04.56-.06 1.19-.06 1.89v.29l-.05 1.22c0 2.23.63 3.37 1.89 3.42.32 0 .55-.06.68-.17.35-.31.65-.93.91-1.86.06-.19.12-.35.21-.47h1.02l1.96.01H965.58l.49.01c.1 0 .17.09.21.25l-.04.4c-.07.95-.29 1.82-.67 2.6-.69 1.42-1.77 2.48-3.25 3.17s-3.09 1.04-4.86 1.04c-3.08 0-5.39-.91-6.94-2.73-1.54-1.82-2.32-4.39-2.32-7.73zM967.87 172.32l-.06-3.19s.04.01.08.04c6.15-.11 10.78-.16 13.89-.17.03.02.06.04.07.07v3.42c0 .33 0 .6-.02.81-.04.13-.28.19-.72.19h-.08c-1.96 0-4-.03-6.11-.1 0 .07-.01.2-.03.39-.02.19-.03.32-.04.4l-.06.46c-.04.31-.07.84-.08 1.6l3.76-.08c.65-.02 1.12-.02 1.41-.02h.19c.49 0 .82.01.97.04s.23.11.23.25v.1l-.01.29.06 3.12h-.01c-2.46.12-4.42.18-5.89.18h-.57v2.94l6.59-.21c.36 0 .59.05.69.16 0 .21-.01.51-.01.9l.08 3.3c0 .2-.09.32-.27.35l-4.03-.04c-.79 0-2.37.03-4.73.08l-1.99.05c-1.41.05-2.45.07-3.13.07l-.04-.02h.01l-.23-.23v-.42l.07-12.97v-1.76zM830.83 228.05c-2.25 0-4.31-.19-6.17-.58-1.86-.39-3.28-.77-4.24-1.14l-.79-6.55c.82.31 1.81.62 2.96.93 1.15.31 2.39.57 3.72.78 1.33.21 2.69.32 4.07.32 1.65 0 2.89-.13 3.74-.39.84-.26 1.41-.59 1.7-1s.43-.85.43-1.31v-.13c0-.75-.31-1.34-.93-1.77-.62-.43-1.64-.65-3.07-.65s-2.6.17-3.57.52c-.98.35-1.78.78-2.4 1.29l-6.51-1.31v-14.39h23.2v6.09h-16.02l.04 3.32-.06 2.96h.19c.52-1.17 1.42-2.14 2.72-2.91 1.3-.77 3.14-1.15 5.51-1.15 2.92 0 5.11.69 6.55 2.07 1.44 1.38 2.16 3.32 2.16 5.82v.31c0 1.66-.4 3.17-1.19 4.51-.79 1.35-2.15 2.41-4.07 3.2-1.92.79-4.58 1.18-7.98 1.18zM858.83 228.05c-2.25 0-4.31-.19-6.17-.58-1.86-.39-3.28-.77-4.24-1.14l-.79-6.55c.82.31 1.81.62 2.96.93 1.15.31 2.39.57 3.72.78 1.33.21 2.69.32 4.07.32 1.65 0 2.89-.13 3.74-.39.84-.26 1.41-.59 1.7-1s.43-.85.43-1.31v-.13c0-.75-.31-1.34-.93-1.77-.62-.43-1.64-.65-3.07-.65s-2.6.17-3.57.52c-.98.35-1.78.78-2.4 1.29l-6.51-1.31v-14.39h23.2v6.09h-16.02l.04 3.32-.06 2.96h.19c.52-1.17 1.42-2.14 2.72-2.91 1.3-.77 3.14-1.15 5.51-1.15 2.92 0 5.11.69 6.55 2.07 1.44 1.38 2.16 3.32 2.16 5.82v.31c0 1.66-.4 3.17-1.19 4.51-.79 1.35-2.15 2.41-4.07 3.2-1.92.79-4.58 1.18-7.98 1.18zM878.75 232.47h-7.23l19.34-31.18h7.19l-19.3 31.18zM910.68 228.05c-2.25 0-4.31-.19-6.17-.58-1.86-.39-3.27-.77-4.24-1.14l-.79-6.55c.82.31 1.81.62 2.96.93 1.15.31 2.39.57 3.72.78 1.33.21 2.69.32 4.07.32 1.65 0 2.89-.13 3.74-.39.84-.26 1.41-.59 1.7-1 .29-.41.43-.85.43-1.31v-.13c0-.75-.31-1.34-.93-1.77s-1.64-.65-3.07-.65-2.6.17-3.57.52c-.98.35-1.78.78-2.4 1.29l-6.51-1.31v-14.39h23.2v6.09H906.8l.04 3.32-.06 2.96h.19c.51-1.17 1.42-2.14 2.72-2.91 1.3-.77 3.14-1.15 5.51-1.15 2.92 0 5.11.69 6.55 2.07 1.44 1.38 2.16 3.32 2.16 5.82v.31c0 1.66-.4 3.17-1.19 4.51-.79 1.35-2.15 2.41-4.07 3.2-1.92.79-4.58 1.18-7.98 1.18zM940.53 228.22c-4.43 0-7.81-1.11-10.12-3.34s-3.48-5.47-3.48-9.74v-.27c0-4.24 1.15-7.47 3.46-9.7 2.31-2.23 5.69-3.34 10.14-3.34s7.84 1.11 10.14 3.34c2.3 2.23 3.46 5.46 3.46 9.7v.27c0 4.26-1.15 7.51-3.46 9.74-2.31 2.23-5.69 3.34-10.14 3.34zm0-6.38c1.92 0 3.33-.58 4.22-1.73.89-1.15 1.34-2.8 1.34-4.94v-.31c0-2.15-.45-3.8-1.34-4.95-.9-1.15-2.3-1.72-4.22-1.72s-3.33.58-4.22 1.74c-.89 1.16-1.34 2.8-1.34 4.93v.31c0 2.14.45 3.78 1.36 4.94.91 1.15 2.31 1.73 4.2 1.73zM988.19 213.99h-22.37l.37-3.75h22.37l-.37 3.75zm0 5.64h-22.37l.37-3.75h22.37l-.37 3.75zm-4.29 8.6c-5.24 0-9.1-1.16-11.56-3.47-2.47-2.31-3.7-5.54-3.7-9.67v-.31c0-4.04 1.22-7.22 3.67-9.52s6.31-3.45 11.59-3.45c1.49 0 2.87.13 4.13.4 1.26.26 2.3.56 3.11.9l.66 6.43c-.9-.39-1.95-.7-3.14-.93-1.19-.23-2.51-.35-3.95-.35-2.81 0-4.81.58-6.01 1.74s-1.8 2.74-1.8 4.73v.31c0 2.02.61 3.62 1.84 4.8s3.36 1.77 6.39 1.77c1.38 0 2.67-.12 3.86-.38 1.2-.25 2.16-.55 2.9-.9l-.66 6.68c-.62.23-1.57.49-2.86.77-1.29.28-2.78.42-4.48.42z"/></g><g><path class="cls-3" d="M1049.46 152.94h-10.94v-1.5h10.94v1.5zm-4.54 9.08h-1.85v-9.99h1.85v9.99zM1050.52 162.03h-1.91l4.89-10.58h2.78l4.86 10.58h-1.91l-4.21-9.42h-.27l-4.24 9.42zm7.76-2.93h-6.81v-1.49h6.81v1.49zM1064.87 162.03h-1.81v-10.58h1.81v10.58zm8.86 0h-1.96l-.36-1.72c-.09-.47-.22-.87-.38-1.2-.16-.32-.4-.57-.73-.73-.33-.17-.79-.25-1.38-.25h-4.62v-1.43h4.99c.81 0 1.4-.18 1.77-.53.38-.34.56-.8.56-1.36v-.09c0-.56-.18-1-.54-1.32s-.95-.48-1.75-.48h-5.03v-1.47h5.25c1.36 0 2.36.26 3 .79s.95 1.26.95 2.19v.12c0 .73-.19 1.31-.57 1.73-.38.43-.97.69-1.78.8v.22l-.94-.27c.72.03 1.27.17 1.67.4s.7.56.9.99c.21.42.37.94.5 1.54l.45 2.07zM1077.97 151.44v10.58h-1.85v-10.58h1.85zM1082.87 162.03h-1.82v-10.58h1.82v10.58zm7.43-9.08h-9.16v-1.5h9.16v1.5zm-.17 4.96h-8.14v-1.5h8.14v1.5zM1101.87 162.03h-4.17V148.8h4.17v13.23zm3.24 0h-4.3v-3.39h4.21c1.09 0 1.91-.28 2.46-.85s.82-1.33.82-2.3v-.18c0-.97-.27-1.73-.82-2.28s-1.37-.83-2.46-.83h-4.21v-3.4h4.3c2.47 0 4.34.56 5.61 1.68 1.27 1.12 1.9 2.72 1.9 4.81v.19c0 2.1-.63 3.72-1.9 4.85s-3.14 1.7-5.61 1.7zM1119.02 148.8v13.23h-4.2V148.8h4.2zM1127.83 162.4c-.82 0-1.6-.05-2.35-.16-.75-.1-1.43-.24-2.06-.39-.63-.16-1.19-.32-1.68-.49l-.44-3.74c.82.33 1.81.64 2.95.93 1.15.29 2.33.43 3.56.43 1.05 0 1.77-.07 2.16-.2.39-.13.58-.37.58-.72v-.04c0-.24-.09-.43-.28-.56-.19-.13-.52-.24-.99-.32-.47-.08-1.13-.17-1.97-.26-1.37-.16-2.52-.38-3.43-.67-.91-.29-1.6-.72-2.05-1.28-.45-.57-.68-1.34-.68-2.32v-.07c0-1.38.54-2.41 1.63-3.09 1.09-.68 2.7-1.02 4.83-1.02 1.34 0 2.49.1 3.46.29.97.2 1.82.44 2.55.72l.46 3.42c-.88-.35-1.83-.63-2.87-.83-1.03-.2-2.1-.3-3.19-.3-.73 0-1.29.03-1.66.1-.38.07-.63.17-.76.29-.13.12-.19.28-.19.46 0 .21.08.38.23.51.15.13.46.25.92.34s1.14.19 2.04.29c1.35.14 2.48.34 3.42.6.93.26 1.64.67 2.12 1.21.48.54.72 1.31.72 2.31v.11c0 1.54-.57 2.67-1.71 3.38-1.14.71-2.91 1.07-5.3 1.07zM1141.08 162.03h-4.1V148.8h4.09v9.11l.01 4.12zm3.74-3.57h-4.8v-3.19h4.6c.72 0 1.25-.13 1.59-.38.34-.25.51-.65.51-1.19v-.13c0-.54-.17-.94-.51-1.19-.34-.26-.87-.38-1.59-.38h-4.6v-3.19h4.8c2.08 0 3.62.41 4.61 1.24.99.82 1.48 2 1.48 3.53v.13c0 1.5-.5 2.66-1.48 3.5-.99.83-2.53 1.25-4.61 1.25zM1160.5 162.49c-2.66 0-4.68-.61-6.06-1.84s-2.07-2.95-2.07-5.17v-.15c0-2.22.69-3.94 2.07-5.17s3.4-1.84 6.06-1.84 4.68.61 6.06 1.84c1.38 1.22 2.06 2.95 2.06 5.17v.15c0 2.22-.69 3.95-2.06 5.17s-3.4 1.84-6.06 1.84zm0-3.39c1.23 0 2.16-.32 2.8-.96.64-.64.96-1.52.96-2.64v-.17c0-1.12-.32-2.01-.96-2.64s-1.57-.96-2.8-.96-2.17.32-2.8.96-.95 1.52-.95 2.64v.17c0 1.12.32 2.01.95 2.64.63.64 1.57.96 2.8.96zM1180.09 148.8l-.43 8.74h-3.59l-.45-8.74h4.47zm-2.24 13.57c-.75 0-1.3-.17-1.66-.51-.35-.34-.53-.81-.53-1.39v-.05c0-.59.18-1.06.53-1.41.35-.34.9-.52 1.66-.52s1.31.17 1.67.52c.35.35.53.81.53 1.41v.05c0 .59-.18 1.05-.53 1.39-.35.34-.91.51-1.67.51zM1049.61 184.34v.51l-.01 1.39c-.02.15-.04.22-.09.22l-8.87.24c-.11-.09-.2-.19-.28-.29v-.34l.01-.36.03-1.58v-.18l-.03-.8c0-.68.04-1.02.13-1.02h3.54l3.69-.02h.87l.82.01c.11.12.17.8.17 2.05v.17zM1071.34 173.91l-.02 3.57c0 2.38.02 4.42.06 6.14l.11 7.53c-.2.19-.72.28-1.56.28l-1.04-.02h-.7l-.5.01h-.76c-.82.01-1.62 0-2.43-.02l-.19-.3c-.08-.11-.12-.37-.12-.76s.03-3.02.1-7.87l.05-3.32c-1.33.91-2.62 1.56-3.88 1.95-.06 0-.09-.04-.1-.11v-1.83c-.01-2.13 0-3.2.04-3.21.03-.01.15-.08.36-.19s.44-.22.71-.33c.27-.11.43-.18.48-.22.05-.04.12-.08.19-.11 2.08-1 3.35-1.85 3.81-2.57l3.74.07c.74 0 1.29-.02 1.65-.05.02.05.04.28.04.68v.69zM1094.33 188.35l-.06 2.38v.24c0 .2-.09.31-.27.33l-5-.11c-3.48 0-7.11.08-10.9.24l-.16-.21c-.14-.1-.21-.46-.21-1.09s0-1.3.03-2.03v-.08c.02-.66.02-1.17.02-1.52 0-.13.64-.62 1.93-1.47l2.1-1.39c1.46-1 2.56-1.85 3.32-2.54 1.33-1.2 1.99-2.29 1.99-3.25 0-.42-.13-.75-.38-1s-.58-.37-.98-.37-.7.1-.92.29c-.21.19-.35.4-.39.64-.15.68-.29 1.06-.42 1.13-.25 0-.63.01-1.13.01h-4.22l-.47-.01c-.27 0-.43-.04-.47-.11.06-.98.17-1.7.33-2.16.21-.77.58-1.44 1.12-2.01s1.18-1.01 1.92-1.33c1.45-.6 3.07-.9 4.88-.9 2.84 0 5 .64 6.48 1.92 1.11.94 1.66 2.18 1.66 3.72 0 1.96-.88 3.75-2.66 5.37-.87.8-2.03 1.67-3.47 2.61l-.85.76 5.92-.11c.49 0 .83.17 1 .51s.26.85.26 1.53zM1122.94 191.14c0 .1-.23.16-.67.16h-1.87l-.74.01h-1.18c-1.17.01-2.15-.02-2.92-.07-.02 0-.05-.06-.08-.15l-.06-.25a8.31 8.31 0 0 0-.57-2.41l-5.19.05c-.03.14-.14.55-.31 1.23-.18.68-.31 1.19-.4 1.54-.08.08-.46.12-1.15.12h-.3l-.7-.01-3.15.07h-.7l-.85.01c-.06-.06-.12-.13-.18-.22.81-2.8 1.9-6.27 3.29-10.41l.28-.86h-.01l.33-1.01c.11-.32.41-1.22.9-2.69s.81-2.42.93-2.85c.12-.43.2-.65.22-.67h2.01l4.31-.06 1.16.06.96-.06c.48 0 .73.1.73.29.81 2.26 1.89 5.5 3.24 9.74 1.35 4.24 2.11 6.62 2.28 7.14l.17.61c.06.22.14.45.24.69zm-12.01-6.62h3.4c-.12-.96-.21-1.67-.28-2.12l-.46-2.07c-.48-2.14-.74-3.23-.75-3.27-.02-.04-.03-.08-.04-.12-.01-.04-.02-.06-.03-.07s-.02-.03-.03-.07a.161.161 0 0 0-.04-.07.218.218 0 0 1-.04-.05c-.06-.1-.17-.18-.35-.25-.22.05-.87 2.48-1.95 7.3l-.13.8h.71zM1141.97 182.52v.81l-.01 4.49.03 2.13v1.18c-.04.06-.24.1-.58.1h-.32l-3.81.05c-1.62 0-2.82 0-3.61-.01-.12-.13-.56-1.31-1.32-3.53l-2.32-6.15-.44.06v1.24l-.01 3.29.05 3.29v1.36c0 .36-.08.55-.24.57-.8-.02-1.57-.04-2.29-.04h-.38l-1.83.05h-.24l-.87.02-.04-.02c-.27-.25-.4-.43-.4-.54v-.46l.07-4.73c0-5.19.05-9.12.15-11.78l.02-1.01c0-.07 2.79-.14 8.36-.19.05.03.12.21.22.53v-.04l.07.24c.6 1.71 1.33 3.68 2.18 5.9.86 2.22 1.29 3.35 1.31 3.4l.41-.02.05-9.88c0-.06.59-.1 1.77-.1l3.04.06h.9c.06 2.68.08 5.92.08 9.74zM1143.94 186l6.42-.11c.16 0 .3.14.41.41.11.28.21.49.32.66.25.39.67.58 1.24.58s1.04-.14 1.4-.41c.36-.27.53-.62.53-1.05s-.11-.72-.33-.88-.46-.31-.72-.46c-.26-.15-.64-.26-1.15-.35-.5-.08-.78-.13-.83-.15h.02l-.69-.18c-.44-.08-.82-.17-1.12-.27-1.93-.52-3.33-1.17-4.19-1.95s-1.29-1.84-1.29-3.17c0-.96.18-1.83.53-2.6.36-.77.82-1.39 1.39-1.88 1.66-1.4 3.95-2.1 6.87-2.1 2.32 0 4.14.42 5.47 1.26h-.01c.85.62 1.43 1.22 1.75 1.81.32.59.51 1.33.59 2.2l-.32.32c-2.13.08-4.01.12-5.65.12-.49 0-.79-.15-.88-.44-.04-.12-.09-.24-.13-.36-.11-.29-.48-.44-1.09-.44h-.05c-.48 0-.89.11-1.23.33-.34.22-.51.44-.52.65 0 .21.04.38.13.52s.19.25.3.33.27.16.49.25.38.14.49.17.28.07.52.14l.42.11c.17.05.67.17 1.49.36.82.19 1.51.38 2.06.56 1.72.57 2.9 1.3 3.52 2.17s.94 1.88.94 3.04c0 3.08-1.84 5.08-5.52 5.99-1.07.27-2.21.46-3.42.57-1.49 0-2.96-.22-4.42-.65-1.46-.44-2.43-1.15-2.92-2.13-.33-.48-.55-.92-.67-1.32s-.21-.96-.28-1.68c.02 0 .06.01.11.01zM1081.61 231.03h-7.79v-17.64h-.29l-6.28 2.09.17-6.74 7.11-2.4h7.07v24.69zM1099.56 231.9c-4.43 0-7.81-1.11-10.12-3.34s-3.48-5.47-3.48-9.74v-.27c0-4.24 1.15-7.47 3.46-9.7 2.31-2.23 5.69-3.34 10.14-3.34s7.84 1.11 10.14 3.34c2.3 2.23 3.46 5.46 3.46 9.7v.27c0 4.26-1.15 7.51-3.46 9.74-2.31 2.23-5.69 3.34-10.14 3.34zm0-6.38c1.92 0 3.33-.58 4.22-1.73.89-1.15 1.34-2.8 1.34-4.94v-.31c0-2.15-.45-3.8-1.34-4.95-.9-1.15-2.3-1.72-4.22-1.72s-3.33.58-4.22 1.74c-.89 1.16-1.34 2.8-1.34 4.93v.31c0 2.14.45 3.78 1.36 4.94.91 1.15 2.31 1.73 4.2 1.73zM1147.22 217.66h-22.37l.37-3.75h22.37l-.37 3.75zm0 5.64h-22.37l.37-3.75h22.37l-.37 3.75zm-4.29 8.6c-5.24 0-9.1-1.16-11.56-3.47-2.47-2.31-3.7-5.54-3.7-9.67v-.31c0-4.04 1.22-7.22 3.67-9.52s6.31-3.45 11.59-3.45c1.49 0 2.87.13 4.13.4 1.26.26 2.3.56 3.11.9l.66 6.43c-.9-.39-1.95-.7-3.14-.93-1.19-.23-2.51-.35-3.95-.35-2.81 0-4.81.58-6.01 1.74s-1.8 2.74-1.8 4.73v.31c0 2.02.61 3.62 1.84 4.8s3.36 1.77 6.39 1.77c1.38 0 2.67-.12 3.86-.38 1.2-.25 2.16-.55 2.9-.9l-.66 6.68c-.62.23-1.57.49-2.86.77-1.29.28-2.78.42-4.48.42z"/></g><path style="fill:none;stroke:#fff;stroke-miterlimit:10;stroke-width:1.38px" d="M20.7 256.01h1182.63"/><g><path class="cls-3" d="m376.09 320.97-.04-.84v-2.61c0-3.62.07-7.78.21-12.47l-.08-.08 2.27-.13c7.33-.39 12.09-.59 14.28-.59h19.62c6.71 0 12.28 1.39 16.72 4.17 1.57 1.35 2.85 3.16 3.83 5.43.98 2.27 1.47 4.84 1.47 7.71 0 5.53-3.71 10.23-11.12 14.11 4.18 1.15 7.39 3 9.62 5.54 2.23 2.54 3.35 5.65 3.35 9.33 0 6.51-2.92 11.46-8.76 14.82-4.3 2.53-9.73 3.79-16.3 3.79l-12.55-.17c-5.42 0-12.61.13-21.56.38-.79-1.66-1.18-8.21-1.18-19.67s.07-21.03.21-28.72zm35.25 7.08c.56-1.07.84-2.36.84-3.88 0-2.95-1.05-4.93-3.16-5.94-2.11-1.01-4.31-1.52-6.61-1.52s-3.45.84-3.45 2.53c0 3 .07 6.08.21 9.22l.08 2.23c.06 1.07.67 1.7 1.85 1.9l2.06-.25c4.27-.5 6.99-1.94 8.17-4.29zm-9.05 28.17c7.27 0 10.91-2.54 10.91-7.62 0-3.23-.98-5.39-2.95-6.49-1.77-.95-4.48-1.49-8.13-1.6h-1.22l-.76 2.36c-.2 2.89-.29 5.73-.29 8.53s.29 4.4.88 4.82h1.56zM441.99 363.46c0-5.7.15-9.66.46-11.88 0-12.21.17-24.52.51-36.93-.08-1.77-.13-3.55-.13-5.35v-1.39c-.11-.87-.17-1.64-.17-2.32s.07-1.11.21-1.31c6.01.37 11.27.55 15.79.55s7.62-.08 9.31-.25c.06.08.1.32.13.72h-.29v15.25l.29 34.28c0 .25.04.46.13.63v.08c.08.17.13.35.13.55l.34 12.25c-.14.31-.39.55-.76.72h-1.43l-23.58.38c-.28-.14-.65-.35-1.09-.63l.04-.72.13-4.63zM526.6 351.8c-.2.79-.29 1.63-.29 2.53v.97c0 1.49.1 2.56.29 3.2 0 4.24-.01 7.51-.04 9.81-.17.73-14.02 1.09-41.57 1.09-1.26 0-3.35-.03-6.27-.08-.45-.84-.67-2.23-.67-4.17l.08-2.74v-9.56l.04-8v-7.92l.04-12.76c0-2.36-.03-4.58-.08-6.65v-.46L478 311c0-3.57.29-5.88.88-6.95.56.03 1.33.04 2.32.04h2.02l7.08-.08c8.06 0 12.49.51 13.31 1.52l-.34 14.7-.13 12.34-.04.5-.17 17.52 1.68.97c5.08-.31 10-.46 14.76-.46s7.17.24 7.22.72zM579.88 351.8c-.2.79-.29 1.63-.29 2.53v.97c0 1.49.1 2.56.29 3.2 0 4.24-.01 7.51-.04 9.81-.17.73-14.02 1.09-41.57 1.09-1.26 0-3.35-.03-6.27-.08-.45-.84-.67-2.23-.67-4.17l.08-2.74v-9.56l.04-8v-7.92l.04-12.76c0-2.36-.03-4.58-.08-6.65v-.46l-.13-6.06c0-3.57.29-5.88.88-6.95.56.03 1.33.04 2.32.04h2.02l7.08-.08c8.06 0 12.49.51 13.31 1.52l-.34 14.7-.13 12.34-.04.5-.17 17.52 1.68.97c5.08-.31 10-.46 14.76-.46s7.17.24 7.22.72zM584.47 315.83l-.21-11.08s.13.04.29.13c21.34-.37 37.41-.56 48.22-.59.11.06.2.14.25.25v11.88c0 1.15-.03 2.09-.08 2.82-.14.45-.97.67-2.48.67h-.29c-6.79 0-13.87-.11-21.23-.34 0 .25-.04.7-.11 1.35l-.15 1.39-.21 1.6c-.14 1.07-.24 2.92-.29 5.56l13.06-.29c2.25-.06 3.87-.08 4.88-.08h.67c1.71 0 2.84.05 3.37.15s.8.39.8.86l-.04.34v1.01l.21 10.82-.04.04v-.04c-8.54.42-15.36.63-20.47.63h-1.98v10.19l22.87-.72c1.26 0 2.06.18 2.4.55-.03.73-.04 1.77-.04 3.12l.29 11.46c0 .7-.31 1.11-.93 1.22l-13.98-.13c-2.75 0-8.23.1-16.42.29l-6.91.17c-4.88.17-8.51.25-10.87.25l-.13-.08h.04l-.8-.8v-1.47l.25-45.02.04-6.11zM690.97 320.17c0 .93-.1 1.39-.29 1.39l-15.25-.13c-.06 2.72-.08 6.98-.08 12.76s.01 9.8.04 12.04l.17 22.32c-.14.39-.42.6-.84.63l-8.89-.13-.04.04-2.78-.04h-7.71c-2.08 0-3.64.01-4.67.04l-.72-.63s-.21-.25-.55-.67c0-2.47.1-7.96.29-16.47l.46-22.41-.08-1.05c-.2-2.78-.39-4.43-.57-4.95s-.54-.8-1.07-.84c-.53-.04-.93-.06-1.18-.06l-1.68.08-10.44-.17c-.36-.73-.55-2.37-.55-4.93l.08-3.71v-1.14c-.03-4.49-.07-6.89-.13-7.2.06 0 .17.03.34.08l53.61-.46c1.1 0 1.78.08 2.06.23.28.15.42.44.42.86v11.12l.04 3.37z"/><path class="cls-3" d="M746.48 320.17c0 .93-.1 1.39-.29 1.39l-15.25-.13c-.06 2.72-.08 6.98-.08 12.76s.01 9.8.04 12.04l.17 22.32c-.14.39-.42.6-.84.63l-8.89-.13-.04.04-2.78-.04h-7.71c-2.08 0-3.64.01-4.67.04l-.72-.63s-.21-.25-.55-.67c0-2.47.1-7.96.29-16.47l.46-22.41-.08-1.05c-.2-2.78-.39-4.43-.57-4.95-.18-.52-.54-.8-1.07-.84s-.93-.06-1.18-.06l-1.68.08-10.44-.17c-.37-.73-.55-2.37-.55-4.93l.08-3.71v-1.14c-.03-4.49-.07-6.89-.13-7.2.06 0 .17.03.34.08l53.61-.46c1.09 0 1.78.08 2.06.23.28.15.42.44.42.86v11.12l.04 3.37zM750.48 315.83l-.21-11.08s.13.04.29.13c21.34-.37 37.41-.56 48.22-.59.11.06.2.14.25.25v11.88c0 1.15-.03 2.09-.08 2.82-.14.45-.97.67-2.48.67h-.29c-6.79 0-13.87-.11-21.22-.34 0 .25-.04.7-.11 1.35l-.15 1.39-.21 1.6c-.14 1.07-.24 2.92-.29 5.56l13.06-.29c2.25-.06 3.88-.08 4.88-.08h.67c1.71 0 2.84.05 3.37.15s.8.39.8.86l-.04.34v1.01l.21 10.82-.04.04v-.04c-8.54.42-15.36.63-20.47.63h-1.98v10.19l22.87-.72c1.26 0 2.06.18 2.4.55-.03.73-.04 1.77-.04 3.12l.29 11.46c0 .7-.31 1.11-.93 1.22l-13.98-.13c-2.75 0-8.23.1-16.42.29l-6.91.17c-4.88.17-8.51.25-10.87.25l-.13-.08h.04l-.8-.8v-1.47l.25-45.02.04-6.11zM824.22 304.63l13.52-.13c2.86 0 5.46.06 7.79.17 6.26.17 11.03 1.64 14.3 4.42 3.27 2.78 4.91 6.7 4.91 11.75 0 3.51-1.03 6.51-3.07 8.99-2.05 2.49-5.04 4.67-8.97 6.55 6.23 1.97 10.01 6.74 11.33 14.32.31 1.66.55 3.55.74 5.69.18 2.13.33 3.57.44 4.29l.42 2.15c.45 2.53.84 4.35 1.18 5.47l-.17.13c-4.77.31-9.13.46-13.08.46s-7.43-.07-10.46-.21h-.25c-.87 0-1.8-4.14-2.78-12.42l-.21-1.81c-.11-3.09-.65-5.17-1.62-6.23-.97-1.07-2.65-1.6-5.03-1.6l-.55.04h-2.23v12.8l.04 1.35v7.71c-.08.28-.29.45-.63.5-3.09.11-7.45.17-13.08.17s-9.34.01-11.14.04l-.25-.08-.08.04c-.06 0-.14-.04-.25-.13l.08-3.79-.04-1.26.17-17.48v-3.07l.04-3.16.04-10.91.04-1.43-.13-9.56.17-13.43c0-.22.8-.34 2.4-.34l2.7.04h2.57l5.35.04 5.81-.08zm15.58 13.73c-1.68-.73-3.93-1.09-6.74-1.09h-2.44c-.31.45-.46 2.81-.46 7.1s.07 7.15.21 8.61c8.79-.2 13.18-3.23 13.18-9.1 0-2.5-1.25-4.34-3.75-5.52zm27.04 49.95v.04s-.04-.01-.04-.04h.04zm.21-.13-.21.13v-.08s.07-.04.21-.04zM870.76 363.46c0-5.7.15-9.66.46-11.88 0-12.21.17-24.52.51-36.93-.08-1.77-.13-3.55-.13-5.35v-1.39c-.11-.87-.17-1.64-.17-2.32s.07-1.11.21-1.31c6.01.37 11.27.55 15.79.55s7.62-.08 9.31-.25c.06.08.1.32.13.72h-.29v15.25l.29 34.28c0 .25.04.46.13.63v.08c.08.17.13.35.13.55l.34 12.25c-.14.31-.39.55-.76.72h-1.43l-23.58.38c-.28-.14-.65-.35-1.1-.63l.04-.72.13-4.63zM906.68 315.83l-.21-11.08s.13.04.29.13c21.34-.37 37.41-.56 48.22-.59.11.06.2.14.25.25v11.88c0 1.15-.03 2.09-.08 2.82-.14.45-.97.67-2.48.67h-.29c-6.79 0-13.87-.11-21.23-.34 0 .25-.04.7-.11 1.35l-.15 1.39-.21 1.6c-.14 1.07-.24 2.92-.29 5.56l13.05-.29c2.25-.06 3.88-.08 4.89-.08h.67c1.71 0 2.83.05 3.37.15.53.1.8.39.8.86l-.04.34v1.01l.21 10.82-.04.04v-.04c-8.54.42-15.36.63-20.47.63h-1.98v10.19l22.87-.72c1.26 0 2.06.18 2.4.55-.03.73-.04 1.77-.04 3.12l.29 11.46c0 .7-.31 1.11-.93 1.22l-13.98-.13c-2.75 0-8.23.1-16.42.29l-6.91.17c-4.88.17-8.51.25-10.87.25l-.13-.08h.04l-.8-.8v-1.47l.25-45.02.04-6.11z"/></g><path class="cls-3" d="m304.27 365.95-24.47-24.47 38.51-38.51 24.47 24.47-38.51 38.51zm50.32-47.55-7.11-7.11c-.68.37-1.4.66-2.17.88s-1.59.32-2.45.32c-2.65 0-4.89-.94-6.74-2.82-1.85-1.88-2.77-4.14-2.77-6.79 0-.86.09-1.68.28-2.45s.46-1.49.83-2.17l-7.11-7.11c-.92-.92-2.05-1.39-3.37-1.39s-2.48.46-3.46 1.39l-51.99 52.08c-.92.92-1.39 2.05-1.39 3.37s.46 2.45 1.39 3.37l7.11 7.11c.68-.37 1.4-.65 2.17-.83.77-.18 1.59-.28 2.45-.28 2.65 0 4.89.92 6.74 2.77 1.85 1.85 2.77 4.09 2.77 6.74 0 .86-.09 1.68-.28 2.45-.18.77-.46 1.49-.83 2.17l7.11 7.11c.92.92 2.05 1.39 3.37 1.39s2.48-.46 3.46-1.39l51.99-51.99c.92-.92 1.39-2.06 1.39-3.42s-.46-2.49-1.39-3.42zm-67.13 23.08 16.81 16.81 30.84-30.84-16.81-16.81-30.84 30.84z"/></svg>