<svg id="Calque_1" data-name="Calque 1" xmlns="http://www.w3.org/2000/svg" viewBox="0 0 628.08 988.22"><defs><style>.cls-1{fill:#010101}.cls-2{fill:#676767}.cls-3{fill:#ef7b90}.cls-5{fill:#fff}.cls-6{fill:#686868}.cls-7{fill:#979797}</style></defs><path class="cls-1" d="M568.31 0H59.59C26.82 0 0 26.82 0 59.59v144.76h627.9V59.59C627.9 26.82 601.08 0 568.31 0z"/><path class="cls-1" d="M59.77 988.22h508.72c32.77 0 59.59-26.82 59.59-59.59V196.96H.18v731.67c0 32.77 26.82 59.59 59.59 59.59z"/><path class="cls-3" d="M58.89 132.57h-8.2v-26.46h8.18v14.72l.02 3.5v8.24zm7.47-7.14h-9.6v-6.38h9.19c1.44 0 2.49-.25 3.18-.77.68-.51 1.02-1.3 1.02-2.38v-.27c0-1.08-.34-1.87-1.02-2.38-.68-.51-1.74-.77-3.18-.77h-9.19v-6.38h9.6c4.17 0 7.24.83 9.22 2.47 1.98 1.65 2.97 4 2.97 7.07v.27c0 2.99-.99 5.33-2.97 7-1.98 1.67-5.05 2.5-9.22 2.5zM85.51 132.57h-8.69l11.2-26.46h12.15l11.05 26.46h-8.69l-8.14-21.3h-.6l-8.28 21.3zm16.6-5.67H85.9v-6.33h16.21v6.33zM126.07 133.32c-1.64 0-3.21-.1-4.7-.31s-2.87-.47-4.13-.79-2.38-.64-3.36-.97l-.89-7.47c1.64.66 3.61 1.28 5.91 1.85 2.3.57 4.67.86 7.11.86 2.1 0 3.54-.13 4.32-.4.78-.27 1.17-.75 1.17-1.44v-.08c0-.48-.19-.86-.57-1.12-.38-.26-1.04-.48-1.99-.64-.95-.17-2.26-.34-3.94-.52-2.75-.32-5.03-.77-6.86-1.35-1.83-.58-3.19-1.43-4.1-2.57s-1.36-2.68-1.36-4.64v-.14c0-2.76 1.09-4.82 3.26-6.18 2.17-1.36 5.39-2.04 9.66-2.04 2.68 0 4.99.2 6.92.59 1.94.39 3.64.87 5.1 1.44l.93 6.83c-1.75-.7-3.66-1.26-5.73-1.66-2.07-.4-4.2-.6-6.38-.6-1.46 0-2.57.07-3.32.21-.75.14-1.26.33-1.51.58-.26.25-.38.55-.38.91v.02c0 .4.15.73.46.99.3.26.91.49 1.83.68.92.19 2.28.39 4.09.58 2.69.28 4.97.68 6.83 1.2 1.86.53 3.27 1.33 4.23 2.42.96 1.09 1.44 2.63 1.44 4.62v.23c0 3.08-1.14 5.33-3.43 6.76-2.28 1.43-5.82 2.14-10.61 2.14zM156.31 133.32c-1.64 0-3.21-.1-4.7-.31s-2.87-.47-4.13-.79-2.38-.64-3.36-.97l-.89-7.47c1.64.66 3.61 1.28 5.91 1.85 2.3.57 4.67.86 7.11.86 2.1 0 3.54-.13 4.32-.4.78-.27 1.17-.75 1.17-1.44v-.08c0-.48-.19-.86-.57-1.12-.38-.26-1.04-.48-1.99-.64-.95-.17-2.26-.34-3.94-.52-2.75-.32-5.03-.77-6.86-1.35-1.83-.58-3.19-1.43-4.1-2.57s-1.36-2.68-1.36-4.64v-.14c0-2.76 1.09-4.82 3.26-6.18 2.17-1.36 5.39-2.04 9.66-2.04 2.68 0 4.99.2 6.92.59 1.94.39 3.64.87 5.1 1.44l.93 6.83c-1.75-.7-3.66-1.26-5.73-1.66-2.07-.4-4.2-.6-6.38-.6-1.46 0-2.57.07-3.32.21-.75.14-1.26.33-1.51.58-.26.25-.38.55-.38.91v.02c0 .4.15.73.46.99.3.26.91.49 1.83.68.92.19 2.28.39 4.09.58 2.69.28 4.97.68 6.83 1.2 1.86.53 3.27 1.33 4.23 2.42.96 1.09 1.44 2.63 1.44 4.62v.23c0 3.08-1.14 5.33-3.43 6.76-2.28 1.43-5.82 2.14-10.61 2.14zM207.79 132.57h-24.38v-7.08l8.34-4c1.71-.83 3.08-1.55 4.11-2.17 1.03-.62 1.77-1.22 2.24-1.8.46-.58.69-1.21.69-1.9v-.15c0-.58-.14-1.1-.42-1.56-.28-.46-.8-.83-1.56-1.11-.76-.28-1.86-.41-3.31-.41-1.84 0-3.62.23-5.34.68-1.73.46-3.23.95-4.51 1.49l.91-7.04c.83-.39 1.78-.74 2.86-1.06 1.08-.32 2.27-.57 3.58-.77s2.74-.29 4.29-.29c3.96 0 6.98.77 9.05 2.3 2.07 1.53 3.1 3.72 3.1 6.56v.29c0 1.32-.22 2.52-.67 3.58-.45 1.06-1.2 2.05-2.25 2.96s-2.49 1.81-4.33 2.69l-3.85 1.84v1.64l-3.66-1.37h15.13v6.67zM227.64 133.05c-1.09 0-2.21-.08-3.35-.25-1.15-.17-2.19-.41-3.15-.72l-.7-7c.91.26 1.81.48 2.71.64.9.17 1.81.25 2.75.25 1.97 0 3.3-.39 3.97-1.18.68-.79 1.01-2.07 1.01-3.85v-14.82h8.4v15.67c0 3.78-.92 6.6-2.76 8.47s-4.81 2.79-8.89 2.79zM259.81 133.5c-5.33 0-9.37-1.22-12.12-3.67s-4.13-5.9-4.13-10.34v-.29c0-4.44 1.38-7.89 4.13-10.34s6.79-3.67 12.12-3.67 9.37 1.22 12.12 3.67 4.13 5.9 4.13 10.34v.29c0 4.44-1.38 7.89-4.13 10.34s-6.79 3.67-12.12 3.67zm0-6.79c2.46 0 4.32-.64 5.6-1.91 1.28-1.28 1.91-3.04 1.91-5.29v-.33c0-2.25-.64-4.01-1.91-5.29-1.28-1.28-3.14-1.92-5.6-1.92s-4.34.64-5.61 1.92c-1.27 1.28-1.9 3.04-1.9 5.29v.33c0 2.25.63 4.01 1.9 5.29 1.27 1.28 3.14 1.91 5.61 1.91zM295.1 133.5c-5 0-8.74-1.13-11.24-3.39-2.5-2.26-3.75-5.63-3.75-10.1v-13.89h8.4v13.87c0 2.14.55 3.77 1.66 4.91s2.75 1.7 4.93 1.7 3.82-.57 4.93-1.7c1.1-1.13 1.66-2.77 1.66-4.91v-13.87h8.4v13.89c0 4.47-1.24 7.84-3.73 10.1-2.48 2.26-6.24 3.39-11.26 3.39zM323.58 132.57h-8.2v-26.46h8.18v15.13l.02 2.84v8.49zm20.68 0h-8.88l-.54-3.42c-.18-1.13-.44-2.01-.79-2.64-.35-.63-.85-1.07-1.5-1.33-.66-.25-1.54-.38-2.66-.38l-8.69-.04v-6l9.75-.04c1.44-.01 2.46-.28 3.08-.81.62-.52.93-1.27.93-2.24v-.19c0-.97-.31-1.71-.93-2.23-.62-.52-1.65-.78-3.08-.78h-9.75v-6.38h10.64c4 0 6.92.64 8.77 1.91 1.84 1.27 2.76 3.15 2.76 5.63v.19c0 1.92-.58 3.37-1.73 4.37-1.15.99-2.85 1.55-5.1 1.66v1.3l-.99-1.14c1.79.14 3.2.48 4.21 1.04 1.01.55 1.78 1.36 2.31 2.42s.95 2.44 1.26 4.12l.93 4.97zM360.22 133.32c-1.64 0-3.21-.1-4.7-.31s-2.87-.47-4.13-.79-2.38-.64-3.36-.97l-.89-7.47c1.64.66 3.61 1.28 5.91 1.85 2.3.57 4.67.86 7.11.86 2.1 0 3.54-.13 4.32-.4.78-.27 1.17-.75 1.17-1.44v-.08c0-.48-.19-.86-.57-1.12-.38-.26-1.04-.48-1.99-.64-.95-.17-2.26-.34-3.94-.52-2.75-.32-5.03-.77-6.86-1.35-1.83-.58-3.19-1.43-4.1-2.57-.9-1.13-1.36-2.68-1.36-4.64v-.14c0-2.76 1.09-4.82 3.26-6.18 2.17-1.36 5.39-2.04 9.66-2.04 2.68 0 4.99.2 6.92.59 1.94.39 3.64.87 5.1 1.44l.93 6.83c-1.75-.7-3.66-1.26-5.73-1.66-2.07-.4-4.2-.6-6.38-.6-1.46 0-2.57.07-3.32.21-.75.14-1.26.33-1.51.58-.25.25-.38.55-.38.91v.02c0 .4.15.73.46.99.3.26.91.49 1.83.68.92.19 2.28.39 4.09.58 2.69.28 4.97.68 6.83 1.2 1.86.53 3.27 1.33 4.23 2.42.96 1.09 1.44 2.63 1.44 4.62v.23c0 3.08-1.14 5.33-3.43 6.76-2.28 1.43-5.82 2.14-10.61 2.14zM393.55 136.5h-8.5v-23.94h8.5v3.96h-3.22v16.02h3.22v3.96zM410.8 132.57h-8.66l-7.46-18.96h6.35l5.24 14.36h.42l5.24-14.36h6.35l-7.46 18.96zM426.32 132.57h-5.89v-18.96h5.89v18.96zm12.39-14.36h-18.28v-4.6h18.28v4.6zm.27 14.36h-18.54v-4.6h18.54v4.6zm-.58-7.4h-14.91v-4.35h14.91v4.35zM442.44 113.61h8.29l7.2 12.73h.27l-.16-6.57v-6.16h5.92v18.96h-7.92l-7.57-13.25h-.27l.16 6.57v6.68h-5.92v-18.96zM483.85 125.93h-16.2v-4.48h16.2v4.48zm-5.67-10.1v15.73h-4.87v-15.73h4.87zM496.19 133.11c-1.18 0-2.3-.07-3.37-.22s-2.05-.34-2.96-.56c-.9-.23-1.71-.46-2.41-.7l-.64-5.36c1.18.47 2.59.92 4.24 1.33 1.65.41 3.34.62 5.1.62 1.5 0 2.53-.1 3.09-.29.56-.19.84-.54.84-1.03v-.06c0-.35-.14-.61-.41-.8-.27-.19-.75-.34-1.42-.46-.68-.12-1.62-.24-2.83-.37-1.97-.23-3.61-.55-4.92-.96-1.31-.42-2.29-1.03-2.94-1.84-.65-.81-.97-1.92-.97-3.32v-.1c0-1.98.78-3.45 2.34-4.43 1.56-.97 3.86-1.46 6.92-1.46 1.92 0 3.57.14 4.96.42s2.61.63 3.66 1.03l.67 4.9c-1.26-.5-2.62-.9-4.11-1.19-1.48-.29-3.01-.43-4.57-.43-1.05 0-1.84.05-2.38.15-.54.1-.9.24-1.08.42-.18.18-.27.4-.27.65 0 .3.11.54.33.73.22.19.66.35 1.31.49.66.14 1.63.28 2.93.42 1.93.2 3.56.48 4.9.86 1.34.38 2.35.95 3.03 1.74s1.03 1.88 1.03 3.31v.16c0 2.21-.82 3.82-2.46 4.84-1.64 1.02-4.17 1.54-7.6 1.54zM513.58 132.57h-6.23l8.03-18.96h8.71l7.92 18.96h-6.23l-5.83-15.27h-.43l-5.93 15.27zm11.9-4.06h-11.62v-4.54h11.62v4.54zM539.76 132.57h-5.89l1.01-18.96h8.37l3.72 10.89h.33l3.77-10.89h8.35l1.01 18.96h-5.89l-.27-6.94-.22-5.86h-.31l-3.72 10.52h-5.71l-3.77-10.52h-.33l-.21 5.86-.24 6.94zM571.57 112.56v23.94h-8.5v-3.96h3.22v-16.02h-3.22v-3.96h8.5z"/><path class="cls-5" d="M54.09 164.27v.21c0 1.08.13 2.12.39 3.15.26 1.03.65 2.01 1.18 2.95.53.94 1.19 1.83 1.98 2.67h-2.63c-.75-.81-1.37-1.67-1.86-2.59-.49-.92-.85-1.9-1.09-2.93s-.36-2.12-.36-3.26v-.21c0-1.1.12-2.16.37-3.17.25-1.01.62-1.98 1.12-2.89.5-.92 1.12-1.77 1.87-2.57h2.58c-.79.82-1.46 1.7-1.98 2.63-.53.93-.92 1.9-1.18 2.91-.26 1.01-.39 2.04-.39 3.09zM62.87 170.52h-2.43v-14.11h2.43v14.11zm5.59-4.58h-6.23v-2h6.23c1.13 0 1.96-.23 2.47-.7.51-.47.77-1.12.77-1.97v-.19c0-.85-.26-1.5-.77-1.98-.51-.47-1.33-.71-2.47-.71h-6.29v-1.99h6.29c1.98 0 3.44.42 4.37 1.25.93.83 1.4 1.97 1.4 3.42v.2c0 1.43-.47 2.57-1.4 3.41-.93.84-2.39 1.25-4.37 1.25zM79.75 156.41v14.11h-2.46v-14.11h2.46zm-1.2 14.11v-2.02h10.81v2.02H78.55zM93.33 170.52h-2.55l6.52-14.11h3.71l6.48 14.11h-2.55l-5.61-12.56h-.35l-5.65 12.56zm10.34-3.91H94.6v-1.99h9.07v1.99zM116.75 170.89c-2.69 0-4.72-.64-6.1-1.93-1.38-1.28-2.08-3.09-2.08-5.42v-.21c0-2.3.68-4.08 2.05-5.37 1.37-1.28 3.37-1.92 6-1.92.85 0 1.62.07 2.31.2.7.13 1.32.3 1.87.51.55.21 1.02.43 1.41.66l.22 2.21c-.68-.41-1.49-.77-2.41-1.08-.92-.31-2.01-.46-3.25-.46-1.84 0-3.24.46-4.2 1.38-.96.92-1.44 2.21-1.44 3.86v.21c0 1.67.48 2.97 1.45 3.9.97.93 2.43 1.4 4.38 1.4 1.17 0 2.22-.15 3.16-.46.94-.3 1.75-.66 2.45-1.08l-.21 2.21c-.39.23-.86.45-1.41.66-.55.21-1.18.38-1.88.52s-1.47.2-2.32.2zM128.27 170.52h-2.42v-14.11h2.42v14.11zm10.25-12.11h-12.54v-2h12.54v2zm.15 12.11h-12.7v-2h12.7v2zm-.41-6.18h-11.15v-1.96h11.15v1.96zM148.11 170.84c-.99 0-1.89-.08-2.72-.23-.83-.15-1.57-.34-2.21-.56-.65-.22-1.2-.43-1.64-.64l-.27-2.37c.81.43 1.81.82 3 1.17s2.47.53 3.85.53c1.49 0 2.58-.18 3.27-.54.69-.36 1.04-.91 1.04-1.65v-.02c0-.51-.14-.91-.41-1.21s-.76-.53-1.44-.69c-.68-.16-1.63-.29-2.85-.39-1.58-.12-2.84-.34-3.79-.65-.94-.3-1.62-.74-2.03-1.3-.41-.56-.62-1.29-.62-2.18v-.04c0-1.3.52-2.28 1.56-2.96 1.04-.68 2.64-1.02 4.79-1.02 1.48 0 2.74.13 3.79.4 1.05.26 1.9.55 2.56.86l.28 2.16c-.8-.4-1.75-.73-2.83-1-1.09-.27-2.28-.41-3.58-.41-1 0-1.79.08-2.38.24-.58.16-1 .38-1.25.67s-.38.64-.38 1.05c0 .43.12.78.35 1.06.24.28.68.52 1.35.7.66.18 1.64.33 2.93.45 1.55.13 2.8.34 3.76.61s1.66.7 2.1 1.26c.44.56.66 1.34.66 2.33v.05c0 1.46-.57 2.55-1.71 3.25-1.14.7-2.86 1.05-5.16 1.05zM166.75 170.7c-.67 0-1.33-.06-1.99-.18-.66-.12-1.25-.28-1.79-.5l-.27-2.16a10.286 10.286 0 0 0 3.77.74c1.3 0 2.22-.3 2.76-.9.54-.6.82-1.51.82-2.74v-8.54h2.46v8.66c0 1.88-.44 3.29-1.33 4.22-.89.94-2.36 1.41-4.43 1.41zM183.78 170.89c-2.61 0-4.62-.64-6.02-1.92-1.4-1.28-2.1-3.08-2.1-5.42v-.19c0-2.33.7-4.14 2.1-5.41s3.4-1.91 6.02-1.91 4.63.64 6.02 1.91c1.4 1.27 2.09 3.08 2.09 5.41v.19c0 2.33-.7 4.14-2.09 5.42-1.39 1.28-3.4 1.92-6.02 1.92zm0-2.02c1.83 0 3.22-.47 4.15-1.41s1.4-2.24 1.4-3.89v-.21c0-1.65-.47-2.94-1.4-3.88s-2.32-1.41-4.15-1.41-3.23.47-4.16 1.41-1.4 2.23-1.4 3.88v.21c0 1.66.47 2.95 1.4 3.89s2.32 1.41 4.16 1.41zM202.19 170.89c-2.5 0-4.33-.58-5.51-1.75-1.18-1.17-1.77-2.89-1.77-5.16v-7.56h2.46v7.54c0 1.58.38 2.79 1.14 3.63.76.84 1.99 1.25 3.67 1.25s2.91-.42 3.67-1.25c.76-.83 1.14-2.04 1.14-3.63v-7.54h2.46v7.56c0 2.27-.58 3.99-1.76 5.16-1.17 1.17-3.01 1.75-5.51 1.75zM215.82 170.52h-2.42v-14.11h2.42v14.11zm11.81 0h-2.62l-.47-2.3c-.12-.63-.29-1.17-.51-1.6s-.54-.76-.97-.98c-.43-.22-1.05-.33-1.84-.33h-6.16v-1.91h6.66c1.07-.01 1.86-.24 2.36-.7.5-.46.75-1.07.75-1.82v-.12c0-.74-.24-1.33-.72-1.76s-1.26-.64-2.33-.64h-6.71v-1.97h7c1.82 0 3.15.35 4 1.05.85.7 1.27 1.67 1.27 2.93v.15c0 .97-.25 1.74-.76 2.31s-1.29.92-2.37 1.07v.3l-1.25-.36c.96.04 1.7.22 2.22.54.53.31.93.75 1.2 1.31.27.56.49 1.25.66 2.06l.6 2.76zM230.8 156.41h3.59l8.4 11.7h.2l-.09-5.6v-6.11h2.45v14.11h-3.44l-8.53-11.9h-.2l.09 6.05v5.85h-2.46V156.4zM251.85 170.52h-2.42v-14.11h2.42v14.11zm10.25-12.11h-12.54v-2h12.54v2zm.15 12.11h-12.7v-2h12.7v2zm-.41-6.18h-11.15v-1.96h11.15v1.96zm-7.18-9.58 3.38-2.97h2.99v.07l-3.88 2.95h-2.5v-.04zM268.11 170.52h-2.42v-14.11h2.42v14.11zm10.25-12.11h-12.54v-2h12.54v2zm.15 12.11h-12.7v-2h12.7v2zm-.41-6.18h-11.15v-1.96h11.15v1.96zM290.05 170.52h-2.42v-14.11h2.42v14.11zm10.25-12.11h-12.54v-2h12.54v2zm.15 12.11h-12.7v-2h12.7v2zm-.41-6.18h-11.15v-1.96h11.15v1.96zM303.89 156.41h3.59l8.4 11.7h.2l-.09-5.6v-6.11h2.45v14.11H315l-8.53-11.9h-.2l.09 6.05v5.85h-2.46V156.4zM336.67 170.52h-3.72l-6.27-14.11h2.66l5.31 12.22h.3l5.31-12.22h2.66l-6.25 14.11zM347.9 170.52h-2.42v-14.11h2.42v14.11zm10.25-12.11h-12.54v-2h12.54v2zm.16 12.11h-12.7v-2h12.7v2zm-.41-6.18h-11.15v-1.96h11.15v1.96zM361.74 156.41h3.59l8.4 11.7h.2l-.09-5.6v-6.11h2.45v14.11h-3.45l-8.53-11.9h-.2l.09 6.05v5.85h-2.46V156.4zM393.85 158.41h-14.58v-2h14.58v2zm-6.06 12.11h-2.46v-13.33h2.46v13.33zM399.23 170.52h-2.42v-14.11h2.42v14.11zm10.25-12.11h-12.54v-2h12.54v2zm.16 12.11h-12.7v-2h12.7v2zm-.41-6.18h-11.15v-1.96h11.15v1.96zM421.17 170.52h-2.42v-14.11h2.42v14.11zm10.25-12.11h-12.54v-2h12.54v2zm.15 12.11h-12.7v-2h12.7v2zm-.41-6.18h-11.15v-1.96h11.15v1.96zM435.01 156.41h3.59l8.4 11.7h.2l-.09-5.6v-6.11h2.45v14.11h-3.44l-8.53-11.9h-.2l.09 6.05v5.85h-2.46V156.4zM462.16 170.7c-.67 0-1.33-.06-1.99-.18-.66-.12-1.25-.28-1.79-.5l-.26-2.16c.57.23 1.17.41 1.8.54.64.13 1.29.2 1.96.2 1.29 0 2.21-.3 2.76-.9.54-.6.82-1.51.82-2.74v-8.54h2.46v8.66c0 1.88-.44 3.29-1.33 4.22-.89.94-2.36 1.41-4.43 1.41zM472.23 170.52h-2.55l6.52-14.11h3.71l6.48 14.11h-2.55l-5.61-12.56h-.35l-5.65 12.56zm10.34-3.91h-9.07v-1.99h9.07v1.99zM488.95 156.41h3.59l8.4 11.7h.2l-.09-5.6v-6.11h2.45v14.11h-3.44l-8.53-11.9h-.2l.09 6.05v5.85h-2.46V156.4zM516.06 170.52h-3.72l-6.27-14.11h2.66l5.31 12.22h.3l5.31-12.22h2.66l-6.25 14.11zM527.35 156.41v14.11h-2.46v-14.11h2.46zM533.88 170.52h-2.42v-14.11h2.42v14.11zm10.25-12.11h-12.54v-2h12.54v2zm.16 12.11h-12.7v-2h12.7v2zm-.41-6.18h-11.15v-1.96h11.15v1.96zM550.14 170.52h-2.42v-14.11h2.42v14.11zm11.81 0h-2.62l-.47-2.3c-.12-.63-.29-1.17-.51-1.6-.21-.43-.54-.76-.97-.98-.43-.22-1.05-.33-1.84-.33h-6.16v-1.91h6.66c1.08-.01 1.86-.24 2.36-.7.5-.46.75-1.07.75-1.82v-.12c0-.74-.24-1.33-.72-1.76-.48-.43-1.26-.64-2.33-.64h-6.71v-1.97h7c1.82 0 3.15.35 4 1.05s1.27 1.67 1.27 2.93v.15c0 .97-.25 1.74-.76 2.31s-1.29.92-2.37 1.07v.3l-1.25-.36c.96.04 1.7.22 2.22.54.53.31.93.75 1.2 1.31.27.56.49 1.25.66 2.06l.6 2.76zM567.38 164.48v-.21c0-1.05-.13-2.08-.39-3.09-.26-1.01-.66-1.98-1.18-2.91-.53-.93-1.19-1.81-1.98-2.63h2.58c.75.79 1.38 1.65 1.87 2.57.5.92.87 1.88 1.11 2.89.25 1.01.37 2.07.37 3.17v.21c0 1.14-.12 2.23-.36 3.26-.24 1.03-.6 2.01-1.09 2.93-.49.92-1.11 1.78-1.87 2.59h-2.63c.8-.84 1.46-1.73 1.99-2.67.52-.94.91-1.93 1.18-2.95.26-1.03.39-2.08.39-3.15z"/><g><path class="cls-5" d="M431.72 82.02v3.46h-7.06V70.01h4.01v12.02h3.05zM175.24 94.23c-.96-.13-1.92-.23-2.87-.38-3.12-.5-6-1.58-8.37-3.73-2.09-1.91-3.27-4.34-3.57-7.12-.17-1.58-.09-3.19-.08-4.79.02-4.17.06-8.33.08-12.5 0-1.57 0-3.15-.03-4.72 0-.51.2-.69.71-.69 3.35 0 6.71-.04 10.06-.04.8 0 1.59.07 2.57.11v3.96c.02 3.24.08 6.48.08 9.72 0 2.5-.11 5.01-.07 7.51.01.8.19 1.64.51 2.38.66 1.55 2.63 1.79 3.76.53.75-.83.99-1.86 1-2.92.03-5.09.02-10.18 0-15.28 0-1.66-.1-3.32-.15-4.98v-.31c.07-.95.07-.96 1.04-.95l11.78.06c.88 0 1.11.29 1.1 1.14-.06 4.92-.08 9.85-.14 14.77-.04 2.75.07 5.53-.24 8.26-.48 4.29-3.05 7.08-7.04 8.62-1.93.75-3.93 1.12-5.98 1.27-.25.02-.49.08-.73.12h-3.42zM503.82 94.23c-.96-.13-1.92-.23-2.87-.38-3.12-.5-6-1.58-8.37-3.73-2.09-1.91-3.27-4.34-3.57-7.12-.17-1.58-.09-3.19-.08-4.79.02-4.17.06-8.33.08-12.5 0-1.57 0-3.15-.03-4.72 0-.51.2-.69.71-.69 3.35 0 6.71-.04 10.06-.04.8 0 1.59.07 2.57.11v3.96c.02 3.24.08 6.48.08 9.72 0 2.5-.11 5.01-.07 7.51.01.8.19 1.64.51 2.38.66 1.55 2.63 1.79 3.76.53.75-.83.99-1.86 1-2.92.03-5.09.02-10.18 0-15.28 0-1.66-.1-3.32-.15-4.98v-.31c.07-.95.07-.96 1.04-.95l11.78.06c.88 0 1.11.29 1.1 1.14-.06 4.92-.08 9.85-.14 14.77-.04 2.75.07 5.53-.24 8.26-.48 4.29-3.05 7.08-7.04 8.62-1.93.75-3.93 1.12-5.98 1.27-.25.02-.49.08-.73.12h-3.42zM72.22 60.42c1.13 5.58 2.26 11.12 3.38 16.66.03.16.04.35.12.49.1.16.29.41.41.39.18-.03.45-.22.48-.39.49-2.26.95-4.52 1.39-6.79.65-3.3 1.28-6.61 1.9-9.91.1-.53.31-.7.87-.7 4.18 0 8.36-.04 12.55-.07 1.44 0 2.87.03 4.31-.02.63-.02.79.22.81.79.07 3.28.18 6.56.26 9.84.13 5.64.25 11.27.34 16.91.03 1.7-.09 3.41-.1 5.11 0 .54-.26.72-.72.73-3.44.05-6.88.1-10.32.11-.2 0-.53-.3-.58-.51-.19-.82-.39-1.65-.4-2.48-.05-3.28-.03-6.57-.04-9.85v-4.9c-.3-.06-.54-.12-.86-.19-.3 1.18-.62 2.33-.89 3.49-1.04 4.46-2.09 8.92-3.09 13.4-.15.68-.5.91-1.1.92-1.06.02-2.11.02-3.17.02h-5.96c-.91 0-1.02-.08-1.22-.92-.82-3.35-1.65-6.69-2.45-10.05-.61-2.58-1.18-5.16-1.77-7.74-.04-.18-.1-.36-.16-.57-.25.01-.47.03-.87.05l-.24 19.02H54.22V71.68c0-3.62 0-7.24-.03-10.86 0-.5.11-.77.7-.78 5.74-.09 11.49-.02 17.22.34.04 0 .08.02.13.03zM121.83 60.37c1.64-.05 3.24-.11 4.85-.13 3.31-.05 6.63-.07 9.94-.14.57-.01.78.2.98.7 2.14 5.6 4.31 11.18 6.47 16.77.2.51.21.51.95.34V60.25h10.7v2.97c.03 4.86.08 9.72.1 14.58.01 3.09-.03 6.19-.03 9.28 0 1.75.04 3.49.06 5.24 0 .92 0 .93-.95.93l-11.91.09c-.61 0-1.23-.05-1.84.01-.63.07-.9-.21-1.1-.75-1.65-4.36-3.32-8.72-4.99-13.08-.44-1.14-.88-2.27-1.35-3.47l-.81.1v2.03c.03 4.69.07 9.39.1 14.08 0 .27.03.58-.09.8-.11.21-.4.45-.61.45-3.21.05-6.42.06-9.62.08-.81 0-1.35-.53-1.34-1.37.03-2.15.06-4.29.08-6.44.03-4.31.04-8.63.09-12.94.05-4.04.16-8.08.25-12.12 0-.08.03-.16.06-.35zM387.32 60.22v3.03c.03 4.8.08 9.6.1 14.39.01 3.11-.03 6.23-.03 9.34 0 1.85.02 3.7.07 5.55.02.54-.18.7-.68.7-3.7.03-7.39.07-11.08.1-1.03 0-2.07-.04-3.1 0-.51.02-.71-.2-.87-.62-.67-1.81-1.34-3.63-2.03-5.43-1.4-3.63-2.82-7.25-4.22-10.88-.22-.57-.55-.34-.97-.22v2.01c.03 4.65.07 9.3.11 13.95v.51c-.05.74-.19.83-.93.83-3.12.02-6.25.05-9.37.08-.8 0-1.36-.5-1.36-1.29.04-4.12.1-8.25.14-12.37.02-2.46 0-4.93.03-7.39.06-3.89.17-7.78.24-11.67 0-.47.24-.49.59-.5 2.07-.05 4.13-.14 6.2-.17 2.7-.05 5.41-.05 8.11-.1.51-.01.73.15.91.62 2.15 5.61 4.33 11.22 6.48 16.83.18.47.42.57.96.35V60.26c3.6-.34 7.09.11 10.72-.06zM473.6 60.22h10.69v3c.03 4.84.08 9.68.1 14.52.01 3.09-.03 6.19-.03 9.28 0 1.75.04 3.49.06 5.24 0 .98 0 .98-1.02.99-4.31.03-8.62.06-12.92.08-1.58 0-1.58 0-2.16-1.5-1.95-5.08-3.89-10.17-5.83-15.25-.06-.16-.12-.31-.18-.46-.79-.08-.82-.06-.81.68.03 5.16.06 10.31.08 15.47 0 .25-.02.5-.06.75-.05.37-.25.52-.65.52-3.21 0-6.42.03-9.62.06-.78 0-1.34-.52-1.33-1.32.02-2.17.06-4.33.08-6.5.03-4.15.04-8.29.09-12.44.06-4.14.17-8.29.24-12.43 0-.43.17-.52.56-.53 2.11-.05 4.22-.14 6.33-.17 2.68-.05 5.36-.05 8.04-.1.48 0 .7.14.87.59 2.15 5.61 4.33 11.22 6.48 16.83.19.49.41.64.99.36V60.24zM287.44 93.22c-.33.05-.63.15-.93.14-3.97 0-7.94-.01-11.91-.04-.99 0-.96-.08-1.14-1.08-.22-1.19-.55-2.37-.84-3.55-.07-.29-.19-.45-.56-.45-2.85.04-5.7.06-8.55.06-.46 0-.67.13-.78.59-.32 1.33-.71 2.64-1.04 3.96-.09.37-.27.54-.63.57-.19.01-.38.05-.57.05l-11.08.15c-.84.01-.98-.18-.71-.98 2.06-6.31 4.12-12.62 6.21-18.93 1.44-4.35 2.93-8.68 4.39-13.03.13-.38.32-.51.72-.51 3.63-.03 7.26-.08 10.89-.11 1.45-.01 2.91 0 4.37 0 .93 0 1.07.1 1.37.97 3.22 9.52 6.43 19.03 9.64 28.55.39 1.17.75 2.36 1.16 3.63zm-19.49-26.48-.33.09c-1.59 4.68-2.61 9.51-3.73 14.35h7.56v-.31c-.47-4.4-1.72-8.64-2.73-12.93-.1-.43-.51-.8-.77-1.19zM352.23 93.22c-.33.05-.63.15-.93.15-3.97 0-7.94-.01-11.91-.04-.99 0-.96-.08-1.14-1.08-.22-1.19-.55-2.37-.83-3.55-.07-.29-.19-.46-.56-.45-2.85.04-5.7.06-8.55.06-.46 0-.67.13-.78.58-.32 1.33-.71 2.64-1.04 3.96-.09.37-.27.54-.63.57-.21.01-.42.05-.63.05l-11.02.15c-.84.01-.98-.18-.72-.98 2.06-6.31 4.12-12.62 6.21-18.93 1.44-4.35 2.93-8.68 4.39-13.03.13-.38.32-.51.72-.51 3.63-.03 7.26-.08 10.89-.11 1.45-.01 2.91 0 4.37 0 .93 0 1.08.1 1.37.97 3.18 9.4 6.35 18.79 9.52 28.19.44 1.29.83 2.59 1.28 3.99zm-15.99-12.01c-.02-.23 0-.41-.04-.59-.51-2.64-1-5.28-1.54-7.91-.32-1.54-.71-3.07-1.09-4.6-.14-.57-.37-1.11-1.16-1.3-1.59 4.71-2.62 9.53-3.73 14.4h7.57zM282.23 60.19h3.38c3.15-.01 6.29-.03 9.44-.04.89 0 .96.07 1.11.92 1.29 7.2 2.59 14.4 3.88 21.6.02.12.06.25.06.37 0 .69.35.82.97.62.35-1.89.67-3.79 1.05-5.68 1.14-5.71 2.32-11.41 3.46-17.12.1-.51.41-.57.8-.58 1.77-.05 3.54-.12 5.32-.15 1.98-.03 3.97 0 5.96 0 .84 0 .89.08.67.86-1.56 5.48-3.16 10.94-4.68 16.43-1.17 4.21-2.25 8.45-3.4 12.66-.25.93-.67 1.81-1.03 2.71-.2.51-.56.69-1.13.68-2.83-.04-5.65-.06-8.48-.05-2.43 0-4.85.08-7.28.08-.26 0-.64-.27-.74-.51-.39-.93-.78-1.87-.99-2.85-1.51-7.02-3.91-13.78-5.85-20.68-.78-2.77-1.53-5.55-2.29-8.32-.07-.24-.1-.49-.2-.95zM234.69 68.93v1.33c0 5.37 0 10.73.02 16.1 0 1.98.06 3.95.08 5.93.01 1.19 0 1.2-1.16 1.19l-10.13-.06c-.51 0-1.01.04-1.52.04-.75 0-1.19-.41-1.17-1.16.09-4.33.23-8.66.27-13 .03-2.96.33-5.93-.07-8.89-.15-1.06-.29-1.2-1.36-1.2-1.96 0-3.93-.03-5.89 0-.52 0-.69-.22-.71-.64-.05-.9-.09-1.8-.09-2.7-.01-1.78 0-3.57 0-5.47h4.87c3.42-.01 6.84-.02 10.26-.04 4.45-.03 8.91-.08 13.36-.12h.57c.86.03.93.11.93.96.01 2.27.03 4.55.04 6.82 0 .29-.04.58-.06.92h-8.24zM389.54 60.4h4.71c4.69-.02 9.38-.05 14.06-.08 3.25-.02 6.5-.05 9.75-.08.21 0 .42.01.63 0 .61-.02.86.21.85.86-.04 1.98-.01 3.96-.01 5.94v1.91h-8.26v1.21c0 5.41 0 10.82.02 16.23 0 2.04.06 4.08.08 6.12.01.97 0 .97-1 .97l-10.32-.06c-.51 0-1.01.04-1.52.04-.71 0-1.16-.42-1.14-1.12.09-4.33.23-8.66.27-13 .03-2.98.33-5.97-.07-8.95-.14-1.01-.29-1.16-1.32-1.17-1.96 0-3.93-.03-5.89 0-.54 0-.73-.21-.75-.67-.04-.88-.08-1.76-.09-2.64-.01-1.78 0-3.57 0-5.5zM541.66 60.4h4.88c4.65-.02 9.29-.05 13.94-.08 3.25-.02 6.5-.05 9.75-.08.23 0 .46.02.7.01.53-.01.74.23.74.77-.02 2 0 4 0 6v1.92h-8.26v1.14c0 5.45 0 10.9.02 16.35 0 2.08.04 4.16.09 6.25.01.6-.18.82-.8.81-3.44-.04-6.88-.05-10.32-.07-.53 0-1.05.03-1.58.04-.91 0-1.31-.38-1.29-1.3.1-4.75.23-9.5.3-14.26.03-2.5.27-5-.1-7.5-.15-1.03-.29-1.18-1.31-1.18-1.96 0-3.93-.04-5.89 0-.58.01-.76-.25-.78-.72-.04-.96-.07-1.93-.08-2.9-.01-1.68 0-3.36 0-5.2zM103.12 60.18c4.57.07 9.03.13 13.4.2 0 3.51-.01 7.05 0 10.6.01 3.01.05 6.02.08 9.03.02 2.04.02 4.08.07 6.12.06 2.18.16 4.37.27 6.55.03.56-.21.74-.74.75-4.12.05-8.23.12-12.35.18-1.16.02-1.21-.06-1.17-1.2.07-2.21.11-4.42.16-6.62.07-3.13.13-6.27.19-9.4.07-3.58.15-7.15.18-10.73.01-1.41-.07-2.82-.1-4.23-.01-.41 0-.83 0-1.24zM210.21 60.36v1.98c.01 5.16.02 10.31.05 15.47.01 2.69.04 5.39.11 8.08.06 2.25.16 4.49.28 6.74.03.58-.18.79-.76.8-4.16.05-8.32.12-12.48.18-.98.01-1.07-.13-1.04-1.1.07-2.23.12-4.46.16-6.69.07-3.11.13-6.22.19-9.34.07-3.81.15-7.61.18-11.42.01-1.45-.06-2.9-.13-4.35-.02-.5.14-.63.65-.62 3.25.11 6.5.19 9.75.26 1.03.02 2.05 0 3.03 0zM525.51 60.18c4.57.07 9.03.13 13.41.19 0 3.53-.01 7.09 0 10.66.01 2.99.05 5.98.08 8.96.02 2.04.02 4.08.07 6.12.06 2.18.16 4.37.27 6.55.03.56-.2.75-.73.75-4.18.05-8.36.12-12.54.18-.92.01-1.03-.15-1-1.07.07-2.25.12-4.5.17-6.75.07-3.13.13-6.27.19-9.4.07-3.58.15-7.15.18-10.73.01-1.43-.07-2.86-.11-4.29-.01-.39 0-.79 0-1.18zM438.85 82.12h-1.93c-.11 1.1-.22 2.2-.33 3.35h-3.92c.7-5.14 1.4-10.27 2.1-15.46H441c.7 5.13 1.4 10.27 2.1 15.46h-3.92c-.11-1.09-.22-2.21-.33-3.35zm-.27-3.03c-.2-2.14-.39-4.24-.59-6.33h-.23c-.19 2.09-.38 4.18-.58 6.32h1.39z"/></g><path class="cls-7" d="M1.38 213.13h311.19v199.63H1.38z"/><g><path class="cls-6" d="M53.57 239.11H33.79v-2.71h19.78v2.71zm-8.22 16.42h-3.34v-18.07h3.34v18.07zM55.47 255.54h-3.46l8.85-19.13h5.03l8.79 19.13h-3.46l-7.6-17.04h-.48l-7.67 17.04zm14.03-5.3H57.19v-2.69H69.5v2.69zM81.43 255.54h-3.28v-19.13h3.28v19.13zm16.02 0H93.9l-.64-3.11c-.17-.86-.4-1.58-.69-2.16s-.73-1.03-1.32-1.33c-.59-.3-1.42-.45-2.5-.45l-8.35-.02v-2.58h9.03c1.46-.01 2.52-.33 3.2-.95.68-.62 1.02-1.44 1.02-2.46v-.16c0-1.01-.33-1.8-.98-2.38s-1.71-.87-3.17-.87h-9.1v-2.67h9.49c2.46 0 4.27.47 5.42 1.42 1.15.95 1.72 2.27 1.72 3.97v.21c0 1.32-.34 2.36-1.03 3.13s-1.75 1.25-3.21 1.45v.4l-1.69-.49c1.3.06 2.3.3 3.02.73a4.11 4.11 0 0 1 1.62 1.78c.37.76.67 1.69.9 2.79l.81 3.74zM105.11 236.4v19.13h-3.34V236.4h3.34zM113.97 255.54h-3.29v-19.13h3.29v19.13zm13.43-16.42h-16.56v-2.71h16.56v2.71zm-.3 8.97h-14.72v-2.71h14.72v2.71zM144.69 255.54h-5.94v-19.13h5.94v19.13zm12.5-14.49h-18.44v-4.64h18.44v4.64zm.27 14.49h-18.71v-4.64h18.71v4.64zm-.58-7.47h-15.05v-4.39h15.05v4.39zm-11.72-13.55 4.09-4.28h6.69v.1l-5.21 4.27h-5.57v-.09zM166.9 255.54h-5.93v-19.13h5.91v10.64l.02 2.53v5.96zm5.4-5.17h-6.95v-4.61H172c1.04 0 1.8-.18 2.3-.55.49-.37.74-.94.74-1.72v-.19c0-.78-.25-1.35-.74-1.72-.49-.37-1.26-.55-2.3-.55h-6.65v-4.61h6.95c3.01 0 5.24.6 6.67 1.79s2.15 2.9 2.15 5.11v.2c0 2.17-.72 3.85-2.15 5.06-1.43 1.21-3.66 1.81-6.67 1.81zM194.68 256.21c-3.61 0-6.32-.82-8.13-2.46-1.81-1.64-2.71-4.07-2.71-7.31v-10.05h6.08v10.03c0 1.55.4 2.73 1.2 3.55s1.99 1.23 3.56 1.23 2.76-.41 3.56-1.23c.8-.82 1.2-2 1.2-3.55v-10.03h6.08v10.05c0 3.23-.9 5.67-2.69 7.31-1.8 1.64-4.51 2.46-8.14 2.46zM215.43 236.4v19.13h-6.08V236.4h6.08zM228.17 256.08c-1.19 0-2.32-.08-3.4-.22-1.08-.15-2.07-.34-2.99-.57-.91-.23-1.72-.46-2.43-.7l-.64-5.4c1.19.48 2.61.93 4.27 1.34 1.66.41 3.38.62 5.14.62 1.52 0 2.56-.1 3.12-.29s.85-.54.85-1.04v-.06c0-.35-.14-.62-.41-.81-.27-.19-.75-.34-1.44-.46-.68-.12-1.63-.24-2.85-.37-1.99-.23-3.64-.55-4.96-.97-1.32-.42-2.31-1.04-2.96-1.86s-.98-1.94-.98-3.35v-.11c0-2 .79-3.49 2.36-4.47 1.57-.98 3.9-1.47 6.98-1.47 1.94 0 3.61.14 5.01.43s2.63.63 3.69 1.04l.67 4.94c-1.27-.51-2.65-.91-4.15-1.2-1.5-.29-3.03-.43-4.61-.43-1.06 0-1.86.05-2.4.15s-.91.24-1.09.42-.28.4-.28.66c0 .3.11.54.33.73.22.19.66.35 1.33.49.66.14 1.65.28 2.96.42 1.95.2 3.59.49 4.94.87 1.35.38 2.37.96 3.06 1.75s1.04 1.9 1.04 3.34v.17c0 2.23-.83 3.85-2.48 4.89-1.65 1.03-4.21 1.55-7.67 1.55zM247.35 255.54h-5.94v-19.13h5.94v19.13zm12.5-14.49h-18.44v-4.64h18.44v4.64zm.27 14.49h-18.71v-4.64h18.71v4.64zm-.58-7.47h-15.05v-4.39h15.05v4.39zm-11.72-13.55 4.09-4.28h6.69v.1l-5.21 4.27h-5.57v-.09zM276.96 236.4l-.63 12.64h-5.2l-.64-12.64h6.47zm-3.23 19.63c-1.09 0-1.89-.25-2.4-.74s-.76-1.17-.76-2.01v-.07c0-.86.25-1.54.76-2.04s1.31-.75 2.4-.75 1.9.25 2.41.75c.51.5.76 1.18.76 2.04v.07c0 .85-.25 1.52-.76 2.01-.51.49-1.31.74-2.41.74zM90.73 292.28l9.3-.16c.23 0 .43.2.59.6s.31.71.47.95c.36.56.96.84 1.8.84s1.51-.2 2.03-.59.77-.9.77-1.52-.16-1.05-.47-1.27-.66-.45-1.04-.67-.93-.38-1.66-.5-1.13-.19-1.2-.21h.04l-1-.26c-.64-.12-1.18-.25-1.62-.39-2.8-.75-4.83-1.69-6.07-2.83s-1.87-2.67-1.87-4.59c0-1.39.26-2.65.77-3.76s1.19-2.02 2.02-2.72c2.4-2.03 5.72-3.04 9.95-3.04 3.36 0 6.01.61 7.93 1.83h-.02c1.23.89 2.07 1.77 2.53 2.63s.74 1.92.86 3.19l-.46.46c-3.08.12-5.81.18-8.19.18-.71 0-1.14-.21-1.28-.63-.06-.18-.12-.35-.19-.53-.16-.42-.69-.63-1.58-.63h-.07c-.69 0-1.28.16-1.78.48s-.74.64-.75.94.06.56.19.76.28.36.43.47.39.24.7.36.55.21.71.25.41.11.75.2l.62.16c.25.07.96.25 2.15.53s2.18.55 2.98.81v-.02c2.5.84 4.2 1.9 5.11 3.16s1.36 2.73 1.36 4.4c0 4.46-2.67 7.36-8 8.68-1.55.39-3.2.66-4.96.83-2.16 0-4.29-.32-6.4-.95s-3.52-1.66-4.24-3.09c-.48-.69-.8-1.33-.97-1.91s-.3-1.39-.4-2.43c.04.01.09.02.16.02zM142.9 285.91l-.05 4.94c0 1.51-.24 2.85-.73 4.01s-1.13 2.1-1.92 2.81c-2.17 1.97-5.37 2.95-9.62 2.95s-7.54-1.03-9.9-3.09c-.83-.71-1.53-1.64-2.1-2.79s-.91-2.43-1.03-3.88c.06-4.9.09-9.43.09-13.59-.06 0-.09-.62-.09-1.85s.05-1.99.16-2.29h.37c1.72-.09 4.07-.14 7.05-.14.21.05.59.08 1.15.09s.94.03 1.15.05l.54.07c.08 2.32.13 5.51.16 9.58l-.11 7.07c0 2.34.68 3.52 2.04 3.52.57 0 1.06-.25 1.45-.76s.6-1.07.62-1.71l.07-.18.05-5.92.02-.53c0-2.72-.04-5.34-.11-7.88l-.04-1.28c-.02-.52-.04-.98-.04-1.39s.06-.69.19-.84c4.52 0 7.93.02 10.23.05.08.08.19.16.32.23h-.02l.19.12c-.09 2.21-.14 5.06-.14 8.54v3.02l.02 1.04zM146.17 287.92l.04-7.22v-7.33s.13-.02.33-.02h.65c.25 0 .43-.01.56-.04l2.18-.09c.56-.02 1-.04 1.3-.04h2.79l5.17-.12c.7 0 1.48.03 2.32.09h.12c.4-.02.65-.04.76-.04 2.34 0 4.35.74 6.01 2.23.81.71 1.45 1.63 1.92 2.76s.7 2.29.7 3.49-.12 2.22-.37 3.07-.56 1.56-.95 2.14c-1.55 2.37-4.54 3.75-8.98 4.15l-3.8.16c-.12 2.81-.18 5-.18 6.56l.02.54v1.42c-.05.16-.13.28-.26.33l-10.04.16c-.2-.56-.3-1.46-.3-2.71v-9.51zm15.38-7.54c-.47-1.23-1.71-1.89-3.73-1.97-.29-.01-.7-.02-1.21-.02-.14 0-.23 1.73-.26 5.19l-.04 1.32.05 1.05c1.44-.02 2.71-.33 3.81-.91s1.64-1.65 1.64-3.2c0-.66-.09-1.14-.26-1.46zM172.96 277.78l-.09-4.62.12.05c8.91-.15 15.62-.23 20.13-.25.05.02.08.06.11.11v4.96c0 .48-.01.87-.04 1.18-.06.19-.4.28-1.04.28h-.12c-2.84 0-5.79-.05-8.86-.14 0 .11-.01.29-.04.56s-.05.46-.06.58l-.09.67c-.06.45-.1 1.22-.12 2.32l5.45-.12c.94-.02 1.62-.04 2.04-.04h.28c.71 0 1.18.02 1.41.06s.33.16.33.36l-.02.14v.42l.09 4.52-.02.02v-.02c-3.56.18-6.41.26-8.54.26h-.83v4.25l9.54-.3c.53 0 .86.08 1 .23-.01.3-.02.74-.02 1.3l.12 4.78c0 .29-.13.46-.39.51l-5.84-.05c-1.15 0-3.43.04-6.86.12l-2.88.07c-2.04.07-3.55.11-4.54.11l-.05-.04h.02l-.33-.33v-.62l.11-18.79.02-2.55zM203.74 273.1l5.64-.05c1.2 0 2.28.02 3.25.07 2.61.07 4.6.69 5.97 1.85s2.05 2.79 2.05 4.9c0 1.46-.43 2.72-1.28 3.75s-2.1 1.95-3.74 2.73c2.6.82 4.18 2.81 4.73 5.98.13.69.23 1.48.31 2.37s.14 1.49.18 1.79l.18.9c.19 1.05.35 1.82.49 2.29l-.07.05c-1.99.13-3.81.19-5.46.19s-3.1-.03-4.37-.09h-.11c-.36 0-.75-1.73-1.16-5.19l-.09-.76c-.05-1.29-.27-2.16-.68-2.6s-1.1-.67-2.1-.67l-.23.02h-.93v5.34l.02.56v3.22c-.04.12-.12.19-.26.21-1.29.05-3.11.07-5.46.07s-3.9 0-4.65.02l-.11-.04-.04.02s-.06-.02-.11-.05l.04-1.58-.02-.53.07-7.29v-1.28l.02-1.32.02-4.55.02-.6-.05-3.99.07-5.61c0-.09.33-.14 1-.14l1.12.02h1.07l2.23.02 2.43-.04zm6.5 5.73c-.7-.3-1.64-.46-2.81-.46h-1.02c-.13.19-.19 1.17-.19 2.96s.03 2.99.09 3.59c3.67-.08 5.5-1.35 5.5-3.8 0-1.04-.52-1.81-1.56-2.3zm11.29 20.85v.02s-.02 0-.02-.02h.02zm.09-.05-.09.05v-.04s.03-.02.09-.02zM39.67 311.78l-.09-4.62.12.05c8.91-.15 15.62-.23 20.13-.25.05.02.08.06.11.11v4.96c0 .48-.01.87-.04 1.18-.06.19-.4.28-1.04.28h-.12c-2.84 0-5.79-.05-8.86-.14 0 .11-.01.29-.04.56s-.05.46-.06.58l-.09.67c-.06.45-.1 1.22-.12 2.32l5.45-.12c.94-.02 1.62-.04 2.04-.04h.28c.71 0 1.18.02 1.41.06s.33.16.33.36l-.02.14v.42l.09 4.52-.02.02v-.02c-3.56.18-6.41.26-8.54.26h-.83v4.25l9.54-.3c.53 0 .86.08 1 .23-.01.3-.02.74-.02 1.3l.12 4.78c0 .29-.13.46-.39.51l-5.84-.05c-1.15 0-3.43.04-6.86.12l-2.88.07c-2.04.07-3.55.11-4.54.11l-.05-.04h.02l-.33-.33v-.62l.11-18.79.02-2.55z"/><path class="cls-6" d="M90.46 333.73c-.01.15-.33.23-.97.23h-1.62l-1.09.02h-1.07L84 334c-1.7 0-3.11-.04-4.24-.12-.04-.01-.08-.08-.12-.21l-.09-.37c-.11-1.21-.38-2.37-.83-3.5l-7.52.07c-.05.2-.2.79-.46 1.78s-.45 1.73-.58 2.23c-.12.12-.67.18-1.67.18l-.44-.02h-1.02l-4.57.11h-.53l-.49.02h-1.23c-.08-.08-.17-.19-.26-.32 1.17-4.05 2.76-9.08 4.76-15.08l.4-1.25h-.02l.47-1.46c.15-.47.59-1.77 1.31-3.9s1.17-3.51 1.35-4.13.29-.94.33-.97h2.92l6.24-.09 1.69.09 1.39-.09c.7 0 1.05.14 1.05.42 1.17 3.27 2.74 7.97 4.69 14.12s3.06 9.59 3.3 10.35l.25.88c.08.32.2.65.35 1zm-17.4-9.6.72.02 4.2-.02c-.18-1.39-.31-2.42-.4-3.08l-.67-3.01c-.7-3.11-1.07-4.69-1.09-4.75s-.04-.11-.06-.17-.03-.09-.04-.11-.03-.05-.04-.1-.04-.08-.05-.1-.04-.04-.06-.08c-.08-.14-.25-.26-.51-.37-.32.07-1.26 3.6-2.83 10.58l-.19 1.16h1.04zM99.26 307.1l5.64-.05c1.2 0 2.28.02 3.25.07 2.61.07 4.6.69 5.97 1.85s2.05 2.79 2.05 4.9c0 1.46-.43 2.72-1.28 3.75s-2.1 1.95-3.74 2.73c2.6.82 4.18 2.81 4.73 5.98.13.69.23 1.48.31 2.37s.14 1.49.18 1.79l.18.9c.19 1.05.35 1.82.49 2.29l-.07.05c-1.99.13-3.81.19-5.46.19s-3.1-.03-4.37-.09h-.11c-.36 0-.75-1.73-1.16-5.19l-.09-.76c-.05-1.29-.27-2.16-.68-2.6s-1.1-.67-2.1-.67l-.23.02h-.93v5.34l.02.56v3.22c-.04.12-.12.19-.26.21-1.29.05-3.11.07-5.46.07s-3.9 0-4.65.02l-.11-.04-.04.02s-.06-.02-.11-.05l.04-1.58-.02-.53.07-7.29v-1.28l.02-1.32.02-4.55.02-.6-.05-3.99.07-5.61c0-.09.33-.14 1-.14l1.12.02h1.07l2.23.02 2.43-.04zm6.5 5.73c-.7-.3-1.64-.46-2.81-.46h-1.02c-.13.19-.19 1.17-.19 2.96s.03 2.99.09 3.59c3.67-.08 5.5-1.35 5.5-3.8 0-1.04-.52-1.81-1.56-2.3zm11.29 20.85v.02s-.02 0-.02-.02h.02zm.09-.05-.09.05v-.04s.03-.02.09-.02zM139.2 326.79c-.08.33-.12.68-.12 1.05v.4c0 .62.04 1.07.12 1.34 0 1.77 0 3.13-.02 4.1-.07.3-5.85.46-17.35.46a113 113 0 0 1-2.62-.04c-.19-.35-.28-.93-.28-1.74l.04-1.14v-3.99l.02-3.34v-3.3l.02-5.33c0-.98-.01-1.91-.04-2.78v-.19l-.05-2.53c0-1.49.12-2.46.37-2.9.23.01.56.02.97.02h.84l2.95-.04c3.36 0 5.21.21 5.55.63l-.14 6.13-.05 5.15-.02.21-.07 7.31.7.4c2.12-.13 4.17-.19 6.16-.19s2.99.1 3.01.3zM162.02 307.05l.58-.02c.12.06.21.21.26.44l-.53 1.04v-.02l-1.14 2.2c-1.72 3.19-2.84 5.31-3.34 6.38l-.6 1.14c-.64 1.24-1.74 3.43-3.29 6.57-.02.4-.04 1-.04 1.79v7.26c-.06.19-.18.28-.35.28l-10.07.07c-.26-.33-.39-.7-.39-1.12l.04-2.2v-.51l.02-.53.02-1.28c0-2.45-.63-5.07-1.88-7.88-.27-.59-.66-1.41-1.18-2.48l-2.62-5.24c-.07-.13-.26-.49-.56-1.07s-.64-1.22-1-1.9v.02c-.94-1.43-1.41-2.38-1.41-2.85 0-.06.19-.09.56-.09h4.52c2.5 0 4.38.02 5.64.05.38.07 1.35 2.89 2.94 8.46l.79 2.79c1.2-3.19 2.46-6.93 3.78-11.21.01-.09.88-.14 2.6-.14h2.25c.54 0 .99.01 1.35.04h3.04zM176.41 313.92l-.02-.35v-1.09c0-1.51.03-3.25.09-5.2l-.04-.04.95-.05c3.06-.16 5.04-.25 5.96-.25h8.19c2.8 0 5.13.58 6.98 1.74.66.56 1.19 1.32 1.6 2.27s.62 2.02.62 3.22c0 2.31-1.55 4.27-4.64 5.89 1.75.48 3.08 1.25 4.02 2.31s1.4 2.36 1.4 3.89c0 2.72-1.22 4.78-3.66 6.19-1.79 1.05-4.06 1.58-6.8 1.58l-5.24-.07c-2.26 0-5.26.05-9 .16-.33-.69-.49-3.43-.49-8.21s.03-8.78.09-11.99zm14.71 2.95c.23-.45.35-.98.35-1.62 0-1.23-.44-2.06-1.32-2.48s-1.8-.63-2.76-.63-1.44.35-1.44 1.05c0 1.25.03 2.54.09 3.85l.04.93c.02.45.28.71.77.79l.86-.11c1.78-.21 2.92-.81 3.41-1.79zm-3.78 11.76c3.04 0 4.55-1.06 4.55-3.18 0-1.35-.41-2.25-1.23-2.71-.74-.4-1.87-.62-3.39-.67h-.51l-.32.98c-.08 1.21-.12 2.39-.12 3.56s.12 1.84.37 2.01h.65zM203.92 331.66c0-2.38.06-4.03.19-4.96 0-5.1.07-10.24.21-15.42-.04-.74-.05-1.48-.05-2.23v-.58c-.05-.36-.07-.69-.07-.97s.03-.46.09-.54c2.51.15 4.71.23 6.59.23s3.18-.04 3.88-.11c.02.04.04.13.05.3h-.12v6.36l.12 14.31c0 .11.02.19.05.26v.04c.04.07.05.15.05.23l.14 5.12c-.06.13-.16.23-.32.3h-.6l-9.84.16c-.12-.06-.27-.15-.46-.26l.02-.3.05-1.93zM226.74 307.1l5.64-.05c1.2 0 2.28.02 3.25.07 2.61.07 4.6.69 5.97 1.85s2.05 2.79 2.05 4.9c0 1.46-.43 2.72-1.28 3.75s-2.1 1.95-3.74 2.73c2.6.82 4.18 2.81 4.73 5.98.13.69.23 1.48.31 2.37s.14 1.49.18 1.79l.18.9c.19 1.05.35 1.82.49 2.29l-.07.05c-1.99.13-3.81.19-5.46.19s-3.1-.03-4.37-.09h-.11c-.36 0-.75-1.73-1.16-5.19l-.09-.76c-.05-1.29-.27-2.16-.68-2.6s-1.1-.67-2.1-.67l-.23.02h-.93v5.34l.02.56v3.22c-.04.12-.12.19-.26.21-1.29.05-3.11.07-5.46.07s-3.9 0-4.65.02l-.11-.04-.04.02s-.06-.02-.11-.05l.04-1.58-.02-.53.07-7.29v-1.28l.02-1.32.02-4.55.02-.6-.05-3.99.07-5.61c0-.09.33-.14 1-.14l1.12.02h1.07l2.23.02 2.43-.04zm6.5 5.73c-.7-.3-1.64-.46-2.81-.46h-1.02c-.13.19-.19 1.17-.19 2.96s.03 2.99.09 3.59c3.67-.08 5.5-1.35 5.5-3.8 0-1.04-.52-1.81-1.56-2.3zm11.29 20.85v.02s-.02 0-.02-.02h.02zm.09-.05-.09.05v-.04s.03-.02.09-.02zM253.39 306.96l3.29-.05c5.73 0 9.76.95 12.08 2.85.49.36 1.03.97 1.62 1.83 1.7 2.47 2.55 5.2 2.55 8.19 0 5.33-1.83 9.28-5.5 11.83-2.19 1.54-4.71 2.31-7.56 2.34l-.07.07h-.44l-4.68-.05c-2.12 0-4.78.05-7.96.16-.22-.42-.33-.92-.33-1.49l.02-.63v-2.74l.04-3.9v-6.43c-.02-1.48-.04-2.58-.04-3.3v-2.88l.02-.4v-5.03c0-.09.64-.17 1.92-.24s2.3-.1 3.06-.1h2zm7.45 6.08c-.67-.48-1.41-.75-2.21-.81-.28-.01-.67-.02-1.15-.04s-.84-.02-1.06-.04c-.21.32-.35.55-.42.7l-.32.65v.98c0 2.03.05 4.78.14 8.24l.11 5.08c.07.36.3.58.7.65 1.21-.02 2.14-.11 2.79-.25 2.31-.82 3.46-3.63 3.46-8.42 0-3.55-.68-5.81-2.04-6.77zM105.54 390.52c-2.17 0-4.18-.11-6.03-.32s-3.54-.48-5.06-.81a53.08 53.08 0 0 1-3.93-.99l-.99-9.51c2.03.62 4.31 1.16 6.84 1.61s5.26.68 8.18.68c2.3 0 4.06-.12 5.28-.36 1.22-.24 2.05-.6 2.49-1.07.44-.47.67-1.05.67-1.73v-.17c0-.66-.18-1.17-.54-1.55-.36-.38-.96-.65-1.8-.83-.84-.17-1.99-.28-3.44-.32l-11.86-.29v-8.41l11.8-.29c1.45-.04 2.59-.15 3.42-.33s1.43-.47 1.78-.86c.36-.39.54-.9.54-1.54v-.09c0-.99-.54-1.68-1.61-2.09-1.07-.41-3.17-.61-6.28-.61-2.86 0-5.64.26-8.34.78s-4.99 1.03-6.89 1.54l.99-9.08c1.99-.7 4.27-1.28 6.84-1.74s5.54-.7 8.9-.7c6.13 0 10.73.85 13.82 2.55 3.08 1.7 4.63 4.26 4.63 7.69v.32c0 1.62-.3 3-.91 4.12-.61 1.12-1.59 1.99-2.93 2.6-1.34.61-3.14.97-5.38 1.09v1.45l-.84-1.07c3.87.29 6.56 1.19 8.08 2.71 1.52 1.52 2.28 3.55 2.28 6.1v.44c0 3.5-1.62 6.22-4.87 8.16-3.25 1.94-8.2 2.92-14.85 2.92zM145.21 390.52c-2.17 0-4.18-.11-6.03-.32s-3.54-.48-5.06-.81a53.08 53.08 0 0 1-3.93-.99l-.99-9.51c2.03.62 4.31 1.16 6.84 1.61s5.26.68 8.18.68c2.3 0 4.06-.12 5.28-.36 1.22-.24 2.05-.6 2.49-1.07.44-.47.67-1.05.67-1.73v-.17c0-.66-.18-1.17-.54-1.55-.36-.38-.96-.65-1.8-.83-.84-.17-1.99-.28-3.44-.32l-11.86-.29v-8.41l11.8-.29c1.45-.04 2.59-.15 3.42-.33s1.43-.47 1.78-.86c.36-.39.54-.9.54-1.54v-.09c0-.99-.54-1.68-1.61-2.09-1.07-.41-3.17-.61-6.28-.61-2.86 0-5.64.26-8.34.78s-4.99 1.03-6.89 1.54l.99-9.08c1.99-.7 4.27-1.28 6.84-1.74s5.54-.7 8.9-.7c6.13 0 10.73.85 13.82 2.55 3.08 1.7 4.63 4.26 4.63 7.69v.32c0 1.62-.3 3-.91 4.12-.61 1.12-1.59 1.99-2.93 2.6-1.34.61-3.14.97-5.38 1.09v1.45l-.84-1.07c3.87.29 6.56 1.19 8.08 2.71 1.52 1.52 2.28 3.55 2.28 6.1v.44c0 3.5-1.62 6.22-4.87 8.16-3.25 1.94-8.2 2.92-14.85 2.92zM215.42 369.47h-33.58l.55-5.63h33.58l-.55 5.63zm0 8.47h-33.58l.55-5.63h33.58l-.55 5.63zm-6.44 12.9c-7.87 0-13.65-1.73-17.36-5.21-3.7-3.47-5.55-8.31-5.55-14.51v-.46c0-6.07 1.84-10.83 5.51-14.28 3.67-3.45 9.47-5.18 17.4-5.18 2.24 0 4.31.2 6.21.59 1.89.4 3.45.85 4.67 1.35l.99 9.66c-1.35-.58-2.92-1.04-4.71-1.39-1.79-.35-3.77-.52-5.93-.52-4.21 0-7.22.87-9.02 2.61-1.8 1.74-2.7 4.11-2.7 7.11v.46c0 3.04.92 5.44 2.77 7.21 1.85 1.77 5.04 2.65 9.58 2.65 2.07 0 4-.19 5.8-.57 1.8-.38 3.25-.83 4.35-1.35l-.99 10.03c-.93.35-2.36.73-4.29 1.16-1.93.42-4.18.64-6.73.64z"/></g><path style="fill:#ef7b91" d="M315.33 213.13h311.19v199.63H315.33z"/><g><path class="cls-5" d="M384.31 253.58h-15.5v-2.12h15.5v2.12zm-6.44 12.87h-2.62v-14.16h2.62v14.16zM385.8 266.44h-2.71l6.93-14.99h3.94l6.89 14.99h-2.71l-5.96-13.35h-.38l-6.01 13.35zm10.99-4.15h-9.64v-2.11h9.64v2.11zM406.14 266.44h-2.57v-14.99h2.57v14.99zm12.55 0h-2.78l-.5-2.44c-.13-.67-.31-1.24-.54-1.7-.23-.46-.57-.8-1.03-1.04-.46-.23-1.11-.35-1.96-.35h-6.54v-2.03h7.07c1.14-.01 1.98-.26 2.51-.75.53-.49.8-1.13.8-1.93v-.13c0-.79-.26-1.41-.77-1.87-.51-.45-1.34-.68-2.48-.68h-7.13v-2.09h7.44c1.93 0 3.35.37 4.25 1.11.9.74 1.35 1.78 1.35 3.11v.17c0 1.03-.27 1.85-.8 2.45-.54.6-1.38.98-2.52 1.14v.32l-1.33-.39c1.02.05 1.8.24 2.36.57.56.33.98.8 1.27 1.4.29.6.52 1.33.7 2.19l.63 2.93zM424.7 251.45v14.99h-2.62v-14.99h2.62zM431.64 266.44h-2.58v-14.99h2.58v14.99zm10.52-12.87h-12.97v-2.12h12.97v2.12zm-.23 7.03H430.4v-2.12h11.53v2.12zM459.19 266.44h-6.03v-19.13h6.03v19.13zm4.69 0h-6.23v-4.91h6.09c1.58 0 2.76-.41 3.56-1.23.79-.82 1.19-1.93 1.19-3.32v-.25c0-1.4-.4-2.5-1.19-3.3-.79-.8-1.98-1.21-3.56-1.21h-6.09v-4.91h6.23c3.57 0 6.28.81 8.11 2.43 1.84 1.62 2.75 3.94 2.75 6.95v.27c0 3.04-.92 5.38-2.75 7.02-1.84 1.64-4.54 2.46-8.11 2.46zM484 247.31v19.13h-6.08v-19.13H484zM496.74 266.98a26.082 26.082 0 0 1-6.39-.79c-.91-.23-1.72-.46-2.43-.7l-.64-5.4c1.19.48 2.61.93 4.27 1.34s3.38.62 5.14.62c1.52 0 2.56-.1 3.12-.29.56-.19.85-.54.85-1.04v-.06c0-.35-.14-.62-.41-.81-.27-.19-.75-.34-1.44-.46-.68-.12-1.63-.24-2.85-.37-1.99-.23-3.64-.55-4.96-.97-1.32-.42-2.31-1.04-2.96-1.86-.65-.82-.98-1.94-.98-3.35v-.11c0-2 .79-3.49 2.36-4.47 1.57-.98 3.9-1.47 6.98-1.47 1.94 0 3.61.14 5.01.43s2.63.63 3.69 1.04l.67 4.94c-1.27-.51-2.65-.91-4.15-1.2-1.5-.29-3.03-.43-4.61-.43-1.06 0-1.86.05-2.4.15s-.91.24-1.09.42-.28.4-.28.66c0 .3.11.54.33.73s.66.35 1.33.49c.66.14 1.65.28 2.96.42 1.95.2 3.59.49 4.94.87 1.35.38 2.37.96 3.06 1.75s1.04 1.9 1.04 3.34v.17c0 2.23-.83 3.85-2.48 4.89-1.65 1.03-4.21 1.55-7.67 1.55zM515.9 266.44h-5.93v-19.13h5.91v13.17l.01 5.96zm5.4-5.17h-6.95v-4.61H521c1.04 0 1.8-.18 2.3-.55s.74-.94.74-1.72v-.19c0-.78-.25-1.35-.74-1.72s-1.26-.55-2.3-.55h-6.65v-4.61h6.95c3.01 0 5.24.6 6.67 1.79 1.43 1.19 2.15 2.9 2.15 5.11v.2c0 2.17-.72 3.85-2.15 5.06-1.43 1.21-3.66 1.81-6.67 1.81zM544 267.12c-3.85 0-6.77-.89-8.76-2.66s-2.99-4.26-2.99-7.48v-.21c0-3.21 1-5.71 2.99-7.48 1.99-1.77 4.91-2.66 8.76-2.66s6.77.89 8.77 2.66c1.99 1.77 2.99 4.26 2.99 7.48v.21c0 3.21-1 5.71-2.99 7.48s-4.91 2.66-8.77 2.66zm0-4.91c1.78 0 3.13-.46 4.05-1.38.92-.92 1.38-2.2 1.38-3.83v-.24c0-1.63-.46-2.9-1.38-3.82-.92-.92-2.27-1.38-4.05-1.38s-3.14.46-4.06 1.38c-.92.92-1.38 2.2-1.38 3.82v.24c0 1.63.46 2.9 1.38 3.83.92.92 2.27 1.38 4.06 1.38zM572.32 247.31l-.63 12.64h-5.2l-.64-12.64h6.47zm-3.23 19.63c-1.09 0-1.89-.25-2.4-.74s-.76-1.17-.76-2.01v-.07c0-.86.25-1.54.76-2.04s1.31-.75 2.4-.75 1.9.25 2.41.75.76 1.18.76 2.04v.07c0 .85-.25 1.52-.76 2.01s-1.31.74-2.41.74zM355 288.68l-.09-4.62.12.05c8.91-.15 15.62-.23 20.13-.25.05.02.08.06.11.11v4.96c0 .48-.01.87-.04 1.18-.06.19-.4.28-1.04.28h-.12c-2.84 0-5.79-.05-8.86-.14 0 .11-.01.29-.04.56s-.05.46-.06.58l-.09.67c-.06.45-.1 1.22-.12 2.32l5.45-.12c.94-.02 1.62-.04 2.04-.04h.28c.71 0 1.18.02 1.41.06s.33.16.33.36l-.02.14v.42l.09 4.52-.02.02v-.02c-3.56.18-6.41.26-8.54.26h-.83v4.25l9.54-.3c.53 0 .86.08 1 .23-.01.3-.02.74-.02 1.3l.12 4.78c0 .29-.13.46-.39.51l-5.84-.05c-1.15 0-3.43.04-6.86.12l-2.88.07c-2.04.07-3.55.11-4.54.11l-.05-.04h.02l-.33-.33v-.62l.11-18.79.02-2.55z"/><path class="cls-5" d="M405.79 310.64c-.01.15-.33.23-.97.23h-1.62l-1.09.02h-1.07l-1.71.02c-1.7 0-3.11-.04-4.24-.12-.04-.01-.08-.08-.12-.21l-.09-.37c-.11-1.21-.38-2.37-.83-3.5l-7.52.07c-.05.2-.2.79-.46 1.78s-.45 1.73-.58 2.23c-.12.12-.67.18-1.67.18l-.44-.02h-1.02l-4.57.11h-.53l-.49.02h-1.23c-.08-.08-.17-.19-.26-.32 1.17-4.05 2.76-9.08 4.76-15.08l.4-1.25h-.02l.47-1.46c.15-.47.59-1.77 1.31-3.9s1.17-3.51 1.35-4.13.29-.94.33-.97h2.92l6.24-.09 1.69.09 1.39-.09c.7 0 1.05.14 1.05.42 1.17 3.27 2.74 7.97 4.69 14.12s3.06 9.59 3.3 10.35l.25.88c.08.32.2.65.35 1zm-17.4-9.6.72.02 4.2-.02c-.18-1.39-.31-2.42-.4-3.08l-.67-3.01c-.7-3.11-1.07-4.69-1.09-4.75s-.04-.11-.06-.17-.03-.09-.04-.11-.03-.05-.04-.1-.04-.08-.05-.1-.04-.04-.06-.08c-.08-.14-.25-.26-.51-.37-.32.07-1.26 3.6-2.83 10.58l-.19 1.16h1.04zM414.59 284.01l5.64-.05c1.2 0 2.28.02 3.25.07 2.61.07 4.6.69 5.97 1.85s2.05 2.79 2.05 4.9c0 1.46-.43 2.72-1.28 3.75s-2.1 1.95-3.74 2.73c2.6.82 4.18 2.81 4.73 5.98.13.69.23 1.48.31 2.37s.14 1.49.18 1.79l.18.9c.19 1.05.35 1.82.49 2.29l-.07.05c-1.99.13-3.81.19-5.46.19s-3.1-.03-4.37-.09h-.11c-.36 0-.75-1.73-1.16-5.19l-.09-.76c-.05-1.29-.27-2.16-.68-2.6s-1.1-.67-2.1-.67l-.23.02h-.93v5.34l.02.56v3.22c-.04.12-.12.19-.26.21-1.29.05-3.11.07-5.46.07s-3.9 0-4.65.02l-.11-.04-.04.02s-.06-.02-.11-.05l.04-1.58-.02-.53.07-7.29v-1.28l.02-1.32.02-4.55.02-.6-.05-3.99.07-5.61c0-.09.33-.14 1-.14l1.12.02h1.07l2.23.02 2.43-.04zm6.5 5.73c-.7-.3-1.64-.46-2.81-.46h-1.02c-.13.19-.19 1.17-.19 2.96s.03 2.99.09 3.59c3.67-.08 5.5-1.35 5.5-3.8 0-1.04-.52-1.81-1.56-2.3zm11.29 20.85v.02s-.02 0-.02-.02h.02zm.09-.05-.09.05v-.04s.03-.02.09-.02zM454.53 303.69c-.08.33-.12.68-.12 1.05v.4c0 .62.04 1.07.12 1.34 0 1.77 0 3.13-.02 4.1-.07.3-5.85.46-17.35.46a113 113 0 0 1-2.62-.04c-.19-.35-.28-.93-.28-1.74l.04-1.14v-3.99l.02-3.34v-3.3l.02-5.33c0-.98-.01-1.91-.04-2.78v-.19l-.05-2.53c0-1.49.12-2.46.37-2.9.23.01.56.02.97.02h.84l2.95-.04c3.36 0 5.21.21 5.55.63l-.14 6.13-.05 5.15-.02.21-.07 7.31.7.4c2.12-.13 4.17-.19 6.16-.19s2.99.1 3.01.3zM477.35 283.95l.58-.02c.12.06.21.21.26.44l-.53 1.04v-.02l-1.14 2.2c-1.72 3.19-2.84 5.31-3.34 6.38l-.6 1.14c-.64 1.24-1.74 3.43-3.29 6.57-.02.4-.04 1-.04 1.79v7.26c-.06.19-.18.28-.35.28l-10.07.07c-.26-.33-.39-.7-.39-1.12l.04-2.2v-.51l.02-.53.02-1.28c0-2.45-.63-5.07-1.88-7.88-.27-.59-.66-1.41-1.18-2.48l-2.62-5.24c-.07-.13-.26-.49-.56-1.07s-.64-1.22-1-1.9v.02c-.94-1.43-1.41-2.38-1.41-2.85 0-.06.19-.09.56-.09h4.52c2.5 0 4.38.02 5.64.05.38.07 1.35 2.89 2.94 8.46l.79 2.79c1.2-3.19 2.46-6.93 3.78-11.21.01-.09.88-.14 2.6-.14h2.25c.54 0 .99.01 1.35.04h3.04zM491.74 290.83l-.02-.35v-1.09c0-1.51.03-3.25.09-5.2l-.04-.04.95-.05c3.06-.16 5.04-.25 5.96-.25h8.19c2.8 0 5.13.58 6.98 1.74.66.56 1.19 1.32 1.6 2.27s.62 2.02.62 3.22c0 2.31-1.55 4.27-4.64 5.89 1.75.48 3.08 1.25 4.02 2.31s1.4 2.36 1.4 3.89c0 2.72-1.22 4.78-3.66 6.19-1.79 1.05-4.06 1.58-6.8 1.58l-5.24-.07c-2.26 0-5.26.05-9 .16-.33-.69-.49-3.43-.49-8.21s.03-8.78.09-11.99zm14.71 2.95c.23-.45.35-.98.35-1.62 0-1.23-.44-2.06-1.32-2.48s-1.8-.63-2.76-.63-1.44.35-1.44 1.05c0 1.25.03 2.54.09 3.85l.04.93c.02.45.28.71.77.79l.86-.11c1.78-.21 2.92-.81 3.41-1.79zm-3.78 11.76c3.04 0 4.55-1.06 4.55-3.18 0-1.35-.41-2.25-1.23-2.71-.74-.4-1.87-.62-3.39-.67h-.51l-.32.98c-.08 1.21-.12 2.39-.12 3.56s.12 1.84.37 2.01h.65zM519.25 308.56c0-2.38.06-4.03.19-4.96 0-5.1.07-10.24.21-15.42-.04-.74-.05-1.48-.05-2.23v-.58c-.05-.36-.07-.69-.07-.97s.03-.46.09-.54c2.51.15 4.71.23 6.59.23s3.18-.04 3.88-.11c.02.04.04.13.05.3h-.12v6.36l.12 14.31c0 .11.02.19.05.26v.04c.04.07.05.15.05.23l.14 5.12c-.06.13-.16.23-.32.3h-.6l-9.84.16c-.12-.06-.27-.15-.46-.26l.02-.3.05-1.93zM542.07 284.01l5.64-.05c1.2 0 2.28.02 3.25.07 2.61.07 4.6.69 5.97 1.85s2.05 2.79 2.05 4.9c0 1.46-.43 2.72-1.28 3.75s-2.1 1.95-3.74 2.73c2.6.82 4.18 2.81 4.73 5.98.13.69.23 1.48.31 2.37s.14 1.49.18 1.79l.18.9c.19 1.05.35 1.82.49 2.29l-.07.05c-1.99.13-3.81.19-5.46.19s-3.1-.03-4.37-.09h-.11c-.36 0-.75-1.73-1.16-5.19l-.09-.76c-.05-1.29-.27-2.16-.68-2.6s-1.1-.67-2.1-.67l-.23.02h-.93v5.34l.02.56v3.22c-.04.12-.12.19-.26.21-1.29.05-3.11.07-5.46.07s-3.9 0-4.65.02l-.11-.04-.04.02s-.06-.02-.11-.05l.04-1.58-.02-.53.07-7.29v-1.28l.02-1.32.02-4.55.02-.6-.05-3.99.07-5.61c0-.09.33-.14 1-.14l1.12.02h1.07l2.23.02 2.43-.04zm6.5 5.73c-.7-.3-1.64-.46-2.81-.46h-1.02c-.13.19-.19 1.17-.19 2.96s.03 2.99.09 3.59c3.67-.08 5.5-1.35 5.5-3.8 0-1.04-.52-1.81-1.56-2.3zm11.29 20.85v.02s-.02 0-.02-.02h.02zm.09-.05-.09.05v-.04s.03-.02.09-.02zM568.72 283.87l3.29-.05c5.73 0 9.76.95 12.08 2.85.49.36 1.03.97 1.62 1.83 1.7 2.47 2.55 5.2 2.55 8.19 0 5.33-1.83 9.28-5.5 11.83-2.19 1.54-4.71 2.31-7.56 2.34l-.07.07h-.44l-4.68-.05c-2.12 0-4.78.05-7.96.16-.22-.42-.33-.92-.33-1.49l.02-.63v-2.74l.04-3.9v-6.43c-.02-1.48-.04-2.58-.04-3.3v-2.88l.02-.4v-5.03c0-.09.64-.17 1.92-.24s2.3-.1 3.06-.1h2zm7.45 6.08c-.67-.48-1.41-.75-2.21-.81-.28-.01-.67-.02-1.15-.04s-.84-.02-1.06-.04c-.21.32-.35.55-.42.7l-.32.65v.98c0 2.03.05 4.78.14 8.24l.11 5.08c.07.36.3.58.7.65 1.21-.02 2.14-.11 2.79-.25 2.31-.82 3.46-3.63 3.46-8.42 0-3.55-.68-5.81-2.04-6.77zM418.19 367.43c-2.17 0-4.18-.11-6.03-.32-1.86-.21-3.54-.48-5.06-.81a53.08 53.08 0 0 1-3.93-.99l-.99-9.51c2.03.62 4.31 1.16 6.84 1.61 2.53.45 5.26.68 8.18.68 2.3 0 4.06-.12 5.28-.36 1.22-.24 2.05-.6 2.49-1.07.44-.47.67-1.05.67-1.73v-.17c0-.66-.18-1.17-.54-1.55s-.96-.65-1.8-.83c-.84-.17-1.99-.28-3.44-.32l-11.86-.29v-8.41l11.8-.29c1.45-.04 2.59-.15 3.42-.33s1.43-.47 1.78-.86c.36-.39.54-.9.54-1.54v-.09c0-.99-.54-1.68-1.61-2.09-1.07-.41-3.17-.61-6.28-.61-2.86 0-5.64.26-8.34.78s-4.99 1.03-6.89 1.54l.99-9.08c1.99-.7 4.27-1.28 6.84-1.74s5.54-.7 8.9-.7c6.13 0 10.73.85 13.82 2.55 3.08 1.7 4.62 4.26 4.62 7.69v.32c0 1.62-.3 3-.91 4.12-.61 1.12-1.59 1.99-2.93 2.6-1.34.61-3.14.97-5.38 1.09v1.45l-.84-1.07c3.87.29 6.56 1.19 8.08 2.71 1.52 1.52 2.28 3.55 2.28 6.1v.44c0 3.5-1.62 6.22-4.87 8.16-3.25 1.94-8.2 2.92-14.85 2.92zM462.59 367.92c-3.92 0-7.19-.28-9.79-.84s-4.65-1.34-6.16-2.33-2.58-2.17-3.21-3.54c-.63-1.36-.94-2.84-.94-4.42v-.41c0-1.76.39-3.29 1.17-4.58.78-1.3 1.95-2.35 3.49-3.16 1.55-.81 3.46-1.35 5.74-1.62v-.41c-2.11-.15-3.9-.56-5.37-1.2-1.47-.65-2.59-1.53-3.36-2.65-.77-1.12-1.16-2.46-1.16-4.03v-.41c0-3.07 1.56-5.52 4.67-7.34 3.11-1.82 8.08-2.73 14.91-2.73s11.97.91 15.09 2.73 4.68 4.26 4.68 7.34v.41c0 1.55-.39 2.88-1.16 4-.77 1.12-1.9 2.01-3.36 2.67-1.47.66-3.26 1.06-5.37 1.22v.41c2.32.29 4.25.84 5.8 1.65 1.55.81 2.7 1.87 3.47 3.16.76 1.3 1.15 2.81 1.15 4.55v.41c0 1.43-.28 2.81-.83 4.13-.55 1.32-1.55 2.51-3 3.57s-3.5 1.89-6.16 2.51c-2.66.62-6.1.93-10.31.93zm.29-8.99c3.17 0 5.32-.32 6.44-.97s1.68-1.45 1.68-2.39v-.14c0-.97-.64-1.75-1.93-2.33-1.29-.59-3.61-1.09-6.97-1.49-3.04.39-5.08.9-6.13 1.55-1.05.65-1.58 1.41-1.58 2.28v.14c0 1.03.6 1.84 1.8 2.45 1.2.61 3.43.91 6.7.91zm.32-15.34c2.65-.27 4.57-.73 5.77-1.38 1.2-.65 1.8-1.39 1.8-2.22v-.14c0-.95-.61-1.69-1.83-2.23-1.22-.54-3.33-.81-6.35-.81s-4.93.26-6.13.78c-1.21.52-1.81 1.24-1.81 2.15v.17c0 .54.24 1.06.71 1.55s1.33.92 2.57 1.29c1.24.37 3 .65 5.28.84zM533.44 346.38h-33.58l.55-5.63h33.58l-.55 5.63zm0 8.47h-33.58l.55-5.63h33.58l-.55 5.63zm-6.44 12.9c-7.87 0-13.66-1.73-17.36-5.21-3.7-3.47-5.55-8.31-5.55-14.51v-.46c0-6.07 1.84-10.83 5.51-14.28 3.67-3.45 9.47-5.18 17.4-5.18 2.24 0 4.31.2 6.21.59 1.89.4 3.45.85 4.67 1.35l.99 9.66c-1.35-.58-2.92-1.04-4.71-1.39-1.79-.35-3.77-.52-5.93-.52-4.21 0-7.22.87-9.02 2.61-1.8 1.74-2.7 4.11-2.7 7.11v.46c0 3.04.92 5.44 2.77 7.21 1.85 1.77 5.04 2.65 9.58 2.65 2.07 0 4-.19 5.8-.57 1.8-.38 3.25-.83 4.35-1.35l-.99 10.03c-.93.35-2.36.73-4.29 1.16-1.93.42-4.18.64-6.73.64z"/></g><path class="cls-7" d="M1.38 415.99h311.19v199.63H1.38z"/><g><path class="cls-2" d="M134.16 451.73h-15.5v-2.12h15.5v2.12zm-6.44 12.87h-2.62v-14.16h2.62v14.16zM135.65 464.6h-2.71l6.93-14.99h3.94l6.89 14.99h-2.71l-5.96-13.35h-.38l-6.01 13.35zm10.99-4.15H137v-2.11h9.64v2.11zM155.99 464.6h-2.57v-14.99h2.57v14.99zm12.55 0h-2.78l-.5-2.44c-.13-.67-.31-1.24-.54-1.7-.23-.46-.57-.8-1.03-1.04s-1.11-.35-1.96-.35h-6.55v-2.03h7.07c1.14-.01 1.98-.26 2.51-.75.53-.49.8-1.13.8-1.93v-.13c0-.79-.26-1.41-.77-1.87-.51-.45-1.34-.68-2.48-.68h-7.13v-2.09h7.44c1.93 0 3.35.37 4.25 1.11.9.74 1.35 1.78 1.35 3.11v.17c0 1.03-.27 1.85-.8 2.45s-1.37.98-2.52 1.14v.32l-1.33-.39c1.02.05 1.8.24 2.36.57.56.33.98.8 1.27 1.4.29.6.52 1.33.7 2.19l.63 2.93zM174.55 449.61v14.99h-2.62v-14.99h2.62zM181.49 464.6h-2.58v-14.99h2.58v14.99zm10.52-12.87h-12.97v-2.12h12.97v2.12zm-.23 7.03h-11.53v-2.12h11.53v2.12zM55.55 496.98l.04-7.22v-7.33s.13-.02.33-.02h.65c.25 0 .43-.01.56-.04l2.18-.09c.56-.02 1-.04 1.3-.04h2.79l5.17-.12c.7 0 1.48.03 2.32.09h.12c.4-.02.65-.04.76-.04 2.34 0 4.35.74 6.01 2.23.81.71 1.45 1.63 1.92 2.76s.7 2.29.7 3.49-.12 2.22-.37 3.07-.56 1.56-.95 2.14c-1.55 2.37-4.54 3.75-8.98 4.15l-3.8.16c-.12 2.81-.18 5-.18 6.56l.02.54v1.42c-.05.16-.13.28-.26.33l-10.04.16c-.2-.56-.3-1.46-.3-2.71v-9.51zm15.38-7.54c-.47-1.23-1.71-1.89-3.73-1.97-.29-.01-.7-.02-1.21-.02-.14 0-.23 1.73-.26 5.19l-.04 1.32.05 1.05c1.44-.02 2.71-.33 3.81-.91s1.64-1.65 1.64-3.2c0-.66-.09-1.14-.26-1.46zM90.16 482.17l5.64-.05c1.2 0 2.28.02 3.25.07 2.61.07 4.6.69 5.97 1.85s2.05 2.79 2.05 4.9c0 1.46-.43 2.72-1.28 3.75s-2.1 1.95-3.74 2.73c2.6.82 4.18 2.81 4.73 5.98.13.69.23 1.48.31 2.37s.14 1.49.18 1.79l.18.9c.19 1.05.35 1.82.49 2.29l-.07.05c-1.99.13-3.81.19-5.46.19s-3.1-.03-4.37-.09h-.11c-.36 0-.75-1.73-1.16-5.19l-.09-.76c-.05-1.29-.27-2.16-.68-2.6s-1.1-.67-2.1-.67l-.23.02h-.93v5.34l.02.56v3.22c-.04.12-.12.19-.26.21-1.29.05-3.11.07-5.46.07s-3.9 0-4.65.02l-.11-.04-.04.02s-.06-.02-.11-.05l.04-1.58-.02-.53.07-7.29v-1.28l.02-1.32.02-4.55.02-.6-.05-3.99.07-5.61c0-.09.33-.14 1-.14l1.12.02h1.07l2.23.02 2.43-.04zm6.5 5.73c-.7-.3-1.64-.46-2.81-.46h-1.02c-.13.19-.19 1.17-.19 2.96s.03 2.99.09 3.59c3.67-.08 5.5-1.35 5.5-3.8 0-1.04-.52-1.81-1.56-2.3zm11.29 20.85v.02s-.02 0-.02-.02h.02zm.09-.05-.09.05v-.04s.03-.02.09-.02zM109.77 486.84l-.09-4.62.12.05c8.91-.15 15.62-.23 20.13-.25.05.02.08.06.11.11v4.96c0 .48-.01.87-.04 1.18-.06.19-.4.28-1.04.28h-.12c-2.84 0-5.79-.05-8.86-.14 0 .11-.01.29-.04.56s-.05.46-.06.58l-.09.67c-.06.45-.1 1.22-.12 2.32l5.45-.12c.94-.02 1.62-.04 2.04-.04h.28c.71 0 1.18.02 1.41.06s.33.16.33.36l-.02.14v.42l.09 4.52-.02.02v-.02c-3.56.18-6.41.26-8.54.26h-.83v4.25l9.54-.3c.53 0 .86.08 1 .23-.01.3-.02.74-.02 1.3l.12 4.78c0 .29-.13.46-.39.51l-5.84-.05c-1.15 0-3.43.04-6.86.12l-2.88.07c-2.04.07-3.55.11-4.54.11l-.05-.04h.02l-.33-.33v-.62l.11-18.79.02-2.55zm4.97-11.16-.28.02h-.86l-.26-.51 2.95-5.03c.5-.74.79-1.15.86-1.23h1.23l7.35.18v.05c-.47.54-1.24 1.4-2.3 2.59s-1.85 2.07-2.36 2.65-.94.92-1.31 1.04-.97.18-1.8.19l-3.22.05zM149.5 509.04l-2.21-.05h-1.32c-.38.05-1.19.07-2.43.07s-3.1.03-5.56.09c-.46-.41-.88-1.6-1.28-3.56s-.91-3.98-1.52-6.05-1-3.37-1.15-3.91l-.53-1.86c-.15-.54-.42-1.46-.79-2.76-1.18-4.02-1.96-6.94-2.34-8.77 0-.09 3.43-.14 10.3-.14.21 0 .38.08.49.23.93 5.5 1.97 11.48 3.13 17.96l.14.93h.7l.16-.91c.36-2.29 1.05-5.97 2.07-11.06l.42-1.99c.14-.67.46-2.33.97-4.99.54-.14 3.52-.21 8.95-.21h.79c.14.08.23.16.26.23l-3.53 12.78c-.26.93-.41 1.52-.46 1.78l-.83 3.23c-1.32 5.64-2.27 8.64-2.85 9-.32 0-.81-.01-1.49-.04h-.09zM160.07 486.84l-.09-4.62.12.05c8.91-.15 15.62-.23 20.13-.25.05.02.08.06.11.11v4.96c0 .48-.01.87-.04 1.18-.06.19-.4.28-1.04.28h-.12c-2.84 0-5.79-.05-8.86-.14 0 .11-.01.29-.04.56s-.05.46-.06.58l-.09.67c-.06.45-.1 1.22-.12 2.32l5.45-.12c.94-.02 1.62-.04 2.04-.04h.28c.71 0 1.18.02 1.41.06s.33.16.33.36l-.02.14v.42l.09 4.52-.02.02v-.02c-3.56.18-6.41.26-8.54.26h-.83v4.25l9.54-.3c.53 0 .86.08 1 .23-.01.3-.02.74-.02 1.3l.12 4.78c0 .29-.13.46-.39.51l-5.84-.05c-1.15 0-3.43.04-6.86.12l-2.88.07c-2.04.07-3.55.11-4.54.11l-.05-.04h.02l-.33-.33v-.62l.11-18.79.02-2.55zM209.62 496.3l-.02 1.18v6.5l.04 3.09v.88l.02.83c-.07.09-.36.14-.86.14h-.46l-5.52.07c-2.34 0-4.09 0-5.24-.02-.18-.19-.81-1.89-1.92-5.12l-3.36-8.91-.63.09-.02 1.79v4.76l.07 4.76v1.97c0 .53-.12.8-.35.83-1.16-.04-2.27-.05-3.32-.05h-.54l-2.65.07h-.35l-1.27.04-.05-.04c-.39-.36-.58-.63-.58-.79v-.32l.02-.35.09-6.86c0-7.52.07-13.21.21-17.07l.04-1.46c0-.11 4.04-.2 12.11-.28.07.05.18.3.32.77v-.05l.11.35c.87 2.48 1.92 5.33 3.16 8.55s1.88 4.86 1.9 4.93l.6-.04.07-14.33c0-.09.86-.14 2.57-.14l4.41.09h1.3c.08 3.88.12 8.58.12 14.12zM234.88 488.65c0 .39-.04.58-.12.58l-6.36-.05c-.02 1.14-.04 2.91-.04 5.33s0 4.09.02 5.03l.07 9.32c-.06.16-.18.25-.35.26l-3.71-.05-.02.02-1.16-.02h-3.22c-.87 0-1.52 0-1.95.02l-.3-.26-.23-.28c0-1.03.04-3.32.12-6.87l.19-9.35-.04-.44c-.08-1.16-.16-1.85-.24-2.07s-.23-.33-.45-.35-.39-.03-.49-.03l-.7.04-4.36-.07c-.15-.3-.23-.99-.23-2.06l.04-1.55v-.47c-.01-1.88-.03-2.88-.05-3.01.02 0 .07.01.14.04l22.38-.19c.46 0 .74.03.86.1s.18.18.18.36v4.64l.02 1.41zM236.55 486.84l-.09-4.62.12.05c8.91-.15 15.62-.23 20.13-.25.05.02.08.06.11.11v4.96c0 .48-.01.87-.04 1.18-.06.19-.4.28-1.04.28h-.12c-2.84 0-5.79-.05-8.86-.14 0 .11-.01.29-.04.56s-.05.46-.06.58l-.09.67c-.06.45-.1 1.22-.12 2.32l5.45-.12c.94-.02 1.62-.04 2.04-.04h.28c.71 0 1.18.02 1.41.06s.33.16.33.36l-.02.14v.42l.09 4.52-.02.02v-.02c-3.56.18-6.41.26-8.54.26h-.83v4.25l9.54-.3c.53 0 .86.08 1 .23-.01.3-.02.74-.02 1.3l.12 4.78c0 .29-.13.46-.39.51l-5.84-.05c-1.15 0-3.43.04-6.86.12l-2.88.07c-2.04.07-3.55.11-4.54.11l-.05-.04h.02l-.33-.33v-.62l.11-18.79.02-2.55zM60.68 564.6H49.72v-21.43l.12-7.57h-.96l-11.77 13.2v5.25l-3.91-4.64h32.57v8.96H25.39v-10.61l18.15-20.21h17.14v37.06zM86.81 565.65c-3.38 0-6.47-.29-9.27-.87-2.79-.58-4.92-1.15-6.37-1.71l-1.19-9.83c1.24.46 2.72.93 4.44 1.39 1.72.46 3.58.86 5.58 1.17 2 .32 4.04.48 6.1.48 2.47 0 4.35-.19 5.61-.58 1.27-.39 2.12-.89 2.55-1.51.44-.62.65-1.28.65-1.97v-.2c0-1.12-.46-2.01-1.39-2.65-.93-.65-2.46-.97-4.61-.97s-3.9.26-5.36.78c-1.47.52-2.67 1.17-3.6 1.94l-9.77-1.97v-21.6h34.83v9.13H80.97l.06 4.99-.09 4.44h.29c.77-1.76 2.14-3.21 4.09-4.36s4.71-1.73 8.27-1.73c4.39 0 7.67 1.03 9.83 3.1 2.17 2.07 3.25 4.98 3.25 8.73v.46c0 2.49-.59 4.75-1.78 6.77s-3.22 3.62-6.1 4.8c-2.88 1.18-6.87 1.77-11.98 1.77zM116.71 572.29h-10.85l29.03-46.81h10.79l-28.97 46.81zM178.54 564.6h-10.96v-21.43l.12-7.57h-.96l-11.77 13.2v5.25l-3.91-4.64h32.57v8.96h-40.37v-10.61l18.15-20.21h17.14v37.06zM207.97 565.91c-6.65 0-11.72-1.67-15.2-5.02s-5.22-8.22-5.22-14.62v-.41c0-6.36 1.73-11.21 5.19-14.56 3.46-3.34 8.54-5.02 15.23-5.02s11.76 1.67 15.23 5.02c3.46 3.34 5.19 8.2 5.19 14.56v.41c0 6.4-1.73 11.27-5.19 14.62-3.46 3.34-8.54 5.02-15.23 5.02zm0-9.57c2.88 0 4.99-.87 6.34-2.6s2.02-4.2 2.02-7.41v-.46c0-3.23-.67-5.7-2.02-7.42s-3.46-2.58-6.34-2.58-4.99.87-6.34 2.61c-1.34 1.74-2.02 4.21-2.02 7.39v.46c0 3.21.68 5.68 2.04 7.41 1.36 1.73 3.47 2.6 6.31 2.6zM279.51 544.53h-33.58l.55-5.63h33.58l-.55 5.63zm0 8.47h-33.58l.55-5.63h33.58l-.55 5.63zm-6.44 12.9c-7.87 0-13.65-1.73-17.36-5.21-3.7-3.47-5.55-8.31-5.55-14.51v-.46c0-6.07 1.84-10.83 5.51-14.28 3.67-3.45 9.47-5.18 17.4-5.18 2.24 0 4.31.2 6.21.59 1.89.4 3.45.85 4.67 1.35l.99 9.66c-1.35-.58-2.92-1.04-4.71-1.39-1.79-.35-3.77-.52-5.93-.52-4.21 0-7.22.87-9.02 2.61-1.8 1.74-2.7 4.11-2.7 7.11v.46c0 3.04.92 5.44 2.77 7.21 1.85 1.77 5.04 2.65 9.58 2.65 2.07 0 4-.19 5.8-.57 1.8-.38 3.25-.83 4.35-1.35l-.99 10.03c-.93.35-2.36.73-4.29 1.16-1.93.42-4.18.64-6.73.64z"/></g><path class="cls-7" d="M315.13 415.99h311.19v199.63H315.13z"/><path class="cls-3" d="M1.32 618.85h311.19v199.63H1.32z"/><path style="fill:#59c2e4" d="M314.83 618.85h311.19v199.63H314.83z"/><g><path class="cls-2" d="M449.7 451.68h-15.5v-2.12h15.5v2.12zm-6.44 12.87h-2.62v-14.16h2.62v14.16zM451.19 464.54h-2.71l6.93-14.99h3.94l6.89 14.99h-2.71l-5.96-13.35h-.38l-6.01 13.35zm10.99-4.15h-9.64v-2.11h9.64v2.11zM471.53 464.54h-2.57v-14.99h2.57v14.99zm12.55 0h-2.78l-.5-2.44c-.13-.67-.31-1.24-.54-1.7-.23-.46-.57-.8-1.03-1.04-.46-.23-1.11-.35-1.96-.35h-6.55v-2.03h7.07c1.14-.01 1.98-.26 2.51-.75.53-.49.8-1.13.8-1.93v-.13c0-.79-.26-1.41-.77-1.87-.51-.45-1.34-.68-2.48-.68h-7.13v-2.09h7.44c1.93 0 3.35.37 4.25 1.11.9.74 1.35 1.78 1.35 3.11v.17c0 1.03-.27 1.85-.8 2.45-.54.6-1.37.98-2.52 1.14v.32l-1.33-.39c1.02.05 1.8.24 2.36.57.56.33.98.8 1.27 1.4s.52 1.33.7 2.19l.63 2.93zM490.08 449.55v14.99h-2.62v-14.99h2.62zM497.03 464.54h-2.58v-14.99h2.58v14.99zm10.52-12.87h-12.97v-2.12h12.97v2.12zm-.23 7.03h-11.53v-2.12h11.53v2.12zM360.77 501.28l9.3-.16c.23 0 .43.2.59.6s.31.71.47.95c.36.56.96.84 1.8.84s1.51-.2 2.03-.59.77-.9.77-1.52-.16-1.05-.47-1.27-.66-.45-1.04-.67-.93-.38-1.66-.5-1.13-.19-1.2-.21h.04l-1-.26c-.64-.12-1.18-.25-1.62-.39-2.8-.75-4.83-1.69-6.07-2.83s-1.87-2.67-1.87-4.59c0-1.39.26-2.65.77-3.76s1.19-2.02 2.02-2.72c2.4-2.03 5.72-3.04 9.95-3.04 3.36 0 6.01.61 7.93 1.83h-.02c1.23.89 2.07 1.77 2.53 2.63s.74 1.92.86 3.19l-.46.46c-3.08.12-5.81.18-8.19.18-.71 0-1.14-.21-1.28-.63-.06-.18-.12-.35-.19-.53-.16-.42-.69-.63-1.58-.63h-.07c-.69 0-1.28.16-1.78.48s-.74.64-.75.94.06.56.19.76.28.36.43.47.39.24.7.36.55.21.71.25.41.11.75.2l.62.16c.25.07.96.25 2.15.53s2.18.55 2.98.81v-.02c2.5.84 4.2 1.9 5.11 3.16s1.36 2.73 1.36 4.4c0 4.46-2.67 7.36-8 8.68-1.55.39-3.2.66-4.96.83-2.16 0-4.29-.32-6.4-.95s-3.52-1.66-4.24-3.09c-.48-.69-.8-1.33-.97-1.91s-.3-1.39-.4-2.43c.04.01.09.02.16.02zM412.94 494.92l-.05 4.94c0 1.51-.24 2.85-.73 4.01s-1.13 2.1-1.92 2.81c-2.17 1.97-5.37 2.95-9.62 2.95s-7.54-1.03-9.9-3.09c-.83-.71-1.53-1.64-2.1-2.79s-.91-2.43-1.03-3.88c.06-4.9.09-9.43.09-13.59-.06 0-.09-.62-.09-1.85s.05-1.99.16-2.29h.37c1.72-.09 4.07-.14 7.05-.14.21.05.59.08 1.15.09s.94.03 1.15.05l.54.07c.08 2.32.13 5.51.16 9.58l-.11 7.07c0 2.34.68 3.52 2.04 3.52.57 0 1.06-.25 1.45-.76s.6-1.07.62-1.71l.07-.18.05-5.92.02-.53c0-2.72-.04-5.34-.11-7.88l-.04-1.28c-.02-.52-.04-.98-.04-1.39s.06-.69.19-.84c4.52 0 7.93.02 10.23.05.08.08.19.16.32.23h-.02l.19.12c-.09 2.21-.14 5.06-.14 8.54v3.02l.02 1.04zM423.98 482.11l5.64-.05c1.2 0 2.28.02 3.25.07 2.61.07 4.6.69 5.97 1.85s2.05 2.79 2.05 4.9c0 1.46-.43 2.72-1.28 3.75s-2.1 1.95-3.74 2.73c2.6.82 4.18 2.81 4.73 5.98.13.69.23 1.48.31 2.37s.14 1.49.18 1.79l.18.9c.19 1.05.35 1.82.49 2.29l-.07.05c-1.99.13-3.81.19-5.46.19s-3.1-.03-4.37-.09h-.11c-.36 0-.75-1.73-1.16-5.19l-.09-.76c-.05-1.29-.27-2.16-.68-2.6s-1.1-.67-2.1-.67l-.23.02h-.93v5.34l.02.56v3.22c-.04.12-.12.19-.26.21-1.29.05-3.11.07-5.46.07s-3.9 0-4.65.02l-.11-.04-.04.02s-.06-.02-.11-.05l.04-1.58-.02-.53.07-7.29v-1.28l.02-1.32.02-4.55.02-.6-.05-3.99.07-5.61c0-.09.33-.14 1-.14l1.12.02h1.07l2.23.02 2.43-.04zm6.5 5.73c-.7-.3-1.64-.46-2.81-.46h-1.02c-.13.19-.19 1.17-.19 2.96s.03 2.99.09 3.59c3.67-.08 5.5-1.35 5.5-3.8 0-1.04-.52-1.81-1.56-2.3zm11.29 20.85v.02s-.02 0-.02-.02h.02zm.09-.05-.09.05v-.04s.03-.02.09-.02zM456.24 496.92l.04-7.22v-7.33s.13-.02.33-.02h.65c.25 0 .43-.01.56-.04l2.18-.09c.56-.02 1-.04 1.3-.04h2.79l5.17-.12c.7 0 1.48.03 2.32.09h.12c.4-.02.65-.04.76-.04 2.34 0 4.35.74 6.01 2.23.81.71 1.45 1.63 1.92 2.76s.7 2.29.7 3.49-.12 2.22-.37 3.07-.56 1.56-.95 2.14c-1.55 2.37-4.54 3.75-8.98 4.15l-3.8.16c-.12 2.81-.18 5-.18 6.56l.02.54v1.42c-.05.16-.13.28-.26.33l-10.04.16c-.2-.56-.3-1.46-.3-2.71v-9.51zm15.38-7.54c-.47-1.23-1.71-1.89-3.73-1.97-.29-.01-.7-.02-1.21-.02-.14 0-.23 1.73-.26 5.19l-.04 1.32.05 1.05c1.44-.02 2.71-.33 3.81-.91s1.64-1.65 1.64-3.2c0-.66-.09-1.14-.26-1.46zM503.35 501.79c-.08.33-.12.68-.12 1.05v.4c0 .62.04 1.07.12 1.34 0 1.77 0 3.13-.02 4.1-.07.3-5.85.46-17.35.46a113 113 0 0 1-2.62-.04c-.19-.35-.28-.93-.28-1.74l.04-1.14v-3.99l.02-3.34v-3.3l.02-5.33c0-.98-.01-1.91-.04-2.78v-.19l-.05-2.53c0-1.49.12-2.46.37-2.9.23.01.56.02.97.02h.84l2.95-.04c3.36 0 5.21.21 5.55.63l-.14 6.13-.05 5.15-.02.21-.07 7.31.7.4c2.12-.13 4.17-.19 6.16-.19s2.99.1 3.01.3z"/><path class="cls-2" d="M533.09 508.74c-.01.15-.33.23-.97.23h-1.62l-1.09.02h-1.07l-1.71.02c-1.7 0-3.11-.04-4.24-.12-.04-.01-.08-.08-.12-.21l-.09-.37c-.11-1.21-.38-2.37-.83-3.5l-7.52.07c-.05.2-.2.79-.46 1.78s-.45 1.73-.58 2.23c-.12.12-.67.18-1.67.18l-.44-.02h-1.02l-4.57.11h-.53l-.49.02h-1.23c-.08-.08-.17-.19-.26-.32 1.17-4.05 2.76-9.08 4.76-15.08l.4-1.25h-.02l.47-1.46c.15-.47.59-1.77 1.31-3.9s1.17-3.51 1.35-4.13.29-.94.33-.97h2.92l6.24-.09 1.69.09 1.39-.09c.7 0 1.05.14 1.05.42 1.17 3.27 2.74 7.97 4.69 14.12s3.06 9.59 3.3 10.35l.25.88c.08.32.2.65.35 1zm-17.4-9.6.72.02 4.2-.02c-.18-1.39-.31-2.42-.4-3.08l-.67-3.01c-.7-3.11-1.07-4.69-1.09-4.75s-.04-.11-.06-.17-.03-.09-.04-.11-.03-.05-.04-.1-.04-.08-.05-.1-.04-.04-.06-.08c-.08-.14-.25-.26-.51-.37-.32.07-1.26 3.6-2.83 10.58l-.19 1.16h1.04zM532.93 494.53c.28-2.67.75-4.68 1.41-6.03 1.25-2.6 3.12-4.45 5.61-5.54 2.21-.97 4.62-1.46 7.22-1.46 4.36 0 7.54 1.2 9.54 3.59 1.21 1.42 1.9 3.18 2.09 5.29l.16 1.65c-.2.19-1.46.28-3.78.28l-2.79-.04h-.23l-1.53-.04-.42.02h-.35c-.33 0-.58-.48-.75-1.44s-.43-1.6-.77-1.91-.75-.47-1.2-.47-.86.08-1.2.25-.63.36-.85.59-.41.55-.56.98c-.28.73-.45 1.5-.51 2.31s-.09 1.73-.09 2.73v.42l-.07 1.78c0 3.23.91 4.89 2.74 4.96.47 0 .8-.08.98-.25.5-.45.94-1.34 1.32-2.69.08-.28.18-.51.3-.69h.67l.81.02h2.85l.86-.02 1.67.02h1.02l1.04.02h.7c.14.01.24.13.3.37l-.05.58c-.11 1.38-.43 2.64-.97 3.76-1 2.06-2.56 3.59-4.7 4.6s-4.49 1.5-7.04 1.5c-4.46 0-7.82-1.32-10.05-3.96s-3.36-6.37-3.36-11.2zM561.42 486.78l-.09-4.62.12.05c8.91-.15 15.62-.23 20.13-.25.05.02.08.06.11.11v4.96c0 .48-.01.87-.04 1.18-.06.19-.4.28-1.04.28h-.12c-2.84 0-5.79-.05-8.86-.14 0 .11-.01.29-.04.56s-.05.46-.06.58l-.09.67c-.06.45-.1 1.22-.12 2.32l5.45-.12c.94-.02 1.62-.04 2.04-.04h.28c.71 0 1.18.02 1.41.06s.33.16.33.36l-.02.14v.42l.09 4.52-.02.02v-.02c-3.56.18-6.41.26-8.54.26h-.83v4.25l9.54-.3c.53 0 .86.08 1 .23-.01.3-.02.74-.02 1.3l.12 4.78c0 .29-.13.46-.39.51l-5.84-.05c-1.15 0-3.43.04-6.86.12l-2.88.07c-2.04.07-3.55.11-4.54.11l-.05-.04h.02l-.33-.33v-.62l.11-18.79.02-2.55zM358.96 565.59c-3.38 0-6.47-.29-9.26-.87-2.79-.58-4.92-1.15-6.37-1.71l-1.19-9.83c1.24.46 2.72.93 4.44 1.39 1.72.46 3.58.86 5.58 1.17 2 .32 4.04.48 6.1.48 2.47 0 4.34-.19 5.61-.58 1.27-.39 2.12-.89 2.55-1.51.44-.62.65-1.28.65-1.97v-.2c0-1.12-.46-2.01-1.39-2.65s-2.46-.97-4.61-.97-3.9.26-5.36.78c-1.47.52-2.67 1.17-3.6 1.94l-9.77-1.97v-21.6h34.83v9.13h-24.04l.06 4.99-.09 4.44h.29c.77-1.76 2.14-3.21 4.09-4.36 1.95-1.15 4.71-1.73 8.26-1.73 4.39 0 7.67 1.03 9.83 3.1 2.17 2.07 3.25 4.98 3.25 8.73v.46c0 2.49-.59 4.75-1.78 6.77-1.19 2.02-3.22 3.62-6.1 4.8-2.88 1.18-6.87 1.77-11.98 1.77zM400.98 565.59c-3.38 0-6.47-.29-9.26-.87-2.79-.58-4.92-1.15-6.37-1.71l-1.19-9.83c1.24.46 2.72.93 4.44 1.39 1.72.46 3.58.86 5.58 1.17 2 .32 4.04.48 6.1.48 2.47 0 4.34-.19 5.61-.58 1.27-.39 2.12-.89 2.55-1.51.44-.62.65-1.28.65-1.97v-.2c0-1.12-.46-2.01-1.39-2.65s-2.46-.97-4.61-.97-3.9.26-5.36.78c-1.47.52-2.67 1.17-3.6 1.94l-9.77-1.97v-21.6h34.83v9.13h-24.04l.06 4.99-.09 4.44h.29c.77-1.76 2.14-3.21 4.09-4.36 1.95-1.15 4.71-1.73 8.26-1.73 4.39 0 7.67 1.03 9.83 3.1 2.17 2.07 3.25 4.98 3.25 8.73v.46c0 2.49-.59 4.75-1.78 6.77-1.19 2.02-3.22 3.62-6.1 4.8-2.88 1.18-6.87 1.77-11.98 1.77zM430.88 572.23h-10.85l29.03-46.81h10.79l-28.97 46.81zM478.81 565.59c-3.38 0-6.47-.29-9.27-.87s-4.92-1.15-6.37-1.71l-1.19-9.83c1.24.46 2.72.93 4.44 1.39 1.72.46 3.58.86 5.58 1.17 2 .32 4.04.48 6.1.48 2.47 0 4.35-.19 5.61-.58 1.27-.39 2.12-.89 2.55-1.51.43-.62.65-1.28.65-1.97v-.2c0-1.12-.46-2.01-1.39-2.65-.93-.65-2.46-.97-4.61-.97s-3.9.26-5.37.78c-1.47.52-2.67 1.17-3.6 1.94l-9.77-1.97v-21.6H497v9.13h-24.04l.06 4.99-.09 4.44h.29c.77-1.76 2.14-3.21 4.09-4.36 1.95-1.15 4.71-1.73 8.27-1.73 4.39 0 7.67 1.03 9.83 3.1 2.17 2.07 3.25 4.98 3.25 8.73v.46c0 2.49-.59 4.75-1.78 6.77-1.19 2.02-3.22 3.62-6.1 4.8-2.88 1.18-6.87 1.77-11.98 1.77zM523.62 565.85c-6.65 0-11.72-1.67-15.2-5.02-3.48-3.34-5.22-8.22-5.22-14.62v-.41c0-6.36 1.73-11.21 5.19-14.56 3.46-3.34 8.54-5.02 15.22-5.02s11.76 1.67 15.23 5.02c3.46 3.34 5.19 8.2 5.19 14.56v.41c0 6.4-1.73 11.27-5.19 14.62-3.46 3.34-8.54 5.02-15.23 5.02zm0-9.57c2.88 0 4.99-.87 6.34-2.6s2.02-4.2 2.02-7.41v-.46c0-3.23-.67-5.7-2.02-7.42s-3.46-2.58-6.34-2.58-4.99.87-6.34 2.61c-1.34 1.74-2.02 4.21-2.02 7.39v.46c0 3.21.68 5.68 2.04 7.41 1.36 1.73 3.47 2.6 6.31 2.6zM595.16 544.47h-33.58l.55-5.63h33.58l-.55 5.63zm0 8.47h-33.58l.55-5.63h33.58l-.55 5.63zm-6.44 12.9c-7.87 0-13.66-1.73-17.36-5.21-3.7-3.47-5.55-8.31-5.55-14.51v-.46c0-6.07 1.84-10.83 5.51-14.28 3.67-3.45 9.47-5.18 17.4-5.18 2.24 0 4.31.2 6.21.59 1.89.4 3.45.85 4.67 1.35l.99 9.66c-1.35-.58-2.92-1.04-4.71-1.39-1.79-.35-3.77-.52-5.93-.52-4.21 0-7.22.87-9.02 2.61-1.8 1.74-2.7 4.11-2.7 7.11v.46c0 3.04.92 5.44 2.77 7.21 1.85 1.77 5.04 2.65 9.58 2.65 2.07 0 4-.19 5.8-.57 1.8-.38 3.25-.83 4.35-1.35l-.99 10.03c-.93.35-2.36.73-4.29 1.16-1.93.42-4.18.64-6.73.64z"/></g><path class="cls-5" d="m461.49 760.58-32.29-32.29 50.81-50.81 32.29 32.29-50.81 50.81zm66.41-62.75-9.38-9.38c-.89.49-1.85.87-2.86 1.16s-2.09.43-3.23.43c-3.49 0-6.46-1.24-8.9-3.72-2.44-2.48-3.66-5.46-3.66-8.96 0-1.14.12-2.21.37-3.23s.61-1.97 1.1-2.86l-9.38-9.38c-1.22-1.22-2.7-1.83-4.45-1.83s-3.27.61-4.57 1.83l-68.6 68.72c-1.22 1.22-1.83 2.7-1.83 4.45s.61 3.23 1.83 4.45l9.38 9.38c.89-.49 1.85-.85 2.86-1.1 1.02-.24 2.09-.37 3.23-.37 3.49 0 6.46 1.22 8.9 3.66 2.44 2.44 3.66 5.4 3.66 8.9 0 1.14-.12 2.21-.37 3.23a11.23 11.23 0 0 1-1.1 2.86l9.38 9.38c1.22 1.22 2.7 1.83 4.45 1.83s3.27-.61 4.57-1.83l68.6-68.6c1.22-1.22 1.83-2.72 1.83-4.51s-.61-3.29-1.83-4.51zm-88.59 30.46 22.18 22.18 40.7-40.7-22.18-22.18-40.7 40.7z"/><g><path class="cls-5" d="M63.94 660.15H44.16v-2.71h19.78v2.71zm-8.22 16.42h-3.34V658.5h3.34v18.07zM65.84 676.58h-3.46l8.85-19.13h5.03l8.79 19.13h-3.46l-7.6-17.04h-.48l-7.67 17.04zm14.03-5.3H67.56v-2.69h12.31v2.69zM91.8 676.58h-3.28v-19.13h3.28v19.13zm16.02 0h-3.55l-.64-3.11c-.17-.86-.4-1.58-.69-2.16s-.73-1.03-1.32-1.33c-.59-.3-1.42-.45-2.5-.45l-8.35-.02v-2.58h9.03c1.46-.01 2.52-.33 3.2-.95.68-.62 1.02-1.44 1.02-2.46v-.16c0-1.01-.33-1.8-.98-2.38s-1.71-.87-3.17-.87h-9.1v-2.67h9.49c2.46 0 4.27.47 5.42 1.42 1.15.95 1.72 2.27 1.72 3.97v.21c0 1.32-.34 2.36-1.03 3.13s-1.75 1.25-3.21 1.45v.4l-1.69-.49c1.3.06 2.3.3 3.02.73a4.11 4.11 0 0 1 1.62 1.78c.37.76.67 1.69.9 2.79l.81 3.74zM115.48 657.44v19.13h-3.34v-19.13h3.34zM124.34 676.58h-3.29v-19.13h3.29v19.13zm13.43-16.42h-16.56v-2.71h16.56v2.71zm-.3 8.97h-14.72v-2.71h14.72v2.71zM155.15 676.58h-6.03v-19.13h6.03v19.13zm4.69 0h-6.23v-4.91h6.09c1.58 0 2.76-.41 3.56-1.23s1.19-1.93 1.19-3.32v-.25c0-1.4-.4-2.5-1.19-3.3-.79-.8-1.98-1.21-3.56-1.21h-6.09v-4.91h6.23c3.57 0 6.28.81 8.11 2.43 1.84 1.62 2.75 3.94 2.75 6.95v.27c0 3.04-.92 5.38-2.75 7.02s-4.54 2.46-8.11 2.46zM179.96 657.44v19.13h-6.08v-19.13h6.08zM192.7 677.12c-1.19 0-2.32-.08-3.4-.22-1.08-.15-2.07-.34-2.99-.57-.91-.23-1.72-.46-2.43-.7l-.64-5.4c1.19.48 2.61.93 4.27 1.34 1.66.41 3.38.62 5.14.62 1.52 0 2.56-.1 3.12-.29s.85-.54.85-1.04v-.06c0-.35-.14-.62-.41-.81-.27-.19-.75-.34-1.44-.46-.68-.12-1.63-.24-2.85-.37-1.99-.23-3.64-.55-4.96-.97-1.32-.42-2.31-1.04-2.96-1.86s-.98-1.94-.98-3.35v-.11c0-2 .79-3.49 2.36-4.47 1.57-.98 3.9-1.47 6.98-1.47 1.94 0 3.61.14 5.01.43s2.63.63 3.69 1.04l.67 4.94c-1.27-.51-2.65-.91-4.15-1.2-1.5-.29-3.03-.43-4.61-.43-1.06 0-1.86.05-2.4.15s-.91.24-1.09.42-.28.4-.28.66c0 .3.11.54.33.73.22.19.66.35 1.33.49.66.14 1.65.28 2.96.42 1.95.2 3.59.49 4.94.87 1.35.38 2.37.96 3.06 1.75s1.04 1.9 1.04 3.34v.17c0 2.23-.83 3.85-2.48 4.89-1.65 1.03-4.21 1.55-7.67 1.55zM211.86 676.58h-5.93v-19.13h5.91v10.64l.02 2.53v5.96zm5.4-5.17h-6.95v-4.61h6.65c1.04 0 1.8-.18 2.3-.55.49-.37.74-.94.74-1.72v-.19c0-.78-.25-1.35-.74-1.72-.49-.37-1.26-.55-2.3-.55h-6.65v-4.61h6.95c3.01 0 5.24.6 6.67 1.79s2.15 2.9 2.15 5.11v.2c0 2.17-.72 3.85-2.15 5.06-1.43 1.21-3.66 1.81-6.67 1.81zM239.96 677.25c-3.85 0-6.77-.89-8.77-2.66s-2.99-4.26-2.99-7.48v-.21c0-3.21 1-5.71 2.99-7.48 1.99-1.77 4.91-2.66 8.77-2.66s6.77.89 8.77 2.66c1.99 1.77 2.99 4.26 2.99 7.48v.21c0 3.21-1 5.71-2.99 7.48s-4.91 2.66-8.77 2.66zm0-4.91c1.78 0 3.13-.46 4.05-1.38.92-.92 1.38-2.2 1.38-3.83v-.24c0-1.63-.46-2.9-1.38-3.82-.92-.92-2.27-1.38-4.05-1.38s-3.14.46-4.06 1.38c-.92.92-1.38 2.2-1.38 3.82v.24c0 1.63.46 2.9 1.38 3.83.92.92 2.27 1.38 4.06 1.38zM268.29 657.44l-.63 12.64h-5.2l-.64-12.64h6.47zm-3.23 19.63c-1.09 0-1.89-.25-2.4-.74s-.76-1.17-.76-2.01v-.07c0-.86.25-1.54.76-2.04s1.31-.75 2.4-.75 1.9.25 2.41.75c.51.5.76 1.18.76 2.04v.07c0 .85-.25 1.52-.76 2.01-.51.49-1.31.74-2.41.74zM88.12 710.91l-.02.74v2.02c-.02.21-.06.32-.12.32l-12.85.35a2.63 2.63 0 0 1-.4-.42l.02-.49v-.53l.04-2.29v-.26l-.04-1.16c0-.98.06-1.48.19-1.48h3.88l1.25.02 5.34-.05h.6l.67.02h1.2c.16.18.25 1.17.25 2.97v.25zM108.62 695.79l-.04 5.17c0 3.45.03 6.41.09 8.89l.16 10.92c-.29.27-1.05.4-2.27.4l-1.51-.04h-.3l-.72.02h-.72l-1.11.02c-1.18 0-2.36-.02-3.52-.05l-.28-.44c-.12-.16-.18-.53-.18-1.11s.05-4.38.14-11.41l.07-4.82c-1.92 1.31-3.8 2.26-5.62 2.83-.08-.01-.13-.06-.14-.16v-1.86l-.02-.79c0-3.08.02-4.63.07-4.65s.22-.11.52-.27.64-.32 1.03-.47.62-.26.69-.32.17-.11.27-.16c3.01-1.44 4.85-2.68 5.52-3.73l5.41.11c1.08 0 1.88-.02 2.39-.07.04.07.05.4.05.98v1zM141.95 716.73l-.09 3.45v.35c0 .29-.13.45-.39.47l-7.24-.16c-5.04 0-10.31.12-15.8.35l-.23-.3c-.2-.14-.3-.67-.3-1.57s.01-1.89.04-2.94v-.12c.02-.96.04-1.69.04-2.2 0-.19.93-.9 2.79-2.13l3.04-2.02c2.11-1.45 3.71-2.68 4.82-3.67 1.92-1.75 2.88-3.32 2.88-4.71 0-.61-.18-1.09-.55-1.45s-.84-.54-1.42-.54-1.02.14-1.33.41-.5.58-.57.92c-.22.98-.43 1.53-.62 1.63-.36.01-.91.02-1.63.02h-5.33l-.79-.02h-.69c-.4 0-.63-.05-.69-.16.09-1.42.25-2.46.47-3.13.3-1.11.85-2.08 1.63-2.91s1.71-1.47 2.79-1.92c2.1-.87 4.45-1.3 7.07-1.3 4.11 0 7.24.93 9.39 2.78 1.61 1.36 2.41 3.16 2.41 5.4 0 2.84-1.28 5.43-3.85 7.79-1.27 1.16-2.94 2.42-5.03 3.78l-1.23 1.11 8.58-.16c.71 0 1.2.25 1.45.74s.38 1.23.38 2.21zM183.41 720.77c-.01.15-.33.23-.97.23h-1.62l-1.09.02h-1.07l-1.71.02c-1.7 0-3.11-.04-4.24-.12-.04-.01-.08-.08-.12-.21l-.09-.37c-.11-1.21-.38-2.37-.83-3.5l-7.52.07c-.05.2-.2.79-.46 1.78s-.45 1.73-.58 2.23c-.12.12-.67.18-1.67.18l-.44-.02h-1.02l-4.57.11h-.53l-.49.02h-1.23c-.08-.08-.17-.19-.26-.32 1.17-4.05 2.76-9.08 4.76-15.08l.4-1.25h-.02l.47-1.46c.15-.47.59-1.77 1.31-3.9s1.17-3.51 1.35-4.13.29-.94.33-.97h2.92l6.24-.09 1.69.09 1.39-.09c.7 0 1.05.14 1.05.42 1.17 3.27 2.74 7.97 4.69 14.12s3.06 9.59 3.3 10.35l.25.88c.08.32.2.65.35 1zm-17.4-9.6.72.02 4.2-.02c-.18-1.39-.31-2.42-.4-3.08l-.67-3.01c-.7-3.11-1.07-4.69-1.09-4.75s-.04-.11-.06-.17-.03-.09-.04-.11-.03-.05-.04-.1-.04-.08-.05-.1-.04-.04-.06-.08c-.08-.14-.25-.26-.51-.37-.32.07-1.26 3.6-2.83 10.58l-.19 1.16h1.04zM210.99 708.27l-.02 1.18v6.5l.04 3.09v.88l.02.83c-.07.09-.36.14-.86.14h-.46l-5.52.07c-2.34 0-4.09 0-5.24-.02-.18-.19-.81-1.89-1.92-5.12l-3.36-8.91-.63.09-.02 1.79v4.76l.07 4.76v1.97c0 .53-.12.8-.35.83-1.16-.04-2.27-.05-3.32-.05h-.54l-2.65.07h-.35l-1.27.04-.05-.04c-.39-.36-.58-.63-.58-.79v-.32l.02-.35.09-6.86c0-7.52.07-13.21.21-17.07l.04-1.46c0-.11 4.04-.2 12.11-.28.07.05.18.3.32.77v-.05l.11.35c.87 2.48 1.92 5.33 3.16 8.55s1.88 4.86 1.9 4.93l.6-.04.07-14.33c0-.09.86-.14 2.57-.14l4.41.09h1.3c.08 3.88.12 8.58.12 14.12zM213.84 713.32l9.3-.16c.23 0 .43.2.59.6s.31.71.47.95c.36.56.96.84 1.8.84s1.51-.2 2.03-.59.77-.9.77-1.52-.16-1.05-.47-1.27-.66-.45-1.04-.67-.93-.38-1.66-.5-1.13-.19-1.2-.21h.04l-1-.26c-.64-.12-1.18-.25-1.62-.39-2.8-.75-4.83-1.69-6.07-2.83s-1.87-2.67-1.87-4.59c0-1.39.26-2.65.77-3.76s1.19-2.02 2.02-2.72c2.4-2.03 5.72-3.04 9.95-3.04 3.36 0 6.01.61 7.93 1.83h-.02c1.23.89 2.07 1.77 2.53 2.63s.74 1.92.86 3.19l-.46.46c-3.08.12-5.81.18-8.19.18-.71 0-1.14-.21-1.28-.63-.06-.18-.12-.35-.19-.53-.16-.42-.69-.63-1.58-.63h-.07c-.69 0-1.28.16-1.78.48s-.74.64-.75.94.06.56.19.76.28.36.43.47.39.24.7.36.55.21.71.25.41.11.75.2l.62.16c.25.07.96.25 2.15.53s2.18.55 2.98.81v-.02c2.5.84 4.2 1.9 5.11 3.16s1.36 2.73 1.36 4.4c0 4.46-2.67 7.36-8 8.68-1.55.39-3.2.66-4.96.83-2.16 0-4.29-.32-6.4-.95s-3.52-1.66-4.24-3.09c-.48-.69-.8-1.33-.97-1.91s-.3-1.39-.4-2.43c.04.01.09.02.16.02zM114.51 776.58h-11.69V750.1h-.44l-9.43 3.13.26-10.12 10.67-3.6h10.61v37.06zM141.45 777.88c-6.65 0-11.72-1.67-15.2-5.02s-5.22-8.22-5.22-14.62v-.41c0-6.36 1.73-11.21 5.19-14.56 3.46-3.34 8.54-5.02 15.23-5.02s11.76 1.67 15.23 5.02c3.46 3.34 5.19 8.2 5.19 14.56v.41c0 6.4-1.73 11.27-5.19 14.62-3.46 3.34-8.54 5.02-15.23 5.02zm0-9.57c2.88 0 4.99-.87 6.34-2.6s2.02-4.2 2.02-7.41v-.46c0-3.23-.67-5.7-2.02-7.42s-3.46-2.58-6.34-2.58-4.99.87-6.34 2.61c-1.34 1.74-2.02 4.21-2.02 7.39v.46c0 3.21.68 5.68 2.04 7.41 1.36 1.73 3.47 2.6 6.31 2.6zM213 756.51h-33.58l.55-5.63h33.58l-.55 5.63zm0 8.47h-33.58l.55-5.63h33.58l-.55 5.63zm-6.44 12.9c-7.87 0-13.65-1.73-17.36-5.21-3.7-3.47-5.55-8.31-5.55-14.51v-.46c0-6.07 1.84-10.83 5.51-14.28 3.67-3.45 9.47-5.18 17.4-5.18 2.24 0 4.31.2 6.21.59 1.89.4 3.45.85 4.67 1.35l.99 9.66c-1.35-.58-2.92-1.04-4.71-1.39-1.79-.35-3.77-.52-5.93-.52-4.21 0-7.22.87-9.02 2.61-1.8 1.74-2.7 4.11-2.7 7.11v.46c0 3.04.92 5.44 2.77 7.21 1.85 1.77 5.04 2.65 9.58 2.65 2.07 0 4-.19 5.8-.57 1.8-.38 3.25-.83 4.35-1.35l-.99 10.03c-.93.35-2.36.73-4.29 1.16-1.93.42-4.18.64-6.73.64z"/></g><g><path class="cls-5" d="m79.05 892.34-.03-.67v-2.07c0-2.87.06-6.16.17-9.87l-.07-.07 1.8-.1c5.8-.31 9.57-.47 11.31-.47h15.54c5.31 0 9.73 1.1 13.24 3.3 1.25 1.07 2.26 2.5 3.04 4.3.78 1.8 1.17 3.84 1.17 6.1 0 4.38-2.94 8.11-8.81 11.17 3.31.91 5.85 2.37 7.62 4.39 1.77 2.01 2.65 4.48 2.65 7.39 0 5.16-2.31 9.07-6.94 11.74-3.4 2-7.71 3-12.91 3l-9.94-.13c-4.29 0-9.98.1-17.08.3-.62-1.31-.93-6.5-.93-15.58s.06-16.66.17-22.75zm27.92 5.6c.44-.84.67-1.87.67-3.07 0-2.33-.83-3.9-2.5-4.7-1.67-.8-3.41-1.2-5.24-1.2s-2.74.67-2.74 2c0 2.38.06 4.81.17 7.3l.07 1.77c.04.84.53 1.35 1.47 1.5l1.63-.2c3.38-.4 5.54-1.53 6.47-3.4zm-7.17 22.31c5.76 0 8.64-2.01 8.64-6.04 0-2.56-.78-4.27-2.33-5.14-1.4-.76-3.55-1.18-6.44-1.27h-.97l-.6 1.87c-.16 2.29-.23 4.54-.23 6.75s.23 3.49.7 3.82h1.23zM131.25 925.99c0-4.51.12-7.65.37-9.41 0-9.67.13-19.42.4-29.25-.07-1.4-.1-2.81-.1-4.24v-1.1c-.09-.69-.13-1.3-.13-1.83s.06-.88.17-1.03c4.76.29 8.93.43 12.51.43s6.04-.07 7.37-.2c.04.07.08.26.1.57h-.23V892l.23 27.15c0 .2.03.37.1.5v.07c.07.13.1.28.1.43l.27 9.71c-.11.25-.31.43-.6.57h-1.13l-18.68.3c-.22-.11-.51-.28-.87-.5l.03-.57.1-3.67zM198.26 916.75c-.16.62-.23 1.29-.23 2v.77c0 1.18.08 2.02.23 2.54 0 3.36-.01 5.95-.03 7.77-.13.58-11.11.87-32.92.87-1 0-2.66-.02-4.97-.07-.36-.67-.53-1.77-.53-3.3l.07-2.17v-7.57l.03-6.34v-6.27l.03-10.11c0-1.87-.02-3.62-.07-5.27v-.37l-.1-4.8c0-2.82.23-4.66.7-5.5.44.02 1.06.03 1.83.03h1.6l5.6-.07c6.38 0 9.9.4 10.54 1.2l-.27 11.64-.1 9.77-.03.4-.13 13.88 1.33.77c4.02-.25 7.92-.37 11.69-.37s5.68.19 5.72.57zM240.45 916.75c-.16.62-.23 1.29-.23 2v.77c0 1.18.08 2.02.23 2.54 0 3.36-.01 5.95-.03 7.77-.13.58-11.11.87-32.92.87-1 0-2.66-.02-4.97-.07-.36-.67-.53-1.77-.53-3.3l.07-2.17v-7.57l.03-6.34v-6.27l.03-10.11c0-1.87-.02-3.62-.07-5.27v-.37l-.1-4.8c0-2.82.23-4.66.7-5.5.44.02 1.06.03 1.83.03h1.6l5.6-.07c6.38 0 9.9.4 10.54 1.2l-.27 11.64-.1 9.77-.03.4-.13 13.88 1.33.77c4.02-.25 7.92-.37 11.69-.37s5.68.19 5.72.57zM244.09 888.27l-.17-8.77s.1.03.23.1c16.9-.29 29.63-.44 38.19-.47.09.04.16.11.2.2v9.41c0 .91-.02 1.66-.07 2.24-.11.36-.77.53-1.97.53h-.23c-5.38 0-10.99-.09-16.81-.27 0 .2-.03.56-.08 1.07-.06.51-.1.88-.12 1.1l-.17 1.27c-.11.84-.19 2.31-.23 4.4l10.34-.23c1.78-.04 3.07-.07 3.87-.07h.53c1.36 0 2.25.04 2.67.12.42.08.63.31.63.68l-.03.27v.8l.17 8.57-.03.03v-.03c-6.76.33-12.16.5-16.21.5h-1.57v8.07l18.11-.57c1 0 1.63.14 1.9.43-.02.58-.03 1.4-.03 2.47l.23 9.07c0 .56-.25.88-.73.97l-11.07-.1c-2.18 0-6.52.08-13.01.23l-5.47.13c-3.87.13-6.74.2-8.61.2l-.1-.07h.03l-.63-.63v-1.17l.2-35.66.03-4.84zM328.44 891.7c0 .73-.08 1.1-.23 1.1l-12.07-.1c-.04 2.16-.07 5.53-.07 10.11s.01 7.76.03 9.54l.13 17.68c-.11.31-.33.48-.67.5l-7.04-.1-.03.03-2.2-.03h-6.1c-1.65 0-2.88.01-3.7.03l-.57-.5s-.17-.2-.43-.53c0-1.96.08-6.3.23-13.04l.37-17.75-.07-.83c-.16-2.2-.31-3.51-.45-3.92-.15-.41-.43-.63-.85-.67-.42-.03-.73-.05-.93-.05l-1.33.07-8.27-.13c-.29-.58-.43-1.88-.43-3.9l.07-2.93v-.9c-.02-3.56-.06-5.46-.1-5.7.04 0 .13.02.27.07l42.46-.37c.87 0 1.41.06 1.63.18s.33.35.33.68v8.81l.03 2.67z"/><path class="cls-5" d="M372.4 891.7c0 .73-.08 1.1-.23 1.1l-12.07-.1c-.04 2.16-.07 5.53-.07 10.11s.01 7.76.03 9.54l.13 17.68c-.11.31-.33.48-.67.5l-7.04-.1-.03.03-2.2-.03h-6.1c-1.65 0-2.88.01-3.7.03l-.57-.5s-.17-.2-.43-.53c0-1.96.08-6.3.23-13.04l.37-17.75-.07-.83c-.16-2.2-.31-3.51-.45-3.92-.15-.41-.43-.63-.85-.67-.42-.03-.73-.05-.93-.05l-1.33.07-8.27-.13c-.29-.58-.43-1.88-.43-3.9l.07-2.93v-.9c-.02-3.56-.05-5.46-.1-5.7.04 0 .13.02.27.07l42.46-.37c.87 0 1.41.06 1.63.18.22.12.33.35.33.68v8.81l.03 2.67zM375.57 888.27l-.17-8.77s.1.03.23.1c16.9-.29 29.63-.44 38.19-.47.09.04.16.11.2.2v9.41c0 .91-.02 1.66-.07 2.24-.11.36-.77.53-1.97.53h-.23c-5.38 0-10.99-.09-16.81-.27 0 .2-.03.56-.08 1.07-.06.51-.1.88-.12 1.1l-.17 1.27c-.11.84-.19 2.31-.23 4.4l10.34-.23c1.78-.04 3.07-.07 3.87-.07h.53c1.36 0 2.25.04 2.67.12.42.08.63.31.63.68l-.03.27v.8l.17 8.57-.03.03v-.03c-6.76.33-12.16.5-16.21.5h-1.57v8.07l18.11-.57c1 0 1.63.14 1.9.43-.02.58-.03 1.4-.03 2.47l.23 9.07c0 .56-.25.88-.73.97l-11.07-.1c-2.18 0-6.52.08-13.01.23l-5.47.13c-3.87.13-6.74.2-8.61.2l-.1-.07h.03l-.63-.63v-1.17l.2-35.66.03-4.84zM433.98 879.39l10.71-.1c2.27 0 4.33.04 6.17.13 4.96.13 8.73 1.3 11.32 3.5s3.89 5.3 3.89 9.31c0 2.78-.81 5.15-2.44 7.12s-3.99 3.7-7.1 5.19c4.94 1.56 7.93 5.34 8.97 11.34.24 1.31.44 2.81.58 4.5.14 1.69.26 2.82.35 3.4l.33 1.7c.36 2 .67 3.45.93 4.34l-.13.1c-3.78.24-7.23.37-10.36.37s-5.89-.06-8.29-.17h-.2c-.69 0-1.42-3.28-2.2-9.84l-.17-1.43c-.09-2.45-.52-4.09-1.28-4.94-.77-.84-2.1-1.27-3.99-1.27l-.43.03h-1.77v10.14l.03 1.07v6.1c-.07.22-.23.36-.5.4-2.45.09-5.9.13-10.36.13s-7.4.01-8.82.03l-.2-.07-.07.03s-.11-.03-.2-.1l.07-3-.03-1 .13-13.84v-2.43l.03-2.5.03-8.64.03-1.13-.1-7.57.13-10.64c0-.18.63-.27 1.9-.27l2.13.03h2.03l4.24.03 4.6-.07zm12.34 10.87c-1.33-.58-3.11-.87-5.34-.87h-1.93c-.25.36-.37 2.23-.37 5.62s.06 5.67.17 6.82c6.96-.16 10.44-2.56 10.44-7.2 0-1.98-.99-3.44-2.97-4.37zm21.41 39.56v.03s-.03-.01-.03-.03h.03zm.17-.1-.17.1v-.07s.06-.03.17-.03zM470.83 925.99c0-4.51.12-7.65.37-9.41 0-9.67.13-19.42.4-29.25-.07-1.4-.1-2.81-.1-4.24v-1.1c-.09-.69-.13-1.3-.13-1.83s.06-.88.17-1.03c4.76.29 8.93.43 12.51.43s6.04-.07 7.37-.2c.04.07.08.26.1.57h-.23V892l.23 27.15c0 .2.03.37.1.5v.07c.07.13.1.28.1.43l.27 9.71c-.11.25-.31.43-.6.57h-1.13l-18.68.3c-.22-.11-.51-.28-.87-.5l.03-.57.1-3.67zM499.28 888.27l-.17-8.77s.1.03.23.1c16.9-.29 29.63-.44 38.19-.47.09.04.16.11.2.2v9.41c0 .91-.02 1.66-.07 2.24-.11.36-.77.53-1.97.53h-.23c-5.38 0-10.99-.09-16.81-.27 0 .2-.03.56-.08 1.07-.06.51-.1.88-.12 1.1l-.17 1.27c-.11.84-.19 2.31-.23 4.4l10.34-.23c1.78-.04 3.07-.07 3.87-.07h.53c1.36 0 2.25.04 2.67.12.42.08.63.31.63.68l-.03.27v.8l.17 8.57-.03.03v-.03c-6.76.33-12.16.5-16.21.5h-1.57v8.07l18.11-.57c1 0 1.63.14 1.9.43-.02.58-.03 1.4-.03 2.47l.23 9.07c0 .56-.25.88-.73.97l-11.07-.1c-2.18 0-6.52.08-13.01.23l-5.47.13c-3.87.13-6.74.2-8.61.2l-.1-.07h.03l-.63-.63v-1.17l.2-35.66.03-4.84z"/></g></svg>