<svg version="1.1" id="Calque_1" xmlns="http://www.w3.org/2000/svg" x="0" y="0" viewBox="0 0 529.2 161" style="enable-background:new 0 0 529.2 161" xml:space="preserve"><style>.st1{fill:#f5ed95}.st2{fill:#fff}.st4{fill:#020203}</style><path d="M495.4 155.2H30.7c-6.9 0-11.1-5.6-13.6-12.6L.1 84c-.9-7 5.7-12.6 12.6-12.6h501.8c6.9 0 15.9 3.5 14.7 12.6L510 142.6c-2.2 7.1-7.7 12.6-14.6 12.6z" style="fill:#1b1a35"/><path class="st1" d="M54.4 134.9H43.9l13.4-31.7h14.6l13.3 31.7H74.8L65 109.3h-.7l-9.9 25.6zm19.9-6.8H54.8v-7.6h19.4v7.6zM98.2 134.9h-9.9l1.7-31.7h14l6.2 18.2h.5l6.3-18.2h14l1.7 31.7h-9.9l-.4-11.6-.4-9.8h-.5l-6.2 17.6h-9.6l-6.3-17.6H99l-.3 9.8-.5 11.6zM149.1 103.1v31.7H139v-31.7h10.1zM165.6 134.9h-9.9v-31.7h9.9v31.7zm20.7-24.1h-30.6v-7.7h30.6v7.7zm.5 24.1h-31v-7.7h31v7.7zm-1-12.4h-25v-7.3h25v7.3zM192.6 103.1h13.9l12 21.3h.4l-.3-11v-10.3h9.9v31.7h-13.3l-12.7-22.2h-.4l.3 11v11.2h-9.9v-31.7zM249.7 135.8c-2 0-3.9-.1-5.6-.4-1.8-.2-3.4-.6-5-.9-1.5-.4-2.9-.8-4-1.2l-1.1-9c2 .8 4.3 1.5 7.1 2.2s5.6 1 8.5 1c2.5 0 4.2-.2 5.2-.5.9-.3 1.4-.9 1.4-1.7v-.1c0-.6-.2-1-.7-1.3-.5-.3-1.3-.6-2.4-.8-1.1-.2-2.7-.4-4.7-.6-3.3-.4-6-.9-8.2-1.6-2.2-.7-3.8-1.7-4.9-3.1-1.1-1.4-1.6-3.2-1.6-5.6v-.2c0-3.3 1.3-5.8 3.9-7.4 2.6-1.6 6.5-2.4 11.6-2.4 3.2 0 6 .2 8.3.7 2.3.5 4.4 1 6.1 1.7l1.1 8.2c-2.1-.8-4.4-1.5-6.9-2s-5-.7-7.7-.7c-1.8 0-3.1.1-4 .2-.9.2-1.5.4-1.8.7-.3.3-.5.7-.5 1.1 0 .5.2.9.5 1.2.4.3 1.1.6 2.2.8 1.1.2 2.7.5 4.9.7 3.2.3 6 .8 8.2 1.4 2.2.6 3.9 1.6 5.1 2.9 1.2 1.3 1.7 3.2 1.7 5.5v.3c0 3.7-1.4 6.4-4.1 8.1-2.6 1.9-6.8 2.8-12.6 2.8z"/><g><path class="st2" d="M289.3 114.1h-2.1v-12.3h2.1v12.3zm4.9-4h-5.4v-1.7h5.4c1 0 1.7-.2 2.2-.6.4-.4.7-1 .7-1.7v-.2c0-.7-.2-1.3-.7-1.7-.4-.4-1.2-.6-2.2-.6h-5.5v-1.7h5.5c1.7 0 3 .4 3.8 1.1.8.7 1.2 1.7 1.2 3v.2c0 1.3-.4 2.2-1.2 3-.8.5-2 .9-3.8.9zM304.5 114.3c-1.2 0-2.2-.2-2.8-.7s-1-1.2-1-2.1v-.1c0-1 .4-1.7 1.2-2.1.8-.4 1.9-.7 3.5-.8l4-.3v1.4l-3.9.3c-1 .1-1.7.2-2.1.4-.4.2-.6.5-.6 1v.1c0 .4.2.7.6.9.4.2 1 .3 1.7.3.8 0 1.5-.1 2-.3.6-.2 1-.5 1.4-.9.4-.4.6-.8.7-1.2l.3 1.5h-.4c-.1.5-.4.9-.7 1.3-.4.4-.8.7-1.5 1-.6.2-1.4.3-2.4.3zm6.7-.2h-2.1l.1-2.7-.1-.4v-2.4c0-.7-.3-1.3-.8-1.7-.5-.4-1.4-.6-2.5-.6-1 0-1.8.1-2.6.4-.8.2-1.5.5-2.1.8l.2-1.7c.3-.2.7-.3 1.2-.5s1-.3 1.6-.4c.6-.1 1.2-.2 2-.2.9 0 1.7.1 2.4.3.7.2 1.2.5 1.6.9.4.4.7.8.8 1.3s.3 1.1.3 1.6v5.3zM316.2 114.1h-2.1v-9.3h2.1l-.1 3.2.1.1v6zm0-5.1-.4-1.5h.5c.3-.9.7-1.6 1.4-2.1s1.5-.8 2.6-.8c.3 0 .6 0 .9.1.3.1.5.1.7.2l.2 1.9c-.2-.1-.5-.2-.8-.2-.3-.1-.6-.1-1-.1-.9 0-1.8.2-2.5.6-.8.5-1.3 1.1-1.6 1.9zM328.7 114.4c-1.9 0-3.3-.4-4.2-1.3-1-.8-1.5-2.1-1.5-3.6v-.2c0-1.5.5-2.7 1.5-3.6 1-.8 2.4-1.3 4.2-1.3.6 0 1.2 0 1.7.1s1 .2 1.4.4.7.3 1 .5l.2 1.8c-.5-.3-1-.5-1.7-.8-.6-.2-1.4-.3-2.3-.3-1.3 0-2.2.3-2.9.8-.7.5-1 1.3-1 2.3v.2c0 1 .3 1.8 1 2.3.7.5 1.6.8 2.9.8.9 0 1.6-.1 2.3-.3.6-.2 1.2-.5 1.7-.8l-.2 1.9c-.4.2-1 .5-1.7.7-.6.3-1.4.4-2.4.4zM345.9 114.3c-.9 0-1.7-.1-2.4-.2s-1.4-.3-1.9-.5c-.6-.2-1-.4-1.4-.6l-.2-2.1c.7.4 1.6.7 2.6 1 1 .3 2.2.5 3.4.5 1.3 0 2.3-.2 2.9-.5s.9-.8.9-1.4c0-.4-.1-.8-.4-1.1s-.7-.5-1.3-.6-1.4-.3-2.5-.3c-1.4-.1-2.5-.3-3.3-.6s-1.4-.6-1.8-1.1c-.4-.5-.5-1.1-.5-1.9 0-1.1.5-2 1.4-2.6.9-.6 2.3-.9 4.2-.9 1.3 0 2.4.1 3.3.3.9.2 1.7.5 2.2.8l.2 1.9c-.7-.3-1.5-.6-2.5-.9-1-.2-2-.4-3.1-.4-.9 0-1.6.1-2.1.2s-.9.3-1.1.6c-.2.3-.3.6-.3.9 0 .4.1.7.3.9.2.2.6.5 1.2.6.6.2 1.4.3 2.6.4 1.4.1 2.4.3 3.3.5.8.2 1.5.6 1.8 1.1.4.5.6 1.2.6 2 0 1.3-.5 2.2-1.5 2.8-1 .9-2.6 1.2-4.6 1.2zM357.7 114.3c-1.2 0-2.2-.2-2.8-.7-.7-.5-1-1.2-1-2.1v-.1c0-1 .4-1.7 1.2-2.1.8-.4 1.9-.7 3.5-.8l4-.3v1.4l-3.9.3c-1 .1-1.7.2-2.1.4-.4.2-.6.5-.6 1v.1c0 .4.2.7.6.9s1 .3 1.7.3c.8 0 1.5-.1 2-.3.6-.2 1-.5 1.4-.9.4-.4.6-.8.7-1.2l.3 1.5h-.4c-.1.5-.4.9-.7 1.3-.4.4-.8.7-1.5 1s-1.4.3-2.4.3zm6.7-.2h-2.1l.1-2.7-.1-.4v-2.4c0-.7-.3-1.3-.8-1.7-.5-.4-1.4-.6-2.5-.6-1 0-1.8.1-2.6.4s-1.5.5-2.1.8l.2-1.7c.3-.2.7-.3 1.2-.5s1-.3 1.6-.4c.6-.1 1.2-.2 2-.2.9 0 1.7.1 2.4.3.7.2 1.2.5 1.6.9s.7.8.8 1.3.3 1.1.3 1.6v5.3zM368.4 103.2c-.4 0-.8-.1-1-.3-.2-.2-.3-.5-.3-.8 0-.3.1-.6.3-.8.2-.2.5-.3 1-.3.4 0 .8.1 1 .3.2.2.3.4.3.8 0 .3-.1.6-.3.8-.2.2-.6.3-1 .3zm1.1 10.9h-2.1v-9.3h2.1v9.3zM374.7 114.1h-2.1v-9.3h2.1l-.1 2.7.1.3v6.3zm8.6 0h-2.1v-4.9c0-.6-.1-1.1-.3-1.5-.2-.4-.5-.8-.9-1-.4-.3-1-.4-1.7-.4s-1.3.1-1.8.3c-.5.2-.9.5-1.2.9s-.5.8-.7 1.3l-.3-1.6h.4c.1-.5.4-.9.8-1.3s.8-.7 1.4-1 1.3-.4 2.1-.4c1 0 1.8.2 2.5.5.6.4 1.1.9 1.4 1.5s.4 1.5.4 2.4v5.2zM394.2 106.6h-9.5V105h9.7l-.2 1.6zm-3.4 7.7c-1 0-1.8-.1-2.4-.4-.6-.3-1-.7-1.3-1.3-.3-.6-.4-1.3-.4-2.1V106h2.1v4.3c0 .8.2 1.4.6 1.8.4.4 1 .6 2 .6.6 0 1.1-.1 1.7-.2.5-.1 1-.3 1.5-.5l-.2 1.8c-.4.2-1 .4-1.5.5h-2.1zm-2.1-9.1h-2v-2.8l2.1-.2-.1 3zM403.5 109.8h-7.2v-1.7h7.2v1.7zM408.8 114.1h-2.1v-12.3h2.1v12.3zm4.9-4h-5.4v-1.7h5.4c1 0 1.7-.2 2.2-.6.4-.4.7-1 .7-1.7v-.2c0-.7-.2-1.3-.7-1.7s-1.2-.6-2.2-.6h-5.5v-1.7h5.5c1.7 0 3 .4 3.8 1.1.8.7 1.2 1.7 1.2 3v.2c0 1.3-.4 2.2-1.2 3-.8.5-2.1.9-3.8.9zM422.2 103.2c-.4 0-.8-.1-1-.3-.2-.2-.3-.5-.3-.8 0-.3.1-.6.3-.8.2-.2.5-.3 1-.3.4 0 .8.1 1 .3.2.2.3.4.3.8 0 .3-.1.6-.3.8-.2.2-.5.3-1 .3zm1.1 10.9h-2.1v-9.3h2.1v9.3zM431.7 114.4c-2 0-3.4-.4-4.4-1.3s-1.5-2-1.5-3.6v-.2c0-1.5.5-2.7 1.4-3.5s2.3-1.3 4.1-1.3c1.2 0 2.2.2 3.1.6s1.4.9 1.8 1.6.6 1.5.6 2.4v.7c0 .2 0 .4-.1.5h-2c0-.2 0-.4.1-.6v-.6c0-.6-.1-1.1-.4-1.5-.3-.4-.7-.7-1.2-1s-1.2-.3-1.9-.3c-1.1 0-2 .3-2.6.8-.6.5-.9 1.2-.9 2.1v.8c0 .4.1.8.2 1.1.1.4.4.7.7.9.3.3.7.5 1.3.6.5.1 1.2.2 2 .2.9 0 1.7-.1 2.4-.3.8-.2 1.5-.5 2.2-.9l-.2 1.8c-.6.3-1.3.6-2.1.8s-1.6.2-2.6.2zm4.6-4.2h-9.6v-1.6h9.6v1.6zM441.4 114.1h-2.1v-9.3h2.1l-.1 3.2.1.1v6zm-.1-5.1-.4-1.5h.5c.3-.9.7-1.6 1.4-2.1s1.5-.8 2.6-.8c.3 0 .6 0 .9.1.3.1.5.1.7.2l.2 1.9c-.2-.1-.5-.2-.8-.2-.3-.1-.6-.1-1-.1-.9 0-1.8.2-2.5.6-.7.5-1.2 1.1-1.6 1.9zM451.2 114.1h-2.1v-9.3h2.1l-.1 3.2.1.1v6zm-.1-5.1-.4-1.5h.5c.3-.9.7-1.6 1.4-2.1s1.5-.8 2.6-.8c.3 0 .6 0 .9.1.3.1.5.1.7.2l.2 1.9c-.2-.1-.5-.2-.8-.2-.3-.1-.6-.1-1-.1-.9 0-1.8.2-2.5.6-.7.5-1.2 1.1-1.6 1.9zM463.9 114.4c-2 0-3.4-.4-4.4-1.3s-1.5-2-1.5-3.6v-.2c0-1.5.5-2.7 1.4-3.5.9-.8 2.3-1.3 4.1-1.3 1.2 0 2.2.2 3.1.6s1.4.9 1.8 1.6.6 1.5.6 2.4v.7c0 .2 0 .4-.1.5h-2c0-.2 0-.4.1-.6v-.6c0-.6-.1-1.1-.4-1.5-.3-.4-.7-.7-1.2-1s-1.2-.3-1.9-.3c-1.1 0-2 .3-2.6.8-.6.5-.9 1.2-.9 2.1v.8c0 .4.1.8.2 1.1.1.4.4.7.7.9.3.3.7.5 1.3.6.5.1 1.2.2 2 .2.9 0 1.7-.1 2.4-.3.8-.2 1.5-.5 2.2-.9l-.2 1.8c-.6.3-1.3.6-2.1.8-.7.1-1.6.2-2.6.2zm4.6-4.2h-9.6v-1.6h9.6v1.6zM289.4 121v12.3h-2.2V121h2.2zm-1.1 12.4v-1.8h9.5v1.8h-9.5zM304.8 133.7c-2 0-3.4-.4-4.4-1.3-1-.8-1.5-2-1.5-3.6v-.2c0-1.5.5-2.7 1.4-3.5s2.3-1.3 4.1-1.3c1.2 0 2.2.2 3.1.6.8.4 1.4.9 1.8 1.6s.6 1.5.6 2.4v.7c0 .2 0 .4-.1.5h-2c0-.2 0-.4.1-.6s0-.4 0-.6c0-.6-.1-1.1-.4-1.5-.3-.4-.7-.7-1.2-1-.5-.2-1.2-.3-1.9-.3-1.1 0-2 .3-2.6.8-.6.5-.9 1.2-.9 2.1v.8c0 .4.1.8.2 1.1s.4.7.7.9c.3.3.7.5 1.3.6s1.2.2 2 .2c.9 0 1.7-.1 2.4-.3.8-.2 1.5-.5 2.2-.8l-.2 1.8c-.6.3-1.3.6-2.1.8-.8 0-1.6.1-2.6.1zm4.6-4.2h-9.6v-1.6h9.6v1.6zM316.9 133.7c-1.1 0-2.1-.1-2.9-.3-.8-.2-1.5-.4-2.1-.7l-.2-1.9c.7.3 1.4.6 2.3.8.8.2 1.8.3 2.9.3 1 0 1.7-.1 2.2-.3.5-.2.7-.5.7-.9 0-.3-.1-.5-.3-.7s-.6-.3-1.1-.4c-.5-.1-1.2-.2-2-.2-1.2-.1-2.1-.2-2.8-.5-.7-.2-1.2-.5-1.4-.9-.3-.4-.4-.9-.4-1.5 0-.9.4-1.6 1.1-2.1.8-.5 1.9-.7 3.4-.7 1.1 0 2 .1 2.8.3.8.2 1.5.4 2 .7l.2 1.7c-.6-.3-1.3-.5-2.1-.7s-1.7-.3-2.7-.3c-.7 0-1.2 0-1.6.1-.4.1-.7.2-.8.4-.2.2-.3.4-.3.6 0 .3.1.5.3.6.2.2.5.3.9.4.5.1 1.1.2 2 .2 1.2.1 2.1.2 2.9.4.7.2 1.2.5 1.5.9.3.4.5.9.5 1.6 0 1-.4 1.8-1.2 2.3s-2.1.8-3.8.8zM331.5 121v12.3h-2.2V121h2.2zm-1 6.9v-1.7h10.4v1.7h-10.4zm11.6-6.9v12.3H340V121h2.1zM350.7 133.7c-1.9 0-3.3-.4-4.3-1.2-1-.8-1.5-2-1.5-3.6v-.2c0-1.5.5-2.7 1.5-3.6 1-.8 2.4-1.2 4.3-1.2s3.3.4 4.3 1.2c1 .8 1.5 2 1.5 3.6v.2c0 1.6-.5 2.7-1.5 3.6-1 .8-2.4 1.2-4.3 1.2zm0-1.7c1.2 0 2.1-.3 2.7-.8.6-.5 1-1.3 1-2.3v-.2c0-1-.3-1.8-1-2.3-.6-.5-1.6-.8-2.8-.8-1.2 0-2.1.3-2.7.8-.6.5-1 1.3-1 2.3v.2c0 1 .3 1.8 1 2.3.7.5 1.6.8 2.8.8zM361.1 133.4H359v-9.3h2.1l-.1 3.2.1.1v6zm0-5.1-.4-1.5h.5c.3-.9.7-1.6 1.4-2.1s1.5-.8 2.6-.8c.3 0 .6 0 .9.1.3.1.5.1.7.2l.2 1.9c-.2-.1-.5-.2-.8-.2-.3-.1-.6-.1-1-.1-.9 0-1.8.2-2.5.6-.8.5-1.3 1.1-1.6 1.9zM377.2 125.9h-9.5v-1.6h9.7l-.2 1.6zm-3.4 7.7c-1 0-1.8-.1-2.4-.4-.6-.3-1-.7-1.3-1.3-.3-.6-.4-1.3-.4-2.1v-4.5h2.1v4.3c0 .8.2 1.4.6 1.8s1 .6 2 .6c.6 0 1.1-.1 1.7-.2.5-.1 1-.3 1.5-.5l-.2 1.8c-.4.2-1 .4-1.5.5h-2.1zm-2.1-9.1h-2v-2.8l2.1-.2-.1 3zM380.8 122.5c-.4 0-.8-.1-1-.3-.2-.2-.3-.5-.3-.8 0-.3.1-.6.3-.8.2-.2.5-.3 1-.3.4 0 .8.1 1 .3.2.2.3.4.3.8 0 .3-.1.6-.3.8-.3.2-.6.3-1 .3zm1 10.9h-2.1v-9.3h2.1v9.3zM387.1 133.4H385v-12.7h2.1v12.7zM392.5 133.4h-2.1v-12.7h2.1v12.7zM400.9 133.7c-1.9 0-3.3-.4-4.3-1.2-1-.8-1.5-2-1.5-3.6v-.2c0-1.5.5-2.7 1.5-3.6 1-.8 2.4-1.2 4.3-1.2s3.3.4 4.3 1.2c1 .8 1.5 2 1.5 3.6v.2c0 1.6-.5 2.7-1.5 3.6-.9.8-2.4 1.2-4.3 1.2zm0-1.7c1.2 0 2.1-.3 2.7-.8.6-.5 1-1.3 1-2.3v-.2c0-1-.3-1.8-1-2.3-.6-.5-1.6-.8-2.8-.8-1.2 0-2.1.3-2.7.8-.6.5-1 1.3-1 2.3v.2c0 1 .3 1.8 1 2.3.7.5 1.6.8 2.8.8zM411.4 133.4h-2.1v-9.3h2.1l-.1 2.7.1.3v6.3zm8.6 0h-2.1v-4.9c0-.6-.1-1.1-.3-1.5s-.5-.8-.9-1c-.4-.3-1-.4-1.7-.4s-1.3.1-1.8.3c-.5.2-.9.5-1.2.9s-.5.8-.7 1.3l-.3-1.6h.4c.1-.5.4-.9.8-1.3s.8-.7 1.4-1c.6-.2 1.3-.4 2.1-.4 1 0 1.8.2 2.5.5.6.4 1.1.9 1.4 1.5.3.7.4 1.5.4 2.4v5.2zM425 133.4h-2.1v-9.3h2.1l-.1 2.7.1.3v6.3zm8.6 0h-2.1v-4.9c0-.6-.1-1.1-.3-1.5s-.5-.8-.9-1c-.4-.3-1-.4-1.7-.4s-1.3.1-1.8.3c-.5.2-.9.5-1.2.9s-.5.8-.7 1.3l-.3-1.6h.4c.1-.5.4-.9.8-1.3s.8-.7 1.4-1c.6-.2 1.3-.4 2.1-.4 1 0 1.8.2 2.5.5.6.4 1.1.9 1.4 1.5.3.7.4 1.5.4 2.4v5.2zM439.7 133.7c-1.2 0-2.2-.2-2.8-.7-.7-.5-1-1.2-1-2.1v-.1c0-1 .4-1.7 1.2-2.1.8-.4 1.9-.7 3.5-.8l4-.3v1.4l-3.9.3c-1 .1-1.7.2-2.1.4-.4.2-.6.5-.6 1v.1c0 .4.2.7.6.9.4.2 1 .3 1.7.3.8 0 1.5-.1 2-.3.6-.2 1-.5 1.4-.9.4-.4.6-.8.7-1.2l.3 1.5h-.4c-.1.5-.4.9-.7 1.3-.4.4-.8.7-1.5 1s-1.4.3-2.4.3zm6.8-.3h-2.1l.1-2.7-.1-.4v-2.4c0-.7-.3-1.3-.8-1.7-.5-.4-1.4-.6-2.5-.6-1 0-1.8.1-2.6.4-.8.2-1.5.5-2.1.8l.2-1.7c.3-.2.7-.3 1.2-.5s1-.3 1.6-.4c.6-.1 1.2-.2 2-.2.9 0 1.7.1 2.4.3.7.2 1.2.5 1.6.9s.7.8.8 1.3c.2.5.3 1.1.3 1.6v5.3zM454.5 137.1h-.3c-1.2 0-2.1-.1-3-.2-.8-.2-1.5-.4-1.9-.8-.4-.4-.7-.9-.7-1.5 0-.4.1-.7.3-1 .2-.3.4-.5.8-.6.3-.2.7-.3 1.1-.3v-.1c-.5-.1-.8-.2-1.1-.5-.3-.2-.4-.5-.4-.9 0-.3.1-.5.2-.7s.3-.4.5-.5c.2-.1.6-.2.9-.2v-.3l2.6.6h-.9c-.5 0-.8.1-1.1.2-.2.1-.3.2-.3.4s.1.4.4.5c.3.1.8.2 1.6.2l3.2.2c1.3.1 2.3.3 2.9.7.6.4.9 1.1.9 1.9 0 .7-.2 1.3-.7 1.7-.5.4-1.1.7-2 .9-.8.2-1.8.3-3 .3zm-.1-6.9c-1.8 0-3.2-.3-4.1-.8s-1.4-1.3-1.4-2.3v-.1c0-.7.2-1.2.5-1.7.4-.4.9-.8 1.6-1 .7-.2 1.6-.4 2.7-.4l7.1-.3v1.6l-3.1-.1v.1c.5.1.9.2 1.2.4.3.2.5.4.7.7.1.3.2.6.2.9v.1c0 .9-.4 1.6-1.3 2.1-1 .6-2.3.8-4.1.8zm-.1 5.3h.2c.8 0 1.4 0 2-.1.6-.1 1-.2 1.3-.4.3-.2.4-.4.4-.8s-.2-.6-.5-.8-.9-.3-1.6-.3l-4.1-.2.7-.1c-.4 0-.8.1-1.1.2s-.6.2-.8.4c-.2.2-.3.4-.3.7 0 .3.1.6.4.8.3.2.7.3 1.3.4.7.1 1.3.2 2.1.2zm.1-6.8c.8 0 1.5-.1 2-.2s.9-.3 1.1-.6c.2-.2.3-.5.3-.9 0-.3-.1-.6-.3-.9s-.6-.4-1.1-.6c-.5-.1-1.1-.2-1.9-.2h-.1c-.8 0-1.5.1-2 .2s-.9.3-1.1.5c-.2.2-.3.5-.3.9v.1c0 .3.1.6.3.9.2.2.6.4 1.1.6.5.1 1.1.2 2 .2zM467.8 133.7c-2 0-3.4-.4-4.4-1.3-1-.8-1.5-2-1.5-3.6v-.2c0-1.5.5-2.7 1.4-3.5s2.3-1.3 4.1-1.3c1.2 0 2.2.2 3.1.6.8.4 1.4.9 1.8 1.6s.6 1.5.6 2.4v.7c0 .2 0 .4-.1.5h-2c0-.2 0-.4.1-.6s0-.4 0-.6c0-.6-.1-1.1-.4-1.5-.3-.4-.7-.7-1.2-1-.5-.2-1.2-.3-1.9-.3-1.1 0-2 .3-2.6.8-.6.5-.9 1.2-.9 2.1v.8c0 .4.1.8.2 1.1s.4.7.7.9c.3.3.7.5 1.3.6s1.2.2 2 .2c.9 0 1.7-.1 2.4-.3.8-.2 1.5-.5 2.2-.8l-.2 1.8c-.6.3-1.3.6-2.1.8-.7 0-1.6.1-2.6.1zm4.6-4.2h-9.6v-1.6h9.6v1.6zM480 133.7c-1.1 0-2.1-.1-2.9-.3-.8-.2-1.5-.4-2.1-.7l-.2-1.9c.7.3 1.4.6 2.3.8.8.2 1.8.3 2.9.3 1 0 1.7-.1 2.2-.3.5-.2.7-.5.7-.9 0-.3-.1-.5-.3-.7-.2-.2-.6-.3-1.1-.4-.5-.1-1.2-.2-2-.2-1.2-.1-2.1-.2-2.8-.5s-1.2-.5-1.4-.9c-.3-.4-.4-.9-.4-1.5 0-.9.4-1.6 1.1-2.1.8-.5 1.9-.7 3.4-.7 1.1 0 2 .1 2.8.3.8.2 1.5.4 2 .7l.2 1.7c-.6-.3-1.3-.5-2.1-.7-.8-.2-1.7-.3-2.7-.3-.7 0-1.2 0-1.6.1s-.7.2-.8.4c-.2.2-.3.4-.3.6 0 .3.1.5.3.6.2.2.5.3.9.4.5.1 1.1.2 2 .2 1.2.1 2.1.2 2.9.4.7.2 1.2.5 1.5.9.3.4.5.9.5 1.6 0 1-.4 1.8-1.2 2.3s-2.2.8-3.8.8z"/></g><g><path d="M497.4 83.9H31.7c-6.9 0-10.5-3.3-14.6-12.6L.1 12.6C.1 5.7 5.8 0 12.7 0h501.8c6.9 0 15.9 3.5 14.7 12.6L510 71.3c-2.2 7-5.7 12.6-12.6 12.6z" style="fill:#59c2e4"/><path class="st4" d="M58.1 59.5c-3.5 0-6.3-.2-8.6-.7-2.3-.5-4.1-1.2-5.4-2.1-1.3-.9-2.3-1.9-2.8-3.1-.6-1.2-.8-2.5-.8-3.9v-.4c0-1.5.3-2.9 1-4s1.7-2.1 3.1-2.8c1.4-.7 3-1.2 5.1-1.4v-.4c-1.9-.1-3.4-.5-4.7-1.1s-2.3-1.3-3-2.3c-.7-1-1-2.2-1-3.5v-.4c0-2.7 1.4-4.9 4.1-6.5 2.7-1.6 7.1-2.4 13.1-2.4 6.1 0 10.5.8 13.3 2.4 2.7 1.6 4.1 3.8 4.1 6.5v.4c0 1.4-.3 2.5-1 3.5s-1.7 1.8-3 2.3c-1.3.6-2.9.9-4.7 1.1v.4c2 .3 3.7.7 5.1 1.5 1.4.7 2.4 1.6 3.1 2.8.7 1.1 1 2.5 1 4v.4c0 1.3-.2 2.5-.7 3.6s-1.4 2.2-2.6 3.1c-1.3.9-3.1 1.7-5.4 2.2-2.6.5-5.6.8-9.3.8zm.2-7.9c2.8 0 4.7-.3 5.7-.9 1-.6 1.5-1.3 1.5-2.1v-.1c0-.9-.6-1.5-1.7-2.1-1.1-.5-3.2-1-6.1-1.3-2.7.3-4.5.8-5.4 1.4-.9.6-1.4 1.2-1.4 2v.1c0 .9.5 1.6 1.6 2.2s2.9.8 5.8.8zm.3-13.5c2.3-.2 4-.6 5.1-1.2 1.1-.6 1.6-1.2 1.6-2v-.1c0-.8-.5-1.5-1.6-2s-2.9-.7-5.6-.7c-2.5 0-4.3.2-5.4.7-1.1.5-1.6 1.1-1.6 1.9v.2c0 .5.2.9.6 1.4.4.4 1.2.8 2.3 1.1s2.6.5 4.6.7zM98.4 48.8H80.2v-7.7h18.2v7.7zM118.8 24.7c6 0 10.5 1.5 13.5 4.5s4.5 7.2 4.5 12.7v.4c0 5.4-1.8 9.6-5.3 12.5s-8.6 4.5-15.2 4.5c-2.3 0-4.4-.2-6.4-.5-1.9-.3-3.6-.7-5-1.2l-1.1-8.6c1.5.6 3.1 1.1 4.9 1.5 1.8.4 3.6.6 5.6.6 4.4 0 7.5-.7 9.4-2.1s2.9-3.7 2.9-7v-.3c0-3.1-.6-5.4-1.9-6.7s-3.3-2-6.1-2c-2.1 0-3.7.3-4.7.9-1 .6-1.5 1.4-1.5 2.4v.2c0 1.1.5 1.9 1.5 2.5 1 .6 2.5.9 4.6.9 1 0 2-.1 3-.3s1.9-.5 2.8-.8 1.6-.8 2.2-1.4l1.9 3.8h-2c-.4 1.2-1.1 2.2-2.1 3.1-1 .9-2.3 1.5-3.9 2s-3.5.7-5.7.7c-3.9 0-7-.9-9.2-2.7S102 40 102 36.9v-.5c0-3.7 1.5-6.6 4.4-8.6 2.9-2.1 7-3.1 12.4-3.1zM159.6 48.8h-18.2v-7.7h18.2v7.7zM181 58.2h-10.3V34.9h-.4l-8.3 2.8.2-8.9 9.4-3.2h9.3v32.6zM204.7 59.4c-5.9 0-10.3-1.5-13.4-4.4-3.1-2.9-4.6-7.2-4.6-12.9v-.4c0-5.6 1.5-9.9 4.6-12.8 3-2.9 7.5-4.4 13.4-4.4s10.4 1.5 13.4 4.4c3 2.9 4.6 7.2 4.6 12.8v.4c0 5.6-1.5 9.9-4.6 12.9-3 2.9-7.5 4.4-13.4 4.4zm0-8.5c2.5 0 4.4-.8 5.6-2.3 1.2-1.5 1.8-3.7 1.8-6.5v-.4c0-2.8-.6-5-1.8-6.5-1.2-1.5-3-2.3-5.6-2.3s-4.4.8-5.6 2.3c-1.2 1.5-1.8 3.7-1.8 6.5v.4c0 2.8.6 5 1.8 6.5 1.3 1.6 3.1 2.3 5.6 2.3zM245.7 48.8h-18.2v-7.7h18.2v7.7zM267.1 58.2h-10.3V34.9h-.4l-8.3 2.8.2-8.9 9.4-3.2h9.3v32.6zM290.5 58.2h-10.3V34.9h-.4l-8.3 2.8.2-8.9 9.4-3.2h9.3v32.6zM311.3 53.1c-.9 0-1.8-.1-2.7-.2-.9-.1-1.8-.3-2.5-.6l-.6-5.6c.7.2 1.5.4 2.2.5.7.1 1.5.2 2.2.2 1.6 0 2.6-.3 3.2-.9.5-.6.8-1.7.8-3.1V31.5h6.7V44c0 3-.7 5.3-2.2 6.8s-3.8 2.3-7.1 2.3zM336.7 53.4c-4 0-7-.9-9-2.7-2-1.8-3-4.5-3-8.1V31.5h6.7v11.1c0 1.7.4 3 1.3 3.9.9.9 2.2 1.4 3.9 1.4 1.7 0 3.1-.5 3.9-1.4.9-.9 1.3-2.2 1.3-3.9V31.5h6.7v11.1c0 3.6-1 6.3-3 8.1-1.8 1.8-4.8 2.7-8.8 2.7zM359.7 31.5v21.2H353V31.5h6.7zM364.1 31.5h9.3l8 14.2h.3l-.2-7.3v-6.9h6.6v21.2h-8.8l-8.4-14.8h-.3l.2 7.3v7.5h-6.6V31.5zM419.1 52.7h-19.5V47l6.7-3.2c1.4-.7 2.5-1.2 3.3-1.7.8-.5 1.4-1 1.8-1.4s.6-1 .6-1.5V39c0-.5-.1-.9-.3-1.2-.2-.4-.6-.7-1.3-.9-.6-.2-1.5-.3-2.6-.3-1.5 0-2.9.2-4.3.5s-2.6.8-3.6 1.2l.7-5.6c.7-.3 1.4-.6 2.3-.8.9-.3 1.8-.5 2.9-.6 1-.2 2.2-.2 3.4-.2 3.2 0 5.6.6 7.2 1.8 1.7 1.2 2.5 3 2.5 5.2v.2c0 1.1-.2 2-.5 2.9-.4.9-1 1.6-1.8 2.4-.8.7-2 1.4-3.5 2.2l-3.1 1.5v1.3l-2.9-1.1h12.1v5.2zM433.2 53.4c-3.8 0-6.7-1-8.7-2.9s-3-4.7-3-8.3V42c0-3.6 1-6.4 3-8.3 2-1.9 4.9-2.9 8.7-2.9 3.8 0 6.7 1 8.7 2.9s3 4.7 3 8.3v.2c0 3.7-1 6.4-3 8.3s-4.9 2.9-8.7 2.9zm0-5.4c1.6 0 2.9-.5 3.6-1.5.8-1 1.2-2.4 1.2-4.2V42c0-1.8-.4-3.3-1.2-4.2-.8-1-2-1.5-3.6-1.5s-2.9.5-3.6 1.5c-.8 1-1.2 2.4-1.2 4.2v.3c0 1.8.4 3.2 1.2 4.2s2 1.5 3.6 1.5zM466.8 52.7h-19.5V47l6.7-3.2c1.4-.7 2.5-1.2 3.3-1.7.8-.5 1.4-1 1.8-1.4.4-.5.6-1 .6-1.5V39c0-.5-.1-.9-.3-1.2s-.6-.7-1.2-.9c-.6-.2-1.5-.3-2.6-.3-1.5 0-2.9.2-4.3.5-1.4.4-2.6.8-3.6 1.2l.7-5.6c.7-.3 1.4-.6 2.3-.8.9-.3 1.8-.5 2.9-.6 1-.2 2.2-.2 3.4-.2 3.2 0 5.6.6 7.2 1.8 1.7 1.2 2.5 3 2.5 5.2v.2c0 1.1-.2 2-.5 2.9-.4.9-1 1.6-1.8 2.4s-2 1.4-3.5 2.2l-3.1 1.5v1.3l-2.9-1.1H467v5.2zM478.3 53.3c-1.2 0-2.4-.1-3.4-.2-1.1-.1-2-.3-2.9-.5-.9-.2-1.6-.4-2.2-.6l-.6-5.4c1.2.4 2.5.7 3.9.9 1.4.3 3 .4 4.7.4 1.3 0 2.3-.1 3-.2.7-.1 1.2-.3 1.4-.6s.4-.6.4-1V46c0-.4-.1-.7-.3-.9-.2-.2-.5-.4-1-.5-.5-.1-1.1-.2-2-.2l-6.8-.2v-4.8l6.7-.2c.8 0 1.5-.1 2-.2s.8-.3 1-.5c.2-.2.3-.5.3-.9 0-.6-.3-1-.9-1.2-.6-.2-1.8-.3-3.6-.3-1.6 0-3.2.1-4.8.4-1.5.3-2.9.6-3.9.9l.6-5.2c1.1-.4 2.4-.7 3.9-1 1.5-.3 3.2-.4 5.1-.4 3.5 0 6.1.5 7.9 1.5 1.8 1 2.6 2.4 2.6 4.4v.3c0 .9-.2 1.7-.5 2.4-.3.6-.9 1.1-1.7 1.5s-1.8.6-3.1.6v.8l-.5-.6c2.2.2 3.7.7 4.6 1.5.9.9 1.3 2 1.3 3.5v.2c0 2-.9 3.6-2.8 4.7-1.7 1.1-4.6 1.7-8.4 1.7z"/></g></svg>