<svg version="1.1" id="Calque_1" xmlns="http://www.w3.org/2000/svg" x="0" y="0" viewBox="0 0 1073 87.1" style="enable-background:new 0 0 1073 87.1" xml:space="preserve"><style>.st2{fill:#f5ed95}.st3{fill:#fff}.st4{fill:#020203}</style><path d="M580.1 85.9H32.3c-7.1 0-12.4-5.3-14.9-12.9L0 12.9C0 5.8 5.8 0 12.9 0h586.8c7.1 0 12.9 5.8 12.9 12.9L593 73c0 7.1-5.8 12.9-12.9 12.9z" style="fill:#59c2e4"/><path d="M1038.5 85.9H535.2c-7.1 0-12.2-5-14.9-12.9l-17.4-60.1c0-7.1 5.8-12.9 12.9-12.9h544.4c7.1 0 12.9 5.8 12.9 12.9L1053.4 73c-2.2 7.3-7.8 12.9-14.9 12.9z" style="fill:#1b1a35"/><path class="st2" d="M572.5 59.3h-10.7l13.8-32.5h14.9l13.6 32.5h-10.7l-10-26.2h-.7l-10.2 26.2zm20.4-7H573v-7.8h19.9v7.8zM617.4 59.3h-10.1l1.7-32.5h14.4l6.4 18.7h.6l6.5-18.7h14.3l1.7 32.5h-10.1l-.5-11.9-.4-10.1h-.5l-6.4 18h-9.8l-6.5-18h-.6l-.4 10.1-.3 11.9zM669.5 26.8v32.5h-10.3V26.8h10.3zM686.4 59.3h-10.1V26.8h10.1v32.5zm21.2-24.6h-31.3v-7.9h31.3v7.9zm.5 24.6h-31.8v-7.9h31.8v7.9zm-1-12.7h-25.6v-7.5h25.6v7.5zM714 26.8h14.2l12.3 21.8h.5l-.3-11.3V26.8h10.2v32.5h-13.6l-13-22.7h-.5l.3 11.3v11.5H714V26.8zM772.6 60.2c-2 0-3.9-.1-5.8-.4-1.8-.3-3.5-.6-5.1-1-1.6-.4-2.9-.8-4.1-1.2l-1.1-9.2c2 .8 4.4 1.6 7.3 2.3s5.7 1.1 8.7 1.1c2.6 0 4.3-.2 5.3-.5s1.4-.9 1.4-1.8v-.1c0-.6-.2-1.1-.7-1.4-.5-.3-1.3-.6-2.4-.8-1.2-.2-2.8-.4-4.8-.6-3.4-.4-6.2-.9-8.4-1.7s-3.9-1.8-5-3.2c-1.1-1.4-1.7-3.3-1.7-5.7 0-3.4 1.3-5.9 4-7.6 2.7-1.7 6.6-2.5 11.9-2.5 3.3 0 6.1.2 8.5.7 2.4.5 4.5 1.1 6.3 1.8l1.1 8.4c-2.2-.9-4.5-1.5-7-2s-5.2-.7-7.8-.7c-1.8 0-3.2.1-4.1.3-.9.2-1.5.4-1.9.7-.3.3-.5.7-.5 1.1 0 .5.2.9.6 1.2.4.3 1.1.6 2.3.8 1.1.2 2.8.5 5 .7 3.3.3 6.1.8 8.4 1.5 2.3.6 4 1.6 5.2 3 1.2 1.3 1.8 3.2 1.8 5.7v.3c0 3.8-1.4 6.6-4.2 8.3-3 1.6-7.3 2.5-13.2 2.5z"/><g><path class="st3" d="M813.2 38H811V25.3h2.2V38zm5-4.1h-5.6v-1.8h5.6c1 0 1.8-.2 2.2-.6.5-.4.7-1 .7-1.8v-.2c0-.8-.2-1.3-.7-1.8-.5-.4-1.2-.6-2.2-.6h-5.6v-1.8h5.6c1.8 0 3.1.4 3.9 1.1s1.3 1.8 1.3 3.1v.2c0 1.3-.4 2.3-1.3 3.1s-2.1 1.1-3.9 1.1zM828.7 38.3c-1.2 0-2.2-.2-2.9-.7s-1-1.2-1-2.1v-.1c0-1 .4-1.7 1.2-2.2.8-.5 2-.7 3.6-.9l4.1-.3v1.5l-4 .3c-1.1.1-1.8.2-2.2.4-.4.2-.6.5-.6 1v.1c0 .4.2.7.6 1 .4.2 1 .3 1.8.3s1.5-.1 2.1-.3c.6-.2 1.1-.5 1.4-.9.4-.4.6-.8.7-1.2l.3 1.5h-.4c-.1.5-.4.9-.8 1.3s-.9.7-1.5 1c-.6.1-1.4.3-2.4.3zm6.9-.3h-2.2l.1-2.8-.1-.4v-2.5c0-.8-.3-1.3-.8-1.8s-1.4-.6-2.6-.6c-1 0-1.9.1-2.7.4-.8.2-1.5.5-2.1.8l.2-1.8c.3-.2.8-.4 1.2-.5s1-.3 1.6-.4c.6-.1 1.3-.2 2-.2 1 0 1.8.1 2.5.3.7.2 1.2.5 1.6.9.4.4.7.8.9 1.4.2.5.3 1.1.3 1.7V38zM840.7 38h-2.2v-9.5h2.2l-.1 3.2.1.1V38zm-.1-5.2-.4-1.5h.5c.3-.9.8-1.7 1.5-2.2.7-.5 1.6-.8 2.6-.8.3 0 .7 0 .9.1.3.1.5.1.7.2l.2 2c-.3-.1-.5-.2-.9-.2-.3-.1-.7-.1-1-.1-1 0-1.8.2-2.5.7-.7.3-1.2 1-1.6 1.8zM853.5 38.3c-1.9 0-3.3-.4-4.3-1.3s-1.5-2.1-1.5-3.7v-.2c0-1.6.5-2.8 1.5-3.6 1-.9 2.4-1.3 4.3-1.3.6 0 1.2 0 1.8.1s1 .2 1.4.4c.4.2.7.3 1 .5l.2 1.9c-.5-.3-1.1-.6-1.7-.8s-1.4-.3-2.3-.3c-1.3 0-2.3.3-2.9.8-.7.5-1 1.3-1 2.4v.2c0 1 .3 1.8 1 2.4.7.6 1.7.8 3 .8.9 0 1.7-.1 2.3-.3.7-.2 1.2-.5 1.8-.8l-.2 1.9c-.4.3-1 .5-1.7.7-.9.1-1.7.2-2.7.2zM871.1 38.3c-.9 0-1.7-.1-2.4-.2s-1.4-.3-2-.5-1.1-.4-1.5-.6l-.2-2.1c.7.4 1.6.7 2.7 1 1.1.3 2.2.5 3.4.5 1.3 0 2.3-.2 2.9-.5.6-.3.9-.8.9-1.5 0-.5-.1-.8-.4-1.1s-.7-.5-1.3-.6-1.5-.3-2.6-.3c-1.4-.1-2.5-.3-3.4-.6-.8-.3-1.5-.7-1.8-1.2-.4-.5-.6-1.2-.6-2 0-1.2.5-2 1.4-2.7s2.4-.9 4.3-.9c1.3 0 2.5.1 3.4.4s1.7.5 2.3.8l.2 1.9c-.7-.4-1.6-.7-2.5-.9s-2-.4-3.2-.4c-.9 0-1.6.1-2.1.2s-.9.3-1.1.6c-.2.3-.3.6-.3.9 0 .4.1.7.3.9s.6.5 1.2.6 1.5.3 2.6.4c1.4.1 2.5.3 3.4.5.9.2 1.5.6 1.9 1.1.4.5.6 1.2.6 2.1 0 1.3-.5 2.3-1.5 2.9-1 1-2.5 1.3-4.6 1.3zM883.2 38.3c-1.2 0-2.2-.2-2.9-.7s-1-1.2-1-2.1v-.1c0-1 .4-1.7 1.2-2.2.8-.5 2-.7 3.6-.9l4.1-.3v1.5l-4 .3c-1.1.1-1.8.2-2.2.4-.4.2-.6.5-.6 1v.1c0 .4.2.7.6 1 .4.2 1 .3 1.8.3s1.5-.1 2.1-.3c.6-.2 1.1-.5 1.4-.9.4-.4.6-.8.7-1.2l.3 1.5h-.4c-.1.5-.4.9-.8 1.3s-.9.7-1.5 1c-.6.1-1.4.3-2.4.3zm6.9-.3h-2.2l.1-2.8-.1-.4v-2.5c0-.8-.3-1.3-.8-1.8s-1.4-.6-2.6-.6c-1 0-1.9.1-2.7.4-.8.2-1.5.5-2.1.8l.2-1.8c.3-.2.8-.4 1.2-.5s1-.3 1.6-.4c.6-.1 1.3-.2 2-.2 1 0 1.8.1 2.5.3.7.2 1.2.5 1.6.9.4.4.7.8.9 1.4.2.5.3 1.1.3 1.7V38zM894.2 26.9c-.4 0-.8-.1-1-.3-.2-.2-.3-.5-.3-.8 0-.3.1-.6.3-.8.2-.2.5-.3 1-.3.4 0 .8.1 1 .3.2.2.3.5.3.8 0 .3-.1.6-.3.8-.3.2-.6.3-1 .3zm1 11.1h-2.1v-9.5h2.1V38zM900.6 38h-2.2v-9.5h2.2l-.1 2.8.1.3V38zm8.8 0h-2.2v-5c0-.6-.1-1.1-.3-1.5-.2-.5-.5-.8-.9-1.1-.4-.3-1-.4-1.8-.4-.7 0-1.3.1-1.8.3-.5.2-.9.5-1.2.9-.3.4-.5.8-.7 1.3l-.3-1.6h.4c.2-.5.4-.9.8-1.3s.8-.7 1.4-1c.6-.3 1.3-.4 2.2-.4 1 0 1.9.2 2.5.5.6.4 1.1.9 1.4 1.6.3.7.4 1.5.4 2.5V38zM920.6 30.3h-9.7v-1.7h10l-.3 1.7zm-3.5 7.9c-1 0-1.9-.1-2.5-.4-.6-.3-1.1-.7-1.3-1.3-.3-.6-.4-1.3-.4-2.2v-4.6h2.1v4.4c0 .8.2 1.4.6 1.8.4.4 1.1.6 2 .6.6 0 1.1-.1 1.7-.2s1.1-.3 1.5-.5l-.2 1.8c-.5.2-1 .4-1.6.5-.5.1-1.2.1-1.9.1zm-2.1-9.3h-2v-2.8l2.1-.2-.1 3zM930.1 33.6h-7.3v-1.7h7.3v1.7zM935.5 38h-2.2V25.3h2.2V38zm5-4.1h-5.6v-1.8h5.6c1 0 1.8-.2 2.2-.6.5-.4.7-1 .7-1.8v-.2c0-.8-.2-1.3-.7-1.8-.5-.4-1.2-.6-2.2-.6h-5.6v-1.8h5.6c1.8 0 3.1.4 3.9 1.1.8.7 1.3 1.8 1.3 3.1v.2c0 1.3-.4 2.3-1.3 3.1-.8.7-2.1 1.1-3.9 1.1zM949.3 26.9c-.4 0-.8-.1-1-.3-.2-.2-.3-.5-.3-.8 0-.3.1-.6.3-.8.2-.2.5-.3 1-.3.4 0 .8.1 1 .3.2.2.3.5.3.8 0 .3-.1.6-.3.8-.2.2-.6.3-1 .3zm1.1 11.1h-2.1v-9.5h2.1V38zM959 38.3c-2 0-3.5-.4-4.5-1.3s-1.5-2.1-1.5-3.7v-.2c0-1.6.5-2.8 1.5-3.6 1-.9 2.4-1.3 4.2-1.3 1.3 0 2.3.2 3.1.6.8.4 1.5.9 1.9 1.6.4.7.6 1.5.6 2.5v.7c0 .2 0 .4-.1.5h-2c0-.2 0-.4.1-.6s0-.4 0-.6c0-.6-.1-1.1-.4-1.6-.3-.4-.7-.8-1.2-1-.5-.2-1.2-.3-2-.3-1.2 0-2 .3-2.6.8s-.9 1.2-.9 2.2V33.6c0 .4.1.8.2 1.2.1.4.4.7.7.9.3.3.8.5 1.3.6.5.1 1.2.2 2 .2.9 0 1.7-.1 2.5-.3.8-.2 1.5-.5 2.2-.9l-.2 1.8c-.6.4-1.3.6-2.1.8-.9.3-1.8.4-2.8.4zm4.7-4.3h-9.8v-1.6h9.8V34zM968.9 38h-2.2v-9.5h2.2l-.1 3.2.1.1V38zm0-5.2-.4-1.5h.5c.3-.9.8-1.7 1.4-2.2.7-.5 1.6-.8 2.6-.8.3 0 .7 0 .9.1.3.1.5.1.7.2l.2 2c-.2-.1-.5-.2-.9-.2s-.7-.1-1-.1c-1 0-1.8.2-2.5.7-.7.3-1.2 1-1.5 1.8zM979 38h-2.2v-9.5h2.2l-.1 3.2.1.1V38zm-.1-5.2-.4-1.5h.5c.3-.9.8-1.7 1.5-2.2.7-.5 1.6-.8 2.6-.8.3 0 .7 0 .9.1.3.1.5.1.7.2l.2 2c-.3-.1-.5-.2-.9-.2-.3-.1-.7-.1-1-.1-1 0-1.8.2-2.5.7-.7.3-1.3 1-1.6 1.8zM992 38.3c-2 0-3.5-.4-4.5-1.3s-1.5-2.1-1.5-3.7v-.2c0-1.6.5-2.8 1.5-3.6 1-.9 2.4-1.3 4.2-1.3 1.3 0 2.3.2 3.1.6.8.4 1.5.9 1.9 1.6.4.7.6 1.5.6 2.5v.7c0 .2 0 .4-.1.5h-2c0-.2 0-.4.1-.6v-.6c0-.6-.1-1.1-.4-1.6-.3-.4-.7-.8-1.2-1s-1.2-.3-2-.3c-1.2 0-2 .3-2.6.8s-.9 1.2-.9 2.2V33.6c0 .4.1.8.2 1.2.1.4.4.7.7.9.3.3.8.5 1.3.6.5.1 1.2.2 2 .2.9 0 1.7-.1 2.5-.3.8-.2 1.5-.5 2.2-.9l-.2 1.8c-.6.4-1.3.6-2.1.8-.9.3-1.8.4-2.8.4zm4.7-4.3h-9.8v-1.6h9.8V34zM813.2 45.1v12.6H811V45.1h2.2zm-1.1 12.7V56h9.7v1.8h-9.7zM829 58.1c-2 0-3.5-.4-4.5-1.3s-1.5-2.1-1.5-3.7v-.2c0-1.6.5-2.8 1.5-3.6s2.4-1.3 4.2-1.3c1.3 0 2.3.2 3.1.6.8.4 1.5.9 1.9 1.6.4.7.6 1.5.6 2.5v.7c0 .2 0 .4-.1.5h-2c0-.2 0-.4.1-.6v-.6c0-.6-.1-1.1-.4-1.6-.3-.4-.7-.8-1.2-1-.5-.2-1.2-.3-2-.3-1.2 0-2 .3-2.6.8-.6.5-.9 1.2-.9 2.2V53.4c0 .4.1.8.2 1.2.1.4.4.7.7.9.3.3.8.5 1.3.6.5.1 1.2.2 2 .2.9 0 1.7-.1 2.5-.3.8-.2 1.5-.5 2.2-.9l-.2 1.8c-.6.4-1.3.6-2.1.8s-1.8.4-2.8.4zm4.7-4.3h-9.8v-1.6h9.8v1.6zM841.4 58.1c-1.2 0-2.2-.1-3-.3-.8-.2-1.6-.4-2.1-.7l-.2-2c.7.3 1.5.6 2.3.8s1.8.4 2.9.4c1 0 1.8-.1 2.3-.3.5-.2.8-.5.8-1 0-.3-.1-.5-.3-.7-.2-.2-.6-.3-1.1-.4s-1.2-.2-2.1-.2c-1.2-.1-2.2-.3-2.9-.5-.7-.2-1.2-.5-1.5-1-.3-.4-.4-.9-.4-1.5 0-.9.4-1.6 1.2-2.1.8-.5 2-.7 3.5-.7 1.1 0 2.1.1 2.9.3.8.2 1.5.4 2 .7l.2 1.8c-.6-.3-1.4-.5-2.2-.7-.8-.2-1.8-.3-2.8-.3-.7 0-1.2 0-1.6.1s-.7.2-.9.4c-.2.2-.3.4-.3.6 0 .3.1.5.3.7.2.2.5.3 1 .4.5.1 1.2.2 2.1.3 1.2.1 2.2.2 2.9.4.7.2 1.3.5 1.6.9s.5.9.5 1.6c0 1.1-.4 1.8-1.3 2.3-.8.4-2.1.7-3.8.7zM856.4 45.1v12.6h-2.2V45.1h2.2zm-1.1 7v-1.8H866v1.8h-10.7zm11.9-7v12.6H865V45.1h2.2zM876 58.1c-1.9 0-3.4-.4-4.4-1.3s-1.5-2.1-1.5-3.7v-.2c0-1.6.5-2.8 1.5-3.6 1-.8 2.5-1.3 4.4-1.3 1.9 0 3.4.4 4.4 1.3 1 .8 1.5 2.1 1.5 3.6v.2c0 1.6-.5 2.8-1.5 3.7s-2.5 1.3-4.4 1.3zm0-1.7c1.2 0 2.2-.3 2.8-.8.7-.6 1-1.3 1-2.4V53c0-1-.3-1.8-1-2.4-.7-.6-1.6-.8-2.8-.8-1.2 0-2.2.3-2.8.8-.7.6-1 1.3-1 2.4v.2c0 1 .3 1.8 1 2.4.7.5 1.6.8 2.8.8zM886.7 57.8h-2.2v-9.5h2.2l-.1 3.2.1.1v6.2zm-.1-5.2-.4-1.5h.5c.3-.9.8-1.7 1.4-2.2.7-.5 1.6-.8 2.6-.8.3 0 .7 0 .9.1s.5.1.7.2l.2 2c-.2-.1-.5-.2-.9-.2-.3-.1-.7-.1-1-.1-1 0-1.8.2-2.5.7-.6.3-1.1 1-1.5 1.8zM903.2 50.1h-9.7v-1.7h10l-.3 1.7zm-3.5 7.9c-1 0-1.9-.1-2.5-.4-.6-.3-1.1-.7-1.3-1.3s-.4-1.3-.4-2.2v-4.6h2.1v4.4c0 .8.2 1.4.6 1.8.4.4 1.1.6 2 .6.6 0 1.1-.1 1.7-.2s1.1-.3 1.5-.5l-.2 1.8c-.5.2-1 .4-1.6.5-.5.1-1.2.1-1.9.1zm-2.1-9.4h-2v-2.8l2.1-.2-.1 3zM906.8 46.6c-.4 0-.8-.1-1-.3-.2-.2-.3-.5-.3-.8 0-.3.1-.6.3-.8.2-.2.5-.3 1-.3.4 0 .8.1 1 .3.2.2.3.5.3.8 0 .3-.1.6-.3.8s-.5.3-1 .3zm1.1 11.2h-2.1v-9.5h2.1v9.5zM913.3 57.8h-2.2V44.7h2.2v13.1zM918.9 57.8h-2.2V44.7h2.2v13.1zM927.5 58.1c-1.9 0-3.4-.4-4.4-1.3s-1.5-2.1-1.5-3.7v-.2c0-1.6.5-2.8 1.5-3.6 1-.8 2.5-1.3 4.4-1.3 1.9 0 3.4.4 4.4 1.3 1 .8 1.5 2.1 1.5 3.6v.2c0 1.6-.5 2.8-1.5 3.7s-2.5 1.3-4.4 1.3zm0-1.7c1.2 0 2.2-.3 2.8-.8.7-.6 1-1.3 1-2.4V53c0-1-.3-1.8-1-2.4-.7-.6-1.6-.8-2.8-.8-1.2 0-2.2.3-2.8.8-.7.6-1 1.3-1 2.4v.2c0 1 .3 1.8 1 2.4.6.5 1.5.8 2.8.8zM938.2 57.8H936v-9.5h2.2l-.1 2.8.1.3v6.4zm8.8 0h-2.2v-5c0-.6-.1-1.1-.3-1.5-.2-.5-.5-.8-.9-1.1s-1-.4-1.8-.4c-.7 0-1.3.1-1.8.3-.5.2-.9.5-1.2.9-.3.4-.5.8-.7 1.3l-.3-1.6h.4c.2-.5.4-.9.8-1.3s.8-.7 1.4-1c.6-.3 1.3-.4 2.2-.4 1 0 1.9.2 2.5.5.6.4 1.1.9 1.4 1.6s.4 1.5.4 2.5v5.2zM952.2 57.8H950v-9.5h2.2l-.1 2.8.1.3v6.4zm8.8 0h-2.2v-5c0-.6-.1-1.1-.3-1.5-.2-.5-.5-.8-.9-1.1-.4-.3-1-.4-1.8-.4-.7 0-1.3.1-1.8.3-.5.2-.9.5-1.2.9-.3.4-.5.8-.7 1.3l-.3-1.6h.4c.2-.5.4-.9.8-1.3s.8-.7 1.4-1 1.3-.4 2.2-.4c1 0 1.9.2 2.5.5.6.4 1.1.9 1.4 1.6s.4 1.5.4 2.5v5.2zM967.2 58.1c-1.2 0-2.2-.2-2.9-.7s-1-1.2-1-2.1v-.1c0-1 .4-1.7 1.2-2.2.8-.5 2-.7 3.6-.9l4.1-.3v1.5l-4 .3c-1.1.1-1.8.2-2.2.4-.4.2-.6.5-.6 1 0 .4.2.7.6 1 .4.2 1 .3 1.8.3s1.5-.1 2.1-.3c.6-.2 1.1-.5 1.4-.9.4-.4.6-.8.7-1.2l.3 1.5h-.4c-.1.5-.4.9-.8 1.3s-.9.7-1.5 1c-.6.2-1.4.4-2.4.4zm6.9-.3H972V55l-.1-.4v-2.5c0-.8-.3-1.3-.8-1.8s-1.4-.6-2.6-.6c-1 0-1.9.1-2.7.4-.8.2-1.5.5-2.1.8l.2-1.8c.3-.2.8-.4 1.2-.5.5-.2 1-.3 1.6-.4.6-.1 1.3-.2 2-.2 1 0 1.8.1 2.5.3.7.2 1.2.5 1.6.9s.7.8.9 1.4c.2.5.3 1.1.3 1.7v5.5zM982.3 61.6h-.3c-1.2 0-2.2-.1-3.1-.2-.9-.2-1.5-.4-2-.8s-.7-.9-.7-1.5c0-.4.1-.7.3-1 .2-.3.4-.5.8-.7.3-.2.7-.3 1.1-.3V57c-.5-.1-.8-.2-1.1-.5-.3-.2-.4-.6-.4-.9 0-.3.1-.5.2-.7.1-.2.3-.4.6-.5s.6-.2 1-.2v-.3l2.6.6h-.9c-.5 0-.9.1-1.1.2-.2.1-.3.2-.3.4s.2.4.5.5c.3.1.8.2 1.6.2l3.3.2c1.3.1 2.3.3 3 .8s1 1.1 1 2c0 .7-.2 1.3-.7 1.7-.5.4-1.2.7-2.1.9-1 .1-2.1.2-3.3.2zm-.1-7.1c-1.9 0-3.3-.3-4.2-.8-.9-.6-1.4-1.3-1.4-2.4v-.1c0-.7.2-1.3.6-1.7s.9-.8 1.7-1c.7-.2 1.7-.4 2.8-.4l7.2-.3v1.6l-3.2-.1v.1c.5.1.9.2 1.2.4.3.2.5.4.7.7.2.3.2.6.2.9v.1c0 1-.5 1.7-1.4 2.2-.9.6-2.3.8-4.2.8zm0 5.4h.2c.8 0 1.5 0 2-.1s1-.2 1.3-.4c.3-.2.5-.5.5-.8 0-.4-.2-.6-.5-.8-.3-.2-.9-.3-1.6-.3l-4.2-.2.7-.1c-.4 0-.8.1-1.1.2s-.6.2-.8.4c-.2.2-.3.4-.3.7 0 .3.2.6.5.8.3.2.7.3 1.3.4.5.2 1.2.2 2 .2zm0-6.9c.8 0 1.5-.1 2-.2s.9-.3 1.1-.6.4-.6.4-.9v-.1c0-.3-.1-.6-.4-.9s-.6-.4-1.1-.6c-.5-.1-1.2-.2-2-.2h-.1c-.8 0-1.5.1-2 .2s-.9.3-1.1.5c-.2.2-.4.5-.4.9v.1c0 .3.1.6.4.9.2.3.6.4 1.1.6.6.2 1.3.3 2.1.3zM996 58.1c-2 0-3.5-.4-4.5-1.3s-1.5-2.1-1.5-3.7v-.2c0-1.6.5-2.8 1.5-3.6s2.4-1.3 4.2-1.3c1.3 0 2.3.2 3.1.6.8.4 1.5.9 1.9 1.6.4.7.6 1.5.6 2.5v.7c0 .2 0 .4-.1.5h-2c0-.2 0-.4.1-.6v-.6c0-.6-.1-1.1-.4-1.6-.3-.4-.7-.8-1.2-1-.5-.2-1.2-.3-2-.3-1.2 0-2 .3-2.6.8-.6.5-.9 1.2-.9 2.2V53.4c0 .4.1.8.2 1.2.1.4.4.7.7.9.3.3.8.5 1.3.6.5.1 1.2.2 2 .2.9 0 1.7-.1 2.5-.3.8-.2 1.5-.5 2.2-.9l-.2 1.8c-.6.4-1.3.6-2.1.8s-1.8.4-2.8.4zm4.7-4.3h-9.8v-1.6h9.8v1.6zM1008.4 58.1c-1.2 0-2.2-.1-3-.3s-1.6-.4-2.1-.7l-.2-2c.7.3 1.5.6 2.3.8s1.8.4 2.9.4c1 0 1.8-.1 2.3-.3.5-.2.8-.5.8-1 0-.3-.1-.5-.3-.7-.2-.2-.6-.3-1.1-.4-.5-.1-1.2-.2-2.1-.2-1.2-.1-2.2-.3-2.9-.5-.7-.2-1.2-.5-1.5-1s-.4-.9-.4-1.5c0-.9.4-1.6 1.2-2.1.8-.5 2-.7 3.5-.7 1.1 0 2.1.1 2.9.3.8.2 1.5.4 2 .7l.2 1.8c-.6-.3-1.4-.5-2.2-.7-.8-.2-1.8-.3-2.8-.3-.7 0-1.2 0-1.6.1s-.7.2-.9.4c-.2.2-.3.4-.3.6 0 .3.1.5.3.7.2.2.5.3 1 .4.5.1 1.2.2 2.1.3 1.2.1 2.2.2 2.9.4.7.2 1.3.5 1.6.9s.5.9.5 1.6c0 1.1-.4 1.8-1.3 2.3-.8.4-2.1.7-3.8.7z"/></g><g><path class="st4" d="M64.2 61c-3.5 0-6.5-.3-8.8-.8-2.3-.5-4.2-1.2-5.6-2.1-1.4-.9-2.3-2-2.9-3.2s-.8-2.6-.8-4v-.4c0-1.6.4-3 1.1-4.1.7-1.2 1.8-2.1 3.2-2.9s3.1-1.2 5.2-1.5v-.4c-1.9-.1-3.5-.5-4.8-1.1-1.3-.6-2.3-1.4-3-2.4s-1-2.2-1-3.6v-.4c0-2.8 1.4-5 4.2-6.6 2.8-1.6 7.3-2.5 13.4-2.5 6.3 0 10.8.8 13.6 2.5 2.8 1.6 4.2 3.8 4.2 6.6v.4c0 1.4-.3 2.6-1 3.6s-1.7 1.8-3 2.4c-1.3.6-2.9 1-4.8 1.1v.4c2.1.3 3.8.8 5.2 1.5 1.4.7 2.4 1.7 3.1 2.9.7 1.2 1 2.5 1 4.1v.4c0 1.3-.2 2.5-.7 3.7-.5 1.2-1.4 2.3-2.7 3.2-1.3 1-3.2 1.7-5.6 2.3-2.6.6-5.7.9-9.5.9zm.3-8.1c2.9 0 4.8-.3 5.8-.9 1-.6 1.5-1.3 1.5-2.2v-.1c0-.9-.6-1.6-1.7-2.1-1.2-.5-3.3-1-6.3-1.3-2.7.3-4.6.8-5.5 1.4-1 .6-1.4 1.3-1.4 2.1v.1c0 .9.5 1.7 1.6 2.2 1 .5 3 .8 6 .8zm.3-13.9c2.4-.2 4.1-.7 5.2-1.2 1.1-.6 1.6-1.3 1.6-2v-.1c0-.9-.5-1.5-1.6-2s-3-.7-5.7-.7c-2.6 0-4.4.2-5.5.7s-1.6 1.1-1.6 1.9v.2c0 .5.2 1 .6 1.4.4.4 1.2.8 2.3 1.2 1 .2 2.6.4 4.7.6zM105.5 50H86.9v-7.9h18.7V50zM126.5 25.3c6.2 0 10.8 1.5 13.8 4.6 3.1 3 4.6 7.4 4.6 13v.4c0 5.5-1.8 9.8-5.4 12.9s-8.8 4.6-15.6 4.6c-2.4 0-4.5-.2-6.5-.5s-3.7-.7-5.1-1.2l-1.2-8.8c1.5.6 3.2 1.1 5 1.5 1.8.4 3.7.6 5.7.6 4.5 0 7.7-.7 9.7-2.1 2-1.4 2.9-3.8 2.9-7.2v-.3c0-3.2-.6-5.5-1.9-6.9-1.3-1.4-3.4-2-6.2-2-2.1 0-3.7.3-4.8.9s-1.6 1.4-1.6 2.5v.2c0 1.1.5 2 1.5 2.6 1 .6 2.6.9 4.7.9 1 0 2.1-.1 3.1-.3 1-.2 2-.5 2.9-.9.9-.4 1.6-.9 2.2-1.4l1.9 3.9h-2.1c-.4 1.2-1.2 2.3-2.2 3.2-1 .9-2.3 1.6-3.9 2-1.6.5-3.6.7-5.9.7-4 0-7.2-.9-9.5-2.7-2.3-1.8-3.4-4.3-3.4-7.5v-.5c0-3.8 1.5-6.8 4.5-8.8s7.2-3.4 12.8-3.4zM168.2 50h-18.7v-7.9h18.7V50zM190.1 59.6h-10.5V35.7h-.4l-8.5 2.8.2-9.1 9.6-3.2h9.6v33.4zM214.4 60.8c-6 0-10.6-1.5-13.7-4.5-3.1-3-4.7-7.4-4.7-13.2v-.4c0-5.7 1.6-10.1 4.7-13.1s7.7-4.5 13.7-4.5c6 0 10.6 1.5 13.7 4.5 3.1 3 4.7 7.4 4.7 13.1v.4c0 5.8-1.6 10.2-4.7 13.2s-7.6 4.5-13.7 4.5zm0-8.6c2.6 0 4.5-.8 5.7-2.3 1.2-1.6 1.8-3.8 1.8-6.7v-.4c0-2.9-.6-5.1-1.8-6.7-1.2-1.6-3.1-2.3-5.7-2.3s-4.5.8-5.7 2.4c-1.2 1.6-1.8 3.8-1.8 6.7v.4c0 2.9.6 5.1 1.8 6.7s3.2 2.2 5.7 2.2zM256.4 50h-18.7v-7.9h18.7V50zM278.3 59.6h-10.5V35.7h-.4l-8.5 2.8.2-9.1 9.6-3.2h9.6v33.4zM302.3 59.6h-10.5V35.7h-.4l-8.5 2.8.2-9.1 9.6-3.2h9.6v33.4zM322.8 54.3c-.8 0-1.6-.1-2.4-.2s-1.6-.3-2.3-.5l-.5-5c.7.2 1.3.3 1.9.5.6.1 1.3.2 2 .2 1.4 0 2.4-.3 2.8-.8.5-.6.7-1.5.7-2.8V35h6v11.2c0 2.7-.7 4.7-2 6.1-1.1 1.3-3.3 2-6.2 2zM345.6 54.6c-3.6 0-6.3-.8-8.1-2.4-1.8-1.6-2.7-4-2.7-7.2V35h6v9.9c0 1.5.4 2.7 1.2 3.5s2 1.2 3.5 1.2 2.7-.4 3.5-1.2 1.2-2 1.2-3.5V35h6v10c0 3.2-.9 5.6-2.7 7.2s-4.3 2.4-7.9 2.4zM366.1 35v19h-6V35h6zM370.1 35h8.3l7.2 12.7h.3l-.2-6.6V35h5.9v19h-7.9l-7.6-13.3h-.3l.2 6.6V54h-5.9V35zM419.4 54h-17.5v-5.1l6-2.9c1.2-.6 2.2-1.1 2.9-1.6.7-.4 1.3-.9 1.6-1.3.3-.4.5-.9.5-1.4v-.1c0-.4-.1-.8-.3-1.1-.2-.3-.6-.6-1.1-.8s-1.3-.3-2.4-.3c-1.3 0-2.6.2-3.8.5-1.2.3-2.3.7-3.2 1.1l.7-5c.6-.3 1.3-.5 2-.8.8-.2 1.6-.4 2.6-.5.9-.1 2-.2 3.1-.2 2.8 0 5 .5 6.5 1.6s2.2 2.7 2.2 4.7v.2c0 .9-.2 1.8-.5 2.6s-.9 1.5-1.6 2.1c-.8.7-1.8 1.3-3.1 1.9l-2.8 1.3v1.2l-2.6-1h10.9V54zM432 54.6c-3.4 0-6-.9-7.8-2.6s-2.7-4.2-2.7-7.5v-.2c0-3.3.9-5.7 2.7-7.5 1.8-1.7 4.4-2.6 7.8-2.6s6 .9 7.8 2.6c1.8 1.7 2.7 4.2 2.7 7.5v.2c0 3.3-.9 5.8-2.7 7.5-1.7 1.8-4.3 2.6-7.8 2.6zm0-4.9c1.5 0 2.6-.4 3.2-1.3s1-2.2 1-3.8v-.2c0-1.7-.3-2.9-1-3.8s-1.8-1.3-3.2-1.3-2.6.4-3.2 1.3-1 2.2-1 3.8v.2c0 1.6.3 2.9 1 3.8.7.9 1.8 1.3 3.2 1.3zM462.1 54h-17.5v-5.1l6-2.9c1.2-.6 2.2-1.1 2.9-1.6s1.3-.9 1.6-1.3c.3-.4.5-.9.5-1.4v-.1c0-.4-.1-.8-.3-1.1s-.6-.6-1.1-.8c-.5-.2-1.3-.3-2.4-.3-1.3 0-2.6.2-3.8.5-1.2.3-2.3.7-3.2 1.1l.7-5c.6-.3 1.3-.5 2-.8.8-.2 1.6-.4 2.6-.5.9-.1 2-.2 3.1-.2 2.8 0 5 .5 6.5 1.6s2.2 2.7 2.2 4.7v.2c0 .9-.2 1.8-.5 2.6s-.9 1.5-1.6 2.1c-.8.7-1.8 1.3-3.1 1.9l-2.8 1.3v1.2l-2.6-1h10.8V54zM472.5 54.5c-1.1 0-2.1-.1-3.1-.2s-1.8-.2-2.6-.4-1.4-.3-2-.5l-.5-4.9c1 .3 2.2.6 3.5.8 1.3.2 2.7.3 4.2.3 1.2 0 2.1-.1 2.7-.2.6-.1 1-.3 1.3-.5s.3-.5.3-.9c0-.3-.1-.6-.3-.8-.2-.2-.5-.3-.9-.4s-1-.1-1.8-.2l-6.1-.1v-4.3l6-.1c.7 0 1.3-.1 1.8-.2.4-.1.7-.2.9-.4.2-.2.3-.5.3-.8 0-.5-.3-.9-.8-1.1-.5-.2-1.6-.3-3.2-.3-1.5 0-2.9.1-4.3.4-1.4.3-2.6.5-3.5.8l.5-4.6c1-.4 2.2-.7 3.5-.9 1.3-.2 2.8-.4 4.6-.4 3.1 0 5.5.4 7.1 1.3 1.6.9 2.4 2.2 2.4 3.9v.2c0 .8-.2 1.5-.5 2.1s-.8 1-1.5 1.3c-.7.3-1.6.5-2.8.6v.7l-.4-.5c2 .1 3.4.6 4.1 1.4.8.8 1.2 1.8 1.2 3.1v.2c0 1.8-.8 3.2-2.5 4.2s-4.2 1.4-7.6 1.4z"/></g></svg>