<?xml version="1.0" encoding="UTF-8"?>
<svg id="Calque_2" data-name="Calque 2" xmlns="http://www.w3.org/2000/svg" viewBox="0 0 50.5 50.5">
  <defs>
    <style>
      .cls-1 {
        stroke: #c6c6c6;
        stroke-width: .81px;
      }

      .cls-1, .cls-2 {
        fill: none;
        stroke-miterlimit: 10;
      }

      .cls-2 {
        stroke: #000;
      }

      .cls-3, .cls-4 {
        stroke-width: 0px;
      }

      .cls-4 {
        fill: #fff;
      }
    </style>
  </defs>
  <g id="Calque_1-2" data-name="Calque 1">
    <g>
      <path class="cls-4" d="m50.09,25.25c0,13.72-11.12,24.84-24.84,24.84S.41,38.97.41,25.25,11.53.41,25.25.41s24.84,11.12,24.84,24.84"/>
      <path class="cls-1" d="m50.09,25.25c0,13.72-11.12,24.84-24.84,24.84S.41,38.97.41,25.25,11.53.41,25.25.41s24.84,11.12,24.84,24.84Z"/>
      <path class="cls-4" d="m47.84,25.25c0,12.47-10.11,22.59-22.59,22.59S2.66,37.72,2.66,25.25,12.78,2.66,25.25,2.66s22.59,10.11,22.59,22.59"/>
      <circle class="cls-2" cx="25.25" cy="25.25" r="22.59"/>
      <path class="cls-3" d="m22.32,18.46v3.05h-2.24v3.73h2.24v11.11h4.59v-11.11h3.1s.05-.38.16-1.13c.1-.76.19-1.63.26-2.62h-3.49v-2.56c0-.19.1-.39.31-.59.21-.2.43-.3.68-.3h2.5v-3.89h-3.39c-2.42,0-3.81.65-4.17,1.94-.36,1.3-.55,2.08-.55,2.36"/>
    </g>
  </g>
</svg>