<?xml version="1.0" encoding="UTF-8"?>
<svg id="Calque_1" data-name="Calque 1" xmlns="http://www.w3.org/2000/svg" viewBox="0 0 72.35 66.52">
  <defs>
    <style>
      .cls-1 {
        fill: #ececec;
      }

      .cls-2 {
        fill: #f15f60;
      }
    </style>
  </defs>
  <path class="cls-1" d="m36.17,0C16.19,0,0,16.2,0,36.17v30.35h72.35v-30.35C72.35,16.2,56.15,0,36.17,0"/>
  <path class="cls-2" d="m31.59,29.55v4.77h-3.51v5.83h3.51v17.36h7.17v-17.36h4.85s.08-.59.25-1.77c.16-1.18.3-2.55.41-4.1h-5.46v-3.99c0-.3.16-.61.49-.92.33-.31.68-.47,1.06-.47h3.91v-6.07h-5.3c-3.78,0-5.95,1.01-6.52,3.04-.57,2.02-.86,3.25-.86,3.69"/>
</svg>