<svg viewBox="0 0 83.63 78.38" xmlns="http://www.w3.org/2000/svg"><path d="m80.77 41.62c-.18-.43-.43-.83-.74-1.19l-35.28-39.24c-.74-.8-1.72-1.19-2.94-1.19s-2.21.4-2.94 1.19l-35.28 39.24c-.31.37-.55.77-.74 1.19-.18.43-.28.92-.28 1.47 0 1.04.38 1.94 1.15 2.71s1.7 1.15 2.8 1.15h7.81v27.47c0 1.1.38 2.04 1.15 2.8s1.7 1.15 2.8 1.15h47.04c1.1 0 2.04-.38 2.8-1.15.77-.77 1.15-1.7 1.15-2.8v-27.47h7.81c.8 0 1.52-.22 2.16-.64.64-.43 1.12-.98 1.42-1.65.12-.25.21-.51.28-.78.06-.28.09-.54.09-.78 0-.55-.09-1.04-.28-1.47m-27.85 14.38-5.62 5.67-5.6-5.67-5.58 5.67-5.64-5.67 5.64-5.68-5.64-5.66 5.64-5.66 5.58 5.66 5.6-5.66 5.62 5.66-5.62 5.66z" fill="#fff"/></svg>