<svg viewBox="0 0 83.63 78.38" xmlns="http://www.w3.org/2000/svg"><path d="m35.7 61.42-13.82 14.35c-.36.35-.77.64-1.24.84-.47.21-.97.31-1.51.31-1.06 0-1.96-.37-2.7-1.11s-1.11-1.64-1.11-2.7v-15.33c-.12-.06-.21-.1-.27-.13s-.15-.07-.27-.13h.09c-3.31-2.07-5.95-4.7-7.93-7.88-1.98-3.19-2.97-6.67-2.97-10.45 0-3.13.71-6.05 2.13-8.77 1.36-2.77 3.23-5.18 5.62-7.22s5.21-3.68 8.46-4.92c3.19-1.18 6.61-1.77 10.28-1.77s7.09.59 10.28 1.77c3.25 1.24 6.07 2.88 8.46 4.92s4.27 4.44 5.62 7.22c1.42 2.72 2.13 5.64 2.13 8.77 0 2.6-.47 5.05-1.42 7.35-.94 2.36-2.27 4.49-3.99 6.38-1.71 1.89-3.72 3.54-6.02 4.96-2.3 1.36-4.84 2.39-7.62 3.1-.24.06-.53.13-.88.22-.36.09-.74.16-1.15.22h-.18zm-3.45-51.2c2.42-2.66 5.45-4.78 9.08-6.38 3.63-1.59 7.57-2.39 11.83-2.39 3.66 0 7.09.59 10.28 1.77 3.25 1.18 6.07 2.79 8.46 4.83s4.27 4.44 5.62 7.22c1.42 2.78 2.13 5.73 2.13 8.86 0 3.72-.99 7.17-2.97 10.36s-4.62 5.82-7.93 7.88c-.06.06-.12.12-.18.18s-.15.09-.27.09v15.32c0 1.06-.37 1.96-1.11 2.7s-1.64 1.11-2.7 1.11c-.53 0-1.03-.1-1.51-.31-.47-.21-.89-.49-1.24-.84l-4.25-4.43c2.01-2.36 3.57-4.99 4.7-7.88 1.12-2.89 1.68-5.93 1.68-9.12 0-3.84-.83-7.44-2.48-10.81-1.59-3.42-3.82-6.44-6.69-9.04-2.86-2.6-6.21-4.7-10.05-6.29s-7.97-2.54-12.4-2.84" fill="#fff"/></svg>