<svg viewBox="0 0 72.35 66.52" xmlns="http://www.w3.org/2000/svg"><path d="m36.17 0c-19.97 0-36.17 16.2-36.17 36.17v30.35h72.35v-30.35c0-19.97-16.2-36.17-36.18-36.17" fill="#ebebeb"/><path d="m51.72 46.84c.55 0 1 .18 1.36.55.36.36.55.82.55 1.36v6.82c0 .55-.18 1-.55 1.36-.36.36-.82.54-1.36.54-9.09 0-16.87-3.23-23.32-9.68-6.46-6.46-9.68-14.23-9.68-23.32 0-.55.18-1 .55-1.36.36-.36.82-.54 1.36-.54h6.82c.54 0 1 .18 1.36.54s.55.82.55 1.36v.09c0 2.49.36 4.76 1.09 6.82.12.24.18.45.18.64 0 .61-.21 1.06-.64 1.36l-4.27 4.27c1.21 2.3 3.08 4.71 5.59 7.23 2.52 2.51 4.92 4.38 7.23 5.59l4.27-4.27c.42-.42.88-.64 1.36-.64.18 0 .39.06.64.18 2.18.73 4.49 1.09 6.91 1.09m-2-6.82c0-3.76-1.32-6.96-3.96-9.59-2.64-2.64-5.83-3.95-9.59-3.95v-3.91c4.85 0 8.97 1.7 12.37 5.09 3.39 3.39 5.09 7.52 5.09 12.37h-3.91zm-7.73 0c0-1.58-.58-2.94-1.73-4.09s-2.52-1.73-4.09-1.73v-3.91c2.67 0 4.96.95 6.86 2.86 1.91 1.91 2.86 4.2 2.86 6.86h-3.91z" fill="#ea5e61"/></svg>