<?xml version="1.0" encoding="UTF-8" standalone="no"?>
<!DOCTYPE svg PUBLIC "-//W3C//DTD SVG 1.1//EN" "http://www.w3.org/Graphics/SVG/1.1/DTD/svg11.dtd">
<svg width="100%" height="100%" viewBox="0 0 73 67" version="1.1" xmlns="http://www.w3.org/2000/svg" xmlns:xlink="http://www.w3.org/1999/xlink" xml:space="preserve" xmlns:serif="http://www.serif.com/" style="fill-rule:evenodd;clip-rule:evenodd;stroke-linejoin:round;stroke-miterlimit:2;">
    <path d="M36.17,0C16.2,0 0,16.2 0,36.17L0,66.52L72.35,66.52L72.35,36.17C72.35,16.2 56.15,0 36.17,0" style="fill:rgb(235,235,235);fill-rule:nonzero;"/>
    <g transform="matrix(0.0738809,0,0,0.0738809,17.3464,20.9368)">
        <path d="M389.2,48L459.8,48L305.6,224.2L487,464L345,464L233.7,318.6L106.5,464L35.8,464L200.7,275.5L26.8,48L172.4,48L272.9,180.9L389.2,48ZM364.4,421.8L403.5,421.8L151.1,88L109.1,88L364.4,421.8Z" style="fill:rgb(234,94,97);fill-rule:nonzero;"/>
    </g>
</svg>
