<svg viewBox="0 0 72.35 66.52" xmlns="http://www.w3.org/2000/svg"><path d="m36.17 0c-19.97 0-36.17 16.2-36.17 36.17v30.35h72.35v-30.35c0-19.97-16.2-36.17-36.18-36.17" fill="#ebebeb"/><path d="m53.01 29.68c-.6.27-1.24.5-1.92.69s-1.39.33-2.12.41l-.08.04c.73-.46 1.37-1.02 1.91-1.67s.95-1.38 1.22-2.2v-.04c-.65.38-1.35.72-2.1 1.02s-1.53.53-2.34.69h-.08c-.65-.68-1.43-1.21-2.32-1.61-.9-.39-1.85-.59-2.85-.59h-.04c-1.96 0-3.63.69-5.03 2.06s-2.1 3.02-2.1 4.95c0 .27.01.54.04.82.03.27.08.53.16.77-1.49-.05-2.93-.27-4.32-.65s-2.7-.88-3.93-1.51c-1.24-.62-2.4-1.37-3.48-2.24-1.09-.87-2.08-1.83-2.97-2.89v-.04c-.3.52-.54 1.07-.71 1.67-.18.6-.26 1.21-.26 1.83v.04c0 1.22.29 2.34.88 3.36.58 1.02 1.35 1.84 2.3 2.46-.6 0-1.17-.08-1.71-.24s-1.06-.38-1.55-.65l.04.04v.08c0 1.68.54 3.17 1.63 4.46s2.45 2.1 4.08 2.42c-.27.08-.57.14-.9.18s-.65.06-.98.06c-.24 0-.48-.01-.69-.04-.22-.03-.43-.05-.65-.08.49 1.41 1.34 2.57 2.55 3.48s2.57 1.37 4.1 1.37c-1.2.95-2.55 1.69-4.05 2.22s-3.09.8-4.75.8h-.04c-.3 0-.58 0-.85-.02-.27-.01-.56-.03-.86-.06 1.55.98 3.25 1.75 5.09 2.3 1.85.56 3.79.83 5.83.83h.04c3.26 0 6.15-.6 8.68-1.79 2.53-1.22 4.65-2.79 6.38-4.71s3.02-4.05 3.89-6.42c.9-2.39 1.34-4.74 1.34-7.05l-.04-.94c.71-.49 1.36-1.03 1.96-1.63s1.13-1.24 1.59-1.92l.04-.08z" fill="#ea5e61"/></svg>