<?xml version="1.0" encoding="UTF-8"?><svg id="a" xmlns="http://www.w3.org/2000/svg" viewBox="0 0 106.84 85.54"><defs><style>.b{fill:#fff;}</style></defs><polygon class="b" points="89.19 18.1 89.19 15.83 81.91 15.83 81.91 15.84 81.8 15.84 81.8 29.79 81.82 29.79 81.82 29.8 89.09 29.8 89.09 27.53 83.99 27.53 83.99 23.51 88.07 23.51 88.07 21.22 83.99 21.22 83.99 18.1 89.19 18.1"/><path class="b" d="m32.6,15.82v.02l-.02-.02-.11.3-5.84,13.7h2.41l.94-2.29h5.25l.94,2.29h2.41l-5.84-13.7-.11-.3h-.02Zm-1.73,9.51l1.73-4.23,1.73,4.23h-3.46,0Z"/><polygon class="b" points="75.43 24.17 67.8 15.82 67.8 15.85 67.79 15.84 67.79 17.68 67.79 19.01 67.79 19.02 67.79 29.75 69.99 29.75 69.99 21.45 75.71 27.78 75.72 27.77 77.63 29.82 77.63 15.84 75.43 15.84 75.43 24.17"/><path class="b" d="m63.72,24.55h0v-8.74h-2.19v8.65h0v.09h0c0,.52-.15,3.08-2.65,3.08h-.24c-2.53,0-2.65-2.6-2.65-3.1h0v-.07h0v-8.65h-2.19v8.67h0v.91s-.15,4.43,4.84,4.43h.26c4.99,0,4.83-4.43,4.83-4.43v-.84h0Z"/><polygon class="b" points="19.02 23.57 18.53 22.83 19.02 22.01 19.02 15.8 16.8 15.8 16.8 22.01 16.31 22.83 16.8 23.57 16.8 29.82 17.17 29.82 17.17 29.82 25.59 29.82 25.59 27.63 19.02 27.63 19.02 23.57"/><polygon class="b" points="45.11 23.57 44.62 22.83 45.11 22.01 45.11 15.8 42.88 15.8 42.88 22.01 42.4 22.83 42.88 23.57 42.88 29.82 43.26 29.82 43.26 29.82 51.68 29.82 51.68 27.63 45.11 27.63 45.11 23.57"/><path class="b" d="m20.73,35.54h-3.82v6.15l-.49.81.49.73v6.2h4.02s6.7.07,6.7-7.03-6.89-6.85-6.89-6.85m0,11.77h-1.58v-4.08l-.49-.73.49-.81v-3.97h1.51s4.63.61,4.63,4.69-4.56,4.89-4.56,4.89"/><path class="b" d="m45.95,41.36c-1.2-.51-2.73-1.06-2.73-2.17s.58-1.54,1.5-1.65,2.37.88,2.37.88l1.2-1.62s-.87-1.14-3.35-1.25c-2.47-.12-3.64,1.83-3.82,3.45s.58,2.14,1.68,3.05c1.09.92,4.45,1.8,4.4,3.3-.03,1.5-1.05,1.95-2.33,1.95s-3.16-1.69-3.16-1.69l-1.53,1.54c.87.88,2.55,2.28,4.73,2.28s4.52-1.47,4.52-4.04-2.26-3.53-3.46-4.04"/><polygon class="b" points="30.22 35.51 30.1 35.51 30.1 49.45 30.11 49.45 30.11 49.46 37.39 49.46 37.39 47.18 32.29 47.18 32.29 43.2 36.43 43.2 36.43 40.89 32.29 40.89 32.29 37.76 37.49 37.76 37.49 35.49 30.22 35.49 30.22 35.51"/><polygon class="b" points="28.5 61.62 27.99 62.48 28.5 63.25 28.5 69.72 30.85 69.72 30.85 63.25 30.34 62.48 30.85 61.62 30.85 55.2 28.5 55.2 28.5 61.62"/><path class="b" d="m53.33,54.73v.02l-.02-.02-.12.33-6.25,14.64h2.57l.93-2.27h5.77l.93,2.27h2.57l-6.25-14.65-.12-.33h0Zm-1.95,10.39l1.94-4.74,1.93,4.74s-3.87,0-3.87,0Z"/><path class="b" d="m21.51,55.24l-.85-.02h-3.94v.02h-.02v14.48h2.35v-3.85h2.47s4.74.16,4.74-5.17v-.28c0-5.34-4.74-5.17-4.74-5.17m2.39,5.44c0,2.63-2.62,2.82-3.25,2.83h-1.61v-5.95h1.61c.75.03,3.26.33,3.26,2.87v.25h-.02Z"/><path class="b" d="m39.44,55.22l-1.05-.02h-3.82v.02h0v14.48h2.35v-4.3l3.61,4.31,3.3.02-3.68-4.42c1.33-.24,4.01-1.19,4.01-4.93v-.26c0-4.96-4.72-4.91-4.72-4.91m2.37,5.16c0,2.44-2.62,2.67-3.25,2.69h-1.65v-5.51h1.48s3.43-.19,3.43,2.59v.24h0Z"/><path class="b" d="m86.34,61.28c-1.22-.53-2.77-1.11-2.77-2.26s.59-1.61,1.51-1.73c.92-.12,2.4.92,2.4.92l1.22-1.68s-.89-1.19-3.39-1.31c-2.51-.12-3.69,1.92-3.87,3.61-.18,1.68.59,2.23,1.69,3.19,1.11.95,4.5,1.88,4.46,3.45s-1.07,2.03-2.36,2.03-3.2-1.77-3.2-1.77l-1.54,1.61c.89.92,2.58,2.37,4.79,2.37s4.58-1.54,4.58-4.22-2.28-3.68-3.5-4.22"/><polygon class="b" points="70.99 55.16 70.86 55.16 70.86 69.72 70.89 69.72 70.89 69.74 78.48 69.74 78.48 67.36 73.16 67.36 73.16 63.2 77.59 63.2 77.59 60.79 73.16 60.79 73.16 57.52 78.59 57.52 78.59 55.14 70.99 55.14 70.99 55.16"/><polygon class="b" points="65.04 55.19 62.69 55.19 62.69 55.21 59.2 55.21 59.2 57.55 62.69 57.55 62.69 61.62 62.18 62.46 62.69 63.22 62.69 69.7 65.04 69.7 65.04 63.22 64.53 62.46 65.04 61.62 65.04 57.55 68.63 57.55 68.63 55.21 65.04 55.21 65.04 55.19"/><polygon class="b" points="4.88 11.26 4 12.58 4.88 14.04 4.88 25.22 .88 25.22 .88 14.04 0 12.58 .88 11.26 .88 0 1.54 0 1.54 0 25.74 0 25.74 3.94 4.88 3.94 4.88 11.26"/><polygon class="b" points="101.96 74.27 102.84 72.95 101.96 71.49 101.96 60.31 105.97 60.31 105.97 71.49 106.84 72.95 105.97 74.27 105.97 85.53 105.3 85.53 105.3 85.54 81.11 85.54 81.11 81.59 101.96 81.59 101.96 74.27"/></svg>