<?xml version="1.0" encoding="UTF-8"?><svg id="a" xmlns="http://www.w3.org/2000/svg" viewBox="0 0 631.98 77.53"><defs><style>.b{fill:#fff;}</style></defs><path class="b" d="m313.31,26.23v-6.06h-19.36v.05h-.33v37.11h.05v.03h19.36v-6.06h-13.56v-10.68h10.85v-6.07h-10.85v-8.32h13.84Z"/><path class="b" d="m162.73,20.16l-.03.07-.03-.07-.29.81-15.56,36.45h6.4l2.49-6.11h13.96l2.49,6.11h6.4l-15.55-36.45-.29-.81h0Zm-4.62,25.31l4.6-11.27,4.6,11.27h-9.2Z"/><path class="b" d="m276.7,42.38l-20.32-22.22v.09-.02s-.01,4.89-.01,4.89l-.02,3.55h.02v28.55h5.84v-22.08l15.23,16.84.02-.02,5.08,5.46V20.23h-5.84v22.15Z"/><path class="b" d="m245.53,43.4v-23.26h-5.84v23.26c0,1.37-.39,8.21-7.07,8.21l-.63-.03c-6.73,0-7.04-6.91-7.04-8.21v-23.23h-5.84v23.07h0v2.42s-.4,11.79,12.88,11.79h.69c13.28,0,12.86-11.79,12.86-11.79v-2.22h0Z"/><path class="b" d="m126.59,40.77l-1.3-1.96,1.3-2.17v-16.52h-5.91v16.52l-1.3,2.17,1.3,1.96v16.65h23.39v-5.84h-17.48v-10.81Z"/><path class="b" d="m196.01,40.77l-1.3-1.96,1.3-2.17v-16.52h-5.91v16.52l-1.3,2.17,1.3,1.96v16.65h23.39v-5.84h-17.48v-10.81Z"/><path class="b" d="m475.69,37.19l-1.31,2.19,1.31,1.98v16.46h5.99v-16.46l-1.32-1.98,1.32-2.19v-16.34h-5.99v16.34Z"/><path class="b" d="m538.93,19.66l-.03.07-.03-.07-.3.84-15.92,37.31h6.55l2.36-5.78h14.68l2.36,5.78h6.55l-15.92-37.32-.3-.84h0Zm-4.96,26.46l4.93-12.08,4.93,12.08h-9.86Z"/><path class="b" d="m349.37,20.83h-10.18v16.36l-1.32,2.14,1.32,1.94v16.49h10.68s17.81.18,17.81-18.7-18.32-18.24-18.32-18.24m0,31.3h-4.19v-10.85l-1.32-1.94,1.32-2.14v-10.55h4.02s12.3,1.61,12.3,12.48-12.13,13-12.13,13"/><path class="b" d="m457.88,20.95l-2.18-.07h-10.02v.05h-.05v36.89h5.99v-9.82h6.26s12.08.43,12.08-13.16v-.71c0-13.6-12.08-13.17-12.08-13.17m6.1,13.86c0,6.69-6.67,7.19-8.28,7.21v-.02h-4.09v-15.16h4.09c1.9.08,8.31.83,8.31,7.31l-.03.65h0Z"/><path class="b" d="m503.56,20.89l-2.67-.04h-9.73v.06h-.03v36.89h5.98v-10.94l9.2,10.96,8.41.04-9.37-11.26c3.39-.62,10.22-3.04,10.22-12.55v-.66c0-12.64-12.02-12.5-12.02-12.5m6.05,13.15c0,6.23-6.68,6.81-8.28,6.85v-.02h-4.2v-14.03h3.77v.02s8.74-.49,8.74,6.57l-.03.6h0Z"/><path class="b" d="m416.48,36.31c-3.2-1.36-7.27-2.83-7.27-5.76s1.55-4.1,3.97-4.4c2.42-.29,6.29,2.35,6.29,2.35l3.2-4.3s-2.33-3.03-8.91-3.32c-6.59-.3-9.69,4.88-10.17,9.19-.49,4.3,1.55,5.67,4.46,8.12,2.9,2.44,11.82,4.79,11.72,8.8s-2.81,5.18-6.2,5.18-8.43-4.5-8.43-4.5l-4.07,4.11c2.33,2.34,6.79,6.06,12.6,6.06s12.02-3.91,12.02-10.76-6.01-9.39-9.21-10.76"/><path class="b" d="m623.05,36.33c-3.1-1.36-7.04-2.83-7.04-5.76s1.5-4.1,3.85-4.4,6.11,2.35,6.11,2.35l3.1-4.3s-2.26-3.03-8.64-3.32c-6.39-.29-9.39,4.89-9.87,9.18-.47,4.3,1.5,5.66,4.32,8.11,2.82,2.44,11.46,4.79,11.37,8.79-.1,4.01-2.72,5.18-6.01,5.18s-8.17-4.49-8.17-4.49l-3.95,4.1c2.25,2.35,6.58,6.06,12.21,6.06s11.65-3.91,11.65-10.74-5.83-9.38-8.92-10.75"/><path class="b" d="m583.94,20.75h-.33v37.09h.05v.03h19.36v-6.05h-13.57v-10.6h11.31v-6.15h-11.31v-8.32h13.85v-6.05h-19.36v.05Z"/><path class="b" d="m374.62,20.75h-.32v37.09h.05v.03h19.35v-6.05h-13.56v-10.6h11.01v-6.15h-11.01v-8.32h13.84v-6.05h-19.36v.05Z"/><path class="b" d="m568.77,20.83h-5.98v.02h-8.9v5.99h8.9v10.35l-1.31,2.14,1.31,1.94v16.49h5.98v-16.49l-1.31-1.94,1.31-2.14v-10.35h9.15v-5.99h-9.15v-.02Z"/><path class="b" d="m38.39,0C17.21,0,0,17.4,0,38.77s17.22,38.76,38.39,38.76,38.38-17.39,38.38-38.76S59.54,0,38.39,0m23.38,34.91l-3.3,3.33-3.29-3.33-3.28,3.33-3.31-3.33,3.31-3.34-3.31-3.33,3.31-3.33,3.28,3.33,3.29-3.33,3.3,3.33-3.3,3.33,3.3,3.34Zm-23.38,36.01c-17.55,0-31.84-14.43-31.84-32.15S20.84,6.63,38.39,6.63v64.28h0Z"/><path class="b" d="m24.02,36.3c2.32,0,4.21-1.9,4.21-4.25s-1.89-4.26-4.21-4.26-4.21,1.91-4.21,4.26,1.88,4.25,4.21,4.25"/></svg>