<?xml version="1.0" encoding="UTF-8"?>
<svg id="Calque_1" data-name="Calque 1" xmlns="http://www.w3.org/2000/svg" viewBox="0 0 631.98 77.53">
  <defs>
    <style>
      .cls-1 {
        fill: #fff;
      }
    </style>
  </defs>
  <polygon class="cls-1" points="313.31 26.23 313.31 20.17 293.95 20.17 293.95 20.22 293.63 20.22 293.63 57.33 293.67 57.33 293.67 57.36 313.03 57.36 313.03 51.3 299.47 51.3 299.47 40.62 310.32 40.62 310.32 34.54 299.47 34.54 299.47 26.23 313.31 26.23"/>
  <path class="cls-1" d="m162.73,20.16l-.03.07-.03-.07-.29.81-15.55,36.45h6.4l2.49-6.11h13.96l2.49,6.11h6.4l-15.55-36.45-.29-.81Zm-4.62,25.31l4.6-11.27,4.6,11.27h-9.2Z"/>
  <polygon class="cls-1" points="276.7 42.38 256.38 20.16 256.38 20.25 256.37 20.23 256.37 25.12 256.35 28.67 256.37 28.68 256.37 57.22 262.21 57.22 262.21 35.14 277.44 51.98 277.46 51.96 282.54 57.42 282.54 20.23 276.7 20.23 276.7 42.38"/>
  <path class="cls-1" d="m245.53,43.4h0v-23.26h-5.84v23.02h0v.24h0c0,1.37-.39,8.21-7.07,8.21l-.63-.03c-6.73,0-7.04-6.91-7.04-8.21h0v-.12c0-.06,0-.09,0-.09h0v-23.02h-5.84v23.07h-.01v2.42s-.4,11.79,12.88,11.79h.69c13.28,0,12.86-11.79,12.86-11.79v-2.22Z"/>
  <polygon class="cls-1" points="126.59 40.77 125.29 38.81 126.59 36.64 126.59 20.12 120.68 20.12 120.68 36.64 119.38 38.81 120.68 40.77 120.68 57.42 121.66 57.42 121.66 57.42 144.07 57.42 144.07 51.58 126.59 51.58 126.59 40.77"/>
  <polygon class="cls-1" points="196.01 40.77 194.71 38.81 196.01 36.64 196.01 20.12 190.1 20.12 190.1 36.64 188.8 38.81 190.1 40.77 190.1 57.42 191.08 57.42 191.08 57.42 213.49 57.42 213.49 51.58 196.01 51.58 196.01 40.77"/>
  <polygon class="cls-1" points="475.69 37.19 474.38 39.38 475.69 41.36 475.69 57.82 481.68 57.82 481.68 41.36 480.36 39.38 481.68 37.19 481.68 20.85 475.69 20.85 475.69 37.19"/>
  <path class="cls-1" d="m538.93,19.66l-.03.07-.03-.07-.3.84-15.93,37.31h6.55l2.36-5.78h14.68l2.36,5.78h6.55l-15.92-37.32-.3-.84Zm-4.96,26.46l4.93-12.08,4.93,12.08h-9.86Z"/>
  <path class="cls-1" d="m349.37,20.83h-10.17v16.36l-1.32,2.14,1.32,1.94v16.49h10.68s17.81.18,17.81-18.7-18.32-18.24-18.32-18.24m0,31.3h-4.19v-10.85l-1.32-1.94,1.32-2.14v-10.55h4.02s12.3,1.61,12.3,12.48-12.14,13-12.14,13"/>
  <path class="cls-1" d="m457.88,20.95l-2.18-.07h0s-.24,0-.24,0h-.28s0,0,0,0h-9.5v.04h-.05v36.89h5.98v-9.82h3.74s2.52.01,2.52.01c0,0,12.08.42,12.08-13.17v-.71c0-13.6-12.08-13.17-12.08-13.17m6.1,13.86c0,6.69-6.67,7.19-8.28,7.21v-.02h-4.09v-15.15h4.09c1.9.08,8.31.83,8.31,7.31l-.03.65Z"/>
  <path class="cls-1" d="m503.56,20.89l-2.67-.04h0s-9.73,0-9.73,0v.06h-.03v36.89h5.99v-10.94l9.2,10.96,8.41.04-9.37-11.26c3.39-.62,10.22-3.04,10.22-12.55v-.66c0-12.64-12.02-12.5-12.02-12.5m6.05,13.15c0,6.22-6.68,6.8-8.28,6.85v-.02h-4.2v-14.03h3.77v.02s8.74-.49,8.74,6.57l-.03.6Z"/>
  <path class="cls-1" d="m416.48,36.31c-3.2-1.36-7.27-2.83-7.27-5.77s1.55-4.1,3.97-4.4c2.42-.29,6.29,2.35,6.29,2.35l3.2-4.3s-2.33-3.03-8.91-3.32c-6.59-.29-9.69,4.88-10.17,9.19-.49,4.3,1.55,5.67,4.46,8.12,2.9,2.44,11.82,4.79,11.72,8.8-.1,4.01-2.81,5.18-6.2,5.18s-8.43-4.5-8.43-4.5l-4.07,4.11c2.33,2.34,6.79,6.06,12.6,6.06s12.02-3.91,12.02-10.76-6.01-9.39-9.21-10.76"/>
  <path class="cls-1" d="m623.05,36.33c-3.1-1.36-7.04-2.83-7.04-5.76s1.5-4.1,3.85-4.39c2.35-.3,6.11,2.34,6.11,2.34l3.09-4.3s-2.26-3.03-8.64-3.32c-6.39-.29-9.39,4.89-9.87,9.18-.47,4.3,1.5,5.66,4.32,8.11,2.82,2.44,11.46,4.79,11.37,8.79-.1,4.01-2.72,5.18-6.01,5.18s-8.17-4.49-8.17-4.49l-3.95,4.1c2.25,2.35,6.58,6.06,12.21,6.06s11.65-3.91,11.65-10.74-5.83-9.38-8.92-10.75"/>
  <polygon class="cls-1" points="583.94 20.75 583.61 20.75 583.61 57.84 583.66 57.84 583.66 57.87 603.02 57.87 603.02 51.82 589.45 51.82 589.45 41.22 600.76 41.22 600.76 35.07 589.45 35.07 589.45 26.75 603.3 26.75 603.3 20.7 583.94 20.7 583.94 20.75"/>
  <polygon class="cls-1" points="374.62 20.75 374.3 20.75 374.3 57.84 374.35 57.84 374.35 57.87 393.7 57.87 393.7 51.82 380.14 51.82 380.14 41.22 391.15 41.22 391.15 35.07 380.14 35.07 380.14 26.75 393.98 26.75 393.98 20.7 374.62 20.7 374.62 20.75"/>
  <polygon class="cls-1" points="568.77 20.83 562.79 20.83 562.79 20.85 553.89 20.85 553.89 26.84 562.79 26.84 562.79 37.19 561.48 39.33 562.79 41.27 562.79 57.76 568.77 57.76 568.77 41.27 567.46 39.33 568.77 37.19 568.77 26.84 577.92 26.84 577.92 20.85 568.77 20.85 568.77 20.83"/>
  <path class="cls-1" d="m38.39,0C17.22,0,0,17.4,0,38.77s17.22,38.76,38.39,38.76,38.38-17.39,38.38-38.76S59.54,0,38.39,0m23.38,34.91l-3.3,3.34-3.29-3.34-3.28,3.34-3.31-3.34,3.31-3.34-3.31-3.33,3.31-3.33,3.28,3.33,3.29-3.33,3.3,3.33-3.3,3.33,3.3,3.34Zm-23.38,36.01c-17.55,0-31.84-14.43-31.84-32.15S20.84,6.63,38.39,6.63v64.28Z"/>
  <path class="cls-1" d="m24.02,36.3c2.32,0,4.21-1.91,4.21-4.25s-1.89-4.26-4.21-4.26-4.21,1.91-4.21,4.26,1.88,4.25,4.21,4.25"/>
</svg>