<?xml version="1.0" encoding="UTF-8"?>
<svg id="Calque_1" data-name="Calque 1" xmlns="http://www.w3.org/2000/svg" viewBox="0 0 72.35 66.52">
  <defs>
    <style>
      .cls-1 {
        fill: #ececec;
      }

      .cls-2 {
        fill: #f15f60;
      }
    </style>
  </defs>
  <path class="cls-1" d="m36.17,0C16.19,0,0,16.2,0,36.17v30.35h72.35v-30.35C72.35,16.2,56.15,0,36.17,0"/>
  <path class="cls-2" d="m47.34,31.22c0,.6-.21,1.11-.63,1.53-.42.42-.93.63-1.53.63s-1.11-.21-1.53-.63c-.42-.42-.63-.93-.63-1.53s.21-1.11.63-1.53c.42-.42.93-.63,1.53-.63s1.11.21,1.53.63c.42.42.63.93.63,1.53m-11.17,14.39c-1.52,0-2.81-.54-3.87-1.61-1.06-1.07-1.59-2.36-1.59-3.85s.53-2.82,1.59-3.89c1.06-1.07,2.35-1.61,3.87-1.61s2.82.54,3.89,1.61c1.07,1.07,1.61,2.37,1.61,3.89s-.54,2.78-1.61,3.85c-1.07,1.07-2.37,1.61-3.89,1.61m0-14.47c-1.22,0-2.38.24-3.46.73-1.11.46-2.07,1.1-2.87,1.91-.8.82-1.45,1.77-1.93,2.85-.46,1.09-.69,2.26-.69,3.51s.23,2.38.69,3.46c.49,1.09,1.13,2.04,1.93,2.85.8.82,1.76,1.45,2.87,1.91,1.09.49,2.24.73,3.46.73s2.42-.23,3.51-.69c1.09-.49,2.04-1.14,2.85-1.96s1.45-1.77,1.91-2.85c.49-1.09.73-2.24.73-3.46s-.24-2.42-.73-3.51c-.46-1.09-1.1-2.04-1.91-2.85s-1.77-1.45-2.85-1.91c-1.09-.49-2.26-.73-3.51-.73m13.86,16.02c0,1.88-.66,3.49-2,4.83-1.33,1.34-2.95,2.02-4.85,2.02h-14.02c-1.9,0-3.52-.67-4.85-2.02-1.33-1.35-2-2.96-2-4.83v-14.06c0-1.88.67-3.49,2-4.83,1.33-1.35,2.95-2.02,4.85-2.02h14.02c1.9,0,3.52.67,4.85,2.02,1.33,1.35,2,2.96,2,4.83v14.06Zm-6.85-24.37h-14.02c-1.41,0-2.76.27-4.04.82-1.25.54-2.34,1.28-3.28,2.22-.94.94-1.68,2.03-2.22,3.28-.54,1.25-.82,2.58-.82,3.99v14.06c0,1.41.27,2.74.82,3.99.54,1.28,1.28,2.38,2.22,3.32.94.94,2.03,1.66,3.28,2.18,1.28.54,2.62.83,4.04.86h14.02c1.44-.03,2.78-.31,4.03-.86,1.25-.52,2.34-1.24,3.28-2.18.94-.94,1.68-2.05,2.22-3.32.54-1.25.82-2.58.82-3.99v-14.06c0-1.41-.27-2.74-.82-3.99-.54-1.28-1.28-2.38-2.22-3.3-.94-.92-2.03-1.66-3.28-2.2-1.25-.54-2.59-.82-4.03-.82"/>
</svg>