<svg viewBox="0 0 83.63 78.38" xmlns="http://www.w3.org/2000/svg"><path d="m11.01 23.51 25.24-16.43c.79-.53 1.65-.94 2.58-1.23s1.92-.44 2.98-.44 2.05.15 2.98.44 1.79.7 2.58 1.23l25.25 16.43c.95.64 1.71 1.46 2.26 2.46.56 1.01.83 2.09.83 3.26v36.99c0 1.85-.66 3.44-1.98 4.76s-2.94 1.98-4.84 1.98h-54.15c-1.91 0-3.52-.66-4.84-1.98s-1.98-2.91-1.98-4.76v-36.99c0-1.16.28-2.25.83-3.26s1.31-1.8 2.26-2.38zm57.88 5.72v7.38l-20.24 18.1c-.9.79-1.93 1.43-3.1 1.9-1.16.48-2.41.71-3.73.71s-2.49-.24-3.65-.71c-1.16-.48-2.2-1.11-3.1-1.9l-20.32-18.1v-7.38 36.99h54.14zm-53.03-.72 23.74 21.12c.32.32.66.54 1.03.67s.77.2 1.19.2c.48 0 .9-.07 1.27-.2s.71-.36 1.03-.67l23.74-21.12-24.21-15.8c-.26-.16-.54-.29-.83-.4s-.62-.16-.99-.16-.7.05-.99.16c-.29.1-.57.24-.83.4l-24.13 15.8z" fill="#fff"/></svg>