<svg viewBox="0 0 62.92 62.92" xmlns="http://www.w3.org/2000/svg"><path d="m59.69 32.91c0 15.59-12.64 28.23-28.23 28.23s-28.23-12.63-28.23-28.23 12.64-28.23 28.23-28.23 28.23 12.64 28.23 28.23z" fill="none" stroke="#000" stroke-miterlimit="10" stroke-width=".8"/><path d="m36.06 29.46c-.36 0-.64.11-.85.32s-.31.49-.31.83c0 .97-.33 1.78-1 2.45-.66.66-1.48.99-2.44.99s-1.78-.33-2.45-.99c-.66-.66-.99-1.48-.99-2.45 0-.34-.1-.62-.31-.83-.21-.22-.49-.32-.85-.32s-.61.11-.82.32-.31.49-.31.83c0 .81.14 1.56.43 2.26.31.7.71 1.3 1.22 1.81s1.12.92 1.81 1.22c.7.29 1.45.43 2.26.43s1.56-.14 2.26-.43c.7-.3 1.3-.71 1.81-1.22s.92-1.11 1.22-1.81c.29-.7.43-1.45.43-2.26 0-.34-.1-.62-.31-.83-.21-.22-.48-.32-.82-.32m3.44 13.76h-16.07c-.34 0-.61-.1-.82-.31s-.31-.48-.31-.82v-14.92h18.33v14.92c0 .34-.1.61-.31.82s-.48.31-.82.31m-14.35-20.64h12.63l1.72 2.31h-16.07zm17.66 2.98s0-.02-.01-.05c0-.04-.04-.05-.09-.05 0 0 0-.02-.01-.05 0-.04-.04-.05-.09-.05l-3.44-4.6c-.05-.18-.16-.3-.31-.36s-.32-.09-.5-.09h-13.76c-.18 0-.35.03-.51.09s-.3.18-.4.36l-3.44 4.6s0 .02-.01.05c0 .04-.04.05-.09.05 0 0 0 .02-.01.05 0 .04-.05.05-.12.05v16.53c0 .97.33 1.78.99 2.45.66.66 1.48.99 2.45.99h16.07c.97 0 1.78-.33 2.45-.99.66-.66.99-1.48.99-2.45v-16.07c0-.05 0-.11-.01-.17 0-.06-.05-.16-.12-.28" fill="#010101"/><path d="m62.52 31.46c0 17.15-13.9 31.06-31.06 31.06s-31.05-13.91-31.05-31.06 13.9-31.05 31.05-31.05 31.06 13.9 31.06 31.06" fill="#fff"/><circle cx="31.46" cy="31.46" fill="none" r="31.06" stroke="#c7c6c6" stroke-miterlimit="10" stroke-width=".81" transform="matrix(.38268343 -.92387953 .92387953 .38268343 -9.64 48.49)"/><path d="m59.69 31.46c0 15.59-12.64 28.23-28.23 28.23s-28.23-12.64-28.23-28.23 12.64-28.23 28.23-28.23 28.23 12.64 28.23 28.23" fill="#fff"/><path d="m59.69 31.46c0 15.59-12.64 28.23-28.23 28.23s-28.23-12.64-28.23-28.23 12.64-28.23 28.23-28.23 28.23 12.64 28.23 28.23z" fill="none" stroke="#010101" stroke-miterlimit="10"/><path d="m36.06 28.01c-.36 0-.64.11-.85.32s-.31.49-.31.83c0 .97-.33 1.78-1 2.45-.66.66-1.48.99-2.44.99s-1.78-.33-2.45-.99c-.66-.66-.99-1.48-.99-2.45 0-.34-.1-.62-.31-.83-.21-.22-.49-.32-.85-.32s-.61.11-.82.32-.31.49-.31.83c0 .81.14 1.56.43 2.26.31.7.71 1.3 1.22 1.81s1.12.92 1.81 1.22c.7.29 1.45.43 2.26.43s1.56-.14 2.26-.43c.7-.3 1.3-.71 1.81-1.22s.92-1.11 1.22-1.81c.29-.7.43-1.45.43-2.26 0-.34-.1-.62-.31-.83-.21-.22-.48-.32-.82-.32m3.44 13.76h-16.07c-.34 0-.61-.1-.82-.31s-.31-.48-.31-.82v-14.92h18.33v14.92c0 .34-.1.61-.31.82s-.48.31-.82.31m-14.35-20.64h12.63l1.72 2.31h-16.07zm17.66 2.98s0-.02-.01-.05c0-.04-.04-.05-.09-.05v-.05s-.05-.05-.11-.05l-3.44-4.6c-.05-.18-.16-.3-.31-.36s-.32-.09-.5-.09h-13.76c-.18 0-.35.03-.51.09s-.3.18-.4.36l-3.44 4.6s0 .02-.01.05c0 .04-.04.05-.09.05 0 0 0 .02-.01.05 0 .04-.05.05-.12.05v16.53c0 .97.33 1.78.99 2.45.66.66 1.48.99 2.45.99h16.07c.97 0 1.78-.33 2.45-.99.66-.66.99-1.48.99-2.45v-16.07c0-.05 0-.11-.01-.17 0-.06-.05-.16-.12-.28" fill="#010101"/></svg>