<?xml version="1.0" encoding="UTF-8" standalone="no"?>
<!DOCTYPE svg PUBLIC "-//W3C//DTD SVG 1.1//EN" "http://www.w3.org/Graphics/SVG/1.1/DTD/svg11.dtd">
<svg width="100%" height="100%" viewBox="0 0 256 256" version="1.1" xmlns="http://www.w3.org/2000/svg" xmlns:xlink="http://www.w3.org/1999/xlink" xml:space="preserve" xmlns:serif="http://www.serif.com/" style="fill-rule:evenodd;clip-rule:evenodd;stroke-linecap:round;stroke-linejoin:round;stroke-miterlimit:1.5;">
    <g transform="matrix(12.4028,0,0,12.1746,-237.914,-200.431)">
        <ellipse cx="29.502" cy="26.977" rx="9.836" ry="10.021" style="fill:none;stroke:black;stroke-width:0.68px;"/>
    </g>
    <g transform="matrix(4.75813,0,0,4.75813,-21.7145,-21.7383)">
        <path d="M36.06,28.01C35.7,28.01 35.42,28.12 35.21,28.33C35,28.54 34.9,28.82 34.9,29.16C34.9,30.13 34.57,30.94 33.9,31.61C33.24,32.27 32.42,32.6 31.46,32.6C30.5,32.6 29.68,32.27 29.01,31.61C28.35,30.95 28.02,30.13 28.02,29.16C28.02,28.82 27.92,28.54 27.71,28.33C27.5,28.11 27.22,28.01 26.86,28.01C26.5,28.01 26.25,28.12 26.04,28.33C25.83,28.54 25.73,28.82 25.73,29.16C25.73,29.97 25.87,30.72 26.16,31.42C26.47,32.12 26.87,32.72 27.38,33.23C27.89,33.74 28.5,34.15 29.19,34.45C29.89,34.74 30.64,34.88 31.45,34.88C32.26,34.88 33.01,34.74 33.71,34.45C34.41,34.15 35.01,33.74 35.52,33.23C36.03,32.72 36.44,32.12 36.74,31.42C37.03,30.72 37.17,29.97 37.17,29.16C37.17,28.82 37.07,28.54 36.86,28.33C36.65,28.11 36.38,28.01 36.04,28.01M39.48,41.77L23.41,41.77C23.07,41.77 22.8,41.67 22.59,41.46C22.38,41.25 22.28,40.98 22.28,40.64L22.28,25.72L40.61,25.72L40.61,40.64C40.61,40.98 40.51,41.25 40.3,41.46C40.09,41.67 39.82,41.77 39.48,41.77M25.13,21.13L37.76,21.13L39.48,23.44L23.41,23.44L25.13,21.13ZM42.79,24.11C42.79,24.11 42.79,24.09 42.78,24.06C42.78,24.02 42.74,24.01 42.69,24.01L42.69,23.96C42.69,23.96 42.64,23.91 42.58,23.91L39.14,19.31C39.09,19.13 38.98,19.01 38.83,18.95C38.68,18.89 38.51,18.86 38.33,18.86L24.57,18.86C24.39,18.86 24.22,18.89 24.06,18.95C23.9,19.01 23.76,19.13 23.66,19.31L20.22,23.91C20.22,23.91 20.22,23.93 20.21,23.96C20.21,24 20.17,24.01 20.12,24.01C20.12,24.01 20.12,24.03 20.11,24.06C20.11,24.1 20.06,24.11 19.99,24.11L19.99,40.64C19.99,41.61 20.32,42.42 20.98,43.09C21.64,43.75 22.46,44.08 23.43,44.08L39.5,44.08C40.47,44.08 41.28,43.75 41.95,43.09C42.61,42.43 42.94,41.61 42.94,40.64L42.94,24.57C42.94,24.52 42.94,24.46 42.93,24.4C42.93,24.34 42.88,24.24 42.81,24.12" style="fill:rgb(1,1,1);fill-rule:nonzero;"/>
    </g>
</svg>
