<svg viewBox="0 0 63.11 63.11" xmlns="http://www.w3.org/2000/svg"><path d="m31.56 21.54c-.78 0-1.46.28-2.02.84s-.84 1.23-.84 2.02v2.89c0 .78.28 1.46.84 2.02s1.23.84 2.02.84 1.46-.28 2.02-.84.84-1.23.84-2.02v-2.89c0-.78-.28-1.45-.84-2.02-.56-.56-1.23-.84-2.02-.84m0-2.86c1.59 0 2.95.56 4.07 1.68s1.68 2.46 1.68 4.03v2.89c0 1.57-.56 2.91-1.68 4.03s-2.48 1.68-4.07 1.68-2.94-.56-4.06-1.68-1.68-2.46-1.68-4.03v-2.89c0-1.57.56-2.91 1.68-4.03s2.47-1.68 4.06-1.68m-4.97 14.41c.09-.02.18-.04.27-.07.09-.02.19-.03.3-.03.4 0 .74.14 1.03.42s.42.62.42 1.03c0 .29-.09.56-.27.81s-.4.43-.67.54h-.03c-.94.38-1.71 1-2.32 1.86-.6.86-.91 1.83-.91 2.91v2.49c0 .4.14.74.42 1.02s.61.42.99.42h11.49c.38 0 .71-.14.99-.42s.42-.62.42-1.02v-2.35c0-1.12-.31-2.12-.92-3.01-.61-.88-1.42-1.52-2.4-1.9h-.03c-.29-.11-.53-.29-.7-.54-.18-.25-.27-.52-.27-.81 0-.4.14-.75.42-1.03s.62-.42 1.02-.42c.09 0 .19.01.29.03s.19.04.25.07c1.55.61 2.81 1.59 3.78 2.96s1.46 2.91 1.46 4.64v2.35c0 1.19-.42 2.2-1.26 3.04s-1.85 1.26-3.04 1.26h-11.49c-1.19 0-2.2-.42-3.04-1.26s-1.26-1.85-1.26-3.04v-2.49c0-1.68.47-3.19 1.41-4.53s2.15-2.31 3.63-2.89l.03-.03z"/><path d="m59.79 33.01c0 15.59-12.64 28.23-28.23 28.23s-28.24-12.64-28.24-28.23 12.64-28.23 28.24-28.23 28.23 12.64 28.23 28.23z" fill="none" stroke="#000" stroke-miterlimit="10" stroke-width=".8"/><path d="m62.61 31.56c0 17.15-13.9 31.06-31.06 31.06s-31.05-13.91-31.05-31.06 13.9-31.06 31.06-31.06 31.06 13.9 31.06 31.06" fill="#fff"/><circle cx="31.56" cy="31.56" fill="none" r="31.06" stroke="#c6c6c6" stroke-miterlimit="10" transform="matrix(.38268343 -.92387953 .92387953 .38268343 -9.67 48.63)"/><path d="m59.79 31.56c0 15.59-12.64 28.23-28.23 28.23s-28.24-12.64-28.24-28.23 12.64-28.24 28.24-28.24 28.23 12.64 28.23 28.23" fill="#fff"/><path d="m59.79 31.56c0 15.59-12.64 28.23-28.23 28.23s-28.24-12.64-28.24-28.23 12.64-28.24 28.24-28.24 28.23 12.64 28.23 28.23z" fill="none" stroke="#000" stroke-miterlimit="10"/><path d="m31.56 20.08c-.78 0-1.46.28-2.02.84s-.84 1.23-.84 2.01v2.89c0 .78.28 1.46.84 2.02s1.23.84 2.02.84 1.46-.28 2.02-.84.84-1.23.84-2.02v-2.89c0-.78-.28-1.45-.84-2.01s-1.23-.84-2.02-.84m0-2.86c1.59 0 2.95.56 4.07 1.68s1.68 2.46 1.68 4.03v2.89c0 1.57-.56 2.91-1.68 4.03s-2.48 1.68-4.07 1.68-2.94-.56-4.06-1.68-1.68-2.46-1.68-4.03v-2.89c0-1.57.56-2.91 1.68-4.03s2.47-1.68 4.06-1.68m-4.97 14.41c.09-.02.18-.04.27-.07.09-.02.19-.03.3-.03.4 0 .74.14 1.03.42s.42.62.42 1.03c0 .29-.09.56-.27.81s-.4.43-.67.54h-.03c-.94.38-1.71 1-2.32 1.86-.6.86-.91 1.83-.91 2.91v2.49c0 .4.14.74.42 1.02s.61.42.99.42h11.49c.38 0 .71-.14.99-.42s.42-.62.42-1.02v-2.35c0-1.12-.31-2.12-.92-3.01-.61-.88-1.42-1.52-2.4-1.9h-.03c-.29-.11-.53-.29-.7-.54-.18-.25-.27-.52-.27-.81 0-.4.14-.75.42-1.03s.62-.42 1.02-.42c.09 0 .19.01.29.03s.19.04.25.07c1.55.61 2.81 1.59 3.78 2.96s1.46 2.91 1.46 4.64v2.35c0 1.19-.42 2.2-1.26 3.04s-1.85 1.26-3.04 1.26h-11.49c-1.19 0-2.2-.42-3.04-1.26s-1.26-1.85-1.26-3.04v-2.49c0-1.68.47-3.19 1.41-4.53s2.15-2.31 3.63-2.89l.03-.03z"/></svg>