<?xml version="1.0" encoding="UTF-8" standalone="no"?>
<!DOCTYPE svg PUBLIC "-//W3C//DTD SVG 1.1//EN" "http://www.w3.org/Graphics/SVG/1.1/DTD/svg11.dtd">
<svg width="100%" height="100%" viewBox="0 0 256 256" version="1.1" xmlns="http://www.w3.org/2000/svg" xmlns:xlink="http://www.w3.org/1999/xlink" xml:space="preserve" xmlns:serif="http://www.serif.com/" style="fill-rule:evenodd;clip-rule:evenodd;stroke-linecap:round;stroke-linejoin:round;stroke-miterlimit:1.5;">
    <g transform="matrix(12.4028,0,0,12.1746,-237.914,-200.431)">
        <ellipse cx="29.502" cy="26.977" rx="9.836" ry="10.021" style="fill:none;stroke:black;stroke-width:0.68px;"/>
    </g>
    <g transform="matrix(4.60299,0,0,4.60299,-16.8331,-16.8101)">
        <path d="M38.95,36.92L44.06,42.03C44.19,42.16 44.3,42.32 44.38,42.5C44.46,42.68 44.5,42.87 44.5,43.07C44.5,43.47 44.36,43.82 44.08,44.1C43.8,44.38 43.47,44.52 43.09,44.52C42.89,44.52 42.7,44.48 42.52,44.4C42.34,44.32 42.18,44.21 42.05,44.08L36.91,38.94C35.95,39.68 34.87,40.27 33.67,40.7C32.47,41.14 31.21,41.36 29.89,41.36C28.3,41.36 26.81,41.06 25.42,40.45C24.03,39.85 22.82,39.02 21.77,37.98C20.73,36.94 19.91,35.72 19.3,34.33C18.72,32.94 18.43,31.45 18.43,29.86C18.43,28.27 18.72,26.8 19.3,25.39C19.9,24 20.73,22.79 21.77,21.76C22.81,20.73 24.03,19.91 25.42,19.31C26.81,18.71 28.3,18.4 29.89,18.4C31.48,18.4 32.97,18.7 34.36,19.31C35.75,19.91 36.96,20.73 38.01,21.76C39.06,22.79 39.86,24 40.45,25.39C41.05,26.8 41.36,28.29 41.36,29.86C41.36,31.2 41.15,32.47 40.72,33.67C40.3,34.87 39.7,35.95 38.94,36.91L38.97,36.91L38.95,36.92ZM29.88,38.46C31.07,38.46 32.19,38.24 33.24,37.79C34.27,37.34 35.18,36.73 35.96,35.96C36.74,35.19 37.36,34.27 37.81,33.22C38.26,32.17 38.48,31.05 38.48,29.86C38.48,28.67 38.26,27.56 37.81,26.53C37.36,25.48 36.75,24.56 35.96,23.79C35.18,23.02 34.27,22.4 33.24,21.93C32.19,21.48 31.07,21.26 29.88,21.26C28.69,21.26 27.57,21.48 26.52,21.93C25.49,22.4 24.58,23.02 23.8,23.79C23.02,24.56 22.4,25.48 21.95,26.53C21.5,27.56 21.28,28.67 21.28,29.86C21.28,31.05 21.5,32.17 21.95,33.22C22.4,34.27 23.01,35.19 23.8,35.96C24.58,36.73 25.49,37.34 26.52,37.79C27.57,38.24 28.69,38.46 29.88,38.46" style="fill-rule:nonzero;"/>
    </g>
</svg>
