<?xml version="1.0" encoding="UTF-8" standalone="no"?>
<!DOCTYPE svg PUBLIC "-//W3C//DTD SVG 1.1//EN" "http://www.w3.org/Graphics/SVG/1.1/DTD/svg11.dtd">
<svg width="100%" height="100%" viewBox="0 0 256 256" version="1.1" xmlns="http://www.w3.org/2000/svg" xmlns:xlink="http://www.w3.org/1999/xlink" xml:space="preserve" xmlns:serif="http://www.serif.com/" style="fill-rule:evenodd;clip-rule:evenodd;stroke-linecap:round;stroke-linejoin:round;stroke-miterlimit:1.5;">
    <g transform="matrix(12.4028,0,0,12.1746,-237.914,-200.431)">
        <ellipse cx="29.502" cy="26.977" rx="9.836" ry="10.021" style="fill:none;stroke:black;stroke-width:0.68px;"/>
    </g>
    <g transform="matrix(12.4028,0,0,12.1746,-237.914,-200.431)">
        <ellipse cx="29.502" cy="26.977" rx="9.836" ry="10.021" style="stroke:black;stroke-width:0.68px;"/>
    </g>
    <g transform="matrix(4.18264,0,0,4.18264,-3.60683,-3.58592)">
        <path d="M31.43,28.64C33.85,28.64 35.73,30.52 35.73,32.94C35.73,35.36 33.85,37.24 31.43,37.24C29.01,37.24 27.13,35.29 27.13,32.94C27.13,30.59 29.08,28.64 31.43,28.64M24.31,32.94C24.31,36.9 27.47,40.06 31.43,40.06C35.39,40.06 38.62,36.9 38.62,32.94C38.62,28.98 35.4,25.75 31.43,25.75C27.46,25.75 24.31,28.98 24.31,32.94M42.92,21.45L38.35,21.45L35.73,18.56L27.13,18.56C25.02,18.56 25.07,21.45 27.13,21.45L34.52,21.45L37.14,24.34L42.92,24.34L42.92,41.54L20.01,41.54L20.01,28.64C20.01,26.57 17.12,26.66 17.12,28.64L17.12,41.54C17.12,43.08 18.4,44.36 20.01,44.36L42.92,44.36C44.46,44.36 45.81,43.08 45.81,41.54L45.81,24.34C45.81,22.73 44.47,21.45 42.92,21.45" style="fill:white;fill-rule:nonzero;"/>
    </g>
</svg>
