<?xml version="1.0" encoding="UTF-8" standalone="no"?>
<!DOCTYPE svg PUBLIC "-//W3C//DTD SVG 1.1//EN" "http://www.w3.org/Graphics/SVG/1.1/DTD/svg11.dtd">
<svg width="100%" height="100%" viewBox="0 0 256 256" version="1.1" xmlns="http://www.w3.org/2000/svg" xmlns:xlink="http://www.w3.org/1999/xlink" xml:space="preserve" xmlns:serif="http://www.serif.com/" style="fill-rule:evenodd;clip-rule:evenodd;stroke-linecap:round;stroke-linejoin:round;stroke-miterlimit:1.5;">
    <g transform="matrix(12.4028,0,0,12.1746,-237.914,-200.431)">
        <ellipse cx="29.502" cy="26.977" rx="9.836" ry="10.021" style="fill:none;stroke:black;stroke-width:0.68px;"/>
    </g>
    <g transform="matrix(5.3357,0,0,5.3357,-15.0236,-14.9969)">
        <path d="M38.05,31.31L33.6,26.8L38.05,22.29L36.3,20.54L30.03,26.81L36.3,33.08L38.05,31.33L38.05,31.31ZM15.56,21.82L31.78,21.82L31.78,19.3L15.56,19.3L15.56,21.82ZM15.56,28.03L28.03,28.03L28.03,25.57L15.56,25.57L15.56,28.03ZM15.56,34.3L31.78,34.3L31.78,31.78L15.56,31.78L15.56,34.3Z" style="fill-rule:nonzero;"/>
    </g>
</svg>
