<?xml version="1.0" encoding="UTF-8" standalone="no"?>
<!DOCTYPE svg PUBLIC "-//W3C//DTD SVG 1.1//EN" "http://www.w3.org/Graphics/SVG/1.1/DTD/svg11.dtd">
<svg width="100%" height="100%" viewBox="0 0 256 256" version="1.1" xmlns="http://www.w3.org/2000/svg" xmlns:xlink="http://www.w3.org/1999/xlink" xml:space="preserve" xmlns:serif="http://www.serif.com/" style="fill-rule:evenodd;clip-rule:evenodd;stroke-linecap:round;stroke-linejoin:round;stroke-miterlimit:1.5;">
    <g transform="matrix(12.4028,0,0,12.1746,-237.914,-200.431)">
        <ellipse cx="29.502" cy="26.977" rx="9.836" ry="10.021" style="fill:none;stroke:black;stroke-width:0.68px;"/>
    </g>
    <g transform="matrix(4.18702,0,0,4.18702,-4.20516,-4.10049)">
        <path d="M31.56,20.08C30.78,20.08 30.1,20.36 29.54,20.92C28.98,21.48 28.7,22.15 28.7,22.93L28.7,25.82C28.7,26.6 28.98,27.28 29.54,27.84C30.1,28.4 30.77,28.68 31.56,28.68C32.35,28.68 33.02,28.4 33.58,27.84C34.14,27.28 34.42,26.61 34.42,25.82L34.42,22.93C34.42,22.15 34.14,21.48 33.58,20.92C33.02,20.36 32.35,20.08 31.56,20.08M31.56,17.22C33.15,17.22 34.51,17.78 35.63,18.9C36.75,20.02 37.31,21.36 37.31,22.93L37.31,25.82C37.31,27.39 36.75,28.73 35.63,29.85C34.51,30.97 33.15,31.53 31.56,31.53C29.97,31.53 28.62,30.97 27.5,29.85C26.38,28.73 25.82,27.39 25.82,25.82L25.82,22.93C25.82,21.36 26.38,20.02 27.5,18.9C28.62,17.78 29.97,17.22 31.56,17.22M26.59,31.63C26.68,31.61 26.77,31.59 26.86,31.56C26.95,31.54 27.05,31.53 27.16,31.53C27.56,31.53 27.9,31.67 28.19,31.95C28.48,32.23 28.61,32.57 28.61,32.98C28.61,33.27 28.52,33.54 28.34,33.79C28.16,34.04 27.94,34.22 27.67,34.33L27.64,34.33C26.7,34.71 25.93,35.33 25.32,36.19C24.72,37.05 24.41,38.02 24.41,39.1L24.41,41.59C24.41,41.99 24.55,42.33 24.83,42.61C25.11,42.89 25.44,43.03 25.82,43.03L37.31,43.03C37.69,43.03 38.02,42.89 38.3,42.61C38.58,42.33 38.72,41.99 38.72,41.59L38.72,39.24C38.72,38.12 38.41,37.12 37.8,36.23C37.19,35.35 36.38,34.71 35.4,34.33L35.37,34.33C35.08,34.22 34.84,34.04 34.67,33.79C34.49,33.54 34.4,33.27 34.4,32.98C34.4,32.58 34.54,32.23 34.82,31.95C35.1,31.67 35.44,31.53 35.84,31.53C35.93,31.53 36.03,31.54 36.13,31.56C36.23,31.58 36.32,31.6 36.38,31.63C37.93,32.24 39.19,33.22 40.16,34.59C41.13,35.96 41.62,37.5 41.62,39.23L41.62,41.58C41.62,42.77 41.2,43.78 40.36,44.62C39.52,45.46 38.51,45.88 37.32,45.88L25.83,45.88C24.64,45.88 23.63,45.46 22.79,44.62C21.95,43.78 21.53,42.77 21.53,41.58L21.53,39.09C21.53,37.41 22,35.9 22.94,34.56C23.88,33.22 25.09,32.25 26.57,31.67L26.6,31.64L26.59,31.63Z" style="fill-rule:nonzero;"/>
    </g>
</svg>
