<svg viewBox="0 0 62.92 62.92" xmlns="http://www.w3.org/2000/svg"><path d="m38.95 38.37 5.11 5.11c.13.13.24.29.32.47s.12.37.12.57c0 .4-.14.74-.42 1.02s-.61.42-.99.42c-.2 0-.39-.04-.57-.12s-.34-.18-.47-.32l-5.14-5.14c-.96.74-2.04 1.33-3.24 1.76-1.2.44-2.46.66-3.78.66-1.59 0-3.08-.3-4.47-.91-1.39-.6-2.6-1.43-3.65-2.47-1.04-1.04-1.86-2.26-2.47-3.65-.58-1.39-.87-2.88-.87-4.47s.29-3.06.87-4.47c.6-1.39 1.43-2.6 2.47-3.63s2.26-1.85 3.65-2.45 2.88-.91 4.47-.91 3.08.3 4.47.91c1.39.6 2.6 1.42 3.65 2.45s1.85 2.24 2.44 3.63c.6 1.41.91 2.9.91 4.47 0 1.34-.21 2.61-.64 3.81-.42 1.2-1.02 2.28-1.78 3.24h.03zm-9.07 1.54c1.19 0 2.31-.22 3.36-.67 1.03-.45 1.94-1.06 2.72-1.83s1.4-1.69 1.85-2.74.67-2.17.67-3.36-.22-2.3-.67-3.33c-.45-1.05-1.06-1.97-1.85-2.74-.78-.77-1.69-1.39-2.72-1.86-1.05-.45-2.17-.67-3.36-.67s-2.31.22-3.36.67c-1.03.47-1.94 1.09-2.72 1.86s-1.4 1.69-1.85 2.74c-.45 1.03-.67 2.14-.67 3.33s.22 2.31.67 3.36 1.06 1.97 1.85 2.74c.78.77 1.69 1.38 2.72 1.83 1.05.45 2.17.67 3.36.67"/><path d="m59.69 32.91c0 15.59-12.64 28.23-28.23 28.23s-28.23-12.63-28.23-28.23 12.64-28.23 28.23-28.23 28.23 12.64 28.23 28.23z" fill="none" stroke="#000" stroke-miterlimit="10" stroke-width=".8"/><path d="m62.52 31.46c0 17.15-13.9 31.06-31.06 31.06s-31.05-13.91-31.05-31.06 13.9-31.05 31.05-31.05 31.06 13.9 31.06 31.06" fill="#fff"/><circle cx="31.46" cy="31.46" fill="none" r="31.06" stroke="#c7c6c6" stroke-miterlimit="10" stroke-width=".81" transform="matrix(.38268343 -.92387953 .92387953 .38268343 -9.64 48.49)"/><path d="m38.95 36.92 5.11 5.11c.13.13.24.29.32.47s.12.37.12.57c0 .4-.14.75-.42 1.03s-.61.42-.99.42c-.2 0-.39-.04-.57-.12s-.34-.19-.47-.32l-5.14-5.14c-.96.74-2.04 1.33-3.24 1.76-1.2.44-2.46.66-3.78.66-1.59 0-3.08-.3-4.47-.91-1.39-.6-2.6-1.43-3.65-2.47-1.04-1.04-1.86-2.26-2.47-3.65-.58-1.39-.87-2.88-.87-4.47s.29-3.06.87-4.47c.6-1.39 1.43-2.6 2.47-3.63s2.26-1.85 3.65-2.45 2.88-.91 4.47-.91 3.08.3 4.47.91c1.39.6 2.6 1.42 3.65 2.45s1.85 2.24 2.44 3.63c.6 1.41.91 2.9.91 4.47 0 1.34-.21 2.61-.64 3.81-.42 1.2-1.02 2.28-1.78 3.24h.03zm-9.07 1.54c1.19 0 2.31-.22 3.36-.67 1.03-.45 1.94-1.06 2.72-1.83s1.4-1.69 1.85-2.74.67-2.17.67-3.36-.22-2.3-.67-3.33c-.45-1.05-1.06-1.97-1.85-2.74-.78-.77-1.69-1.39-2.72-1.86-1.05-.45-2.17-.67-3.36-.67s-2.31.22-3.36.67c-1.03.47-1.94 1.09-2.72 1.86s-1.4 1.69-1.85 2.74c-.45 1.03-.67 2.14-.67 3.33s.22 2.31.67 3.36 1.06 1.97 1.85 2.74c.78.77 1.69 1.38 2.72 1.83 1.05.45 2.17.67 3.36.67"/><path d="m59.69 31.46c0 15.59-12.64 28.23-28.23 28.23s-28.23-12.64-28.23-28.23 12.64-28.23 28.23-28.23 28.23 12.64 28.23 28.23z" fill="none" stroke="#000" stroke-miterlimit="10" stroke-width=".8"/></svg>