<svg viewBox="0 0 234.68 187.88" xmlns="http://www.w3.org/2000/svg"><g fill="#1e1f1d"><path d="m182.15 76.99c-8.35 0-15.13 6.85-15.13 15.28s6.78 15.28 15.13 15.28 15.12-6.85 15.12-15.28-6.79-15.28-15.12-15.28m9.21 13.76-1.3 1.31-1.3-1.31-1.29 1.31-1.31-1.31 1.31-1.32-1.31-1.31 1.31-1.31 1.29 1.31 1.3-1.31 1.3 1.31-1.3 1.31zm-9.21 14.19c-6.92 0-12.55-5.69-12.55-12.67s5.63-12.66 12.55-12.66z"/><path d="m176.49 91.3c.92 0 1.66-.75 1.66-1.68s-.74-1.68-1.66-1.68-1.66.75-1.66 1.68.74 1.68 1.66 1.68"/><path d="m195.92 39.76v-4.99h-15.99v.04h-.26v30.63h.03v.02h15.99v-5h-11.2v-8.81h8.96v-5.02h-8.96v-6.87z"/><path d="m71.61 34.75-.02.05-.02-.05-.24.67-12.84 30.09h5.28l2.06-5.05h11.53l2.06 5.05h5.28l-12.84-30.09-.24-.67zm-3.82 20.89 3.8-9.3 3.79 9.3z"/><path d="m165.69 53.1-16.77-18.35v.08l-.01-.02v4.04l-.01 2.93.01.01v23.55h4.82v-18.22l12.58 13.9.01-.01 4.2 4.5v-30.7h-4.83z"/><path d="m139.96 53.94v-19.2h-4.82v19 .2c0 1.13-.32 6.78-5.83 6.78l-.52-.02c-5.55 0-5.82-5.7-5.82-6.78v-.1s0-.08 0-.08v-19h-4.82v19.04 2s-.33 9.73 10.63 9.73h.57c10.96 0 10.62-9.73 10.62-9.73v-1.83z"/><path d="m41.78 51.76-1.08-1.61 1.08-1.79v-13.64h-4.88v13.64l-1.08 1.79 1.08 1.61v13.75h.81 18.5v-4.82h-14.43z"/><path d="m99.08 51.76-1.07-1.61 1.07-1.79v-13.64h-4.88v13.64l-1.07 1.79 1.07 1.61v13.75h.82 18.5v-4.82h-14.44z"/><path d="m45.53 78.06h-8.4v13.51l-1.09 1.77 1.09 1.6v13.61h8.82s14.7.15 14.7-15.43-15.12-15.06-15.12-15.06m0 25.84h-3.46v-8.96l-1.08-1.6 1.08-1.77v-8.71h3.32s10.16 1.33 10.16 10.31-10.02 10.73-10.02 10.73"/><path d="m100.93 90.84c-2.64-1.12-6-2.33-6-4.76s1.28-3.39 3.28-3.63 5.2 1.94 5.2 1.94l2.64-3.55s-1.92-2.5-7.36-2.74-7.99 4.03-8.4 7.58c-.4 3.55 1.28 4.68 3.68 6.7s9.76 3.96 9.68 7.26c-.08 3.31-2.32 4.28-5.12 4.28s-6.96-3.71-6.96-3.71l-3.36 3.39c1.92 1.93 5.6 5 10.4 5s9.92-3.23 9.92-8.88-4.96-7.75-7.6-8.88"/><path d="m66.37 78h-.26v30.62h.03v.02h15.98v-4.99h-11.19v-8.75h9.08v-5.08h-9.08v-6.87h11.42v-4.99h-15.98z"/><path d="m62.61 135.35-1.14 1.89 1.14 1.71v14.19h5.15v-14.19l-1.13-1.71 1.13-1.89v-14.09h-5.15z"/><path d="m117.13 120.24-.03.06-.02-.06-.26.73-13.73 32.17h5.65l2.04-4.99h12.66l2.04 4.99h5.65l-13.73-32.17-.26-.72zm-4.28 22.81 4.25-10.42 4.25 10.42z"/><path d="m47.25 121.35-1.88-.06s-.21 0-.21 0h-.25s0 0 0 0h-8.19v.04h-.05v31.81h5.16v-8.46h3.23s2.18.01 2.18.01 10.41.36 10.41-11.36v-.61c0-11.72-10.41-11.36-10.41-11.36m5.26 11.95c0 5.77-5.75 6.2-7.14 6.22s-3.53-.01-3.53-.01v-13.07h3.53c1.63.07 7.16.72 7.16 6.3z"/><path d="m86.63 121.3-2.3-.03s-8.38 0-8.38 0v.05h-.02v31.81h5.16v-9.43l7.93 9.45 7.25.03-8.08-9.71c2.92-.53 8.81-2.62 8.81-10.82v-.57c0-10.9-10.36-10.78-10.36-10.78m5.21 11.33c0 5.37-5.76 5.87-7.14 5.91v-.02h-3.62v-12.1h3.25v.02s7.54-.43 7.54 5.67l-.02.52z"/><path d="m189.66 134.61c-2.68-1.18-6.07-2.44-6.07-4.97s1.29-3.54 3.32-3.79c2.02-.25 5.27 2.02 5.27 2.02l2.67-3.71s-1.95-2.61-7.45-2.86c-5.51-.25-8.1 4.21-8.51 7.92-.4 3.71 1.3 4.88 3.72 7 2.43 2.1 9.88 4.13 9.8 7.57-.08 3.46-2.35 4.46-5.19 4.46s-7.04-3.87-7.04-3.87l-3.4 3.53c1.94 2.02 5.67 5.22 10.53 5.22s10.04-3.37 10.04-9.26-5.02-8.09-7.69-9.27"/><path d="m155.94 121.17h-.29v31.99h.04v.02h16.7v-5.22h-11.7v-9.14h9.75v-5.3h-9.75v-7.17h11.94v-5.22h-16.69z"/><path d="m142.86 121.24h-5.16v.03h-7.67v5.16h7.67v8.92l-1.13 1.85 1.13 1.67v14.22h5.16v-14.22l-1.13-1.67 1.13-1.85v-8.92h7.89v-5.16h-7.89z"/><path d="m10.71 24.73-1.93 2.91 1.93 3.22v24.54h-8.78v-24.54l-1.93-3.22 1.93-2.91v-24.73h1.47 53.13v8.68h-45.82z"/><path d="m223.97 163.15 1.93-2.91-1.93-3.22v-24.53h8.78v24.53l1.93 3.22-1.93 2.91v24.73h-1.46-53.14v-8.67h45.82z"/></g></svg>