<svg viewBox="0 0 62.92 62.92" xmlns="http://www.w3.org/2000/svg"><path d="m62.52 31.46c0 17.15-13.9 31.06-31.06 31.06s-31.05-13.91-31.05-31.06 13.9-31.05 31.05-31.05 31.06 13.9 31.06 31.06" fill="#fff"/><circle cx="31.46" cy="31.46" fill="none" r="31.06" stroke="#c6c6c6" stroke-miterlimit="10" stroke-width=".81" transform="matrix(.25662676 -.96651058 .96651058 .25662676 -7.02 53.79)"/><path d="m59.69 31.46c0 15.59-12.64 28.23-28.23 28.23s-28.23-12.64-28.23-28.23 12.64-28.23 28.23-28.23 28.23 12.64 28.23 28.23"/><path d="m31.43 28.64c2.42 0 4.3 1.88 4.3 4.3s-1.88 4.3-4.3 4.3-4.3-1.95-4.3-4.3 1.95-4.3 4.3-4.3m-7.12 4.3c0 3.96 3.16 7.12 7.12 7.12s7.19-3.16 7.19-7.12-3.22-7.19-7.19-7.19-7.12 3.23-7.12 7.19m18.61-11.49h-4.57l-2.62-2.89h-8.6c-2.11 0-2.06 2.89 0 2.89h7.39l2.62 2.89h5.78v17.2h-22.91v-12.9c0-2.07-2.89-1.98-2.89 0v12.9c0 1.54 1.28 2.82 2.89 2.82h22.91c1.54 0 2.89-1.28 2.89-2.82v-17.2c0-1.61-1.34-2.89-2.89-2.89" fill="#fff"/></svg>