<?xml version="1.0" encoding="UTF-8"?><svg id="a" xmlns="http://www.w3.org/2000/svg" viewBox="0 0 303.14 160.18"><defs><style>.b{letter-spacing:-.04em;}.b,.c,.d,.e,.f,.g{isolation:isolate;}.b,.c,.e,.f,.g{fill:#010101;font-family:Akshar-Medium, Akshar;font-weight:500;}.b,.g{font-size:49px;}.c,.e,.f{font-size:60px;}.d,.h{fill:none;}.i{fill:#1e1f1d;}.e{letter-spacing:-.03em;}.f{letter-spacing:0em;}.h{stroke:#010101;stroke-linecap:round;stroke-width:3.72px;}.j{letter-spacing:0em;}</style></defs><g class="d"><text class="g" transform="translate(39.29 71.15)"><tspan x="0" y="0">I</tspan></text><text class="g" transform="translate(51.83 71.15)"><tspan x="0" y="0">n</tspan></text><text class="b" transform="translate(76.48 71.15)"><tspan x="0" y="0">f</tspan></text><text class="g" transform="translate(92.11 71.15)"><tspan x="0" y="0">o</tspan></text><text class="g" transform="translate(114.94 71.15)"><tspan x="0" y="0">s</tspan></text></g><g class="d"><text class="c" transform="translate(39.29 123.15)"><tspan x="0" y="0">P</tspan></text><text class="e" transform="translate(67.25 123.15)"><tspan x="0" y="0">r</tspan></text><text class="c" transform="translate(87.11 123.15)"><tspan x="0" y="0">a</tspan></text><text class="f" transform="translate(116.33 123.15)"><tspan x="0" y="0">t</tspan></text><text class="c" transform="translate(138.71 123.15)"><tspan x="0" y="0">i</tspan></text><text class="c" transform="translate(153.83 123.15)"><tspan x="0" y="0">q</tspan></text><text class="c" transform="translate(184.25 123.15)"><tspan class="j" x="0" y="0">u</tspan><tspan x="30.12" y="0">e</tspan></text><text class="c" transform="translate(242.27 123.15)"><tspan x="0" y="0">s</tspan></text></g><path class="h" d="m161.98,67.32h16.96c1.61,0,2.91,1.3,2.91,2.91,0,2.59,3.13,3.89,4.97,2.06l11.17-11.17c2.06-2.06,2.06-5.4,0-7.46l-11.17-11.17c-1.83-1.83-4.97-.54-4.97,2.06,0,1.61-1.3,2.91-2.91,2.91h-16.96"/><path class="h" d="m146.65,47.46h16.96"/><path class="i" d="m10.71,24.73l-1.93,2.91,1.93,3.21v24.54H1.93v-24.54l-1.93-3.21,1.93-2.91V0h54.6v8.67H10.71v16.06Z"/><path class="i" d="m292.43,135.45l1.93-2.91-1.93-3.22v-24.54h8.78v24.54l1.93,3.22-1.93,2.91v24.73h-54.6v-8.67h45.82v-16.06Z"/></svg>