<svg viewBox="0 0 267.22 135" xmlns="http://www.w3.org/2000/svg"><g fill="#ee5758"><path d="m199.6 129.2c-.2 0-.4-.2-.4-.4v-3.5c0-.3 0-.7-.2-1-.3-.6-1-.8-1.6-.6s-1 .8-1.1 1.3c0 1.5 0 3.1-.1 4.6 0 .6 0 1.3.4 1.7s1.1.5 1.7.4c2 0 4-.1 6-.1.3 0 .7 0 1-.2.4-.2.6-.6.7-1 0-.4-.2-.8-.5-1.1-.4-.3-1-.3-1.5-.3-1.4.1-2.9.3-4.4.2z"/><path d="m92.3 109.3c-.6 0-1.2.5-1.4 1-.2.6-.2 1.2-.2 1.8v2.8c0 .6 0 1.3.4 1.8.5.6 1.4.6 2.1.6 2.3-.1 4.6-.1 7-.2.2 0 .4 0 .6-.1.4-.2.6-.8.4-1.2s-.6-.7-1.1-.8-1-.1-1.4-.1c-1.3 0-2.6 0-3.9-.1-.2 0-.3 0-.5-.1-.1-.1-.3-.3-.2-.4.1-.2.4-.3.6-.3h3.3c.3 0 .6 0 .9-.1s.5-.4.5-.6c0-.3-.2-.6-.5-.7s-.6-.1-.9-.2c-1.1 0-2.2-.1-3.4-.1-.2 0-.5-.1-.4-.3 0-.1.2-.2.3-.2 1.3-.2 2.7-.3 4.1-.2.5 0 1.1.1 1.6-.1s.9-.7.8-1.2c-.1-.3-.4-.6-.7-.7s-.7-.1-1-.1c-2.4-.1-4.8-.1-7-.2z"/><path d="m162.8 109.3c-.6 0-1.2.5-1.4 1-.2.6-.2 1.2-.2 1.8v2.8c0 .6 0 1.3.4 1.8.5.6 1.4.6 2.1.6 2.3-.1 4.6-.1 7-.2.2 0 .4 0 .6-.1.4-.2.6-.8.4-1.2s-.6-.7-1.1-.8-1-.1-1.4-.1c-1.3 0-2.6 0-3.9-.1-.2 0-.3 0-.5-.1s-.3-.3-.2-.4c.1-.2.4-.3.6-.3h3.3c.3 0 .6 0 .9-.1s.5-.4.5-.6c0-.3-.2-.6-.5-.7s-.6-.1-.9-.2c-1.1 0-2.2-.1-3.4-.1-.2 0-.5-.1-.4-.3 0-.1.2-.2.3-.2 1.3-.2 2.7-.3 4.1-.2.5 0 1.1.1 1.6-.1s.9-.7.8-1.2c-.1-.3-.4-.6-.7-.7s-.7-.1-1-.1c-2.4-.1-4.8-.1-7-.2z"/><path d="m245.5 109.3c-.6 0-1.2.5-1.4 1-.2.6-.2 1.2-.2 1.8v2.8c0 .6 0 1.3.4 1.8.5.6 1.4.6 2.1.6 2.3-.1 4.6-.1 7-.2.2 0 .4 0 .6-.1.4-.2.6-.8.4-1.2s-.6-.7-1.1-.8-1-.1-1.4-.1c-1.3 0-2.6 0-3.9-.1-.2 0-.3 0-.5-.1-.1-.1-.3-.3-.2-.4.1-.2.4-.3.6-.3h3.3c.3 0 .6 0 .9-.1s.5-.4.5-.6c0-.3-.2-.6-.5-.7s-.6-.1-.9-.2c-1.1 0-2.2-.1-3.4-.1-.2 0-.5-.1-.4-.3 0-.1.2-.2.3-.2 1.3-.2 2.7-.3 4.1-.2.5 0 1.1.1 1.6-.1s.9-.7.8-1.2c-.1-.3-.4-.6-.7-.7s-.7-.1-1-.1c-2.4-.1-4.8-.1-7-.2z"/><path d="m89.1 123.8c-.6 0-1.2.5-1.4 1-.2.6-.2 1.2-.2 1.8v2.8c0 .6 0 1.3.4 1.8.5.6 1.4.6 2.1.6 2.3-.1 4.6-.1 7-.2.2 0 .4 0 .6-.1.4-.2.6-.8.4-1.2s-.6-.7-1.1-.8-1-.1-1.4-.1c-1.3 0-2.6 0-3.9-.1-.2 0-.3 0-.5-.1-.1-.1-.3-.3-.2-.4.1-.2.4-.3.6-.3h3.3c.3 0 .6 0 .9-.1s.5-.4.5-.6c0-.3-.2-.6-.5-.7s-.6-.1-.9-.2c-1.1 0-2.2-.1-3.4-.1-.2 0-.5-.1-.4-.3 0-.1.2-.2.3-.2 1.3-.2 2.7-.3 4.1-.2.5 0 1.1.1 1.6-.1s.9-.7.8-1.2c-.1-.3-.4-.6-.7-.7s-.7-.1-1-.1c-2.4-.1-4.8-.1-7-.2z"/><path d="m89.1 123.8c-.6 0-1.2.5-1.4 1-.2.6-.2 1.2-.2 1.8v2.8c0 .6 0 1.3.4 1.8.5.6 1.4.6 2.1.6 2.3-.1 4.6-.1 7-.2.2 0 .4 0 .6-.1.4-.2.6-.8.4-1.2s-.6-.7-1.1-.8-1-.1-1.4-.1c-1.3 0-2.6 0-3.9-.1-.2 0-.3 0-.5-.1-.1-.1-.3-.3-.2-.4.1-.2.4-.3.6-.3h3.3c.3 0 .6 0 .9-.1s.5-.4.5-.6c0-.3-.2-.6-.5-.7s-.6-.1-.9-.2c-1.1 0-2.2-.1-3.4-.1-.2 0-.5-.1-.4-.3 0-.1.2-.2.3-.2 1.3-.2 2.7-.3 4.1-.2.5 0 1.1.1 1.6-.1s.9-.7.8-1.2c-.1-.3-.4-.6-.7-.7s-.7-.1-1-.1c-2.4-.1-4.8-.1-7-.2z"/><path d="m89.1 123.8c-.6 0-1.2.5-1.4 1-.2.6-.2 1.2-.2 1.8v2.8c0 .6 0 1.3.4 1.8.5.6 1.4.6 2.1.6 2.3-.1 4.6-.1 7-.2.2 0 .4 0 .6-.1.4-.2.6-.8.4-1.2s-.6-.7-1.1-.8-1-.1-1.4-.1c-1.3 0-2.6 0-3.9-.1-.2 0-.3 0-.5-.1-.1-.1-.3-.3-.2-.4.1-.2.4-.3.6-.3h3.3c.3 0 .6 0 .9-.1s.5-.4.5-.6c0-.3-.2-.6-.5-.7s-.6-.1-.9-.2c-1.1 0-2.2-.1-3.4-.1-.2 0-.5-.1-.4-.3 0-.1.2-.2.3-.2 1.3-.2 2.7-.3 4.1-.2.5 0 1.1.1 1.6-.1s.9-.7.8-1.2c-.1-.3-.4-.6-.7-.7s-.7-.1-1-.1c-2.4-.1-4.8-.1-7-.2z"/><path d="m89.1 123.8c-.6 0-1.2.5-1.4 1-.2.6-.2 1.2-.2 1.8v2.8c0 .6 0 1.3.4 1.8.5.6 1.4.6 2.1.6 2.3-.1 4.6-.1 7-.2.2 0 .4 0 .6-.1.4-.2.6-.8.4-1.2s-.6-.7-1.1-.8-1-.1-1.4-.1c-1.3 0-2.6 0-3.9-.1-.2 0-.3 0-.5-.1-.1-.1-.3-.3-.2-.4.1-.2.4-.3.6-.3h3.3c.3 0 .6 0 .9-.1s.5-.4.5-.6c0-.3-.2-.6-.5-.7s-.6-.1-.9-.2c-1.1 0-2.2-.1-3.4-.1-.2 0-.5-.1-.4-.3 0-.1.2-.2.3-.2 1.3-.2 2.7-.3 4.1-.2.5 0 1.1.1 1.6-.1s.9-.7.8-1.2c-.1-.3-.4-.6-.7-.7s-.7-.1-1-.1c-2.4-.1-4.8-.1-7-.2z"/><path d="m89.1 123.8c-.6 0-1.2.5-1.4 1-.2.6-.2 1.2-.2 1.8v2.8c0 .6 0 1.3.4 1.8.5.6 1.4.6 2.1.6 2.3-.1 4.6-.1 7-.2.2 0 .4 0 .6-.1.4-.2.6-.8.4-1.2s-.6-.7-1.1-.8-1-.1-1.4-.1c-1.3 0-2.6 0-3.9-.1-.2 0-.3 0-.5-.1-.1-.1-.3-.3-.2-.4.1-.2.4-.3.6-.3h3.3c.3 0 .6 0 .9-.1s.5-.4.5-.6c0-.3-.2-.6-.5-.7s-.6-.1-.9-.2c-1.1 0-2.2-.1-3.4-.1-.2 0-.5-.1-.4-.3 0-.1.2-.2.3-.2 1.3-.2 2.7-.3 4.1-.2.5 0 1.1.1 1.6-.1s.9-.7.8-1.2c-.1-.3-.4-.6-.7-.7s-.7-.1-1-.1c-2.4-.1-4.8-.1-7-.2z"/><path d="m89.1 123.8c-.6 0-1.2.5-1.4 1-.2.6-.2 1.2-.2 1.8v2.8c0 .6 0 1.3.4 1.8.5.6 1.4.6 2.1.6 2.3-.1 4.6-.1 7-.2.2 0 .4 0 .6-.1.4-.2.6-.8.4-1.2s-.6-.7-1.1-.8-1-.1-1.4-.1c-1.3 0-2.6 0-3.9-.1-.2 0-.3 0-.5-.1-.1-.1-.3-.3-.2-.4.1-.2.4-.3.6-.3h3.3c.3 0 .6 0 .9-.1s.5-.4.5-.6c0-.3-.2-.6-.5-.7s-.6-.1-.9-.2c-1.1 0-2.2-.1-3.4-.1-.2 0-.5-.1-.4-.3 0-.1.2-.2.3-.2 1.3-.2 2.7-.3 4.1-.2.5 0 1.1.1 1.6-.1s.9-.7.8-1.2c-.1-.3-.4-.6-.7-.7s-.7-.1-1-.1c-2.4-.1-4.8-.1-7-.2z"/><path d="m89.1 123.8c-.6 0-1.2.5-1.4 1-.2.6-.2 1.2-.2 1.8v2.8c0 .6 0 1.3.4 1.8.5.6 1.4.6 2.1.6 2.3-.1 4.6-.1 7-.2.2 0 .4 0 .6-.1.4-.2.6-.8.4-1.2s-.6-.7-1.1-.8-1-.1-1.4-.1c-1.3 0-2.6 0-3.9-.1-.2 0-.3 0-.5-.1-.1-.1-.3-.3-.2-.4.1-.2.4-.3.6-.3h3.3c.3 0 .6 0 .9-.1s.5-.4.5-.6c0-.3-.2-.6-.5-.7s-.6-.1-.9-.2c-1.1 0-2.2-.1-3.4-.1-.2 0-.5-.1-.4-.3 0-.1.2-.2.3-.2 1.3-.2 2.7-.3 4.1-.2.5 0 1.1.1 1.6-.1s.9-.7.8-1.2c-.1-.3-.4-.6-.7-.7s-.7-.1-1-.1c-2.4-.1-4.8-.1-7-.2z"/><path d="m186.8 123.7c-.6 0-1.2.5-1.4 1-.2.6-.2 1.2-.2 1.8v2.8c0 .6 0 1.3.4 1.8.5.6 1.4.6 2.1.6 2.3-.1 4.6-.1 7-.2.2 0 .4 0 .6-.1.4-.2.6-.8.4-1.2s-.6-.7-1.1-.8-1-.1-1.4-.1c-1.3 0-2.6 0-3.9-.1-.2 0-.3 0-.5-.1-.1-.1-.3-.3-.2-.4.1-.2.4-.3.6-.3h3.3c.3 0 .6 0 .9-.1s.5-.4.5-.6c0-.3-.2-.6-.5-.7s-.6-.1-.9-.2c-1.1 0-2.2-.1-3.4-.1-.2 0-.5-.1-.4-.3 0-.1.2-.2.3-.2 1.3-.2 2.7-.3 4.1-.2.5 0 1.1.1 1.6-.1s.9-.7.8-1.2c-.1-.3-.4-.6-.7-.7s-.7-.1-1-.1c-2.4-.1-4.8-.1-7-.2z"/><path d="m136.4 111.6c1.2-.2 2.2-.3 3.3.2.6.3 1.2.7 1.9.8.7.2 1.5 0 1.9-.6.3-.5.1-1.2-.4-1.6-.4-.4-1-.6-1.6-.8-2.1-.5-4.4-.6-6.5-.1-1 .2-2 .6-2.6 1.3s-.8 1.9-.1 2.5c.5.5 1.2.6 2 .7 1.8.2 3.6.3 5.3.3.2 0 .3 0 .5.1.1.1.3.2.2.4 0 .1-.1.1-.2.2-.8.5-1.9.5-2.8.3s-1.9-.5-2.8-.7c-.7-.2-1.5-.3-2 .3-.3.4-.2 1 .1 1.4.5.6 1.3.8 2.1.9 2.4.4 4.9.5 7.2-.2.6-.2 1.2-.4 1.6-.7s.8-.9.7-1.5c-.1-.5-.4-.8-.8-1.1s-.9-.4-1.4-.5c-1.8-.4-3.6-.6-5.5-.5-.3 0-.6 0-.8-.2-.1-.2 0-.5.2-.6.1-.2.4-.3.5-.3z"/><path d="m259.4 111.6c1.2-.2 2.2-.3 3.3.2.6.3 1.2.7 1.9.8.7.2 1.5 0 1.9-.6.3-.5.1-1.2-.4-1.6-.4-.4-1-.6-1.6-.8-2.1-.5-4.4-.6-6.5-.1-1 .2-2 .6-2.6 1.3s-.8 1.9-.1 2.5c.5.5 1.2.6 2 .7 1.8.2 3.6.3 5.3.3.2 0 .3 0 .5.1s.3.2.2.4c0 .1-.1.1-.2.2-.8.5-1.9.5-2.8.3s-1.9-.5-2.8-.7c-.7-.2-1.5-.3-2 .3-.3.4-.2 1 .1 1.4.5.6 1.3.8 2.1.9 2.4.4 4.9.5 7.2-.2.6-.2 1.2-.4 1.6-.7.4-.4.8-.9.7-1.5-.1-.5-.4-.8-.8-1.1s-.9-.4-1.4-.5c-1.8-.4-3.6-.6-5.5-.5-.3 0-.6 0-.8-.2-.1-.2 0-.5.2-.6.1-.2.4-.3.5-.3z"/><path d="m59.1 116v-5.5c0-.7.6-1.3 1.3-1.3h.2c.7 0 1.3.6 1.3 1.3v5.5c0 .7-.6 1.3-1.3 1.3h-.2c-.7 0-1.3-.6-1.3-1.3z"/><path d="m111.2 130.5v-5.5c0-.7.6-1.3 1.3-1.3h.2c.7 0 1.3.6 1.3 1.3v5.5c0 .7-.6 1.3-1.3 1.3h-.2c-.7.1-1.3-.5-1.3-1.3z"/><path d="m63.6 111.1c0 1.5 0 3.1.1 4.6.1.7.2 1.4.7 1.7s1.2.1 1.6-.3.6-1 .6-1.6v-1.8c0-.2.1-.5.3-.6s.5 0 .8.2c1 .7 2.1 1.5 3.1 2.2s2.1 1.5 3.3 1.8c.6.1 1.3.1 1.7-.3.3-.3.4-.7.4-1.1.3-1.7.3-3.4.1-5.2-.1-.7-.3-1.5-.9-1.8-.7-.3-1.5.2-1.8 1-.3.7-.2 1.5-.2 2.3 0 .4-.1.9-.4 1-.2 0-.3-.1-.5-.1-1.1-.6-2.1-1.2-3.1-2-.7-.5-1.3-1-2.1-1.4s-1.7-.5-2.5-.3c-.7.1-1.1.9-1.2 1.7z"/><path d="m79.5 111.4c-.5.1-1.1-.1-1.4-.5s-.2-1.1.2-1.4c.3-.2.6-.2 1-.3 2.8-.2 5.7-.2 8.6.1.4 0 .8.1 1.1.3s.6.5.7.9c0 .5-.4.9-.9 1.1s-1 .1-1.5.1-1 .1-1.3.4c-.2.3-.2.6-.3 1-.1.7-.1 1.4-.2 2.1-.1.5-.1 1.1-.3 1.6s-.7.9-1.2.9c-.7.1-1.4-.6-1.6-1.3s-.1-1.5-.1-2.2-.1-1.6-.7-2.1c-.6-.7-1.4-.8-2.1-.7z"/><path d="m116.6 125.9c-.5.1-1-.1-1.3-.5s-.2-1.1.2-1.4c.3-.2.6-.2.9-.3 2.6-.2 5.2-.2 7.9.1.4 0 .7.1 1 .3s.6.5.6.9c0 .5-.4.9-.8 1.1s-.9.1-1.4.1c-.4 0-.9.1-1.2.4-.2.3-.2.6-.3.9-.1.7-.1 1.3-.2 2 0 .5-.1 1-.3 1.5s-.6.9-1.1.9c-.7.1-1.3-.6-1.4-1.3-.2-.7-.1-1.4-.1-2.1s-.1-1.5-.6-2c-.6-.6-1.4-.7-1.9-.6z"/><path d="m161.7 125.9c-.5.1-1-.1-1.3-.5s-.2-1.1.2-1.4c.3-.2.6-.2.9-.3 2.6-.2 5.2-.2 7.9.1.4 0 .7.1 1 .3s.6.5.6.9c0 .5-.4.9-.8 1.1s-.9.1-1.4.1c-.4 0-.9.1-1.2.4-.2.3-.2.6-.3.9-.1.7-.1 1.3-.2 2 0 .5-.1 1-.3 1.5s-.6.9-1.1.9c-.7.1-1.3-.6-1.4-1.3-.2-.7-.1-1.4-.1-2.1s-.1-1.5-.6-2c-.5-.6-1.3-.7-1.9-.6z"/><path d="m102.6 112c0-1.1 0-1.7.6-2.3s1.6-.7 2.4-.5 1.5.7 2.1 1.3 1 1.4 1.4 2.1c.2.3.4.6.7.7.3 0 .5-.2.6-.4 1-1.2 1.5-2.8 2.9-3.5.6-.3 1.3-.4 1.9-.3.6 0 1.2.1 1.6.5.4.5.5 1.1.5 1.7 0 1.3 0 2.6.1 4 0 .4 0 .8-.1 1.2s-.4.8-.7 1c-.5.3-1.2 0-1.6-.4s-.5-1.1-.6-1.6c-.1-.6 0-1.2-.1-1.8 0-.1 0-.3-.2-.3-.1-.1-.3 0-.4.1s-.2.2-.2.4c-.5 1-1.1 1.9-1.8 2.8-.4.5-1 1-1.7 1-.5 0-1-.4-1.4-.7-.9-.8-1.6-1.7-2.3-2.6-.2-.3-.4-.6-.7-.5-.2 0-.3.2-.4.4s0 .4 0 .6c.1.7 0 1.5-.4 2.1-.5.6-1.4.8-1.9.3-.5-.4-.5-1.1-.5-1.7.1-1.4.1-2.6.2-3.6z"/><path d="m131.5 126.3c0-1.1 0-1.7.6-2.3.6-.5 1.5-.7 2.3-.5s1.5.7 2 1.3 1 1.4 1.4 2.1c.2.3.4.6.7.7.2 0 .5-.2.6-.4 1-1.2 1.5-2.8 2.8-3.5.6-.3 1.2-.4 1.9-.3.6 0 1.2.1 1.5.5.4.5.4 1.1.4 1.7 0 1.3 0 2.6.1 4 0 .4 0 .8-.1 1.2s-.3.8-.7 1c-.5.3-1.2 0-1.6-.4s-.5-1.1-.6-1.6c-.1-.6 0-1.2-.1-1.8 0-.1 0-.3-.1-.3-.1-.1-.3 0-.4.1s-.2.2-.2.4c-.5 1-1.1 1.9-1.8 2.8-.4.5-1 1-1.6 1-.5 0-.9-.4-1.3-.7-.8-.8-1.6-1.7-2.2-2.6-.2-.3-.4-.6-.7-.5-.2 0-.3.2-.3.4v.6c.1.7 0 1.5-.4 2.1s-1.3.8-1.8.3c-.4-.4-.5-1.1-.5-1.7 0-1.4 0-2.6.1-3.6z"/><path d="m70.8 126.8c.5.3 1.1.6 1.7.6s1.2-.4 1.4-1c.1-.6-.4-1.2-.9-1.6-1.2-.8-2.6-1.3-4-1.5-1.2-.2-2.5-.2-3.7.1s-2.3.9-3.1 1.9-1.1 2.3-.7 3.5c.3 1 1.1 1.8 2 2.3s2 .7 3 .8c2.2.2 4.4-.2 6.3-1.3.3-.2.6-.4.9-.7.2-.3.3-.7.2-1.1-.2-.7-1-.9-1.7-.8s-1.3.6-1.9.9c-1 .5-2.2.8-3.4.7-.7-.1-1.4-.3-1.9-.8-.6-.8-.4-1.9.4-2.6s1.8-.8 2.7-.6 1.8.6 2.7 1.2z"/><path d="m196.1 109.1c-3.7 0-6.8 1.9-6.8 4.2s3 4.2 6.8 4.2 6.8-1.9 6.8-4.2c-.1-2.3-3.1-4.2-6.8-4.2zm.2 5.9c-2 0-3.6-.7-3.6-1.7s1.6-1.7 3.6-1.7 3.6.7 3.6 1.7-1.7 1.7-3.6 1.7z"/><path d="m187.9 113.6c-.1-.2-.3-.3-.4-.5 0-.2.1-.4.2-.5.4-.7.4-1.6 0-2.3-.5-.7-1.4-.8-2.2-.9-2.1-.2-4.1 0-6.2.1-.7 0-1.5.3-1.9.9s-.5 1.4-.5 2.1c-.1.9-.1 1.9 0 2.8.1.6.2 1.2.6 1.6.5.4 1.1.4 1.8.4 2 0 3.9 0 5.9-.1.8 0 1.7 0 2.4-.5.5-.3.8-.9.9-1.5 0-.5-.2-1.1-.6-1.6zm-7.9-1.5c0-.1 0-.3.2-.4.1-.1.2-.2.4-.2 1.4-.1 2.7-.2 4-.1.2 0 .5.1.6.3s0 .4-.1.5-.3.2-.5.2h-.5c-1.2-.1-2.3.2-3.5.1-.1 0-.2 0-.4-.1 0-.1-.1-.2-.2-.3zm5.3 2.8c-.1.1-.3.2-.5.2h-.5c-1.2-.1-2.3.2-3.5.1-.1 0-.2 0-.4-.1-.1-.1-.2-.1-.2-.3 0-.1 0-.3.2-.4.1-.1.2-.2.4-.2 1.4-.1 2.7-.2 4-.1.2 0 .5.1.6.3.1.1 0 .4-.1.5z"/><path d="m237 113c-.3-.1-.6.2-.6.5s.2.5.4.7.5.2.8.3c.3 0 .6.1.8.2.1.1.3.2.3.4s-.3.3-.5.3c-.9.1-1.9.1-2.8-.2-.7-.2-1.5-.6-1.6-1.4-.1-.5.2-1.1.6-1.5s1-.6 1.6-.7c.8-.2 1.6-.2 2.4 0 1.1.3 2.1 1.2 3.2 1.4.4.1.9 0 1.2-.3.2-.2.3-.6.2-1s-.3-.6-.5-.9c-.6-.6-1.4-1-2.2-1.3s-1.7-.3-2.6-.3c-1.1 0-2.3 0-3.4.3s-2.2.8-2.9 1.7-1.2 2-.9 3.1c.2 1.1 1.1 2.1 2.2 2.6s2.3.7 3.5.6c1.2 0 2.4-.2 3.6-.3.6-.1 1.2-.1 1.7-.3s1-.7 1.1-1.2c.1-.4-.1-.8-.4-1.1s-.6-.5-1-.7c-1.2-.8-2.7-1.1-4.2-.9z"/><path d="m91.5 123.3c1.1.3 2.3 0 3.3-.6.3-.2.6-.5.6-.9s-.3-.8-.7-.9-.8-.1-1.2 0c-.8.2-1.6.8-2.1 1.5-.1.2-.2.3-.2.5.1.1.2.3.3.4z"/><path d="m10.8 110.7c-1.2-1-2.8-1.3-4.3-1.4-1.7-.1-3.4-.1-4.7.1-.7 0-1.2.2-1.5.8s-.3 1.2-.3 1.8v3c0 .7 0 1.4.5 1.8.4.4 1 .4 1.6.4h4.5c1.1 0 2.2 0 3.2-.3s2-1 2.4-2c.5-1.5-.2-3.2-1.4-4.2zm-2.1 3.1c-.1.4-.5.6-.9.8s-.8.1-1.2.2c-.7 0-1.4.1-2.1.1-.3 0-.6 0-.8-.1-.3-.2-.4-.7-.4-1.1s0-.8.1-1.2.6-.7 1-.6c.5.1 1.2 0 1.8 0s1.3 0 1.8.4c.6.2.9.9.7 1.5z"/><path d="m108.9 125.3c-1.2-1-2.7-1.3-4.2-1.4-1.6-.1-3.2-.1-4.5.1-.7 0-1.2.2-1.4.8-.3.5-.3 1.2-.3 1.8v3c0 .7 0 1.4.5 1.8.4.4 1 .4 1.5.4h4.3c1 0 2.1 0 3.1-.3s1.9-1 2.4-2c.5-1.5-.2-3.3-1.4-4.2zm-2 3c-.1.4-.5.6-.9.8s-.8.1-1.1.2c-.7 0-1.4.1-2 .1-.3 0-.5 0-.8-.1-.3-.2-.4-.7-.4-1.1s0-.8.1-1.2c.2-.4.5-.7.9-.6.5.1 1.1 0 1.7 0s1.2 0 1.8.4c.6.3 1 .9.7 1.5z"/><path d="m158.8 110.9c-1.2-1-2.7-1.3-4.2-1.4-1.6-.1-3.3-.1-4.6.1-.7 0-1.2.2-1.4.8-.3.5-.3 1.2-.3 1.8v3c0 .7 0 1.4.5 1.8.4.4 1 .4 1.5.4h4.3c1.1 0 2.1 0 3.1-.3s2-1 2.4-2c.6-1.5-.1-3.3-1.3-4.2zm-2 3c-.1.4-.5.6-.9.8-.4.1-.8.1-1.2.2-.7 0-1.4.1-2.1.1-.3 0-.5 0-.8-.1-.3-.2-.4-.7-.4-1.1s0-.8.1-1.2.5-.7.9-.6c.5.1 1.1 0 1.7 0s1.3 0 1.8.4c.8.3 1.1 1 .9 1.5z"/><path d="m13.2 111.2c0-.4 0-.8.2-1.2s.4-.7.8-.8c.7-.2 1.4.3 1.8.9s.4 1.4.5 2.1.2 1.5.7 2c.7.7 1.7.8 2.7.8.7 0 1.4 0 1.9-.4.6-.4.8-1.2.9-1.9s0-1.4.3-2.1.8-1.3 1.5-1.3c.6 0 1.2.5 1.4 1.1s.2 1.2.2 1.9c-.1 1-.2 2.1-.7 3-.8 1.4-2.4 2-4 2.2-1.4.2-2.7.2-4.1 0-.9-.2-1.9-.5-2.6-1.1s-1.1-1.5-1.3-2.5-.1-2-.2-2.7z"/><path d="m203.9 111.2c0-.4 0-.8.1-1.2.2-.4.4-.7.8-.8.7-.2 1.4.3 1.7.9s.4 1.4.5 2.1.2 1.5.7 2c.6.7 1.7.8 2.6.8.7 0 1.4 0 1.9-.4.6-.4.8-1.2.9-1.9s0-1.4.3-2.1.8-1.3 1.5-1.3c.6 0 1.1.5 1.4 1.1.2.6.2 1.2.2 1.9-.1 1-.2 2.1-.7 3-.8 1.4-2.4 2-3.9 2.2-1.3.2-2.7.2-4 0-.9-.2-1.9-.5-2.6-1.1s-1.1-1.5-1.2-2.5c-.2-1-.2-2-.2-2.7z"/><path d="m171.8 125.5c0-.4 0-.8.1-1.2.2-.4.4-.7.8-.8.7-.2 1.4.3 1.7.9s.4 1.4.5 2.1.2 1.5.7 2c.6.7 1.7.8 2.6.8.6 0 1.3 0 1.9-.4s.8-1.2.8-1.9 0-1.4.3-2.1c.2-.7.8-1.3 1.5-1.3.6 0 1.1.5 1.4 1.1.2.6.2 1.2.2 1.9-.1 1-.2 2.1-.7 3-.8 1.4-2.4 2-3.9 2.2-1.3.2-2.7.2-4 0-.9-.2-1.8-.5-2.5-1.1s-1.1-1.5-1.2-2.5c-.2-1-.1-1.9-.2-2.7z"/><path d="m147.2 125.5c0-.4 0-.8.1-1.2s.4-.7.8-.8c.6-.2 1.4.3 1.7.9s.4 1.4.5 2.1.2 1.5.7 2c.6.7 1.6.8 2.5.8.6 0 1.3 0 1.8-.4.6-.4.8-1.2.8-1.9s0-1.4.2-2.1.8-1.3 1.4-1.3 1.1.5 1.3 1.1.2 1.2.2 1.9c-.1 1-.2 2.1-.7 3-.8 1.4-2.3 2-3.8 2.2-1.3.2-2.6.2-3.9 0-.9-.2-1.8-.5-2.5-1.1s-1-1.5-1.2-2.5c0-1 .1-1.9.1-2.7z"/><path d="m43.2 110.1c-.8-.7-1.9-.9-3-1-1.9-.2-3.7-.1-5.6.1-.6 0-1.2.1-1.6.5s-.4 1-.5 1.5c-.1 1.3-.1 2.6 0 3.9 0 .6.1 1.3.5 1.8.5.6 1.3.8 2 .4.6-.4.8-1 .7-1.9 0-.3.4-.4.8-.4 1.2 0 2.4-.1 3.5-.1.8 0 1.7 0 2.5-.3s1.5-.8 1.8-1.6c.2-1-.3-2.2-1.1-2.9zm-2.6 2.7c-.2.1-.4.1-.6.1-1.1.1-2.3.1-3.4 0-.2 0-.4 0-.6-.1s-.4-.2-.4-.4c-.1-.4.2-.8.6-.9 1.4-.1 2.4-.1 3.6 0 .2 0 .5.1.7.2s.4.3.3.6c.1.3-.1.4-.2.5z"/><path d="m129.6 110.2c-.8-.7-1.9-.9-3-1-1.9-.2-3.7-.1-5.6.1-.6 0-1.2.1-1.6.5s-.4 1-.5 1.5c-.1 1.3-.1 2.6 0 3.9 0 .6.1 1.3.5 1.8.5.6 1.3.8 2 .4.6-.4.8-1 .7-1.9 0-.3.4-.4.8-.4 1.2 0 2.4-.1 3.5-.1.8 0 1.7 0 2.5-.3s1.5-.8 1.8-1.6c.3-1-.3-2.2-1.1-2.9zm-2.6 2.7c-.2.1-.4.1-.6.1-1.1.1-2.3.1-3.4 0-.2 0-.4 0-.6-.1s-.4-.2-.4-.4c-.1-.4.2-.8.6-.9 1.4-.1 2.4-.1 3.6 0 .2 0 .5.1.7.2s.4.3.3.6c.1.3 0 .4-.2.5z"/><path d="m56.6 113.9c-.1-.1-.2-.2-.1-.4 0-.1.1-.2.2-.3.5-.5.7-1.1.5-1.8-.2-.9-.9-1.5-1.8-1.8s-1.8-.3-2.7-.3h-5.7c-.6 0-1.1.5-1.3 1s-.3 1.1-.3 1.7c0 .9 0 1.8-.1 2.7 0 .5 0 .9.1 1.4.1.4.4.9.7 1.1.4.2.9.2 1.3 0s.7-.6.9-1c.1-.4.2-.9.5-1.1.2-.2.5-.2.8-.3.6-.1 1.2-.1 1.8-.1.4 0 .9 0 1.3.1s.8.3 1.1.7c.4.6.3 1.3.7 1.9.4.5 1.3.6 1.8.3s.9-1.1.9-1.7c0-.9-.3-1.5-.6-2.1zm-3-1.5c-.2.1-.5.2-.8.2-1.1 0-2.2.1-3.3.1-.3 0-.7 0-.9-.2-.2-.3-.1-.7.2-.9s.6-.3 1-.3c1-.2 2.2-.1 3.4.1.3 0 .6.1.7.4.1.2-.1.5-.3.6z"/><path d="m86 128.2c-.1-.1-.2-.2-.1-.4 0-.1.1-.2.2-.3.5-.5.7-1.1.5-1.8-.2-.9-.9-1.5-1.8-1.8s-1.8-.3-2.7-.3h-5.7c-.6 0-1.1.5-1.3 1s-.3 1.1-.3 1.7c0 .9 0 1.8-.1 2.7 0 .5 0 .9.1 1.4s.4.9.7 1.1c.4.2.9.2 1.3 0s.7-.6.9-1c.1-.4.2-.9.5-1.1.2-.2.5-.2.8-.3.6-.1 1.2-.1 1.8-.1.4 0 .9 0 1.3.1s.8.3 1.1.7c.4.6.3 1.3.7 1.9.4.5 1.3.6 1.8.3.6-.4.9-1.1.9-1.7 0-.9-.3-1.6-.6-2.1zm-3-1.5c-.2.1-.5.2-.8.2-1.1 0-2.2.1-3.3.1-.3 0-.7 0-.9-.2-.2-.3-.1-.7.2-.9s.6-.3 1-.3c1-.2 2.2-.1 3.4.1.3 0 .6.1.7.4.1.1-.1.4-.3.6z"/><path d="m228.4 113.9c-.1-.1-.2-.2-.1-.4 0-.1.1-.2.2-.3.4-.5.6-1.1.5-1.8-.2-.9-.9-1.5-1.7-1.8s-1.7-.3-2.6-.3h-5.6c-.6 0-1.1.5-1.3 1s-.2 1.1-.3 1.7c0 .9 0 1.8-.1 2.7 0 .5 0 .9.1 1.4.1.4.3.9.7 1.1s.9.2 1.3 0 .7-.6.9-1c.1-.4.2-.9.5-1.1.2-.2.5-.2.8-.3.6-.1 1.1-.1 1.7-.1.4 0 .8 0 1.3.1.4.1.8.3 1 .7.4.6.3 1.3.7 1.9.4.5 1.2.6 1.8.3.6-.4.8-1.1.8-1.7 0-.9-.3-1.5-.6-2.1zm-2.9-1.5c-.2.1-.5.2-.8.2-1.1 0-2.2.1-3.2.1-.3 0-.7 0-.8-.2-.2-.3-.1-.7.2-.9s.6-.3.9-.3c1-.2 2.2-.1 3.3.1.3 0 .6.1.7.4.1.2-.1.5-.3.6z"/><path d="m33.1 97.8v-25.8c0-3.3 2.7-6 6-6h1c3.3 0 6 2.7 6 6v25.8c0 3.3-2.7 6-6 6h-1c-3.4-.1-6-2.7-6-6z"/><ellipse cx="39.5" cy="55.9" rx="6.5" ry="7.8"/><path d="m51.9 49.4c0-3.2.3-3.4 1.1-6.5.2-.9.5-1.7.8-2.4 1.2-2.6 3.3-4.9 6-5.6 3-.8 6.4.4 8.7 2.6 2.3 2.1 4 4.4 5.4 7.2.8 1.5 1.8 3 2.8 4.3.3.4.5.8 1 .7s.8-.5.8-1c-.1-8-.2-5.9-.4-13.6 0-2.4-.1-4.8.8-7s2.7-4.2 5-4.4c2.7-.3 5.1 1.8 6.2 4.2 1.1 2.5 1.1 5.2 1.1 7.9-.1 17-.3 24.4-.4 41.6.3 6.1.2 12.3-.2 18.4-.2 2.7-.5 5.6-3.3 6.9-.7.3-1.5.5-2.3.4-2.8-.2-5-2.1-6.3-4.5-1-1.8-1.6-3.7-2.2-5.7l-10.2-33.5c-.1-.5-.6-.8-1.1-.8-.7.1-.8.8-.8 1.5-.4 12.2-.3 24.3.1 36.5.1 2.1.1 4.5-2 6-1.1.8-2.4 1-3.7.9-3.1-.4-5.1-3-6.1-5.9-.8-2.4-.8-4.9-.6-8.2.2-12.1 0-32-.2-40z"/><path d="m116 16.4h-1.9c-8.8 0-16 7.2-16 16v55.3c0 8.8 7.2 16 16 16h1.9c8.8 0 16-7.2 16-16v-55.3c0-8.8-7.2-16-16-16zm10.3 34.3c-2.4 4.3-4.9 8.5-7.3 12.8-.2.3-.4.7-.3 1 .1.5.7.8 1.2.8s1-.2 1.5-.2c1.8-.1 3.3 1.8 3.3 3.7.1 1.8-.9 3.6-1.8 5.2-1.8 3.2-3.6 6.4-5.4 9.6-.4.6-.7 1.3-1.3 1.8s-1.4.7-2.1.3c-1.2-.6-1-2.3-.6-3.6.6-2.1 1.2-4.3 1.8-6.4.1-.5.3-1.1.1-1.6-.3-.7-1.3-1-2.1-.9s-1.6.5-2.4.5c-2 .1-3.6-1.8-3.8-3.8s.5-3.9 1.4-5.7 1.8-3.6 2.1-5.5c-1.3-.2-2.7.2-4.1.2-1.4.1-2.9-.4-3.4-1.7-.3-.9-.1-1.8.2-2.7 1.6-5.3 3.5-10.5 5.5-15.6.6-1.6 1.5-3.4 3.1-3.9 2.1-.7 4.6-.1 7-.1.9 0 1.8 0 2.4.5 1.1.8 1 2.5.5 3.9-.5 1.6-1.3 3-2.4 4.3-.3.4-.7.9-.6 1.5.2.7 1.1 1 1.9.9 1.3-.1 2.5-.3 3.7-.2 1.2.2 2.5.9 2.8 2.2.2.8-.4 1.8-.9 2.7z"/><path d="m139.3 27.7s.6-5.6 2.1-7.9 4.4-4 7-3.1c1.7.6 3 2.2 3.6 3.9s.7 3.6.8 5.4c1 23.9-.8 33.5.3 57.4.1 1.4.2 2.9.7 4.2s1.6 2.5 3 2.8c1.9.4 3.8-1 4.7-2.8.8-1.8.8-3.8.8-5.8 0-22.8-.1-31.3-.1-54.1 0-2.5 0-5.1 1-7.4s3.4-4.2 5.9-3.8c2.1.3 3.7 2.1 4.4 4s.8 4.1.8 6.2q.1 14.3.3 28.9c0 10.4 0 20.9-.7 31.3-.2 3.4-.6 7-2.5 9.9-2.4 3.6-6.7 5.5-11 6.2-3.1.5-6.4.5-9.4-.3-3.1-.8-5.9-2.5-7.9-5-3.2-4.2-3.4-9.9-3.5-15.2-.1-7.1-.2-14.2-.4-21.8.5-15.7.1-33 .1-33z"/><path d="m180.2 97.1v-51.2c0-3.3 2.7-6 6-6h1c3.3 0 6 2.7 6 6v51.1c0 3.3-2.7 6-6 6h-1c-3.3 0-6-2.6-6-5.9z"/><path d="m220.1 62.4c.5 1.5 1.2 3 2.2 4.2s2.4 2.2 4 2.3c1.8.1 3.6-.9 4.7-2.4s1.5-3.4 1.5-5.2c0-3.9-1.7-7.6-4.5-10.3s-6.5-4.3-10.4-4.6c-4.8-.5-9.8 1-13.4 4.1-3.7 3.1-5.9 7.9-5.9 12.7.1 4.8 2.5 9.6 6.5 12.3 2.6 1.8 5.7 2.6 8.5 3.9s5.6 3.3 6.6 6.3c.5 1.4.5 3.1-.3 4.4-.7 1.3-2.2 2.2-3.7 2-1.2-.2-2.2-1.1-2.9-2.1s-1.2-2.2-1.8-3.3c-1.1-1.8-2.7-3.4-4.8-4-2-.6-4.4-.2-5.9 1.3-1.6 1.8-1.7 4.5-1.3 6.8.7 3.8 2.6 7.6 5.7 9.9 2.8 2 6.3 2.7 9.7 2.8 4.7.1 9.5-1 13.3-3.7s6.6-7 6.8-11.7c.2-4-1.5-7.9-4.1-10.9s-6.1-5.2-9.8-6.6c-1.8-.7-3.8-1.3-5.5-2.3s-3.2-2.5-3.8-4.4c-.5-1.9.3-4.2 2.1-5 1.3-.6 3-.2 4.2.6 1.4.9 2.1 2.2 2.3 2.9z"/><ellipse cx="181.9" cy="31.3" rx="3.9" ry="5.6"/><ellipse cx="191.8" cy="31.3" rx="3.9" ry="5.6"/><path d="m145.2 3.2c1.6-.3 2.9-.3 4.2.2.8.3 1.6.8 2.5 1s2 0 2.4-.7.1-1.5-.5-2-1.4-.8-2.1-1c-2.7-.7-5.6-.7-8.4-.1-1.3.3-2.5.7-3.4 1.6-.8.9-1 2.4-.2 3.3.6.6 1.6.8 2.5.9 2.3.3 4.6.4 6.9.3.2 0 .4 0 .6.1s.3.3.2.5c0 .1-.2.2-.3.2-1.1.6-2.4.6-3.6.4s-2.4-.6-3.6-.9c-.9-.2-2-.3-2.5.3-.4.5-.3 1.3.1 1.8.6.7 1.7 1 2.7 1.2 3.1.5 6.3.6 9.3-.2.7-.2 1.5-.5 2.1-.9s1-1.2.8-1.9c-.1-.6-.5-1.1-1.1-1.4-.5-.3-1.2-.5-1.8-.6-2.3-.5-4.7-.8-7.1-.6-.4 0-.8 0-1-.3s0-.6.3-.8c.6-.4.9-.4 1-.4z"/><path d="m127.2 0c-.8 0-1.5.6-1.8 1.3s-.3 1.6-.3 2.4v3.6c0 .8 0 1.7.6 2.3.7.7 1.8.8 2.7.7 3-.1 6-.2 9-.2.3 0 .6 0 .8-.1.6-.3.8-1 .5-1.6s-.8-.9-1.4-1.1-1.2-.1-1.9-.1c-1.7.1-3.4 0-5.1-.1-.2 0-.5 0-.6-.2-.2-.1-.3-.4-.3-.6.1-.3.5-.3.8-.3h4.3c.4 0 .8 0 1.1-.1s.7-.5.7-.8c0-.4-.3-.8-.6-.9-.2-.2-.7-.2-1.1-.2-1.5-.1-2.9-.1-4.4-.2-.3 0-.6-.1-.6-.4 0-.2.3-.2.4-.3 1.7-.3 3.5-.3 5.3-.2.7.1 1.4.1 2.1-.1s1.2-.9 1-1.6c-.1-.4-.5-.7-.9-.9s-.9-.2-1.3-.2c-3 0-6.1 0-9-.1z"/><path d="m116 7.3c-.3 0-.5-.2-.5-.5 0-1.5 0-3.1-.1-4.5 0-.4 0-.9-.2-1.3-.4-.7-1.3-1-2-.8s-1.3 1-1.4 1.7c0 2-.1 3.9-.1 5.9 0 .8 0 1.6.6 2.2s1.4.6 2.2.6c2.5 0 5.1-.1 7.6-.1.4 0 .9 0 1.2-.2.5-.2.8-.7.8-1.3 0-.5-.2-1.1-.6-1.4-.5-.4-1.2-.4-1.9-.4-1.8 0-3.7.1-5.6.1z"/></g></svg>