<svg version="1.1" id="Calque_1" xmlns="http://www.w3.org/2000/svg" x="0" y="0" viewBox="0 0 142.1 108.67" style="enable-background:new 0 0 142.1 108.67" xml:space="preserve"><style>.st0{fill:#cd808c}.st1{fill:#1196be}</style><path class="st0" d="M89.41 25.26c-.71-.09-1.41-.17-2.12-.28-2.31-.37-4.43-1.16-6.18-2.76-1.55-1.41-2.41-3.2-2.63-5.26-.13-1.17-.07-2.35-.06-3.53.01-3.08.04-6.15.06-9.23.01-1.16-.01-2.32-.03-3.49-.01-.38.15-.51.53-.51 2.47 0 4.95-.03 7.42-.03.59 0 1.18.05 1.9.08 0 1.01-.01 1.96 0 2.92.02 2.39.06 4.78.06 7.17 0 1.85-.08 3.69-.05 5.54.01.59.14 1.21.37 1.76.49 1.15 1.94 1.32 2.78.39.55-.62.73-1.37.74-2.15.02-3.76.02-7.52 0-11.27 0-1.23-.07-2.45-.11-3.68 0-.08 0-.16.01-.23.04-.7.04-.7.76-.7 2.9.01 5.8.03 8.7.05.65 0 .82.22.81.84-.04 3.63-.06 7.27-.11 10.9-.03 2.03.05 4.08-.18 6.09-.35 3.16-2.25 5.22-5.19 6.36-1.42.55-2.9.82-4.41.93-.18.01-.36.06-.54.09h-2.53zM13.39.31c.84 4.12 1.67 8.21 2.5 12.3.02.12.03.26.09.36.07.12.21.3.3.29.13-.02.33-.16.36-.29.36-1.67.7-3.34 1.03-5.01.48-2.44.95-4.87 1.4-7.32.07-.39.23-.52.64-.52 3.09 0 6.17-.03 9.26-.05 1.06-.01 2.12.02 3.18-.01.47-.02.59.16.59.59.05 2.42.13 4.84.19 7.26.09 4.16.19 8.32.25 12.48.02 1.26-.07 2.51-.07 3.77 0 .4-.19.53-.53.54-2.54.04-5.08.07-7.62.08-.15 0-.39-.22-.42-.38-.14-.6-.29-1.22-.3-1.83-.04-2.42-.02-4.84-.03-7.27v-3.62c-.22-.05-.4-.09-.63-.14-.22.87-.46 1.72-.66 2.58-.77 3.29-1.54 6.59-2.28 9.89-.11.5-.37.67-.82.68-.78.01-1.56.01-2.34.01h-4.4c-.67 0-.75-.06-.9-.68-.6-2.47-1.22-4.94-1.81-7.41-.45-1.9-.87-3.81-1.31-5.71-.03-.13-.07-.27-.12-.42-.18.01-.35.02-.64.04l-.18 14.04H.09V8.64C.09 5.97.08 3.3.07.63.07.26.15.06.59.06 4.83-.03 9.06.02 13.3.29c.03 0 .05.01.09.02zM50 .27c1.21-.03 2.39-.08 3.58-.1 2.45-.04 4.89-.05 7.34-.11.42-.01.58.14.72.52 1.58 4.13 3.18 8.25 4.77 12.37.15.38.15.37.7.25V.17h7.9v2.19c.02 3.59.06 7.17.07 10.76.01 2.28-.02 4.57-.02 6.85 0 1.29.03 2.58.04 3.87.01.68 0 .68-.7.69l-8.79.06c-.45 0-.91-.04-1.36.01-.46.05-.66-.15-.81-.55-1.22-3.22-2.45-6.43-3.68-9.65-.32-.84-.65-1.68-1-2.56l-.6.07v1.5c.03 3.46.05 6.93.08 10.39 0 .2.02.43-.07.59-.08.15-.29.33-.45.33-2.37.04-4.73.04-7.1.06-.6 0-.99-.39-.99-1.01.02-1.58.05-3.17.06-4.75.03-3.18.03-6.37.07-9.55.04-2.98.12-5.96.19-8.94 0-.06.02-.12.05-.26zM133.28 6.59v.98c.01 3.96.01 7.92.02 11.88 0 1.46.04 2.92.06 4.38.01.88 0 .88-.86.88-2.49-.01-4.98-.03-7.48-.04-.37 0-.75.03-1.12.03-.55 0-.88-.31-.87-.85.07-3.2.17-6.39.2-9.59.02-2.18.25-4.37-.05-6.56-.11-.78-.21-.88-1-.88-1.45 0-2.9-.02-4.35 0-.38.01-.51-.16-.53-.48-.03-.66-.06-1.33-.07-2-.01-1.32 0-2.63 0-4.03h3.6c2.52-.01 5.05-.01 7.57-.03 3.29-.02 6.57-.06 9.86-.09h.42c.63.02.68.08.69.71l.03 5.03c0 .22-.03.43-.04.68-2-.02-3.99-.02-6.08-.02zM36.19.13c3.37.05 6.66.1 9.89.15 0 2.59-.01 5.21 0 7.82.01 2.22.04 4.44.06 6.66.01 1.51.01 3.01.05 4.52.04 1.61.12 3.22.2 4.83.02.41-.15.55-.54.55-3.04.04-6.08.09-9.11.13-.86.01-.89-.05-.86-.89.05-1.63.08-3.26.11-4.89.05-2.31.1-4.62.14-6.94.05-2.64.11-5.28.14-7.92.01-1.04-.05-2.08-.08-3.12v-.9zM115.21.26v1.46c.01 3.81.01 7.61.03 11.42.01 1.99.03 3.97.08 5.96.04 1.66.12 3.31.2 4.97.02.43-.13.58-.56.59-3.07.04-6.14.09-9.21.13-.72.01-.79-.09-.76-.81.05-1.64.09-3.29.12-4.93.05-2.3.1-4.59.14-6.89.05-2.81.11-5.62.14-8.43.01-1.07-.04-2.14-.09-3.21-.02-.37.1-.47.48-.45 2.4.08 4.8.14 7.19.19.77.02 1.53 0 2.24 0z"/><g><path class="st1" d="M92.1 27.96c-.71-.09-1.41-.17-2.12-.28-2.31-.37-4.43-1.16-6.18-2.76-1.55-1.41-2.41-3.2-2.63-5.26-.13-1.17-.07-2.35-.06-3.53.01-3.08.04-6.15.06-9.23.01-1.16-.01-2.32-.03-3.49-.01-.38.15-.51.53-.51 2.47 0 4.95-.03 7.42-.03.59 0 1.18.05 1.9.08 0 1.01-.01 1.96 0 2.92.02 2.39.06 4.78.06 7.17 0 1.85-.08 3.69-.05 5.54.01.59.14 1.21.37 1.76.49 1.15 1.94 1.32 2.78.39.55-.62.73-1.37.74-2.15.02-3.76.02-7.52 0-11.27 0-1.23-.07-2.45-.11-3.68 0-.08 0-.16.01-.23.05-.7.05-.71.77-.7 2.9.01 5.8.03 8.7.05.65 0 .82.22.81.84-.04 3.63-.06 7.27-.11 10.9-.03 2.03.05 4.08-.18 6.09-.35 3.16-2.25 5.22-5.19 6.36-1.42.55-2.9.82-4.41.93-.18.01-.36.06-.54.09H92.1zM16.08 3.01c.84 4.12 1.67 8.21 2.5 12.3.02.12.03.26.09.36.07.12.21.3.3.29.13-.02.33-.16.36-.29.36-1.67.7-3.34 1.03-5.01.48-2.44.95-4.87 1.4-7.32.07-.39.23-.52.64-.52 3.09 0 6.17-.03 9.26-.05 1.06-.01 2.12.02 3.18-.01.47-.02.59.16.59.59.05 2.42.13 4.84.19 7.26.09 4.16.19 8.32.25 12.48.02 1.26-.07 2.51-.07 3.77 0 .4-.19.53-.53.54-2.54.04-5.08.07-7.62.08-.15 0-.39-.22-.42-.38-.14-.6-.29-1.22-.3-1.83-.04-2.42-.02-4.84-.03-7.27v-3.62c-.22-.05-.4-.09-.63-.14-.22.87-.46 1.72-.66 2.58-.77 3.29-1.54 6.59-2.28 9.89-.11.5-.37.67-.82.68-.78.01-1.56.01-2.34.01h-4.4c-.67 0-.75-.06-.9-.68-.6-2.47-1.22-4.94-1.81-7.41-.45-1.9-.87-3.81-1.31-5.71-.03-.13-.07-.27-.12-.42-.18.01-.35.02-.64.04l-.18 14.04H2.78V11.34c0-2.67-.01-5.34-.02-8.01 0-.37.08-.57.52-.57 4.24-.07 8.48-.01 12.71.25.02-.03.05-.01.09 0zM52.69 2.97c1.21-.03 2.39-.08 3.58-.1 2.45-.04 4.89-.05 7.34-.11.42-.01.58.14.72.52 1.58 4.13 3.18 8.25 4.77 12.37.15.38.15.37.7.25V2.87h7.9v2.19c.02 3.59.06 7.17.07 10.76.01 2.28-.02 4.57-.02 6.85 0 1.29.03 2.58.04 3.87.01.68 0 .68-.7.69l-8.79.06c-.45 0-.91-.04-1.36.01-.46.05-.66-.15-.81-.55-1.22-3.22-2.45-6.43-3.68-9.65-.32-.84-.65-1.68-1-2.56l-.6.07v1.5c.03 3.46.05 6.93.08 10.39 0 .2.02.43-.07.59-.08.15-.29.33-.45.33-2.37.04-4.73.04-7.1.06-.6 0-.99-.39-.99-1.01.02-1.58.05-3.17.06-4.75.03-3.18.03-6.37.07-9.55.04-2.98.12-5.96.19-8.94 0-.06.02-.12.05-.26zM135.97 9.28v.98c.01 3.96.01 7.92.02 11.88 0 1.46.04 2.92.06 4.38.01.88 0 .88-.86.88-2.49-.01-4.98-.03-7.48-.04-.37 0-.75.03-1.12.03-.55 0-.88-.31-.87-.85.07-3.2.17-6.39.2-9.59.02-2.18.25-4.37-.05-6.56-.11-.78-.21-.88-1-.88-1.45 0-2.9-.02-4.35 0-.38.01-.51-.16-.53-.48-.03-.66-.06-1.33-.07-2-.01-1.32 0-2.63 0-4.03h3.6c2.52-.01 5.05-.01 7.57-.03 3.29-.02 6.57-.06 9.86-.09h.42c.63.02.68.08.69.71l.03 5.03c0 .22-.03.43-.04.68-2-.02-3.99-.02-6.08-.02zM38.88 2.83c3.37.05 6.66.1 9.89.15 0 2.59-.01 5.21 0 7.82.01 2.22.04 4.44.06 6.66.01 1.51.01 3.01.05 4.52.04 1.61.12 3.22.2 4.83.02.41-.15.55-.54.55-3.04.04-6.08.09-9.11.13-.86.01-.89-.05-.86-.89.05-1.63.08-3.26.11-4.89.05-2.31.1-4.62.14-6.94.05-2.64.11-5.28.14-7.92.01-1.04-.05-2.08-.08-3.12v-.9zM117.9 2.96v1.46c.01 3.81.01 7.61.03 11.42.01 1.99.03 3.97.08 5.96.04 1.66.12 3.31.2 4.97.02.43-.13.58-.56.59-3.07.04-6.14.09-9.21.13-.72.01-.79-.09-.76-.81.05-1.64.09-3.29.12-4.93.05-2.3.1-4.59.14-6.89.05-2.81.11-5.62.14-8.43.01-1.07-.04-2.14-.09-3.21-.02-.37.1-.47.48-.45 2.4.08 4.8.14 7.19.19.77.02 1.52 0 2.24 0z"/></g><g><path d="M91.04 26.45c-.71-.09-1.41-.17-2.12-.28-2.31-.37-4.43-1.16-6.18-2.76-1.55-1.41-2.41-3.2-2.63-5.26-.13-1.17-.07-2.35-.06-3.53.01-3.08.04-6.15.06-9.23.01-1.16-.01-2.32-.03-3.49-.01-.38.15-.51.53-.51 2.47 0 4.95-.03 7.42-.03.59 0 1.18.05 1.9.08 0 1.01-.01 1.96 0 2.92.03 2.4.07 4.79.07 7.18 0 1.85-.08 3.69-.05 5.54.01.59.14 1.21.37 1.76.49 1.15 1.94 1.32 2.78.39.55-.62.73-1.37.74-2.15.02-3.76.02-7.52 0-11.27 0-1.23-.07-2.45-.11-3.68 0-.08 0-.16.01-.23.05-.7.05-.71.77-.7 2.9.01 5.8.03 8.7.05.65 0 .82.22.81.84-.04 3.63-.06 7.27-.11 10.9-.03 2.03.05 4.08-.18 6.09-.35 3.16-2.25 5.22-5.19 6.36-1.42.55-2.9.82-4.41.93-.18.01-.36.06-.54.09-.86-.01-1.7-.01-2.55-.01zM15.02 1.5c.84 4.12 1.67 8.21 2.5 12.3.02.12.03.26.09.36.07.12.21.3.3.29.13-.02.33-.16.36-.29.36-1.67.7-3.34 1.03-5.01.48-2.44.95-4.87 1.4-7.32.07-.39.23-.52.64-.52 3.09 0 6.17-.03 9.26-.05 1.06-.01 2.12.02 3.18-.01.47-.02.59.16.59.59.05 2.42.13 4.84.19 7.26.09 4.16.19 8.32.25 12.48.02 1.26-.07 2.51-.07 3.77 0 .4-.19.53-.53.54-2.54.04-5.08.07-7.62.08-.15 0-.39-.22-.42-.38-.14-.6-.29-1.22-.3-1.83-.04-2.42-.02-4.84-.03-7.27v-3.62c-.22-.05-.4-.09-.63-.14-.22.87-.46 1.72-.66 2.58-.77 3.29-1.54 6.59-2.28 9.89-.11.5-.37.67-.82.68-.78.01-1.56.01-2.34.01h-4.4c-.67 0-.75-.06-.9-.68-.6-2.47-1.22-4.94-1.81-7.41-.45-1.9-.87-3.81-1.31-5.71-.03-.13-.07-.27-.12-.42-.18.01-.35.02-.64.04l-.18 14.04H1.72V9.83c0-2.67-.01-5.34-.02-8.01 0-.37.08-.57.52-.57 4.24-.07 8.48-.01 12.71.25.03-.02.06-.01.09 0zM51.63 1.46c1.21-.03 2.39-.08 3.58-.1 2.45-.04 4.89-.05 7.34-.11.42-.01.58.14.72.52 1.58 4.13 3.18 8.25 4.77 12.37.15.38.15.37.7.25V1.36h7.9v2.19c.02 3.59.06 7.17.07 10.76.01 2.28-.02 4.57-.02 6.85 0 1.29.03 2.58.04 3.87.01.68 0 .68-.7.69l-8.79.06c-.45 0-.91-.04-1.36.01-.46.05-.66-.15-.81-.55-1.22-3.22-2.45-6.43-3.68-9.65-.32-.84-.65-1.68-1-2.56l-.6.07v1.5c.03 3.46.05 6.93.08 10.39 0 .2.02.43-.07.59-.08.15-.29.33-.45.33-2.37.04-4.73.04-7.1.06-.6 0-.99-.39-.99-1.01.02-1.58.05-3.17.06-4.75.03-3.18.03-6.37.07-9.55.04-2.98.12-5.96.19-8.94.01-.06.03-.12.05-.26zM134.92 7.78v.98c.01 3.96.01 7.92.02 11.88 0 1.46.04 2.92.06 4.38.01.88 0 .88-.86.88-2.49-.01-4.98-.03-7.48-.04-.37 0-.75.03-1.12.03-.55 0-.88-.31-.87-.85.07-3.2.17-6.39.2-9.59.02-2.18.25-4.37-.05-6.56-.11-.78-.21-.88-1-.88-1.45 0-2.9-.02-4.35 0-.38.01-.51-.16-.53-.48-.03-.66-.06-1.33-.07-2-.01-1.32 0-2.63 0-4.03h3.6c2.52-.01 5.05-.01 7.57-.03 3.29-.02 6.57-.06 9.86-.09h.42c.63.02.68.08.69.71l.03 5.03c0 .22-.03.43-.04.68-2.01-.02-4-.02-6.08-.02zM37.83 1.32c3.37.05 6.66.1 9.89.15 0 2.59-.01 5.21 0 7.82.01 2.22.04 4.44.06 6.66.01 1.51.01 3.01.05 4.52.04 1.61.12 3.22.2 4.83.02.41-.15.55-.54.55-3.04.04-6.08.09-9.11.13-.86.01-.89-.05-.86-.89.05-1.63.08-3.26.11-4.89.05-2.31.1-4.62.14-6.94.05-2.64.11-5.28.14-7.92.01-1.04-.05-2.08-.08-3.12-.01-.29 0-.59 0-.9zM116.85 1.45v1.46c.01 3.81.01 7.61.03 11.42.01 1.99.03 3.97.08 5.96.04 1.66.12 3.31.2 4.97.02.43-.13.58-.56.59-3.07.04-6.14.09-9.21.13-.72.01-.79-.09-.76-.81.05-1.64.09-3.29.12-4.93.05-2.3.1-4.59.14-6.89.05-2.81.11-5.62.14-8.43.01-1.07-.04-2.14-.09-3.21-.02-.37.1-.47.48-.45 2.4.08 4.8.14 7.19.19.76.02 1.52 0 2.24 0z"/></g><g><path class="st0" d="M112.9 35.35v2.46c.03 3.9.07 7.81.08 11.71.01 2.53-.03 5.07-.03 7.6 0 1.51.01 3.01.06 4.52.01.44-.15.57-.56.57-3.01.02-6.01.06-9.02.08-.84.01-1.69-.03-2.53 0-.41.02-.58-.16-.71-.5-.55-1.48-1.09-2.95-1.65-4.42-1.14-2.95-2.3-5.9-3.43-8.85-.18-.46-.45-.28-.79-.18v1.64l.09 11.35c0 .14.01.27 0 .41-.04.6-.16.67-.76.68-2.54.01-5.08.04-7.63.07-.65.01-1.11-.41-1.1-1.05.03-3.36.08-6.71.11-10.07.02-2 0-4.01.03-6.01.05-3.17.14-6.33.19-9.5.01-.38.2-.4.48-.41 1.68-.04 3.36-.11 5.05-.14 2.2-.04 4.4-.04 6.6-.08.41-.01.59.12.74.51 1.75 4.57 3.52 9.13 5.27 13.7.15.38.34.46.78.28V35.39c2.94-.27 5.78.09 8.73-.04zM31.63 62.2c-.27.04-.51.12-.75.12-3.23 0-6.46-.01-9.69-.03-.8-.01-.78-.06-.93-.88-.17-.97-.45-1.93-.68-2.89-.06-.23-.16-.37-.46-.37-2.32.03-4.64.05-6.96.05-.38 0-.54.1-.63.48-.26 1.08-.58 2.15-.85 3.23-.07.3-.22.44-.52.46-.15.01-.31.04-.46.04-3.01.04-6.01.09-9.02.12-.68.01-.8-.14-.58-.8 1.68-5.14 3.35-10.27 5.05-15.4 1.17-3.54 2.39-7.06 3.57-10.6.1-.31.26-.41.59-.41 2.96-.02 5.91-.06 8.87-.09 1.18-.01 2.37-.01 3.55 0 .76.01.87.08 1.11.79 2.62 7.74 5.24 15.49 7.85 23.24.32.94.61 1.9.94 2.94zM15.76 40.65c-.09.02-.18.05-.27.07-1.3 3.81-2.12 7.74-3.03 11.68h6.15c0-.12.01-.19 0-.25-.38-3.58-1.4-7.03-2.22-10.52-.08-.36-.41-.65-.63-.98zM84.34 62.2c-.27.04-.51.12-.76.12-3.23 0-6.46-.01-9.69-.03-.81-.01-.78-.06-.93-.88-.18-.97-.45-1.93-.68-2.89-.06-.23-.15-.37-.46-.37-2.32.03-4.64.05-6.96.05-.37 0-.54.1-.63.48-.26 1.08-.58 2.15-.85 3.23-.07.3-.22.44-.52.46-.17.01-.34.04-.51.04l-8.97.12c-.69.01-.8-.14-.58-.8 1.68-5.14 3.35-10.27 5.05-15.4 1.17-3.54 2.39-7.06 3.57-10.6.1-.31.26-.41.59-.42 2.96-.02 5.91-.06 8.87-.09 1.18-.01 2.37-.01 3.55 0 .76.01.88.08 1.11.79 2.59 7.65 5.17 15.29 7.75 22.94.36 1.05.69 2.11 1.05 3.25zm-13.01-9.78c-.01-.18-.01-.34-.04-.48-.41-2.15-.81-4.3-1.25-6.44-.26-1.25-.58-2.5-.89-3.74-.12-.47-.3-.91-.95-1.06-1.29 3.83-2.13 7.76-3.04 11.72h6.17zM27.38 35.32h2.75l7.68-.03c.72 0 .78.06.91.75 1.05 5.86 2.11 11.72 3.16 17.58.02.1.05.2.05.3-.01.56.29.66.79.51.28-1.53.55-3.08.86-4.62.93-4.65 1.89-9.29 2.81-13.93.08-.42.33-.46.65-.47 1.44-.04 2.88-.1 4.33-.12 1.62-.02 3.23-.01 4.85 0 .68 0 .73.07.55.7-1.27 4.46-2.57 8.91-3.81 13.37-.95 3.43-1.83 6.87-2.77 10.3-.21.75-.55 1.47-.84 2.2-.16.41-.45.56-.92.56-2.3-.04-4.6-.05-6.9-.04-1.98.01-3.95.07-5.92.06-.21 0-.52-.22-.61-.41-.31-.75-.64-1.52-.81-2.32C32.96 54 31 48.49 29.43 42.88c-.63-2.26-1.25-4.52-1.86-6.77-.08-.21-.11-.41-.19-.79zM114.71 35.49c1.3 0 2.57.01 3.84 0 3.81-.02 7.63-.04 11.44-.07 2.65-.02 5.29-.04 7.94-.07.17 0 .34.01.52 0 .49-.02.7.17.69.7-.03 1.61-.01 3.22-.01 4.83v1.56h-6.72v.99c.01 4.4.01 8.8.02 13.21.01 1.66.05 3.32.06 4.98.01.79 0 .79-.81.79-2.8-.02-5.6-.03-8.4-.05-.41 0-.82.03-1.24.03-.58 0-.94-.34-.93-.92.07-3.53.19-7.05.22-10.58.02-2.43.27-4.86-.06-7.28-.11-.83-.24-.95-1.08-.95-1.6 0-3.2-.03-4.79 0-.44.01-.6-.17-.61-.55-.03-.72-.06-1.43-.07-2.15-.02-1.45-.01-2.9-.01-4.47z"/><g><path class="st1" d="M115.87 38.32v2.46c.03 3.9.07 7.81.08 11.71.01 2.53-.03 5.07-.03 7.6 0 1.51.01 3.01.06 4.52.01.44-.15.57-.56.57-3.01.02-6.01.06-9.02.08-.84.01-1.69-.03-2.53 0-.41.02-.58-.16-.71-.5-.55-1.48-1.09-2.95-1.65-4.42-1.14-2.95-2.3-5.9-3.43-8.85-.18-.46-.45-.28-.79-.18v1.64l.09 11.35c0 .14.01.27 0 .41-.04.6-.16.67-.76.68-2.54.01-5.08.04-7.63.07-.65.01-1.11-.41-1.1-1.05.03-3.36.08-6.71.11-10.07.02-2 0-4.01.03-6.01.05-3.17.14-6.33.19-9.5.01-.38.2-.4.48-.41 1.68-.04 3.36-.11 5.05-.14 2.2-.04 4.4-.04 6.6-.08.41-.01.59.12.74.51 1.75 4.57 3.52 9.13 5.27 13.7.15.38.34.46.78.28V38.36c2.94-.27 5.78.09 8.73-.04zM34.59 65.17c-.27.04-.51.12-.75.12-3.23 0-6.46-.01-9.69-.03-.8-.01-.78-.06-.93-.88-.17-.97-.45-1.93-.68-2.89-.06-.23-.16-.37-.46-.37-2.32.03-4.64.05-6.96.05-.38 0-.54.1-.63.48-.26 1.08-.58 2.15-.85 3.23-.07.3-.22.44-.52.46-.15.01-.31.04-.46.04-3.01.04-6.01.09-9.02.12-.68.01-.8-.14-.58-.8 1.68-5.14 3.35-10.27 5.05-15.4 1.17-3.54 2.39-7.06 3.57-10.6.1-.31.26-.41.59-.41 2.96-.02 5.91-.06 8.87-.09 1.18-.01 2.37-.01 3.55 0 .76.01.87.08 1.11.79 2.62 7.74 5.24 15.49 7.85 23.24.32.94.61 1.91.94 2.94zM18.73 43.63c-.09.02-.18.05-.27.07-1.3 3.81-2.12 7.74-3.03 11.68h6.15c0-.12.01-.19 0-.25-.38-3.58-1.4-7.03-2.22-10.52-.09-.36-.42-.66-.63-.98zM87.31 65.17c-.27.04-.51.12-.76.12-3.23 0-6.46-.01-9.69-.03-.81-.01-.78-.06-.93-.88-.18-.97-.45-1.93-.68-2.89-.06-.23-.15-.37-.46-.37-2.32.03-4.64.05-6.96.05-.37 0-.54.1-.63.48-.26 1.08-.58 2.15-.85 3.23-.07.3-.22.44-.52.46-.17.01-.34.04-.51.04l-8.97.12c-.69.01-.8-.14-.58-.8 1.68-5.14 3.35-10.27 5.05-15.4 1.17-3.54 2.39-7.06 3.57-10.6.1-.31.26-.41.59-.42 2.96-.02 5.91-.06 8.87-.09 1.18-.01 2.37-.01 3.55 0 .76.01.88.08 1.11.79 2.59 7.65 5.17 15.29 7.75 22.94.36 1.06.68 2.12 1.05 3.25zM74.3 55.39c-.01-.18-.01-.34-.04-.48-.41-2.15-.81-4.3-1.25-6.44-.26-1.25-.58-2.5-.89-3.74-.12-.47-.3-.91-.95-1.06-1.29 3.83-2.13 7.76-3.04 11.72h6.17zM30.35 38.29h2.75l7.68-.03c.72 0 .78.06.91.75 1.05 5.86 2.11 11.72 3.16 17.58.02.1.05.2.05.3-.01.56.29.66.79.51.28-1.53.55-3.08.86-4.62.93-4.65 1.89-9.29 2.81-13.93.08-.42.33-.46.65-.47 1.44-.04 2.88-.1 4.33-.12 1.62-.02 3.23-.01 4.85 0 .68 0 .73.07.55.7-1.27 4.46-2.57 8.91-3.81 13.37-.95 3.43-1.83 6.87-2.77 10.3-.21.75-.55 1.47-.84 2.2-.16.41-.45.56-.92.56-2.3-.04-4.6-.05-6.9-.04-1.98.01-3.95.07-5.92.06-.21 0-.52-.22-.61-.41-.31-.75-.64-1.52-.81-2.32-1.23-5.71-3.19-11.22-4.76-16.83-.63-2.26-1.25-4.52-1.86-6.77-.08-.21-.11-.41-.19-.79zM117.67 38.46c1.3 0 2.57.01 3.84 0 3.81-.02 7.63-.04 11.44-.07 2.65-.02 5.29-.04 7.94-.07.17 0 .34.01.52 0 .49-.02.7.17.69.7-.03 1.61-.01 3.22-.01 4.83v1.56h-6.72v.99c.01 4.4.01 8.8.02 13.21.01 1.66.05 3.32.06 4.98.01.79 0 .79-.81.79-2.8-.02-5.6-.03-8.4-.05-.41 0-.82.03-1.24.03-.58 0-.94-.34-.93-.92.07-3.53.19-7.05.22-10.58.02-2.43.27-4.86-.06-7.28-.11-.83-.24-.95-1.08-.95-1.6 0-3.2-.03-4.79 0-.44.01-.59-.17-.61-.55-.03-.72-.06-1.43-.07-2.15-.02-1.44-.01-2.9-.01-4.47z"/></g><g><path d="M114.7 36.66v2.46c.03 3.9.07 7.81.08 11.71.01 2.53-.03 5.07-.03 7.6 0 1.51.01 3.01.06 4.52.01.44-.15.57-.56.57-3.01.02-6.01.06-9.02.08-.84.01-1.69-.03-2.53 0-.41.02-.58-.16-.71-.5-.55-1.48-1.09-2.95-1.65-4.42-1.14-2.95-2.3-5.9-3.43-8.85-.18-.46-.45-.28-.79-.18v1.64l.09 11.35c0 .14.01.27 0 .41-.04.6-.16.67-.76.68-2.54.01-5.08.04-7.63.07-.65.01-1.11-.41-1.1-1.05.03-3.36.08-6.71.11-10.07.02-2 0-4.01.03-6.01.05-3.17.14-6.33.19-9.5.01-.38.2-.4.48-.41 1.68-.04 3.36-.11 5.05-.14 2.2-.04 4.4-.04 6.6-.08.41-.01.59.12.74.51 1.75 4.57 3.52 9.13 5.27 13.7.15.38.34.46.78.28V36.7c2.94-.27 5.78.09 8.73-.04zM33.43 63.51c-.27.04-.51.12-.75.12-3.23 0-6.46-.01-9.69-.03-.8-.01-.78-.06-.93-.88-.17-.97-.45-1.93-.68-2.89-.06-.23-.16-.37-.46-.37-2.32.03-4.64.05-6.96.05-.38 0-.54.1-.63.48-.26 1.08-.58 2.15-.85 3.23-.07.3-.22.44-.52.46-.15.01-.31.04-.46.04-3.01.04-6.01.09-9.02.12-.68.01-.8-.14-.58-.8 1.68-5.14 3.35-10.27 5.05-15.4 1.17-3.54 2.39-7.06 3.57-10.6.1-.31.26-.41.59-.41 2.96-.02 5.91-.06 8.87-.09 1.18-.01 2.37-.01 3.55 0 .76.01.87.08 1.11.79 2.62 7.74 5.24 15.49 7.85 23.24.32.94.61 1.91.94 2.94zM17.57 41.97c-.09.02-.18.05-.27.07-1.3 3.81-2.12 7.74-3.03 11.68h6.15c0-.12.01-.19 0-.25-.38-3.58-1.4-7.03-2.22-10.52-.09-.37-.42-.66-.63-.98zM86.15 63.51c-.27.04-.51.12-.76.12-3.23 0-6.46-.01-9.69-.03-.81-.01-.78-.06-.93-.88-.18-.97-.45-1.93-.68-2.89-.06-.23-.15-.37-.46-.37-2.32.03-4.64.05-6.96.05-.37 0-.54.1-.63.48-.26 1.08-.58 2.15-.85 3.23-.07.3-.22.44-.52.46-.17.01-.34.04-.51.04l-8.97.12c-.69.01-.8-.14-.58-.8 1.68-5.14 3.35-10.27 5.05-15.4 1.17-3.54 2.39-7.06 3.57-10.6.1-.31.26-.41.59-.42 2.96-.02 5.91-.06 8.87-.09 1.18-.01 2.37-.01 3.55 0 .76.01.88.08 1.11.79 2.59 7.65 5.17 15.29 7.75 22.94.36 1.06.68 2.12 1.05 3.25zm-13.01-9.78c-.01-.18-.01-.34-.04-.48-.41-2.15-.81-4.3-1.25-6.44-.26-1.25-.58-2.5-.89-3.74-.12-.47-.3-.91-.95-1.06-1.29 3.83-2.13 7.76-3.04 11.72h6.17zM29.18 36.63h2.75l7.68-.03c.72 0 .78.06.91.75 1.05 5.86 2.11 11.72 3.16 17.58.02.1.05.2.05.3-.01.56.29.66.79.51.28-1.53.55-3.08.86-4.62.93-4.65 1.89-9.29 2.81-13.93.08-.42.33-.46.65-.47 1.44-.04 2.88-.1 4.33-.12 1.62-.02 3.23-.01 4.85 0 .68 0 .73.07.55.7-1.27 4.46-2.57 8.91-3.81 13.37-.95 3.43-1.83 6.87-2.77 10.3-.21.75-.55 1.47-.84 2.2-.16.41-.45.56-.92.56-2.3-.04-4.6-.05-6.9-.04-1.98.01-3.95.07-5.92.06-.21 0-.52-.22-.61-.41-.31-.75-.64-1.52-.81-2.32-1.23-5.71-3.19-11.22-4.76-16.83-.63-2.26-1.25-4.52-1.86-6.77-.07-.21-.11-.41-.19-.79zM116.51 36.8c1.3 0 2.57.01 3.84 0 3.81-.02 7.63-.04 11.44-.07 2.65-.02 5.29-.04 7.94-.07.17 0 .34.01.52 0 .49-.02.7.17.69.7-.03 1.61-.01 3.22-.01 4.83v1.56h-6.72v.99c.01 4.4.01 8.8.02 13.21.01 1.66.05 3.32.06 4.98.01.79 0 .79-.81.79-2.8-.02-5.6-.03-8.4-.05-.41 0-.82.03-1.24.03-.58 0-.94-.34-.93-.92.07-3.53.19-7.05.22-10.58.02-2.43.27-4.86-.06-7.28-.11-.83-.24-.95-1.08-.95-1.6 0-3.2-.03-4.79 0-.44.01-.6-.17-.61-.55-.03-.72-.06-1.43-.07-2.15-.02-1.44-.01-2.9-.01-4.47z"/></g></g><g><path class="st0" d="M6.69 93.63v3.28H0V82.24h3.81v11.39h2.88zM74.33 105.21c-.91-.12-1.82-.22-2.72-.36-2.96-.47-5.69-1.49-7.93-3.54-1.98-1.81-3.1-4.11-3.38-6.75-.16-1.5-.09-3.02-.08-4.54.01-3.95.05-7.9.07-11.85.01-1.49-.01-2.99-.03-4.48-.01-.49.19-.66.68-.66 3.18 0 6.36-.04 9.54-.04.76 0 1.51.06 2.44.1 0 1.29-.01 2.52 0 3.75.02 3.07.07 6.14.07 9.21 0 2.37-.1 4.75-.07 7.12.01.76.18 1.56.48 2.26.63 1.47 2.49 1.7 3.57.5.71-.79.94-1.76.95-2.77.02-4.83.02-9.65 0-14.48-.01-1.57-.09-3.15-.14-4.72 0-.1 0-.2.01-.3.06-.9.06-.91.99-.9l11.17.06c.83 0 1.05.28 1.04 1.08-.05 4.67-.08 9.33-.14 14-.03 2.61.06 5.24-.23 7.83-.46 4.06-2.89 6.71-6.67 8.17-1.82.71-3.73 1.06-5.67 1.2-.23.02-.46.08-.69.12-1.1-.01-2.18-.01-3.26-.01zM45.68 72.96h10.14c0 .99-.01 1.92 0 2.84.03 4.59.08 9.18.1 13.76.01 2.93-.03 5.87-.03 8.8 0 1.66.04 3.31.05 4.97.01.93 0 .93-.96.94-4.08.03-8.17.06-12.25.08-1.5.01-1.5 0-2.04-1.42-1.84-4.82-3.69-9.64-5.53-14.46-.06-.15-.12-.29-.17-.43-.75-.08-.77-.06-.77.64.03 4.89.05 9.77.08 14.66 0 .24-.02.48-.05.71-.05.35-.24.49-.62.49-3.04.01-6.08.03-9.12.05-.74.01-1.27-.49-1.26-1.25.02-2.05.06-4.11.08-6.16.03-3.93.03-7.86.09-11.79.05-3.93.16-7.86.23-11.78.01-.41.16-.5.53-.51 2-.04 4-.13 6-.17 2.54-.05 5.08-.05 7.63-.09.45-.01.66.13.82.56 2.04 5.32 4.1 10.63 6.14 15.95.18.46.39.61.94.34-.03-5.51-.03-11.07-.03-16.73zM110.2 73.13c1.55 0 3.09.01 4.63 0 4.4-.02 8.81-.05 13.21-.08 3.08-.02 6.16-.05 9.25-.08.22 0 .44.02.66.01.5-.01.71.22.7.73-.02 1.9-.01 3.79-.01 5.69v1.82h-7.83v1.08c.01 5.17.01 10.34.02 15.5.01 1.97.04 3.95.09 5.92.01.57-.17.78-.76.77-3.26-.04-6.52-.05-9.78-.07-.5 0-1 .03-1.5.04-.86.01-1.24-.36-1.22-1.23.09-4.51.22-9.01.28-13.52.03-2.37.26-4.74-.09-7.11-.14-.98-.27-1.12-1.24-1.12-1.86 0-3.72-.04-5.58 0-.55.01-.72-.23-.74-.68-.04-.91-.07-1.83-.08-2.74-.02-1.59-.01-3.18-.01-4.93zM94.88 72.92c4.33.06 8.56.12 12.71.18 0 3.34-.01 6.72 0 10.1.01 2.83.05 5.67.08 8.5.02 1.93.02 3.87.07 5.8.06 2.07.16 4.14.26 6.21.03.53-.19.71-.69.71-3.96.05-7.92.12-11.89.17-.87.01-.97-.14-.95-1.02.07-2.13.11-4.27.16-6.4l.18-8.91c.06-3.39.14-6.78.17-10.17.01-1.35-.07-2.71-.1-4.06-.01-.36 0-.73 0-1.11zM14.18 93.72h-1.83c-.1 1.05-.21 2.09-.31 3.17H8.32c.66-4.88 1.32-9.74 1.99-14.65h5.91c.66 4.86 1.33 9.73 2 14.65H14.5c-.11-1.03-.22-2.08-.32-3.17zm-.26-2.87c-.19-2.03-.37-4.02-.56-6-.07 0-.14 0-.22.01-.18 1.98-.36 3.96-.55 5.99h1.33z"/><g><path class="st1" d="M9.43 96.5v3.28H2.74V85.11h3.81V96.5h2.88zM77.78 108.67c-.91-.12-1.82-.22-2.72-.36-2.96-.47-5.69-1.49-7.93-3.54-1.98-1.81-3.1-4.11-3.38-6.75-.16-1.5-.09-3.02-.08-4.54.01-3.95.05-7.9.07-11.85.01-1.49-.01-2.99-.03-4.48-.01-.49.19-.66.68-.66 3.18 0 6.36-.04 9.54-.04.76 0 1.51.06 2.44.1 0 1.29-.01 2.52 0 3.75.02 3.07.07 6.14.07 9.21 0 2.37-.1 4.75-.07 7.12.01.76.18 1.56.48 2.26.63 1.47 2.49 1.7 3.57.5.71-.79.94-1.76.95-2.77.02-4.83.02-9.65 0-14.48-.01-1.57-.09-3.15-.14-4.72 0-.1 0-.2.01-.3.06-.9.06-.91.99-.9l11.17.06c.83 0 1.05.28 1.04 1.08-.05 4.67-.08 9.33-.14 14-.03 2.61.06 5.24-.23 7.83-.46 4.06-2.89 6.71-6.67 8.17-1.82.71-3.73 1.06-5.67 1.2-.23.02-.46.08-.69.12-1.1-.01-2.18-.01-3.26-.01zM49.14 76.42h10.14c0 .99-.01 1.92 0 2.84.03 4.59.08 9.18.1 13.76.01 2.93-.03 5.87-.03 8.8 0 1.66.04 3.31.05 4.97.01.93 0 .93-.96.94-4.08.03-8.17.06-12.25.08-1.5.01-1.5 0-2.04-1.42-1.84-4.82-3.69-9.64-5.53-14.46-.06-.15-.12-.29-.17-.43-.75-.08-.77-.06-.77.64.03 4.89.05 9.77.08 14.66 0 .24-.02.48-.05.71-.05.35-.24.49-.62.49-3.04.01-6.08.03-9.12.05-.74.01-1.27-.49-1.26-1.25.02-2.05.06-4.11.08-6.16.03-3.93.03-7.86.09-11.79.05-3.93.16-7.86.23-11.78.01-.41.16-.5.53-.51 2-.04 4-.13 6-.17 2.54-.05 5.08-.05 7.63-.09.45-.01.66.13.82.56 2.04 5.32 4.1 10.63 6.14 15.95.18.46.39.61.94.34-.03-5.5-.03-11.06-.03-16.73zM113.65 76.59c1.55 0 3.09.01 4.63 0 4.4-.02 8.81-.05 13.21-.08 3.08-.02 6.16-.05 9.25-.08.22 0 .44.02.66.01.5-.01.71.22.7.73-.02 1.9-.01 3.79-.01 5.69v1.82h-7.83v1.08c.01 5.17.01 10.34.02 15.5.01 1.97.04 3.95.09 5.92.01.57-.17.78-.76.77-3.26-.04-6.52-.05-9.78-.07-.5 0-1 .03-1.5.04-.86.01-1.24-.36-1.22-1.23.09-4.51.22-9.01.28-13.52.03-2.37.26-4.74-.09-7.11-.14-.98-.27-1.12-1.24-1.12-1.86 0-3.72-.04-5.58 0-.55.01-.72-.23-.74-.68-.04-.91-.07-1.83-.08-2.74-.02-1.59-.01-3.18-.01-4.93zM98.34 76.39c4.33.06 8.56.12 12.71.18 0 3.34-.01 6.72 0 10.1.01 2.83.05 5.67.08 8.5.02 1.93.02 3.87.07 5.8.06 2.07.16 4.14.26 6.21.03.53-.19.71-.69.71-3.96.05-7.92.12-11.89.17-.87.01-.97-.14-.95-1.02.07-2.13.11-4.27.16-6.4l.18-8.91c.06-3.39.14-6.78.17-10.17.01-1.35-.07-2.71-.1-4.06-.01-.37 0-.74 0-1.11zM16.19 96.59h-1.83c-.1 1.05-.21 2.09-.31 3.17h-3.72c.66-4.88 1.32-9.74 1.99-14.65h5.91c.66 4.86 1.33 9.73 2 14.65h-3.72c-.11-1.02-.21-2.08-.32-3.17zm-.25-2.86c-.19-2.03-.37-4.02-.56-6-.07 0-.14 0-.22.01-.18 1.98-.36 3.96-.55 5.99h1.33z"/></g><g><path d="M8.08 95.16v3.28H1.39V83.77H5.2v11.39h2.88zM76.42 106.74c-.91-.12-1.82-.22-2.72-.36-2.96-.47-5.69-1.49-7.93-3.54-1.98-1.81-3.1-4.11-3.38-6.75-.16-1.5-.09-3.02-.08-4.54.01-3.95.05-7.9.07-11.85.01-1.49-.01-2.99-.03-4.48-.01-.49.19-.66.68-.66 3.18 0 6.36-.04 9.54-.04.76 0 1.51.06 2.44.1 0 1.29-.01 2.52 0 3.75.02 3.07.07 6.14.07 9.21 0 2.37-.1 4.75-.07 7.12.01.76.18 1.56.48 2.26.63 1.47 2.49 1.7 3.57.5.71-.79.94-1.76.95-2.77.02-4.83.02-9.65 0-14.48-.01-1.57-.09-3.15-.14-4.72 0-.1 0-.2.01-.3.06-.9.06-.91.99-.9l11.17.06c.83 0 1.05.28 1.04 1.08-.05 4.67-.08 9.33-.14 14-.03 2.61.06 5.24-.23 7.83-.46 4.06-2.89 6.71-6.67 8.17-1.82.71-3.73 1.06-5.67 1.2-.23.02-.46.08-.69.12-1.09-.01-2.17-.01-3.26-.01zM47.78 74.49h10.14c0 .99-.01 1.92 0 2.84.03 4.59.08 9.18.1 13.76.01 2.93-.03 5.87-.03 8.8 0 1.66.04 3.31.05 4.97.01.93 0 .93-.96.94-4.08.03-8.17.06-12.25.08-1.5.01-1.5 0-2.04-1.42-1.84-4.82-3.69-9.64-5.53-14.46-.06-.15-.12-.29-.17-.43-.75-.08-.77-.06-.77.64.03 4.89.05 9.77.08 14.66 0 .24-.02.48-.05.71-.05.35-.24.49-.62.49-3.04.01-6.08.03-9.12.05-.74.01-1.27-.49-1.26-1.25.02-2.05.06-4.11.08-6.16.03-3.93.03-7.86.09-11.79.05-3.93.16-7.86.23-11.78.01-.41.16-.5.53-.51 2-.04 4-.13 6-.17 2.54-.05 5.08-.05 7.63-.09.45-.01.66.13.82.56 2.04 5.32 4.1 10.63 6.14 15.95.18.46.39.61.94.34-.03-5.51-.03-11.07-.03-16.73zM112.29 74.66c1.55 0 3.09.01 4.63 0 4.4-.02 8.81-.05 13.21-.08 3.08-.02 6.16-.05 9.25-.08.22 0 .44.02.66.01.5-.01.71.22.7.73-.02 1.9-.01 3.79-.01 5.69v1.82h-7.83v1.08c.01 5.17.01 10.34.02 15.5.01 1.97.04 3.95.09 5.92.01.57-.17.78-.76.77-3.26-.04-6.52-.05-9.78-.07-.5 0-1 .03-1.5.04-.86.01-1.24-.36-1.22-1.23.09-4.51.22-9.01.28-13.52.03-2.37.26-4.74-.09-7.11-.14-.98-.27-1.12-1.24-1.12-1.86 0-3.72-.04-5.58 0-.55.01-.72-.23-.74-.68-.04-.91-.07-1.83-.08-2.74-.01-1.59-.01-3.18-.01-4.93zM96.98 74.45c4.33.06 8.56.12 12.71.18 0 3.34-.01 6.72 0 10.1.01 2.83.05 5.67.08 8.5.02 1.93.02 3.87.07 5.8.06 2.07.16 4.14.26 6.21.03.53-.19.71-.69.71-3.96.05-7.92.12-11.89.17-.87.01-.97-.14-.95-1.02.07-2.13.11-4.27.16-6.4l.18-8.91c.06-3.39.14-6.78.17-10.17.01-1.35-.07-2.71-.1-4.06-.01-.36 0-.74 0-1.11zM14.84 95.25h-1.83c-.1 1.05-.21 2.09-.31 3.17H8.98c.66-4.88 1.32-9.74 1.99-14.65h5.91c.66 4.86 1.33 9.73 2 14.65h-3.72c-.11-1.03-.22-2.08-.32-3.17zm-.26-2.87c-.19-2.03-.37-4.02-.56-6-.07 0-.14 0-.22.01-.18 1.98-.36 3.96-.55 5.99h1.33z"/></g></g></svg>