<svg version="1.1" id="Calque_1" xmlns="http://www.w3.org/2000/svg" x="0" y="0" viewBox="0 0 1013.91 73.72" style="enable-background:new 0 0 1013.91 73.72" xml:space="preserve"><style>.st0{fill:#cd808c}.st1{fill:#1196be}</style><path class="st0" d="M736.01 42.85v6.72h-13.74v-30.1h7.81v23.38h5.93zM235.54 66.61c-1.86-.25-3.73-.45-5.58-.74-6.08-.96-11.68-3.06-16.28-7.26-4.07-3.72-6.36-8.44-6.95-13.86-.33-3.08-.17-6.21-.16-9.31.03-8.11.11-16.21.15-24.32.01-3.06-.02-6.13-.07-9.19-.02-1 .39-1.35 1.39-1.35 6.53-.01 13.05-.08 19.58-.09 1.55 0 3.1.13 5.01.22 0 2.65-.02 5.17 0 7.7.05 6.3.15 12.61.15 18.91 0 4.87-.21 9.74-.14 14.61.02 1.55.38 3.2.98 4.63 1.29 3.03 5.12 3.48 7.32 1.02 1.45-1.62 1.93-3.62 1.94-5.68.05-9.91.05-19.81.01-29.72-.01-3.23-.19-6.46-.29-9.69-.01-.2 0-.41.01-.61.13-1.85.13-1.86 2.02-1.85l22.93.12c1.71.01 2.16.57 2.14 2.21-.11 9.58-.16 19.16-.28 28.73-.07 5.36.13 10.76-.47 16.06-.94 8.34-5.93 13.77-13.69 16.78-3.75 1.45-7.65 2.17-11.64 2.47-.48.04-.95.16-1.42.24-2.22-.03-4.44-.03-6.66-.03zM874.81 66.61c-1.86-.25-3.73-.45-5.58-.74-6.08-.96-11.68-3.06-16.28-7.26-4.07-3.72-6.36-8.44-6.95-13.86-.33-3.08-.17-6.21-.16-9.31.03-8.11.11-16.21.15-24.32.01-3.06-.02-6.13-.07-9.19-.02-1 .39-1.35 1.39-1.35 6.53-.01 13.05-.08 19.58-.09 1.55 0 3.1.13 5.01.22 0 2.65-.02 5.17 0 7.7.05 6.3.15 12.61.15 18.91 0 4.87-.21 9.74-.14 14.61.02 1.55.38 3.2.98 4.63 1.29 3.03 5.12 3.48 7.32 1.02 1.45-1.62 1.93-3.62 1.94-5.68.05-9.91.05-19.81.01-29.72-.01-3.23-.19-6.46-.29-9.69-.01-.2 0-.41.01-.61.13-1.88.13-1.89 2.02-1.88l22.93.12c1.71.01 2.16.57 2.14 2.21-.11 9.58-.16 19.16-.28 28.73-.07 5.36.13 10.76-.47 16.06-.94 8.34-5.93 13.77-13.69 16.78-3.75 1.45-7.65 2.17-11.64 2.47-.48.04-.95.16-1.42.24h-6.66zM35.11.82c2.2 10.86 4.39 21.64 6.58 32.42.07.32.07.68.23.95.19.32.56.8.79.77.35-.05.87-.43.94-.76.94-4.4 1.85-8.8 2.71-13.22 1.26-6.42 2.49-12.85 3.69-19.29.19-1.03.61-1.36 1.69-1.36C59.88.33 68.01.25 76.15.2c2.79-.02 5.59.06 8.38-.03 1.23-.04 1.54.43 1.57 1.55.14 6.38.36 12.76.5 19.15.24 10.97.49 21.93.66 32.9.05 3.31-.18 6.63-.19 9.94 0 1.05-.5 1.4-1.4 1.41-6.7.09-13.39.19-20.09.21-.39 0-1.02-.58-1.12-.99-.37-1.59-.76-3.21-.78-4.82-.1-6.39-.07-12.77-.08-19.16-.01-3.15 0-6.3 0-9.54-.58-.13-1.05-.23-1.67-.36-.59 2.3-1.21 4.54-1.74 6.79-2.03 8.68-4.07 17.36-6.01 26.06-.3 1.33-.97 1.78-2.15 1.79-2.05.03-4.11.03-6.16.03-3.86 0-7.73.01-11.59 0-1.78 0-1.98-.16-2.38-1.79-1.59-6.51-3.22-13.02-4.77-19.54-1.19-5.01-2.3-10.04-3.44-15.07-.08-.35-.19-.7-.3-1.12-.49.03-.92.05-1.69.09-.16 12.32-.31 24.58-.47 37.01H.05V22.73C.05 15.7.03 8.65 0 1.61 0 .63.21.12 1.36.1 12.54-.07 23.7.06 34.86.75c.08.01.16.05.25.07zM131.63.72c3.2-.09 6.31-.21 9.43-.26 6.45-.1 12.9-.14 19.35-.28 1.11-.02 1.52.38 1.9 1.37 4.16 10.89 8.38 21.75 12.59 32.62.38.99.4.99 1.86.66V.48h20.82c0 1.97-.01 3.87 0 5.77.06 9.46.16 18.91.2 28.37.02 6.02-.06 12.04-.06 18.06 0 3.4.08 6.79.11 10.19.02 1.78 0 1.8-1.84 1.81-7.72.06-15.45.11-23.17.17-1.19.01-2.39-.1-3.57.03-1.22.13-1.74-.41-2.14-1.46-3.21-8.49-6.46-16.96-9.71-25.44-.85-2.21-1.72-4.42-2.63-6.75-.46.05-.93.11-1.58.19 0 1.36-.01 2.65 0 3.95.07 9.13.14 18.26.2 27.39 0 .53.06 1.13-.17 1.56-.22.4-.77.87-1.19.88-6.24.09-12.48.11-18.72.16-1.58.01-2.62-1.02-2.6-2.67.05-4.18.12-8.35.16-12.53.07-8.39.07-16.79.18-25.18.11-7.86.32-15.71.49-23.57-.02-.17.02-.32.09-.69zM648.16.43c0 2.06-.01 3.98 0 5.89.06 9.33.16 18.67.2 28 .02 6.06-.06 12.12-.06 18.18 0 3.6.04 7.21.14 10.81.03 1.05-.36 1.35-1.33 1.36-7.19.05-14.38.14-21.57.2-2.01.02-4.03-.08-6.04.01-.98.04-1.39-.39-1.69-1.2-1.31-3.53-2.6-7.06-3.95-10.57-2.72-7.06-5.49-14.1-8.2-21.16-.43-1.11-1.07-.66-1.88-.42 0 1.31-.01 2.61 0 3.92.07 9.05.14 18.1.2 27.14 0 .33.02.66-.01.98-.09 1.43-.37 1.61-1.81 1.62-6.08.03-12.16.09-18.24.16-1.55.02-2.65-.98-2.64-2.51.08-8.02.19-16.05.27-24.07.04-4.79-.01-9.58.07-14.37.12-7.57.33-15.14.46-22.71.02-.92.48-.95 1.15-.97 4.02-.1 8.04-.27 12.07-.34 5.26-.09 10.52-.09 15.77-.2.99-.02 1.42.29 1.77 1.21 4.18 10.92 8.42 21.82 12.6 32.75.35.92.81 1.11 1.86.67V.55c7.02-.66 13.81.2 20.86-.12zM816.02.42h20.81c0 2.03-.01 3.93 0 5.83.06 9.42.16 18.83.2 28.25.02 6.02-.06 12.04-.06 18.06 0 3.4.08 6.79.11 10.19.02 1.9 0 1.91-1.98 1.93-8.38.06-16.76.12-25.14.16-3.07.02-3.07 0-4.19-2.92-3.78-9.89-7.57-19.78-11.35-29.67-.12-.3-.24-.6-.35-.89-1.54-.15-1.59-.12-1.58 1.32.05 10.03.11 20.06.16 30.09 0 .49-.04.98-.11 1.46-.1.71-.49 1.01-1.27 1.01-6.24.01-12.48.06-18.72.11-1.52.01-2.6-1.01-2.58-2.57.04-4.22.12-8.43.16-12.65.07-8.07.07-16.13.18-24.2.11-8.06.33-16.12.46-24.18.01-.84.33-1.02 1.09-1.04 4.1-.09 8.21-.27 12.31-.34 5.22-.09 10.43-.1 15.65-.19.93-.02 1.35.27 1.69 1.15 4.18 10.92 8.42 21.82 12.61 32.74.36.95.8 1.24 1.92.69-.02-11.3-.02-22.71-.02-34.34zM453.84 64.63c-.64.1-1.22.28-1.8.28-7.72-.01-15.45-.03-23.17-.07-1.92-.01-1.87-.15-2.22-2.1-.42-2.32-1.07-4.61-1.63-6.91-.14-.56-.37-.88-1.09-.87-5.55.08-11.09.12-16.64.12-.9 0-1.29.25-1.51 1.14-.63 2.58-1.38 5.13-2.02 7.71-.18.71-.53 1.06-1.24 1.1-.37.02-.74.09-1.1.09-7.19.1-14.38.2-21.57.29-1.63.02-1.9-.34-1.39-1.91 4.02-12.28 8.01-24.56 12.08-36.82 2.8-8.46 5.7-16.89 8.54-25.34.25-.74.62-.98 1.41-.99 7.07-.05 14.13-.15 21.2-.22 2.83-.03 5.66-.02 8.49.01 1.81.01 2.09.2 2.66 1.89 6.26 18.51 12.52 37.03 18.76 55.55.76 2.27 1.46 4.57 2.24 7.05zm-37.92-51.51c-.21.06-.43.11-.64.17-3.1 9.11-5.07 18.5-7.25 27.93h14.7c0-.28.02-.45 0-.61-.92-8.56-3.35-16.82-5.31-25.16-.2-.85-.99-1.56-1.5-2.33zM579.88 64.63c-.65.11-1.23.28-1.81.28-7.72-.01-15.45-.03-23.17-.07-1.93-.01-1.87-.15-2.22-2.1-.42-2.32-1.07-4.61-1.62-6.91-.14-.56-.37-.89-1.09-.88-5.55.08-11.09.12-16.64.12-.9 0-1.3.24-1.51 1.14-.62 2.58-1.38 5.13-2.02 7.71-.18.71-.53 1.06-1.23 1.11-.41.03-.82.09-1.23.1-7.15.1-14.3.2-21.44.29-1.64.02-1.91-.34-1.39-1.91 4.02-12.28 8.01-24.56 12.08-36.82 2.8-8.46 5.7-16.89 8.54-25.34.25-.74.62-.99 1.4-.99 7.07-.05 14.13-.15 21.2-.22 2.83-.03 5.66-.02 8.49.01 1.81.01 2.09.2 2.66 1.88 6.18 18.28 12.36 36.57 18.52 54.85.83 2.5 1.61 5.04 2.48 7.75zm-31.11-23.37c-.03-.44-.02-.8-.09-1.16-.99-5.13-1.94-10.27-3-15.39-.62-3-1.38-5.97-2.12-8.94-.28-1.11-.71-2.17-2.26-2.52-3.09 9.17-5.09 18.55-7.27 28.01h14.74zM443.69.37c2.33 0 4.46.01 6.58 0 6.12-.02 12.24-.06 18.36-.08 1.73-.01 1.87.14 2.16 1.78 2.51 14.01 5.04 28.01 7.55 42.02.04.24.12.48.11.73-.02 1.34.68 1.59 1.88 1.21.68-3.67 1.31-7.37 2.05-11.05 2.23-11.11 4.51-22.2 6.72-33.31.2-.99.79-1.11 1.55-1.13 3.45-.11 6.89-.24 10.34-.28 3.86-.05 7.72-.01 11.59-.01 1.62 0 1.74.16 1.3 1.68-3.04 10.65-6.14 21.29-9.11 31.96-2.28 8.19-4.37 16.43-6.62 24.63-.5 1.8-1.31 3.52-2 5.27-.39.98-1.08 1.35-2.2 1.33-5.5-.09-11-.12-16.5-.1-4.72.02-9.44.16-14.17.15-.5 0-1.25-.53-1.45-.99-.75-1.8-1.52-3.64-1.93-5.54-2.93-13.65-7.62-26.81-11.37-40.23-1.51-5.39-2.98-10.8-4.46-16.2-.11-.46-.19-.94-.38-1.84zM351.21 17.37v2.58c.01 10.44.01 20.88.05 31.33.01 3.85.11 7.69.15 11.54.02 2.32 0 2.33-2.26 2.31l-19.71-.12c-.98 0-1.97.07-2.95.07-1.46 0-2.31-.8-2.28-2.25.17-8.43.45-16.85.52-25.28.05-5.76.65-11.53-.14-17.29-.28-2.06-.56-2.33-2.64-2.33-3.82 0-7.64-.07-11.46-.01-1.01.02-1.34-.43-1.39-1.25-.09-1.75-.17-3.51-.18-5.26-.03-3.47-.01-6.94-.01-10.64 3.17 0 6.33.01 9.48 0 6.66-.02 13.31-.04 19.97-.08 8.67-.06 17.33-.16 26-.24.37 0 .74-.01 1.11 0 1.66.06 1.8.21 1.81 1.87.03 4.42.06 8.84.08 13.26 0 .57-.07 1.14-.11 1.78-5.3.01-10.54.01-16.04.01zM652.47.78c3.1 0 6.13.01 9.17 0 9.12-.05 18.24-.1 27.36-.16 6.33-.04 12.65-.11 18.98-.16.41 0 .82.03 1.23.01 1.18-.05 1.68.42 1.65 1.68-.07 3.85-.02 7.7-.02 11.55v3.72h-16.07v2.36c.01 10.52.01 21.05.05 31.57.01 3.97.11 7.94.15 11.91.02 1.89 0 1.9-1.95 1.88l-20.08-.12c-.98 0-1.97.07-2.95.07-1.38 0-2.25-.82-2.22-2.19.17-8.43.44-16.85.52-25.28.05-5.8.65-11.61-.14-17.41-.27-1.97-.56-2.27-2.58-2.27-3.82 0-7.64-.07-11.46-.01-1.05.02-1.42-.41-1.46-1.31-.08-1.71-.16-3.43-.17-5.14-.03-3.48-.01-6.95-.01-10.7zM948.43.78c3.19 0 6.34.01 9.5 0 9.04-.05 18.08-.1 27.11-.16 6.33-.04 12.65-.11 18.98-.16.45 0 .9.04 1.35.03 1.04-.02 1.45.44 1.44 1.5-.04 3.89-.02 7.78-.02 11.67v3.74h-16.07v2.22c.01 10.61.01 21.21.05 31.82.01 4.05.08 8.1.17 12.15.03 1.16-.35 1.59-1.56 1.58-6.69-.08-13.39-.11-20.08-.14-1.03 0-2.05.06-3.08.07-1.77.02-2.55-.74-2.51-2.52.19-9.25.45-18.49.58-27.74.07-4.86.53-9.73-.19-14.59-.3-2.01-.55-2.3-2.54-2.3-3.82-.01-7.64-.08-11.46-.01-1.13.02-1.47-.48-1.51-1.4-.08-1.88-.14-3.75-.16-5.63-.02-3.28 0-6.55 0-10.13zM95.24.35c8.89.13 17.57.26 26.08.38 0 6.83-.02 13.72.01 20.62.02 5.85.1 11.71.16 17.56.04 3.97.03 7.94.14 11.91.12 4.25.32 8.49.53 12.74.05 1.09-.4 1.44-1.43 1.46-8.01.1-16.02.24-24.03.35-2.27.03-2.35-.12-2.28-2.34.13-4.3.21-8.59.3-12.89.13-6.1.25-12.19.37-18.29.13-6.96.29-13.91.36-20.87.03-2.74-.14-5.48-.2-8.22-.03-.8-.01-1.61-.01-2.41zM303.57.7v3.86c.03 10.03.04 20.07.09 30.1.03 5.24.08 10.48.21 15.72.11 4.37.32 8.74.54 13.11.06 1.12-.35 1.53-1.47 1.55-8.09.1-16.18.24-24.27.35-1.9.03-2.08-.25-2.01-2.13.14-4.34.23-8.67.32-13.01.13-6.05.26-12.11.37-18.16.14-7.41.29-14.81.36-22.22.03-2.82-.12-5.64-.24-8.46-.04-.98.28-1.23 1.26-1.2 6.32.21 12.64.36 18.96.51 1.99.01 3.99-.02 5.88-.02zM917 .35c8.9.13 17.57.25 26.09.38 0 6.86-.02 13.8.01 20.74.02 5.81.1 11.63.15 17.44.04 3.97.03 7.94.14 11.91.12 4.25.32 8.49.53 12.74.05 1.08-.38 1.45-1.42 1.47-8.13.1-16.26.24-24.4.35-1.79.02-2-.29-1.94-2.09.14-4.38.23-8.75.32-13.13.13-6.1.25-12.19.37-18.29.13-6.96.29-13.91.36-20.87.03-2.78-.14-5.56-.21-8.34-.02-.78 0-1.54 0-2.31zM751.36 43.04h-3.75c-.21 2.15-.42 4.28-.64 6.52h-7.63c1.36-10.01 2.71-19.99 4.08-30.07h12.13c1.36 9.98 2.72 19.98 4.1 30.07h-7.63c-.22-2.13-.44-4.3-.66-6.52zm-.52-5.89c-.39-4.17-.76-8.24-1.14-12.31-.15 0-.3.01-.44.01l-1.12 12.3h2.7z"/><g><path class="st1" d="M741.63 48.74v6.72h-13.74v-30.1h7.81v23.38h5.93zM242.63 73.72c-1.86-.25-3.73-.45-5.58-.74-6.08-.96-11.68-3.06-16.28-7.26-4.07-3.72-6.36-8.44-6.95-13.86-.33-3.08-.17-6.21-.16-9.31.03-8.11.11-16.21.15-24.32.01-3.06-.02-6.13-.07-9.19-.02-1 .39-1.35 1.39-1.35 6.53-.01 13.05-.08 19.58-.09 1.55 0 3.1.13 5.01.22 0 2.65-.02 5.17 0 7.7.05 6.3.15 12.61.15 18.91 0 4.87-.21 9.74-.14 14.61.02 1.55.38 3.2.98 4.63 1.29 3.03 5.12 3.48 7.32 1.02 1.45-1.62 1.93-3.62 1.94-5.68.05-9.91.05-19.81.01-29.72-.01-3.23-.19-6.46-.29-9.69-.01-.2 0-.41.01-.61.13-1.85.13-1.86 2.02-1.85l22.93.12c1.71.01 2.16.57 2.14 2.21-.11 9.58-.16 19.16-.28 28.73-.07 5.36.13 10.76-.47 16.06-.94 8.34-5.93 13.77-13.69 16.78-3.75 1.45-7.65 2.17-11.64 2.47-.48.04-.95.16-1.42.24-2.22-.03-4.44-.03-6.66-.03zM881.9 73.72c-1.86-.25-3.73-.45-5.58-.74-6.08-.96-11.68-3.06-16.28-7.26-4.07-3.72-6.36-8.44-6.95-13.86-.33-3.08-.17-6.21-.16-9.31.03-8.11.11-16.21.15-24.32.01-3.06-.02-6.13-.07-9.19-.02-1 .39-1.35 1.39-1.35 6.53-.01 13.05-.08 19.58-.09 1.55 0 3.1.13 5.01.22 0 2.65-.02 5.17 0 7.7.05 6.3.15 12.61.15 18.91 0 4.87-.21 9.74-.14 14.61.02 1.55.38 3.2.98 4.63 1.29 3.03 5.12 3.48 7.32 1.02 1.45-1.62 1.93-3.62 1.94-5.68.05-9.91.05-19.81.01-29.72-.01-3.23-.19-6.46-.29-9.69-.01-.2 0-.41.01-.61.13-1.85.13-1.86 2.02-1.85l22.93.12c1.71.01 2.16.57 2.14 2.21-.11 9.58-.16 19.16-.28 28.73-.07 5.36.13 10.76-.47 16.06-.94 8.34-5.93 13.77-13.69 16.78-3.75 1.45-7.65 2.17-11.64 2.47-.48.04-.95.16-1.42.24-2.22-.03-4.44-.03-6.66-.03zM42.2 7.93c2.2 10.86 4.39 21.64 6.58 32.42.07.32.07.68.23.95.19.32.56.8.79.77.35-.05.87-.43.94-.76.94-4.4 1.85-8.8 2.71-13.22 1.26-6.42 2.49-12.85 3.69-19.29.19-1.03.61-1.36 1.69-1.36 8.14 0 16.27-.08 24.41-.13 2.79-.02 5.59.06 8.38-.03 1.23-.04 1.54.43 1.57 1.55.14 6.38.36 12.76.5 19.15.24 10.97.49 21.93.66 32.9.05 3.31-.18 6.63-.19 9.94 0 1.05-.5 1.4-1.4 1.41-6.7.09-13.39.19-20.09.21-.39 0-1.02-.58-1.12-.99-.37-1.59-.76-3.21-.78-4.82-.1-6.39-.07-12.77-.08-19.16-.01-3.15 0-6.3 0-9.54-.58-.13-1.05-.23-1.67-.36-.59 2.3-1.21 4.54-1.74 6.79-2.03 8.68-4.07 17.36-6.01 26.06-.3 1.33-.97 1.78-2.15 1.79-2.05.03-4.11.03-6.16.03-3.86 0-7.73.01-11.59 0-1.78 0-1.98-.16-2.38-1.79-1.59-6.51-3.22-13.02-4.77-19.54-1.19-5.01-2.3-10.04-3.44-15.07-.08-.35-.19-.7-.3-1.12-.49.03-.92.05-1.69.09-.16 12.32-.31 24.58-.47 37.01H7.14V29.84c0-7.04-.02-14.08-.05-21.13 0-.98.21-1.49 1.36-1.51 11.18-.17 22.34-.04 33.5.65.08.02.16.06.25.08zM138.72 7.83c3.2-.09 6.31-.21 9.43-.26 6.45-.1 12.9-.14 19.35-.28 1.11-.02 1.52.38 1.9 1.37 4.16 10.89 8.38 21.75 12.59 32.62.38.99.4.99 1.86.66V7.59h20.82c0 1.97-.01 3.87 0 5.77.06 9.46.16 18.91.2 28.37.02 6.02-.06 12.04-.06 18.06 0 3.4.08 6.79.11 10.19.02 1.78 0 1.8-1.84 1.81-7.72.06-15.45.11-23.17.17-1.19.01-2.39-.1-3.57.03-1.22.13-1.74-.41-2.14-1.46-3.21-8.49-6.46-16.96-9.71-25.44-.85-2.21-1.72-4.42-2.63-6.75-.46.05-.93.11-1.58.19 0 1.36-.01 2.65 0 3.95.07 9.13.14 18.26.2 27.39 0 .53.06 1.13-.17 1.56-.22.4-.77.87-1.19.88-6.24.09-12.48.11-18.72.16-1.58.01-2.62-1.02-2.6-2.67.05-4.18.12-8.35.16-12.53.07-8.39.07-16.79.18-25.18.11-7.86.32-15.71.49-23.57-.02-.17.02-.32.09-.69zM655.25 7.54c0 2.06-.01 3.98 0 5.89.06 9.33.16 18.67.2 28 .02 6.06-.06 12.12-.06 18.18 0 3.6.04 7.21.14 10.81.03 1.05-.36 1.35-1.33 1.36-7.19.05-14.38.14-21.57.2-2.01.02-4.03-.08-6.04.01-.98.04-1.39-.39-1.69-1.2-1.31-3.53-2.6-7.06-3.95-10.57-2.72-7.06-5.49-14.1-8.2-21.16-.43-1.11-1.07-.66-1.88-.42 0 1.31-.01 2.61 0 3.92.07 9.05.14 18.1.2 27.14 0 .33.02.66-.01.98-.09 1.43-.37 1.61-1.81 1.62-6.08.03-12.16.09-18.24.16-1.55.02-2.65-.98-2.64-2.51.08-8.02.19-16.05.27-24.07.04-4.79-.01-9.58.07-14.37.12-7.57.33-15.14.46-22.71.02-.92.48-.95 1.15-.97 4.02-.1 8.04-.27 12.07-.34 5.26-.09 10.52-.09 15.77-.2.99-.02 1.42.29 1.77 1.21 4.18 10.92 8.42 21.82 12.6 32.75.35.92.81 1.11 1.86.67V7.66c7.01-.66 13.8.2 20.86-.12zM823.11 7.53h20.81c0 2.03-.01 3.93 0 5.83.06 9.42.16 18.83.2 28.25.02 6.02-.06 12.04-.06 18.06 0 3.4.08 6.79.11 10.19.02 1.9 0 1.91-1.98 1.93-8.38.06-16.76.12-25.14.16-3.07.02-3.07 0-4.19-2.92-3.78-9.89-7.57-19.78-11.35-29.67-.12-.3-.24-.6-.35-.89-1.54-.15-1.59-.12-1.58 1.32.05 10.03.11 20.06.16 30.09 0 .49-.04.98-.11 1.46-.1.71-.49 1.01-1.27 1.01-6.24.01-12.48.06-18.72.11-1.52.01-2.6-1.01-2.58-2.57.04-4.22.12-8.43.16-12.65.07-8.07.07-16.13.18-24.2.11-8.06.33-16.12.46-24.18.01-.84.33-1.02 1.09-1.04 4.1-.09 8.21-.27 12.31-.34 5.22-.09 10.43-.1 15.65-.19.93-.02 1.35.27 1.69 1.15 4.18 10.92 8.42 21.82 12.61 32.74.36.95.8 1.24 1.92.69-.02-11.3-.02-22.71-.02-34.34zM460.93 71.74c-.64.1-1.22.28-1.8.28-7.72-.01-15.45-.03-23.17-.07-1.92-.01-1.87-.15-2.22-2.1-.42-2.32-1.07-4.61-1.63-6.91-.14-.56-.37-.88-1.09-.87-5.55.08-11.09.12-16.64.12-.9 0-1.29.25-1.51 1.14-.63 2.58-1.38 5.13-2.02 7.71-.18.71-.53 1.06-1.24 1.1-.37.02-.74.09-1.1.09-7.19.1-14.38.2-21.57.29-1.63.02-1.9-.34-1.39-1.91 4.02-12.28 8.01-24.56 12.08-36.82 2.8-8.46 5.7-16.89 8.54-25.34.25-.74.62-.98 1.41-.99 7.07-.05 14.13-.15 21.2-.22 2.83-.03 5.66-.02 8.49.01 1.81.01 2.09.2 2.66 1.89 6.26 18.51 12.52 37.03 18.76 55.55.76 2.27 1.45 4.57 2.24 7.05zm-37.92-51.51c-.21.06-.43.11-.64.17-3.1 9.11-5.07 18.5-7.25 27.93h14.7c0-.28.02-.45 0-.61-.92-8.56-3.35-16.82-5.31-25.16-.2-.85-.99-1.56-1.5-2.33zM586.97 71.74c-.65.11-1.23.28-1.81.28-7.72-.01-15.45-.03-23.17-.07-1.93-.01-1.87-.15-2.22-2.1-.42-2.32-1.07-4.61-1.62-6.91-.14-.56-.37-.89-1.09-.88-5.55.08-11.09.12-16.64.12-.9 0-1.3.24-1.51 1.14-.62 2.58-1.38 5.13-2.02 7.71-.18.71-.53 1.06-1.23 1.11-.41.03-.82.09-1.23.1-7.15.1-14.3.2-21.44.29-1.64.02-1.91-.34-1.39-1.91 4.02-12.28 8.01-24.56 12.08-36.82 2.8-8.46 5.7-16.89 8.54-25.34.25-.74.62-.99 1.4-.99 7.07-.05 14.13-.15 21.2-.22 2.83-.03 5.66-.02 8.49.01 1.81.01 2.09.2 2.66 1.88 6.18 18.28 12.36 36.57 18.52 54.85.83 2.5 1.61 5.04 2.48 7.75zm-31.11-23.37c-.03-.44-.02-.8-.09-1.16-.99-5.13-1.94-10.27-3-15.39-.62-3-1.38-5.97-2.12-8.94-.28-1.11-.71-2.17-2.26-2.52-3.09 9.17-5.09 18.55-7.27 28.01h14.74zM450.78 7.48c2.33 0 4.46.01 6.58 0 6.12-.02 12.24-.06 18.36-.08 1.73-.01 1.87.14 2.16 1.78 2.51 14.01 5.04 28.01 7.55 42.02.04.24.12.48.11.73-.02 1.34.68 1.59 1.88 1.21.68-3.67 1.31-7.37 2.05-11.05 2.23-11.11 4.51-22.2 6.72-33.31.2-.99.79-1.11 1.55-1.13 3.45-.11 6.89-.24 10.34-.28 3.86-.05 7.72-.01 11.59-.01 1.62 0 1.74.16 1.3 1.68-3.04 10.65-6.14 21.29-9.11 31.96-2.28 8.19-4.37 16.43-6.62 24.63-.5 1.8-1.31 3.52-2 5.27-.39.98-1.08 1.35-2.2 1.33-5.5-.09-11-.12-16.5-.1-4.72.02-9.44.16-14.17.15-.5 0-1.25-.53-1.45-.99-.75-1.8-1.52-3.64-1.93-5.54-2.93-13.65-7.62-26.81-11.37-40.23-1.51-5.39-2.98-10.8-4.46-16.2-.11-.46-.19-.94-.38-1.84zM358.3 24.48v2.58c.01 10.44.01 20.88.05 31.33.01 3.85.11 7.69.15 11.54.02 2.32 0 2.33-2.26 2.31-6.57-.04-13.14-.08-19.71-.11-.98 0-1.97.07-2.95.07-1.46 0-2.31-.8-2.28-2.25.17-8.43.45-16.85.52-25.28.05-5.76.65-11.53-.14-17.29-.28-2.06-.56-2.33-2.64-2.33-3.82 0-7.64-.07-11.46-.01-1.01.02-1.34-.43-1.39-1.25-.09-1.75-.17-3.51-.18-5.26-.03-3.47-.01-6.94-.01-10.64 3.17 0 6.33.01 9.48 0 6.66-.02 13.31-.04 19.97-.08 8.67-.06 17.33-.16 26-.24.37 0 .74-.01 1.11 0 1.66.06 1.8.21 1.81 1.87.03 4.42.06 8.84.08 13.26 0 .57-.07 1.14-.11 1.78H358.3zM659.56 7.89c3.1 0 6.13.01 9.17 0 9.12-.05 18.24-.1 27.36-.16 6.33-.04 12.65-.11 18.98-.16.41 0 .82.03 1.23.01 1.18-.05 1.68.42 1.65 1.68-.07 3.85-.02 7.7-.02 11.55v3.72h-16.07v2.36c.01 10.52.01 21.05.05 31.57.01 3.97.11 7.94.15 11.91.02 1.89 0 1.9-1.95 1.88l-20.08-.12c-.98 0-1.97.07-2.95.07-1.38 0-2.25-.82-2.22-2.19.17-8.43.44-16.85.52-25.28.05-5.8.65-11.61-.14-17.41-.27-1.97-.56-2.27-2.58-2.27-3.82 0-7.64-.07-11.46-.01-1.05.02-1.42-.41-1.46-1.31-.08-1.71-.16-3.43-.17-5.14-.03-3.48-.01-6.95-.01-10.7zM955.52 7.89c3.19 0 6.34.01 9.5 0 9.04-.05 18.08-.1 27.11-.16 6.33-.04 12.65-.11 18.98-.16.45 0 .9.04 1.35.03 1.04-.02 1.45.44 1.44 1.5-.04 3.89-.02 7.78-.02 11.67v3.74h-16.07v2.22c.01 10.61.01 21.21.05 31.82.01 4.05.08 8.1.17 12.15.03 1.16-.35 1.59-1.56 1.58-6.69-.08-13.39-.11-20.08-.14-1.03 0-2.05.06-3.08.07-1.77.02-2.55-.74-2.51-2.52.19-9.25.45-18.49.58-27.74.07-4.86.53-9.73-.19-14.59-.3-2.01-.55-2.3-2.54-2.3-3.82-.01-7.64-.08-11.46-.01-1.13.02-1.47-.48-1.51-1.4-.08-1.88-.14-3.75-.16-5.63-.02-3.28 0-6.55 0-10.13zM102.33 7.46c8.89.13 17.57.26 26.08.38 0 6.83-.02 13.72.01 20.62.02 5.85.1 11.71.16 17.56.04 3.97.03 7.94.14 11.91.12 4.25.32 8.49.53 12.74.05 1.09-.4 1.44-1.43 1.46-8.01.1-16.02.24-24.03.35-2.27.03-2.35-.12-2.28-2.34.13-4.3.21-8.59.3-12.89.13-6.1.25-12.19.37-18.29.13-6.96.29-13.91.36-20.87.03-2.74-.14-5.48-.2-8.22-.03-.8-.01-1.61-.01-2.41zM310.66 7.81v3.86c.03 10.03.04 20.07.09 30.1.03 5.24.08 10.48.21 15.72.11 4.37.32 8.74.54 13.11.06 1.12-.35 1.53-1.47 1.55-8.09.1-16.18.24-24.27.35-1.9.03-2.08-.25-2.01-2.13.14-4.34.23-8.67.32-13.01.13-6.05.26-12.11.37-18.16.14-7.41.29-14.81.36-22.22.03-2.82-.12-5.64-.24-8.46-.04-.98.28-1.23 1.26-1.2 6.32.21 12.64.36 18.96.51 1.99.01 3.99-.02 5.88-.02zM924.09 7.46c8.9.13 17.57.25 26.09.38 0 6.86-.02 13.8.01 20.74.02 5.81.1 11.63.15 17.44.04 3.97.03 7.94.14 11.91.12 4.25.32 8.49.53 12.74.05 1.08-.38 1.45-1.42 1.47-8.13.1-16.26.24-24.4.35-1.79.02-2-.29-1.94-2.09.14-4.38.23-8.75.32-13.13.13-6.1.25-12.19.37-18.29.13-6.96.29-13.91.36-20.87.03-2.78-.14-5.56-.21-8.34-.02-.78 0-1.54 0-2.31zM755.5 48.94h-3.75c-.21 2.15-.42 4.28-.64 6.52h-7.63c1.36-10.01 2.71-19.99 4.08-30.07h12.13c1.36 9.98 2.72 19.98 4.1 30.07h-7.63c-.23-2.13-.44-4.3-.66-6.52zm-.52-5.89c-.39-4.17-.76-8.24-1.14-12.31-.15 0-.3.01-.44.01l-1.12 12.3h2.7z"/></g><g><path d="M738.84 45.99v6.72H725.1v-30.1h7.81v23.38h5.93zM239.85 69.75c-1.86-.25-3.73-.45-5.58-.74-6.08-.96-11.68-3.06-16.28-7.26-4.07-3.72-6.36-8.44-6.95-13.86-.33-3.08-.17-6.21-.16-9.31.03-8.11.11-16.21.15-24.32.01-3.06-.02-6.13-.07-9.19-.02-1 .39-1.35 1.39-1.35 6.53-.01 13.05-.08 19.58-.09 1.55 0 3.1.13 5.01.22 0 2.65-.02 5.17 0 7.7.05 6.3.15 12.61.15 18.91 0 4.87-.21 9.74-.14 14.61.02 1.55.38 3.2.98 4.63 1.29 3.03 5.12 3.48 7.32 1.02 1.45-1.62 1.93-3.62 1.94-5.68.05-9.91.05-19.81.01-29.72-.01-3.23-.19-6.46-.29-9.69-.01-.2 0-.41.01-.61.13-1.85.13-1.86 2.02-1.85l22.93.12c1.71.01 2.16.57 2.14 2.21-.11 9.58-.16 19.16-.28 28.73-.07 5.36.13 10.76-.47 16.06-.94 8.34-5.93 13.77-13.69 16.78-3.75 1.45-7.65 2.17-11.64 2.47-.48.04-.95.16-1.42.24-2.22-.03-4.44-.03-6.66-.03zM879.12 69.75c-1.86-.25-3.73-.45-5.58-.74-6.08-.96-11.68-3.06-16.28-7.26-4.07-3.72-6.36-8.44-6.95-13.86-.33-3.08-.17-6.21-.16-9.31.03-8.11.11-16.21.15-24.32.01-3.06-.02-6.13-.07-9.19-.02-1 .39-1.35 1.39-1.35 6.53-.01 13.05-.08 19.58-.09 1.55 0 3.1.13 5.01.22 0 2.65-.02 5.17 0 7.7.05 6.3.15 12.61.15 18.91 0 4.87-.21 9.74-.14 14.61.02 1.55.38 3.2.98 4.63 1.29 3.03 5.12 3.48 7.32 1.02 1.45-1.62 1.93-3.62 1.94-5.68.05-9.91.05-19.81.01-29.72-.01-3.23-.19-6.46-.29-9.69-.01-.2 0-.41.01-.61.13-1.85.13-1.86 2.02-1.85l22.93.12c1.71.01 2.16.57 2.14 2.21-.11 9.58-.16 19.16-.28 28.73-.07 5.36.13 10.76-.47 16.06-.94 8.34-5.93 13.77-13.69 16.78-3.75 1.45-7.65 2.17-11.64 2.47-.48.04-.95.16-1.42.24-2.22-.03-4.44-.03-6.66-.03zM39.42 3.96c2.2 10.86 4.39 21.64 6.58 32.42.07.32.07.68.23.95.19.32.56.8.79.77.35-.05.87-.43.94-.76.94-4.4 1.85-8.8 2.71-13.22 1.26-6.42 2.49-12.85 3.69-19.29.19-1.03.61-1.36 1.69-1.36 8.14 0 16.27-.08 24.41-.13 2.79-.02 5.59.06 8.38-.03 1.23-.04 1.54.43 1.57 1.55.14 6.38.36 12.76.5 19.15.24 10.97.49 21.93.66 32.9.05 3.31-.18 6.63-.19 9.94 0 1.05-.5 1.4-1.4 1.41-6.7.09-13.39.19-20.09.21-.39 0-1.02-.58-1.12-.99-.37-1.59-.76-3.21-.78-4.82-.1-6.39-.07-12.77-.08-19.16-.01-3.15 0-6.3 0-9.54-.58-.13-1.05-.23-1.67-.36-.59 2.3-1.21 4.54-1.74 6.79-2.03 8.68-4.07 17.36-6.01 26.06-.3 1.33-.97 1.78-2.15 1.79-2.05.03-4.11.03-6.16.03-3.86 0-7.73.01-11.59 0-1.78 0-1.98-.16-2.38-1.79-1.59-6.51-3.22-13.02-4.77-19.54-1.19-5.01-2.3-10.04-3.44-15.07-.08-.35-.19-.7-.3-1.12-.49.03-.92.05-1.69.09-.16 12.32-.31 24.58-.47 37.01H4.36V25.87c0-7.04-.02-14.08-.05-21.13 0-.98.21-1.49 1.36-1.51 11.18-.17 22.34-.04 33.5.65.08.02.16.06.25.08zM135.94 3.86c3.2-.09 6.31-.21 9.43-.26 6.45-.1 12.9-.14 19.35-.28 1.11-.02 1.52.38 1.9 1.37 4.16 10.89 8.38 21.75 12.59 32.62.38.99.4.99 1.86.66V3.62h20.82c0 1.97-.01 3.87 0 5.77.06 9.46.16 18.91.2 28.37.02 6.02-.06 12.04-.06 18.06 0 3.4.08 6.79.11 10.19.02 1.78 0 1.8-1.84 1.81-7.72.06-15.45.11-23.17.17-1.19.01-2.39-.1-3.57.03-1.22.13-1.74-.41-2.14-1.46-3.21-8.49-6.46-16.96-9.71-25.44-.85-2.21-1.72-4.42-2.63-6.75-.46.05-.93.11-1.58.19 0 1.36-.01 2.65 0 3.95.07 9.13.14 18.26.2 27.39 0 .53.06 1.13-.17 1.56-.22.4-.77.87-1.19.88-6.24.09-12.48.11-18.72.16-1.58.01-2.62-1.02-2.6-2.67.05-4.18.12-8.35.16-12.53.07-8.39.07-16.79.18-25.18.11-7.86.32-15.71.49-23.57-.02-.17.02-.32.09-.69zM652.47 3.57c0 2.06-.01 3.98 0 5.89.06 9.33.16 18.67.2 28 .02 6.06-.06 12.12-.06 18.18 0 3.6.04 7.21.14 10.81.03 1.05-.36 1.35-1.33 1.36-7.19.05-14.38.14-21.57.2-2.01.02-4.03-.08-6.04.01-.98.04-1.39-.39-1.69-1.2-1.31-3.53-2.6-7.06-3.95-10.57-2.72-7.06-5.49-14.1-8.2-21.16-.43-1.11-1.07-.66-1.88-.42 0 1.31-.01 2.61 0 3.92.07 9.05.14 18.1.2 27.14 0 .33.02.66-.01.98-.09 1.43-.37 1.61-1.81 1.62-6.08.03-12.16.09-18.24.16-1.55.02-2.65-.98-2.64-2.51.08-8.02.19-16.05.27-24.07.04-4.79-.01-9.58.07-14.37.12-7.57.33-15.14.46-22.71.02-.92.48-.95 1.15-.97 4.02-.1 8.04-.27 12.07-.34 5.26-.09 10.52-.09 15.77-.2.99-.02 1.42.29 1.77 1.21 4.18 10.92 8.42 21.82 12.6 32.75.35.92.81 1.11 1.86.67V3.69c7.01-.66 13.8.2 20.86-.12zM820.33 3.56h20.81c0 2.03-.01 3.93 0 5.83.06 9.42.16 18.83.2 28.25.02 6.02-.06 12.04-.06 18.06 0 3.4.08 6.79.11 10.19.02 1.9 0 1.91-1.98 1.93-8.38.06-16.76.12-25.14.16-3.07.02-3.07 0-4.19-2.92-3.78-9.89-7.57-19.78-11.35-29.67-.12-.3-.24-.6-.35-.89-1.54-.15-1.59-.12-1.58 1.32.05 10.03.11 20.06.16 30.09 0 .49-.04.98-.11 1.46-.1.71-.49 1.01-1.27 1.01-6.24.01-12.48.06-18.72.11-1.52.01-2.6-1.01-2.58-2.57.04-4.22.12-8.43.16-12.65.07-8.07.07-16.13.18-24.2.11-8.06.33-16.12.46-24.18.01-.84.33-1.02 1.09-1.04 4.1-.09 8.21-.27 12.31-.34 5.22-.09 10.43-.1 15.65-.19.93-.02 1.35.27 1.69 1.15 4.18 10.92 8.42 21.82 12.61 32.74.36.95.8 1.24 1.92.69-.02-11.3-.02-22.71-.02-34.34zM458.15 67.77c-.64.1-1.22.28-1.8.28-7.72-.01-15.45-.03-23.17-.07-1.92-.01-1.87-.15-2.22-2.1-.42-2.32-1.07-4.61-1.63-6.91-.14-.56-.37-.88-1.09-.87-5.55.08-11.09.12-16.64.12-.9 0-1.29.25-1.51 1.14-.63 2.58-1.38 5.13-2.02 7.71-.18.71-.53 1.06-1.24 1.1-.37.02-.74.09-1.1.09-7.19.1-14.38.2-21.57.29-1.63.02-1.9-.34-1.39-1.91 4.02-12.28 8.01-24.56 12.08-36.82 2.8-8.46 5.7-16.89 8.54-25.34.25-.74.62-.98 1.41-.99 7.07-.05 14.13-.15 21.2-.22 2.83-.03 5.66-.02 8.49.01 1.81.01 2.09.2 2.66 1.89 6.26 18.51 12.52 37.03 18.76 55.55.76 2.27 1.45 4.57 2.24 7.05zm-37.92-51.51c-.21.06-.43.11-.64.17-3.1 9.11-5.07 18.5-7.25 27.93h14.7c0-.28.02-.45 0-.61-.92-8.56-3.35-16.82-5.31-25.16-.2-.85-.99-1.56-1.5-2.33zM584.19 67.77c-.65.11-1.23.28-1.81.28-7.72-.01-15.45-.03-23.17-.07-1.93-.01-1.87-.15-2.22-2.1-.42-2.32-1.07-4.61-1.62-6.91-.14-.56-.37-.89-1.09-.88-5.55.08-11.09.12-16.64.12-.9 0-1.3.24-1.51 1.14-.62 2.58-1.38 5.13-2.02 7.71-.18.71-.53 1.06-1.23 1.11-.41.03-.82.09-1.23.1-7.15.1-14.3.2-21.44.29-1.64.02-1.91-.34-1.39-1.91 4.02-12.28 8.01-24.56 12.08-36.82 2.8-8.46 5.7-16.89 8.54-25.34.25-.74.62-.99 1.4-.99 7.07-.05 14.13-.15 21.2-.22 2.83-.03 5.66-.02 8.49.01 1.81.01 2.09.2 2.66 1.88 6.18 18.28 12.36 36.57 18.52 54.85.83 2.5 1.61 5.04 2.48 7.75zM553.08 44.4c-.03-.44-.02-.8-.09-1.16-.99-5.13-1.94-10.27-3-15.39-.62-3-1.38-5.97-2.12-8.94-.28-1.11-.71-2.17-2.26-2.52-3.09 9.17-5.09 18.55-7.27 28.01h14.74zM448 3.51c2.33 0 4.46.01 6.58 0 6.12-.02 12.24-.06 18.36-.08 1.73-.01 1.87.14 2.16 1.78 2.51 14.01 5.04 28.01 7.55 42.02.04.24.12.48.11.73-.02 1.34.68 1.59 1.88 1.21.68-3.67 1.31-7.37 2.05-11.05 2.23-11.11 4.51-22.2 6.72-33.31.2-.99.79-1.11 1.55-1.13 3.45-.11 6.89-.24 10.34-.28 3.86-.05 7.72-.01 11.59-.01 1.62 0 1.74.16 1.3 1.68-3.04 10.65-6.14 21.29-9.11 31.96-2.28 8.19-4.37 16.43-6.62 24.63-.5 1.8-1.31 3.52-2 5.27-.39.98-1.08 1.35-2.2 1.33-5.5-.09-11-.12-16.5-.1-4.72.02-9.44.16-14.16.15-.5 0-1.25-.53-1.45-.99-.75-1.8-1.52-3.64-1.93-5.54-2.93-13.65-7.62-26.81-11.37-40.23-1.51-5.39-2.98-10.8-4.46-16.2-.12-.46-.2-.94-.39-1.84zM355.52 20.51v2.58c.01 10.44.01 20.88.05 31.33.01 3.85.11 7.69.15 11.54.02 2.32 0 2.33-2.26 2.31-6.57-.04-13.14-.08-19.71-.11-.98 0-1.97.07-2.95.07-1.46 0-2.31-.8-2.28-2.25.17-8.43.45-16.85.52-25.28.05-5.76.65-11.53-.14-17.29-.28-2.06-.56-2.33-2.64-2.33-3.82 0-7.64-.07-11.46-.01-1.01.02-1.34-.43-1.39-1.25-.09-1.75-.17-3.51-.18-5.26-.03-3.47-.01-6.94-.01-10.64 3.17 0 6.33.01 9.48 0 6.66-.02 13.31-.04 19.97-.08 8.67-.06 17.33-.16 26-.24.37 0 .74-.01 1.11 0 1.66.06 1.8.21 1.81 1.87.03 4.42.06 8.84.08 13.26 0 .57-.07 1.14-.11 1.78h-16.04zM656.78 3.92c3.1 0 6.13.01 9.17 0 9.12-.05 18.24-.1 27.36-.16 6.33-.04 12.65-.11 18.98-.16.41 0 .82.03 1.23.01 1.18-.05 1.68.42 1.65 1.68-.07 3.85-.02 7.7-.02 11.55v3.72h-16.07v2.36c.01 10.52.01 21.05.05 31.57.01 3.97.11 7.94.15 11.91.02 1.89 0 1.9-1.95 1.88l-20.08-.12c-.98 0-1.97.07-2.95.07-1.38 0-2.25-.82-2.22-2.19.17-8.43.44-16.85.52-25.28.05-5.8.65-11.61-.14-17.41-.27-1.97-.56-2.27-2.58-2.27-3.82 0-7.64-.07-11.46-.01-1.05.02-1.42-.41-1.46-1.31-.08-1.71-.16-3.43-.17-5.14-.03-3.48-.01-6.95-.01-10.7zM952.74 3.92c3.19 0 6.34.01 9.5 0 9.04-.05 18.08-.1 27.11-.16 6.33-.04 12.65-.11 18.98-.16.45 0 .9.04 1.35.03 1.04-.02 1.45.44 1.44 1.5-.04 3.89-.02 7.78-.02 11.67v3.74h-16.07v2.22c.01 10.61.01 21.21.05 31.82.01 4.05.08 8.1.17 12.15.03 1.16-.35 1.59-1.56 1.58-6.69-.08-13.39-.11-20.08-.14-1.03 0-2.05.06-3.08.07-1.77.02-2.55-.74-2.51-2.52.19-9.25.45-18.49.58-27.74.07-4.86.53-9.73-.19-14.59-.3-2.01-.55-2.3-2.54-2.3-3.82-.01-7.64-.08-11.46-.01-1.13.02-1.47-.48-1.51-1.4-.08-1.88-.14-3.75-.16-5.63-.02-3.28 0-6.55 0-10.13zM99.54 3.49c8.89.13 17.57.26 26.08.38 0 6.83-.02 13.72.01 20.62.02 5.85.1 11.71.16 17.56.04 3.97.03 7.94.14 11.91.12 4.25.32 8.49.53 12.74.05 1.09-.4 1.44-1.43 1.46-8.01.1-16.02.24-24.03.35-2.27.03-2.35-.12-2.28-2.34.13-4.3.21-8.59.3-12.89.13-6.1.25-12.19.37-18.29.13-6.96.29-13.91.36-20.87.03-2.74-.14-5.48-.2-8.22-.02-.8-.01-1.61-.01-2.41zM307.88 3.84V7.7c.03 10.03.04 20.07.09 30.1.03 5.24.08 10.48.21 15.72.11 4.37.32 8.74.54 13.11.06 1.12-.35 1.53-1.47 1.55-8.09.1-16.18.24-24.27.35-1.9.03-2.08-.25-2.01-2.13.14-4.34.23-8.67.32-13.01.13-6.05.26-12.11.37-18.16.14-7.41.29-14.81.36-22.22.03-2.82-.12-5.64-.24-8.46-.04-.98.28-1.23 1.26-1.2 6.32.21 12.64.36 18.96.51 1.99.01 3.99-.02 5.88-.02zM921.31 3.49c8.9.13 17.57.25 26.09.38 0 6.86-.02 13.8.01 20.74.02 5.81.1 11.63.15 17.44.04 3.97.03 7.94.14 11.91.12 4.25.32 8.49.53 12.74.05 1.08-.38 1.45-1.42 1.47-8.13.1-16.26.24-24.4.35-1.79.02-2-.29-1.94-2.09.14-4.38.23-8.75.32-13.13.13-6.1.25-12.19.37-18.29.13-6.96.29-13.91.36-20.87.03-2.78-.14-5.56-.21-8.34-.02-.78 0-1.55 0-2.31zM752.72 46.18h-3.75c-.21 2.15-.42 4.28-.64 6.52h-7.63c1.36-10.01 2.71-19.99 4.08-30.07h12.13c1.36 9.98 2.72 19.98 4.09 30.07h-7.63c-.22-2.13-.43-4.3-.65-6.52zm-.52-5.89c-.39-4.17-.76-8.24-1.14-12.31-.15 0-.3.01-.44.01l-1.12 12.3h2.7z"/></g></svg>