<svg version="1.1" id="Calque_1" xmlns="http://www.w3.org/2000/svg" x="0" y="0" viewBox="0 0 58.97 64" style="enable-background:new 0 0 58.97 64" xml:space="preserve"><style>.st0{fill:#1d1e1c}</style><path class="st0" d="M29.49 0C17.2 0 7.22 10.09 7.22 22.49c0 12.4 9.99 22.49 22.28 22.49 12.27 0 22.27-10.09 22.27-22.49C51.76 10.09 41.76 0 29.49 0m13.56 20.25-1.92 1.93-1.91-1.93-1.9 1.93-1.92-1.93 1.92-1.94-1.92-1.93 1.92-1.93 1.9 1.93 1.91-1.93 1.92 1.93-1.92 1.93 1.92 1.94zM29.49 41.14c-10.18 0-18.47-8.37-18.47-18.65S19.31 3.84 29.49 3.84v37.3z"/><path class="st0" d="M21.15 21.06c1.35 0 2.44-1.11 2.44-2.47 0-1.37-1.09-2.47-2.44-2.47-1.35 0-2.44 1.11-2.44 2.47 0 1.37 1.09 2.47 2.44 2.47M44.98 47.73h1.17v7.44h-1.17z"/><path class="st0" d="M44.99 53.97h3.88v1.21h-3.88zM15.55 55.19h1.28l2.44-5.98-.54-1.49z"/><path class="st0" d="M21.91 55.19h-1.28l-2.44-5.98.53-1.49z"/><path class="st0" d="M16.81 52.79h3.99v1.17h-3.99zM41.59 53.93l1.17 1.26v-7.46h-1.17zM38.68 49l-1.17-1.27v7.42h1.17z"/><path class="st0" d="m37.51 49.43.01-1.71 5.05 5.53-.83.85zM30.04 47.72h1.17v4.66h-1.17zM34.17 47.72h1.17v4.66h-1.17z"/><path class="st0" d="M32.62 55.19c-2.66 0-2.58-2.36-2.58-2.36v-.48l1.17-.01s-.08 1.69 1.41 1.69l.13.01c1.49 0 1.42-1.69 1.42-1.69h1.17v.49s.08 2.36-2.58 2.36h-.14zM45.05 47.72h3.88v1.21h-3.88zM11.49 55.19H10.3v-3.34l-.26-.39.26-.43v-3.32h1.19v3.32l-.26.43.26.39z"/><path class="st0" d="M10.5 54.02h4.49v1.17H10.5zM25.41 55.19h-1.19v-3.34l-.26-.39.26-.43v-3.32h1.19v3.32l-.26.43.26.39z"/><path class="st0" d="M24.42 54.02h4.49v1.17h-4.49zM44.99 50.61h3.34v1.22h-3.34z"/><g><path class="st0" d="M28.83 63.99h-1.2v-3.3l-.26-.4.26-.43v-3.28h1.2v3.28l-.26.43.26.4zM37.05 63.99h1.31l2.5-6.12-.54-1.53z"/><path class="st0" d="M43.57 63.99h-1.31l-2.5-6.12.54-1.53z"/><path class="st0" d="M38.38 61.65h4.03v1.18h-4.03zM43.32 56.58h4.82v1.2h-4.82zM1.41 57.74h.86s2.47.32 2.47 2.5-2.43 2.61-2.43 2.61h-.9v1.13h1s3.57.04 3.57-3.75c0-3.78-3.67-3.66-3.67-3.66h-1l.1 1.17zM21.6 56.59h1.2v7.4h-1.2z"/><path class="st0" d="M21.62 56.58h2.01v1.2h-2.01zM21.62 60.82h2.01v1.2h-2.01z"/><path class="st0" d="M26.48 59.38c0 2.73-2.42 2.64-2.42 2.64h-.51v-1.2s1.73.08 1.73-1.45l.01-.13c0-1.52-1.77-1.47-1.77-1.47v-1.2l.54.02s2.42-.08 2.42 2.64v.15zM30.73 56.59h1.2v7.4h-1.2z"/><path class="st0" d="M33.78 64h1.68l-2.71-3.25-1.2.59zM30.74 56.58h2.01v1.2h-2.01z"/><path class="st0" d="M30.76 60.59h2.01v1.2h-2.01z"/><path class="st0" d="M35.63 59.23c0 2.54-2.42 2.56-2.42 2.56h-.51V60.6s1.73.04 1.73-1.38l.01-.12c0-1.42-1.75-1.32-1.75-1.32v-1.2l.54.01s2.41-.03 2.41 2.51v.13zM16.36 58.11s-.78-.53-1.26-.47c-.49.06-.8.29-.8.88 0 .59.82.88 1.46 1.16.64.28 1.85.78 1.85 2.16 0 1.37-1.24 2.16-2.41 2.16-1.17 0-2.06-.75-2.53-1.22l.82-.82s1.01.9 1.69.9c.68 0 1.22-.24 1.24-1.04.02-.8-1.77-1.27-2.35-1.76-.58-.49-.99-.76-.89-1.63.1-.86.72-1.9 2.04-1.84 1.32.06 1.79.67 1.79.67l-.65.85zM57.77 58.12s-.75-.53-1.23-.47c-.47.06-.77.29-.77.88 0 .59.79.88 1.41 1.16.62.27 1.79.78 1.79 2.15 0 1.37-1.2 2.15-2.34 2.15-1.13 0-2-.74-2.45-1.22l.79-.82s.98.9 1.64.9c.66 0 1.19-.23 1.21-1.04.02-.8-1.71-1.27-2.28-1.76-.56-.49-.96-.76-.87-1.63.09-.86.7-1.9 1.98-1.84 1.28.06 1.73.67 1.73.67l-.61.87zM49.27 56.56h1.17V64h-1.17z"/><path class="st0" d="M49.28 62.79h3.88V64h-3.88zM49.34 56.55h3.88v1.21h-3.88zM7.3 56.56h1.17V64H7.3z"/><path class="st0" d="M7.31 62.79h3.88V64H7.31zM7.37 56.55h3.88v1.21H7.37zM1.46 63.98H.26v-3.31L0 60.28l.26-.43v-3.28h1.2v3.28l-.26.43.26.39zM46.3 63.98h-1.2v-3.31l-.26-.39.26-.43v-3.28h1.2v3.28l-.26.43.26.39zM49.34 59.43h3.38v1.23h-3.38zM7.3 59.43h3.38v1.23H7.3z"/></g></svg>