<?xml version="1.0" encoding="UTF-8"?>
<svg id="Calque_1" data-name="Calque 1" xmlns="http://www.w3.org/2000/svg" viewBox="0 0 46.23 46.69">
  <defs>
    <style>
      .cls-1 {
        fill: #1d1e1c;
      }
    </style>
  </defs>
  <path class="cls-1" d="m23.12,0C10.37,0,0,10.48,0,23.35s10.37,23.34,23.12,23.34,23.11-10.47,23.11-23.34S35.85,0,23.12,0m14.08,21.02l-1.99,2.01-1.98-2.01-1.97,2.01-2-2.01,2-2.01-2-2,2-2,1.97,2,1.98-2,1.99,2-1.99,2,1.99,2.01Zm-14.08,21.68c-10.57,0-19.17-8.69-19.17-19.36S12.55,3.99,23.12,3.99v38.71Z"/>
  <path class="cls-1" d="m14.47,21.86c1.4,0,2.54-1.15,2.54-2.56s-1.14-2.57-2.54-2.57-2.53,1.15-2.53,2.57,1.13,2.56,2.53,2.56"/>
</svg>