<?xml version="1.0" encoding="UTF-8"?><svg id="a" xmlns="http://www.w3.org/2000/svg" viewBox="0 0 289.29 96.96"><defs><style>.b{fill:#93008b;}</style></defs><path class="b" d="m118.87,27.9c-.23,1.18-.93,2.17-2.08,2.94-1.15.78-2.52,1.17-4.11,1.17-1.29,0-2.3-.31-3.04-.94-.74-.62-1.11-1.46-1.11-2.5s.35-1.87,1.06-2.36,1.8-.74,3.29-.74h5.99v2.43Zm-7.32-7.04c-3.23.03-5.73.77-7.5,2.21-1.76,1.44-2.65,3.44-2.65,6.01s.83,4.59,2.47,6.16c1.65,1.57,3.88,2.36,6.68,2.36,1.84,0,3.48-.31,4.9-.91,1.42-.61,2.57-1.49,3.46-2.64v3.19h7.47l-.05-17.79c-.03-3.07-1.03-5.47-2.99-7.2-1.96-1.72-4.72-2.59-8.29-2.59-2.21,0-4.24.25-6.09.76s-3.83,1.3-5.94,2.39l2.38,5.37c2.8-1.59,5.44-2.38,7.92-2.38,1.81,0,3.19.4,4.13,1.19s1.41,1.92,1.41,3.37v.51h-7.32.01Zm34.11,10.47c-.61.35-1.43.53-2.45.53-1.48,0-3.06-.3-4.72-.89-1.67-.59-3.17-1.43-4.53-2.51l-2.47,5.27c1.48,1.22,3.23,2.16,5.24,2.81,2.01.66,4.11.99,6.29.99,3.17,0,5.76-.75,7.79-2.26,2.03-1.5,3.04-3.61,3.04-6.31,0-1.79-.45-3.24-1.34-4.33-.89-1.1-1.95-1.93-3.17-2.48-1.22-.56-2.77-1.12-4.65-1.7-1.72-.51-2.95-.96-3.71-1.37s-1.14-.98-1.14-1.72c0-.68.28-1.18.84-1.52s1.3-.51,2.23-.51c1.12,0,2.39.23,3.81.68,1.42.46,2.85,1.11,4.31,1.95l2.62-5.32c-1.48-.98-3.13-1.74-4.95-2.26s-3.63-.78-5.44-.78c-3.03,0-5.54.74-7.52,2.23s-2.97,3.58-2.97,6.29c0,1.76.43,3.19,1.29,4.28.86,1.1,1.89,1.92,3.09,2.46s2.71,1.08,4.53,1.62c1.72.51,2.96.98,3.74,1.42.77.44,1.16,1.05,1.16,1.82,0,.71-.3,1.24-.92,1.6m-23.46,41.52c0,2.03-.53,3.69-1.58,4.97-1.06,1.29-2.49,1.94-4.3,1.98-1.55,0-2.77-.49-3.66-1.47s-1.34-2.33-1.34-4.05v-14.9h-7.62v17.13c0,3.21.86,5.75,2.6,7.63,1.73,1.88,4.06,2.81,7,2.81,4.12,0,7.09-1.7,8.9-5.12v4.81h7.57v-27.27h-7.57v13.48Zm39.15-2.08c.3-1.82,1-3.27,2.1-4.34,1.1-1.06,2.48-1.6,4.13-1.6,1.75,0,3.15.54,4.21,1.62s1.62,2.52,1.68,4.31h-12.12Zm6.18-11.66c-2.67,0-5.05.58-7.12,1.75-2.08,1.17-3.69,2.8-4.85,4.92-1.15,2.11-1.73,4.55-1.73,7.32s.57,5.15,1.71,7.25,2.76,3.72,4.85,4.86c2.09,1.15,4.54,1.72,7.35,1.72,2.38,0,4.53-.41,6.46-1.24s3.57-2.02,4.92-3.57l-4.01-4.16c-.92.95-1.96,1.66-3.12,2.15-1.15.49-2.36.73-3.61.73-1.71,0-3.18-.48-4.4-1.44s-2.04-2.31-2.47-4.03h19.1c.03-.44.05-1.07.05-1.88,0-4.53-1.11-8.06-3.34-10.59s-5.49-3.8-9.78-3.8m-23.93,5.17v-4.92h-7.62v27.27h7.62v-13.13c0-2.16.69-3.9,2.06-5.19,1.37-1.3,3.22-1.95,5.56-1.95.53,0,.92.02,1.19.05v-7.35c-1.98.04-3.71.49-5.2,1.37-1.48.88-2.69,2.16-3.61,3.85m-49.01,16.12c-1.62,0-2.43-1.05-2.43-3.14v-11.26h7.22v-5.42h-7.22v-7.5h-7.57v7.5h-3.71v5.37h3.71v12.62c0,2.7.77,4.78,2.32,6.24,1.55,1.45,3.56,2.18,6.04,2.18,1.22,0,2.43-.16,3.64-.48,1.2-.32,2.3-.79,3.29-1.39l-1.58-5.73c-1.35.68-2.59,1.02-3.71,1.02m-71.32-1.65c-1.6.76-3.17,1.14-4.72,1.14-1.95,0-3.73-.5-5.34-1.5-1.62-1-2.89-2.35-3.81-4.06-.93-1.71-1.39-3.59-1.39-5.65s.46-3.94,1.39-5.62c.92-1.69,2.19-3.03,3.81-4.01s3.4-1.47,5.34-1.47c1.61,0,3.22.41,4.82,1.24s2.99,1.97,4.18,3.42l4.55-5.73c-1.71-1.83-3.79-3.27-6.23-4.33s-4.92-1.6-7.42-1.6c-3.43,0-6.55.79-9.37,2.38s-5.04,3.77-6.66,6.54-2.43,5.86-2.43,9.27.79,6.57,2.38,9.38c1.59,2.81,3.76,5.01,6.53,6.61,2.77,1.61,5.85,2.41,9.25,2.41,2.51,0,5.01-.57,7.5-1.72s4.66-2.7,6.51-4.66l-4.6-5.12c-1.25,1.28-2.68,2.3-4.28,3.06m31.1-5.91c0,2.03-.53,3.69-1.58,4.97-1.05,1.29-2.49,1.94-4.3,1.98-1.55,0-2.77-.49-3.66-1.47s-1.34-2.33-1.34-4.05v-14.9h-7.62v17.13c0,3.21.86,5.75,2.6,7.63,1.73,1.88,4.06,2.81,7,2.81,4.12,0,7.09-1.7,8.9-5.12v4.81h7.57v-27.27h-7.57v13.48Zm14.03,13.79h7.62v-37.61h-7.62v37.61Zm104.06-55.3c-.61.35-1.42.53-2.45.53-1.48,0-3.06-.3-4.72-.89-1.67-.59-3.18-1.43-4.53-2.51l-2.47,5.27c1.48,1.22,3.23,2.16,5.24,2.81,2.01.66,4.11.99,6.29.99,3.17,0,5.76-.75,7.79-2.26,2.03-1.5,3.05-3.61,3.05-6.31,0-1.79-.45-3.24-1.34-4.33-.89-1.1-1.95-1.93-3.17-2.48-1.22-.56-2.77-1.12-4.65-1.7-1.72-.51-2.95-.96-3.71-1.37s-1.14-.98-1.14-1.72c0-.68.28-1.18.84-1.52s1.31-.51,2.23-.51c1.12,0,2.39.23,3.81.68,1.42.46,2.85,1.11,4.31,1.95l2.62-5.32c-1.48-.98-3.14-1.74-4.95-2.26s-3.63-.78-5.44-.78c-3.04,0-5.54.74-7.52,2.23s-2.97,3.58-2.97,6.29c0,1.76.43,3.19,1.29,4.28.86,1.1,1.89,1.92,3.09,2.46s2.71,1.08,4.53,1.62c1.72.51,2.96.98,3.74,1.42.77.44,1.16,1.05,1.16,1.82,0,.71-.3,1.24-.92,1.6m-94.59-2.36c-1.24-1.39-1.85-3.21-1.85-5.48s.62-3.99,1.85-5.4c1.24-1.4,2.83-2.1,4.78-2.1s3.53.7,4.75,2.1,1.83,3.2,1.83,5.4-.61,4.05-1.83,5.45-2.81,2.1-4.75,2.1-3.54-.69-4.78-2.08m13.21,6.84c1.86-1.15,3.31-2.76,4.33-4.84s1.53-4.49,1.53-7.22-.52-5.22-1.56-7.35-2.51-3.78-4.41-4.94c-1.89-1.17-4.08-1.75-6.56-1.75-1.78,0-3.39.36-4.82,1.09-1.44.73-2.63,1.78-3.59,3.17v-4h-7.62v37.1h7.62v-13.78c.99,1.38,2.2,2.44,3.64,3.17s3.08,1.09,4.92,1.09c2.47,0,4.64-.57,6.51-1.72"/><path class="b" d="m228.55,77.83c-.46-.18-.98.04-1.16.5l-5.56,14.04c-.18.46.04.98.5,1.16.11.04.22.06.33.06.36,0,.69-.21.83-.56l5.56-14.04c.18-.46-.04-.98-.5-1.16"/><path class="b" d="m240.35,12.13c-.49,0-.9.4-.9.89v18.44c0,.49.4.89.9.89s.89-.4.89-.89V13.02c0-.49-.4-.89-.89-.89"/><path class="b" d="m238.37,63.73c-.49-.06-.94.28-1,.77l-3.98,31.46c-.06.49.28.94.77,1h.12c.44,0,.83-.33.88-.78l3.98-31.46c.06-.49-.29-.94-.77-1"/><path class="b" d="m234.12,63.79c-.46-.18-.98.04-1.16.5l-3.82,9.65c-.18.46.04.98.5,1.16.11.04.22.06.33.06.36,0,.69-.22.83-.57l3.82-9.65c.18-.46-.04-.98-.5-1.16"/><path class="b" d="m229.16,63.44c-.4-.29-.96-.2-1.25.2l-9.65,13.29c-.29.4-.2.96.2,1.25.16.12.34.17.53.17.27,0,.55-.13.72-.37l9.65-13.29c.29-.4.2-.96-.2-1.25"/><path class="b" d="m215.67,80.49l-4.28,5.89c-.29.4-.2.96.2,1.25.16.12.34.17.52.17.28,0,.55-.13.73-.37l4.28-5.89c.29-.4.2-.96-.2-1.25s-.96-.2-1.25.2"/><path class="b" d="m194.38,34.05l7.53,2.45c.09.03.19.04.28.04.38,0,.73-.24.85-.62.15-.47-.1-.97-.57-1.13l-7.53-2.45c-.47-.15-.97.1-1.13.57-.15.47.1.97.57,1.13"/><path class="b" d="m207.96,46.9c.47,0,.86-.36.89-.84.03-.49-.34-.92-.84-.95l-15.65-.98c-.49-.03-.92.34-.95.83s.34.92.84.95l15.65.98h.06"/><path class="b" d="m202.65,64.8l-6.15,2.89c-.45.21-.64.74-.43,1.19.15.32.48.51.81.51.13,0,.26-.03.38-.08l6.15-2.89c.45-.21.64-.74.43-1.19s-.74-.64-1.19-.43"/><path class="b" d="m225.46,60.36c-.31-.38-.88-.43-1.26-.12l-18.51,15.31c-.38.32-.43.88-.12,1.26.18.21.43.32.69.32.2,0,.4-.07.57-.2l18.51-15.31c.38-.31.43-.88.12-1.26"/><path class="b" d="m250.56,71.41c-.18-.46-.7-.68-1.16-.5s-.68.7-.5,1.16l4.78,12.09c.14.35.48.57.83.57.11,0,.22-.02.33-.06.46-.18.68-.7.5-1.16l-4.79-12.09h0Z"/><path class="b" d="m284.63,67.89l-6.25-2.94c-.45-.21-.98-.02-1.19.43s-.02.98.43,1.19l6.26,2.94c.12.06.25.09.38.09.34,0,.66-.19.81-.51.21-.45.02-.98-.43-1.19"/><path class="b" d="m260.76,74.61c-.29-.4-.85-.49-1.25-.2s-.49.85-.2,1.25l6.67,9.18c.17.24.45.37.72.37.18,0,.37-.06.53-.17.4-.29.49-.85.2-1.25l-6.67-9.18Z"/><path class="b" d="m239.46,0v6.76c0,.49.4.89.9.89s.89-.4.89-.89V0"/><path class="b" d="m285.33,55.71l-28.23-5.39c-.48-.09-.95.22-1.05.71-.09.48.23.95.71,1.04l28.23,5.39c.06.01.11.02.17.02.42,0,.8-.3.88-.73.09-.48-.23-.95-.71-1.05"/><path class="b" d="m288.34,44.13l-17.8,1.12c-.49.03-.87.46-.83.95.03.47.42.84.89.84h.06l17.8-1.12c.49-.03.87-.46.83-.95-.03-.49-.45-.87-.95-.83"/><path class="b" d="m256.5,60.24c-.38-.31-.94-.26-1.26.12s-.26.94.12,1.26l19.11,15.8c.17.14.37.21.57.21.26,0,.51-.11.69-.32.31-.38.26-.94-.12-1.26l-19.11-15.8h0Z"/><path class="b" d="m244.84,83.56c-.49.06-.84.51-.78,1l1.15,9.1c.06.45.44.78.89.78h.11c.49-.06.84-.51.78-1l-1.15-9.1c-.06-.49-.51-.84-1-.77"/><path class="b" d="m244.52,81.08c.49-.06.84-.51.78-1l-1.97-15.58c-.06-.49-.51-.84-1-.77-.49.06-.84.51-.78,1l1.97,15.58c.06.45.44.78.89.78h.11"/><path class="b" d="m248.91,67.24l-1.17-2.95c-.18-.46-.7-.68-1.16-.5s-.68.7-.5,1.16l1.17,2.95c.14.35.48.56.83.56.11,0,.22-.02.33-.06.46-.18.68-.7.5-1.16"/><path class="b" d="m257.14,88.02c-.18-.46-.7-.68-1.16-.5s-.68.7-.5,1.16l1.73,4.36c.14.35.48.56.83.56.11,0,.22-.02.33-.06.46-.18.68-.7.5-1.16l-1.73-4.36Z"/><path class="b" d="m201.85,24.67l14.36,9.11c.15.09.31.14.48.14.3,0,.59-.15.76-.42.26-.42.14-.97-.28-1.23l-14.36-9.11c-.42-.26-.97-.14-1.23.27-.26.42-.14.97.28,1.23"/><path class="b" d="m269.68,17.71c.24,0,.48-.09.65-.28l4.75-5.05c.34-.36.32-.93-.04-1.26-.36-.34-.93-.32-1.26.04l-4.74,5.05c-.34.36-.32.93.04,1.26.17.16.39.24.61.24"/><path class="b" d="m251.54,63.44c-.4.29-.49.85-.2,1.25l4.77,6.56c.17.24.45.37.72.37.18,0,.37-.06.53-.17.4-.29.49-.85.2-1.25l-4.76-6.56c-.29-.4-.85-.49-1.25-.2"/><path class="b" d="m256.67,18.36c.14.08.28.11.43.11.32,0,.62-.17.79-.46l6.4-11.64c.24-.43.08-.98-.35-1.21-.43-.24-.98-.08-1.21.35l-6.4,11.63c-.24.43-.08.98.35,1.21"/><path class="b" d="m256.23,31.14c-.36-.34-.93-.32-1.26.04l-1.33,1.41c-.34.36-.32.93.04,1.26.17.16.39.24.61.24.24,0,.47-.09.65-.28l1.33-1.42c.34-.36.32-.92-.04-1.26"/><path class="b" d="m257.76,29.5c.17.16.39.24.61.24.24,0,.47-.09.65-.28l8.33-8.87c.34-.36.32-.93-.04-1.26-.36-.34-.93-.32-1.26.04l-8.33,8.87c-.34.36-.32.93.04,1.26"/><path class="b" d="m277.15,36.09c.12.38.47.62.85.62.09,0,.19-.02.28-.04l6.26-2.03c.47-.15.72-.66.57-1.13s-.66-.72-1.13-.57l-6.26,2.03c-.47.15-.72.66-.57,1.13"/><path class="b" d="m224.36,36.84l-3.88-2.46c-.42-.26-.97-.14-1.23.28s-.14.97.28,1.23l3.88,2.46c.15.09.31.14.48.14.3,0,.59-.15.76-.41.26-.42.14-.97-.28-1.23"/><path class="b" d="m249.03,32.25c.14.07.28.11.43.11.32,0,.62-.17.78-.46l5.3-9.64c.24-.43.08-.98-.35-1.21-.43-.24-.98-.08-1.21.35l-5.3,9.64c-.24.43-.08.98.35,1.21"/><path class="b" d="m256.55,56.65l17.09,8.04c.12.06.25.08.38.08.34,0,.66-.19.81-.51.21-.45.02-.98-.43-1.19l-17.09-8.04c-.44-.21-.98-.02-1.19.43s-.02.98.43,1.19"/><path class="b" d="m256.87,46.11c-.49.03-.87.45-.84.95.03.47.42.84.89.84h.06l9.78-.61c.49-.03.87-.46.84-.95s-.46-.87-.95-.84l-9.78.62h0Z"/><path class="b" d="m274.09,37.08c-.15-.47-.66-.73-1.13-.57l-16.31,5.3c-.47.15-.73.66-.57,1.13.12.38.47.62.85.62.09,0,.18-.01.28-.04l16.31-5.3c.47-.15.73-.66.57-1.13"/><path class="b" d="m256.06,38.08c.17.27.46.41.75.41.16,0,.33-.04.48-.14l22.68-14.4c.42-.26.54-.82.28-1.23-.26-.42-.82-.54-1.23-.28l-22.68,14.4c-.42.26-.54.82-.28,1.23"/><path class="b" d="m211.91,47.15l11.81.74h.06c.47,0,.86-.36.89-.84.03-.49-.34-.92-.83-.95l-11.81-.74c-.49-.03-.92.34-.95.84-.03.49.34.92.84.95"/><path class="b" d="m224.65,51.04c-.09-.49-.56-.8-1.05-.71l-26.89,5.13c-.49.09-.8.56-.71,1.05.08.43.46.73.88.73.06,0,.11,0,.17-.02l26.89-5.13c.49-.09.8-.56.71-1.04"/><path class="b" d="m216.01,58.51l-9.7,4.57c-.45.21-.64.74-.43,1.19.15.32.47.51.81.51.13,0,.26-.03.38-.08l9.7-4.57c.45-.21.64-.74.43-1.19s-.74-.64-1.19-.43"/><path class="b" d="m223.77,43.55c.38,0,.73-.24.85-.62.15-.47-.1-.97-.57-1.13l-17.51-5.69c-.47-.15-.97.1-1.13.57-.15.47.1.97.57,1.13l17.51,5.69c.09.03.19.04.28.04"/><path class="b" d="m220,58.51c.13,0,.26-.03.38-.08l3.77-1.77c.45-.21.64-.74.43-1.19s-.74-.64-1.19-.43l-3.77,1.77c-.45.21-.64.74-.43,1.19.15.32.47.51.81.51"/><path class="b" d="m250.51,4.85l-6.77,26.39c-.12.48.17.96.64,1.09"/><path class="b" d="m244.38,32.33c.08.02.15.03.22.03.4,0,.76-.27.87-.67l6.77-26.39c.12-.48-.16-.97-.64-1.09"/><path class="b" d="m225.76,33.82c.18.19.41.28.65.28.22,0,.44-.08.61-.24.36-.34.38-.91.04-1.26l-16.29-17.35c-.34-.36-.9-.38-1.26-.04s-.38.9-.04,1.26l16.29,17.35Z"/><path class="b" d="m229.02,27.43c-.43.24-.59.78-.35,1.21l1.78,3.25c.16.3.47.46.78.46.15,0,.29-.03.43-.11.43-.24.59-.78.35-1.21l-1.78-3.25c-.24-.43-.78-.59-1.21-.35"/><path class="b" d="m228.02,3.6l7.21,28.08c.1.4.47.67.87.67.07,0,.15,0,.22-.03.48-.12.76-.61.64-1.09l-7.21-28.09"/><path class="b" d="m216.3,4.29c-.43.24-.59.78-.35,1.21l2.56,4.66c.16.3.47.46.78.46.15,0,.29-.04.43-.11.43-.24.59-.78.35-1.21l-2.56-4.66"/><path class="b" d="m226.58,24.84c.16.3.47.46.78.46.15,0,.29-.04.43-.11.43-.24.59-.78.35-1.21l-6.27-11.39c-.24-.43-.78-.59-1.21-.35s-.59.78-.35,1.22l6.26,11.39h.01Z"/></svg>