<?xml version="1.0" encoding="UTF-8"?>
<svg id="Calque_1" data-name="Calque 1" xmlns="http://www.w3.org/2000/svg" viewBox="0 0 289.31 97.87">
  <defs>
    <style>
      .cls-1 {
        fill: #832884;
      }
    </style>
  </defs>
  <path class="cls-1" d="m118.89,28.8c-.23,1.18-.92,2.17-2.08,2.94-1.15.78-2.52,1.17-4.11,1.17-1.29,0-2.3-.31-3.04-.94-.74-.62-1.11-1.46-1.11-2.51s.35-1.87,1.06-2.36c.71-.49,1.8-.74,3.29-.74h5.99v2.43Zm-7.32-7.04c-3.23.03-5.73.77-7.5,2.21-1.76,1.44-2.65,3.44-2.65,6.01s.83,4.58,2.47,6.16c1.65,1.57,3.88,2.36,6.68,2.36,1.84,0,3.48-.31,4.9-.91,1.42-.61,2.57-1.49,3.46-2.64v3.19h7.47l-.05-17.79c-.03-3.07-1.03-5.47-3-7.2-1.96-1.72-4.72-2.59-8.29-2.59-2.21,0-4.24.26-6.09.76-1.85.51-3.83,1.3-5.94,2.39l2.38,5.37c2.8-1.59,5.44-2.38,7.92-2.38,1.81,0,3.19.4,4.13,1.19.94.79,1.41,1.92,1.41,3.37v.51h-7.32Zm34.11,10.47c-.61.35-1.43.53-2.45.53-1.48,0-3.06-.3-4.72-.89-1.67-.59-3.17-1.43-4.53-2.5l-2.47,5.27c1.48,1.22,3.23,2.15,5.24,2.81,2.01.66,4.11.99,6.29.99,3.17,0,5.76-.75,7.79-2.26,2.03-1.5,3.04-3.61,3.04-6.31,0-1.79-.45-3.23-1.34-4.33-.89-1.1-1.95-1.93-3.17-2.48-1.22-.56-2.77-1.12-4.65-1.7-1.72-.51-2.95-.96-3.71-1.37-.76-.41-1.14-.98-1.14-1.72,0-.68.28-1.18.84-1.52.56-.34,1.3-.51,2.23-.51,1.12,0,2.39.23,3.81.68,1.42.46,2.85,1.11,4.31,1.95l2.62-5.32c-1.48-.98-3.13-1.74-4.95-2.26-1.82-.52-3.63-.78-5.44-.78-3.04,0-5.54.74-7.52,2.23-1.98,1.49-2.97,3.58-2.97,6.29,0,1.76.43,3.19,1.29,4.28.86,1.1,1.89,1.92,3.09,2.46,1.2.54,2.71,1.08,4.53,1.62,1.72.51,2.96.98,3.74,1.42.77.44,1.16,1.05,1.16,1.82,0,.71-.31,1.24-.92,1.6m-23.46,41.52c0,2.03-.53,3.69-1.58,4.97-1.06,1.29-2.49,1.94-4.3,1.98-1.55,0-2.77-.49-3.66-1.47-.89-.98-1.34-2.33-1.34-4.05v-14.9h-7.62v17.13c0,3.21.86,5.76,2.6,7.63,1.73,1.88,4.06,2.81,7,2.81,4.12,0,7.09-1.71,8.91-5.12v4.81h7.57v-27.27h-7.57v13.48Zm39.15-2.08c.3-1.82,1-3.27,2.1-4.34,1.1-1.06,2.48-1.6,4.13-1.6,1.75,0,3.15.54,4.21,1.62,1.06,1.08,1.62,2.52,1.68,4.31h-12.12Zm6.18-11.66c-2.67,0-5.05.58-7.12,1.75-2.08,1.17-3.69,2.8-4.85,4.92-1.15,2.11-1.73,4.55-1.73,7.32s.57,5.15,1.71,7.25c1.14,2.1,2.76,3.72,4.85,4.86,2.09,1.15,4.54,1.72,7.35,1.72,2.38,0,4.53-.41,6.46-1.24,1.93-.83,3.57-2.02,4.92-3.57l-4.01-4.16c-.92.95-1.96,1.66-3.12,2.15-1.16.49-2.36.74-3.61.74-1.71,0-3.18-.48-4.4-1.44-1.22-.96-2.05-2.31-2.47-4.03h19.1c.03-.44.05-1.07.05-1.88,0-4.53-1.11-8.06-3.34-10.59s-5.49-3.8-9.78-3.8m-23.93,5.17v-4.92h-7.62v27.27h7.62v-13.13c0-2.16.68-3.9,2.05-5.19,1.37-1.3,3.22-1.95,5.57-1.95.53,0,.92.02,1.19.05v-7.35c-1.98.04-3.71.49-5.2,1.37-1.48.88-2.69,2.16-3.61,3.85m-49.01,16.12c-1.62,0-2.43-1.05-2.43-3.14v-11.25h7.22v-5.42h-7.22v-7.5h-7.57v7.5h-3.71v5.37h3.71v12.62c0,2.7.77,4.78,2.32,6.24,1.55,1.45,3.56,2.18,6.04,2.18,1.22,0,2.43-.16,3.64-.48,1.2-.32,2.3-.79,3.29-1.39l-1.58-5.73c-1.35.68-2.59,1.01-3.71,1.01m-71.32-1.65c-1.6.76-3.17,1.14-4.72,1.14-1.95,0-3.73-.5-5.35-1.5-1.62-1-2.89-2.35-3.81-4.06-.92-1.7-1.39-3.59-1.39-5.65s.46-3.94,1.39-5.62c.92-1.69,2.19-3.03,3.81-4.01,1.62-.98,3.4-1.47,5.35-1.47,1.61,0,3.22.41,4.82,1.24,1.6.83,2.99,1.97,4.18,3.42l4.55-5.73c-1.72-1.82-3.79-3.27-6.23-4.33-2.44-1.06-4.92-1.6-7.42-1.6-3.43,0-6.55.79-9.37,2.38-2.82,1.59-5.04,3.77-6.66,6.54-1.62,2.77-2.43,5.86-2.43,9.28s.79,6.57,2.38,9.38c1.58,2.81,3.76,5.01,6.53,6.61,2.77,1.61,5.85,2.41,9.25,2.41,2.51,0,5.01-.57,7.5-1.72,2.49-1.15,4.66-2.7,6.51-4.66l-4.6-5.12c-1.25,1.28-2.68,2.3-4.28,3.06m31.1-5.91c0,2.03-.53,3.69-1.58,4.97-1.06,1.29-2.49,1.94-4.3,1.98-1.55,0-2.77-.49-3.66-1.47-.89-.98-1.34-2.33-1.34-4.05v-14.9h-7.62v17.13c0,3.21.86,5.76,2.6,7.63,1.73,1.88,4.06,2.81,7,2.81,4.12,0,7.09-1.71,8.91-5.12v4.81h7.57v-27.27h-7.57v13.48Zm14.03,13.79h7.62v-37.61h-7.62v37.61Zm104.06-55.31c-.61.35-1.43.53-2.45.53-1.48,0-3.06-.3-4.73-.89-1.67-.59-3.18-1.43-4.53-2.5l-2.47,5.27c1.48,1.22,3.23,2.15,5.24,2.81,2.01.66,4.11.99,6.29.99,3.17,0,5.76-.75,7.79-2.26,2.03-1.5,3.04-3.61,3.04-6.31,0-1.79-.45-3.23-1.34-4.33-.89-1.1-1.95-1.93-3.17-2.48-1.22-.56-2.77-1.12-4.65-1.7-1.71-.51-2.95-.96-3.71-1.37-.76-.41-1.14-.98-1.14-1.72,0-.68.28-1.18.84-1.52.56-.34,1.3-.51,2.23-.51,1.12,0,2.39.23,3.81.68,1.42.46,2.85,1.11,4.3,1.95l2.62-5.32c-1.48-.98-3.14-1.74-4.95-2.26-1.81-.52-3.63-.78-5.44-.78-3.04,0-5.54.74-7.52,2.23-1.98,1.49-2.97,3.58-2.97,6.29,0,1.76.43,3.19,1.29,4.28.86,1.1,1.89,1.92,3.09,2.46,1.2.54,2.71,1.08,4.53,1.62,1.72.51,2.96.98,3.74,1.42.77.44,1.16,1.05,1.16,1.82,0,.71-.3,1.24-.92,1.6m-94.59-2.36c-1.23-1.39-1.85-3.21-1.85-5.47s.62-4,1.85-5.4c1.24-1.4,2.83-2.1,4.78-2.1s3.53.7,4.75,2.1c1.22,1.4,1.83,3.2,1.83,5.4s-.61,4.05-1.83,5.45c-1.22,1.4-2.81,2.1-4.75,2.1s-3.54-.69-4.78-2.08m13.21,6.84c1.86-1.15,3.31-2.76,4.33-4.84,1.02-2.08,1.53-4.48,1.53-7.22s-.52-5.22-1.56-7.35c-1.04-2.13-2.51-3.78-4.41-4.94-1.9-1.17-4.08-1.75-6.56-1.75-1.78,0-3.39.36-4.82,1.09-1.43.73-2.63,1.78-3.59,3.17v-4.01h-7.62v37.1h7.62v-13.78c.99,1.38,2.2,2.44,3.64,3.17,1.44.73,3.08,1.09,4.93,1.09,2.47,0,4.64-.57,6.51-1.72"/>
  <path class="cls-1" d="m228.57,78.73c-.46-.18-.98.04-1.16.5l-5.56,14.04c-.18.46.04.98.5,1.16.11.04.22.06.33.06.36,0,.69-.21.83-.56l5.56-14.04c.18-.46-.04-.98-.5-1.16m11.8-65.71c-.49,0-.89.4-.89.89v18.44c0,.49.4.89.89.89s.89-.4.89-.89V13.92c0-.49-.4-.89-.89-.89m-1.98,51.61c-.49-.06-.94.29-1,.77l-3.97,31.46c-.06.49.28.94.77,1,.04,0,.08,0,.12,0,.44,0,.83-.33.88-.78l3.98-31.46c.06-.49-.28-.94-.77-1m-4.25.05c-.46-.18-.98.04-1.16.5l-3.82,9.65c-.18.46.04.98.5,1.16.11.04.22.06.33.06.36,0,.69-.22.83-.57l3.82-9.65c.18-.46-.04-.98-.5-1.16m-4.96-.34c-.4-.29-.96-.2-1.25.2l-9.65,13.29c-.29.4-.2.96.2,1.25.16.12.34.17.53.17.28,0,.55-.13.72-.37l9.65-13.29c.29-.4.2-.96-.2-1.25m-13.49,17.05l-4.28,5.89c-.29.4-.2.96.2,1.25.16.12.34.17.52.17.28,0,.55-.13.73-.37l4.28-5.89c.29-.4.2-.96-.2-1.25-.4-.29-.96-.2-1.25.2m-21.28-46.45l7.53,2.45c.09.03.18.04.28.04.38,0,.73-.24.85-.62.15-.47-.1-.97-.57-1.13l-7.53-2.45c-.47-.15-.97.1-1.13.57-.15.47.1.97.57,1.13m13.57,12.85c.47,0,.86-.36.89-.84.03-.49-.34-.92-.84-.95l-15.65-.98c-.49-.03-.92.34-.95.83-.03.49.34.92.84.95l15.65.98s.04,0,.06,0m-5.31,17.9l-6.15,2.89c-.45.21-.64.74-.43,1.19.15.32.47.51.81.51.13,0,.26-.03.38-.08l6.15-2.89c.45-.21.64-.74.43-1.19-.21-.45-.74-.64-1.19-.43m22.82-4.44c-.31-.38-.88-.43-1.26-.12l-18.51,15.31c-.38.31-.43.88-.12,1.26.18.21.43.32.69.32.2,0,.4-.07.57-.21l18.51-15.31c.38-.31.43-.88.12-1.26m25.1,11.05c-.18-.46-.7-.68-1.16-.5-.46.18-.68.7-.5,1.16l4.79,12.09c.14.35.48.56.83.56.11,0,.22-.02.33-.06.46-.18.68-.7.5-1.16l-4.79-12.09Zm34.07-3.52l-6.25-2.94c-.45-.21-.98-.02-1.19.43-.21.45-.02.98.43,1.19l6.26,2.94c.12.06.25.08.38.08.34,0,.66-.19.81-.51.21-.45.02-.98-.43-1.19m-23.88,6.71c-.29-.4-.85-.49-1.25-.2-.4.29-.49.85-.2,1.25l6.67,9.18c.18.24.45.37.72.37.18,0,.37-.06.53-.17.4-.29.49-.85.2-1.25l-6.67-9.18ZM240.37,0c-.49,0-.89.4-.89.9v6.76c0,.49.4.89.89.89s.89-.4.89-.89V.9c0-.49-.4-.9-.89-.9m44.98,56.61l-28.23-5.39c-.48-.09-.95.23-1.05.71-.09.48.23.95.71,1.05l28.23,5.39c.06.01.11.02.17.02.42,0,.8-.3.88-.73.09-.49-.23-.95-.71-1.05m3.01-11.58l-17.8,1.12c-.49.03-.87.46-.83.95.03.47.42.84.89.84.02,0,.04,0,.06,0l17.79-1.12c.49-.03.87-.46.84-.95-.03-.49-.46-.87-.95-.83m-31.84,16.12c-.38-.31-.94-.26-1.26.12-.32.38-.26.94.12,1.26l19.11,15.8c.17.14.37.2.57.2.26,0,.51-.11.69-.32.31-.38.26-.94-.12-1.26l-19.11-15.8Zm-11.66,23.32c-.49.06-.84.51-.78,1l1.15,9.1c.06.45.44.78.89.78.04,0,.08,0,.11,0,.49-.06.84-.51.78-1l-1.15-9.1c-.06-.49-.51-.84-1-.77m-.31-2.48c.49-.06.84-.51.77-1l-1.97-15.58c-.06-.49-.51-.84-1-.77-.49.06-.84.51-.78,1l1.97,15.58c.06.45.44.78.89.78.04,0,.08,0,.11,0m4.39-13.85l-1.17-2.95c-.18-.46-.7-.68-1.16-.5-.46.18-.69.7-.5,1.16l1.17,2.95c.14.35.48.56.83.56.11,0,.22-.02.33-.06.46-.18.68-.7.5-1.16m8.23,20.78c-.18-.46-.7-.68-1.16-.5-.46.18-.68.7-.5,1.16l1.73,4.36c.14.35.48.56.83.56.11,0,.22-.02.33-.06.46-.18.68-.7.5-1.16l-1.73-4.36Zm-55.29-63.35l14.36,9.11c.15.09.31.14.48.14.29,0,.58-.15.76-.42.26-.42.14-.97-.28-1.23l-14.36-9.11c-.42-.26-.97-.14-1.23.27-.26.42-.14.97.28,1.23m67.83-6.96c.24,0,.48-.09.65-.28l4.75-5.05c.34-.36.32-.93-.04-1.26-.36-.34-.93-.32-1.26.04l-4.74,5.05c-.34.36-.32.93.04,1.26.17.16.39.24.61.24m-18.13,45.74c-.4.29-.49.85-.2,1.25l4.77,6.56c.18.24.45.37.72.37.18,0,.37-.06.53-.17.4-.29.49-.85.2-1.25l-4.77-6.56c-.29-.4-.85-.49-1.25-.2m5.12-45.08c.14.08.29.11.43.11.32,0,.62-.17.78-.46l6.4-11.64c.24-.43.08-.98-.35-1.21-.43-.24-.98-.08-1.21.35l-6.4,11.63c-.24.43-.08.98.35,1.21m-.44,12.78c-.36-.34-.92-.32-1.26.04l-1.33,1.41c-.34.36-.32.93.04,1.26.17.16.39.24.61.24.24,0,.48-.09.65-.28l1.33-1.42c.34-.36.32-.92-.04-1.26m1.54-1.64c.17.16.39.24.61.24.24,0,.47-.09.65-.28l8.33-8.87c.34-.36.32-.93-.04-1.26-.36-.34-.93-.32-1.26.04l-8.33,8.87c-.34.36-.32.93.04,1.26m19.39,6.58c.12.38.47.62.85.62.09,0,.18-.01.28-.04l6.26-2.03c.47-.15.72-.66.57-1.13-.15-.47-.66-.73-1.13-.57l-6.26,2.03c-.47.15-.73.66-.57,1.13m-52.79.75l-3.88-2.46c-.42-.26-.97-.14-1.23.27-.26.42-.14.97.28,1.23l3.88,2.46c.15.09.31.14.48.14.3,0,.58-.15.76-.41.26-.42.14-.97-.28-1.23m24.67-4.59c.14.07.28.11.43.11.31,0,.62-.17.78-.46l5.3-9.64c.24-.43.08-.98-.35-1.21-.43-.24-.98-.08-1.21.35l-5.3,9.64c-.24.43-.08.98.35,1.21m7.51,24.4l17.09,8.04c.12.06.25.08.38.08.33,0,.66-.19.81-.51.21-.45.02-.98-.43-1.19l-17.09-8.04c-.44-.21-.98-.02-1.19.43-.21.45-.02.98.43,1.19m.32-10.54c-.49.03-.87.46-.83.95.03.47.42.84.89.84.02,0,.04,0,.06,0l9.78-.61c.49-.03.87-.45.83-.95-.03-.49-.45-.87-.95-.84l-9.78.62Zm17.22-9.03c-.15-.47-.66-.73-1.13-.57l-16.31,5.3c-.47.15-.73.66-.57,1.13.12.38.47.62.85.62.09,0,.19-.01.28-.04l16.31-5.3c.47-.15.73-.66.58-1.13m-18.03,1c.17.27.46.41.75.41.17,0,.33-.04.48-.14l22.68-14.4c.42-.26.54-.82.28-1.23-.26-.42-.82-.54-1.23-.27l-22.68,14.4c-.42.26-.54.82-.28,1.23m-44.15,9.07l11.81.74s.04,0,.06,0c.47,0,.86-.36.89-.84.03-.49-.34-.92-.83-.95l-11.81-.74c-.49-.03-.92.34-.95.84-.03.49.34.92.84.95m12.74,3.89c-.09-.49-.56-.8-1.04-.71l-26.89,5.13c-.48.09-.8.56-.71,1.05.08.43.46.73.88.73.06,0,.11,0,.17-.02l26.89-5.13c.48-.09.8-.56.71-1.05m-8.64,7.47l-9.7,4.57c-.45.21-.64.74-.43,1.19.15.32.48.51.81.51.13,0,.26-.03.38-.08l9.7-4.57c.45-.21.64-.74.43-1.19-.21-.45-.74-.64-1.19-.43m7.76-14.96c.38,0,.73-.24.85-.62.15-.47-.1-.97-.57-1.13l-17.51-5.69c-.47-.15-.97.1-1.13.57-.15.47.1.98.57,1.13l17.51,5.69c.09.03.18.04.28.04m-3.77,14.96c.13,0,.26-.03.38-.08l3.77-1.77c.45-.21.64-.74.43-1.19-.21-.45-.74-.64-1.19-.43l-3.77,1.77c-.45.21-.64.74-.43,1.19.15.33.47.51.81.51m24.38-26.18c.07.02.15.03.22.03.4,0,.76-.27.87-.67l6.77-26.39c.12-.48-.16-.97-.64-1.09-.48-.12-.96.17-1.09.64l-6.78,26.39c-.12.48.17.97.65,1.09m-18.62,1.48c.18.19.41.28.65.28.22,0,.44-.08.61-.24.36-.34.38-.91.04-1.26l-16.29-17.35c-.34-.36-.9-.38-1.26-.04-.36.34-.38.9-.04,1.26l16.3,17.35Zm3.25-6.39c-.43.24-.59.78-.35,1.22l1.78,3.25c.16.3.47.46.78.46.15,0,.29-.03.43-.11.43-.24.59-.78.35-1.21l-1.78-3.25c-.24-.43-.78-.59-1.21-.35m6.21,4.26c.1.4.47.67.86.67.07,0,.15,0,.22-.03.48-.12.77-.61.64-1.09l-7.21-28.09c-.12-.48-.61-.77-1.09-.64s-.77.61-.64,1.09l7.21,28.08Zm-16.72-21.52c.16.3.47.46.78.46.15,0,.29-.04.43-.11.43-.24.59-.78.35-1.22l-2.56-4.66c-.24-.43-.78-.59-1.21-.35-.43.24-.59.78-.35,1.22l2.56,4.66Zm8.07,14.68c.16.3.47.46.78.46.15,0,.29-.04.43-.11.43-.24.59-.78.35-1.21l-6.27-11.39c-.24-.43-.78-.59-1.21-.35-.43.24-.59.78-.35,1.21l6.26,11.39Z"/>
</svg>