<svg viewBox="0 0 16 16" xmlns="http://www.w3.org/2000/svg"><path d="m5.34 3.44c-.34 0-.66.09-.95.26s-.52.4-.69.69-.26.61-.26.95.09.66.26.95.4.52.69.69.61.26.95.26.66-.08.95-.26c.29-.17.52-.4.69-.69s.26-.61.26-.95-.09-.66-.26-.95-.4-.52-.69-.69-.61-.26-.95-.26m0 .75c.32 0 .59.11.8.34.22.23.33.5.33.81s-.11.59-.33.8c-.22.22-.49.33-.8.33s-.59-.11-.8-.33c-.22-.22-.33-.49-.33-.8s.11-.59.33-.81c.22-.23.49-.34.8-.34m0-4.19c-.71 0-1.39.13-2.04.4s-1.23.65-1.74 1.16-.89 1.09-1.16 1.74-.4 1.33-.4 2.04.13 1.39.4 2.04.66 1.23 1.17 1.73l2.29 2.29c.07.09.16.16.26.22l3.97 3.95c.29.29.65.44 1.07.44s.78-.15 1.07-.44l5.34-5.34c.29-.29.44-.65.44-1.07s-.15-.78-.44-1.09l-3.8-3.8-2.63-2.69c-.51-.5-1.09-.89-1.75-1.16-.65-.27-1.33-.41-2.04-.41m0 1.54c.5 0 .98.09 1.44.28s.88.47 1.24.83l2.65 2.69 3.8 3.8-5.34 5.34-4.19-4.19s-.4-.36-1.17-1.12l-1.13-1.15c-.49-.49-.82-1.06-.99-1.71s-.17-1.3 0-1.96c.17-.65.5-1.22.99-1.71.37-.37.78-.64 1.24-.83s.94-.28 1.44-.28" fill="#fff"/></svg>