<?xml version="1.0" encoding="UTF-8"?><svg id="a" xmlns="http://www.w3.org/2000/svg" viewBox="0 0 47.05 47.05"><defs><style>.b{fill:none;stroke:#000;stroke-miterlimit:8.22;stroke-width:.66px;}</style></defs><path d="m36.22,21.91l-14.31,14.32c-.39.39-.86.58-1.43.58s-1.04-.2-1.43-.58l-1.99-1.99c.59-.59.88-1.31.88-2.14s-.3-1.55-.88-2.14c-.59-.59-1.31-.89-2.14-.89s-1.55.3-2.14.89l-1.97-1.99c-.39-.39-.58-.86-.58-1.43s.2-1.04.58-1.43l14.31-14.29c.39-.39.86-.58,1.43-.58s1.04.2,1.43.58l1.97,1.97c-.59.59-.89,1.31-.89,2.14s.3,1.55.89,2.14,1.31.88,2.14.88,1.55-.3,2.14-.88l1.99,1.97c.39.39.58.86.58,1.43s-.2,1.04-.58,1.43m-14.02,10.05l9.75-9.75c.2-.2.3-.44.3-.71s-.1-.51-.3-.71l-5.71-5.71c-.19-.19-.43-.29-.71-.29s-.52.1-.71.29l-9.75,9.75c-.2.2-.3.44-.3.71s.1.51.3.71l5.71,5.71c.19.19.43.29.71.29s.52-.09.71-.29m3.33-15.44l4.99,4.99-9.02,9.02-4.99-4.99,9.02-9.02Z"/><path class="b" d="m46.72,23.52c0,12.81-10.39,23.2-23.2,23.2S.33,36.34.33,23.52,10.71.33,23.52.33s23.2,10.39,23.2,23.2Z"/></svg>