<?xml version="1.0" encoding="UTF-8"?>
<svg id="Calque_1" data-name="Calque 1" xmlns="http://www.w3.org/2000/svg" viewBox="0 0 234.68 187.88">
  <defs>
    <style>
      .cls-1 {
        fill: #1d1e1c;
      }
    </style>
  </defs>
  <path class="cls-1" d="m182.15,76.99c-8.35,0-15.13,6.85-15.13,15.28s6.78,15.27,15.13,15.27,15.12-6.85,15.12-15.27-6.79-15.28-15.12-15.28m9.21,13.76l-1.3,1.31-1.3-1.31-1.29,1.31-1.31-1.31,1.31-1.32-1.31-1.31,1.31-1.31,1.29,1.31,1.3-1.31,1.3,1.31-1.3,1.31,1.3,1.32Zm-9.21,14.19c-6.92,0-12.55-5.69-12.55-12.67s5.63-12.66,12.55-12.66v25.33Z"/>
  <path class="cls-1" d="m176.49,91.3c.92,0,1.66-.75,1.66-1.68s-.74-1.68-1.66-1.68-1.66.75-1.66,1.68.74,1.68,1.66,1.68"/>
  <polygon class="cls-1" points="195.92 39.76 195.92 34.77 179.93 34.77 179.93 34.81 179.67 34.81 179.67 65.44 179.7 65.44 179.7 65.46 195.69 65.46 195.69 60.46 184.49 60.46 184.49 51.65 193.45 51.65 193.45 46.63 184.49 46.63 184.49 39.76 195.92 39.76"/>
  <path class="cls-1" d="m71.61,34.76l-.02.05-.02-.05-.24.67-12.84,30.09h5.28l2.06-5.04h11.53l2.06,5.04h5.28l-12.84-30.09-.24-.67Zm-3.82,20.89l3.8-9.3,3.79,9.3h-7.59Z"/>
  <polygon class="cls-1" points="165.69 53.1 148.92 34.75 148.92 34.83 148.91 34.81 148.91 38.85 148.9 41.78 148.91 41.79 148.91 65.34 153.73 65.34 153.73 47.12 166.31 61.02 166.32 61.01 170.52 65.51 170.52 34.81 165.69 34.81 165.69 53.1"/>
  <path class="cls-1" d="m139.96,53.94h0v-19.2h-4.82v19h0v.2h0c0,1.13-.32,6.78-5.83,6.78l-.52-.02c-5.55,0-5.82-5.7-5.82-6.78h0v-.1s0-.07,0-.07h0v-19h-4.82v19.04h0v1.99s-.33,9.73,10.63,9.73h.57c10.96,0,10.62-9.73,10.62-9.73v-1.83Z"/>
  <polygon class="cls-1" points="41.78 51.76 40.7 50.15 41.78 48.36 41.78 34.72 36.9 34.72 36.9 48.36 35.82 50.15 36.9 51.76 36.9 65.51 37.71 65.51 37.71 65.51 56.21 65.51 56.21 60.69 41.78 60.69 41.78 51.76"/>
  <polygon class="cls-1" points="99.08 51.76 98.01 50.15 99.08 48.36 99.08 34.72 94.2 34.72 94.2 48.36 93.13 50.15 94.2 51.76 94.2 65.51 95.02 65.51 95.02 65.51 113.52 65.51 113.52 60.69 99.08 60.69 99.08 51.76"/>
  <path class="cls-1" d="m45.53,78.06h-8.4v13.51l-1.09,1.77,1.09,1.6v13.61h8.82s14.7.15,14.7-15.43-15.12-15.06-15.12-15.06m0,25.84h-3.46v-8.96l-1.08-1.6,1.08-1.77v-8.71h3.32s10.16,1.33,10.16,10.31-10.02,10.73-10.02,10.73"/>
  <path class="cls-1" d="m100.93,90.84c-2.64-1.12-6-2.33-6-4.76s1.28-3.39,3.28-3.63c2-.24,5.2,1.94,5.2,1.94l2.64-3.55s-1.92-2.5-7.36-2.74c-5.44-.24-7.99,4.03-8.4,7.58-.4,3.55,1.28,4.68,3.68,6.7,2.4,2.02,9.76,3.95,9.68,7.26-.08,3.31-2.32,4.28-5.12,4.28s-6.96-3.71-6.96-3.71l-3.36,3.39c1.92,1.93,5.6,5,10.4,5s9.92-3.23,9.92-8.88-4.96-7.75-7.6-8.88"/>
  <polygon class="cls-1" points="66.37 78 66.11 78 66.11 108.62 66.14 108.62 66.14 108.64 82.12 108.64 82.12 103.65 70.93 103.65 70.93 94.9 80.01 94.9 80.01 89.82 70.93 89.82 70.93 82.95 82.35 82.95 82.35 77.96 66.37 77.96 66.37 78"/>
  <polygon class="cls-1" points="62.61 135.35 61.47 137.24 62.61 138.95 62.61 153.14 67.76 153.14 67.76 138.95 66.63 137.24 67.76 135.35 67.76 121.26 62.61 121.26 62.61 135.35"/>
  <path class="cls-1" d="m117.13,120.24l-.02.06-.03-.06-.26.72-13.73,32.17h5.65l2.04-4.99h12.66l2.04,4.99h5.65l-13.73-32.17-.26-.72Zm-4.28,22.81l4.25-10.42,4.25,10.42h-8.5Z"/>
  <path class="cls-1" d="m47.25,121.35l-1.88-.06h0s-.21,0-.21,0h-.24s0,0,0,0h-8.19v.04h-.05v31.8h5.16v-8.46h3.23s2.18.01,2.18.01c0,0,10.41.36,10.41-11.36v-.61c0-11.72-10.41-11.36-10.41-11.36m5.26,11.95c0,5.77-5.75,6.2-7.14,6.22h0s-3.53-.01-3.53-.01v-13.07h3.53c1.64.07,7.16.72,7.16,6.3l-.03.56Z"/>
  <path class="cls-1" d="m86.63,121.3l-2.3-.03h0s-8.39,0-8.39,0v.05h-.02v31.81h5.16v-9.43l7.93,9.45,7.25.03-8.08-9.71c2.92-.53,8.82-2.62,8.82-10.82v-.57c0-10.9-10.36-10.78-10.36-10.78m5.21,11.33c0,5.37-5.76,5.87-7.14,5.91h0s-3.62-.01-3.62-.01v-12.1h3.25v.02s7.54-.43,7.54,5.67l-.02.52Z"/>
  <path class="cls-1" d="m189.66,134.61c-2.68-1.18-6.07-2.44-6.07-4.97s1.29-3.54,3.32-3.79c2.03-.25,5.27,2.02,5.27,2.02l2.67-3.71s-1.94-2.61-7.45-2.86c-5.51-.25-8.1,4.21-8.51,7.92-.4,3.71,1.3,4.88,3.73,6.99,2.43,2.1,9.88,4.13,9.8,7.57-.08,3.46-2.35,4.47-5.19,4.47s-7.04-3.87-7.04-3.87l-3.4,3.53c1.94,2.02,5.67,5.22,10.53,5.22s10.04-3.37,10.04-9.26-5.02-8.09-7.69-9.26"/>
  <polygon class="cls-1" points="155.94 121.17 155.65 121.17 155.65 153.16 155.69 153.16 155.69 153.18 172.39 153.18 172.39 147.96 160.69 147.96 160.69 138.82 170.44 138.82 170.44 133.52 160.69 133.52 160.69 126.35 172.63 126.35 172.63 121.13 155.94 121.13 155.94 121.17"/>
  <polygon class="cls-1" points="142.86 121.24 137.7 121.24 137.7 121.27 130.03 121.27 130.03 126.43 137.7 126.43 137.7 135.35 136.57 137.2 137.7 138.87 137.7 153.09 142.86 153.09 142.86 138.87 141.73 137.2 142.86 135.35 142.86 126.43 150.75 126.43 150.75 121.27 142.86 121.27 142.86 121.24"/>
  <polygon class="cls-1" points="10.71 24.74 8.78 27.64 10.71 30.86 10.71 55.4 1.93 55.4 1.93 30.86 0 27.64 1.93 24.74 1.93 0 3.4 0 3.4 0 56.53 0 56.53 8.68 10.71 8.68 10.71 24.74"/>
  <polygon class="cls-1" points="223.97 163.15 225.9 160.24 223.97 157.02 223.97 132.49 232.75 132.49 232.75 157.02 234.68 160.24 232.75 163.15 232.75 187.88 231.29 187.88 231.29 187.88 178.15 187.88 178.15 179.21 223.97 179.21 223.97 163.15"/>
</svg>