<?xml version="1.0" encoding="UTF-8"?>
<svg id="Calque_1" data-name="Calque 1" xmlns="http://www.w3.org/2000/svg" viewBox="0 0 62.03 76.44">
  <defs>
    <style>
      .cls-1 {
        fill: #fff;
      }
    </style>
  </defs>
  <path d="m2.26,39.57c-1.5-3.55-2.26-7.24-2.26-11.08s.75-7.53,2.26-11.08c1.37-3.36,3.4-6.39,6.08-9.11,2.61-2.6,5.63-4.62,9.07-6.04,3.49-1.5,7.19-2.26,11.08-2.26s7.68.75,11.12,2.26c3.41,1.42,6.43,3.44,9.07,6.04,2.69,2.69,4.73,5.72,6.12,9.11,1.5,3.55,2.26,7.24,2.26,11.08s-.75,7.54-2.26,11.08c-.97,2.18-1.96,3.98-2.98,5.4l-18.86,28.65c-1.24,1.88-2.71,2.82-4.43,2.82s-3.21-.94-4.47-2.82L5.24,44.97c-1.24-1.72-2.23-3.52-2.98-5.4"/>
  <path class="cls-1" d="m58.98,55.81s.03-.69.08-2.07c.05-1.38-.2-2.35-.76-2.92,0,0-.67-.82-2.02-2.47-1.35-1.65-2.82-3.44-4.41-5.38-1.59-1.94-3.05-3.73-4.39-5.36-1.33-1.63-1.99-2.44-1.99-2.44l-9.51,9.51,15.6,12.92c.49.59,1.45.84,2.89.73s2.15-.16,2.15-.16l3.2,2.89,2.21-2.21-3.05-3.05Zm-19.33-36.4c-1.23-1.19-2.69-2.16-4.39-2.92-1.7-.75-3.49-1.13-5.38-1.13s-3.66.36-5.3,1.08c-1.65.72-3.09,1.7-4.33,2.94-1.24,1.24-2.22,2.7-2.94,4.36-.72,1.66-1.08,3.44-1.08,5.33s.38,3.59,1.13,5.3c.75,1.72,1.72,3.19,2.92,4.41,0,0,1.01-1,3.02-2.99,2.01-2,4.23-4.2,6.64-6.62,2.42-2.42,4.63-4.63,6.64-6.64,2.01-2.01,3.04-3.05,3.07-3.12m3.26,13.6c.52-1.75.67-3.55.45-5.41-.23-1.86-.81-3.59-1.76-5.2,0,0-.95.96-2.84,2.89-1.89,1.93-3.99,4.04-6.3,6.35s-4.43,4.42-6.36,6.33c-1.93,1.91-2.91,2.85-2.94,2.81,1.61.95,3.34,1.54,5.17,1.79,1.84.24,3.63.14,5.38-.32,0-.03.47-.53,1.42-1.5.95-.96,2-2.02,3.15-3.18,1.16-1.16,2.21-2.21,3.18-3.15.96-.95,1.44-1.42,1.44-1.42"/>
</svg>