<?xml version="1.0" encoding="UTF-8"?><svg id="a" xmlns="http://www.w3.org/2000/svg" viewBox="0 0 62.03 76.44"><path d="m60.09,31.15c-.14-.32-.32-.62-.55-.89L33.13.89c-.55-.6-1.28-.89-2.2-.89s-1.65.3-2.2.89L2.32,30.26c-.23.28-.41.57-.55.89-.14.32-.21.69-.21,1.1,0,.78.29,1.46.86,2.03.57.57,1.27.86,2.1.86h5.85v20.56c0,.82.29,1.52.86,2.1.57.57,1.27.86,2.1.86h35.21c.83,0,1.52-.29,2.1-.86s.86-1.27.86-2.1v-20.56h5.85c.6,0,1.14-.16,1.62-.48.48-.32.84-.73,1.07-1.24.09-.18.16-.38.21-.58.05-.21.07-.4.07-.58,0-.41-.07-.78-.21-1.1m-20.85,10.76l-4.21,4.25-4.19-4.25-4.17,4.25-4.22-4.25,4.22-4.25-4.22-4.23,4.22-4.24,4.17,4.24,4.19-4.24,4.21,4.24-4.21,4.23,4.21,4.25Z"/></svg>