<?xml version="1.0" encoding="UTF-8"?>
<svg id="Calque_1" data-name="Calque 1" xmlns="http://www.w3.org/2000/svg" viewBox="0 0 300 120">
  <defs>
    <style>
      .cls-1 {
        fill: none;
        stroke: #000;
        stroke-miterlimit: 10;
        stroke-width: 3px;
      }

      .cls-2 {
        stroke-width: 0px;
      }
    </style>
  </defs>
  <g>
    <path class="cls-2" d="m161.07,33.21h2.27v17.62h-2.27v-17.62Zm1.27,17.62v-1.98h6.93v1.98h-6.93Zm.25-17.62h6.43v1.98h-6.43v-1.98Zm.12,9.85v-2.02h5.05v2.02h-5.05Zm2.6-11.15h-1.9l1.62-3.33h2.32l-2.05,3.33Z"/>
    <path class="cls-2" d="m170.65,42.69c0-.93.2-1.77.61-2.5s.96-1.31,1.65-1.74c.69-.42,1.48-.64,2.36-.64v1.98c-.73,0-1.31.25-1.73.75s-.62,1.22-.62,2.15h-2.27Zm0,3.7v-3.72h2.27v3.72h-2.27Zm0-.02h2.27c0,.92.21,1.63.62,2.14s.99.76,1.73.76v1.98c-.88,0-1.67-.21-2.36-.64-.69-.43-1.24-1-1.65-1.74-.41-.73-.61-1.57-.61-2.5Zm6.95-4.4c-.08-.75-.35-1.3-.79-1.65-.44-.35-.96-.52-1.56-.52v-1.98c.78,0,1.49.16,2.12.48.63.32,1.16.75,1.57,1.31s.68,1.2.78,1.94l-2.12.42Zm0,5.12l2.12.42c-.1.72-.36,1.36-.78,1.93-.42.57-.94,1.01-1.57,1.32-.63.32-1.34.48-2.12.48v-1.98c.6,0,1.12-.18,1.56-.54.44-.36.7-.9.79-1.64Z"/>
    <path class="cls-2" d="m181.12,42.71c0-.93.2-1.77.61-2.5s.96-1.31,1.65-1.74c.69-.43,1.48-.64,2.36-.64v1.98c-.73,0-1.31.25-1.73.75s-.62,1.22-.62,2.15h-2.27Zm0,3.65v-3.67h2.27v3.67h-2.27Zm0-.02h2.27c0,.92.21,1.63.62,2.14s.99.76,1.73.76v1.98c-.88,0-1.67-.21-2.36-.64-.69-.42-1.24-1-1.65-1.74s-.61-1.57-.61-2.5Zm4.58-6.52v-1.98h.15v1.98h-.15Zm0,11.4v-1.98h.15v1.98h-.15Zm4.72-8.5h-2.27c0-.93-.2-1.65-.61-2.15-.41-.5-.99-.75-1.74-.75v-1.98c.88,0,1.67.21,2.36.64.69.42,1.24,1,1.65,1.74.41.73.61,1.57.61,2.5Zm0,3.62c0,.93-.2,1.77-.61,2.5-.41.73-.96,1.31-1.65,1.74-.69.43-1.48.64-2.36.64v-1.98c.75,0,1.33-.25,1.74-.76.41-.51.61-1.22.61-2.14h2.27Zm-2.27.02v-3.67h2.27v3.67h-2.27Z"/>
    <path class="cls-2" d="m194.65,38.21v8.6h-2.27v-8.6h2.27Zm0,8.6c0,.7.22,1.27.66,1.71.44.44,1,.66,1.69.66l-.58,2.02c-.78,0-1.48-.19-2.09-.58-.61-.38-1.09-.91-1.44-1.57s-.52-1.42-.52-2.25h2.27Zm5.75-.08c0,.85-.17,1.61-.51,2.29-.34.67-.82,1.21-1.43,1.6-.61.39-1.29.59-2.04.59l.58-2.02c.7,0,1.27-.23,1.73-.68s.67-1.04.67-1.77h1Zm1.27-8.52v12.62h-2.27v-12.62h2.27Z"/>
    <path class="cls-2" d="m204.05,40.09v-1.88h6.88v1.88h-6.88Zm1.45,6.92v-13.82l2.27.02v13.8h-2.27Zm0-.02h2.27c0,.48.07.89.2,1.23.13.33.33.59.58.76.25.17.55.26.9.26l-.2,1.98c-1.17,0-2.08-.37-2.75-1.11-.67-.74-1-1.78-1-3.11Zm5.12,1.83l.9,1.62c-.33.25-.7.44-1.09.57-.39.13-.79.2-1.19.2l.2-1.98c.22,0,.42-.04.61-.11.19-.08.38-.18.56-.31Z"/>
    <path class="cls-2" d="m212.4,42.71c0-.95.2-1.79.61-2.51.41-.72.96-1.3,1.65-1.72.69-.43,1.48-.64,2.36-.64v1.95c-.73,0-1.31.25-1.73.76-.42.51-.62,1.23-.62,2.16h-2.27Zm0,3.65v-3.67h2.27v3.67h-2.27Zm0,0h2.27c0,.92.21,1.63.62,2.14s.99.76,1.73.76v1.98c-.88,0-1.67-.21-2.36-.64-.69-.43-1.24-1-1.65-1.74-.41-.73-.61-1.57-.61-2.5Zm.73-1.15v-1.62h8.52v1.62h-8.52Zm8.52-2.92h-2.27c0-.73-.22-1.33-.66-1.8-.44-.47-1.01-.7-1.71-.7v-1.95c.9,0,1.7.19,2.39.58s1.24.91,1.65,1.59c.41.67.61,1.44.61,2.29Zm-4.65,8.95v-1.98h.12v1.98h-.12Zm2.48-4.15l2.12.42c-.1.72-.36,1.36-.78,1.93-.42.57-.94,1.01-1.57,1.32-.63.32-1.34.48-2.12.48v-1.98c.6,0,1.12-.18,1.56-.54.44-.36.7-.9.79-1.64Zm-.1-3.5v-1.3h2.27v1.3h-2.27Z"/>
    <path class="cls-2" d="m223.97,50.84v-12.62h2.27v12.62h-2.27Zm1.25-8.45c0-.85.14-1.61.42-2.29.28-.68.67-1.2,1.16-1.59.49-.38,1.04-.57,1.64-.57l-.2,2.12c-.58,0-1.06.22-1.44.66s-.56,1-.56,1.66h-1.02Zm4.52-1.75c-.2-.17-.44-.3-.71-.41s-.54-.16-.79-.16l.2-2.12c.38,0,.76.07,1.12.21.37.14.68.34.95.59l-.77,1.9Z"/>
    <path class="cls-2" d="m112.79,80.84v-18h2.27v18h-2.27Z"/>
    <path class="cls-2" d="m117.89,77.21c0-.78.2-1.47.59-2.06.39-.59.92-1.06,1.59-1.41s1.43-.52,2.28-.52l.12,1.75c-.7,0-1.28.2-1.74.61-.46.41-.69.93-.69,1.56l-2.15.08Zm4.08,4c-.75,0-1.43-.17-2.05-.52s-1.11-.83-1.48-1.44-.55-1.29-.55-2.04l2.15-.08c0,.63.21,1.16.64,1.58.42.42.91.62,1.46.62l-.17,1.88Zm-1.68-9.23l-2.1-.42c.1-.75.35-1.4.76-1.95.41-.55.93-.98,1.58-1.3.64-.32,1.35-.48,2.14-.48v1.95c-.62,0-1.15.18-1.59.54-.44.36-.7.91-.79,1.66Zm1.68,9.23l.17-1.88c.6,0,1.11-.15,1.54-.45.42-.3.75-.74.99-1.32s.35-1.27.35-2.08l1.12-.05c0,1.13-.18,2.13-.55,3-.37.87-.86,1.55-1.49,2.04-.62.49-1.34.74-2.14.74Zm.5-6.25l-.12-1.75h3.85v1.75h-3.72Zm4.82-2.67h-2.27c0-.73-.22-1.33-.66-1.8-.44-.47-1.01-.7-1.71-.7v-1.95c.9,0,1.7.19,2.39.58.69.38,1.24.91,1.65,1.59.41.67.61,1.44.61,2.29Zm-2.27,8.55v-8.6h2.27v8.6h-2.27Zm0-5.35v-3.23h1.12v3.18l-1.12.05Z"/>
    <path class="cls-2" d="m136.89,68.21v12.62h-2.27v-12.62h2.27Zm-2.27,12.6h2.27v5.02h-2.27v-5.02Zm1.27-8.52c0-.85.18-1.61.52-2.29.35-.68.83-1.2,1.43-1.59s1.28-.58,2.05-.58l-.57,2.02c-.72,0-1.3.23-1.75.68-.45.45-.68,1.03-.68,1.75h-1Zm0,4.45h1c0,.73.23,1.33.68,1.77.45.45,1.03.68,1.75.68l.57,2.02c-.77,0-1.45-.2-2.05-.59-.6-.39-1.08-.93-1.43-1.6-.35-.67-.52-1.44-.52-2.29Zm5.75-4.5c0-.7-.22-1.27-.65-1.71-.43-.44-.99-.66-1.67-.66l.57-2.02c.77,0,1.45.19,2.06.58s1.09.91,1.44,1.57c.35.67.52,1.42.52,2.25h-2.27Zm0,4.58h2.27c0,.83-.17,1.58-.52,2.25s-.83,1.19-1.44,1.57c-.61.38-1.3.58-2.06.58l-.57-2.02c.68,0,1.24-.22,1.67-.66.43-.44.65-1.01.65-1.71Zm2.27-4.58v4.58h-2.27v-4.58h2.27Z"/>
    <path class="cls-2" d="m146.49,80.84v-12.62h2.27v12.62h-2.27Zm1.25-8.45c0-.85.14-1.61.42-2.29.28-.68.67-1.2,1.16-1.59.49-.38,1.04-.57,1.64-.57l-.2,2.12c-.58,0-1.06.22-1.44.66s-.56,1-.56,1.66h-1.02Zm4.52-1.75c-.2-.17-.44-.3-.71-.41s-.54-.16-.79-.16l.2-2.12c.38,0,.76.07,1.12.21.37.14.68.34.95.59l-.77,1.9Z"/>
    <path class="cls-2" d="m153.49,72.71c0-.93.2-1.77.61-2.5s.96-1.31,1.65-1.74c.69-.43,1.48-.64,2.36-.64v1.98c-.73,0-1.31.25-1.73.75s-.62,1.22-.62,2.15h-2.27Zm0,3.65v-3.67h2.27v3.67h-2.27Zm0-.02h2.27c0,.92.21,1.63.62,2.14s.99.76,1.73.76v1.98c-.88,0-1.67-.21-2.36-.64-.69-.42-1.24-1-1.65-1.74s-.61-1.57-.61-2.5Zm4.58-6.52v-1.98h.15v1.98h-.15Zm0,11.4v-1.98h.15v1.98h-.15Zm4.72-8.5h-2.27c0-.93-.2-1.65-.61-2.15-.41-.5-.99-.75-1.74-.75v-1.98c.88,0,1.67.21,2.36.64.69.42,1.24,1,1.65,1.74.41.73.61,1.57.61,2.5Zm0,3.62c0,.93-.2,1.77-.61,2.5-.41.73-.96,1.31-1.65,1.74-.69.43-1.48.64-2.36.64v-1.98c.75,0,1.33-.25,1.74-.76.41-.51.61-1.22.61-2.14h2.27Zm-2.27.02v-3.67h2.27v3.67h-2.27Z"/>
    <path class="cls-2" d="m167.01,72.24h-2.27c0-.83.17-1.58.52-2.25.35-.67.83-1.19,1.44-1.57s1.3-.58,2.09-.58l.58,2.02c-.68,0-1.25.22-1.69.66s-.66,1.01-.66,1.71Zm-2.27,4.25v-4.25h2.27v4.25h-2.27Zm2.27,0c0,.7.22,1.27.66,1.71.44.44,1,.66,1.69.66l-.58,2.02c-.78,0-1.48-.19-2.09-.57s-1.09-.91-1.44-1.58c-.35-.67-.52-1.42-.52-2.25h2.27Zm.02,5.05c.08.73.35,1.28.8,1.64.45.36.98.54,1.57.54v1.98c-.77,0-1.47-.16-2.12-.48-.65-.32-1.18-.76-1.59-1.33-.41-.57-.66-1.21-.76-1.92l2.1-.42Zm5.73-9.25h-1c0-.72-.23-1.3-.67-1.75s-1.02-.68-1.73-.68l-.58-2.02c.75,0,1.43.19,2.04.58s1.08.91,1.43,1.59c.34.67.51,1.44.51,2.29Zm0,4.12c0,.85-.17,1.61-.51,2.29-.34.68-.82,1.21-1.43,1.6-.61.39-1.29.59-2.04.59l.58-2.02c.7,0,1.27-.23,1.73-.67.45-.45.67-1.04.67-1.77h1Zm1.27,4.8c0,.85-.2,1.61-.6,2.29-.4.67-.95,1.21-1.65,1.6-.7.39-1.49.59-2.38.59v-1.98c.68,0,1.25-.24,1.69-.71s.66-1.07.66-1.79h2.27Zm-2.27.08v-13.08h2.27v13.08h-2.27Z"/>
    <path class="cls-2" d="m176.99,80.84v-12.62h2.27v12.62h-2.27Zm1.25-8.45c0-.85.14-1.61.42-2.29.28-.68.67-1.2,1.16-1.59.49-.38,1.04-.57,1.64-.57l-.2,2.12c-.58,0-1.06.22-1.44.66s-.56,1-.56,1.66h-1.02Zm4.52-1.75c-.2-.17-.44-.3-.71-.41s-.54-.16-.79-.16l.2-2.12c.38,0,.76.07,1.12.21.37.14.68.34.95.59l-.77,1.9Z"/>
    <path class="cls-2" d="m184.24,77.21c0-.78.2-1.47.59-2.06.39-.59.92-1.06,1.59-1.41s1.43-.52,2.28-.52l.12,1.75c-.7,0-1.28.2-1.74.61-.46.41-.69.93-.69,1.56l-2.15.08Zm4.08,4c-.75,0-1.43-.17-2.05-.52s-1.11-.83-1.48-1.44-.55-1.29-.55-2.04l2.15-.08c0,.63.21,1.16.64,1.58.42.42.91.62,1.46.62l-.17,1.88Zm-1.68-9.23l-2.1-.42c.1-.75.35-1.4.76-1.95.41-.55.93-.98,1.58-1.3.64-.32,1.35-.48,2.14-.48v1.95c-.62,0-1.15.18-1.59.54-.44.36-.7.91-.79,1.66Zm1.68,9.23l.17-1.88c.6,0,1.11-.15,1.54-.45.42-.3.75-.74.99-1.32s.35-1.27.35-2.08l1.12-.05c0,1.13-.18,2.13-.55,3-.37.87-.86,1.55-1.49,2.04-.62.49-1.34.74-2.14.74Zm.5-6.25l-.12-1.75h3.85v1.75h-3.72Zm4.82-2.67h-2.27c0-.73-.22-1.33-.66-1.8-.44-.47-1.01-.7-1.71-.7v-1.95c.9,0,1.7.19,2.39.58.69.38,1.24.91,1.65,1.59.41.67.61,1.44.61,2.29Zm-2.27,8.55v-8.6h2.27v8.6h-2.27Zm0-5.35v-3.23h1.12v3.18l-1.12.05Z"/>
    <path class="cls-2" d="m196.21,80.84v-12.62h2.27v12.62h-2.27Zm1.25-8.55c0-.85.16-1.61.49-2.29.33-.68.77-1.2,1.34-1.59.57-.38,1.2-.58,1.9-.58l-.58,2.02c-.6,0-1.1.23-1.51.68-.41.45-.61,1.03-.61,1.75h-1.02Zm5.27-.05c0-.7-.2-1.27-.6-1.71-.4-.44-.91-.66-1.52-.66l.58-2.02c.73,0,1.39.19,1.96.58s1.03.9,1.36,1.56.5,1.41.5,2.26h-2.27Zm0,8.6v-8.6h2.27v8.6h-2.27Zm1.25-8.55c0-.85.16-1.61.49-2.29.32-.68.77-1.2,1.32-1.59.56-.38,1.19-.58,1.89-.58l-.58,2.02c-.6,0-1.1.23-1.5.68-.4.45-.6,1.03-.6,1.75h-1.02Zm5.25-.05c0-.7-.2-1.27-.59-1.71-.39-.44-.9-.66-1.54-.66l.58-2.02c.73,0,1.39.19,1.96.58s1.03.9,1.36,1.56.5,1.41.5,2.26h-2.27Zm0,8.6v-8.6h2.27v8.6h-2.27Z"/>
    <path class="cls-2" d="m214.09,80.84v-12.62h2.27v12.62h-2.27Zm1.25-8.55c0-.85.16-1.61.49-2.29.33-.68.77-1.2,1.34-1.59.57-.38,1.2-.58,1.9-.58l-.58,2.02c-.6,0-1.1.23-1.51.68-.41.45-.61,1.03-.61,1.75h-1.02Zm5.27-.05c0-.7-.2-1.27-.6-1.71-.4-.44-.91-.66-1.52-.66l.58-2.02c.73,0,1.39.19,1.96.58s1.03.9,1.36,1.56.5,1.41.5,2.26h-2.27Zm0,8.6v-8.6h2.27v8.6h-2.27Zm1.25-8.55c0-.85.16-1.61.49-2.29.32-.68.77-1.2,1.32-1.59.56-.38,1.19-.58,1.89-.58l-.58,2.02c-.6,0-1.1.23-1.5.68-.4.45-.6,1.03-.6,1.75h-1.02Zm5.25-.05c0-.7-.2-1.27-.59-1.71-.39-.44-.9-.66-1.54-.66l.58-2.02c.73,0,1.39.19,1.96.58s1.03.9,1.36,1.56.5,1.41.5,2.26h-2.27Zm0,8.6v-8.6h2.27v8.6h-2.27Z"/>
    <path class="cls-2" d="m231.59,77.21c0-.78.2-1.47.59-2.06.39-.59.92-1.06,1.59-1.41s1.43-.52,2.28-.52l.12,1.75c-.7,0-1.28.2-1.74.61-.46.41-.69.93-.69,1.56l-2.15.08Zm4.08,4c-.75,0-1.43-.17-2.05-.52s-1.11-.83-1.48-1.44-.55-1.29-.55-2.04l2.15-.08c0,.63.21,1.16.64,1.58.42.42.91.62,1.46.62l-.17,1.88Zm-1.68-9.23l-2.1-.42c.1-.75.35-1.4.76-1.95.41-.55.93-.98,1.58-1.3.64-.32,1.35-.48,2.14-.48v1.95c-.62,0-1.15.18-1.59.54-.44.36-.7.91-.79,1.66Zm1.68,9.23l.17-1.88c.6,0,1.11-.15,1.54-.45.42-.3.75-.74.99-1.32s.35-1.27.35-2.08l1.12-.05c0,1.13-.18,2.13-.55,3-.37.87-.86,1.55-1.49,2.04-.62.49-1.34.74-2.14.74Zm.5-6.25l-.12-1.75h3.85v1.75h-3.72Zm4.82-2.67h-2.27c0-.73-.22-1.33-.66-1.8-.44-.47-1.01-.7-1.71-.7v-1.95c.9,0,1.7.19,2.39.58.69.38,1.24.91,1.65,1.59.41.67.61,1.44.61,2.29Zm-2.27,8.55v-8.6h2.27v8.6h-2.27Zm0-5.35v-3.23h1.12v3.18l-1.12.05Z"/>
    <path class="cls-2" d="m242.94,70.09v-1.88h6.88v1.88h-6.88Zm1.45,6.92v-13.82l2.27.02v13.8h-2.27Zm0-.02h2.27c0,.48.07.89.2,1.23.13.33.33.59.58.76.25.17.55.26.9.26l-.2,1.98c-1.17,0-2.08-.37-2.75-1.11-.67-.74-1-1.78-1-3.11Zm5.12,1.83l.9,1.62c-.33.25-.7.44-1.09.57-.39.13-.79.2-1.19.2l.2-1.98c.22,0,.42-.04.61-.11.19-.08.38-.18.56-.31Z"/>
    <path class="cls-2" d="m253.66,66.54c-.42,0-.77-.14-1.05-.43-.28-.28-.43-.63-.43-1.05s.14-.77.43-1.06c.28-.29.63-.44,1.05-.44s.77.15,1.06.44c.29.29.44.65.44,1.06s-.15.77-.44,1.05c-.29.28-.65.43-1.06.43Zm-1.12,14.3v-12.62h2.27v12.62h-2.27Z"/>
    <path class="cls-2" d="m257.39,72.71c0-.93.2-1.77.61-2.5s.96-1.31,1.65-1.74c.69-.43,1.48-.64,2.36-.64v1.98c-.73,0-1.31.25-1.73.75s-.62,1.22-.62,2.15h-2.27Zm0,3.65v-3.67h2.27v3.67h-2.27Zm0-.02h2.27c0,.92.21,1.63.62,2.14s.99.76,1.73.76v1.98c-.88,0-1.67-.21-2.36-.64-.69-.42-1.24-1-1.65-1.74s-.61-1.57-.61-2.5Zm4.58-6.52v-1.98h.15v1.98h-.15Zm0,11.4v-1.98h.15v1.98h-.15Zm4.72-8.5h-2.27c0-.93-.2-1.65-.61-2.15-.41-.5-.99-.75-1.74-.75v-1.98c.88,0,1.67.21,2.36.64.69.42,1.24,1,1.65,1.74.41.73.61,1.57.61,2.5Zm0,3.62c0,.93-.2,1.77-.61,2.5-.41.73-.96,1.31-1.65,1.74-.69.43-1.48.64-2.36.64v-1.98c.75,0,1.33-.25,1.74-.76.41-.51.61-1.22.61-2.14h2.27Zm-2.27.02v-3.67h2.27v3.67h-2.27Z"/>
    <path class="cls-2" d="m269.01,80.84v-12.62h2.27v12.62h-2.27Zm1.27-8.55c0-.85.18-1.61.52-2.29.35-.68.83-1.2,1.43-1.59s1.28-.58,2.05-.58l-.57,2.02c-.72,0-1.3.23-1.75.68-.45.45-.68,1.03-.68,1.75h-1Zm5.75-.05c0-.7-.22-1.27-.65-1.71-.43-.44-.99-.66-1.67-.66l.57-2.02c.77,0,1.45.19,2.06.58s1.09.91,1.44,1.57c.35.67.52,1.42.52,2.25h-2.27Zm0,8.6v-8.6h2.27v8.6h-2.27Z"/>
  </g>
  <rect class="cls-1" x=".43" y=".44" width="299.15" height="119.13"/>
  <path class="cls-2" d="m53.1,97.9c-20.77,0-37.67-16.9-37.67-37.67S32.33,22.57,53.1,22.57s37.67,16.9,37.67,37.67-16.9,37.67-37.67,37.67Zm0-72.33c-19.12,0-34.67,15.55-34.67,34.67s15.55,34.67,34.67,34.67,34.67-15.55,34.67-34.67-15.55-34.67-34.67-34.67Z"/>
  <g>
    <path class="cls-2" d="m63.98,71.52c-.32.54-.89.85-1.48.85-.29,0-.59-.08-.86-.23-4.5-2.63-9.69-3.05-13.25-2.94-3.95.12-6.85.9-6.88.91-.91.25-1.85-.29-2.1-1.2-.25-.91.28-1.85,1.19-2.1.13-.04,3.25-.88,7.58-1.03,2.55-.08,5.01.09,7.3.53,2.9.55,5.55,1.52,7.88,2.87.82.48,1.09,1.52.61,2.34Zm3.18-6.61c-.38.64-1.05,1-1.75,1-.35,0-.7-.09-1.02-.28-5.32-3.11-11.48-3.61-15.7-3.48-4.68.14-8.11,1.07-8.14,1.08-1.08.29-2.19-.34-2.49-1.42-.3-1.08.34-2.19,1.41-2.49.15-.04,3.85-1.05,8.98-1.21,3.02-.1,5.94.11,8.65.63,3.44.65,6.58,1.8,9.33,3.41.97.56,1.29,1.81.73,2.77Zm1.96-6.01c-.43,0-.86-.11-1.25-.34-12.66-7.4-29.08-3-29.25-2.95-1.32.36-2.69-.41-3.06-1.74-.36-1.32.41-2.69,1.74-3.06.19-.05,4.72-1.28,11.02-1.49,3.71-.12,7.28.14,10.61.77,4.22.8,8.07,2.21,11.44,4.18,1.19.69,1.58,2.21.89,3.4-.46.79-1.29,1.23-2.15,1.23Z"/>
    <path class="cls-2" d="m53.1,86.75c-14.62,0-26.52-11.9-26.52-26.52s11.89-26.52,26.52-26.52,26.52,11.89,26.52,26.52-11.9,26.52-26.52,26.52Zm0-50.03c-12.97,0-23.52,10.55-23.52,23.52s10.55,23.52,23.52,23.52,23.52-10.55,23.52-23.52-10.55-23.52-23.52-23.52Z"/>
  </g>
</svg>