<?xml version="1.0" encoding="UTF-8"?>
<svg id="Calque_1" data-name="Calque 1" xmlns="http://www.w3.org/2000/svg" viewBox="0 0 300 120">
  <defs>
    <style>
      .cls-1 {
        fill: none;
        stroke: #000;
        stroke-miterlimit: 10;
        stroke-width: 3px;
      }

      .cls-2 {
        letter-spacing: -.02em;
      }

      .cls-3 {
        letter-spacing: -.03em;
      }

      .cls-4 {
        letter-spacing: 0em;
      }

      .cls-5 {
        letter-spacing: 0em;
      }

      .cls-6 {
        letter-spacing: 0em;
      }

      .cls-7 {
        stroke-width: 0px;
      }

      .cls-8 {
        font-family: Akshar-Regular, Akshar;
        font-size: 25px;
      }

      .cls-9 {
        letter-spacing: -.03em;
      }
    </style>
  </defs>
  <text class="cls-8" transform="translate(159.57 50.84)"><tspan class="cls-3" x="0" y="0">É</tspan><tspan class="cls-4" x="9.95" y="0">co</tspan><tspan x="31.67" y="0">u</tspan><tspan class="cls-2" x="43.6" y="0">t</tspan><tspan class="cls-4" x="51.95" y="0">e</tspan><tspan x="62.9" y="0">r </tspan><tspan class="cls-4" x="-48.54" y="30">l</tspan><tspan x="-42.81" y="30">a </tspan><tspan class="cls-5" x="-26.46" y="30">p</tspan><tspan class="cls-9" x="-14.59" y="30">r</tspan><tspan class="cls-4" x="-6.96" y="30">og</tspan><tspan class="cls-9" x="15.91" y="30">r</tspan><tspan class="cls-4" x="23.54" y="30">amma</tspan><tspan class="cls-6" x="82.49" y="30">t</tspan><tspan class="cls-4" x="91.21" y="30">io</tspan><tspan x="107.94" y="30">n</tspan></text>
  <rect class="cls-1" x=".43" y=".44" width="299.15" height="119.13"/>
  <path class="cls-7" d="m53.1,97.9c-20.77,0-37.67-16.9-37.67-37.67S32.33,22.57,53.1,22.57s37.67,16.9,37.67,37.67-16.9,37.67-37.67,37.67Zm0-72.33c-19.12,0-34.67,15.55-34.67,34.67s15.55,34.67,34.67,34.67,34.67-15.55,34.67-34.67-15.55-34.67-34.67-34.67Z"/>
  <g>
    <path class="cls-7" d="m63.98,71.52c-.32.54-.89.85-1.48.85-.29,0-.59-.08-.86-.23-4.5-2.63-9.69-3.05-13.25-2.94-3.95.12-6.85.9-6.88.91-.91.25-1.85-.29-2.1-1.2-.25-.91.28-1.85,1.19-2.1.13-.04,3.25-.88,7.58-1.03,2.55-.08,5.01.09,7.3.53,2.9.55,5.55,1.52,7.88,2.87.82.48,1.09,1.52.61,2.34Zm3.18-6.61c-.38.64-1.05,1-1.75,1-.35,0-.7-.09-1.02-.28-5.32-3.11-11.48-3.61-15.7-3.48-4.68.14-8.11,1.07-8.14,1.08-1.08.29-2.19-.34-2.49-1.42-.3-1.08.34-2.19,1.41-2.49.15-.04,3.85-1.05,8.98-1.21,3.02-.1,5.94.11,8.65.63,3.44.65,6.58,1.8,9.33,3.41.97.56,1.29,1.81.73,2.77Zm1.96-6.01c-.43,0-.86-.11-1.25-.34-12.66-7.4-29.08-3-29.25-2.95-1.32.36-2.69-.41-3.06-1.74-.36-1.32.41-2.69,1.74-3.06.19-.05,4.72-1.28,11.02-1.49,3.71-.12,7.28.14,10.61.77,4.22.8,8.07,2.21,11.44,4.18,1.19.69,1.58,2.21.89,3.4-.46.79-1.29,1.23-2.15,1.23Z"/>
    <path class="cls-7" d="m53.1,86.75c-14.62,0-26.52-11.9-26.52-26.52s11.89-26.52,26.52-26.52,26.52,11.89,26.52,26.52-11.9,26.52-26.52,26.52Zm0-50.03c-12.97,0-23.52,10.55-23.52,23.52s10.55,23.52,23.52,23.52,23.52-10.55,23.52-23.52-10.55-23.52-23.52-23.52Z"/>
  </g>
</svg>