<?xml version="1.0" encoding="UTF-8"?>
<svg id="Calque_1" data-name="Calque 1" xmlns="http://www.w3.org/2000/svg" viewBox="0 0 63.11 63.11">
  <defs>
    <style>
      .cls-1 {
        stroke: #000;
        stroke-width: .8px;
      }

      .cls-1, .cls-2, .cls-3 {
        fill: none;
        stroke-miterlimit: 10;
      }

      .cls-4 {
        fill: #010101;
      }

      .cls-5 {
        fill: #fff;
      }

      .cls-2 {
        stroke: #010101;
      }

      .cls-3 {
        stroke: #c7c6c5;
      }
    </style>
  </defs>
  <path class="cls-4" d="m31.56,21.54c-.78,0-1.46.28-2.02.84-.56.56-.84,1.23-.84,2.02v2.89c0,.78.28,1.46.84,2.02.56.56,1.23.84,2.02.84s1.46-.28,2.02-.84c.56-.56.84-1.23.84-2.02v-2.89c0-.78-.28-1.46-.84-2.02-.56-.56-1.23-.84-2.02-.84m0-2.86c1.59,0,2.94.56,4.06,1.68,1.12,1.12,1.68,2.46,1.68,4.03v2.89c0,1.57-.56,2.91-1.68,4.03-1.12,1.12-2.47,1.68-4.06,1.68s-2.95-.56-4.07-1.68c-1.12-1.12-1.68-2.46-1.68-4.03v-2.89c0-1.57.56-2.91,1.68-4.03,1.12-1.12,2.47-1.68,4.07-1.68m-4.97,14.41c.09-.02.18-.04.27-.07.09-.02.19-.03.3-.03.4,0,.74.14,1.02.42.28.28.42.62.42,1.02,0,.29-.09.56-.27.81-.18.25-.4.43-.67.54h-.03c-.94.38-1.71,1-2.32,1.86-.6.86-.91,1.83-.91,2.91v2.49c0,.4.14.74.42,1.02.28.28.61.42.99.42h11.49c.38,0,.71-.14.99-.42s.42-.62.42-1.02v-2.35c0-1.12-.31-2.12-.92-3.01-.61-.88-1.42-1.52-2.4-1.9h-.03c-.29-.11-.53-.29-.7-.54-.18-.25-.27-.51-.27-.81,0-.4.14-.74.42-1.02s.62-.42,1.02-.42c.09,0,.18.01.29.03.1.02.18.04.25.07,1.55.6,2.81,1.59,3.78,2.96s1.46,2.91,1.46,4.64v2.35c0,1.19-.42,2.2-1.26,3.04-.84.84-1.85,1.26-3.04,1.26h-11.49c-1.19,0-2.2-.42-3.04-1.26-.84-.84-1.26-1.85-1.26-3.04v-2.49c0-1.68.47-3.19,1.41-4.53.94-1.34,2.15-2.31,3.63-2.89l.03-.03Z"/>
  <path class="cls-1" d="m59.79,33.01c0,15.59-12.64,28.23-28.23,28.23S3.32,48.6,3.32,33.01,15.96,4.78,31.56,4.78s28.23,12.64,28.23,28.23Z"/>
  <path class="cls-5" d="m62.61,31.56c0,17.15-13.9,31.06-31.06,31.06S.5,48.71.5,31.56,14.4.5,31.56.5s31.06,13.9,31.06,31.06"/>
  <circle class="cls-3" cx="31.56" cy="31.56" r="31.06"/>
  <path class="cls-5" d="m59.79,31.56c0,15.59-12.64,28.23-28.23,28.23S3.32,47.15,3.32,31.56,15.96,3.32,31.56,3.32s28.23,12.64,28.23,28.23"/>
  <path class="cls-2" d="m59.79,31.56c0,15.59-12.64,28.23-28.23,28.23S3.32,47.15,3.32,31.56,15.96,3.32,31.56,3.32s28.23,12.64,28.23,28.23Z"/>
  <path class="cls-4" d="m31.56,20.08c-.78,0-1.46.28-2.02.84-.56.56-.84,1.23-.84,2.02v2.89c0,.78.28,1.46.84,2.02.56.56,1.23.84,2.02.84s1.46-.28,2.02-.84c.56-.56.84-1.23.84-2.02v-2.89c0-.78-.28-1.46-.84-2.02-.56-.56-1.23-.84-2.02-.84m0-2.86c1.59,0,2.94.56,4.06,1.68,1.12,1.12,1.68,2.46,1.68,4.03v2.89c0,1.57-.56,2.91-1.68,4.03-1.12,1.12-2.47,1.68-4.06,1.68s-2.95-.56-4.07-1.68c-1.12-1.12-1.68-2.46-1.68-4.03v-2.89c0-1.57.56-2.91,1.68-4.03,1.12-1.12,2.47-1.68,4.07-1.68m-4.97,14.41c.09-.02.18-.04.27-.07.09-.02.19-.03.3-.03.4,0,.74.14,1.02.42.28.28.42.62.42,1.02,0,.29-.09.56-.27.81-.18.25-.4.43-.67.54h-.03c-.94.38-1.71,1-2.32,1.86-.6.86-.91,1.83-.91,2.91v2.49c0,.4.14.74.42,1.02.28.28.61.42.99.42h11.49c.38,0,.71-.14.99-.42s.42-.62.42-1.02v-2.35c0-1.12-.31-2.12-.92-3.01-.61-.88-1.42-1.52-2.4-1.9h-.03c-.29-.11-.53-.29-.7-.54-.18-.25-.27-.51-.27-.81,0-.4.14-.74.42-1.02s.62-.42,1.02-.42c.09,0,.18.01.29.03.1.02.18.04.25.07,1.55.6,2.81,1.59,3.78,2.96s1.46,2.91,1.46,4.64v2.35c0,1.19-.42,2.2-1.26,3.04-.84.84-1.85,1.26-3.04,1.26h-11.49c-1.19,0-2.2-.42-3.04-1.26-.84-.84-1.26-1.85-1.26-3.04v-2.49c0-1.68.47-3.19,1.41-4.53.94-1.34,2.15-2.31,3.63-2.89l.03-.03Z"/>
</svg>